<?xml version="1.0" encoding="UTF-8" standalone="no"?>
<!DOCTYPE svg PUBLIC "-//W3C//DTD SVG 1.1//EN"
 "http://www.w3.org/Graphics/SVG/1.1/DTD/svg11.dtd">
<!-- Generated by graphviz version 14.0.2 (20251019.1705)
 -->
<!-- Pages: 1 -->
<svg width="1250pt" height="649pt"
 viewBox="0.00 0.00 1250.00 649.00" xmlns="http://www.w3.org/2000/svg" xmlns:xlink="http://www.w3.org/1999/xlink">
<g id="graph0" class="graph" transform="scale(1 1) rotate(0) translate(4 645)">
<polygon fill="white" stroke="none" points="-4,4 -4,-645 1245.75,-645 1245.75,4 -4,4"/>
<g id="clust2" class="cluster">
<title>cluster_associated</title>
</g>
<!-- Alert -->
<g id="node1" class="node">
<title>Alert</title>
<g id="a_node1"><a xlink:href="../Alert.md" xlink:title="&lt;TABLE&gt;">
<polygon fill="lightgray" stroke="none" points="540.62,-541.88 540.62,-558.12 567.38,-558.12 567.38,-541.88 540.62,-541.88"/>
<text xml:space="preserve" text-anchor="start" x="541.62" y="-545.73" font-family="Arial" font-size="12.00">Alert</text>
<polygon fill="none" stroke="black" points="539.62,-540.88 539.62,-559.12 568.38,-559.12 568.38,-540.88 539.62,-540.88"/>
</a>
</g>
</g>
<!-- Alert&#45;&gt;Alert -->
<g id="edge23" class="edge">
<title>Alert&#45;&gt;Alert</title>
<path fill="none" stroke="black" d="M580.79,-556.83C590.78,-557.05 599,-554.78 599,-550 599,-547.24 596.25,-545.31 592.01,-544.22"/>
<polygon fill="black" stroke="black" points="592.58,-540.76 582.3,-543.31 591.93,-547.73 592.58,-540.76"/>
<text xml:space="preserve" text-anchor="middle" x="639.12" y="-553.05" font-family="Arial" font-size="11.00"> referencedAlert </text>
<text xml:space="preserve" text-anchor="middle" x="639.12" y="-539.55" font-family="Arial" font-size="11.00"> «only» &#160;</text>
</g>
<!-- Invis -->
<!-- Alert&#45;&gt;Invis -->
<!-- cdm1_Activity -->
<g id="node3" class="node">
<title>cdm1_Activity</title>
<polygon fill="lightgray" stroke="none" points="16.75,-442.88 16.75,-459.12 89.25,-459.12 89.25,-442.88 16.75,-442.88"/>
<text xml:space="preserve" text-anchor="start" x="17.75" y="-446.73" font-family="Arial" font-size="12.00">cdm1:Activity</text>
<polygon fill="none" stroke="black" points="15.75,-441.88 15.75,-460.12 90.25,-460.12 90.25,-441.88 15.75,-441.88"/>
</g>
<!-- Alert&#45;&gt;cdm1_Activity -->
<g id="edge9" class="edge">
<title>Alert&#45;&gt;cdm1_Activity</title>
<path fill="none" stroke="black" d="M527.2,-548.94C430.07,-548.47 100.29,-544.61 65.5,-514 56.1,-505.73 52.6,-492.53 51.6,-480.43"/>
<polygon fill="black" stroke="black" points="55.1,-480.35 51.35,-470.44 48.1,-480.52 55.1,-480.35"/>
<text xml:space="preserve" text-anchor="middle" x="88.75" y="-503.55" font-family="Arial" font-size="11.00"> activities </text>
<text xml:space="preserve" text-anchor="middle" x="88.75" y="-490.05" font-family="Arial" font-size="11.00"> «only» &#160;</text>
</g>
<!-- cdm1_Resource -->
<g id="node4" class="node">
<title>cdm1_Resource</title>
<polygon fill="lightgray" stroke="none" points="17,-343.88 17,-360.12 103,-360.12 103,-343.88 17,-343.88"/>
<text xml:space="preserve" text-anchor="start" x="18" y="-347.73" font-family="Arial" font-size="12.00">cdm1:Resource</text>
<polygon fill="none" stroke="black" points="16,-342.88 16,-361.12 104,-361.12 104,-342.88 16,-342.88"/>
</g>
<!-- Alert&#45;&gt;cdm1_Resource -->
<g id="edge24" class="edge">
<title>Alert&#45;&gt;cdm1_Resource</title>
<path fill="none" stroke="black" d="M527.05,-548.45C453.94,-546.65 253.34,-539.45 193,-514 132.54,-488.5 91.09,-418.59 71.99,-379.8"/>
<polygon fill="black" stroke="black" points="75.32,-378.64 67.85,-371.12 69,-381.65 75.32,-378.64"/>
<text xml:space="preserve" text-anchor="middle" x="157.37" y="-454.05" font-family="Arial" font-size="11.00"> resources </text>
<text xml:space="preserve" text-anchor="middle" x="157.37" y="-440.55" font-family="Arial" font-size="11.00"> «only» &#160;</text>
</g>
<!-- Code -->
<g id="node5" class="node">
<title>Code</title>
<g id="a_node5"><a xlink:href="../Code.md" xlink:title="&lt;TABLE&gt;">
<polygon fill="lightgray" stroke="none" points="61.38,-244.88 61.38,-261.12 92.62,-261.12 92.62,-244.88 61.38,-244.88"/>
<text xml:space="preserve" text-anchor="start" x="62.38" y="-248.72" font-family="Arial" font-size="12.00">Code</text>
<polygon fill="none" stroke="black" points="60.38,-243.88 60.38,-262.12 93.62,-262.12 93.62,-243.88 60.38,-243.88"/>
</a>
</g>
</g>
<!-- Alert&#45;&gt;Code -->
<g id="edge11" class="edge">
<title>Alert&#45;&gt;Code</title>
<path fill="none" stroke="black" d="M527.1,-549.25C458.5,-549.38 279.04,-546.54 231,-514 197.25,-491.14 220.03,-458.21 188,-433 162.67,-413.07 138.25,-439.87 117.75,-415 112.02,-408.04 115.15,-342.76 113,-334 108.47,-315.55 99.81,-296.09 92.12,-280.98"/>
<polygon fill="black" stroke="black" points="95.23,-279.38 87.47,-272.16 89.04,-282.64 95.23,-279.38"/>
<text xml:space="preserve" text-anchor="middle" x="141.38" y="-404.55" font-family="Arial" font-size="11.00"> category </text>
<text xml:space="preserve" text-anchor="middle" x="141.38" y="-391.05" font-family="Arial" font-size="11.00"> «only» &#160;</text>
</g>
<!-- Alert&#45;&gt;Code -->
<g id="edge12" class="edge">
<title>Alert&#45;&gt;Code</title>
<path fill="none" stroke="black" d="M527.07,-548.44C464.67,-546.71 312.19,-539.88 269,-514 231.24,-491.37 242.49,-464.75 212,-433 202.89,-423.51 197.17,-424.89 188.5,-415 145.92,-366.41 156.66,-339.21 116,-289 113.04,-285.34 109.68,-281.73 106.2,-278.3"/>
<polygon fill="black" stroke="black" points="108.83,-275.97 99.13,-271.71 104.06,-281.09 108.83,-275.97"/>
<text xml:space="preserve" text-anchor="middle" x="208.75" y="-404.55" font-family="Arial" font-size="11.00"> cause </text>
<text xml:space="preserve" text-anchor="middle" x="208.75" y="-391.05" font-family="Arial" font-size="11.00"> «only» &#160;</text>
</g>
<!-- Alert&#45;&gt;Code -->
<g id="edge13" class="edge">
<title>Alert&#45;&gt;Code</title>
<path fill="none" stroke="black" d="M527.24,-548.04C471.02,-545.56 342.9,-537.45 307,-514 251.86,-477.98 268.65,-440.59 229,-388 193.2,-340.52 185.48,-326.09 139,-289 131.29,-282.85 122.37,-277.13 113.73,-272.18"/>
<polygon fill="black" stroke="black" points="115.59,-269.21 105.14,-267.46 112.22,-275.34 115.59,-269.21"/>
<text xml:space="preserve" text-anchor="middle" x="268.71" y="-404.55" font-family="Arial" font-size="11.00"> certainty </text>
<text xml:space="preserve" text-anchor="middle" x="268.71" y="-391.05" font-family="Arial" font-size="11.00"> «only» &#160;</text>
</g>
<!-- Alert&#45;&gt;Code -->
<g id="edge15" class="edge">
<title>Alert&#45;&gt;Code</title>
<path fill="none" stroke="black" d="M527.06,-549.09C492.26,-548 431.04,-541.83 388,-514 329.77,-476.35 344.25,-437.8 296,-388 246.2,-336.6 231.36,-324.11 169,-289 151.9,-279.37 131.63,-271.34 114.47,-265.41"/>
<polygon fill="black" stroke="black" points="115.74,-262.14 105.14,-262.29 113.52,-268.78 115.74,-262.14"/>
<text xml:space="preserve" text-anchor="middle" x="346.04" y="-404.55" font-family="Arial" font-size="11.00"> distribution </text>
<text xml:space="preserve" text-anchor="middle" x="346.04" y="-391.05" font-family="Arial" font-size="11.00"> «only» &#160;</text>
</g>
<!-- Alert&#45;&gt;Code -->
<g id="edge16" class="edge">
<title>Alert&#45;&gt;Code</title>
<path fill="none" stroke="black" d="M527.18,-545.14C504.98,-540.79 473.69,-531.83 452,-514 402.01,-472.9 424.94,-433.58 379,-388 315.84,-325.33 287.22,-323 205,-289 175.65,-276.86 140.78,-267.65 114.86,-261.72"/>
<polygon fill="black" stroke="black" points="115.62,-258.31 105.1,-259.57 114.11,-265.14 115.62,-258.31"/>
<text xml:space="preserve" text-anchor="middle" x="419.68" y="-404.55" font-family="Arial" font-size="11.00"> effect </text>
<text xml:space="preserve" text-anchor="middle" x="419.68" y="-391.05" font-family="Arial" font-size="11.00"> «only» &#160;</text>
</g>
<!-- Alert&#45;&gt;Code -->
<g id="edge22" class="edge">
<title>Alert&#45;&gt;Code</title>
<path fill="none" stroke="black" d="M543.06,-532.08C517.78,-493.14 456.55,-399.61 444,-388 347.77,-299 187.7,-268.01 115,-258.16"/>
<polygon fill="black" stroke="black" points="115.57,-254.71 105.2,-256.9 114.67,-261.65 115.57,-254.71"/>
<text xml:space="preserve" text-anchor="middle" x="507.53" y="-404.55" font-family="Arial" font-size="11.00"> recommendation </text>
<text xml:space="preserve" text-anchor="middle" x="507.53" y="-391.05" font-family="Arial" font-size="11.00"> «only» &#160;</text>
</g>
<!-- geo1_Geometry -->
<g id="node6" class="node">
<title>geo1_Geometry</title>
<polygon fill="lightgray" stroke="none" points="19.12,-171.88 19.12,-188.12 102.88,-188.12 102.88,-171.88 19.12,-171.88"/>
<text xml:space="preserve" text-anchor="start" x="20.12" y="-175.72" font-family="Arial" font-size="12.00">geo1:Geometry</text>
<polygon fill="none" stroke="black" points="18.12,-170.88 18.12,-189.12 103.88,-189.12 103.88,-170.88 18.12,-170.88"/>
</g>
<!-- Alert&#45;&gt;geo1_Geometry -->
<g id="edge21" class="edge">
<title>Alert&#45;&gt;geo1_Geometry</title>
<path fill="none" stroke="black" d="M559.44,-532.21C568.48,-500.87 582.83,-432.61 553,-388 546.44,-378.19 238.48,-252.8 113.19,-202.08"/>
<polygon fill="black" stroke="black" points="114.7,-198.91 104.12,-198.41 112.07,-205.4 114.7,-198.91"/>
<text xml:space="preserve" text-anchor="middle" x="538.31" y="-355.05" font-family="Arial" font-size="11.00"> location </text>
<text xml:space="preserve" text-anchor="middle" x="538.31" y="-341.55" font-family="Arial" font-size="11.00"> «only» &#160;</text>
</g>
<!-- owl_Thing -->
<g id="node7" class="node">
<title>owl_Thing</title>
<polygon fill="lightgray" stroke="none" points="48.75,-98.88 48.75,-115.12 103.25,-115.12 103.25,-98.88 48.75,-98.88"/>
<text xml:space="preserve" text-anchor="start" x="49.75" y="-102.72" font-family="Arial" font-size="12.00">owl:Thing</text>
<polygon fill="none" stroke="black" points="47.75,-97.88 47.75,-116.12 104.25,-116.12 104.25,-97.88 47.75,-97.88"/>
</g>
<!-- Alert&#45;&gt;owl_Thing -->
<g id="edge10" class="edge">
<title>Alert&#45;&gt;owl_Thing</title>
<path fill="none" stroke="black" d="M568.46,-532.28C572.33,-526.82 575.99,-520.47 578,-514 601.76,-437.32 618.39,-392.11 563,-334 538.9,-308.72 519.31,-327.98 486.5,-316 342.36,-263.38 183.46,-172.65 113.06,-130.6"/>
<polygon fill="black" stroke="black" points="115,-127.68 104.63,-125.54 111.4,-133.69 115,-127.68"/>
<text xml:space="preserve" text-anchor="middle" x="518.75" y="-305.55" font-family="Arial" font-size="11.00"> beginInstant </text>
<text xml:space="preserve" text-anchor="middle" x="518.75" y="-292.05" font-family="Arial" font-size="11.00"> «max 1» &#160;</text>
</g>
<!-- Alert&#45;&gt;owl_Thing -->
<g id="edge14" class="edge">
<title>Alert&#45;&gt;owl_Thing</title>
<path fill="none" stroke="black" d="M579.06,-532.24C585.33,-527.03 591.54,-520.83 596,-514 607.39,-496.57 606.08,-489.61 609,-469 617.49,-409.01 618.65,-387.39 590,-334 589.8,-333.64 551.34,-289.24 551,-289 407.34,-188.51 200.61,-134.99 115.2,-116.05"/>
<polygon fill="black" stroke="black" points="115.97,-112.64 105.45,-113.93 114.48,-119.48 115.97,-112.64"/>
<text xml:space="preserve" text-anchor="middle" x="612.65" y="-305.55" font-family="Arial" font-size="11.00"> creationInstant </text>
<text xml:space="preserve" text-anchor="middle" x="612.65" y="-292.05" font-family="Arial" font-size="11.00"> «exactly 1» &#160;</text>
</g>
<!-- Alert&#45;&gt;owl_Thing -->
<g id="edge17" class="edge">
<title>Alert&#45;&gt;owl_Thing</title>
<path fill="none" stroke="black" d="M580.71,-540.58C615.79,-527.65 673,-499.31 673,-452 673,-452 673,-452 673,-179 673,-122.64 248.06,-110.84 115.21,-108.53"/>
<polygon fill="black" stroke="black" points="115.56,-105.04 105.51,-108.37 115.45,-112.04 115.56,-105.04"/>
<text xml:space="preserve" text-anchor="middle" x="701.12" y="-305.55" font-family="Arial" font-size="11.00"> endInstant </text>
<text xml:space="preserve" text-anchor="middle" x="701.12" y="-292.05" font-family="Arial" font-size="11.00"> «max 1» &#160;</text>
</g>
<!-- Alert&#45;&gt;owl_Thing -->
<g id="edge19" class="edge">
<title>Alert&#45;&gt;owl_Thing</title>
<path fill="none" stroke="black" d="M580.7,-547.93C634.75,-544.2 752,-527.41 752,-452 752,-452 752,-452 752,-179 752,-114.58 260.17,-108.4 115.54,-107.98"/>
<polygon fill="black" stroke="black" points="115.71,-104.48 105.7,-107.96 115.69,-111.48 115.71,-104.48"/>
<text xml:space="preserve" text-anchor="middle" x="783.5" y="-305.55" font-family="Arial" font-size="11.00"> issuer </text>
<text xml:space="preserve" text-anchor="middle" x="783.5" y="-292.05" font-family="Arial" font-size="11.00"> «exactly 1» &#160;</text>
</g>
<!-- Alert&#45;&gt;owl_Thing -->
<g id="edge20" class="edge">
<title>Alert&#45;&gt;owl_Thing</title>
<path fill="none" stroke="black" d="M580.75,-547.29C618.04,-544.19 687.25,-535.79 742,-514 789.19,-495.22 838,-502.79 838,-452 838,-452 838,-452 838,-179 838,-105.68 271.41,-106.01 115.37,-107.5"/>
<polygon fill="black" stroke="black" points="115.5,-104 105.54,-107.6 115.57,-110.99 115.5,-104"/>
<text xml:space="preserve" text-anchor="middle" x="883" y="-305.55" font-family="Arial" font-size="11.00"> lastUpdateInstant </text>
<text xml:space="preserve" text-anchor="middle" x="883" y="-292.05" font-family="Arial" font-size="11.00"> «exactly 1» &#160;</text>
</g>
<!-- Alert&#45;&gt;owl_Thing -->
<g id="edge25" class="edge">
<title>Alert&#45;&gt;owl_Thing</title>
<path fill="none" stroke="black" d="M580.98,-548.21C670.33,-544.89 951,-528.36 951,-452 951,-452 951,-452 951,-179 951,-106.98 864.35,-152.79 793,-143 536.54,-107.8 224.22,-106.68 115.53,-107.51"/>
<polygon fill="black" stroke="black" points="115.66,-104.01 105.69,-107.6 115.72,-111.01 115.66,-104.01"/>
<text xml:space="preserve" text-anchor="middle" x="976.12" y="-305.55" font-family="Arial" font-size="11.00"> severity </text>
<text xml:space="preserve" text-anchor="middle" x="976.12" y="-292.05" font-family="Arial" font-size="11.00"> «max 1» &#160;</text>
</g>
<!-- Alert&#45;&gt;owl_Thing -->
<g id="edge26" class="edge">
<title>Alert&#45;&gt;owl_Thing</title>
<path fill="none" stroke="black" d="M580.96,-549.22C680.83,-549.34 1024,-543.13 1024,-452 1024,-452 1024,-452 1024,-179 1024,-169.24 904.59,-146.46 878,-143 727.93,-123.48 255.32,-111.89 115.4,-108.82"/>
<polygon fill="black" stroke="black" points="115.61,-105.33 105.54,-108.61 115.46,-112.33 115.61,-105.33"/>
<text xml:space="preserve" text-anchor="middle" x="1055.5" y="-305.55" font-family="Arial" font-size="11.00"> status </text>
<text xml:space="preserve" text-anchor="middle" x="1055.5" y="-292.05" font-family="Arial" font-size="11.00"> «exactly 1» &#160;</text>
</g>
<!-- Alert&#45;&gt;owl_Thing -->
<g id="edge27" class="edge">
<title>Alert&#45;&gt;owl_Thing</title>
<path fill="none" stroke="black" d="M580.8,-548.16C662.75,-545.4 909.09,-535.47 986,-514 1045.35,-497.43 1110,-513.62 1110,-452 1110,-452 1110,-452 1110,-179 1110,-128.19 304.82,-111.77 115.51,-108.61"/>
<polygon fill="black" stroke="black" points="115.76,-105.11 105.71,-108.45 115.65,-112.11 115.76,-105.11"/>
<text xml:space="preserve" text-anchor="middle" x="1135.12" y="-305.55" font-family="Arial" font-size="11.00"> urgency </text>
<text xml:space="preserve" text-anchor="middle" x="1135.12" y="-292.05" font-family="Arial" font-size="11.00"> «max 1» &#160;</text>
</g>
<!-- time1_Instant -->
<g id="node8" class="node">
<title>time1_Instant</title>
<polygon fill="lightgray" stroke="none" points="33.25,-25.88 33.25,-42.12 102.75,-42.12 102.75,-25.88 33.25,-25.88"/>
<text xml:space="preserve" text-anchor="start" x="34.25" y="-29.73" font-family="Arial" font-size="12.00">time1:Instant</text>
<polygon fill="none" stroke="black" points="32.25,-24.88 32.25,-43.12 103.75,-43.12 103.75,-24.88 32.25,-24.88"/>
</g>
<!-- Alert&#45;&gt;time1_Instant -->
<g id="edge18" class="edge">
<title>Alert&#45;&gt;time1_Instant</title>
<path fill="none" stroke="black" d="M580.86,-548.55C671.36,-546.83 964.54,-539.36 1055,-514 1112.8,-497.8 1175,-512.03 1175,-452 1175,-452 1175,-452 1175,-106 1175,-52.01 325.48,-38.13 114.83,-35.51"/>
<polygon fill="black" stroke="black" points="115.13,-32.02 105.09,-35.4 115.05,-39.02 115.13,-32.02"/>
<text xml:space="preserve" text-anchor="middle" x="1208.38" y="-256.05" font-family="Arial" font-size="11.00"> expiryInstant </text>
<text xml:space="preserve" text-anchor="middle" x="1208.38" y="-242.55" font-family="Arial" font-size="11.00"> «only» &#160;</text>
</g>
<!-- AlertThing -->
<g id="node9" class="node">
<title>AlertThing</title>
<g id="a_node9"><a xlink:href="../AlertThing.md" xlink:title="&lt;TABLE&gt;">
<polygon fill="lightgray" stroke="none" points="525.25,-614.88 525.25,-631.12 582.75,-631.12 582.75,-614.88 525.25,-614.88"/>
<text xml:space="preserve" text-anchor="start" x="526.25" y="-618.73" font-family="Arial" font-size="12.00">AlertThing</text>
<polygon fill="none" stroke="black" points="524.25,-613.88 524.25,-632.12 583.75,-632.12 583.75,-613.88 524.25,-613.88"/>
</a>
</g>
</g>
<!-- Alert&#45;&gt;AlertThing -->
<g id="edge1" class="edge">
<title>Alert&#45;&gt;AlertThing</title>
<path fill="none" stroke="black" d="M554,-567.71C554,-575.47 554,-584.92 554,-593.74"/>
<polygon fill="none" stroke="black" points="550.5,-593.66 554,-603.66 557.5,-593.66 550.5,-593.66"/>
</g>
<!-- Invis&#45;&gt;cdm1_Activity -->
<!-- cdm1_Activity&#45;&gt;cdm1_Resource -->
<!-- cdm1_Resource&#45;&gt;Code -->
<!-- Code&#45;&gt;geo1_Geometry -->
<!-- geo1_Geometry&#45;&gt;owl_Thing -->
<!-- owl_Thing&#45;&gt;time1_Instant -->
</g>
</svg>
