<?xml version="1.0" encoding="UTF-8" standalone="no"?>
<!DOCTYPE svg PUBLIC "-//W3C//DTD SVG 1.1//EN"
 "http://www.w3.org/Graphics/SVG/1.1/DTD/svg11.dtd">
<!-- Generated by graphviz version 14.0.2 (20251019.1705)
 -->
<!-- Pages: 1 -->
<svg width="535pt" height="664pt"
 viewBox="0.00 0.00 535.00 664.00" xmlns="http://www.w3.org/2000/svg" xmlns:xlink="http://www.w3.org/1999/xlink">
<g id="graph0" class="graph" transform="scale(1 1) rotate(0) translate(4 659.75)">
<polygon fill="white" stroke="none" points="-4,4 -4,-659.75 530.75,-659.75 530.75,4 -4,4"/>
<g id="clust2" class="cluster">
<title>cluster_associated</title>
</g>
<!-- BuildingUnit -->
<g id="node1" class="node">
<title>BuildingUnit</title>
<g id="a_node1"><a xlink:href="../BuildingUnit.md" xlink:title="&lt;TABLE&gt;">
<polygon fill="lightgray" stroke="none" points="149.5,-565.5 149.5,-581.75 430.5,-581.75 430.5,-565.5 149.5,-565.5"/>
<text xml:space="preserve" text-anchor="start" x="257" y="-569.35" font-family="Arial" font-size="12.00">BuildingUnit</text>
<text xml:space="preserve" text-anchor="start" x="150.5" y="-553.1" font-family="Arial" font-size="12.00">«only» numberOfBedrooms: xsd:nonNegativeInteger</text>
<text xml:space="preserve" text-anchor="start" x="150.5" y="-536.85" font-family="Arial" font-size="12.00">«only» numberOfRooms: xsd:nonNegativeInteger</text>
<polygon fill="black" stroke="black" points="148.5,-565.5 148.5,-565.5 431.5,-565.5 431.5,-565.5 148.5,-565.5"/>
<polygon fill="none" stroke="black" points="148.5,-532 148.5,-582.75 431.5,-582.75 431.5,-532 148.5,-532"/>
</a>
</g>
</g>
<!-- Invis -->
<!-- BuildingUnit&#45;&gt;Invis -->
<!-- Address -->
<g id="node3" class="node">
<title>Address</title>
<g id="a_node3"><a xlink:href="../Address.md" xlink:title="&lt;TABLE&gt;">
<polygon fill="lightgray" stroke="none" points="19.88,-442.88 19.88,-459.12 66.12,-459.12 66.12,-442.88 19.88,-442.88"/>
<text xml:space="preserve" text-anchor="start" x="20.88" y="-446.73" font-family="Arial" font-size="12.00">Address</text>
<polygon fill="none" stroke="black" points="18.88,-441.88 18.88,-460.12 67.12,-460.12 67.12,-441.88 18.88,-441.88"/>
</a>
</g>
</g>
<!-- BuildingUnit&#45;&gt;Address -->
<g id="edge15" class="edge">
<title>BuildingUnit&#45;&gt;Address</title>
<path fill="none" stroke="black" d="M148.79,-532.51C94.2,-523.2 44.51,-514.59 44,-514 36.12,-504.8 34.98,-491.71 36.16,-479.93"/>
<polygon fill="black" stroke="black" points="39.59,-480.7 37.73,-470.27 32.68,-479.58 39.59,-480.7"/>
<text xml:space="preserve" text-anchor="middle" x="75.5" y="-503.55" font-family="Arial" font-size="11.00"> hasAddress </text>
<text xml:space="preserve" text-anchor="middle" x="75.5" y="-490.05" font-family="Arial" font-size="11.00"> «only» &#160;</text>
</g>
<!-- cdm1_Area -->
<g id="node5" class="node">
<title>cdm1_Area</title>
<polygon fill="lightgray" stroke="none" points="68.12,-244.88 68.12,-261.12 127.88,-261.12 127.88,-244.88 68.12,-244.88"/>
<text xml:space="preserve" text-anchor="start" x="69.12" y="-248.72" font-family="Arial" font-size="12.00">cdm1:Area</text>
<polygon fill="none" stroke="black" points="67.12,-243.88 67.12,-262.12 128.88,-262.12 128.88,-243.88 67.12,-243.88"/>
</g>
<!-- BuildingUnit&#45;&gt;cdm1_Area -->
<g id="edge14" class="edge">
<title>BuildingUnit&#45;&gt;cdm1_Area</title>
<path fill="none" stroke="black" d="M281.82,-532.15C270.98,-500.96 251.73,-448.86 239,-433 230.26,-422.11 223.18,-424.82 213.25,-415 170.94,-373.16 133.16,-314.3 113.12,-280.56"/>
<polygon fill="black" stroke="black" points="116.33,-279.1 108.25,-272.24 110.29,-282.64 116.33,-279.1"/>
<text xml:space="preserve" text-anchor="middle" x="245.12" y="-404.55" font-family="Arial" font-size="11.00"> hasUnitSize </text>
<text xml:space="preserve" text-anchor="middle" x="245.12" y="-391.05" font-family="Arial" font-size="11.00"> «only» &#160;</text>
</g>
<!-- cdm1_Length -->
<g id="node6" class="node">
<title>cdm1_Length</title>
<polygon fill="lightgray" stroke="none" points="59.5,-171.88 59.5,-188.12 130.5,-188.12 130.5,-171.88 59.5,-171.88"/>
<text xml:space="preserve" text-anchor="start" x="60.5" y="-175.72" font-family="Arial" font-size="12.00">cdm1:Length</text>
<polygon fill="none" stroke="black" points="58.5,-170.88 58.5,-189.12 131.5,-189.12 131.5,-170.88 58.5,-170.88"/>
</g>
<!-- BuildingUnit&#45;&gt;cdm1_Length -->
<g id="edge12" class="edge">
<title>BuildingUnit&#45;&gt;cdm1_Length</title>
<path fill="none" stroke="black" d="M292.79,-532.11C295.65,-498.35 297.22,-435.95 277,-388 243.91,-309.54 168.89,-240.14 126.21,-205.12"/>
<polygon fill="black" stroke="black" points="128.53,-202.49 118.55,-198.92 124.13,-207.93 128.53,-202.49"/>
<text xml:space="preserve" text-anchor="middle" x="319.12" y="-355.05" font-family="Arial" font-size="11.00"> floorToCeilingHeight </text>
<text xml:space="preserve" text-anchor="middle" x="319.12" y="-341.55" font-family="Arial" font-size="11.00"> «only» &#160;</text>
</g>
<!-- cdm1_MonetaryValue -->
<g id="node7" class="node">
<title>cdm1_MonetaryValue</title>
<polygon fill="lightgray" stroke="none" points="17.12,-98.88 17.12,-115.12 130.88,-115.12 130.88,-98.88 17.12,-98.88"/>
<text xml:space="preserve" text-anchor="start" x="18.12" y="-102.72" font-family="Arial" font-size="12.00">cdm1:MonetaryValue</text>
<polygon fill="none" stroke="black" points="16.12,-97.88 16.12,-116.12 131.88,-116.12 131.88,-97.88 16.12,-97.88"/>
</g>
<!-- BuildingUnit&#45;&gt;cdm1_MonetaryValue -->
<g id="edge13" class="edge">
<title>BuildingUnit&#45;&gt;cdm1_MonetaryValue</title>
<path fill="none" stroke="black" d="M334,-532.06C360.44,-513.9 389,-486.34 389,-452 389,-452 389,-452 389,-179 389,-128.95 235.76,-114.18 143.05,-109.82"/>
<polygon fill="black" stroke="black" points="143.43,-106.33 133.29,-109.39 143.13,-113.33 143.43,-106.33"/>
<text xml:space="preserve" text-anchor="middle" x="412.25" y="-305.55" font-family="Arial" font-size="11.00"> hasRent </text>
<text xml:space="preserve" text-anchor="middle" x="412.25" y="-292.05" font-family="Arial" font-size="11.00"> «only» &#160;</text>
</g>
<!-- Facility -->
<g id="node8" class="node">
<title>Facility</title>
<g id="a_node8"><a xlink:href="../Facility.md" xlink:title="&lt;TABLE&gt;">
<polygon fill="lightgray" stroke="none" points="69.88,-25.88 69.88,-42.12 110.12,-42.12 110.12,-25.88 69.88,-25.88"/>
<text xml:space="preserve" text-anchor="start" x="70.88" y="-29.73" font-family="Arial" font-size="12.00">Facility</text>
<polygon fill="none" stroke="black" points="68.88,-24.88 68.88,-43.12 111.12,-43.12 111.12,-24.88 68.88,-24.88"/>
</a>
</g>
</g>
<!-- BuildingUnit&#45;&gt;Facility -->
<g id="edge11" class="edge">
<title>BuildingUnit&#45;&gt;Facility</title>
<path fill="none" stroke="black" d="M380.38,-532.15C417.08,-516.34 451,-491.14 451,-452 451,-452 451,-452 451,-106 451,-40.75 221.1,-34.43 128.23,-34.53"/>
<polygon fill="black" stroke="black" points="128.34,-31.03 118.35,-34.57 128.37,-38.03 128.34,-31.03"/>
<text xml:space="preserve" text-anchor="middle" x="488.88" y="-256.05" font-family="Arial" font-size="11.00"> buildingFacility </text>
<text xml:space="preserve" text-anchor="middle" x="488.88" y="-242.55" font-family="Arial" font-size="11.00"> «only» &#160;</text>
</g>
<!-- BuildingThing -->
<g id="node9" class="node">
<title>BuildingThing</title>
<g id="a_node9"><a xlink:href="../BuildingThing.md" xlink:title="&lt;TABLE&gt;">
<polygon fill="lightgray" stroke="none" points="140.5,-629.62 140.5,-645.88 217.5,-645.88 217.5,-629.62 140.5,-629.62"/>
<text xml:space="preserve" text-anchor="start" x="141.5" y="-633.48" font-family="Arial" font-size="12.00">BuildingThing</text>
<polygon fill="none" stroke="black" points="139.5,-628.62 139.5,-646.88 218.5,-646.88 218.5,-628.62 139.5,-628.62"/>
</a>
</g>
</g>
<!-- BuildingUnit&#45;&gt;BuildingThing -->
<g id="edge1" class="edge">
<title>BuildingUnit&#45;&gt;BuildingThing</title>
<path fill="none" stroke="black" d="M255.69,-582.6C241.76,-592.43 225.74,-603.75 211.95,-613.49"/>
<polygon fill="none" stroke="black" points="210.2,-610.44 204.05,-619.06 214.24,-616.15 210.2,-610.44"/>
</g>
<!-- cdm1_Manifestation -->
<g id="node10" class="node">
<title>cdm1_Manifestation</title>
<polygon fill="lightgray" stroke="none" points="237.25,-629.62 237.25,-645.88 342.75,-645.88 342.75,-629.62 237.25,-629.62"/>
<text xml:space="preserve" text-anchor="start" x="238.25" y="-633.48" font-family="Arial" font-size="12.00">cdm1:Manifestation</text>
<polygon fill="none" stroke="black" points="236.25,-628.62 236.25,-646.88 343.75,-646.88 343.75,-628.62 236.25,-628.62"/>
</g>
<!-- BuildingUnit&#45;&gt;cdm1_Manifestation -->
<g id="edge2" class="edge">
<title>BuildingUnit&#45;&gt;cdm1_Manifestation</title>
<path fill="none" stroke="black" d="M290,-582.71C290,-590.97 290,-600.27 290,-608.79"/>
<polygon fill="none" stroke="black" points="286.5,-608.62 290,-618.62 293.5,-608.62 286.5,-608.62"/>
</g>
<!-- InfrastructureElement -->
<g id="node11" class="node">
<title>InfrastructureElement</title>
<g id="a_node11"><a xlink:href="../InfrastructureElement.md" xlink:title="&lt;TABLE&gt;">
<polygon fill="lightgray" stroke="none" points="362.38,-629.62 362.38,-645.88 477.62,-645.88 477.62,-629.62 362.38,-629.62"/>
<text xml:space="preserve" text-anchor="start" x="363.38" y="-633.48" font-family="Arial" font-size="12.00">InfrastructureElement</text>
<polygon fill="none" stroke="black" points="361.38,-628.62 361.38,-646.88 478.62,-646.88 478.62,-628.62 361.38,-628.62"/>
</a>
</g>
</g>
<!-- BuildingUnit&#45;&gt;InfrastructureElement -->
<g id="edge3" class="edge">
<title>BuildingUnit&#45;&gt;InfrastructureElement</title>
<path fill="none" stroke="black" d="M330.18,-582.6C346.81,-592.62 365.99,-604.19 382.34,-614.05"/>
<polygon fill="none" stroke="black" points="380.44,-616.99 390.82,-619.16 384.06,-610.99 380.44,-616.99"/>
</g>
<!-- Invis&#45;&gt;Address -->
<!-- Building -->
<g id="node4" class="node">
<title>Building</title>
<g id="a_node4"><a xlink:href="../Building.md" xlink:title="&lt;TABLE&gt;">
<polygon fill="lightgray" stroke="none" points="74.88,-343.88 74.88,-360.12 121.12,-360.12 121.12,-343.88 74.88,-343.88"/>
<text xml:space="preserve" text-anchor="start" x="75.88" y="-347.73" font-family="Arial" font-size="12.00">Building</text>
<polygon fill="none" stroke="black" points="73.88,-342.88 73.88,-361.12 122.12,-361.12 122.12,-342.88 73.88,-342.88"/>
</a>
</g>
</g>
<!-- Address&#45;&gt;Building -->
<!-- Building&#45;&gt;BuildingUnit -->
<g id="edge16" class="edge">
<title>Building&#45;&gt;BuildingUnit</title>
<path fill="none" stroke="black" d="M96.92,-369.79C96.23,-394.11 98.35,-439.45 120.5,-469 140.3,-495.41 170.39,-514.51 199.75,-527.97"/>
<polygon fill="black" stroke="black" points="207.37,-535.15 199.63,-527.92 210.19,-528.75 207.37,-535.15"/>
<text xml:space="preserve" text-anchor="middle" x="179.75" y="-454.05" font-family="Arial" font-size="11.00"> inverse hasBuildingUnit </text>
<text xml:space="preserve" text-anchor="middle" x="179.75" y="-440.55" font-family="Arial" font-size="11.00"> «exactly 1» &#160;</text>
</g>
<!-- Building&#45;&gt;cdm1_Area -->
<!-- cdm1_Area&#45;&gt;cdm1_Length -->
<!-- cdm1_Length&#45;&gt;cdm1_MonetaryValue -->
<!-- cdm1_MonetaryValue&#45;&gt;Facility -->
</g>
</svg>
