<?xml version="1.0" encoding="UTF-8" standalone="no"?>
<!DOCTYPE svg PUBLIC "-//W3C//DTD SVG 1.1//EN"
 "http://www.w3.org/Graphics/SVG/1.1/DTD/svg11.dtd">
<!-- Generated by graphviz version 14.0.2 (20251019.1705)
 -->
<!-- Pages: 1 -->
<svg width="164pt" height="132pt"
 viewBox="0.00 0.00 164.00 132.00" xmlns="http://www.w3.org/2000/svg" xmlns:xlink="http://www.w3.org/1999/xlink">
<g id="graph0" class="graph" transform="scale(1 1) rotate(0) translate(4 128)">
<polygon fill="white" stroke="none" points="-4,4 -4,-128 159.88,-128 159.88,4 -4,4"/>
<g id="clust2" class="cluster">
<title>cluster_associated</title>
</g>
<!-- BylawThing -->
<g id="node1" class="node">
<title>BylawThing</title>
<g id="a_node1"><a xlink:href="../BylawThing.md" xlink:title="&lt;TABLE&gt;">
<polygon fill="lightgray" stroke="none" points="1,-25.88 1,-42.12 66.75,-42.12 66.75,-25.88 1,-25.88"/>
<text xml:space="preserve" text-anchor="start" x="2" y="-29.73" font-family="Arial" font-size="12.00">BylawThing</text>
<polygon fill="none" stroke="black" points="0,-24.88 0,-43.12 67.75,-43.12 67.75,-24.88 0,-24.88"/>
</a>
</g>
</g>
<!-- CityThing -->
<g id="node3" class="node">
<title>CityThing</title>
<g id="a_node3"><a xlink:href="../CityThing.md" xlink:title="&lt;TABLE&gt;">
<polygon fill="lightgray" stroke="none" points="7,-97.88 7,-114.12 60.75,-114.12 60.75,-97.88 7,-97.88"/>
<text xml:space="preserve" text-anchor="start" x="8" y="-101.72" font-family="Arial" font-size="12.00">CityThing</text>
<polygon fill="none" stroke="black" points="6,-96.88 6,-115.12 61.75,-115.12 61.75,-96.88 6,-96.88"/>
</a>
</g>
</g>
<!-- BylawThing&#45;&gt;CityThing -->
<g id="edge1" class="edge">
<title>BylawThing&#45;&gt;CityThing</title>
<path fill="none" stroke="black" d="M33.88,-51.79C33.88,-59.25 33.88,-68.24 33.88,-76.69"/>
<polygon fill="none" stroke="black" points="30.38,-76.54 33.88,-86.54 37.38,-76.54 30.38,-76.54"/>
</g>
<!-- Invis -->
</g>
</svg>
