<?xml version="1.0" encoding="UTF-8" standalone="no"?>
<!DOCTYPE svg PUBLIC "-//W3C//DTD SVG 1.1//EN"
 "http://www.w3.org/Graphics/SVG/1.1/DTD/svg11.dtd">
<!-- Generated by graphviz version 14.0.2 (20251019.1705)
 -->
<!-- Pages: 1 -->
<svg width="360pt" height="477pt"
 viewBox="0.00 0.00 360.00 477.00" xmlns="http://www.w3.org/2000/svg" xmlns:xlink="http://www.w3.org/1999/xlink">
<g id="graph0" class="graph" transform="scale(1 1) rotate(0) translate(4 473)">
<polygon fill="white" stroke="none" points="-4,4 -4,-473 356.25,-473 356.25,4 -4,4"/>
<g id="clust2" class="cluster">
<title>cluster_associated</title>
</g>
<!-- CityResident -->
<g id="node1" class="node">
<title>CityResident</title>
<g id="a_node1"><a xlink:href="../CityResident.md" xlink:title="&lt;TABLE&gt;">
<polygon fill="lightgray" stroke="none" points="133.5,-369.88 133.5,-386.12 204.5,-386.12 204.5,-369.88 133.5,-369.88"/>
<text xml:space="preserve" text-anchor="start" x="134.5" y="-373.73" font-family="Arial" font-size="12.00">CityResident</text>
<polygon fill="none" stroke="black" points="132.5,-368.88 132.5,-387.12 205.5,-387.12 205.5,-368.88 132.5,-368.88"/>
</a>
</g>
</g>
<!-- Invis -->
<!-- CityResident&#45;&gt;Invis -->
<!-- EntityOperation -->
<g id="node3" class="node">
<title>EntityOperation</title>
<g id="a_node3"><a xlink:href="../EntityOperation.md" xlink:title="&lt;TABLE&gt;">
<polygon fill="lightgray" stroke="none" points="16.75,-270.88 16.75,-287.12 101.25,-287.12 101.25,-270.88 16.75,-270.88"/>
<text xml:space="preserve" text-anchor="start" x="17.75" y="-274.73" font-family="Arial" font-size="12.00">EntityOperation</text>
<polygon fill="none" stroke="black" points="15.75,-269.88 15.75,-288.12 102.25,-288.12 102.25,-269.88 15.75,-269.88"/>
</a>
</g>
</g>
<!-- CityResident&#45;&gt;EntityOperation -->
<g id="edge9" class="edge">
<title>CityResident&#45;&gt;EntityOperation</title>
<path fill="none" stroke="black" d="M132.83,-361.86C131.2,-361.23 129.58,-360.6 128,-360 105.14,-351.31 92.72,-359.85 76,-342 67.42,-332.83 63.1,-319.75 60.95,-307.96"/>
<polygon fill="black" stroke="black" points="64.45,-307.75 59.65,-298.3 57.51,-308.68 64.45,-307.75"/>
<text xml:space="preserve" text-anchor="middle" x="100" y="-331.55" font-family="Arial" font-size="11.00"> operates </text>
<text xml:space="preserve" text-anchor="middle" x="100" y="-318.05" font-family="Arial" font-size="11.00"> «only» &#160;</text>
</g>
<!-- EntityOwnership -->
<g id="node4" class="node">
<title>EntityOwnership</title>
<g id="a_node4"><a xlink:href="../EntityOwnership.md" xlink:title="&lt;TABLE&gt;">
<polygon fill="lightgray" stroke="none" points="21.12,-171.88 21.12,-188.12 110.88,-188.12 110.88,-171.88 21.12,-171.88"/>
<text xml:space="preserve" text-anchor="start" x="22.12" y="-175.72" font-family="Arial" font-size="12.00">EntityOwnership</text>
<polygon fill="none" stroke="black" points="20.12,-170.88 20.12,-189.12 111.88,-189.12 111.88,-170.88 20.12,-170.88"/>
</a>
</g>
</g>
<!-- CityResident&#45;&gt;EntityOwnership -->
<g id="edge10" class="edge">
<title>CityResident&#45;&gt;EntityOwnership</title>
<path fill="none" stroke="black" d="M160.99,-360.35C150.03,-337.7 129.58,-296 111,-261 101.47,-243.05 90.26,-223.12 81.42,-207.65"/>
<polygon fill="black" stroke="black" points="84.49,-205.97 76.47,-199.04 78.42,-209.45 84.49,-205.97"/>
<text xml:space="preserve" text-anchor="middle" x="149.47" y="-282.05" font-family="Arial" font-size="11.00"> owns </text>
<text xml:space="preserve" text-anchor="middle" x="149.47" y="-268.55" font-family="Arial" font-size="11.00"> «only» &#160;</text>
</g>
<!-- JurisdictionalArea -->
<g id="node5" class="node">
<title>JurisdictionalArea</title>
<g id="a_node5"><a xlink:href="../JurisdictionalArea.md" xlink:title="&lt;TABLE&gt;">
<polygon fill="lightgray" stroke="none" points="17,-98.88 17,-115.12 115,-115.12 115,-98.88 17,-98.88"/>
<text xml:space="preserve" text-anchor="start" x="18" y="-102.72" font-family="Arial" font-size="12.00">JurisdictionalArea</text>
<polygon fill="none" stroke="black" points="16,-97.88 16,-116.12 116,-116.12 116,-97.88 16,-97.88"/>
</a>
</g>
</g>
<!-- CityResident&#45;&gt;JurisdictionalArea -->
<g id="edge11" class="edge">
<title>CityResident&#45;&gt;JurisdictionalArea</title>
<path fill="none" stroke="black" d="M172.69,-360.18C177.03,-337.34 182.63,-295.41 174,-261 161.86,-212.59 150.93,-201.94 121,-162 113.2,-151.59 103.39,-141.29 94.22,-132.53"/>
<polygon fill="black" stroke="black" points="96.88,-130.22 87.17,-125.99 92.12,-135.35 96.88,-130.22"/>
<text xml:space="preserve" text-anchor="middle" x="196.72" y="-232.55" font-family="Arial" font-size="11.00"> residentOf </text>
<text xml:space="preserve" text-anchor="middle" x="196.72" y="-219.05" font-family="Arial" font-size="11.00"> «only» &#160;</text>
</g>
<!-- Residence -->
<g id="node6" class="node">
<title>Residence</title>
<g id="a_node6"><a xlink:href="../Residence.md" xlink:title="&lt;TABLE&gt;">
<polygon fill="lightgray" stroke="none" points="46.12,-25.88 46.12,-42.12 105.88,-42.12 105.88,-25.88 46.12,-25.88"/>
<text xml:space="preserve" text-anchor="start" x="47.12" y="-29.73" font-family="Arial" font-size="12.00">Residence</text>
<polygon fill="none" stroke="black" points="45.12,-24.88 45.12,-43.12 106.88,-43.12 106.88,-24.88 45.12,-24.88"/>
</a>
</g>
</g>
<!-- CityResident&#45;&gt;Residence -->
<g id="edge8" class="edge">
<title>CityResident&#45;&gt;Residence</title>
<path fill="none" stroke="black" d="M205.3,-362.54C237,-347.24 278,-319.77 278,-280 278,-280 278,-280 278,-106 278,-72.37 177.09,-50.81 117.92,-41.06"/>
<polygon fill="black" stroke="black" points="118.6,-37.62 108.17,-39.5 117.5,-44.54 118.6,-37.62"/>
<text xml:space="preserve" text-anchor="middle" x="315.12" y="-183.05" font-family="Arial" font-size="11.00"> hasResidence </text>
<text xml:space="preserve" text-anchor="middle" x="315.12" y="-169.55" font-family="Arial" font-size="11.00"> «only» &#160;</text>
</g>
<!-- CityResidentThing -->
<g id="node7" class="node">
<title>CityResidentThing</title>
<g id="a_node7"><a xlink:href="../CityResidentThing.md" xlink:title="&lt;TABLE&gt;">
<polygon fill="lightgray" stroke="none" points="69.12,-442.88 69.12,-459.12 170.88,-459.12 170.88,-442.88 69.12,-442.88"/>
<text xml:space="preserve" text-anchor="start" x="70.12" y="-446.73" font-family="Arial" font-size="12.00">CityResidentThing</text>
<polygon fill="none" stroke="black" points="68.12,-441.88 68.12,-460.12 171.88,-460.12 171.88,-441.88 68.12,-441.88"/>
</a>
</g>
</g>
<!-- CityResident&#45;&gt;CityResidentThing -->
<g id="edge1" class="edge">
<title>CityResident&#45;&gt;CityResidentThing</title>
<path fill="none" stroke="black" d="M157.47,-395.71C151.69,-404.09 144.55,-414.43 138.06,-423.84"/>
<polygon fill="none" stroke="black" points="135.27,-421.71 132.47,-431.93 141.03,-425.69 135.27,-421.71"/>
</g>
<!-- Person -->
<g id="node8" class="node">
<title>Person</title>
<g id="a_node8"><a xlink:href="../Person.md" xlink:title="&lt;TABLE&gt;">
<polygon fill="lightgray" stroke="none" points="196.88,-442.88 196.88,-459.12 237.12,-459.12 237.12,-442.88 196.88,-442.88"/>
<text xml:space="preserve" text-anchor="start" x="197.88" y="-446.73" font-family="Arial" font-size="12.00">Person</text>
<polygon fill="none" stroke="black" points="195.88,-441.88 195.88,-460.12 238.12,-460.12 238.12,-441.88 195.88,-441.88"/>
</a>
</g>
</g>
<!-- CityResident&#45;&gt;Person -->
<g id="edge2" class="edge">
<title>CityResident&#45;&gt;Person</title>
<path fill="none" stroke="black" d="M180.29,-395.71C185.96,-404.09 192.95,-414.43 199.31,-423.84"/>
<polygon fill="none" stroke="black" points="196.28,-425.6 204.78,-431.92 202.08,-421.68 196.28,-425.6"/>
</g>
<!-- Invis&#45;&gt;EntityOperation -->
<!-- EntityOperation&#45;&gt;EntityOwnership -->
<!-- EntityOwnership&#45;&gt;JurisdictionalArea -->
<!-- JurisdictionalArea&#45;&gt;Residence -->
</g>
</svg>
