<?xml version="1.0" encoding="UTF-8" standalone="no"?>
<!DOCTYPE svg PUBLIC "-//W3C//DTD SVG 1.1//EN"
 "http://www.w3.org/Graphics/SVG/1.1/DTD/svg11.dtd">
<!-- Generated by graphviz version 14.0.2 (20251019.1705)
 -->
<!-- Pages: 1 -->
<svg width="172pt" height="132pt"
 viewBox="0.00 0.00 172.00 132.00" xmlns="http://www.w3.org/2000/svg" xmlns:xlink="http://www.w3.org/1999/xlink">
<g id="graph0" class="graph" transform="scale(1 1) rotate(0) translate(4 128)">
<polygon fill="white" stroke="none" points="-4,4 -4,-128 168,-128 168,4 -4,4"/>
<g id="clust2" class="cluster">
<title>cluster_associated</title>
</g>
<!-- ContactThing -->
<g id="node1" class="node">
<title>ContactThing</title>
<g id="a_node1"><a xlink:href="../ContactThing.md" xlink:title="&lt;TABLE&gt;">
<polygon fill="lightgray" stroke="none" points="1,-25.88 1,-42.12 75,-42.12 75,-25.88 1,-25.88"/>
<text xml:space="preserve" text-anchor="start" x="2" y="-29.73" font-family="Arial" font-size="12.00">ContactThing</text>
<polygon fill="none" stroke="black" points="0,-24.88 0,-43.12 76,-43.12 76,-24.88 0,-24.88"/>
</a>
</g>
</g>
<!-- CityThing -->
<g id="node3" class="node">
<title>CityThing</title>
<g id="a_node3"><a xlink:href="../CityThing.md" xlink:title="&lt;TABLE&gt;">
<polygon fill="lightgray" stroke="none" points="11.12,-97.88 11.12,-114.12 64.88,-114.12 64.88,-97.88 11.12,-97.88"/>
<text xml:space="preserve" text-anchor="start" x="12.12" y="-101.72" font-family="Arial" font-size="12.00">CityThing</text>
<polygon fill="none" stroke="black" points="10.12,-96.88 10.12,-115.12 65.88,-115.12 65.88,-96.88 10.12,-96.88"/>
</a>
</g>
</g>
<!-- ContactThing&#45;&gt;CityThing -->
<g id="edge1" class="edge">
<title>ContactThing&#45;&gt;CityThing</title>
<path fill="none" stroke="black" d="M38,-51.79C38,-59.25 38,-68.24 38,-76.69"/>
<polygon fill="none" stroke="black" points="34.5,-76.54 38,-86.54 41.5,-76.54 34.5,-76.54"/>
</g>
<!-- Invis -->
</g>
</svg>
