<?xml version="1.0" encoding="UTF-8" standalone="no"?>
<!DOCTYPE svg PUBLIC "-//W3C//DTD SVG 1.1//EN"
 "http://www.w3.org/Graphics/SVG/1.1/DTD/svg11.dtd">
<!-- Generated by graphviz version 14.0.2 (20251019.1705)
 -->
<!-- Pages: 1 -->
<svg width="218pt" height="232pt"
 viewBox="0.00 0.00 218.00 232.00" xmlns="http://www.w3.org/2000/svg" xmlns:xlink="http://www.w3.org/1999/xlink">
<g id="graph0" class="graph" transform="scale(1 1) rotate(0) translate(4 228)">
<polygon fill="white" stroke="none" points="-4,4 -4,-228 214.25,-228 214.25,4 -4,4"/>
<g id="clust2" class="cluster">
<title>cluster_associated</title>
</g>
<!-- EmploymentStatus -->
<g id="node1" class="node">
<title>EmploymentStatus</title>
<g id="a_node1"><a xlink:href="../EmploymentStatus.md" xlink:title="&lt;TABLE&gt;">
<polygon fill="lightgray" stroke="none" points="106.75,-124.88 106.75,-141.12 209.25,-141.12 209.25,-124.88 106.75,-124.88"/>
<text xml:space="preserve" text-anchor="start" x="107.75" y="-128.72" font-family="Arial" font-size="12.00">EmploymentStatus</text>
<polygon fill="none" stroke="black" points="105.75,-123.88 105.75,-142.12 210.25,-142.12 210.25,-123.88 105.75,-123.88"/>
</a>
</g>
</g>
<!-- Invis -->
<!-- EmploymentStatus&#45;&gt;Invis -->
<!-- Code -->
<g id="node3" class="node">
<title>Code</title>
<g id="a_node3"><a xlink:href="../Code.md" xlink:title="&lt;TABLE&gt;">
<polygon fill="lightgray" stroke="none" points="27.38,-25.88 27.38,-42.12 58.62,-42.12 58.62,-25.88 27.38,-25.88"/>
<text xml:space="preserve" text-anchor="start" x="28.38" y="-29.73" font-family="Arial" font-size="12.00">Code</text>
<polygon fill="none" stroke="black" points="26.38,-24.88 26.38,-43.12 59.62,-43.12 59.62,-24.88 26.38,-24.88"/>
</a>
</g>
</g>
<!-- EmploymentStatus&#45;&gt;Code -->
<g id="edge4" class="edge">
<title>EmploymentStatus&#45;&gt;Code</title>
<path fill="none" stroke="black" d="M137.97,-115.1C119.58,-99.6 92.14,-76.45 71.48,-59.02"/>
<polygon fill="black" stroke="black" points="73.86,-56.45 63.96,-52.68 69.35,-61.8 73.86,-56.45"/>
<text xml:space="preserve" text-anchor="middle" x="138.93" y="-86.55" font-family="Arial" font-size="11.00"> hasCode </text>
<text xml:space="preserve" text-anchor="middle" x="138.93" y="-73.05" font-family="Arial" font-size="11.00"> «only» &#160;</text>
</g>
<!-- CityOrgThing -->
<g id="node4" class="node">
<title>CityOrgThing</title>
<g id="a_node4"><a xlink:href="../CityOrgThing.md" xlink:title="&lt;TABLE&gt;">
<polygon fill="lightgray" stroke="none" points="121.38,-197.88 121.38,-214.12 194.62,-214.12 194.62,-197.88 121.38,-197.88"/>
<text xml:space="preserve" text-anchor="start" x="122.38" y="-201.72" font-family="Arial" font-size="12.00">CityOrgThing</text>
<polygon fill="none" stroke="black" points="120.38,-196.88 120.38,-215.12 195.62,-215.12 195.62,-196.88 120.38,-196.88"/>
</a>
</g>
</g>
<!-- EmploymentStatus&#45;&gt;CityOrgThing -->
<g id="edge1" class="edge">
<title>EmploymentStatus&#45;&gt;CityOrgThing</title>
<path fill="none" stroke="black" d="M158,-150.71C158,-158.47 158,-167.92 158,-176.74"/>
<polygon fill="none" stroke="black" points="154.5,-176.66 158,-186.66 161.5,-176.66 154.5,-176.66"/>
</g>
<!-- Invis&#45;&gt;Code -->
</g>
</svg>
