<?xml version="1.0" encoding="UTF-8" standalone="no"?>
<!DOCTYPE svg PUBLIC "-//W3C//DTD SVG 1.1//EN"
 "http://www.w3.org/Graphics/SVG/1.1/DTD/svg11.dtd">
<!-- Generated by graphviz version 14.0.2 (20251019.1705)
 -->
<!-- Pages: 1 -->
<svg width="213pt" height="232pt"
 viewBox="0.00 0.00 213.00 232.00" xmlns="http://www.w3.org/2000/svg" xmlns:xlink="http://www.w3.org/1999/xlink">
<g id="graph0" class="graph" transform="scale(1 1) rotate(0) translate(4 228)">
<polygon fill="white" stroke="none" points="-4,4 -4,-228 209.27,-228 209.27,4 -4,4"/>
<g id="clust2" class="cluster">
<title>cluster_associated</title>
</g>
<!-- EntityOperation -->
<g id="node1" class="node">
<title>EntityOperation</title>
<g id="a_node1"><a xlink:href="../EntityOperation.md" xlink:title="&lt;TABLE&gt;">
<polygon fill="lightgray" stroke="none" points="110.75,-124.88 110.75,-141.12 195.25,-141.12 195.25,-124.88 110.75,-124.88"/>
<text xml:space="preserve" text-anchor="start" x="111.75" y="-128.72" font-family="Arial" font-size="12.00">EntityOperation</text>
<polygon fill="none" stroke="black" points="109.75,-123.88 109.75,-142.12 196.25,-142.12 196.25,-123.88 109.75,-123.88"/>
</a>
</g>
</g>
<!-- Invis -->
<!-- EntityOperation&#45;&gt;Invis -->
<!-- Organization -->
<g id="node3" class="node">
<title>Organization</title>
<g id="a_node3"><a xlink:href="../Organization.md" xlink:title="&lt;TABLE&gt;">
<polygon fill="lightgray" stroke="none" points="16.88,-25.88 16.88,-42.12 87.12,-42.12 87.12,-25.88 16.88,-25.88"/>
<text xml:space="preserve" text-anchor="start" x="17.88" y="-29.73" font-family="Arial" font-size="12.00">Organization</text>
<polygon fill="none" stroke="black" points="15.88,-24.88 15.88,-43.12 88.12,-43.12 88.12,-24.88 15.88,-24.88"/>
</a>
</g>
</g>
<!-- EntityOperation&#45;&gt;Organization -->
<g id="edge4" class="edge">
<title>EntityOperation&#45;&gt;Organization</title>
<path fill="none" stroke="black" stroke-dasharray="5,2" d="M135.41,-115.1C119.33,-99.66 95.38,-76.66 77.26,-59.26"/>
<polygon fill="black" stroke="black" points="80.12,-57.15 70.48,-52.75 75.27,-62.2 80.12,-57.15"/>
<text xml:space="preserve" text-anchor="middle" x="159.89" y="-86.55" font-family="Arial" font-size="11.00"> onProperty: entity </text>
<text xml:space="preserve" text-anchor="middle" x="159.89" y="-73.05" font-family="Arial" font-size="11.00"> «max 1» &#160;</text>
</g>
<!-- ControlledEntity -->
<g id="node4" class="node">
<title>ControlledEntity</title>
<g id="a_node4"><a xlink:href="../ControlledEntity.md" xlink:title="&lt;TABLE&gt;">
<polygon fill="lightgray" stroke="none" points="109.25,-197.88 109.25,-214.12 196.75,-214.12 196.75,-197.88 109.25,-197.88"/>
<text xml:space="preserve" text-anchor="start" x="110.25" y="-201.72" font-family="Arial" font-size="12.00">ControlledEntity</text>
<polygon fill="none" stroke="black" points="108.25,-196.88 108.25,-215.12 197.75,-215.12 197.75,-196.88 108.25,-196.88"/>
</a>
</g>
</g>
<!-- EntityOperation&#45;&gt;ControlledEntity -->
<g id="edge1" class="edge">
<title>EntityOperation&#45;&gt;ControlledEntity</title>
<path fill="none" stroke="black" d="M153,-150.71C153,-158.47 153,-167.92 153,-176.74"/>
<polygon fill="none" stroke="black" points="149.5,-176.66 153,-186.66 156.5,-176.66 149.5,-176.66"/>
</g>
<!-- Invis&#45;&gt;Organization -->
</g>
</svg>
