<?xml version="1.0" encoding="UTF-8" standalone="no"?>
<!DOCTYPE svg PUBLIC "-//W3C//DTD SVG 1.1//EN"
 "http://www.w3.org/Graphics/SVG/1.1/DTD/svg11.dtd">
<!-- Generated by graphviz version 14.0.2 (20251019.1705)
 -->
<!-- Pages: 1 -->
<svg width="284pt" height="232pt"
 viewBox="0.00 0.00 284.00 232.00" xmlns="http://www.w3.org/2000/svg" xmlns:xlink="http://www.w3.org/1999/xlink">
<g id="graph0" class="graph" transform="scale(1 1) rotate(0) translate(4 228)">
<polygon fill="white" stroke="none" points="-4,4 -4,-228 279.88,-228 279.88,4 -4,4"/>
<g id="clust2" class="cluster">
<title>cluster_associated</title>
</g>
<!-- Input -->
<g id="node1" class="node">
<title>Input</title>
<g id="a_node1"><a xlink:href="../Input.md" xlink:title="&lt;TABLE&gt;">
<polygon fill="lightgray" stroke="none" points="140.62,-124.88 140.62,-141.12 168.88,-141.12 168.88,-124.88 140.62,-124.88"/>
<text xml:space="preserve" text-anchor="start" x="141.62" y="-128.72" font-family="Arial" font-size="12.00">Input</text>
<polygon fill="none" stroke="black" points="139.62,-123.88 139.62,-142.12 169.88,-142.12 169.88,-123.88 139.62,-123.88"/>
</a>
</g>
</g>
<!-- Invis -->
<!-- Input&#45;&gt;Invis -->
<!-- Stakeholder -->
<g id="node3" class="node">
<title>Stakeholder</title>
<g id="a_node3"><a xlink:href="../Stakeholder.md" xlink:title="&lt;TABLE&gt;">
<polygon fill="lightgray" stroke="none" points="35.5,-25.88 35.5,-42.12 102,-42.12 102,-25.88 35.5,-25.88"/>
<text xml:space="preserve" text-anchor="start" x="36.5" y="-29.73" font-family="Arial" font-size="12.00">Stakeholder</text>
<polygon fill="none" stroke="black" points="34.5,-24.88 34.5,-43.12 103,-43.12 103,-24.88 34.5,-24.88"/>
</a>
</g>
</g>
<!-- Input&#45;&gt;Stakeholder -->
<g id="edge5" class="edge">
<title>Input&#45;&gt;Stakeholder</title>
<path fill="none" stroke="black" d="M139.77,-115.1C126.33,-99.94 106.42,-77.48 91.09,-60.2"/>
<polygon fill="black" stroke="black" points="93.82,-58 84.56,-52.84 88.58,-62.64 93.82,-58"/>
<text xml:space="preserve" text-anchor="middle" x="191.73" y="-86.55" font-family="Arial" font-size="11.00"> hasContributingStakeholder </text>
<text xml:space="preserve" text-anchor="middle" x="191.73" y="-73.05" font-family="Arial" font-size="11.00"> «only» &#160;</text>
</g>
<!-- cdm1_TerminalResourceState -->
<g id="node4" class="node">
<title>cdm1_TerminalResourceState</title>
<polygon fill="lightgray" stroke="none" points="1,-197.88 1,-214.12 160.5,-214.12 160.5,-197.88 1,-197.88"/>
<text xml:space="preserve" text-anchor="start" x="2" y="-201.72" font-family="Arial" font-size="12.00">cdm1:TerminalResourceState</text>
<polygon fill="none" stroke="black" points="0,-196.88 0,-215.12 161.5,-215.12 161.5,-196.88 0,-196.88"/>
</g>
<!-- Input&#45;&gt;cdm1_TerminalResourceState -->
<g id="edge1" class="edge">
<title>Input&#45;&gt;cdm1_TerminalResourceState</title>
<path fill="none" stroke="black" d="M137.08,-150.95C127.91,-159.75 116.54,-170.66 106.42,-180.37"/>
<polygon fill="none" stroke="black" points="104.17,-177.68 99.38,-187.13 109.02,-182.73 104.17,-177.68"/>
</g>
<!-- CityServiceThing -->
<g id="node5" class="node">
<title>CityServiceThing</title>
<g id="a_node5"><a xlink:href="../CityServiceThing.md" xlink:title="&lt;TABLE&gt;">
<polygon fill="lightgray" stroke="none" points="180.62,-197.88 180.62,-214.12 274.88,-214.12 274.88,-197.88 180.62,-197.88"/>
<text xml:space="preserve" text-anchor="start" x="181.62" y="-201.72" font-family="Arial" font-size="12.00">CityServiceThing</text>
<polygon fill="none" stroke="black" points="179.62,-196.88 179.62,-215.12 275.88,-215.12 275.88,-196.88 179.62,-196.88"/>
</a>
</g>
</g>
<!-- Input&#45;&gt;CityServiceThing -->
<g id="edge2" class="edge">
<title>Input&#45;&gt;CityServiceThing</title>
<path fill="none" stroke="black" d="M172.18,-150.95C181.22,-159.75 192.44,-170.66 202.43,-180.37"/>
<polygon fill="none" stroke="black" points="199.76,-182.66 209.37,-187.12 204.64,-177.64 199.76,-182.66"/>
</g>
<!-- Invis&#45;&gt;Stakeholder -->
</g>
</svg>
