<?xml version="1.0" encoding="UTF-8" standalone="no"?>
<!DOCTYPE svg PUBLIC "-//W3C//DTD SVG 1.1//EN"
 "http://www.w3.org/Graphics/SVG/1.1/DTD/svg11.dtd">
<!-- Generated by graphviz version 14.0.2 (20251019.1705)
 -->
<!-- Pages: 1 -->
<svg width="535pt" height="477pt"
 viewBox="0.00 0.00 535.00 477.00" xmlns="http://www.w3.org/2000/svg" xmlns:xlink="http://www.w3.org/1999/xlink">
<g id="graph0" class="graph" transform="scale(1 1) rotate(0) translate(4 473)">
<polygon fill="white" stroke="none" points="-4,4 -4,-473 530.5,-473 530.5,4 -4,4"/>
<g id="clust2" class="cluster">
<title>cluster_associated</title>
</g>
<!-- Outcome -->
<g id="node1" class="node">
<title>Outcome</title>
<g id="a_node1"><a xlink:href="../Outcome.md" xlink:title="&lt;TABLE&gt;">
<polygon fill="lightgray" stroke="none" points="165,-369.88 165,-386.12 215,-386.12 215,-369.88 165,-369.88"/>
<text xml:space="preserve" text-anchor="start" x="166" y="-373.73" font-family="Arial" font-size="12.00">Outcome</text>
<polygon fill="none" stroke="black" points="164,-368.88 164,-387.12 216,-387.12 216,-368.88 164,-368.88"/>
</a>
</g>
</g>
<!-- Invis -->
<!-- Outcome&#45;&gt;Invis -->
<!-- i72_Indicator -->
<g id="node3" class="node">
<title>i72_Indicator</title>
<polygon fill="lightgray" stroke="none" points="17.38,-270.88 17.38,-287.12 84.62,-287.12 84.62,-270.88 17.38,-270.88"/>
<text xml:space="preserve" text-anchor="start" x="18.38" y="-274.73" font-family="Arial" font-size="12.00">i72:Indicator</text>
<polygon fill="none" stroke="black" points="16.38,-269.88 16.38,-288.12 85.62,-288.12 85.62,-269.88 16.38,-269.88"/>
</g>
<!-- Outcome&#45;&gt;i72_Indicator -->
<g id="edge7" class="edge">
<title>Outcome&#45;&gt;i72_Indicator</title>
<path fill="none" stroke="black" d="M163.26,-370.62C123.76,-361.14 54.26,-344.2 52.5,-342 45,-332.59 43.76,-319.58 44.75,-307.91"/>
<polygon fill="black" stroke="black" points="48.16,-308.76 46.11,-298.36 41.23,-307.77 48.16,-308.76"/>
<text xml:space="preserve" text-anchor="middle" x="84.75" y="-331.55" font-family="Arial" font-size="11.00"> hasIndicator </text>
<text xml:space="preserve" text-anchor="middle" x="84.75" y="-318.05" font-family="Arial" font-size="11.00"> «only» &#160;</text>
</g>
<!-- ImpactDirection -->
<g id="node4" class="node">
<title>ImpactDirection</title>
<g id="a_node4"><a xlink:href="../ImpactDirection.md" xlink:title="&lt;TABLE&gt;">
<polygon fill="lightgray" stroke="none" points="17.38,-171.88 17.38,-188.12 102.62,-188.12 102.62,-171.88 17.38,-171.88"/>
<text xml:space="preserve" text-anchor="start" x="18.38" y="-175.72" font-family="Arial" font-size="12.00">ImpactDirection</text>
<polygon fill="none" stroke="black" points="16.38,-170.88 16.38,-189.12 103.62,-189.12 103.62,-170.88 16.38,-170.88"/>
</a>
</g>
</g>
<!-- Outcome&#45;&gt;ImpactDirection -->
<g id="edge11" class="edge">
<title>Outcome&#45;&gt;ImpactDirection</title>
<path fill="none" stroke="black" d="M178.7,-360.17C167.85,-343.99 151.01,-318.85 136.5,-297 116.06,-266.23 92.71,-230.77 77.23,-207.23"/>
<polygon fill="black" stroke="black" points="80.36,-205.63 71.95,-199.19 74.51,-209.47 80.36,-205.63"/>
<text xml:space="preserve" text-anchor="middle" x="176.25" y="-282.05" font-family="Arial" font-size="11.00"> intendedImpact </text>
<text xml:space="preserve" text-anchor="middle" x="176.25" y="-268.55" font-family="Arial" font-size="11.00"> «max 1» &#160;</text>
</g>
<!-- Importance -->
<g id="node5" class="node">
<title>Importance</title>
<g id="a_node5"><a xlink:href="../Importance.md" xlink:title="&lt;TABLE&gt;">
<polygon fill="lightgray" stroke="none" points="39.38,-98.88 39.38,-115.12 100.62,-115.12 100.62,-98.88 39.38,-98.88"/>
<text xml:space="preserve" text-anchor="start" x="40.38" y="-102.72" font-family="Arial" font-size="12.00">Importance</text>
<polygon fill="none" stroke="black" points="38.38,-97.88 38.38,-116.12 101.62,-116.12 101.62,-97.88 38.38,-97.88"/>
</a>
</g>
</g>
<!-- Outcome&#45;&gt;Importance -->
<g id="edge10" class="edge">
<title>Outcome&#45;&gt;Importance</title>
<path fill="none" stroke="black" d="M201.06,-360.27C215.29,-336.42 235.95,-292.09 216,-261 205.64,-244.85 191.83,-254.87 176.75,-243 140.76,-214.66 141.44,-197.92 113,-162 105.6,-152.66 97.46,-142.42 90.27,-133.4"/>
<polygon fill="black" stroke="black" points="93.11,-131.34 84.14,-125.71 87.64,-135.71 93.11,-131.34"/>
<text xml:space="preserve" text-anchor="middle" x="215.38" y="-232.55" font-family="Arial" font-size="11.00"> hasImportance </text>
<text xml:space="preserve" text-anchor="middle" x="215.38" y="-219.05" font-family="Arial" font-size="11.00"> «max 1» &#160;</text>
</g>
<!-- Stakeholder -->
<g id="node6" class="node">
<title>Stakeholder</title>
<g id="a_node6"><a xlink:href="../Stakeholder.md" xlink:title="&lt;TABLE&gt;">
<polygon fill="lightgray" stroke="none" points="36.75,-25.88 36.75,-42.12 103.25,-42.12 103.25,-25.88 36.75,-25.88"/>
<text xml:space="preserve" text-anchor="start" x="37.75" y="-29.73" font-family="Arial" font-size="12.00">Stakeholder</text>
<polygon fill="none" stroke="black" points="35.75,-24.88 35.75,-43.12 104.25,-43.12 104.25,-24.88 35.75,-24.88"/>
</a>
</g>
</g>
<!-- Outcome&#45;&gt;Stakeholder -->
<g id="edge8" class="edge">
<title>Outcome&#45;&gt;Stakeholder</title>
<path fill="none" stroke="black" d="M215.54,-360.25C238.29,-343.09 268,-314.14 268,-280 268,-280 268,-280 268,-106 268,-73.73 173.65,-52.18 115.21,-41.93"/>
<polygon fill="black" stroke="black" points="115.97,-38.51 105.53,-40.28 114.8,-45.41 115.97,-38.51"/>
<text xml:space="preserve" text-anchor="middle" x="315.62" y="-183.05" font-family="Arial" font-size="11.00"> fromPerspectiveOf </text>
<text xml:space="preserve" text-anchor="middle" x="315.62" y="-169.55" font-family="Arial" font-size="11.00"> «exactly 1» &#160;</text>
</g>
<!-- Outcome&#45;&gt;Stakeholder -->
<g id="edge9" class="edge">
<title>Outcome&#45;&gt;Stakeholder</title>
<path fill="none" stroke="black" d="M216.9,-376.54C273.34,-373.99 399,-359.4 399,-280 399,-280 399,-280 399,-106 399,-48.62 205.37,-37.49 115.21,-35.42"/>
<polygon fill="black" stroke="black" points="115.55,-31.93 105.48,-35.23 115.41,-38.93 115.55,-31.93"/>
<text xml:space="preserve" text-anchor="middle" x="462.75" y="-183.05" font-family="Arial" font-size="11.00"> hasBeneficialStakeholder </text>
<text xml:space="preserve" text-anchor="middle" x="462.75" y="-169.55" font-family="Arial" font-size="11.00"> «exactly 1» &#160;</text>
</g>
<!-- CityServiceThing -->
<g id="node7" class="node">
<title>CityServiceThing</title>
<g id="a_node7"><a xlink:href="../CityServiceThing.md" xlink:title="&lt;TABLE&gt;">
<polygon fill="lightgray" stroke="none" points="142.88,-442.88 142.88,-459.12 237.12,-459.12 237.12,-442.88 142.88,-442.88"/>
<text xml:space="preserve" text-anchor="start" x="143.88" y="-446.73" font-family="Arial" font-size="12.00">CityServiceThing</text>
<polygon fill="none" stroke="black" points="141.88,-441.88 141.88,-460.12 238.12,-460.12 238.12,-441.88 141.88,-441.88"/>
</a>
</g>
</g>
<!-- Outcome&#45;&gt;CityServiceThing -->
<g id="edge1" class="edge">
<title>Outcome&#45;&gt;CityServiceThing</title>
<path fill="none" stroke="black" d="M190,-395.71C190,-403.47 190,-412.92 190,-421.74"/>
<polygon fill="none" stroke="black" points="186.5,-421.66 190,-431.66 193.5,-421.66 186.5,-421.66"/>
</g>
<!-- Invis&#45;&gt;i72_Indicator -->
<!-- i72_Indicator&#45;&gt;ImpactDirection -->
<!-- ImpactDirection&#45;&gt;Importance -->
<!-- Importance&#45;&gt;Stakeholder -->
</g>
</svg>
