<?xml version="1.0" encoding="UTF-8" standalone="no"?>
<!DOCTYPE svg PUBLIC "-//W3C//DTD SVG 1.1//EN"
 "http://www.w3.org/Graphics/SVG/1.1/DTD/svg11.dtd">
<!-- Generated by graphviz version 14.0.2 (20251019.1705)
 -->
<!-- Pages: 1 -->
<svg width="600pt" height="576pt"
 viewBox="0.00 0.00 600.00 576.00" xmlns="http://www.w3.org/2000/svg" xmlns:xlink="http://www.w3.org/1999/xlink">
<g id="graph0" class="graph" transform="scale(1 1) rotate(0) translate(4 572)">
<polygon fill="white" stroke="none" points="-4,4 -4,-572 595.5,-572 595.5,4 -4,4"/>
<g id="clust2" class="cluster">
<title>cluster_associated</title>
</g>
<!-- Program -->
<g id="node1" class="node">
<title>Program</title>
<g id="a_node1"><a xlink:href="../Program.md" xlink:title="&lt;TABLE&gt;">
<polygon fill="lightgray" stroke="none" points="177.12,-468.88 177.12,-485.12 224.88,-485.12 224.88,-468.88 177.12,-468.88"/>
<text xml:space="preserve" text-anchor="start" x="178.12" y="-472.73" font-family="Arial" font-size="12.00">Program</text>
<polygon fill="none" stroke="black" points="176.12,-467.88 176.12,-486.12 225.88,-486.12 225.88,-467.88 176.12,-467.88"/>
</a>
</g>
</g>
<!-- Invis -->
<!-- Program&#45;&gt;Invis -->
<!-- Input -->
<g id="node3" class="node">
<title>Input</title>
<g id="a_node3"><a xlink:href="../Input.md" xlink:title="&lt;TABLE&gt;">
<polygon fill="lightgray" stroke="none" points="28.88,-369.88 28.88,-386.12 57.12,-386.12 57.12,-369.88 28.88,-369.88"/>
<text xml:space="preserve" text-anchor="start" x="29.88" y="-373.73" font-family="Arial" font-size="12.00">Input</text>
<polygon fill="none" stroke="black" points="27.88,-368.88 27.88,-387.12 58.12,-387.12 58.12,-368.88 27.88,-368.88"/>
</a>
</g>
</g>
<!-- Program&#45;&gt;Input -->
<g id="edge11" class="edge">
<title>Program&#45;&gt;Input</title>
<path fill="none" stroke="black" d="M174.19,-471.82C131.73,-464.93 52.97,-450.98 44.75,-441 37.1,-431.71 35.79,-418.72 36.75,-407.03"/>
<polygon fill="black" stroke="black" points="40.17,-407.84 38.1,-397.45 33.24,-406.86 40.17,-407.84"/>
<text xml:space="preserve" text-anchor="middle" x="68.38" y="-430.55" font-family="Arial" font-size="11.00"> hasInput </text>
<text xml:space="preserve" text-anchor="middle" x="68.38" y="-417.05" font-family="Arial" font-size="11.00"> «only» &#160;</text>
</g>
<!-- Outcome -->
<g id="node4" class="node">
<title>Outcome</title>
<g id="a_node4"><a xlink:href="../Outcome.md" xlink:title="&lt;TABLE&gt;">
<polygon fill="lightgray" stroke="none" points="32,-270.88 32,-287.12 82,-287.12 82,-270.88 32,-270.88"/>
<text xml:space="preserve" text-anchor="start" x="33" y="-274.73" font-family="Arial" font-size="12.00">Outcome</text>
<polygon fill="none" stroke="black" points="31,-269.88 31,-288.12 83,-288.12 83,-269.88 31,-269.88"/>
</a>
</g>
</g>
<!-- Program&#45;&gt;Outcome -->
<g id="edge12" class="edge">
<title>Program&#45;&gt;Outcome</title>
<path fill="none" stroke="black" d="M181.11,-459.29C163.69,-444 138.39,-420.13 120.25,-396 98.97,-367.7 80.36,-331.35 68.93,-306.95"/>
<polygon fill="black" stroke="black" points="72.19,-305.66 64.84,-298.03 65.83,-308.58 72.19,-305.66"/>
<text xml:space="preserve" text-anchor="middle" x="153.62" y="-381.05" font-family="Arial" font-size="11.00"> hasOutcome </text>
<text xml:space="preserve" text-anchor="middle" x="153.62" y="-367.55" font-family="Arial" font-size="11.00"> «only» &#160;</text>
</g>
<!-- Output -->
<g id="node5" class="node">
<title>Output</title>
<g id="a_node5"><a xlink:href="../Output.md" xlink:title="&lt;TABLE&gt;">
<polygon fill="lightgray" stroke="none" points="38.38,-171.88 38.38,-188.12 75.62,-188.12 75.62,-171.88 38.38,-171.88"/>
<text xml:space="preserve" text-anchor="start" x="39.38" y="-175.72" font-family="Arial" font-size="12.00">Output</text>
<polygon fill="none" stroke="black" points="37.38,-170.88 37.38,-189.12 76.62,-189.12 76.62,-170.88 37.38,-170.88"/>
</a>
</g>
</g>
<!-- Program&#45;&gt;Output -->
<g id="edge13" class="edge">
<title>Program&#45;&gt;Output</title>
<path fill="none" stroke="black" d="M202.23,-459.33C203.25,-435.93 202.57,-392.58 187,-360 182.19,-349.93 176.61,-350.6 169.5,-342 132.26,-296.93 94.44,-240.02 73.52,-207.34"/>
<polygon fill="black" stroke="black" points="76.48,-205.47 68.16,-198.9 70.57,-209.22 76.48,-205.47"/>
<text xml:space="preserve" text-anchor="middle" x="197.25" y="-331.55" font-family="Arial" font-size="11.00"> hasOutput </text>
<text xml:space="preserve" text-anchor="middle" x="197.25" y="-318.05" font-family="Arial" font-size="11.00"> «only» &#160;</text>
</g>
<!-- Service -->
<g id="node6" class="node">
<title>Service</title>
<g id="a_node6"><a xlink:href="../Service.md" xlink:title="&lt;TABLE&gt;">
<polygon fill="lightgray" stroke="none" points="35.75,-98.88 35.75,-115.12 78.25,-115.12 78.25,-98.88 35.75,-98.88"/>
<text xml:space="preserve" text-anchor="start" x="36.75" y="-102.72" font-family="Arial" font-size="12.00">Service</text>
<polygon fill="none" stroke="black" points="34.75,-97.88 34.75,-116.12 79.25,-116.12 79.25,-97.88 34.75,-97.88"/>
</a>
</g>
</g>
<!-- Program&#45;&gt;Service -->
<g id="edge14" class="edge">
<title>Program&#45;&gt;Service</title>
<path fill="none" stroke="black" d="M209.43,-459.28C211.95,-453.61 214.44,-447.15 216,-441 229.77,-386.57 243.77,-367.91 225,-315 197.45,-237.34 126.97,-167.58 86.59,-132.29"/>
<polygon fill="black" stroke="black" points="88.99,-129.74 79.12,-125.88 84.43,-135.05 88.99,-129.74"/>
<text xml:space="preserve" text-anchor="middle" x="246.76" y="-282.05" font-family="Arial" font-size="11.00"> hasService </text>
<text xml:space="preserve" text-anchor="middle" x="246.76" y="-268.55" font-family="Arial" font-size="11.00"> «only» &#160;</text>
</g>
<!-- Stakeholder -->
<g id="node7" class="node">
<title>Stakeholder</title>
<g id="a_node7"><a xlink:href="../Stakeholder.md" xlink:title="&lt;TABLE&gt;">
<polygon fill="lightgray" stroke="none" points="16.75,-25.88 16.75,-42.12 83.25,-42.12 83.25,-25.88 16.75,-25.88"/>
<text xml:space="preserve" text-anchor="start" x="17.75" y="-29.73" font-family="Arial" font-size="12.00">Stakeholder</text>
<polygon fill="none" stroke="black" points="15.75,-24.88 15.75,-43.12 84.25,-43.12 84.25,-24.88 15.75,-24.88"/>
</a>
</g>
</g>
<!-- Program&#45;&gt;Stakeholder -->
<g id="edge9" class="edge">
<title>Program&#45;&gt;Stakeholder</title>
<path fill="none" stroke="black" d="M227.8,-464.17C257.42,-449.06 301,-419.88 301,-379 301,-379 301,-379 301,-106 301,-63.71 167.42,-45.34 95.15,-38.49"/>
<polygon fill="black" stroke="black" points="95.89,-35.04 85.62,-37.63 95.26,-42.02 95.89,-35.04"/>
<text xml:space="preserve" text-anchor="middle" x="364.75" y="-232.55" font-family="Arial" font-size="11.00"> hasBeneficialStakeholder </text>
<text xml:space="preserve" text-anchor="middle" x="364.75" y="-219.05" font-family="Arial" font-size="11.00"> «only» &#160;</text>
</g>
<!-- Program&#45;&gt;Stakeholder -->
<g id="edge10" class="edge">
<title>Program&#45;&gt;Stakeholder</title>
<path fill="none" stroke="black" d="M227.86,-471.52C292.61,-459.95 452,-426.65 452,-379 452,-379 452,-379 452,-106 452,-70.09 200.09,-46.54 95.09,-38.29"/>
<polygon fill="black" stroke="black" points="95.68,-34.82 85.44,-37.54 95.14,-41.8 95.68,-34.82"/>
<text xml:space="preserve" text-anchor="middle" x="521.75" y="-232.55" font-family="Arial" font-size="11.00"> hasContributingStakeholder </text>
<text xml:space="preserve" text-anchor="middle" x="521.75" y="-219.05" font-family="Arial" font-size="11.00"> «only» &#160;</text>
</g>
<!-- cdm1_Activity -->
<g id="node8" class="node">
<title>cdm1_Activity</title>
<polygon fill="lightgray" stroke="none" points="112.75,-541.88 112.75,-558.12 185.25,-558.12 185.25,-541.88 112.75,-541.88"/>
<text xml:space="preserve" text-anchor="start" x="113.75" y="-545.73" font-family="Arial" font-size="12.00">cdm1:Activity</text>
<polygon fill="none" stroke="black" points="111.75,-540.88 111.75,-559.12 186.25,-559.12 186.25,-540.88 111.75,-540.88"/>
</g>
<!-- Program&#45;&gt;cdm1_Activity -->
<g id="edge1" class="edge">
<title>Program&#45;&gt;cdm1_Activity</title>
<path fill="none" stroke="black" d="M188.77,-494.71C182.56,-503.17 174.89,-513.65 167.95,-523.13"/>
<polygon fill="none" stroke="black" points="165.3,-520.82 162.22,-530.95 170.95,-524.95 165.3,-520.82"/>
</g>
<!-- CityServiceThing -->
<g id="node9" class="node">
<title>CityServiceThing</title>
<g id="a_node9"><a xlink:href="../CityServiceThing.md" xlink:title="&lt;TABLE&gt;">
<polygon fill="lightgray" stroke="none" points="204.88,-541.88 204.88,-558.12 299.12,-558.12 299.12,-541.88 204.88,-541.88"/>
<text xml:space="preserve" text-anchor="start" x="205.88" y="-545.73" font-family="Arial" font-size="12.00">CityServiceThing</text>
<polygon fill="none" stroke="black" points="203.88,-540.88 203.88,-559.12 300.12,-559.12 300.12,-540.88 203.88,-540.88"/>
</a>
</g>
</g>
<!-- Program&#45;&gt;CityServiceThing -->
<g id="edge2" class="edge">
<title>Program&#45;&gt;CityServiceThing</title>
<path fill="none" stroke="black" d="M213,-494.71C219.02,-503.09 226.45,-513.43 233.21,-522.84"/>
<polygon fill="none" stroke="black" points="230.35,-524.86 239.03,-530.94 236.04,-520.78 230.35,-524.86"/>
</g>
<!-- Invis&#45;&gt;Input -->
<!-- Input&#45;&gt;Outcome -->
<!-- Outcome&#45;&gt;Output -->
<!-- Output&#45;&gt;Service -->
<!-- Service&#45;&gt;Stakeholder -->
</g>
</svg>
