<?xml version="1.0" encoding="UTF-8" standalone="no"?>
<!DOCTYPE svg PUBLIC "-//W3C//DTD SVG 1.1//EN"
 "http://www.w3.org/Graphics/SVG/1.1/DTD/svg11.dtd">
<!-- Generated by graphviz version 14.0.2 (20251019.1705)
 -->
<!-- Pages: 1 -->
<svg width="222pt" height="132pt"
 viewBox="0.00 0.00 222.00 132.00" xmlns="http://www.w3.org/2000/svg" xmlns:xlink="http://www.w3.org/1999/xlink">
<g id="graph0" class="graph" transform="scale(1 1) rotate(0) translate(4 128)">
<polygon fill="white" stroke="none" points="-4,4 -4,-128 217.75,-128 217.75,4 -4,4"/>
<g id="clust2" class="cluster">
<title>cluster_associated</title>
</g>
<!-- TravelledWaySegment -->
<g id="node1" class="node">
<title>TravelledWaySegment</title>
<g id="a_node1"><a xlink:href="../TravelledWaySegment.md" xlink:title="&lt;TABLE&gt;">
<polygon fill="lightgray" stroke="none" points="1,-25.88 1,-42.12 124.5,-42.12 124.5,-25.88 1,-25.88"/>
<text xml:space="preserve" text-anchor="start" x="2" y="-29.73" font-family="Arial" font-size="12.00">TravelledWaySegment</text>
<polygon fill="none" stroke="black" points="0,-24.88 0,-43.12 125.5,-43.12 125.5,-24.88 0,-24.88"/>
</a>
</g>
</g>
<!-- InfrastructureElement -->
<g id="node3" class="node">
<title>InfrastructureElement</title>
<g id="a_node3"><a xlink:href="../InfrastructureElement.md" xlink:title="&lt;TABLE&gt;">
<polygon fill="lightgray" stroke="none" points="5.12,-97.88 5.12,-114.12 120.38,-114.12 120.38,-97.88 5.12,-97.88"/>
<text xml:space="preserve" text-anchor="start" x="6.12" y="-101.72" font-family="Arial" font-size="12.00">InfrastructureElement</text>
<polygon fill="none" stroke="black" points="4.12,-96.88 4.12,-115.12 121.38,-115.12 121.38,-96.88 4.12,-96.88"/>
</a>
</g>
</g>
<!-- TravelledWaySegment&#45;&gt;InfrastructureElement -->
<g id="edge1" class="edge">
<title>TravelledWaySegment&#45;&gt;InfrastructureElement</title>
<path fill="none" stroke="black" d="M62.75,-51.79C62.75,-59.25 62.75,-68.24 62.75,-76.69"/>
<polygon fill="none" stroke="black" points="59.25,-76.54 62.75,-86.54 66.25,-76.54 59.25,-76.54"/>
</g>
<!-- Invis -->
</g>
</svg>
