<?xml version="1.0" encoding="UTF-8" standalone="no"?>
<!DOCTYPE svg PUBLIC "-//W3C//DTD SVG 1.1//EN"
 "http://www.w3.org/Graphics/SVG/1.1/DTD/svg11.dtd">
<!-- Generated by graphviz version 14.0.2 (20251019.1705)
 -->
<!-- Pages: 1 -->
<svg width="252pt" height="232pt"
 viewBox="0.00 0.00 252.00 232.00" xmlns="http://www.w3.org/2000/svg" xmlns:xlink="http://www.w3.org/1999/xlink">
<g id="graph0" class="graph" transform="scale(1 1) rotate(0) translate(4 228)">
<polygon fill="white" stroke="none" points="-4,4 -4,-228 247.62,-228 247.62,4 -4,4"/>
<g id="clust2" class="cluster">
<title>cluster_associated</title>
</g>
<!-- Tunnel -->
<g id="node1" class="node">
<title>Tunnel</title>
<g id="a_node1"><a xlink:href="../Tunnel.md" xlink:title="&lt;TABLE&gt;">
<polygon fill="lightgray" stroke="none" points="165.62,-124.88 165.62,-141.12 204.38,-141.12 204.38,-124.88 165.62,-124.88"/>
<text xml:space="preserve" text-anchor="start" x="166.62" y="-128.72" font-family="Arial" font-size="12.00">Tunnel</text>
<polygon fill="none" stroke="black" points="164.62,-123.88 164.62,-142.12 205.38,-142.12 205.38,-123.88 164.62,-123.88"/>
</a>
</g>
</g>
<!-- Invis -->
<!-- Tunnel&#45;&gt;Invis -->
<!-- TravelledWaySegment -->
<g id="node3" class="node">
<title>TravelledWaySegment</title>
<g id="a_node3"><a xlink:href="../TravelledWaySegment.md" xlink:title="&lt;TABLE&gt;">
<polygon fill="lightgray" stroke="none" points="17.25,-25.88 17.25,-42.12 140.75,-42.12 140.75,-25.88 17.25,-25.88"/>
<text xml:space="preserve" text-anchor="start" x="18.25" y="-29.73" font-family="Arial" font-size="12.00">TravelledWaySegment</text>
<polygon fill="none" stroke="black" points="16.25,-24.88 16.25,-43.12 141.75,-43.12 141.75,-24.88 16.25,-24.88"/>
</a>
</g>
</g>
<!-- Tunnel&#45;&gt;TravelledWaySegment -->
<g id="edge4" class="edge">
<title>Tunnel&#45;&gt;TravelledWaySegment</title>
<path fill="none" stroke="black" d="M166.54,-115.1C149.66,-99.66 124.52,-76.66 105.51,-59.26"/>
<polygon fill="black" stroke="black" points="108.11,-56.89 98.37,-52.72 103.38,-62.06 108.11,-56.89"/>
<text xml:space="preserve" text-anchor="middle" x="168.24" y="-86.55" font-family="Arial" font-size="11.00"> supports </text>
<text xml:space="preserve" text-anchor="middle" x="168.24" y="-73.05" font-family="Arial" font-size="11.00"> «only» &#160;</text>
</g>
<!-- InfrastructureElement -->
<g id="node4" class="node">
<title>InfrastructureElement</title>
<g id="a_node4"><a xlink:href="../InfrastructureElement.md" xlink:title="&lt;TABLE&gt;">
<polygon fill="lightgray" stroke="none" points="127.38,-197.88 127.38,-214.12 242.62,-214.12 242.62,-197.88 127.38,-197.88"/>
<text xml:space="preserve" text-anchor="start" x="128.38" y="-201.72" font-family="Arial" font-size="12.00">InfrastructureElement</text>
<polygon fill="none" stroke="black" points="126.38,-196.88 126.38,-215.12 243.62,-215.12 243.62,-196.88 126.38,-196.88"/>
</a>
</g>
</g>
<!-- Tunnel&#45;&gt;InfrastructureElement -->
<g id="edge1" class="edge">
<title>Tunnel&#45;&gt;InfrastructureElement</title>
<path fill="none" stroke="black" d="M185,-150.71C185,-158.47 185,-167.92 185,-176.74"/>
<polygon fill="none" stroke="black" points="181.5,-176.66 185,-186.66 188.5,-176.66 181.5,-176.66"/>
</g>
<!-- Invis&#45;&gt;TravelledWaySegment -->
</g>
</svg>
