<?xml version="1.0" encoding="UTF-8" standalone="no"?>
<!DOCTYPE svg PUBLIC "-//W3C//DTD SVG 1.1//EN"
 "http://www.w3.org/Graphics/SVG/1.1/DTD/svg11.dtd">
<!-- Generated by graphviz version 14.0.2 (20251019.1705)
 -->
<!-- Pages: 1 -->
<svg width="257pt" height="232pt"
 viewBox="0.00 0.00 257.00 232.00" xmlns="http://www.w3.org/2000/svg" xmlns:xlink="http://www.w3.org/1999/xlink">
<g id="graph0" class="graph" transform="scale(1 1) rotate(0) translate(4 228)">
<polygon fill="white" stroke="none" points="-4,4 -4,-228 253.41,-228 253.41,4 -4,4"/>
<g id="clust2" class="cluster">
<title>cluster_associated</title>
</g>
<!-- Facility -->
<g id="node1" class="node">
<title>Facility</title>
<g id="a_node1"><a xlink:href="../classes/Building__Facility.md" xlink:title="&lt;TABLE&gt;">
<polygon fill="lightgray" stroke="none" points="148.88,-124.88 148.88,-141.12 189.12,-141.12 189.12,-124.88 148.88,-124.88"/>
<text xml:space="preserve" text-anchor="start" x="149.88" y="-128.72" font-family="Arial" font-size="12.00">Facility</text>
<polygon fill="none" stroke="black" points="147.88,-123.88 147.88,-142.12 190.12,-142.12 190.12,-123.88 147.88,-123.88"/>
</a>
</g>
</g>
<!-- BuildingOntologyThing -->
<g id="node2" class="node">
<title>BuildingOntologyThing</title>
<g id="a_node2"><a xlink:href="../_counters/Building__BuildingOntologyThing.md" xlink:title="&lt;TABLE&gt;">
<polygon fill="lightgray" stroke="none" points="106.5,-197.88 106.5,-214.12 231.5,-214.12 231.5,-197.88 106.5,-197.88"/>
<text xml:space="preserve" text-anchor="start" x="107.5" y="-201.72" font-family="Arial" font-size="12.00">BuildingOntologyThing</text>
<polygon fill="none" stroke="black" points="105.5,-196.88 105.5,-215.12 232.5,-215.12 232.5,-196.88 105.5,-196.88"/>
</a>
</g>
</g>
<!-- Facility&#45;&gt;BuildingOntologyThing -->
<g id="edge1" class="edge">
<title>Facility&#45;&gt;BuildingOntologyThing</title>
<path fill="none" stroke="black" d="M169,-150.71C169,-158.47 169,-167.92 169,-176.74"/>
<polygon fill="none" stroke="black" points="165.5,-176.66 169,-186.66 172.5,-176.66 165.5,-176.66"/>
</g>
<!-- Invis -->
<!-- Facility&#45;&gt;Invis -->
<!-- spatialLoc__Location -->
<g id="node4" class="node">
<title>spatialLoc__Location</title>
<polygon fill="lightgray" stroke="none" points="16.75,-25.88 16.75,-42.12 125.25,-42.12 125.25,-25.88 16.75,-25.88"/>
<text xml:space="preserve" text-anchor="start" x="17.75" y="-29.73" font-family="Arial" font-size="12.00">spatialLoc::Location</text>
<polygon fill="none" stroke="black" points="15.75,-24.88 15.75,-43.12 126.25,-43.12 126.25,-24.88 15.75,-24.88"/>
</g>
<!-- Facility&#45;&gt;spatialLoc__Location -->
<g id="edge4" class="edge">
<title>Facility&#45;&gt;spatialLoc__Location</title>
<path fill="none" stroke="black" d="M151.93,-115.1C136.47,-99.8 113.51,-77.07 95.98,-59.73"/>
<polygon fill="black" stroke="black" points="98.52,-57.31 88.95,-52.77 93.6,-62.29 98.52,-57.31"/>
<text xml:space="preserve" text-anchor="middle" x="190.53" y="-86.55" font-family="Arial" font-size="11.00"> spatialLoc::hasLocation </text>
<text xml:space="preserve" text-anchor="middle" x="190.53" y="-73.05" font-family="Arial" font-size="11.00"> «exactly 1» &#160;</text>
</g>
<!-- Invis&#45;&gt;spatialLoc__Location -->
</g>
</svg>
