<?xml version="1.0" encoding="UTF-8" standalone="no"?>
<!DOCTYPE svg PUBLIC "-//W3C//DTD SVG 1.1//EN"
 "http://www.w3.org/Graphics/SVG/1.1/DTD/svg11.dtd">
<!-- Generated by graphviz version 14.0.2 (20251019.1705)
 -->
<!-- Pages: 1 -->
<svg width="216pt" height="232pt"
 viewBox="0.00 0.00 216.00 232.00" xmlns="http://www.w3.org/2000/svg" xmlns:xlink="http://www.w3.org/1999/xlink">
<g id="graph0" class="graph" transform="scale(1 1) rotate(0) translate(4 228)">
<polygon fill="white" stroke="none" points="-4,4 -4,-228 211.5,-228 211.5,4 -4,4"/>
<g id="clust2" class="cluster">
<title>cluster_associated</title>
</g>
<!-- BuildingUse -->
<g id="node1" class="node">
<title>BuildingUse</title>
<g id="a_node1"><a xlink:href="../classes/Building__BuildingUse.md" xlink:title="&lt;TABLE&gt;">
<polygon fill="lightgray" stroke="none" points="110,-124.88 110,-141.12 178,-141.12 178,-124.88 110,-124.88"/>
<text xml:space="preserve" text-anchor="start" x="111" y="-128.72" font-family="Arial" font-size="12.00">BuildingUse</text>
<polygon fill="none" stroke="black" points="109,-123.88 109,-142.12 179,-142.12 179,-123.88 109,-123.88"/>
</a>
</g>
</g>
<!-- BuildingOntologyThing -->
<g id="node2" class="node">
<title>BuildingOntologyThing</title>
<g id="a_node2"><a xlink:href="../_counters/Building__BuildingOntologyThing.md" xlink:title="&lt;TABLE&gt;">
<polygon fill="lightgray" stroke="none" points="81.5,-197.88 81.5,-214.12 206.5,-214.12 206.5,-197.88 81.5,-197.88"/>
<text xml:space="preserve" text-anchor="start" x="82.5" y="-201.72" font-family="Arial" font-size="12.00">BuildingOntologyThing</text>
<polygon fill="none" stroke="black" points="80.5,-196.88 80.5,-215.12 207.5,-215.12 207.5,-196.88 80.5,-196.88"/>
</a>
</g>
</g>
<!-- BuildingUse&#45;&gt;BuildingOntologyThing -->
<g id="edge1" class="edge">
<title>BuildingUse&#45;&gt;BuildingOntologyThing</title>
<path fill="none" stroke="black" d="M144,-150.71C144,-158.47 144,-167.92 144,-176.74"/>
<polygon fill="none" stroke="black" points="140.5,-176.66 144,-186.66 147.5,-176.66 140.5,-176.66"/>
</g>
<!-- Invis -->
<!-- BuildingUse&#45;&gt;Invis -->
<!-- code__Code -->
<g id="node4" class="node">
<title>code__Code</title>
<polygon fill="lightgray" stroke="none" points="17.25,-25.88 17.25,-42.12 80.75,-42.12 80.75,-25.88 17.25,-25.88"/>
<text xml:space="preserve" text-anchor="start" x="18.25" y="-29.73" font-family="Arial" font-size="12.00">code::Code</text>
<polygon fill="none" stroke="black" points="16.25,-24.88 16.25,-43.12 81.75,-43.12 81.75,-24.88 16.25,-24.88"/>
</g>
<!-- BuildingUse&#45;&gt;code__Code -->
<g id="edge4" class="edge">
<title>BuildingUse&#45;&gt;code__Code</title>
<path fill="none" stroke="black" d="M127.45,-115.1C112.47,-99.8 90.2,-77.07 73.22,-59.73"/>
<polygon fill="black" stroke="black" points="75.91,-57.48 66.42,-52.78 70.91,-62.38 75.91,-57.48"/>
<text xml:space="preserve" text-anchor="middle" x="147.18" y="-86.55" font-family="Arial" font-size="11.00"> code::hasCode </text>
<text xml:space="preserve" text-anchor="middle" x="147.18" y="-73.05" font-family="Arial" font-size="11.00"> «only» &#160;</text>
</g>
<!-- Invis&#45;&gt;code__Code -->
</g>
</svg>
