<?xml version="1.0" encoding="UTF-8" standalone="no"?>
<!DOCTYPE svg PUBLIC "-//W3C//DTD SVG 1.1//EN"
 "http://www.w3.org/Graphics/SVG/1.1/DTD/svg11.dtd">
<!-- Generated by graphviz version 14.0.2 (20251019.1705)
 -->
<!-- Pages: 1 -->
<svg width="160pt" height="132pt"
 viewBox="0.00 0.00 160.00 132.00" xmlns="http://www.w3.org/2000/svg" xmlns:xlink="http://www.w3.org/1999/xlink">
<g id="graph0" class="graph" transform="scale(1 1) rotate(0) translate(4 128)">
<polygon fill="white" stroke="none" points="-4,4 -4,-128 155.62,-128 155.62,4 -4,4"/>
<g id="clust2" class="cluster">
<title>cluster_associated</title>
</g>
<!-- MainBylaw -->
<g id="node1" class="node">
<title>MainBylaw</title>
<g id="a_node1"><a xlink:href="../classes/Bylaw__MainBylaw.md" xlink:title="&lt;TABLE&gt;">
<polygon fill="lightgray" stroke="none" points="1,-25.88 1,-42.12 62.25,-42.12 62.25,-25.88 1,-25.88"/>
<text xml:space="preserve" text-anchor="start" x="2" y="-29.73" font-family="Arial" font-size="12.00">MainBylaw</text>
<polygon fill="none" stroke="black" points="0,-24.88 0,-43.12 63.25,-43.12 63.25,-24.88 0,-24.88"/>
</a>
</g>
</g>
<!-- Bylaw -->
<g id="node2" class="node">
<title>Bylaw</title>
<g id="a_node2"><a xlink:href="../_counters/Bylaw__Bylaw.md" xlink:title="&lt;TABLE&gt;">
<polygon fill="lightgray" stroke="none" points="14.12,-97.88 14.12,-114.12 49.12,-114.12 49.12,-97.88 14.12,-97.88"/>
<text xml:space="preserve" text-anchor="start" x="15.12" y="-101.72" font-family="Arial" font-size="12.00">Bylaw</text>
<polygon fill="none" stroke="black" points="13.12,-96.88 13.12,-115.12 50.12,-115.12 50.12,-96.88 13.12,-96.88"/>
</a>
</g>
</g>
<!-- MainBylaw&#45;&gt;Bylaw -->
<g id="edge1" class="edge">
<title>MainBylaw&#45;&gt;Bylaw</title>
<path fill="none" stroke="black" d="M31.62,-51.79C31.62,-59.25 31.62,-68.24 31.62,-76.69"/>
<polygon fill="none" stroke="black" points="28.13,-76.54 31.63,-86.54 35.13,-76.54 28.13,-76.54"/>
</g>
<!-- Invis -->
</g>
</svg>
