<?xml version="1.0" encoding="UTF-8" standalone="no"?>
<!DOCTYPE svg PUBLIC "-//W3C//DTD SVG 1.1//EN"
 "http://www.w3.org/Graphics/SVG/1.1/DTD/svg11.dtd">
<!-- Generated by graphviz version 14.0.2 (20251019.1705)
 -->
<!-- Pages: 1 -->
<svg width="358pt" height="336pt"
 viewBox="0.00 0.00 358.00 336.00" xmlns="http://www.w3.org/2000/svg" xmlns:xlink="http://www.w3.org/1999/xlink">
<g id="graph0" class="graph" transform="scale(1 1) rotate(0) translate(4 332)">
<polygon fill="white" stroke="none" points="-4,4 -4,-332 354.38,-332 354.38,4 -4,4"/>
<g id="clust2" class="cluster">
<title>cluster_associated</title>
</g>
<!-- Schedule -->
<g id="node1" class="node">
<title>Schedule</title>
<g id="a_node1"><a xlink:href="../classes/Bylaw__Schedule.md" xlink:title="&lt;TABLE&gt;">
<polygon fill="lightgray" stroke="none" points="106.62,-237.75 106.62,-254 349.38,-254 349.38,-237.75 106.62,-237.75"/>
<text xml:space="preserve" text-anchor="start" x="202.5" y="-241.6" font-family="Arial" font-size="12.00">Schedule</text>
<text xml:space="preserve" text-anchor="start" x="107.62" y="-225.35" font-family="Arial" font-size="12.00">genProp::hasDescription: xsd::string «max 1»</text>
<text xml:space="preserve" text-anchor="start" x="107.62" y="-209.1" font-family="Arial" font-size="12.00">genProp::hasIdentifier: xsd::string «max 1»</text>
<text xml:space="preserve" text-anchor="start" x="107.62" y="-192.85" font-family="Arial" font-size="12.00">genProp::hasName: xsd::string «max 1»</text>
<polygon fill="none" stroke="black" points="105.62,-188 105.62,-255 350.38,-255 350.38,-188 105.62,-188"/>
</a>
</g>
</g>
<!-- BylawOntologyThing -->
<g id="node2" class="node">
<title>BylawOntologyThing</title>
<g id="a_node2"><a xlink:href="../_counters/Bylaw__BylawOntologyThing.md" xlink:title="&lt;TABLE&gt;">
<polygon fill="lightgray" stroke="none" points="171.12,-301.88 171.12,-318.12 284.88,-318.12 284.88,-301.88 171.12,-301.88"/>
<text xml:space="preserve" text-anchor="start" x="172.12" y="-305.73" font-family="Arial" font-size="12.00">BylawOntologyThing</text>
<polygon fill="none" stroke="black" points="170.12,-300.88 170.12,-319.12 285.88,-319.12 285.88,-300.88 170.12,-300.88"/>
</a>
</g>
</g>
<!-- Schedule&#45;&gt;BylawOntologyThing -->
<g id="edge1" class="edge">
<title>Schedule&#45;&gt;BylawOntologyThing</title>
<path fill="none" stroke="black" d="M228,-254.89C228,-263.45 228,-272.62 228,-280.93"/>
<polygon fill="none" stroke="black" points="224.5,-280.81 228,-290.81 231.5,-280.81 224.5,-280.81"/>
</g>
<!-- Invis -->
<!-- Schedule&#45;&gt;Invis -->
<!-- Clause -->
<g id="node4" class="node">
<title>Clause</title>
<g id="a_node4"><a xlink:href="../_counters/Bylaw__Clause.md" xlink:title="&lt;TABLE&gt;">
<polygon fill="lightgray" stroke="none" points="22.88,-98.88 22.88,-115.12 63.12,-115.12 63.12,-98.88 22.88,-98.88"/>
<text xml:space="preserve" text-anchor="start" x="23.88" y="-102.72" font-family="Arial" font-size="12.00">Clause</text>
<polygon fill="none" stroke="black" points="21.88,-97.88 21.88,-116.12 64.12,-116.12 64.12,-97.88 21.88,-97.88"/>
</a>
</g>
</g>
<!-- Schedule&#45;&gt;Clause -->
<g id="edge5" class="edge">
<title>Schedule&#45;&gt;Clause</title>
<path fill="none" stroke="black" d="M165.54,-188.13C154.91,-182.29 144.06,-176.1 134,-170 114.01,-157.86 92.34,-143.17 75.16,-131.13"/>
<polygon fill="black" stroke="black" points="77.55,-128.53 67.36,-125.62 73.51,-134.25 77.55,-128.53"/>
<text xml:space="preserve" text-anchor="middle" x="162.5" y="-159.55" font-family="Arial" font-size="11.00"> hasClause </text>
<text xml:space="preserve" text-anchor="middle" x="162.5" y="-146.05" font-family="Arial" font-size="11.00"> «only» &#160;</text>
</g>
<!-- Law -->
<g id="node5" class="node">
<title>Law</title>
<g id="a_node5"><a xlink:href="../_counters/Bylaw__Law.md" xlink:title="&lt;TABLE&gt;">
<polygon fill="lightgray" stroke="none" points="30.75,-25.88 30.75,-42.12 55.25,-42.12 55.25,-25.88 30.75,-25.88"/>
<text xml:space="preserve" text-anchor="start" x="31.75" y="-29.73" font-family="Arial" font-size="12.00">Law</text>
<polygon fill="none" stroke="black" points="29.75,-24.88 29.75,-43.12 56.25,-43.12 56.25,-24.88 29.75,-24.88"/>
</a>
</g>
</g>
<!-- Schedule&#45;&gt;Law -->
<g id="edge6" class="edge">
<title>Schedule&#45;&gt;Law</title>
<path fill="none" stroke="black" d="M216.82,-188.26C210.68,-173.47 202.05,-156.31 191,-143 159.6,-105.19 112.19,-73.67 79.53,-54.63"/>
<polygon fill="black" stroke="black" points="81.64,-51.8 71.22,-49.88 78.17,-57.88 81.64,-51.8"/>
<text xml:space="preserve" text-anchor="middle" x="235.34" y="-110.05" font-family="Arial" font-size="11.00"> partwhole::properPartOf </text>
<text xml:space="preserve" text-anchor="middle" x="235.34" y="-96.55" font-family="Arial" font-size="11.00"> «exactly 1» &#160;</text>
</g>
<!-- Invis&#45;&gt;Clause -->
<!-- Clause&#45;&gt;Law -->
</g>
</svg>
