<?xml version="1.0" encoding="UTF-8" standalone="no"?>
<!DOCTYPE svg PUBLIC "-//W3C//DTD SVG 1.1//EN"
 "http://www.w3.org/Graphics/SVG/1.1/DTD/svg11.dtd">
<!-- Generated by graphviz version 14.0.2 (20251019.1705)
 -->
<!-- Pages: 1 -->
<svg width="180pt" height="159pt"
 viewBox="0.00 0.00 180.00 159.00" xmlns="http://www.w3.org/2000/svg" xmlns:xlink="http://www.w3.org/1999/xlink">
<g id="graph0" class="graph" transform="scale(1 1) rotate(0) translate(4 155)">
<polygon fill="white" stroke="none" points="-4,4 -4,-155 176.12,-155 176.12,4 -4,4"/>
<g id="clust2" class="cluster">
<title>cluster_associated</title>
</g>
<!-- RevisionBylaw -->
<g id="node1" class="node">
<title>RevisionBylaw</title>
<g id="a_node1"><a xlink:href="../classes/Bylaw__RevisionBylaw.md" xlink:title="&lt;TABLE&gt;">
<polygon fill="lightgray" stroke="none" points="1,-25.88 1,-42.12 83.25,-42.12 83.25,-25.88 1,-25.88"/>
<text xml:space="preserve" text-anchor="start" x="2" y="-29.73" font-family="Arial" font-size="12.00">RevisionBylaw</text>
<polygon fill="none" stroke="black" points="0,-24.88 0,-43.12 84.25,-43.12 84.25,-24.88 0,-24.88"/>
</a>
</g>
</g>
<!-- Bylaw -->
<g id="node2" class="node">
<title>Bylaw</title>
<g id="a_node2"><a xlink:href="../_counters/Bylaw__Bylaw.md" xlink:title="&lt;TABLE&gt;">
<polygon fill="lightgray" stroke="none" points="24.62,-124.88 24.62,-141.12 59.62,-141.12 59.62,-124.88 24.62,-124.88"/>
<text xml:space="preserve" text-anchor="start" x="25.62" y="-128.72" font-family="Arial" font-size="12.00">Bylaw</text>
<polygon fill="none" stroke="black" points="23.62,-123.88 23.62,-142.12 60.62,-142.12 60.62,-123.88 23.62,-123.88"/>
</a>
</g>
</g>
<!-- RevisionBylaw&#45;&gt;Bylaw -->
<g id="edge1" class="edge">
<title>RevisionBylaw&#45;&gt;Bylaw</title>
<path fill="none" stroke="black" d="M40.97,-51.73C40.63,-57.51 40.3,-64.04 40.12,-70 39.78,-82 39.78,-85 40.12,-97 40.19,-99.24 40.28,-101.55 40.38,-103.88"/>
<polygon fill="none" stroke="black" points="36.88,-103.96 40.9,-113.76 43.87,-103.59 36.88,-103.96"/>
</g>
<!-- RevisionBylaw&#45;&gt;Bylaw -->
<g id="edge2" class="edge">
<title>RevisionBylaw&#45;&gt;Bylaw</title>
<path fill="none" stroke="black" d="M42.12,-51.7C42.12,-65.97 42.12,-86.8 42.12,-103.67"/>
<polygon fill="black" stroke="black" points="38.63,-103.59 42.13,-113.59 45.63,-103.59 38.63,-103.59"/>
<text xml:space="preserve" text-anchor="middle" x="90.5" y="-86.55" font-family="Arial" font-size="11.00"> legislationChanges </text>
<text xml:space="preserve" text-anchor="middle" x="90.5" y="-73.05" font-family="Arial" font-size="11.00"> «exactly 1» &#160;</text>
</g>
<!-- Invis -->
</g>
</svg>
