<?xml version="1.0" encoding="UTF-8" standalone="no"?>
<!DOCTYPE svg PUBLIC "-//W3C//DTD SVG 1.1//EN"
 "http://www.w3.org/Graphics/SVG/1.1/DTD/svg11.dtd">
<!-- Generated by graphviz version 14.0.2 (20251019.1705)
 -->
<!-- Pages: 1 -->
<svg width="390pt" height="419pt"
 viewBox="0.00 0.00 390.00 419.00" xmlns="http://www.w3.org/2000/svg" xmlns:xlink="http://www.w3.org/1999/xlink">
<g id="graph0" class="graph" transform="scale(1 1) rotate(0) translate(4 414.75)">
<polygon fill="white" stroke="none" points="-4,4 -4,-414.75 385.5,-414.75 385.5,4 -4,4"/>
<g id="clust2" class="cluster">
<title>cluster_associated</title>
</g>
<!-- Stakeholder -->
<g id="node1" class="node">
<title>Stakeholder</title>
<g id="a_node1"><a xlink:href="../classes/CityService__Stakeholder.md" xlink:title="&lt;TABLE&gt;">
<polygon fill="lightgray" stroke="none" points="147.5,-320.5 147.5,-336.75 380.5,-336.75 380.5,-320.5 147.5,-320.5"/>
<text xml:space="preserve" text-anchor="start" x="231.75" y="-324.35" font-family="Arial" font-size="12.00">Stakeholder</text>
<text xml:space="preserve" text-anchor="start" x="148.5" y="-308.1" font-family="Arial" font-size="12.00">genProp::hasDescription: xsd::string «only»</text>
<text xml:space="preserve" text-anchor="start" x="148.5" y="-291.85" font-family="Arial" font-size="12.00">genProp::hasName: xsd::string «max 1»</text>
<polygon fill="none" stroke="black" points="146.5,-287 146.5,-337.75 381.5,-337.75 381.5,-287 146.5,-287"/>
</a>
</g>
</g>
<!-- CityServiceOntologyThing -->
<g id="node2" class="node">
<title>CityServiceOntologyThing</title>
<g id="a_node2"><a xlink:href="../_counters/CityService__CityServiceOntologyThing.md" xlink:title="&lt;TABLE&gt;">
<polygon fill="lightgray" stroke="none" points="192.88,-384.62 192.88,-400.88 335.12,-400.88 335.12,-384.62 192.88,-384.62"/>
<text xml:space="preserve" text-anchor="start" x="193.88" y="-388.48" font-family="Arial" font-size="12.00">CityServiceOntologyThing</text>
<polygon fill="none" stroke="black" points="191.88,-383.62 191.88,-401.88 336.12,-401.88 336.12,-383.62 191.88,-383.62"/>
</a>
</g>
</g>
<!-- Stakeholder&#45;&gt;CityServiceOntologyThing -->
<g id="edge1" class="edge">
<title>Stakeholder&#45;&gt;CityServiceOntologyThing</title>
<path fill="none" stroke="black" d="M264,-337.71C264,-345.97 264,-355.27 264,-363.79"/>
<polygon fill="none" stroke="black" points="260.5,-363.62 264,-373.62 267.5,-363.62 260.5,-363.62"/>
</g>
<!-- Invis -->
<!-- Stakeholder&#45;&gt;Invis -->
<!-- activity__Activity -->
<g id="node4" class="node">
<title>activity__Activity</title>
<polygon fill="lightgray" stroke="none" points="31.5,-197.88 31.5,-214.12 114.5,-214.12 114.5,-197.88 31.5,-197.88"/>
<text xml:space="preserve" text-anchor="start" x="32.5" y="-201.72" font-family="Arial" font-size="12.00">activity::Activity</text>
<polygon fill="none" stroke="black" points="30.5,-196.88 30.5,-215.12 115.5,-215.12 115.5,-196.88 30.5,-196.88"/>
</g>
<!-- Stakeholder&#45;&gt;activity__Activity -->
<g id="edge6" class="edge">
<title>Stakeholder&#45;&gt;activity__Activity</title>
<path fill="none" stroke="black" d="M148.52,-287.04C121.13,-280.38 98.31,-273.71 93.25,-269 83.86,-260.27 78.81,-247.13 76.11,-235.19"/>
<polygon fill="black" stroke="black" points="79.56,-234.59 74.37,-225.35 72.66,-235.8 79.56,-234.59"/>
<text xml:space="preserve" text-anchor="middle" x="117.62" y="-258.55" font-family="Arial" font-size="11.00"> performs </text>
<text xml:space="preserve" text-anchor="middle" x="117.62" y="-245.05" font-family="Arial" font-size="11.00"> «some» &#160;</text>
</g>
<!-- CatchmentAreaType -->
<g id="node5" class="node">
<title>CatchmentAreaType</title>
<g id="a_node5"><a xlink:href="../_counters/CityService__CatchmentAreaType.md" xlink:title="&lt;TABLE&gt;">
<polygon fill="lightgray" stroke="none" points="17.25,-98.88 17.25,-115.12 128.75,-115.12 128.75,-98.88 17.25,-98.88"/>
<text xml:space="preserve" text-anchor="start" x="18.25" y="-102.72" font-family="Arial" font-size="12.00">CatchmentAreaType</text>
<polygon fill="none" stroke="black" points="16.25,-97.88 16.25,-116.12 129.75,-116.12 129.75,-97.88 16.25,-97.88"/>
</a>
</g>
</g>
<!-- Stakeholder&#45;&gt;CatchmentAreaType -->
<g id="edge8" class="edge">
<title>Stakeholder&#45;&gt;CatchmentAreaType</title>
<path fill="none" stroke="black" d="M235.9,-287.03C216.68,-269.98 190.94,-246.34 169.75,-224 141.54,-194.28 111.72,-157.62 92.77,-133.57"/>
<polygon fill="black" stroke="black" points="95.68,-131.61 86.76,-125.89 90.17,-135.93 95.68,-131.61"/>
<text xml:space="preserve" text-anchor="middle" x="230.88" y="-209.05" font-family="Arial" font-size="11.00"> hasCatchmentAreaType </text>
<text xml:space="preserve" text-anchor="middle" x="230.88" y="-195.55" font-family="Arial" font-size="11.00"> «only» &#160;</text>
</g>
<!-- spatialloc__Location -->
<g id="node6" class="node">
<title>spatialloc__Location</title>
<polygon fill="lightgray" stroke="none" points="22.62,-25.88 22.62,-42.12 127.38,-42.12 127.38,-25.88 22.62,-25.88"/>
<text xml:space="preserve" text-anchor="start" x="23.62" y="-29.73" font-family="Arial" font-size="12.00">spatialloc::Location</text>
<polygon fill="none" stroke="black" points="21.62,-24.88 21.62,-43.12 128.38,-43.12 128.38,-24.88 21.62,-24.88"/>
</g>
<!-- Stakeholder&#45;&gt;spatialloc__Location -->
<g id="edge7" class="edge">
<title>Stakeholder&#45;&gt;spatialloc__Location</title>
<path fill="none" stroke="black" d="M278.67,-287.42C292.43,-261.62 308.58,-219.98 292,-188 258.35,-123.11 183.13,-79.9 130.74,-56.42"/>
<polygon fill="black" stroke="black" points="132.22,-53.24 121.65,-52.45 129.42,-59.66 132.22,-53.24"/>
<text xml:space="preserve" text-anchor="middle" x="330.3" y="-159.55" font-family="Arial" font-size="11.00"> hasCatchmentArea </text>
<text xml:space="preserve" text-anchor="middle" x="330.3" y="-146.05" font-family="Arial" font-size="11.00"> «only» &#160;</text>
</g>
<!-- Invis&#45;&gt;activity__Activity -->
<!-- activity__Activity&#45;&gt;CatchmentAreaType -->
<!-- CatchmentAreaType&#45;&gt;spatialloc__Location -->
</g>
</svg>
