<?xml version="1.0" encoding="UTF-8" standalone="no"?>
<!DOCTYPE svg PUBLIC "-//W3C//DTD SVG 1.1//EN"
 "http://www.w3.org/Graphics/SVG/1.1/DTD/svg11.dtd">
<!-- Generated by graphviz version 14.0.2 (20251019.1705)
 -->
<!-- Pages: 1 -->
<svg width="463pt" height="320pt"
 viewBox="0.00 0.00 463.00 320.00" xmlns="http://www.w3.org/2000/svg" xmlns:xlink="http://www.w3.org/1999/xlink">
<g id="graph0" class="graph" transform="scale(1 1) rotate(0) translate(4 315.75)">
<polygon fill="white" stroke="none" points="-4,4 -4,-315.75 458.88,-315.75 458.88,4 -4,4"/>
<g id="clust2" class="cluster">
<title>cluster_associated</title>
</g>
<!-- Input -->
<g id="node1" class="node">
<title>Input</title>
<g id="a_node1"><a xlink:href="../classes/CityService__Input.md" xlink:title="&lt;TABLE&gt;">
<polygon fill="lightgray" stroke="none" points="157.5,-221.5 157.5,-237.75 390.5,-237.75 390.5,-221.5 157.5,-221.5"/>
<text xml:space="preserve" text-anchor="start" x="260.88" y="-225.35" font-family="Arial" font-size="12.00">Input</text>
<text xml:space="preserve" text-anchor="start" x="158.5" y="-209.1" font-family="Arial" font-size="12.00">genProp::hasDescription: xsd::string «only»</text>
<text xml:space="preserve" text-anchor="start" x="158.5" y="-192.85" font-family="Arial" font-size="12.00">genProp::hasName: xsd::string «max 1»</text>
<polygon fill="none" stroke="black" points="156.5,-188 156.5,-238.75 391.5,-238.75 391.5,-188 156.5,-188"/>
</a>
</g>
</g>
<!-- CityServiceOntologyThing -->
<g id="node2" class="node">
<title>CityServiceOntologyThing</title>
<g id="a_node2"><a xlink:href="../_counters/CityService__CityServiceOntologyThing.md" xlink:title="&lt;TABLE&gt;">
<polygon fill="lightgray" stroke="none" points="111.88,-285.62 111.88,-301.88 254.12,-301.88 254.12,-285.62 111.88,-285.62"/>
<text xml:space="preserve" text-anchor="start" x="112.88" y="-289.48" font-family="Arial" font-size="12.00">CityServiceOntologyThing</text>
<polygon fill="none" stroke="black" points="110.88,-284.62 110.88,-302.88 255.12,-302.88 255.12,-284.62 110.88,-284.62"/>
</a>
</g>
</g>
<!-- Input&#45;&gt;CityServiceOntologyThing -->
<g id="edge1" class="edge">
<title>Input&#45;&gt;CityServiceOntologyThing</title>
<path fill="none" stroke="black" d="M245.74,-238.71C234.61,-248.3 221.86,-259.28 210.77,-268.83"/>
<polygon fill="none" stroke="black" points="208.74,-265.96 203.45,-275.14 213.31,-271.27 208.74,-265.96"/>
</g>
<!-- resource__TerminalResourceState -->
<g id="node3" class="node">
<title>resource__TerminalResourceState</title>
<polygon fill="lightgray" stroke="none" points="274.12,-285.62 274.12,-301.88 453.88,-301.88 453.88,-285.62 274.12,-285.62"/>
<text xml:space="preserve" text-anchor="start" x="275.12" y="-289.48" font-family="Arial" font-size="12.00">resource::TerminalResourceState</text>
<polygon fill="none" stroke="black" points="273.12,-284.62 273.12,-302.88 454.88,-302.88 454.88,-284.62 273.12,-284.62"/>
</g>
<!-- Input&#45;&gt;resource__TerminalResourceState -->
<g id="edge2" class="edge">
<title>Input&#45;&gt;resource__TerminalResourceState</title>
<path fill="none" stroke="black" d="M301.94,-238.71C312.96,-248.3 325.57,-259.28 336.53,-268.83"/>
<polygon fill="none" stroke="black" points="333.93,-271.21 343.77,-275.13 338.53,-265.93 333.93,-271.21"/>
</g>
<!-- Invis -->
<!-- Input&#45;&gt;Invis -->
<!-- Stakeholder -->
<g id="node5" class="node">
<title>Stakeholder</title>
<g id="a_node5"><a xlink:href="../_counters/CityService__Stakeholder.md" xlink:title="&lt;TABLE&gt;">
<polygon fill="lightgray" stroke="none" points="60.75,-98.88 60.75,-115.12 127.25,-115.12 127.25,-98.88 60.75,-98.88"/>
<text xml:space="preserve" text-anchor="start" x="61.75" y="-102.72" font-family="Arial" font-size="12.00">Stakeholder</text>
<polygon fill="none" stroke="black" points="59.75,-97.88 59.75,-116.12 128.25,-116.12 128.25,-97.88 59.75,-97.88"/>
</a>
</g>
</g>
<!-- Input&#45;&gt;Stakeholder -->
<g id="edge6" class="edge">
<title>Input&#45;&gt;Stakeholder</title>
<path fill="none" stroke="black" d="M159.77,-188.1C141.86,-182.63 126.84,-176.5 119.5,-170 109.52,-161.18 103.37,-147.85 99.62,-135.82"/>
<polygon fill="black" stroke="black" points="103.05,-135.09 97.1,-126.32 96.28,-136.88 103.05,-135.09"/>
<text xml:space="preserve" text-anchor="middle" x="189.25" y="-159.55" font-family="Arial" font-size="11.00"> hasContributingStakeholder </text>
<text xml:space="preserve" text-anchor="middle" x="189.25" y="-146.05" font-family="Arial" font-size="11.00"> «only» &#160;</text>
</g>
<!-- time__DateTimeInterval -->
<g id="node6" class="node">
<title>time__DateTimeInterval</title>
<polygon fill="lightgray" stroke="none" points="17.38,-25.88 17.38,-42.12 138.62,-42.12 138.62,-25.88 17.38,-25.88"/>
<text xml:space="preserve" text-anchor="start" x="18.38" y="-29.73" font-family="Arial" font-size="12.00">time::DateTimeInterval</text>
<polygon fill="none" stroke="black" points="16.38,-24.88 16.38,-43.12 139.62,-43.12 139.62,-24.88 16.38,-24.88"/>
</g>
<!-- Input&#45;&gt;time__DateTimeInterval -->
<g id="edge7" class="edge">
<title>Input&#45;&gt;time__DateTimeInterval</title>
<path fill="none" stroke="black" d="M273.5,-188.28C272.12,-173.97 268.42,-156.11 259,-143 229.41,-101.8 178.8,-73.56 138.61,-56.31"/>
<polygon fill="black" stroke="black" points="140.08,-53.13 129.5,-52.53 137.39,-59.6 140.08,-53.13"/>
<text xml:space="preserve" text-anchor="middle" x="310.37" y="-110.05" font-family="Arial" font-size="11.00"> iso21972::for_time_interval </text>
<text xml:space="preserve" text-anchor="middle" x="310.37" y="-96.55" font-family="Arial" font-size="11.00"> «only» &#160;</text>
</g>
<!-- Invis&#45;&gt;Stakeholder -->
<!-- Stakeholder&#45;&gt;time__DateTimeInterval -->
</g>
</svg>
