<?xml version="1.0" encoding="UTF-8" standalone="no"?>
<!DOCTYPE svg PUBLIC "-//W3C//DTD SVG 1.1//EN"
 "http://www.w3.org/Graphics/SVG/1.1/DTD/svg11.dtd">
<!-- Generated by graphviz version 14.0.2 (20251019.1705)
 -->
<!-- Pages: 1 -->
<svg width="390pt" height="477pt"
 viewBox="0.00 0.00 390.00 477.00" xmlns="http://www.w3.org/2000/svg" xmlns:xlink="http://www.w3.org/1999/xlink">
<g id="graph0" class="graph" transform="scale(1 1) rotate(0) translate(4 473)">
<polygon fill="white" stroke="none" points="-4,4 -4,-473 386.25,-473 386.25,4 -4,4"/>
<g id="clust2" class="cluster">
<title>cluster_associated</title>
</g>
<!-- CityResident -->
<g id="node1" class="node">
<title>CityResident</title>
<g id="a_node1"><a xlink:href="../classes/CityResident__CityResident.md" xlink:title="&lt;TABLE&gt;">
<polygon fill="lightgray" stroke="none" points="157.5,-369.88 157.5,-386.12 228.5,-386.12 228.5,-369.88 157.5,-369.88"/>
<text xml:space="preserve" text-anchor="start" x="158.5" y="-373.73" font-family="Arial" font-size="12.00">CityResident</text>
<polygon fill="none" stroke="black" points="156.5,-368.88 156.5,-387.12 229.5,-387.12 229.5,-368.88 156.5,-368.88"/>
</a>
</g>
</g>
<!-- CityResidentOntologyThing -->
<g id="node2" class="node">
<title>CityResidentOntologyThing</title>
<g id="a_node2"><a xlink:href="../_counters/CityResident__CityResidentOntologyThing.md" xlink:title="&lt;TABLE&gt;">
<polygon fill="lightgray" stroke="none" points="50.12,-442.88 50.12,-459.12 199.88,-459.12 199.88,-442.88 50.12,-442.88"/>
<text xml:space="preserve" text-anchor="start" x="51.12" y="-446.73" font-family="Arial" font-size="12.00">CityResidentOntologyThing</text>
<polygon fill="none" stroke="black" points="49.12,-441.88 49.12,-460.12 200.88,-460.12 200.88,-441.88 49.12,-441.88"/>
</a>
</g>
</g>
<!-- CityResident&#45;&gt;CityResidentOntologyThing -->
<g id="edge1" class="edge">
<title>CityResident&#45;&gt;CityResidentOntologyThing</title>
<path fill="none" stroke="black" d="M177,-395.71C168.64,-404.44 158.23,-415.31 148.93,-425.02"/>
<polygon fill="none" stroke="black" points="146.55,-422.44 142.16,-432.08 151.61,-427.28 146.55,-422.44"/>
</g>
<!-- person__Person -->
<g id="node3" class="node">
<title>person__Person</title>
<polygon fill="lightgray" stroke="none" points="219.5,-442.88 219.5,-459.12 302.5,-459.12 302.5,-442.88 219.5,-442.88"/>
<text xml:space="preserve" text-anchor="start" x="220.5" y="-446.73" font-family="Arial" font-size="12.00">person::Person</text>
<polygon fill="none" stroke="black" points="218.5,-441.88 218.5,-460.12 303.5,-460.12 303.5,-441.88 218.5,-441.88"/>
</g>
<!-- CityResident&#45;&gt;person__Person -->
<g id="edge2" class="edge">
<title>CityResident&#45;&gt;person__Person</title>
<path fill="none" stroke="black" d="M209,-395.71C217.36,-404.44 227.77,-415.31 237.07,-425.02"/>
<polygon fill="none" stroke="black" points="234.39,-427.28 243.84,-432.08 239.45,-422.44 234.39,-427.28"/>
</g>
<!-- Invis -->
<!-- CityResident&#45;&gt;Invis -->
<!-- city__JurisdictionalArea -->
<g id="node5" class="node">
<title>city__JurisdictionalArea</title>
<polygon fill="lightgray" stroke="none" points="17,-270.88 17,-287.12 139,-287.12 139,-270.88 17,-270.88"/>
<text xml:space="preserve" text-anchor="start" x="18" y="-274.73" font-family="Arial" font-size="12.00">city::JurisdictionalArea</text>
<polygon fill="none" stroke="black" points="16,-269.88 16,-288.12 140,-288.12 140,-269.88 16,-269.88"/>
</g>
<!-- CityResident&#45;&gt;city__JurisdictionalArea -->
<g id="edge11" class="edge">
<title>CityResident&#45;&gt;city__JurisdictionalArea</title>
<path fill="none" stroke="black" d="M156.79,-361.95C155.18,-361.29 153.57,-360.64 152,-360 131.84,-351.83 122.29,-356.96 106.5,-342 96.72,-332.74 90.01,-319.48 85.57,-307.6"/>
<polygon fill="black" stroke="black" points="88.93,-306.62 82.45,-298.24 82.29,-308.83 88.93,-306.62"/>
<text xml:space="preserve" text-anchor="middle" x="134.25" y="-331.55" font-family="Arial" font-size="11.00"> residentOf </text>
<text xml:space="preserve" text-anchor="middle" x="134.25" y="-318.05" font-family="Arial" font-size="11.00"> «only» &#160;</text>
</g>
<!-- EntityOperation -->
<g id="node6" class="node">
<title>EntityOperation</title>
<g id="a_node6"><a xlink:href="../_counters/CityResident__EntityOperation.md" xlink:title="&lt;TABLE&gt;">
<polygon fill="lightgray" stroke="none" points="51.75,-171.88 51.75,-188.12 136.25,-188.12 136.25,-171.88 51.75,-171.88"/>
<text xml:space="preserve" text-anchor="start" x="52.75" y="-175.72" font-family="Arial" font-size="12.00">EntityOperation</text>
<polygon fill="none" stroke="black" points="50.75,-170.88 50.75,-189.12 137.25,-189.12 137.25,-170.88 50.75,-170.88"/>
</a>
</g>
</g>
<!-- CityResident&#45;&gt;EntityOperation -->
<g id="edge9" class="edge">
<title>CityResident&#45;&gt;EntityOperation</title>
<path fill="none" stroke="black" d="M188.07,-360.33C180.95,-337.3 166.69,-294.77 149,-261 138.96,-241.83 125.16,-221.78 113.9,-206.54"/>
<polygon fill="black" stroke="black" points="116.99,-204.82 108.18,-198.93 111.39,-209.03 116.99,-204.82"/>
<text xml:space="preserve" text-anchor="middle" x="188.87" y="-282.05" font-family="Arial" font-size="11.00"> operates </text>
<text xml:space="preserve" text-anchor="middle" x="188.87" y="-268.55" font-family="Arial" font-size="11.00"> «only» &#160;</text>
</g>
<!-- EntityOwnership -->
<g id="node7" class="node">
<title>EntityOwnership</title>
<g id="a_node7"><a xlink:href="../_counters/CityResident__EntityOwnership.md" xlink:title="&lt;TABLE&gt;">
<polygon fill="lightgray" stroke="none" points="49.12,-98.88 49.12,-115.12 138.88,-115.12 138.88,-98.88 49.12,-98.88"/>
<text xml:space="preserve" text-anchor="start" x="50.12" y="-102.72" font-family="Arial" font-size="12.00">EntityOwnership</text>
<polygon fill="none" stroke="black" points="48.12,-97.88 48.12,-116.12 139.88,-116.12 139.88,-97.88 48.12,-97.88"/>
</a>
</g>
</g>
<!-- CityResident&#45;&gt;EntityOwnership -->
<g id="edge10" class="edge">
<title>CityResident&#45;&gt;EntityOwnership</title>
<path fill="none" stroke="black" d="M201.81,-360.19C212.58,-337.36 228.08,-295.46 217,-261 199.81,-207.55 153.81,-159.53 123.2,-132.09"/>
<polygon fill="black" stroke="black" points="125.59,-129.53 115.76,-125.58 120.98,-134.8 125.59,-129.53"/>
<text xml:space="preserve" text-anchor="middle" x="229.93" y="-232.55" font-family="Arial" font-size="11.00"> owns </text>
<text xml:space="preserve" text-anchor="middle" x="229.93" y="-219.05" font-family="Arial" font-size="11.00"> «only» &#160;</text>
</g>
<!-- Residence -->
<g id="node8" class="node">
<title>Residence</title>
<g id="a_node8"><a xlink:href="../_counters/CityResident__Residence.md" xlink:title="&lt;TABLE&gt;">
<polygon fill="lightgray" stroke="none" points="72.12,-25.88 72.12,-42.12 131.88,-42.12 131.88,-25.88 72.12,-25.88"/>
<text xml:space="preserve" text-anchor="start" x="73.12" y="-29.73" font-family="Arial" font-size="12.00">Residence</text>
<polygon fill="none" stroke="black" points="71.12,-24.88 71.12,-43.12 132.88,-43.12 132.88,-24.88 71.12,-24.88"/>
</a>
</g>
</g>
<!-- CityResident&#45;&gt;Residence -->
<g id="edge8" class="edge">
<title>CityResident&#45;&gt;Residence</title>
<path fill="none" stroke="black" d="M229.39,-363.94C263.08,-349.23 308,-321.79 308,-280 308,-280 308,-280 308,-106 308,-71.62 204.13,-50.26 143.9,-40.77"/>
<polygon fill="black" stroke="black" points="144.75,-37.36 134.34,-39.31 143.69,-44.28 144.75,-37.36"/>
<text xml:space="preserve" text-anchor="middle" x="345.12" y="-183.05" font-family="Arial" font-size="11.00"> hasResidence </text>
<text xml:space="preserve" text-anchor="middle" x="345.12" y="-169.55" font-family="Arial" font-size="11.00"> «only» &#160;</text>
</g>
<!-- Invis&#45;&gt;city__JurisdictionalArea -->
<!-- city__JurisdictionalArea&#45;&gt;EntityOperation -->
<!-- EntityOperation&#45;&gt;EntityOwnership -->
<!-- EntityOwnership&#45;&gt;Residence -->
</g>
</svg>
