<?xml version="1.0" encoding="UTF-8" standalone="no"?>
<!DOCTYPE svg PUBLIC "-//W3C//DTD SVG 1.1//EN"
 "http://www.w3.org/Graphics/SVG/1.1/DTD/svg11.dtd">
<!-- Generated by graphviz version 14.0.2 (20251019.1705)
 -->
<!-- Pages: 1 -->
<svg width="637pt" height="477pt"
 viewBox="0.00 0.00 637.00 477.00" xmlns="http://www.w3.org/2000/svg" xmlns:xlink="http://www.w3.org/1999/xlink">
<g id="graph0" class="graph" transform="scale(1 1) rotate(0) translate(4 473)">
<polygon fill="white" stroke="none" points="-4,4 -4,-473 632.5,-473 632.5,4 -4,4"/>
<g id="clust2" class="cluster">
<title>cluster_associated</title>
</g>
<!-- JurisdictionalArea -->
<g id="node1" class="node">
<title>JurisdictionalArea</title>
<g id="a_node1"><a xlink:href="../_counters/City__JurisdictionalArea.md" xlink:title="&lt;TABLE&gt;">
<polygon fill="lightgray" stroke="none" points="243,-369.88 243,-386.12 341,-386.12 341,-369.88 243,-369.88"/>
<text xml:space="preserve" text-anchor="start" x="244" y="-373.73" font-family="Arial" font-size="12.00">JurisdictionalArea</text>
<polygon fill="none" stroke="black" points="242,-368.88 242,-387.12 342,-387.12 342,-368.88 242,-368.88"/>
</a>
</g>
</g>
<!-- JurisdictionalArea&#45;&gt;JurisdictionalArea -->
<g id="edge8" class="edge">
<title>JurisdictionalArea&#45;&gt;JurisdictionalArea</title>
<path fill="none" stroke="black" d="M341.81,-381.31C352.37,-380.98 360,-379.87 360,-378 360,-376.83 357.02,-375.96 352.21,-375.39"/>
<polygon fill="black" stroke="black" points="342.55,-371.23 352.29,-375.4 342.08,-378.21 342.55,-371.23"/>
<text xml:space="preserve" text-anchor="middle" x="432" y="-381.05" font-family="Arial" font-size="11.00"> inverse administrativeAreaOf </text>
<text xml:space="preserve" text-anchor="middle" x="432" y="-367.55" font-family="Arial" font-size="11.00"> «only» &#160;</text>
</g>
<!-- JurisdictionalArea&#45;&gt;JurisdictionalArea -->
<g id="edge9" class="edge">
<title>JurisdictionalArea&#45;&gt;JurisdictionalArea</title>
<path fill="none" stroke="black" d="M341.76,-383.36C405.65,-386.47 504,-384.68 504,-378 504,-371.7 416.48,-369.75 352.92,-372.15"/>
<polygon fill="black" stroke="black" points="353.11,-368.64 343.27,-372.57 353.41,-375.64 353.11,-368.64"/>
<text xml:space="preserve" text-anchor="middle" x="557.25" y="-381.05" font-family="Arial" font-size="11.00"> administrativeAreaOf </text>
<text xml:space="preserve" text-anchor="middle" x="557.25" y="-367.55" font-family="Arial" font-size="11.00"> «only» &#160;</text>
</g>
<!-- CityOntologyThing -->
<g id="node2" class="node">
<title>CityOntologyThing</title>
<g id="a_node2"><a xlink:href="../_counters/City__CityOntologyThing.md" xlink:title="&lt;TABLE&gt;">
<polygon fill="lightgray" stroke="none" points="241.12,-442.88 241.12,-459.12 342.88,-459.12 342.88,-442.88 241.12,-442.88"/>
<text xml:space="preserve" text-anchor="start" x="242.12" y="-446.73" font-family="Arial" font-size="12.00">CityOntologyThing</text>
<polygon fill="none" stroke="black" points="240.12,-441.88 240.12,-460.12 343.88,-460.12 343.88,-441.88 240.12,-441.88"/>
</a>
</g>
</g>
<!-- JurisdictionalArea&#45;&gt;CityOntologyThing -->
<g id="edge1" class="edge">
<title>JurisdictionalArea&#45;&gt;CityOntologyThing</title>
<path fill="none" stroke="black" d="M292,-395.71C292,-403.47 292,-412.92 292,-421.74"/>
<polygon fill="none" stroke="black" points="288.5,-421.66 292,-431.66 295.5,-421.66 288.5,-421.66"/>
</g>
<!-- Invis -->
<!-- JurisdictionalArea&#45;&gt;Invis -->
<!-- bylaw__Bylaw -->
<g id="node4" class="node">
<title>bylaw__Bylaw</title>
<polygon fill="lightgray" stroke="none" points="16.75,-270.88 16.75,-287.12 89.25,-287.12 89.25,-270.88 16.75,-270.88"/>
<text xml:space="preserve" text-anchor="start" x="17.75" y="-274.73" font-family="Arial" font-size="12.00">bylaw::Bylaw</text>
<polygon fill="none" stroke="black" points="15.75,-269.88 15.75,-288.12 90.25,-288.12 90.25,-269.88 15.75,-269.88"/>
</g>
<!-- JurisdictionalArea&#45;&gt;bylaw__Bylaw -->
<g id="edge7" class="edge">
<title>JurisdictionalArea&#45;&gt;bylaw__Bylaw</title>
<path fill="none" stroke="black" d="M242.08,-360.88C240.71,-360.57 239.35,-360.27 238,-360 197.69,-351.78 81.57,-372.3 53.75,-342 45.56,-333.08 44.42,-320.03 45.72,-308.19"/>
<polygon fill="black" stroke="black" points="49.15,-308.91 47.4,-298.46 42.25,-307.72 49.15,-308.91"/>
<text xml:space="preserve" text-anchor="middle" x="96.88" y="-331.55" font-family="Arial" font-size="11.00"> bylaw::hasBylaw </text>
<text xml:space="preserve" text-anchor="middle" x="96.88" y="-318.05" font-family="Arial" font-size="11.00"> «only» &#160;</text>
</g>
<!-- i72__Population -->
<g id="node5" class="node">
<title>i72__Population</title>
<polygon fill="lightgray" stroke="none" points="83.88,-171.88 83.88,-188.12 166.12,-188.12 166.12,-171.88 83.88,-171.88"/>
<text xml:space="preserve" text-anchor="start" x="84.88" y="-175.72" font-family="Arial" font-size="12.00">i72::Population</text>
<polygon fill="none" stroke="black" points="82.88,-170.88 82.88,-189.12 167.12,-189.12 167.12,-170.88 82.88,-170.88"/>
</g>
<!-- JurisdictionalArea&#45;&gt;i72__Population -->
<g id="edge12" class="edge">
<title>JurisdictionalArea&#45;&gt;i72__Population</title>
<path fill="none" stroke="black" d="M250.03,-360.11C209.94,-343.11 153.66,-316.65 140,-297 122.07,-271.21 120.33,-234.23 121.76,-209"/>
<polygon fill="black" stroke="black" points="125.24,-209.42 122.54,-199.17 118.26,-208.87 125.24,-209.42"/>
<text xml:space="preserve" text-anchor="middle" x="210.5" y="-282.05" font-family="Arial" font-size="11.00"> landUse::residentPopulation </text>
<text xml:space="preserve" text-anchor="middle" x="210.5" y="-268.55" font-family="Arial" font-size="11.00"> «max 1» &#160;</text>
</g>
<!-- landUse__LandArea -->
<g id="node6" class="node">
<title>landUse__LandArea</title>
<polygon fill="lightgray" stroke="none" points="72.25,-98.88 72.25,-115.12 177.75,-115.12 177.75,-98.88 72.25,-98.88"/>
<text xml:space="preserve" text-anchor="start" x="73.25" y="-102.72" font-family="Arial" font-size="12.00">landUse::LandArea</text>
<polygon fill="none" stroke="black" points="71.25,-97.88 71.25,-116.12 178.75,-116.12 178.75,-97.88 71.25,-97.88"/>
</g>
<!-- JurisdictionalArea&#45;&gt;landUse__LandArea -->
<g id="edge11" class="edge">
<title>JurisdictionalArea&#45;&gt;landUse__LandArea</title>
<path fill="none" stroke="black" d="M293.87,-360.31C295.76,-336.89 296.49,-293.5 281,-261 254.21,-204.81 197.67,-157.79 160.53,-131.27"/>
<polygon fill="black" stroke="black" points="162.97,-128.71 152.77,-125.85 158.96,-134.45 162.97,-128.71"/>
<text xml:space="preserve" text-anchor="middle" x="328.28" y="-232.55" font-family="Arial" font-size="11.00"> landUse::hasLandArea </text>
<text xml:space="preserve" text-anchor="middle" x="328.28" y="-219.05" font-family="Arial" font-size="11.00"> «only» &#160;</text>
</g>
<!-- organization__GovernmentOrganization -->
<g id="node7" class="node">
<title>organization__GovernmentOrganization</title>
<polygon fill="lightgray" stroke="none" points="17.25,-25.88 17.25,-42.12 224.75,-42.12 224.75,-25.88 17.25,-25.88"/>
<text xml:space="preserve" text-anchor="start" x="18.25" y="-29.73" font-family="Arial" font-size="12.00">organization::GovernmentOrganization</text>
<polygon fill="none" stroke="black" points="16.25,-24.88 16.25,-43.12 225.75,-43.12 225.75,-24.88 16.25,-24.88"/>
</g>
<!-- JurisdictionalArea&#45;&gt;organization__GovernmentOrganization -->
<g id="edge10" class="edge">
<title>JurisdictionalArea&#45;&gt;organization__GovernmentOrganization</title>
<path fill="none" stroke="black" d="M341.9,-363.04C379.99,-348.98 426,-323.08 426,-280 426,-280 426,-280 426,-106 426,-65.57 323.05,-48.15 236.78,-40.66"/>
<polygon fill="black" stroke="black" points="237.3,-37.19 227.05,-39.85 236.72,-44.16 237.3,-37.19"/>
<text xml:space="preserve" text-anchor="middle" x="467.25" y="-183.05" font-family="Arial" font-size="11.00"> hasGovernment </text>
<text xml:space="preserve" text-anchor="middle" x="467.25" y="-169.55" font-family="Arial" font-size="11.00"> «only» &#160;</text>
</g>
<!-- Invis&#45;&gt;bylaw__Bylaw -->
<!-- bylaw__Bylaw&#45;&gt;i72__Population -->
<!-- i72__Population&#45;&gt;landUse__LandArea -->
<!-- landUse__LandArea&#45;&gt;organization__GovernmentOrganization -->
</g>
</svg>
