<?xml version="1.0" encoding="UTF-8" standalone="no"?>
<!DOCTYPE svg PUBLIC "-//W3C//DTD SVG 1.1//EN"
 "http://www.w3.org/Graphics/SVG/1.1/DTD/svg11.dtd">
<!-- Generated by graphviz version 14.0.2 (20251019.1705)
 -->
<!-- Pages: 1 -->
<svg width="248pt" height="232pt"
 viewBox="0.00 0.00 248.00 232.00" xmlns="http://www.w3.org/2000/svg" xmlns:xlink="http://www.w3.org/1999/xlink">
<g id="graph0" class="graph" transform="scale(1 1) rotate(0) translate(4 228)">
<polygon fill="white" stroke="none" points="-4,4 -4,-228 244.41,-228 244.41,4 -4,4"/>
<g id="clust2" class="cluster">
<title>cluster_associated</title>
</g>
<!-- EntityOperation -->
<g id="node1" class="node">
<title>EntityOperation</title>
<g id="a_node1"><a xlink:href="../classes/CityResident__EntityOperation.md" xlink:title="&lt;TABLE&gt;">
<polygon fill="lightgray" stroke="none" points="152.75,-124.88 152.75,-141.12 237.25,-141.12 237.25,-124.88 152.75,-124.88"/>
<text xml:space="preserve" text-anchor="start" x="153.75" y="-128.72" font-family="Arial" font-size="12.00">EntityOperation</text>
<polygon fill="none" stroke="black" points="151.75,-123.88 151.75,-142.12 238.25,-142.12 238.25,-123.88 151.75,-123.88"/>
</a>
</g>
</g>
<!-- ControlledEntity -->
<g id="node2" class="node">
<title>ControlledEntity</title>
<g id="a_node2"><a xlink:href="../_counters/CityResident__ControlledEntity.md" xlink:title="&lt;TABLE&gt;">
<polygon fill="lightgray" stroke="none" points="151.25,-197.88 151.25,-214.12 238.75,-214.12 238.75,-197.88 151.25,-197.88"/>
<text xml:space="preserve" text-anchor="start" x="152.25" y="-201.72" font-family="Arial" font-size="12.00">ControlledEntity</text>
<polygon fill="none" stroke="black" points="150.25,-196.88 150.25,-215.12 239.75,-215.12 239.75,-196.88 150.25,-196.88"/>
</a>
</g>
</g>
<!-- EntityOperation&#45;&gt;ControlledEntity -->
<g id="edge1" class="edge">
<title>EntityOperation&#45;&gt;ControlledEntity</title>
<path fill="none" stroke="black" d="M195,-150.71C195,-158.47 195,-167.92 195,-176.74"/>
<polygon fill="none" stroke="black" points="191.5,-176.66 195,-186.66 198.5,-176.66 191.5,-176.66"/>
</g>
<!-- Invis -->
<!-- EntityOperation&#45;&gt;Invis -->
<!-- cdmOrg__Organization -->
<g id="node4" class="node">
<title>cdmOrg__Organization</title>
<polygon fill="lightgray" stroke="none" points="16.88,-25.88 16.88,-42.12 135.12,-42.12 135.12,-25.88 16.88,-25.88"/>
<text xml:space="preserve" text-anchor="start" x="17.88" y="-29.73" font-family="Arial" font-size="12.00">cdmOrg::Organization</text>
<polygon fill="none" stroke="black" points="15.88,-24.88 15.88,-43.12 136.12,-43.12 136.12,-24.88 15.88,-24.88"/>
</g>
<!-- EntityOperation&#45;&gt;cdmOrg__Organization -->
<g id="edge4" class="edge">
<title>EntityOperation&#45;&gt;cdmOrg__Organization</title>
<path fill="none" stroke="black" stroke-dasharray="5,2" d="M174.27,-115.1C155.16,-99.53 126.6,-76.24 105.18,-58.79"/>
<polygon fill="black" stroke="black" points="107.63,-56.26 97.66,-52.66 103.2,-61.69 107.63,-56.26"/>
<text xml:space="preserve" text-anchor="middle" x="195.03" y="-86.55" font-family="Arial" font-size="11.00"> onProperty: entity </text>
<text xml:space="preserve" text-anchor="middle" x="195.03" y="-73.05" font-family="Arial" font-size="11.00"> «max 1» &#160;</text>
</g>
<!-- Invis&#45;&gt;cdmOrg__Organization -->
</g>
</svg>
