<?xml version="1.0" encoding="UTF-8" standalone="no"?>
<!DOCTYPE svg PUBLIC "-//W3C//DTD SVG 1.1//EN"
 "http://www.w3.org/Graphics/SVG/1.1/DTD/svg11.dtd">
<!-- Generated by graphviz version 14.0.2 (20251019.1705)
 -->
<!-- Pages: 1 -->
<svg width="600pt" height="591pt"
 viewBox="0.00 0.00 600.00 591.00" xmlns="http://www.w3.org/2000/svg" xmlns:xlink="http://www.w3.org/1999/xlink">
<g id="graph0" class="graph" transform="scale(1 1) rotate(0) translate(4 586.75)">
<polygon fill="white" stroke="none" points="-4,4 -4,-586.75 595.5,-586.75 595.5,4 -4,4"/>
<g id="clust2" class="cluster">
<title>cluster_associated</title>
</g>
<!-- Program -->
<g id="node1" class="node">
<title>Program</title>
<g id="a_node1"><a xlink:href="../classes/CityService__Program.md" xlink:title="&lt;TABLE&gt;">
<polygon fill="lightgray" stroke="none" points="106.62,-492.5 106.62,-508.75 349.38,-508.75 349.38,-492.5 106.62,-492.5"/>
<text xml:space="preserve" text-anchor="start" x="205.12" y="-496.35" font-family="Arial" font-size="12.00">Program</text>
<text xml:space="preserve" text-anchor="start" x="107.62" y="-480.1" font-family="Arial" font-size="12.00">genProp::hasDescription: xsd::string «max 1»</text>
<text xml:space="preserve" text-anchor="start" x="107.62" y="-463.85" font-family="Arial" font-size="12.00">genProp::hasName: xsd::string «max 1»</text>
<polygon fill="none" stroke="black" points="105.62,-459 105.62,-509.75 350.38,-509.75 350.38,-459 105.62,-459"/>
</a>
</g>
</g>
<!-- activity__Activity -->
<g id="node2" class="node">
<title>activity__Activity</title>
<polygon fill="lightgray" stroke="none" points="119.5,-556.62 119.5,-572.88 202.5,-572.88 202.5,-556.62 119.5,-556.62"/>
<text xml:space="preserve" text-anchor="start" x="120.5" y="-560.48" font-family="Arial" font-size="12.00">activity::Activity</text>
<polygon fill="none" stroke="black" points="118.5,-555.62 118.5,-573.88 203.5,-573.88 203.5,-555.62 118.5,-555.62"/>
</g>
<!-- Program&#45;&gt;activity__Activity -->
<g id="edge1" class="edge">
<title>Program&#45;&gt;activity__Activity</title>
<path fill="none" stroke="black" d="M207.2,-509.71C199.4,-518.83 190.54,-529.2 182.67,-538.4"/>
<polygon fill="none" stroke="black" points="180.03,-536.1 176.19,-545.98 185.35,-540.65 180.03,-536.1"/>
</g>
<!-- CityServiceOntologyThing -->
<g id="node3" class="node">
<title>CityServiceOntologyThing</title>
<g id="a_node3"><a xlink:href="../_counters/CityService__CityServiceOntologyThing.md" xlink:title="&lt;TABLE&gt;">
<polygon fill="lightgray" stroke="none" points="222.88,-556.62 222.88,-572.88 365.12,-572.88 365.12,-556.62 222.88,-556.62"/>
<text xml:space="preserve" text-anchor="start" x="223.88" y="-560.48" font-family="Arial" font-size="12.00">CityServiceOntologyThing</text>
<polygon fill="none" stroke="black" points="221.88,-555.62 221.88,-573.88 366.12,-573.88 366.12,-555.62 221.88,-555.62"/>
</a>
</g>
</g>
<!-- Program&#45;&gt;CityServiceOntologyThing -->
<g id="edge2" class="edge">
<title>Program&#45;&gt;CityServiceOntologyThing</title>
<path fill="none" stroke="black" d="M248.49,-509.71C256.17,-518.83 264.9,-529.2 272.66,-538.4"/>
<polygon fill="none" stroke="black" points="269.91,-540.58 279.03,-545.97 275.26,-536.07 269.91,-540.58"/>
</g>
<!-- Invis -->
<!-- Program&#45;&gt;Invis -->
<!-- Input -->
<g id="node5" class="node">
<title>Input</title>
<g id="a_node5"><a xlink:href="../_counters/CityService__Input.md" xlink:title="&lt;TABLE&gt;">
<polygon fill="lightgray" stroke="none" points="28.88,-369.88 28.88,-386.12 57.12,-386.12 57.12,-369.88 28.88,-369.88"/>
<text xml:space="preserve" text-anchor="start" x="29.88" y="-373.73" font-family="Arial" font-size="12.00">Input</text>
<polygon fill="none" stroke="black" points="27.88,-368.88 27.88,-387.12 58.12,-387.12 58.12,-368.88 27.88,-368.88"/>
</a>
</g>
</g>
<!-- Program&#45;&gt;Input -->
<g id="edge11" class="edge">
<title>Program&#45;&gt;Input</title>
<path fill="none" stroke="black" d="M106.07,-460.97C75.33,-454.15 49.58,-446.91 44.75,-441 37.13,-431.69 35.83,-418.69 36.78,-407"/>
<polygon fill="black" stroke="black" points="40.2,-407.82 38.13,-397.43 33.27,-406.85 40.2,-407.82"/>
<text xml:space="preserve" text-anchor="middle" x="68.38" y="-430.55" font-family="Arial" font-size="11.00"> hasInput </text>
<text xml:space="preserve" text-anchor="middle" x="68.38" y="-417.05" font-family="Arial" font-size="11.00"> «only» &#160;</text>
</g>
<!-- Outcome -->
<g id="node6" class="node">
<title>Outcome</title>
<g id="a_node6"><a xlink:href="../_counters/CityService__Outcome.md" xlink:title="&lt;TABLE&gt;">
<polygon fill="lightgray" stroke="none" points="32,-270.88 32,-287.12 82,-287.12 82,-270.88 32,-270.88"/>
<text xml:space="preserve" text-anchor="start" x="33" y="-274.73" font-family="Arial" font-size="12.00">Outcome</text>
<polygon fill="none" stroke="black" points="31,-269.88 31,-288.12 83,-288.12 83,-269.88 31,-269.88"/>
</a>
</g>
</g>
<!-- Program&#45;&gt;Outcome -->
<g id="edge12" class="edge">
<title>Program&#45;&gt;Outcome</title>
<path fill="none" stroke="black" d="M191.22,-459.11C168.82,-443.07 140.67,-420.52 120.25,-396 97.47,-368.64 79.06,-331.81 68.1,-307.05"/>
<polygon fill="black" stroke="black" points="71.36,-305.79 64.19,-298 64.94,-308.57 71.36,-305.79"/>
<text xml:space="preserve" text-anchor="middle" x="153.62" y="-381.05" font-family="Arial" font-size="11.00"> hasOutcome </text>
<text xml:space="preserve" text-anchor="middle" x="153.62" y="-367.55" font-family="Arial" font-size="11.00"> «only» &#160;</text>
</g>
<!-- Output -->
<g id="node7" class="node">
<title>Output</title>
<g id="a_node7"><a xlink:href="../_counters/CityService__Output.md" xlink:title="&lt;TABLE&gt;">
<polygon fill="lightgray" stroke="none" points="38.38,-171.88 38.38,-188.12 75.62,-188.12 75.62,-171.88 38.38,-171.88"/>
<text xml:space="preserve" text-anchor="start" x="39.38" y="-175.72" font-family="Arial" font-size="12.00">Output</text>
<polygon fill="none" stroke="black" points="37.38,-170.88 37.38,-189.12 76.62,-189.12 76.62,-170.88 37.38,-170.88"/>
</a>
</g>
</g>
<!-- Program&#45;&gt;Output -->
<g id="edge13" class="edge">
<title>Program&#45;&gt;Output</title>
<path fill="none" stroke="black" d="M223.37,-459.28C217.64,-433.37 206.22,-391.63 187,-360 181.21,-350.46 176.61,-350.6 169.5,-342 132.26,-296.93 94.44,-240.02 73.52,-207.34"/>
<polygon fill="black" stroke="black" points="76.48,-205.47 68.16,-198.9 70.57,-209.22 76.48,-205.47"/>
<text xml:space="preserve" text-anchor="middle" x="197.25" y="-331.55" font-family="Arial" font-size="11.00"> hasOutput </text>
<text xml:space="preserve" text-anchor="middle" x="197.25" y="-318.05" font-family="Arial" font-size="11.00"> «only» &#160;</text>
</g>
<!-- Service -->
<g id="node8" class="node">
<title>Service</title>
<g id="a_node8"><a xlink:href="../_counters/CityService__Service.md" xlink:title="&lt;TABLE&gt;">
<polygon fill="lightgray" stroke="none" points="35.75,-98.88 35.75,-115.12 78.25,-115.12 78.25,-98.88 35.75,-98.88"/>
<text xml:space="preserve" text-anchor="start" x="36.75" y="-102.72" font-family="Arial" font-size="12.00">Service</text>
<polygon fill="none" stroke="black" points="34.75,-97.88 34.75,-116.12 79.25,-116.12 79.25,-97.88 34.75,-97.88"/>
</a>
</g>
</g>
<!-- Program&#45;&gt;Service -->
<g id="edge14" class="edge">
<title>Program&#45;&gt;Service</title>
<path fill="none" stroke="black" d="M232.39,-459.06C237.38,-425.49 242.73,-363.61 225,-315 196.76,-237.59 126.55,-167.73 86.4,-132.36"/>
<polygon fill="black" stroke="black" points="88.83,-129.84 78.98,-125.93 84.24,-135.13 88.83,-129.84"/>
<text xml:space="preserve" text-anchor="middle" x="246.6" y="-282.05" font-family="Arial" font-size="11.00"> hasService </text>
<text xml:space="preserve" text-anchor="middle" x="246.6" y="-268.55" font-family="Arial" font-size="11.00"> «only» &#160;</text>
</g>
<!-- Stakeholder -->
<g id="node9" class="node">
<title>Stakeholder</title>
<g id="a_node9"><a xlink:href="../_counters/CityService__Stakeholder.md" xlink:title="&lt;TABLE&gt;">
<polygon fill="lightgray" stroke="none" points="16.75,-25.88 16.75,-42.12 83.25,-42.12 83.25,-25.88 16.75,-25.88"/>
<text xml:space="preserve" text-anchor="start" x="17.75" y="-29.73" font-family="Arial" font-size="12.00">Stakeholder</text>
<polygon fill="none" stroke="black" points="15.75,-24.88 15.75,-43.12 84.25,-43.12 84.25,-24.88 15.75,-24.88"/>
</a>
</g>
</g>
<!-- Program&#45;&gt;Stakeholder -->
<g id="edge9" class="edge">
<title>Program&#45;&gt;Stakeholder</title>
<path fill="none" stroke="black" d="M257.69,-459.21C277.9,-439.89 301,-410.84 301,-379 301,-379 301,-379 301,-106 301,-63.71 167.42,-45.34 95.15,-38.49"/>
<polygon fill="black" stroke="black" points="95.89,-35.04 85.62,-37.63 95.26,-42.02 95.89,-35.04"/>
<text xml:space="preserve" text-anchor="middle" x="364.75" y="-232.55" font-family="Arial" font-size="11.00"> hasBeneficialStakeholder </text>
<text xml:space="preserve" text-anchor="middle" x="364.75" y="-219.05" font-family="Arial" font-size="11.00"> «only» &#160;</text>
</g>
<!-- Program&#45;&gt;Stakeholder -->
<g id="edge10" class="edge">
<title>Program&#45;&gt;Stakeholder</title>
<path fill="none" stroke="black" d="M350.16,-469.97C402.58,-456.74 452,-430.59 452,-379 452,-379 452,-379 452,-106 452,-70.09 200.09,-46.54 95.09,-38.29"/>
<polygon fill="black" stroke="black" points="95.68,-34.82 85.44,-37.54 95.14,-41.8 95.68,-34.82"/>
<text xml:space="preserve" text-anchor="middle" x="521.75" y="-232.55" font-family="Arial" font-size="11.00"> hasContributingStakeholder </text>
<text xml:space="preserve" text-anchor="middle" x="521.75" y="-219.05" font-family="Arial" font-size="11.00"> «only» &#160;</text>
</g>
<!-- Invis&#45;&gt;Input -->
<!-- Input&#45;&gt;Outcome -->
<!-- Outcome&#45;&gt;Output -->
<!-- Output&#45;&gt;Service -->
<!-- Service&#45;&gt;Stakeholder -->
</g>
</svg>
