<?xml version="1.0" encoding="UTF-8" standalone="no"?>
<!DOCTYPE svg PUBLIC "-//W3C//DTD SVG 1.1//EN"
 "http://www.w3.org/Graphics/SVG/1.1/DTD/svg11.dtd">
<!-- Generated by graphviz version 14.0.2 (20251019.1705)
 -->
<!-- Pages: 1 -->
<svg width="301pt" height="132pt"
 viewBox="0.00 0.00 301.00 132.00" xmlns="http://www.w3.org/2000/svg" xmlns:xlink="http://www.w3.org/1999/xlink">
<g id="graph0" class="graph" transform="scale(1 1) rotate(0) translate(4 128)">
<polygon fill="white" stroke="none" points="-4,4 -4,-128 296.88,-128 296.88,4 -4,4"/>
<g id="clust2" class="cluster">
<title>cluster_associated</title>
</g>
<!-- City -->
<g id="node1" class="node">
<title>City</title>
<g id="a_node1"><a xlink:href="../classes/City__City.md" xlink:title="&lt;TABLE&gt;">
<polygon fill="lightgray" stroke="none" points="19.75,-34 19.75,-50.25 204,-50.25 204,-34 19.75,-34"/>
<text xml:space="preserve" text-anchor="start" x="101.38" y="-37.85" font-family="Arial" font-size="12.00">City</text>
<text xml:space="preserve" text-anchor="start" x="20.75" y="-21.6" font-family="Arial" font-size="12.00">legalName: xsd::string «exactly 1»</text>
<polygon fill="none" stroke="black" points="18.75,-16.75 18.75,-51.25 205,-51.25 205,-16.75 18.75,-16.75"/>
</a>
</g>
</g>
<!-- CityOntologyThing -->
<g id="node2" class="node">
<title>CityOntologyThing</title>
<g id="a_node2"><a xlink:href="../_counters/City__CityOntologyThing.md" xlink:title="&lt;TABLE&gt;">
<polygon fill="lightgray" stroke="none" points="1,-97.88 1,-114.12 102.75,-114.12 102.75,-97.88 1,-97.88"/>
<text xml:space="preserve" text-anchor="start" x="2" y="-101.72" font-family="Arial" font-size="12.00">CityOntologyThing</text>
<polygon fill="none" stroke="black" points="0,-96.88 0,-115.12 103.75,-115.12 103.75,-96.88 0,-96.88"/>
</a>
</g>
</g>
<!-- City&#45;&gt;CityOntologyThing -->
<g id="edge1" class="edge">
<title>City&#45;&gt;CityOntologyThing</title>
<path fill="none" stroke="black" d="M97.48,-51.79C90.36,-60.11 81.6,-70.32 73.67,-79.58"/>
<polygon fill="none" stroke="black" points="71.23,-77.04 67.38,-86.91 76.55,-81.59 71.23,-77.04"/>
</g>
<!-- JurisdictionalArea -->
<g id="node3" class="node">
<title>JurisdictionalArea</title>
<g id="a_node3"><a xlink:href="../_counters/City__JurisdictionalArea.md" xlink:title="&lt;TABLE&gt;">
<polygon fill="lightgray" stroke="none" points="122.88,-97.88 122.88,-114.12 220.88,-114.12 220.88,-97.88 122.88,-97.88"/>
<text xml:space="preserve" text-anchor="start" x="123.88" y="-101.72" font-family="Arial" font-size="12.00">JurisdictionalArea</text>
<polygon fill="none" stroke="black" points="121.88,-96.88 121.88,-115.12 221.88,-115.12 221.88,-96.88 121.88,-96.88"/>
</a>
</g>
</g>
<!-- City&#45;&gt;JurisdictionalArea -->
<g id="edge2" class="edge">
<title>City&#45;&gt;JurisdictionalArea</title>
<path fill="none" stroke="black" d="M126.27,-51.79C133.39,-60.11 142.15,-70.32 150.08,-79.58"/>
<polygon fill="none" stroke="black" points="147.2,-81.59 156.37,-86.91 152.52,-77.04 147.2,-81.59"/>
</g>
<!-- Invis -->
</g>
</svg>
