<?xml version="1.0" encoding="UTF-8" standalone="no"?>
<!DOCTYPE svg PUBLIC "-//W3C//DTD SVG 1.1//EN"
 "http://www.w3.org/Graphics/SVG/1.1/DTD/svg11.dtd">
<!-- Generated by graphviz version 14.0.2 (20251019.1705)
 -->
<!-- Pages: 1 -->
<svg width="474pt" height="263pt"
 viewBox="0.00 0.00 474.00 263.00" xmlns="http://www.w3.org/2000/svg" xmlns:xlink="http://www.w3.org/1999/xlink">
<g id="graph0" class="graph" transform="scale(1 1) rotate(0) translate(4 259)">
<polygon fill="white" stroke="none" points="-4,4 -4,-259 470.12,-259 470.12,4 -4,4"/>
<g id="clust2" class="cluster">
<title>cluster_associated</title>
</g>
<!-- Code -->
<g id="node1" class="node">
<title>Code</title>
<g id="a_node1"><a xlink:href="../classes/Code__Code.md" xlink:title="&lt;TABLE&gt;">
<polygon fill="lightgray" stroke="none" points="184.88,-164.75 184.88,-181 465.12,-181 465.12,-164.75 184.88,-164.75"/>
<text xml:space="preserve" text-anchor="start" x="310.38" y="-168.6" font-family="Arial" font-size="12.00">Code</text>
<text xml:space="preserve" text-anchor="start" x="185.88" y="-152.35" font-family="Arial" font-size="12.00">genericproperties::hasDescription: xsd::string «only»</text>
<text xml:space="preserve" text-anchor="start" x="185.88" y="-136.1" font-family="Arial" font-size="12.00">genericproperties::hasIdentifier: xsd::string «max 1»</text>
<text xml:space="preserve" text-anchor="start" x="185.88" y="-119.85" font-family="Arial" font-size="12.00">genericproperties::hasName: xsd::string «only»</text>
<polygon fill="none" stroke="black" points="183.88,-115 183.88,-182 466.12,-182 466.12,-115 183.88,-115"/>
</a>
</g>
</g>
<!-- CodeOntologyThing -->
<g id="node2" class="node">
<title>CodeOntologyThing</title>
<g id="a_node2"><a xlink:href="../_counters/Code__CodeOntologyThing.md" xlink:title="&lt;TABLE&gt;">
<polygon fill="lightgray" stroke="none" points="270,-228.88 270,-245.12 380,-245.12 380,-228.88 270,-228.88"/>
<text xml:space="preserve" text-anchor="start" x="271" y="-232.72" font-family="Arial" font-size="12.00">CodeOntologyThing</text>
<polygon fill="none" stroke="black" points="269,-227.88 269,-246.12 381,-246.12 381,-227.88 269,-227.88"/>
</a>
</g>
</g>
<!-- Code&#45;&gt;CodeOntologyThing -->
<g id="edge1" class="edge">
<title>Code&#45;&gt;CodeOntologyThing</title>
<path fill="none" stroke="black" d="M325,-181.89C325,-190.45 325,-199.62 325,-207.93"/>
<polygon fill="none" stroke="black" points="321.5,-207.81 325,-217.81 328.5,-207.81 321.5,-207.81"/>
</g>
<!-- Invis -->
<!-- Code&#45;&gt;Invis -->
<!-- cdmOrgStruct__Organization -->
<g id="node4" class="node">
<title>cdmOrgStruct__Organization</title>
<polygon fill="lightgray" stroke="none" points="17.5,-25.88 17.5,-42.12 166.5,-42.12 166.5,-25.88 17.5,-25.88"/>
<text xml:space="preserve" text-anchor="start" x="18.5" y="-29.73" font-family="Arial" font-size="12.00">cdmOrgStruct::Organization</text>
<polygon fill="none" stroke="black" points="16.5,-24.88 16.5,-43.12 167.5,-43.12 167.5,-24.88 16.5,-24.88"/>
</g>
<!-- Code&#45;&gt;cdmOrgStruct__Organization -->
<g id="edge4" class="edge">
<title>Code&#45;&gt;cdmOrgStruct__Organization</title>
<path fill="none" stroke="black" d="M257.92,-115.11C219.18,-96.4 171.48,-73.38 137.19,-56.82"/>
<polygon fill="black" stroke="black" points="138.89,-53.75 128.36,-52.56 135.84,-60.06 138.89,-53.75"/>
<text xml:space="preserve" text-anchor="middle" x="242.49" y="-86.55" font-family="Arial" font-size="11.00"> definedBy </text>
<text xml:space="preserve" text-anchor="middle" x="242.49" y="-73.05" font-family="Arial" font-size="11.00"> «max 1» &#160;</text>
</g>
<!-- Invis&#45;&gt;cdmOrgStruct__Organization -->
</g>
</svg>
