<?xml version="1.0" encoding="UTF-8" standalone="no"?>
<!DOCTYPE svg PUBLIC "-//W3C//DTD SVG 1.1//EN"
 "http://www.w3.org/Graphics/SVG/1.1/DTD/svg11.dtd">
<!-- Generated by graphviz version 14.0.2 (20251019.1705)
 -->
<!-- Pages: 1 -->
<svg width="165pt" height="132pt"
 viewBox="0.00 0.00 165.00 132.00" xmlns="http://www.w3.org/2000/svg" xmlns:xlink="http://www.w3.org/1999/xlink">
<g id="graph0" class="graph" transform="scale(1 1) rotate(0) translate(4 128)">
<polygon fill="white" stroke="none" points="-4,4 -4,-128 161,-128 161,4 -4,4"/>
<g id="clust2" class="cluster">
<title>cluster_associated</title>
</g>
<!-- StreetType -->
<g id="node1" class="node">
<title>StreetType</title>
<g id="a_node1"><a xlink:href="../classes/Contact__StreetType.md" xlink:title="&lt;TABLE&gt;">
<polygon fill="lightgray" stroke="none" points="8.12,-25.88 8.12,-42.12 67.88,-42.12 67.88,-25.88 8.12,-25.88"/>
<text xml:space="preserve" text-anchor="start" x="9.12" y="-29.73" font-family="Arial" font-size="12.00">StreetType</text>
<polygon fill="none" stroke="black" points="7.12,-24.88 7.12,-43.12 68.88,-43.12 68.88,-24.88 7.12,-24.88"/>
</a>
</g>
</g>
<!-- ContactThing -->
<g id="node2" class="node">
<title>ContactThing</title>
<g id="a_node2"><a xlink:href="../_counters/Contact__ContactThing.md" xlink:title="&lt;TABLE&gt;">
<polygon fill="lightgray" stroke="none" points="1,-97.88 1,-114.12 75,-114.12 75,-97.88 1,-97.88"/>
<text xml:space="preserve" text-anchor="start" x="2" y="-101.72" font-family="Arial" font-size="12.00">ContactThing</text>
<polygon fill="none" stroke="black" points="0,-96.88 0,-115.12 76,-115.12 76,-96.88 0,-96.88"/>
</a>
</g>
</g>
<!-- StreetType&#45;&gt;ContactThing -->
<g id="edge1" class="edge">
<title>StreetType&#45;&gt;ContactThing</title>
<path fill="none" stroke="black" d="M38,-51.79C38,-59.25 38,-68.24 38,-76.69"/>
<polygon fill="none" stroke="black" points="34.5,-76.54 38,-86.54 41.5,-76.54 34.5,-76.54"/>
</g>
<!-- Invis -->
</g>
</svg>
