<?xml version="1.0" encoding="UTF-8" standalone="no"?>
<!DOCTYPE svg PUBLIC "-//W3C//DTD SVG 1.1//EN"
 "http://www.w3.org/Graphics/SVG/1.1/DTD/svg11.dtd">
<!-- Generated by graphviz version 14.0.2 (20251019.1705)
 -->
<!-- Pages: 1 -->
<svg width="232pt" height="132pt"
 viewBox="0.00 0.00 232.00 132.00" xmlns="http://www.w3.org/2000/svg" xmlns:xlink="http://www.w3.org/1999/xlink">
<g id="graph0" class="graph" transform="scale(1 1) rotate(0) translate(4 128)">
<polygon fill="white" stroke="none" points="-4,4 -4,-128 228.38,-128 228.38,4 -4,4"/>
<g id="clust2" class="cluster">
<title>cluster_associated</title>
</g>
<!-- Work Telephone Number -->
<g id="node1" class="node">
<title>Work Telephone Number</title>
<g id="a_node1"><a xlink:href="../classes/Contact__Work Telephone Number.md" xlink:title="&lt;TABLE&gt;">
<polygon fill="lightgray" stroke="none" points="1,-25.88 1,-42.12 135.75,-42.12 135.75,-25.88 1,-25.88"/>
<text xml:space="preserve" text-anchor="start" x="2" y="-29.73" font-family="Arial" font-size="12.00">Work Telephone Number</text>
<polygon fill="none" stroke="black" points="0,-24.88 0,-43.12 136.75,-43.12 136.75,-24.88 0,-24.88"/>
</a>
</g>
</g>
<!-- PhoneNumber -->
<g id="node2" class="node">
<title>PhoneNumber</title>
<g id="a_node2"><a xlink:href="../_counters/Contact__PhoneNumber.md" xlink:title="&lt;TABLE&gt;">
<polygon fill="lightgray" stroke="none" points="28.38,-97.88 28.38,-114.12 108.38,-114.12 108.38,-97.88 28.38,-97.88"/>
<text xml:space="preserve" text-anchor="start" x="29.38" y="-101.72" font-family="Arial" font-size="12.00">PhoneNumber</text>
<polygon fill="none" stroke="black" points="27.38,-96.88 27.38,-115.12 109.38,-115.12 109.38,-96.88 27.38,-96.88"/>
</a>
</g>
</g>
<!-- Work Telephone Number&#45;&gt;PhoneNumber -->
<g id="edge1" class="edge">
<title>Work Telephone Number&#45;&gt;PhoneNumber</title>
<path fill="none" stroke="black" d="M68.38,-51.79C68.38,-59.25 68.38,-68.24 68.38,-76.69"/>
<polygon fill="none" stroke="black" points="64.88,-76.54 68.38,-86.54 71.88,-76.54 64.88,-76.54"/>
</g>
<!-- Invis -->
</g>
</svg>
