<?xml version="1.0" encoding="UTF-8" standalone="no"?>
<!DOCTYPE svg PUBLIC "-//W3C//DTD SVG 1.1//EN"
 "http://www.w3.org/Graphics/SVG/1.1/DTD/svg11.dtd">
<!-- Generated by graphviz version 14.0.2 (20251019.1705)
 -->
<!-- Pages: 1 -->
<svg width="593pt" height="909pt"
 viewBox="0.00 0.00 593.00 909.00" xmlns="http://www.w3.org/2000/svg" xmlns:xlink="http://www.w3.org/1999/xlink">
<g id="graph0" class="graph" transform="scale(1 1) rotate(0) translate(4 905)">
<polygon fill="white" stroke="none" points="-4,4 -4,-905 588.75,-905 588.75,4 -4,4"/>
<g id="clust2" class="cluster">
<title>cluster_associated</title>
</g>
<!-- Address -->
<g id="node1" class="node">
<title>Address</title>
<g id="a_node1"><a xlink:href="../classes/Contact__Address.md" xlink:title="&lt;TABLE&gt;">
<polygon fill="lightgray" stroke="none" points="142.88,-810.75 142.88,-827 423.12,-827 423.12,-810.75 142.88,-810.75"/>
<text xml:space="preserve" text-anchor="start" x="260.88" y="-814.6" font-family="Arial" font-size="12.00">Address</text>
<text xml:space="preserve" text-anchor="start" x="143.88" y="-798.35" font-family="Arial" font-size="12.00">hasBuilding: xsd::string «max 1»</text>
<text xml:space="preserve" text-anchor="start" x="143.88" y="-782.1" font-family="Arial" font-size="12.00">hasCitySection: xsd::string «max 1»</text>
<text xml:space="preserve" text-anchor="start" x="143.88" y="-765.85" font-family="Arial" font-size="12.00">hasPostalBox: xsd::string «max 1»</text>
<text xml:space="preserve" text-anchor="start" x="143.88" y="-749.6" font-family="Arial" font-size="12.00">hasPostalCode: xsd::string «max 1»</text>
<text xml:space="preserve" text-anchor="start" x="143.88" y="-733.35" font-family="Arial" font-size="12.00">hasStreet: xsd::string «max 1»</text>
<text xml:space="preserve" text-anchor="start" x="143.88" y="-717.1" font-family="Arial" font-size="12.00">hasStreetNumber: xsd::string «max 1»</text>
<text xml:space="preserve" text-anchor="start" x="143.88" y="-700.85" font-family="Arial" font-size="12.00">hasUnitNumber: xsd::string «max 1»</text>
<text xml:space="preserve" text-anchor="start" x="143.88" y="-684.6" font-family="Arial" font-size="12.00">maxStreetNumber: xsd::string «max 1»</text>
<text xml:space="preserve" text-anchor="start" x="143.88" y="-668.35" font-family="Arial" font-size="12.00">minStreetNumber: xsd::nonNegativeInteger «max 1»</text>
<text xml:space="preserve" text-anchor="start" x="143.88" y="-652.1" font-family="Arial" font-size="12.00">wgs84::lat: xsd::decimal «max 1»</text>
<text xml:space="preserve" text-anchor="start" x="143.88" y="-635.85" font-family="Arial" font-size="12.00">wgs84::long: xsd::decimal «max 1»</text>
<polygon fill="none" stroke="black" points="141.88,-631 141.88,-828 424.12,-828 424.12,-631 141.88,-631"/>
</a>
</g>
</g>
<!-- ContactThing -->
<g id="node2" class="node">
<title>ContactThing</title>
<g id="a_node2"><a xlink:href="../_counters/Contact__ContactThing.md" xlink:title="&lt;TABLE&gt;">
<polygon fill="lightgray" stroke="none" points="246,-874.88 246,-891.12 320,-891.12 320,-874.88 246,-874.88"/>
<text xml:space="preserve" text-anchor="start" x="247" y="-878.73" font-family="Arial" font-size="12.00">ContactThing</text>
<polygon fill="none" stroke="black" points="245,-873.88 245,-892.12 321,-892.12 321,-873.88 245,-873.88"/>
</a>
</g>
</g>
<!-- Address&#45;&gt;ContactThing -->
<g id="edge1" class="edge">
<title>Address&#45;&gt;ContactThing</title>
<path fill="none" stroke="black" d="M283,-827.86C283,-837.16 283,-845.99 283,-853.72"/>
<polygon fill="none" stroke="black" points="279.5,-853.69 283,-863.69 286.5,-853.69 279.5,-853.69"/>
</g>
<!-- Invis -->
<!-- Address&#45;&gt;Invis -->
<!-- AddressType -->
<g id="node4" class="node">
<title>AddressType</title>
<g id="a_node4"><a xlink:href="../_counters/Contact__AddressType.md" xlink:title="&lt;TABLE&gt;">
<polygon fill="lightgray" stroke="none" points="16.75,-541.88 16.75,-558.12 89.25,-558.12 89.25,-541.88 16.75,-541.88"/>
<text xml:space="preserve" text-anchor="start" x="17.75" y="-545.73" font-family="Arial" font-size="12.00">AddressType</text>
<polygon fill="none" stroke="black" points="15.75,-540.88 15.75,-559.12 90.25,-559.12 90.25,-540.88 15.75,-540.88"/>
</a>
</g>
</g>
<!-- Address&#45;&gt;AddressType -->
<g id="edge10" class="edge">
<title>Address&#45;&gt;AddressType</title>
<path fill="none" stroke="black" d="M142.19,-632.82C140.79,-632.2 139.4,-631.59 138,-631 102.75,-616.05 78.01,-642.62 53.75,-613 46.13,-603.69 45.02,-590.7 46.19,-579.01"/>
<polygon fill="black" stroke="black" points="49.59,-579.86 47.72,-569.43 42.68,-578.75 49.59,-579.86"/>
<text xml:space="preserve" text-anchor="middle" x="96.88" y="-602.55" font-family="Arial" font-size="11.00"> hasAddressType </text>
<text xml:space="preserve" text-anchor="middle" x="96.88" y="-589.05" font-family="Arial" font-size="11.00"> «only» &#160;</text>
</g>
<!-- city__City -->
<g id="node5" class="node">
<title>city__City</title>
<polygon fill="lightgray" stroke="none" points="60.5,-442.88 60.5,-459.12 107.5,-459.12 107.5,-442.88 60.5,-442.88"/>
<text xml:space="preserve" text-anchor="start" x="61.5" y="-446.73" font-family="Arial" font-size="12.00">city::City</text>
<polygon fill="none" stroke="black" points="59.5,-441.88 59.5,-460.12 108.5,-460.12 108.5,-441.88 59.5,-441.88"/>
</g>
<!-- Address&#45;&gt;city__City -->
<g id="edge12" class="edge">
<title>Address&#45;&gt;city__City</title>
<path fill="none" stroke="black" d="M188.25,-631.01C171.05,-610.98 154.05,-589.44 139.75,-568 120.8,-539.6 104.61,-503.78 94.64,-479.51"/>
<polygon fill="black" stroke="black" points="97.92,-478.3 90.94,-470.33 91.43,-480.91 97.92,-478.3"/>
<text xml:space="preserve" text-anchor="middle" x="164.88" y="-553.05" font-family="Arial" font-size="11.00"> hasCity </text>
<text xml:space="preserve" text-anchor="middle" x="164.88" y="-539.55" font-family="Arial" font-size="11.00"> «max 1» &#160;</text>
</g>
<!-- Country -->
<g id="node6" class="node">
<title>Country</title>
<g id="a_node6"><a xlink:href="../_counters/Contact__Country.md" xlink:title="&lt;TABLE&gt;">
<polygon fill="lightgray" stroke="none" points="62,-343.88 62,-360.12 106,-360.12 106,-343.88 62,-343.88"/>
<text xml:space="preserve" text-anchor="start" x="63" y="-347.73" font-family="Arial" font-size="12.00">Country</text>
<polygon fill="none" stroke="black" points="61,-342.88 61,-361.12 107,-361.12 107,-342.88 61,-342.88"/>
</a>
</g>
</g>
<!-- Address&#45;&gt;Country -->
<g id="edge13" class="edge">
<title>Address&#45;&gt;Country</title>
<path fill="none" stroke="black" d="M236.6,-631.16C233.68,-625.02 230.8,-618.92 228,-613 211.01,-577.05 215.81,-562.25 190,-532 180.76,-521.17 172.85,-524.74 163.5,-514 153.99,-503.08 116.4,-423.18 96.5,-380.2"/>
<polygon fill="black" stroke="black" points="99.74,-378.87 92.37,-371.26 93.39,-381.8 99.74,-378.87"/>
<text xml:space="preserve" text-anchor="middle" x="194.25" y="-503.55" font-family="Arial" font-size="11.00"> hasCountry </text>
<text xml:space="preserve" text-anchor="middle" x="194.25" y="-490.05" font-family="Arial" font-size="11.00"> «max 1» &#160;</text>
</g>
<!-- spatialLoc__Location -->
<g id="node7" class="node">
<title>spatialLoc__Location</title>
<polygon fill="lightgray" stroke="none" points="16.75,-244.88 16.75,-261.12 125.25,-261.12 125.25,-244.88 16.75,-244.88"/>
<text xml:space="preserve" text-anchor="start" x="17.75" y="-248.72" font-family="Arial" font-size="12.00">spatialLoc::Location</text>
<polygon fill="none" stroke="black" points="15.75,-243.88 15.75,-262.12 126.25,-262.12 126.25,-243.88 15.75,-243.88"/>
</g>
<!-- Address&#45;&gt;spatialLoc__Location -->
<g id="edge11" class="edge">
<title>Address&#45;&gt;spatialLoc__Location</title>
<path fill="none" stroke="black" d="M267.64,-631.1C258.53,-586.07 244.8,-532.58 225,-487 206.17,-443.65 126.72,-331.22 89.89,-280.05"/>
<polygon fill="black" stroke="black" points="92.9,-278.24 84.21,-272.18 87.23,-282.34 92.9,-278.24"/>
<text xml:space="preserve" text-anchor="middle" x="274.31" y="-454.05" font-family="Arial" font-size="11.00"> spatialLoc::hasLocation </text>
<text xml:space="preserve" text-anchor="middle" x="274.31" y="-440.55" font-family="Arial" font-size="11.00"> «max 1» &#160;</text>
</g>
<!-- State -->
<g id="node8" class="node">
<title>State</title>
<g id="a_node8"><a xlink:href="../_counters/Contact__State.md" xlink:title="&lt;TABLE&gt;">
<polygon fill="lightgray" stroke="none" points="69.12,-171.88 69.12,-188.12 98.88,-188.12 98.88,-171.88 69.12,-171.88"/>
<text xml:space="preserve" text-anchor="start" x="70.12" y="-175.72" font-family="Arial" font-size="12.00">State</text>
<polygon fill="none" stroke="black" points="68.12,-170.88 68.12,-189.12 99.88,-189.12 99.88,-170.88 68.12,-170.88"/>
</a>
</g>
</g>
<!-- Address&#45;&gt;State -->
<g id="edge14" class="edge">
<title>Address&#45;&gt;State</title>
<path fill="none" stroke="black" d="M329.85,-631.29C351.81,-571.06 366.74,-493.86 334,-433 327.12,-420.22 317.88,-424.32 306.75,-415 301.28,-410.42 163.76,-265.27 107.58,-205.92"/>
<polygon fill="black" stroke="black" points="110.36,-203.77 100.95,-198.91 105.28,-208.58 110.36,-203.77"/>
<text xml:space="preserve" text-anchor="middle" x="339.38" y="-404.55" font-family="Arial" font-size="11.00"> hasProvince </text>
<text xml:space="preserve" text-anchor="middle" x="339.38" y="-391.05" font-family="Arial" font-size="11.00"> «max 1» &#160;</text>
</g>
<!-- StreetDirection -->
<g id="node9" class="node">
<title>StreetDirection</title>
<g id="a_node9"><a xlink:href="../_counters/Contact__StreetDirection.md" xlink:title="&lt;TABLE&gt;">
<polygon fill="lightgray" stroke="none" points="43.25,-98.88 43.25,-115.12 124.75,-115.12 124.75,-98.88 43.25,-98.88"/>
<text xml:space="preserve" text-anchor="start" x="44.25" y="-102.72" font-family="Arial" font-size="12.00">StreetDirection</text>
<polygon fill="none" stroke="black" points="42.25,-97.88 42.25,-116.12 125.75,-116.12 125.75,-97.88 42.25,-97.88"/>
</a>
</g>
</g>
<!-- Address&#45;&gt;StreetDirection -->
<g id="edge15" class="edge">
<title>Address&#45;&gt;StreetDirection</title>
<path fill="none" stroke="black" d="M362.88,-631.17C376.32,-606.47 386,-578.97 386,-551 386,-551 386,-551 386,-179 386,-128.47 223.78,-113.87 137.12,-109.68"/>
<polygon fill="black" stroke="black" points="137.33,-106.18 127.19,-109.23 137.02,-113.17 137.33,-106.18"/>
<text xml:space="preserve" text-anchor="middle" x="433.62" y="-355.05" font-family="Arial" font-size="11.00"> hasStreetDirection </text>
<text xml:space="preserve" text-anchor="middle" x="433.62" y="-341.55" font-family="Arial" font-size="11.00"> «max 1» &#160;</text>
</g>
<!-- StreetType -->
<g id="node10" class="node">
<title>StreetType</title>
<g id="a_node10"><a xlink:href="../_counters/Contact__StreetType.md" xlink:title="&lt;TABLE&gt;">
<polygon fill="lightgray" stroke="none" points="60.12,-25.88 60.12,-42.12 119.88,-42.12 119.88,-25.88 60.12,-25.88"/>
<text xml:space="preserve" text-anchor="start" x="61.12" y="-29.73" font-family="Arial" font-size="12.00">StreetType</text>
<polygon fill="none" stroke="black" points="59.12,-24.88 59.12,-43.12 120.88,-43.12 120.88,-24.88 59.12,-24.88"/>
</a>
</g>
</g>
<!-- Address&#45;&gt;StreetType -->
<g id="edge16" class="edge">
<title>Address&#45;&gt;StreetType</title>
<path fill="none" stroke="black" d="M423.88,-672.16C469.7,-643.96 509,-604.26 509,-551 509,-551 509,-551 509,-106 509,-68.04 238.25,-45.23 132.04,-37.74"/>
<polygon fill="black" stroke="black" points="132.54,-34.27 122.32,-37.07 132.05,-41.25 132.54,-34.27"/>
<text xml:space="preserve" text-anchor="middle" x="546.88" y="-305.55" font-family="Arial" font-size="11.00"> hasStreetType </text>
<text xml:space="preserve" text-anchor="middle" x="546.88" y="-292.05" font-family="Arial" font-size="11.00"> «max 1» &#160;</text>
</g>
<!-- Invis&#45;&gt;AddressType -->
<!-- AddressType&#45;&gt;city__City -->
<!-- city__City&#45;&gt;Country -->
<!-- Country&#45;&gt;spatialLoc__Location -->
<!-- spatialLoc__Location&#45;&gt;State -->
<!-- State&#45;&gt;StreetDirection -->
<!-- StreetDirection&#45;&gt;StreetType -->
</g>
</svg>
