<?xml version="1.0" encoding="UTF-8" standalone="no"?>
<!DOCTYPE svg PUBLIC "-//W3C//DTD SVG 1.1//EN"
 "http://www.w3.org/Graphics/SVG/1.1/DTD/svg11.dtd">
<!-- Generated by graphviz version 14.0.2 (20251019.1705)
 -->
<!-- Pages: 1 -->
<svg width="193pt" height="232pt"
 viewBox="0.00 0.00 193.00 232.00" xmlns="http://www.w3.org/2000/svg" xmlns:xlink="http://www.w3.org/1999/xlink">
<g id="graph0" class="graph" transform="scale(1 1) rotate(0) translate(4 228)">
<polygon fill="white" stroke="none" points="-4,4 -4,-228 188.7,-228 188.7,4 -4,4"/>
<g id="clust2" class="cluster">
<title>cluster_associated</title>
</g>
<!-- Street Type -->
<g id="node1" class="node">
<title>Street Type</title>
<g id="a_node1"><a xlink:href="../classes/Contact__Street Type.md" xlink:title="&lt;TABLE&gt;">
<polygon fill="lightgray" stroke="none" points="109.62,-124.88 109.62,-141.12 172.38,-141.12 172.38,-124.88 109.62,-124.88"/>
<text xml:space="preserve" text-anchor="start" x="110.62" y="-128.72" font-family="Arial" font-size="12.00">Street Type</text>
<polygon fill="none" stroke="black" points="108.62,-123.88 108.62,-142.12 173.38,-142.12 173.38,-123.88 108.62,-123.88"/>
</a>
</g>
</g>
<!-- ContactThing -->
<g id="node2" class="node">
<title>ContactThing</title>
<g id="a_node2"><a xlink:href="../_counters/Contact__ContactThing.md" xlink:title="&lt;TABLE&gt;">
<polygon fill="lightgray" stroke="none" points="104,-197.88 104,-214.12 178,-214.12 178,-197.88 104,-197.88"/>
<text xml:space="preserve" text-anchor="start" x="105" y="-201.72" font-family="Arial" font-size="12.00">ContactThing</text>
<polygon fill="none" stroke="black" points="103,-196.88 103,-215.12 179,-215.12 179,-196.88 103,-196.88"/>
</a>
</g>
</g>
<!-- Street Type&#45;&gt;ContactThing -->
<g id="edge1" class="edge">
<title>Street Type&#45;&gt;ContactThing</title>
<path fill="none" stroke="black" d="M141,-150.71C141,-158.47 141,-167.92 141,-176.74"/>
<polygon fill="none" stroke="black" points="137.5,-176.66 141,-186.66 144.5,-176.66 137.5,-176.66"/>
</g>
<!-- Invis -->
<!-- Street Type&#45;&gt;Invis -->
<!-- code__Code -->
<g id="node4" class="node">
<title>code__Code</title>
<polygon fill="lightgray" stroke="none" points="17.25,-25.88 17.25,-42.12 80.75,-42.12 80.75,-25.88 17.25,-25.88"/>
<text xml:space="preserve" text-anchor="start" x="18.25" y="-29.73" font-family="Arial" font-size="12.00">code::Code</text>
<polygon fill="none" stroke="black" points="16.25,-24.88 16.25,-43.12 81.75,-43.12 81.75,-24.88 16.25,-24.88"/>
</g>
<!-- Street Type&#45;&gt;code__Code -->
<g id="edge4" class="edge">
<title>Street Type&#45;&gt;code__Code</title>
<path fill="none" stroke="black" d="M124.97,-115.1C110.46,-99.8 88.9,-77.07 72.45,-59.73"/>
<polygon fill="black" stroke="black" points="75.3,-57.65 65.88,-52.8 70.23,-62.46 75.3,-57.65"/>
<text xml:space="preserve" text-anchor="middle" x="145.32" y="-86.55" font-family="Arial" font-size="11.00"> code::hasCode </text>
<text xml:space="preserve" text-anchor="middle" x="145.32" y="-73.05" font-family="Arial" font-size="11.00"> «only» &#160;</text>
</g>
<!-- Invis&#45;&gt;code__Code -->
</g>
</svg>
