<?xml version="1.0" encoding="UTF-8" standalone="no"?>
<!DOCTYPE svg PUBLIC "-//W3C//DTD SVG 1.1//EN"
 "http://www.w3.org/Graphics/SVG/1.1/DTD/svg11.dtd">
<!-- Generated by graphviz version 14.0.2 (20251019.1705)
 -->
<!-- Pages: 1 -->
<svg width="190pt" height="132pt"
 viewBox="0.00 0.00 190.00 132.00" xmlns="http://www.w3.org/2000/svg" xmlns:xlink="http://www.w3.org/1999/xlink">
<g id="graph0" class="graph" transform="scale(1 1) rotate(0) translate(4 128)">
<polygon fill="white" stroke="none" points="-4,4 -4,-128 185.62,-128 185.62,4 -4,4"/>
<g id="clust2" class="cluster">
<title>cluster_associated</title>
</g>
<!-- Cottage Address -->
<g id="node1" class="node">
<title>Cottage Address</title>
<g id="a_node1"><a xlink:href="../classes/Contact__Cottage Address.md" xlink:title="&lt;TABLE&gt;">
<polygon fill="lightgray" stroke="none" points="1,-25.88 1,-42.12 92.25,-42.12 92.25,-25.88 1,-25.88"/>
<text xml:space="preserve" text-anchor="start" x="2" y="-29.73" font-family="Arial" font-size="12.00">Cottage Address</text>
<polygon fill="none" stroke="black" points="0,-24.88 0,-43.12 93.25,-43.12 93.25,-24.88 0,-24.88"/>
</a>
</g>
</g>
<!-- Address -->
<g id="node2" class="node">
<title>Address</title>
<g id="a_node2"><a xlink:href="../_counters/Contact__Address.md" xlink:title="&lt;TABLE&gt;">
<polygon fill="lightgray" stroke="none" points="23.5,-97.88 23.5,-114.12 69.75,-114.12 69.75,-97.88 23.5,-97.88"/>
<text xml:space="preserve" text-anchor="start" x="24.5" y="-101.72" font-family="Arial" font-size="12.00">Address</text>
<polygon fill="none" stroke="black" points="22.5,-96.88 22.5,-115.12 70.75,-115.12 70.75,-96.88 22.5,-96.88"/>
</a>
</g>
</g>
<!-- Cottage Address&#45;&gt;Address -->
<g id="edge1" class="edge">
<title>Cottage Address&#45;&gt;Address</title>
<path fill="none" stroke="black" d="M46.62,-51.79C46.62,-59.25 46.62,-68.24 46.62,-76.69"/>
<polygon fill="none" stroke="black" points="43.13,-76.54 46.63,-86.54 50.13,-76.54 43.13,-76.54"/>
</g>
<!-- Invis -->
</g>
</svg>
