<?xml version="1.0" encoding="UTF-8" standalone="no"?>
<!DOCTYPE svg PUBLIC "-//W3C//DTD SVG 1.1//EN"
 "http://www.w3.org/Graphics/SVG/1.1/DTD/svg11.dtd">
<!-- Generated by graphviz version 14.0.2 (20251019.1705)
 -->
<!-- Pages: 1 -->
<svg width="203pt" height="232pt"
 viewBox="0.00 0.00 203.00 232.00" xmlns="http://www.w3.org/2000/svg" xmlns:xlink="http://www.w3.org/1999/xlink">
<g id="graph0" class="graph" transform="scale(1 1) rotate(0) translate(4 228)">
<polygon fill="white" stroke="none" points="-4,4 -4,-228 199.25,-228 199.25,4 -4,4"/>
<g id="clust2" class="cluster">
<title>cluster_associated</title>
</g>
<!-- Street Direction -->
<g id="node1" class="node">
<title>Street Direction</title>
<g id="a_node1"><a xlink:href="../classes/Contact__Street Direction.md" xlink:title="&lt;TABLE&gt;">
<polygon fill="lightgray" stroke="none" points="109.75,-124.88 109.75,-141.12 194.25,-141.12 194.25,-124.88 109.75,-124.88"/>
<text xml:space="preserve" text-anchor="start" x="110.75" y="-128.72" font-family="Arial" font-size="12.00">Street Direction</text>
<polygon fill="none" stroke="black" points="108.75,-123.88 108.75,-142.12 195.25,-142.12 195.25,-123.88 108.75,-123.88"/>
</a>
</g>
</g>
<!-- ContactThing -->
<g id="node2" class="node">
<title>ContactThing</title>
<g id="a_node2"><a xlink:href="../_counters/Contact__ContactThing.md" xlink:title="&lt;TABLE&gt;">
<polygon fill="lightgray" stroke="none" points="115,-197.88 115,-214.12 189,-214.12 189,-197.88 115,-197.88"/>
<text xml:space="preserve" text-anchor="start" x="116" y="-201.72" font-family="Arial" font-size="12.00">ContactThing</text>
<polygon fill="none" stroke="black" points="114,-196.88 114,-215.12 190,-215.12 190,-196.88 114,-196.88"/>
</a>
</g>
</g>
<!-- Street Direction&#45;&gt;ContactThing -->
<g id="edge1" class="edge">
<title>Street Direction&#45;&gt;ContactThing</title>
<path fill="none" stroke="black" d="M152,-150.71C152,-158.47 152,-167.92 152,-176.74"/>
<polygon fill="none" stroke="black" points="148.5,-176.66 152,-186.66 155.5,-176.66 148.5,-176.66"/>
</g>
<!-- Invis -->
<!-- Street Direction&#45;&gt;Invis -->
<!-- code__Code -->
<g id="node4" class="node">
<title>code__Code</title>
<polygon fill="lightgray" stroke="none" points="17.25,-25.88 17.25,-42.12 80.75,-42.12 80.75,-25.88 17.25,-25.88"/>
<text xml:space="preserve" text-anchor="start" x="18.25" y="-29.73" font-family="Arial" font-size="12.00">code::Code</text>
<polygon fill="none" stroke="black" points="16.25,-24.88 16.25,-43.12 81.75,-43.12 81.75,-24.88 16.25,-24.88"/>
</g>
<!-- Street Direction&#45;&gt;code__Code -->
<g id="edge4" class="edge">
<title>Street Direction&#45;&gt;code__Code</title>
<path fill="none" stroke="black" d="M134.06,-115.1C117.74,-99.73 93.45,-76.86 75.01,-59.49"/>
<polygon fill="black" stroke="black" points="77.52,-57.05 67.84,-52.74 72.72,-62.14 77.52,-57.05"/>
<text xml:space="preserve" text-anchor="middle" x="152.13" y="-86.55" font-family="Arial" font-size="11.00"> code::hasCode </text>
<text xml:space="preserve" text-anchor="middle" x="152.13" y="-73.05" font-family="Arial" font-size="11.00"> «only» &#160;</text>
</g>
<!-- Invis&#45;&gt;code__Code -->
</g>
</svg>
