<?xml version="1.0" encoding="UTF-8" standalone="no"?>
<!DOCTYPE svg PUBLIC "-//W3C//DTD SVG 1.1//EN"
 "http://www.w3.org/Graphics/SVG/1.1/DTD/svg11.dtd">
<!-- Generated by graphviz version 14.0.2 (20251019.1705)
 -->
<!-- Pages: 1 -->
<svg width="186pt" height="132pt"
 viewBox="0.00 0.00 186.00 132.00" xmlns="http://www.w3.org/2000/svg" xmlns:xlink="http://www.w3.org/1999/xlink">
<g id="graph0" class="graph" transform="scale(1 1) rotate(0) translate(4 128)">
<polygon fill="white" stroke="none" points="-4,4 -4,-128 182.12,-128 182.12,4 -4,4"/>
<g id="clust2" class="cluster">
<title>cluster_associated</title>
</g>
<!-- CottageAddress -->
<g id="node1" class="node">
<title>CottageAddress</title>
<g id="a_node1"><a xlink:href="../classes/Contact__CottageAddress.md" xlink:title="&lt;TABLE&gt;">
<polygon fill="lightgray" stroke="none" points="1,-25.88 1,-42.12 89.25,-42.12 89.25,-25.88 1,-25.88"/>
<text xml:space="preserve" text-anchor="start" x="2" y="-29.73" font-family="Arial" font-size="12.00">CottageAddress</text>
<polygon fill="none" stroke="black" points="0,-24.88 0,-43.12 90.25,-43.12 90.25,-24.88 0,-24.88"/>
</a>
</g>
</g>
<!-- Address -->
<g id="node2" class="node">
<title>Address</title>
<g id="a_node2"><a xlink:href="../_counters/Contact__Address.md" xlink:title="&lt;TABLE&gt;">
<polygon fill="lightgray" stroke="none" points="22,-97.88 22,-114.12 68.25,-114.12 68.25,-97.88 22,-97.88"/>
<text xml:space="preserve" text-anchor="start" x="23" y="-101.72" font-family="Arial" font-size="12.00">Address</text>
<polygon fill="none" stroke="black" points="21,-96.88 21,-115.12 69.25,-115.12 69.25,-96.88 21,-96.88"/>
</a>
</g>
</g>
<!-- CottageAddress&#45;&gt;Address -->
<g id="edge1" class="edge">
<title>CottageAddress&#45;&gt;Address</title>
<path fill="none" stroke="black" d="M45.12,-51.79C45.12,-59.25 45.12,-68.24 45.12,-76.69"/>
<polygon fill="none" stroke="black" points="41.63,-76.54 45.13,-86.54 48.63,-76.54 41.63,-76.54"/>
</g>
<!-- Invis -->
</g>
</svg>
