<?xml version="1.0" encoding="UTF-8" standalone="no"?>
<!DOCTYPE svg PUBLIC "-//W3C//DTD SVG 1.1//EN"
 "http://www.w3.org/Graphics/SVG/1.1/DTD/svg11.dtd">
<!-- Generated by graphviz version 14.0.2 (20251019.1705)
 -->
<!-- Pages: 1 -->
<svg width="174pt" height="132pt"
 viewBox="0.00 0.00 174.00 132.00" xmlns="http://www.w3.org/2000/svg" xmlns:xlink="http://www.w3.org/1999/xlink">
<g id="graph0" class="graph" transform="scale(1 1) rotate(0) translate(4 128)">
<polygon fill="white" stroke="none" points="-4,4 -4,-128 170,-128 170,4 -4,4"/>
<g id="clust2" class="cluster">
<title>cluster_associated</title>
</g>
<!-- WorkNumber -->
<g id="node1" class="node">
<title>WorkNumber</title>
<g id="a_node1"><a xlink:href="../classes/Contact__WorkNumber.md" xlink:title="&lt;TABLE&gt;">
<polygon fill="lightgray" stroke="none" points="4.75,-25.88 4.75,-42.12 77.25,-42.12 77.25,-25.88 4.75,-25.88"/>
<text xml:space="preserve" text-anchor="start" x="5.75" y="-29.73" font-family="Arial" font-size="12.00">WorkNumber</text>
<polygon fill="none" stroke="black" points="3.75,-24.88 3.75,-43.12 78.25,-43.12 78.25,-24.88 3.75,-24.88"/>
</a>
</g>
</g>
<!-- PhoneNumber -->
<g id="node2" class="node">
<title>PhoneNumber</title>
<g id="a_node2"><a xlink:href="../_counters/Contact__PhoneNumber.md" xlink:title="&lt;TABLE&gt;">
<polygon fill="lightgray" stroke="none" points="1,-97.88 1,-114.12 81,-114.12 81,-97.88 1,-97.88"/>
<text xml:space="preserve" text-anchor="start" x="2" y="-101.72" font-family="Arial" font-size="12.00">PhoneNumber</text>
<polygon fill="none" stroke="black" points="0,-96.88 0,-115.12 82,-115.12 82,-96.88 0,-96.88"/>
</a>
</g>
</g>
<!-- WorkNumber&#45;&gt;PhoneNumber -->
<g id="edge1" class="edge">
<title>WorkNumber&#45;&gt;PhoneNumber</title>
<path fill="none" stroke="black" d="M41,-51.79C41,-59.25 41,-68.24 41,-76.69"/>
<polygon fill="none" stroke="black" points="37.5,-76.54 41,-86.54 44.5,-76.54 37.5,-76.54"/>
</g>
<!-- Invis -->
</g>
</svg>
