<?xml version="1.0" encoding="UTF-8" standalone="no"?>
<!DOCTYPE svg PUBLIC "-//W3C//DTD SVG 1.1//EN"
 "http://www.w3.org/Graphics/SVG/1.1/DTD/svg11.dtd">
<!-- Generated by graphviz version 14.0.2 (20251019.1705)
 -->
<!-- Pages: 1 -->
<svg width="400pt" height="305pt"
 viewBox="0.00 0.00 400.00 305.00" xmlns="http://www.w3.org/2000/svg" xmlns:xlink="http://www.w3.org/1999/xlink">
<g id="graph0" class="graph" transform="scale(1 1) rotate(0) translate(4 301)">
<polygon fill="white" stroke="none" points="-4,4 -4,-301 396.38,-301 396.38,4 -4,4"/>
<g id="clust2" class="cluster">
<title>cluster_associated</title>
</g>
<!-- Household -->
<g id="node1" class="node">
<title>Household</title>
<g id="a_node1"><a xlink:href="../classes/Household__Household.md" xlink:title="&lt;TABLE&gt;">
<polygon fill="lightgray" stroke="none" points="166.62,-206 166.62,-222.25 391.38,-222.25 391.38,-206 166.62,-206"/>
<text xml:space="preserve" text-anchor="start" x="249.75" y="-209.85" font-family="Arial" font-size="12.00">Household</text>
<text xml:space="preserve" text-anchor="start" x="167.62" y="-193.6" font-family="Arial" font-size="12.00">time::hasTime: time::ProperInterval «only»</text>
<polygon fill="none" stroke="black" points="165.62,-188.75 165.62,-223.25 392.38,-223.25 392.38,-188.75 165.62,-188.75"/>
</a>
</g>
</g>
<!-- HouseholdOntologyThing -->
<g id="node2" class="node">
<title>HouseholdOntologyThing</title>
<g id="a_node2"><a xlink:href="../_counters/Household__HouseholdOntologyThing.md" xlink:title="&lt;TABLE&gt;">
<polygon fill="lightgray" stroke="none" points="209.38,-270.88 209.38,-287.12 348.62,-287.12 348.62,-270.88 209.38,-270.88"/>
<text xml:space="preserve" text-anchor="start" x="210.38" y="-274.73" font-family="Arial" font-size="12.00">HouseholdOntologyThing</text>
<polygon fill="none" stroke="black" points="208.38,-269.88 208.38,-288.12 349.62,-288.12 349.62,-269.88 208.38,-269.88"/>
</a>
</g>
</g>
<!-- Household&#45;&gt;HouseholdOntologyThing -->
<g id="edge1" class="edge">
<title>Household&#45;&gt;HouseholdOntologyThing</title>
<path fill="none" stroke="black" d="M279,-223.71C279,-231.47 279,-240.92 279,-249.74"/>
<polygon fill="none" stroke="black" points="275.5,-249.66 279,-259.66 282.5,-249.66 275.5,-249.66"/>
</g>
<!-- Invis -->
<!-- Household&#45;&gt;Invis -->
<!-- cityResident__Residence -->
<g id="node4" class="node">
<title>cityResident__Residence</title>
<polygon fill="lightgray" stroke="none" points="17.12,-98.88 17.12,-115.12 148.88,-115.12 148.88,-98.88 17.12,-98.88"/>
<text xml:space="preserve" text-anchor="start" x="18.12" y="-102.72" font-family="Arial" font-size="12.00">cityResident::Residence</text>
<polygon fill="none" stroke="black" points="16.12,-97.88 16.12,-116.12 149.88,-116.12 149.88,-97.88 16.12,-97.88"/>
</g>
<!-- Household&#45;&gt;cityResident__Residence -->
<g id="edge6" class="edge">
<title>Household&#45;&gt;cityResident__Residence</title>
<path fill="none" stroke="black" d="M199.43,-188.02C184.29,-183.27 168.92,-177.34 155.25,-170 137.21,-160.32 119.71,-145.49 106.46,-132.77"/>
<polygon fill="black" stroke="black" points="109.04,-130.4 99.47,-125.84 104.11,-135.37 109.04,-130.4"/>
<text xml:space="preserve" text-anchor="middle" x="205.12" y="-159.55" font-family="Arial" font-size="11.00"> householdOccupies </text>
<text xml:space="preserve" text-anchor="middle" x="205.12" y="-146.05" font-family="Arial" font-size="11.00"> «max 1» &#160;</text>
</g>
<!-- person__Person -->
<g id="node5" class="node">
<title>person__Person</title>
<polygon fill="lightgray" stroke="none" points="53.5,-25.88 53.5,-42.12 136.5,-42.12 136.5,-25.88 53.5,-25.88"/>
<text xml:space="preserve" text-anchor="start" x="54.5" y="-29.73" font-family="Arial" font-size="12.00">person::Person</text>
<polygon fill="none" stroke="black" points="52.5,-24.88 52.5,-43.12 137.5,-43.12 137.5,-24.88 52.5,-24.88"/>
</g>
<!-- Household&#45;&gt;person__Person -->
<g id="edge5" class="edge">
<title>Household&#45;&gt;person__Person</title>
<path fill="none" stroke="black" d="M275.41,-188.07C271.92,-174.74 265.58,-156.27 255,-143 224.86,-105.2 177.88,-75.71 142.61,-57.16"/>
<polygon fill="black" stroke="black" points="144.38,-54.13 133.88,-52.68 141.18,-60.36 144.38,-54.13"/>
<text xml:space="preserve" text-anchor="middle" x="291.15" y="-110.05" font-family="Arial" font-size="11.00"> cdmOrg::hasMember </text>
<text xml:space="preserve" text-anchor="middle" x="291.15" y="-96.55" font-family="Arial" font-size="11.00"> «only» &#160;</text>
</g>
<!-- Invis&#45;&gt;cityResident__Residence -->
<!-- cityResident__Residence&#45;&gt;person__Person -->
</g>
</svg>
