<?xml version="1.0" encoding="UTF-8" standalone="no"?>
<!DOCTYPE svg PUBLIC "-//W3C//DTD SVG 1.1//EN"
 "http://www.w3.org/Graphics/SVG/1.1/DTD/svg11.dtd">
<!-- Generated by graphviz version 14.0.2 (20251019.1705)
 -->
<!-- Pages: 1 -->
<svg width="245pt" height="232pt"
 viewBox="0.00 0.00 245.00 232.00" xmlns="http://www.w3.org/2000/svg" xmlns:xlink="http://www.w3.org/1999/xlink">
<g id="graph0" class="graph" transform="scale(1 1) rotate(0) translate(4 228)">
<polygon fill="white" stroke="none" points="-4,4 -4,-228 240.75,-228 240.75,4 -4,4"/>
<g id="clust2" class="cluster">
<title>cluster_associated</title>
</g>
<!-- LandUseClassification -->
<g id="node1" class="node">
<title>LandUseClassification</title>
<g id="a_node1"><a xlink:href="../classes/LandUse__LandUseClassification.md" xlink:title="&lt;TABLE&gt;">
<polygon fill="lightgray" stroke="none" points="109.62,-124.88 109.62,-141.12 232.38,-141.12 232.38,-124.88 109.62,-124.88"/>
<text xml:space="preserve" text-anchor="start" x="110.62" y="-128.72" font-family="Arial" font-size="12.00">LandUseClassification</text>
<polygon fill="none" stroke="black" points="108.62,-123.88 108.62,-142.12 233.38,-142.12 233.38,-123.88 108.62,-123.88"/>
</a>
</g>
</g>
<!-- LandUseOntologyThing -->
<g id="node2" class="node">
<title>LandUseOntologyThing</title>
<g id="a_node2"><a xlink:href="../_counters/LandUse__LandUseOntologyThing.md" xlink:title="&lt;TABLE&gt;">
<polygon fill="lightgray" stroke="none" points="106.25,-197.88 106.25,-214.12 235.75,-214.12 235.75,-197.88 106.25,-197.88"/>
<text xml:space="preserve" text-anchor="start" x="107.25" y="-201.72" font-family="Arial" font-size="12.00">LandUseOntologyThing</text>
<polygon fill="none" stroke="black" points="105.25,-196.88 105.25,-215.12 236.75,-215.12 236.75,-196.88 105.25,-196.88"/>
</a>
</g>
</g>
<!-- LandUseClassification&#45;&gt;LandUseOntologyThing -->
<g id="edge1" class="edge">
<title>LandUseClassification&#45;&gt;LandUseOntologyThing</title>
<path fill="none" stroke="black" d="M171,-150.71C171,-158.47 171,-167.92 171,-176.74"/>
<polygon fill="none" stroke="black" points="167.5,-176.66 171,-186.66 174.5,-176.66 167.5,-176.66"/>
</g>
<!-- Invis -->
<!-- LandUseClassification&#45;&gt;Invis -->
<!-- code__Code -->
<g id="node4" class="node">
<title>code__Code</title>
<polygon fill="lightgray" stroke="none" points="17.25,-25.88 17.25,-42.12 80.75,-42.12 80.75,-25.88 17.25,-25.88"/>
<text xml:space="preserve" text-anchor="start" x="18.25" y="-29.73" font-family="Arial" font-size="12.00">code::Code</text>
<polygon fill="none" stroke="black" points="16.25,-24.88 16.25,-43.12 81.75,-43.12 81.75,-24.88 16.25,-24.88"/>
</g>
<!-- LandUseClassification&#45;&gt;code__Code -->
<g id="edge4" class="edge">
<title>LandUseClassification&#45;&gt;code__Code</title>
<path fill="none" stroke="black" d="M149.75,-115.1C130.16,-99.53 100.87,-76.24 78.92,-58.79"/>
<polygon fill="black" stroke="black" points="81.2,-56.13 71.19,-52.64 76.84,-61.61 81.2,-56.13"/>
<text xml:space="preserve" text-anchor="middle" x="163.89" y="-86.55" font-family="Arial" font-size="11.00"> code::hasCode </text>
<text xml:space="preserve" text-anchor="middle" x="163.89" y="-73.05" font-family="Arial" font-size="11.00"> «only» &#160;</text>
</g>
<!-- Invis&#45;&gt;code__Code -->
</g>
</svg>
