<?xml version="1.0" encoding="UTF-8" standalone="no"?>
<!DOCTYPE svg PUBLIC "-//W3C//DTD SVG 1.1//EN"
 "http://www.w3.org/Graphics/SVG/1.1/DTD/svg11.dtd">
<!-- Generated by graphviz version 14.0.2 (20251019.1705)
 -->
<!-- Pages: 1 -->
<svg width="313pt" height="305pt"
 viewBox="0.00 0.00 313.00 305.00" xmlns="http://www.w3.org/2000/svg" xmlns:xlink="http://www.w3.org/1999/xlink">
<g id="graph0" class="graph" transform="scale(1 1) rotate(0) translate(4 301)">
<polygon fill="white" stroke="none" points="-4,4 -4,-301 309.38,-301 309.38,4 -4,4"/>
<g id="clust2" class="cluster">
<title>cluster_associated</title>
</g>
<!-- LandArea -->
<g id="node1" class="node">
<title>LandArea</title>
<g id="a_node1"><a xlink:href="../classes/LandUse__LandArea.md" xlink:title="&lt;TABLE&gt;">
<polygon fill="lightgray" stroke="none" points="156.75,-197.88 156.75,-214.12 211.25,-214.12 211.25,-197.88 156.75,-197.88"/>
<text xml:space="preserve" text-anchor="start" x="157.75" y="-201.72" font-family="Arial" font-size="12.00">LandArea</text>
<polygon fill="none" stroke="black" points="155.75,-196.88 155.75,-215.12 212.25,-215.12 212.25,-196.88 155.75,-196.88"/>
</a>
</g>
</g>
<!-- LandUseOntologyThing -->
<g id="node2" class="node">
<title>LandUseOntologyThing</title>
<g id="a_node2"><a xlink:href="../_counters/LandUse__LandUseOntologyThing.md" xlink:title="&lt;TABLE&gt;">
<polygon fill="lightgray" stroke="none" points="50.25,-270.88 50.25,-287.12 179.75,-287.12 179.75,-270.88 50.25,-270.88"/>
<text xml:space="preserve" text-anchor="start" x="51.25" y="-274.73" font-family="Arial" font-size="12.00">LandUseOntologyThing</text>
<polygon fill="none" stroke="black" points="49.25,-269.88 49.25,-288.12 180.75,-288.12 180.75,-269.88 49.25,-269.88"/>
</a>
</g>
</g>
<!-- LandArea&#45;&gt;LandUseOntologyThing -->
<g id="edge1" class="edge">
<title>LandArea&#45;&gt;LandUseOntologyThing</title>
<path fill="none" stroke="black" d="M167.77,-223.71C159.28,-232.44 148.72,-243.31 139.28,-253.02"/>
<polygon fill="none" stroke="black" points="136.87,-250.48 132.41,-260.09 141.89,-255.36 136.87,-250.48"/>
</g>
<!-- spatialloc__Location -->
<g id="node3" class="node">
<title>spatialloc__Location</title>
<polygon fill="lightgray" stroke="none" points="199.62,-270.88 199.62,-287.12 304.38,-287.12 304.38,-270.88 199.62,-270.88"/>
<text xml:space="preserve" text-anchor="start" x="200.62" y="-274.73" font-family="Arial" font-size="12.00">spatialloc::Location</text>
<polygon fill="none" stroke="black" points="198.62,-269.88 198.62,-288.12 305.38,-288.12 305.38,-269.88 198.62,-269.88"/>
</g>
<!-- LandArea&#45;&gt;spatialloc__Location -->
<g id="edge2" class="edge">
<title>LandArea&#45;&gt;spatialloc__Location</title>
<path fill="none" stroke="black" d="M200,-223.71C208.36,-232.44 218.77,-243.31 228.07,-253.02"/>
<polygon fill="none" stroke="black" points="225.39,-255.28 234.84,-260.08 230.45,-250.44 225.39,-255.28"/>
</g>
<!-- Invis -->
<!-- LandArea&#45;&gt;Invis -->
<!-- cityUnits__Area -->
<g id="node5" class="node">
<title>cityUnits__Area</title>
<polygon fill="lightgray" stroke="none" points="53.38,-98.88 53.38,-115.12 132.62,-115.12 132.62,-98.88 53.38,-98.88"/>
<text xml:space="preserve" text-anchor="start" x="54.38" y="-102.72" font-family="Arial" font-size="12.00">cityUnits::Area</text>
<polygon fill="none" stroke="black" points="52.38,-97.88 52.38,-116.12 133.62,-116.12 133.62,-97.88 52.38,-97.88"/>
</g>
<!-- LandArea&#45;&gt;cityUnits__Area -->
<g id="edge6" class="edge">
<title>LandArea&#45;&gt;cityUnits__Area</title>
<path fill="none" stroke="black" d="M155.91,-189.77C139.97,-181.05 122.91,-171.53 121.5,-170 112.49,-160.24 105.9,-147.13 101.34,-135.48"/>
<polygon fill="black" stroke="black" points="104.74,-134.59 98.09,-126.34 98.15,-136.94 104.74,-134.59"/>
<text xml:space="preserve" text-anchor="middle" x="144.75" y="-159.55" font-family="Arial" font-size="11.00"> hasArea </text>
<text xml:space="preserve" text-anchor="middle" x="144.75" y="-146.05" font-family="Arial" font-size="11.00"> «only» &#160;</text>
</g>
<!-- LandUseClassification -->
<g id="node6" class="node">
<title>LandUseClassification</title>
<g id="a_node6"><a xlink:href="../_counters/LandUse__LandUseClassification.md" xlink:title="&lt;TABLE&gt;">
<polygon fill="lightgray" stroke="none" points="16.62,-25.88 16.62,-42.12 139.38,-42.12 139.38,-25.88 16.62,-25.88"/>
<text xml:space="preserve" text-anchor="start" x="17.62" y="-29.73" font-family="Arial" font-size="12.00">LandUseClassification</text>
<polygon fill="none" stroke="black" points="15.62,-24.88 15.62,-43.12 140.38,-43.12 140.38,-24.88 15.62,-24.88"/>
</a>
</g>
</g>
<!-- LandArea&#45;&gt;LandUseClassification -->
<g id="edge7" class="edge">
<title>LandArea&#45;&gt;LandUseClassification</title>
<path fill="none" stroke="black" d="M181.43,-188.06C177.07,-163.95 166.31,-119.31 143,-89 134.41,-77.82 123.1,-67.43 112.34,-58.81"/>
<polygon fill="black" stroke="black" points="114.75,-56.25 104.7,-52.92 110.49,-61.79 114.75,-56.25"/>
<text xml:space="preserve" text-anchor="middle" x="185.98" y="-110.05" font-family="Arial" font-size="11.00"> landUse </text>
<text xml:space="preserve" text-anchor="middle" x="185.98" y="-96.55" font-family="Arial" font-size="11.00"> «only» &#160;</text>
</g>
<!-- Invis&#45;&gt;cityUnits__Area -->
<!-- cityUnits__Area&#45;&gt;LandUseClassification -->
</g>
</svg>
