<?xml version="1.0" encoding="UTF-8" standalone="no"?>
<!DOCTYPE svg PUBLIC "-//W3C//DTD SVG 1.1//EN"
 "http://www.w3.org/Graphics/SVG/1.1/DTD/svg11.dtd">
<!-- Generated by graphviz version 14.0.2 (20251019.1705)
 -->
<!-- Pages: 1 -->
<svg width="429pt" height="477pt"
 viewBox="0.00 0.00 429.00 477.00" xmlns="http://www.w3.org/2000/svg" xmlns:xlink="http://www.w3.org/1999/xlink">
<g id="graph0" class="graph" transform="scale(1 1) rotate(0) translate(4 473)">
<polygon fill="white" stroke="none" points="-4,4 -4,-473 425.25,-473 425.25,4 -4,4"/>
<g id="clust2" class="cluster">
<title>cluster_associated</title>
</g>
<!-- Employment -->
<g id="node1" class="node">
<title>Employment</title>
<g id="a_node1"><a xlink:href="../classes/Organization__Employment.md" xlink:title="&lt;TABLE&gt;">
<polygon fill="lightgray" stroke="none" points="136.62,-369.88 136.62,-386.12 205.38,-386.12 205.38,-369.88 136.62,-369.88"/>
<text xml:space="preserve" text-anchor="start" x="137.62" y="-373.73" font-family="Arial" font-size="12.00">Employment</text>
<polygon fill="none" stroke="black" points="135.62,-368.88 135.62,-387.12 206.38,-387.12 206.38,-368.88 135.62,-368.88"/>
</a>
</g>
</g>
<!-- CityOrgOntologyThing -->
<g id="node2" class="node">
<title>CityOrgOntologyThing</title>
<g id="a_node2"><a xlink:href="../_counters/Organization__CityOrgOntologyThing.md" xlink:title="&lt;TABLE&gt;">
<polygon fill="lightgray" stroke="none" points="110.38,-442.88 110.38,-459.12 231.62,-459.12 231.62,-442.88 110.38,-442.88"/>
<text xml:space="preserve" text-anchor="start" x="111.38" y="-446.73" font-family="Arial" font-size="12.00">CityOrgOntologyThing</text>
<polygon fill="none" stroke="black" points="109.38,-441.88 109.38,-460.12 232.62,-460.12 232.62,-441.88 109.38,-441.88"/>
</a>
</g>
</g>
<!-- Employment&#45;&gt;CityOrgOntologyThing -->
<g id="edge1" class="edge">
<title>Employment&#45;&gt;CityOrgOntologyThing</title>
<path fill="none" stroke="black" d="M171,-395.71C171,-403.47 171,-412.92 171,-421.74"/>
<polygon fill="none" stroke="black" points="167.5,-421.66 171,-431.66 174.5,-421.66 167.5,-421.66"/>
</g>
<!-- Invis -->
<!-- Employment&#45;&gt;Invis -->
<!-- Compensation -->
<g id="node4" class="node">
<title>Compensation</title>
<g id="a_node4"><a xlink:href="../_counters/Organization__Compensation.md" xlink:title="&lt;TABLE&gt;">
<polygon fill="lightgray" stroke="none" points="17,-270.88 17,-287.12 97,-287.12 97,-270.88 17,-270.88"/>
<text xml:space="preserve" text-anchor="start" x="18" y="-274.73" font-family="Arial" font-size="12.00">Compensation</text>
<polygon fill="none" stroke="black" points="16,-269.88 16,-288.12 98,-288.12 98,-269.88 16,-269.88"/>
</a>
</g>
</g>
<!-- Employment&#45;&gt;Compensation -->
<g id="edge8" class="edge">
<title>Employment&#45;&gt;Compensation</title>
<path fill="none" stroke="black" d="M135.82,-361.34C134.54,-360.87 133.26,-360.42 132,-360 99.92,-349.2 79.13,-368.44 58,-342 50.49,-332.6 49.35,-319.59 50.44,-307.92"/>
<polygon fill="black" stroke="black" points="53.85,-308.78 51.9,-298.37 46.93,-307.72 53.85,-308.78"/>
<text xml:space="preserve" text-anchor="middle" x="104.5" y="-331.55" font-family="Arial" font-size="11.00"> hasCompensation </text>
<text xml:space="preserve" text-anchor="middle" x="104.5" y="-318.05" font-family="Arial" font-size="11.00"> «some» &#160;</text>
</g>
<!-- EmploymentStatus -->
<g id="node5" class="node">
<title>EmploymentStatus</title>
<g id="a_node5"><a xlink:href="../_counters/Organization__EmploymentStatus.md" xlink:title="&lt;TABLE&gt;">
<polygon fill="lightgray" stroke="none" points="16.75,-171.88 16.75,-188.12 119.25,-188.12 119.25,-171.88 16.75,-171.88"/>
<text xml:space="preserve" text-anchor="start" x="17.75" y="-175.72" font-family="Arial" font-size="12.00">EmploymentStatus</text>
<polygon fill="none" stroke="black" points="15.75,-170.88 15.75,-189.12 120.25,-189.12 120.25,-170.88 15.75,-170.88"/>
</a>
</g>
</g>
<!-- Employment&#45;&gt;EmploymentStatus -->
<g id="edge10" class="edge">
<title>Employment&#45;&gt;EmploymentStatus</title>
<path fill="none" stroke="black" d="M166.72,-360C163.24,-347.3 157.79,-329.68 151,-315 132.66,-275.36 104.93,-233.06 86.64,-206.83"/>
<polygon fill="black" stroke="black" points="89.63,-204.99 81.01,-198.83 83.91,-209.02 89.63,-204.99"/>
<text xml:space="preserve" text-anchor="middle" x="198.53" y="-282.05" font-family="Arial" font-size="11.00"> hasEmploymentStatus </text>
<text xml:space="preserve" text-anchor="middle" x="198.53" y="-268.55" font-family="Arial" font-size="11.00"> «only» &#160;</text>
</g>
<!-- Occupation -->
<g id="node6" class="node">
<title>Occupation</title>
<g id="a_node6"><a xlink:href="../_counters/Organization__Occupation.md" xlink:title="&lt;TABLE&gt;">
<polygon fill="lightgray" stroke="none" points="52.62,-98.88 52.62,-115.12 115.38,-115.12 115.38,-98.88 52.62,-98.88"/>
<text xml:space="preserve" text-anchor="start" x="53.62" y="-102.72" font-family="Arial" font-size="12.00">Occupation</text>
<polygon fill="none" stroke="black" points="51.62,-97.88 51.62,-116.12 116.38,-116.12 116.38,-97.88 51.62,-97.88"/>
</a>
</g>
</g>
<!-- Employment&#45;&gt;Occupation -->
<g id="edge9" class="edge">
<title>Employment&#45;&gt;Occupation</title>
<path fill="none" stroke="black" d="M200.16,-360C232.51,-338.76 277.95,-300.38 260,-261 232.64,-200.97 168.81,-155.38 126.02,-130.16"/>
<polygon fill="black" stroke="black" points="127.89,-127.2 117.48,-125.24 124.4,-133.26 127.89,-127.2"/>
<text xml:space="preserve" text-anchor="middle" x="282.48" y="-232.55" font-family="Arial" font-size="11.00"> employedAs </text>
<text xml:space="preserve" text-anchor="middle" x="282.48" y="-219.05" font-family="Arial" font-size="11.00"> «only» &#160;</text>
</g>
<!-- Organization -->
<g id="node7" class="node">
<title>Organization</title>
<g id="a_node7"><a xlink:href="../_counters/Organization__Organization.md" xlink:title="&lt;TABLE&gt;">
<polygon fill="lightgray" stroke="none" points="48.88,-25.88 48.88,-42.12 119.12,-42.12 119.12,-25.88 48.88,-25.88"/>
<text xml:space="preserve" text-anchor="start" x="49.88" y="-29.73" font-family="Arial" font-size="12.00">Organization</text>
<polygon fill="none" stroke="black" points="47.88,-24.88 47.88,-43.12 120.12,-43.12 120.12,-24.88 47.88,-24.88"/>
</a>
</g>
</g>
<!-- Employment&#45;&gt;Organization -->
<g id="edge7" class="edge">
<title>Employment&#45;&gt;Organization</title>
<path fill="none" stroke="black" d="M206.23,-374.18C259.91,-367.76 356,-346.91 356,-280 356,-280 356,-280 356,-106 356,-60.16 209.53,-43.36 131.56,-37.67"/>
<polygon fill="black" stroke="black" points="131.85,-34.18 121.63,-36.98 131.36,-41.16 131.85,-34.18"/>
<text xml:space="preserve" text-anchor="middle" x="388.62" y="-183.05" font-family="Arial" font-size="11.00"> employedBy </text>
<text xml:space="preserve" text-anchor="middle" x="388.62" y="-169.55" font-family="Arial" font-size="11.00"> «some» &#160;</text>
</g>
<!-- Invis&#45;&gt;Compensation -->
<!-- Compensation&#45;&gt;EmploymentStatus -->
<!-- EmploymentStatus&#45;&gt;Occupation -->
<!-- Occupation&#45;&gt;Organization -->
</g>
</svg>
