<?xml version="1.0" encoding="UTF-8" standalone="no"?>
<!DOCTYPE svg PUBLIC "-//W3C//DTD SVG 1.1//EN"
 "http://www.w3.org/Graphics/SVG/1.1/DTD/svg11.dtd">
<!-- Generated by graphviz version 14.0.2 (20251019.1705)
 -->
<!-- Pages: 1 -->
<svg width="390pt" height="305pt"
 viewBox="0.00 0.00 390.00 305.00" xmlns="http://www.w3.org/2000/svg" xmlns:xlink="http://www.w3.org/1999/xlink">
<g id="graph0" class="graph" transform="scale(1 1) rotate(0) translate(4 301)">
<polygon fill="white" stroke="none" points="-4,4 -4,-301 386.25,-301 386.25,4 -4,4"/>
<g id="clust2" class="cluster">
<title>cluster_associated</title>
</g>
<!-- cdmOrg_ForProfitOrganization -->
<g id="node1" class="node">
<title>cdmOrg_ForProfitOrganization</title>
<g id="a_node1"><a xlink:href="../classes/Organization__cdmOrg:ForProfitOrganization.md" xlink:title="&lt;TABLE&gt;">
<polygon fill="lightgray" stroke="none" points="207.5,-197.88 207.5,-214.12 368.5,-214.12 368.5,-197.88 207.5,-197.88"/>
<text xml:space="preserve" text-anchor="start" x="208.5" y="-201.72" font-family="Arial" font-size="12.00">cdmOrg:ForProfitOrganization</text>
<polygon fill="none" stroke="black" points="206.5,-196.88 206.5,-215.12 369.5,-215.12 369.5,-196.88 206.5,-196.88"/>
</a>
</g>
</g>
<!-- cdmOrg_Organization -->
<g id="node2" class="node">
<title>cdmOrg_Organization</title>
<polygon fill="lightgray" stroke="none" points="230.38,-270.88 230.38,-287.12 345.62,-287.12 345.62,-270.88 230.38,-270.88"/>
<text xml:space="preserve" text-anchor="start" x="231.38" y="-274.73" font-family="Arial" font-size="12.00">cdmOrg:Organization</text>
<polygon fill="none" stroke="black" points="229.38,-269.88 229.38,-288.12 346.62,-288.12 346.62,-269.88 229.38,-269.88"/>
</g>
<!-- cdmOrg_ForProfitOrganization&#45;&gt;cdmOrg_Organization -->
<g id="edge1" class="edge">
<title>cdmOrg_ForProfitOrganization&#45;&gt;cdmOrg_Organization</title>
<path fill="none" stroke="black" d="M288,-223.71C288,-231.47 288,-240.92 288,-249.74"/>
<polygon fill="none" stroke="black" points="284.5,-249.66 288,-259.66 291.5,-249.66 284.5,-249.66"/>
</g>
<!-- Invis -->
<!-- cdmOrg_ForProfitOrganization&#45;&gt;Invis -->
<!-- cdmOrg_BusinessEstablishment -->
<g id="node4" class="node">
<title>cdmOrg_BusinessEstablishment</title>
<polygon fill="lightgray" stroke="none" points="16.88,-98.88 16.88,-115.12 189.12,-115.12 189.12,-98.88 16.88,-98.88"/>
<text xml:space="preserve" text-anchor="start" x="17.88" y="-102.72" font-family="Arial" font-size="12.00">cdmOrg:BusinessEstablishment</text>
<polygon fill="none" stroke="black" points="15.88,-97.88 15.88,-116.12 190.12,-116.12 190.12,-97.88 15.88,-97.88"/>
</g>
<!-- cdmOrg_ForProfitOrganization&#45;&gt;cdmOrg_BusinessEstablishment -->
<g id="edge6" class="edge">
<title>cdmOrg_ForProfitOrganization&#45;&gt;cdmOrg_BusinessEstablishment</title>
<path fill="none" stroke="black" d="M206.68,-188.57C175.56,-181.75 146.02,-174.41 140,-170 128.11,-161.29 119.34,-147.5 113.33,-135.14"/>
<polygon fill="black" stroke="black" points="116.62,-133.91 109.36,-126.19 110.22,-136.75 116.62,-133.91"/>
<text xml:space="preserve" text-anchor="middle" x="206" y="-159.55" font-family="Arial" font-size="11.00"> cdmOrg:hasEstablishment </text>
<text xml:space="preserve" text-anchor="middle" x="206" y="-146.05" font-family="Arial" font-size="11.00"> «only» &#160;</text>
</g>
<!-- cdmOrg_IndustryType -->
<g id="node5" class="node">
<title>cdmOrg_IndustryType</title>
<polygon fill="lightgray" stroke="none" points="59.38,-25.88 59.38,-42.12 174.62,-42.12 174.62,-25.88 59.38,-25.88"/>
<text xml:space="preserve" text-anchor="start" x="60.38" y="-29.73" font-family="Arial" font-size="12.00">cdmOrg:IndustryType</text>
<polygon fill="none" stroke="black" points="58.38,-24.88 58.38,-43.12 175.62,-43.12 175.62,-24.88 58.38,-24.88"/>
</g>
<!-- cdmOrg_ForProfitOrganization&#45;&gt;cdmOrg_IndustryType -->
<g id="edge5" class="edge">
<title>cdmOrg_ForProfitOrganization&#45;&gt;cdmOrg_IndustryType</title>
<path fill="none" stroke="black" d="M286.74,-188.22C285.06,-174.98 281.14,-156.55 272,-143 245.88,-104.27 200.84,-75.2 166.02,-57.03"/>
<polygon fill="black" stroke="black" points="167.89,-54.06 157.39,-52.66 164.73,-60.3 167.89,-54.06"/>
<text xml:space="preserve" text-anchor="middle" x="319.25" y="-110.05" font-family="Arial" font-size="11.00"> cdmOrg:hasIndustryType </text>
<text xml:space="preserve" text-anchor="middle" x="319.25" y="-96.55" font-family="Arial" font-size="11.00"> «only» &#160;</text>
</g>
<!-- Invis&#45;&gt;cdmOrg_BusinessEstablishment -->
<!-- cdmOrg_BusinessEstablishment&#45;&gt;cdmOrg_IndustryType -->
</g>
</svg>
