<?xml version="1.0" encoding="UTF-8" standalone="no"?>
<!DOCTYPE svg PUBLIC "-//W3C//DTD SVG 1.1//EN"
 "http://www.w3.org/Graphics/SVG/1.1/DTD/svg11.dtd">
<!-- Generated by graphviz version 14.0.2 (20251019.1705)
 -->
<!-- Pages: 1 -->
<svg width="382pt" height="139pt"
 viewBox="0.00 0.00 382.00 139.00" xmlns="http://www.w3.org/2000/svg" xmlns:xlink="http://www.w3.org/1999/xlink">
<g id="graph0" class="graph" transform="scale(1 1) rotate(0) translate(4 135.38)">
<polygon fill="white" stroke="none" points="-4,4 -4,-135.38 378.12,-135.38 378.12,4 -4,4"/>
<g id="clust2" class="cluster">
<title>cluster_associated</title>
</g>
<!-- cdmOrg_Operation -->
<g id="node1" class="node">
<title>cdmOrg_Operation</title>
<g id="a_node1"><a xlink:href="../classes/Organization__cdmOrg:Operation.md" xlink:title="&lt;TABLE&gt;">
<polygon fill="lightgray" stroke="none" points="69.25,-42.12 69.25,-58.38 285,-58.38 285,-42.12 69.25,-42.12"/>
<text xml:space="preserve" text-anchor="start" x="128.38" y="-45.98" font-family="Arial" font-size="12.00">cdmOrg:Operation</text>
<text xml:space="preserve" text-anchor="start" x="70.25" y="-29.73" font-family="Arial" font-size="12.00">cdmOrg:closingTime: xsd:time «max 1»</text>
<text xml:space="preserve" text-anchor="start" x="70.25" y="-13.47" font-family="Arial" font-size="12.00">cdmOrg:openingTime: xsd:time «max 1»</text>
<polygon fill="none" stroke="black" points="68.25,-8.62 68.25,-59.38 286,-59.38 286,-8.62 68.25,-8.62"/>
</a>
</g>
</g>
<!-- cdmOrg_CityOrgOntologyThing -->
<g id="node2" class="node">
<title>cdmOrg_CityOrgOntologyThing</title>
<polygon fill="lightgray" stroke="none" points="1,-105.25 1,-121.5 167.25,-121.5 167.25,-105.25 1,-105.25"/>
<text xml:space="preserve" text-anchor="start" x="2" y="-109.1" font-family="Arial" font-size="12.00">cdmOrg:CityOrgOntologyThing</text>
<polygon fill="none" stroke="black" points="0,-104.25 0,-122.5 168.25,-122.5 168.25,-104.25 0,-104.25"/>
</g>
<!-- cdmOrg_Operation&#45;&gt;cdmOrg_CityOrgOntologyThing -->
<g id="edge1" class="edge">
<title>cdmOrg_Operation&#45;&gt;cdmOrg_CityOrgOntologyThing</title>
<path fill="none" stroke="black" d="M148.16,-59.1C136.93,-68.44 124.1,-79.12 112.89,-88.44"/>
<polygon fill="none" stroke="black" points="110.92,-85.53 105.47,-94.62 115.39,-90.91 110.92,-85.53"/>
</g>
<!-- recurringEvent_RecurringEvent -->
<g id="node3" class="node">
<title>recurringEvent_RecurringEvent</title>
<polygon fill="lightgray" stroke="none" points="187,-105.25 187,-121.5 353.25,-121.5 353.25,-105.25 187,-105.25"/>
<text xml:space="preserve" text-anchor="start" x="188" y="-109.1" font-family="Arial" font-size="12.00">recurringEvent:RecurringEvent</text>
<polygon fill="none" stroke="black" points="186,-104.25 186,-122.5 354.25,-122.5 354.25,-104.25 186,-104.25"/>
</g>
<!-- cdmOrg_Operation&#45;&gt;recurringEvent_RecurringEvent -->
<g id="edge2" class="edge">
<title>cdmOrg_Operation&#45;&gt;recurringEvent_RecurringEvent</title>
<path fill="none" stroke="black" d="M206.09,-59.1C217.32,-68.44 230.15,-79.12 241.36,-88.44"/>
<polygon fill="none" stroke="black" points="238.86,-90.91 248.78,-94.62 243.33,-85.53 238.86,-90.91"/>
</g>
<!-- Invis -->
</g>
</svg>
