<?xml version="1.0" encoding="UTF-8" standalone="no"?>
<!DOCTYPE svg PUBLIC "-//W3C//DTD SVG 1.1//EN"
 "http://www.w3.org/Graphics/SVG/1.1/DTD/svg11.dtd">
<!-- Generated by graphviz version 14.0.2 (20251019.1705)
 -->
<!-- Pages: 1 -->
<svg width="578pt" height="576pt"
 viewBox="0.00 0.00 578.00 576.00" xmlns="http://www.w3.org/2000/svg" xmlns:xlink="http://www.w3.org/1999/xlink">
<g id="graph0" class="graph" transform="scale(1 1) rotate(0) translate(4 572)">
<polygon fill="white" stroke="none" points="-4,4 -4,-572 573.75,-572 573.75,4 -4,4"/>
<g id="clust2" class="cluster">
<title>cluster_associated</title>
</g>
<!-- cdmOrg_Organization -->
<g id="node1" class="node">
<title>cdmOrg_Organization</title>
<g id="a_node1"><a xlink:href="../classes/Organization__cdmOrg:Organization.md" xlink:title="&lt;TABLE&gt;">
<polygon fill="lightgray" stroke="none" points="189.38,-468.88 189.38,-485.12 304.62,-485.12 304.62,-468.88 189.38,-468.88"/>
<text xml:space="preserve" text-anchor="start" x="190.38" y="-472.73" font-family="Arial" font-size="12.00">cdmOrg:Organization</text>
<polygon fill="none" stroke="black" points="188.38,-467.88 188.38,-486.12 305.62,-486.12 305.62,-467.88 188.38,-467.88"/>
</a>
</g>
</g>
<!-- cdmOrg_CityOrgOntologyThing -->
<g id="node2" class="node">
<title>cdmOrg_CityOrgOntologyThing</title>
<polygon fill="lightgray" stroke="none" points="75.88,-541.88 75.88,-558.12 242.12,-558.12 242.12,-541.88 75.88,-541.88"/>
<text xml:space="preserve" text-anchor="start" x="76.88" y="-545.73" font-family="Arial" font-size="12.00">cdmOrg:CityOrgOntologyThing</text>
<polygon fill="none" stroke="black" points="74.88,-540.88 74.88,-559.12 243.12,-559.12 243.12,-540.88 74.88,-540.88"/>
</g>
<!-- cdmOrg_Organization&#45;&gt;cdmOrg_CityOrgOntologyThing -->
<g id="edge1" class="edge">
<title>cdmOrg_Organization&#45;&gt;cdmOrg_CityOrgOntologyThing</title>
<path fill="none" stroke="black" d="M225.99,-494.95C214.87,-503.93 201.02,-515.1 188.8,-524.95"/>
<polygon fill="none" stroke="black" points="186.62,-522.22 181.03,-531.22 191.01,-527.67 186.62,-522.22"/>
</g>
<!-- cdmOrgStruct_Organization -->
<g id="node3" class="node">
<title>cdmOrgStruct_Organization</title>
<polygon fill="lightgray" stroke="none" points="262,-541.88 262,-558.12 408,-558.12 408,-541.88 262,-541.88"/>
<text xml:space="preserve" text-anchor="start" x="263" y="-545.73" font-family="Arial" font-size="12.00">cdmOrgStruct:Organization</text>
<polygon fill="none" stroke="black" points="261,-540.88 261,-559.12 409,-559.12 409,-540.88 261,-540.88"/>
</g>
<!-- cdmOrg_Organization&#45;&gt;cdmOrgStruct_Organization -->
<g id="edge2" class="edge">
<title>cdmOrg_Organization&#45;&gt;cdmOrgStruct_Organization</title>
<path fill="none" stroke="black" d="M268.01,-494.95C279.13,-503.93 292.98,-515.1 305.2,-524.95"/>
<polygon fill="none" stroke="black" points="302.99,-527.67 312.97,-531.22 307.38,-522.22 302.99,-527.67"/>
</g>
<!-- Invis -->
<!-- cdmOrg_Organization&#45;&gt;Invis -->
<!-- cdmOrg_Goal -->
<g id="node5" class="node">
<title>cdmOrg_Goal</title>
<polygon fill="lightgray" stroke="none" points="16.75,-369.88 16.75,-386.12 89.25,-386.12 89.25,-369.88 16.75,-369.88"/>
<text xml:space="preserve" text-anchor="start" x="17.75" y="-373.73" font-family="Arial" font-size="12.00">cdmOrg:Goal</text>
<polygon fill="none" stroke="black" points="15.75,-368.88 15.75,-387.12 90.25,-387.12 90.25,-368.88 15.75,-368.88"/>
</g>
<!-- cdmOrg_Organization&#45;&gt;cdmOrg_Goal -->
<g id="edge10" class="edge">
<title>cdmOrg_Organization&#45;&gt;cdmOrg_Goal</title>
<path fill="none" stroke="black" d="M188.46,-465.27C177.04,-463.19 165.14,-461.02 154,-459 131.78,-454.97 68.62,-458.21 54,-441 46.16,-431.77 45.01,-418.68 46.2,-406.9"/>
<polygon fill="black" stroke="black" points="49.62,-407.68 47.75,-397.25 42.71,-406.57 49.62,-407.68"/>
<text xml:space="preserve" text-anchor="middle" x="97.5" y="-430.55" font-family="Arial" font-size="11.00"> cdmOrg:hasGoal </text>
<text xml:space="preserve" text-anchor="middle" x="97.5" y="-417.05" font-family="Arial" font-size="11.00"> «only» &#160;</text>
</g>
<!-- cdmOrg_Operation -->
<g id="node6" class="node">
<title>cdmOrg_Operation</title>
<polygon fill="lightgray" stroke="none" points="35.25,-270.88 35.25,-287.12 134.75,-287.12 134.75,-270.88 35.25,-270.88"/>
<text xml:space="preserve" text-anchor="start" x="36.25" y="-274.73" font-family="Arial" font-size="12.00">cdmOrg:Operation</text>
<polygon fill="none" stroke="black" points="34.25,-269.88 34.25,-288.12 135.75,-288.12 135.75,-269.88 34.25,-269.88"/>
</g>
<!-- cdmOrg_Organization&#45;&gt;cdmOrg_Operation -->
<g id="edge9" class="edge">
<title>cdmOrg_Organization&#45;&gt;cdmOrg_Operation</title>
<path fill="none" stroke="black" d="M217.24,-459.14C193.96,-444.77 162.04,-422.3 140.5,-396 118.64,-369.31 102.95,-332.58 93.94,-307.65"/>
<polygon fill="black" stroke="black" points="97.25,-306.51 90.67,-298.21 90.64,-308.81 97.25,-306.51"/>
<text xml:space="preserve" text-anchor="middle" x="201.25" y="-381.05" font-family="Arial" font-size="11.00"> cdmOrg:operatingHours </text>
<text xml:space="preserve" text-anchor="middle" x="201.25" y="-367.55" font-family="Arial" font-size="11.00"> «only» &#160;</text>
</g>
<!-- contact_/Address -->
<g id="node7" class="node">
<title>contact_/Address</title>
<polygon fill="lightgray" stroke="none" points="39.75,-171.88 39.75,-188.12 130.25,-188.12 130.25,-171.88 39.75,-171.88"/>
<text xml:space="preserve" text-anchor="start" x="40.75" y="-175.72" font-family="Arial" font-size="12.00">contact:/Address</text>
<polygon fill="none" stroke="black" points="38.75,-170.88 38.75,-189.12 131.25,-189.12 131.25,-170.88 38.75,-170.88"/>
</g>
<!-- cdmOrg_Organization&#45;&gt;contact_/Address -->
<g id="edge12" class="edge">
<title>cdmOrg_Organization&#45;&gt;contact_/Address</title>
<path fill="none" stroke="black" d="M256.03,-459.09C267.72,-434.63 284.12,-389.1 262,-360 243.93,-336.22 221.31,-359.71 197.25,-342 162.75,-316.6 169.48,-296.16 145,-261 132.18,-242.59 117.02,-222.39 105.15,-206.89"/>
<polygon fill="black" stroke="black" points="108.03,-204.9 99.15,-199.11 102.48,-209.17 108.03,-204.9"/>
<text xml:space="preserve" text-anchor="middle" x="248.62" y="-331.55" font-family="Arial" font-size="11.00"> cdmOrg:orgAddress </text>
<text xml:space="preserve" text-anchor="middle" x="248.62" y="-318.05" font-family="Arial" font-size="11.00"> «only» &#160;</text>
</g>
<!-- contact_/PhoneNumber -->
<g id="node8" class="node">
<title>contact_/PhoneNumber</title>
<polygon fill="lightgray" stroke="none" points="16.88,-98.88 16.88,-115.12 141.12,-115.12 141.12,-98.88 16.88,-98.88"/>
<text xml:space="preserve" text-anchor="start" x="17.88" y="-102.72" font-family="Arial" font-size="12.00">contact:/PhoneNumber</text>
<polygon fill="none" stroke="black" points="15.88,-97.88 15.88,-116.12 142.12,-116.12 142.12,-97.88 15.88,-97.88"/>
</g>
<!-- cdmOrg_Organization&#45;&gt;contact_/PhoneNumber -->
<g id="edge11" class="edge">
<title>cdmOrg_Organization&#45;&gt;contact_/PhoneNumber</title>
<path fill="none" stroke="black" d="M268.2,-459.12C287.83,-441.45 314,-411.75 314,-379 314,-379 314,-379 314,-179 314,-144.89 222.1,-125.67 153.24,-116.06"/>
<polygon fill="black" stroke="black" points="153.85,-112.62 143.48,-114.75 152.92,-119.55 153.85,-112.62"/>
<text xml:space="preserve" text-anchor="middle" x="370.62" y="-282.05" font-family="Arial" font-size="11.00"> contact:/hasTelephone </text>
<text xml:space="preserve" text-anchor="middle" x="370.62" y="-268.55" font-family="Arial" font-size="11.00"> «only» &#160;</text>
</g>
<!-- spatialLoc_Location -->
<g id="node9" class="node">
<title>spatialLoc_Location</title>
<polygon fill="lightgray" stroke="none" points="31.25,-25.88 31.25,-42.12 136.75,-42.12 136.75,-25.88 31.25,-25.88"/>
<text xml:space="preserve" text-anchor="start" x="32.25" y="-29.73" font-family="Arial" font-size="12.00">spatialLoc:Location</text>
<polygon fill="none" stroke="black" points="30.25,-24.88 30.25,-43.12 137.75,-43.12 137.75,-24.88 30.25,-24.88"/>
</g>
<!-- cdmOrg_Organization&#45;&gt;spatialLoc_Location -->
<g id="edge13" class="edge">
<title>cdmOrg_Organization&#45;&gt;spatialLoc_Location</title>
<path fill="none" stroke="black" d="M305.49,-473.05C367.01,-466.42 455,-445.34 455,-379 455,-379 455,-379 455,-106 455,-44.39 255.12,-34.97 148.79,-34.32"/>
<polygon fill="black" stroke="black" points="149.08,-30.82 139.06,-34.29 149.05,-37.82 149.08,-30.82"/>
<text xml:space="preserve" text-anchor="middle" x="512.38" y="-232.55" font-family="Arial" font-size="11.00"> spatialLoc:hasLocation </text>
<text xml:space="preserve" text-anchor="middle" x="512.38" y="-219.05" font-family="Arial" font-size="11.00"> «only» &#160;</text>
</g>
<!-- Invis&#45;&gt;cdmOrg_Goal -->
<!-- cdmOrg_Goal&#45;&gt;cdmOrg_Operation -->
<!-- cdmOrg_Operation&#45;&gt;contact_/Address -->
<!-- contact_/Address&#45;&gt;contact_/PhoneNumber -->
<!-- contact_/PhoneNumber&#45;&gt;spatialLoc_Location -->
</g>
</svg>
