<?xml version="1.0" encoding="UTF-8" standalone="no"?>
<!DOCTYPE svg PUBLIC "-//W3C//DTD SVG 1.1//EN"
 "http://www.w3.org/Graphics/SVG/1.1/DTD/svg11.dtd">
<!-- Generated by graphviz version 14.0.2 (20251019.1705)
 -->
<!-- Pages: 1 -->
<svg width="313pt" height="232pt"
 viewBox="0.00 0.00 313.00 232.00" xmlns="http://www.w3.org/2000/svg" xmlns:xlink="http://www.w3.org/1999/xlink">
<g id="graph0" class="graph" transform="scale(1 1) rotate(0) translate(4 228)">
<polygon fill="white" stroke="none" points="-4,4 -4,-228 308.63,-228 308.63,4 -4,4"/>
<g id="clust2" class="cluster">
<title>cluster_associated</title>
</g>
<!-- cdmOrg_Wage -->
<g id="node1" class="node">
<title>cdmOrg_Wage</title>
<g id="a_node1"><a xlink:href="../classes/Organization__cdmOrg:Wage.md" xlink:title="&lt;TABLE&gt;">
<polygon fill="lightgray" stroke="none" points="164.75,-124.88 164.75,-141.12 243.25,-141.12 243.25,-124.88 164.75,-124.88"/>
<text xml:space="preserve" text-anchor="start" x="165.75" y="-128.72" font-family="Arial" font-size="12.00">cdmOrg:Wage</text>
<polygon fill="none" stroke="black" points="163.75,-123.88 163.75,-142.12 244.25,-142.12 244.25,-123.88 163.75,-123.88"/>
</a>
</g>
</g>
<!-- cdmOrg_Compensation -->
<g id="node2" class="node">
<title>cdmOrg_Compensation</title>
<polygon fill="lightgray" stroke="none" points="141.5,-197.88 141.5,-214.12 266.5,-214.12 266.5,-197.88 141.5,-197.88"/>
<text xml:space="preserve" text-anchor="start" x="142.5" y="-201.72" font-family="Arial" font-size="12.00">cdmOrg:Compensation</text>
<polygon fill="none" stroke="black" points="140.5,-196.88 140.5,-215.12 267.5,-215.12 267.5,-196.88 140.5,-196.88"/>
</g>
<!-- cdmOrg_Wage&#45;&gt;cdmOrg_Compensation -->
<g id="edge1" class="edge">
<title>cdmOrg_Wage&#45;&gt;cdmOrg_Compensation</title>
<path fill="none" stroke="black" d="M204,-150.71C204,-158.47 204,-167.92 204,-176.74"/>
<polygon fill="none" stroke="black" points="200.5,-176.66 204,-186.66 207.5,-176.66 200.5,-176.66"/>
</g>
<!-- Invis -->
<!-- cdmOrg_Wage&#45;&gt;Invis -->
<!-- cityUnits_MonetaryValue -->
<g id="node4" class="node">
<title>cityUnits_MonetaryValue</title>
<polygon fill="lightgray" stroke="none" points="16.88,-25.88 16.88,-42.12 147.12,-42.12 147.12,-25.88 16.88,-25.88"/>
<text xml:space="preserve" text-anchor="start" x="17.88" y="-29.73" font-family="Arial" font-size="12.00">cityUnits:MonetaryValue</text>
<polygon fill="none" stroke="black" points="15.88,-24.88 15.88,-43.12 148.12,-43.12 148.12,-24.88 15.88,-24.88"/>
</g>
<!-- cdmOrg_Wage&#45;&gt;cityUnits_MonetaryValue -->
<g id="edge4" class="edge">
<title>cdmOrg_Wage&#45;&gt;cityUnits_MonetaryValue</title>
<path fill="none" stroke="black" d="M163.78,-116.27C162.51,-115.83 161.24,-115.41 160,-115 131.01,-105.49 114.47,-119.4 93.75,-97 85.38,-87.95 82.1,-74.88 81.05,-63.07"/>
<polygon fill="black" stroke="black" points="84.56,-63.26 80.69,-53.39 77.56,-63.52 84.56,-63.26"/>
<text xml:space="preserve" text-anchor="middle" x="147.38" y="-86.55" font-family="Arial" font-size="11.00"> cdmOrg:overtimePay </text>
<text xml:space="preserve" text-anchor="middle" x="147.38" y="-73.05" font-family="Arial" font-size="11.00"> «only» &#160;</text>
</g>
<!-- cdmOrg_Wage&#45;&gt;cityUnits_MonetaryValue -->
<g id="edge5" class="edge">
<title>cdmOrg_Wage&#45;&gt;cityUnits_MonetaryValue</title>
<path fill="none" stroke="black" d="M208.07,-115.17C210.32,-101.55 210.93,-82.62 201,-70 190.46,-56.6 175.06,-48.14 158.81,-42.85"/>
<polygon fill="black" stroke="black" points="160.09,-39.57 149.51,-40.22 158.18,-46.31 160.09,-39.57"/>
<text xml:space="preserve" text-anchor="middle" x="257.01" y="-86.55" font-family="Arial" font-size="11.00"> cdmOrg:hourlyPay </text>
<text xml:space="preserve" text-anchor="middle" x="257.01" y="-73.05" font-family="Arial" font-size="11.00"> «max 1» &#160;</text>
</g>
<!-- Invis&#45;&gt;cityUnits_MonetaryValue -->
</g>
</svg>
