<?xml version="1.0" encoding="UTF-8" standalone="no"?>
<!DOCTYPE svg PUBLIC "-//W3C//DTD SVG 1.1//EN"
 "http://www.w3.org/Graphics/SVG/1.1/DTD/svg11.dtd">
<!-- Generated by graphviz version 14.0.2 (20251019.1705)
 -->
<!-- Pages: 1 -->
<svg width="278pt" height="232pt"
 viewBox="0.00 0.00 278.00 232.00" xmlns="http://www.w3.org/2000/svg" xmlns:xlink="http://www.w3.org/1999/xlink">
<g id="graph0" class="graph" transform="scale(1 1) rotate(0) translate(4 228)">
<polygon fill="white" stroke="none" points="-4,4 -4,-228 273.5,-228 273.5,4 -4,4"/>
<g id="clust2" class="cluster">
<title>cluster_associated</title>
</g>
<!-- cdmOrg_Salary -->
<g id="node1" class="node">
<title>cdmOrg_Salary</title>
<g id="a_node1"><a xlink:href="../classes/Organization__cdmOrg:Salary.md" xlink:title="&lt;TABLE&gt;">
<polygon fill="lightgray" stroke="none" points="165.25,-124.88 165.25,-141.12 246.75,-141.12 246.75,-124.88 165.25,-124.88"/>
<text xml:space="preserve" text-anchor="start" x="166.25" y="-128.72" font-family="Arial" font-size="12.00">cdmOrg:Salary</text>
<polygon fill="none" stroke="black" points="164.25,-123.88 164.25,-142.12 247.75,-142.12 247.75,-123.88 164.25,-123.88"/>
</a>
</g>
</g>
<!-- cdmOrg_Compensation -->
<g id="node2" class="node">
<title>cdmOrg_Compensation</title>
<polygon fill="lightgray" stroke="none" points="143.5,-197.88 143.5,-214.12 268.5,-214.12 268.5,-197.88 143.5,-197.88"/>
<text xml:space="preserve" text-anchor="start" x="144.5" y="-201.72" font-family="Arial" font-size="12.00">cdmOrg:Compensation</text>
<polygon fill="none" stroke="black" points="142.5,-196.88 142.5,-215.12 269.5,-215.12 269.5,-196.88 142.5,-196.88"/>
</g>
<!-- cdmOrg_Salary&#45;&gt;cdmOrg_Compensation -->
<g id="edge1" class="edge">
<title>cdmOrg_Salary&#45;&gt;cdmOrg_Compensation</title>
<path fill="none" stroke="black" d="M206,-150.71C206,-158.47 206,-167.92 206,-176.74"/>
<polygon fill="none" stroke="black" points="202.5,-176.66 206,-186.66 209.5,-176.66 202.5,-176.66"/>
</g>
<!-- Invis -->
<!-- cdmOrg_Salary&#45;&gt;Invis -->
<!-- cityUnits_MonetaryValue -->
<g id="node4" class="node">
<title>cityUnits_MonetaryValue</title>
<polygon fill="lightgray" stroke="none" points="16.88,-25.88 16.88,-42.12 147.12,-42.12 147.12,-25.88 16.88,-25.88"/>
<text xml:space="preserve" text-anchor="start" x="17.88" y="-29.73" font-family="Arial" font-size="12.00">cityUnits:MonetaryValue</text>
<polygon fill="none" stroke="black" points="15.88,-24.88 15.88,-43.12 148.12,-43.12 148.12,-24.88 15.88,-24.88"/>
</g>
<!-- cdmOrg_Salary&#45;&gt;cityUnits_MonetaryValue -->
<g id="edge4" class="edge">
<title>cdmOrg_Salary&#45;&gt;cityUnits_MonetaryValue</title>
<path fill="none" stroke="black" d="M184.4,-115.1C164.49,-99.53 134.72,-76.24 112.41,-58.79"/>
<polygon fill="black" stroke="black" points="114.58,-56.04 104.54,-52.64 110.26,-61.55 114.58,-56.04"/>
<text xml:space="preserve" text-anchor="middle" x="207.88" y="-86.55" font-family="Arial" font-size="11.00"> cdmOrg:annualPay </text>
<text xml:space="preserve" text-anchor="middle" x="207.88" y="-73.05" font-family="Arial" font-size="11.00"> «max 1» &#160;</text>
</g>
<!-- Invis&#45;&gt;cityUnits_MonetaryValue -->
</g>
</svg>
