<?xml version="1.0" encoding="UTF-8" standalone="no"?>
<!DOCTYPE svg PUBLIC "-//W3C//DTD SVG 1.1//EN"
 "http://www.w3.org/Graphics/SVG/1.1/DTD/svg11.dtd">
<!-- Generated by graphviz version 14.0.2 (20251019.1705)
 -->
<!-- Pages: 1 -->
<svg width="344pt" height="305pt"
 viewBox="0.00 0.00 344.00 305.00" xmlns="http://www.w3.org/2000/svg" xmlns:xlink="http://www.w3.org/1999/xlink">
<g id="graph0" class="graph" transform="scale(1 1) rotate(0) translate(4 301)">
<polygon fill="white" stroke="none" points="-4,4 -4,-301 340.25,-301 340.25,4 -4,4"/>
<g id="clust2" class="cluster">
<title>cluster_associated</title>
</g>
<!-- cdmOrg_GovernmentOrganization -->
<g id="node1" class="node">
<title>cdmOrg_GovernmentOrganization</title>
<g id="a_node1"><a xlink:href="../classes/Organization__cdmOrg:GovernmentOrganization.md" xlink:title="&lt;TABLE&gt;">
<polygon fill="lightgray" stroke="none" points="154.75,-197.88 154.75,-214.12 335.25,-214.12 335.25,-197.88 154.75,-197.88"/>
<text xml:space="preserve" text-anchor="start" x="155.75" y="-201.72" font-family="Arial" font-size="12.00">cdmOrg:GovernmentOrganization</text>
<polygon fill="none" stroke="black" points="153.75,-196.88 153.75,-215.12 336.25,-215.12 336.25,-196.88 153.75,-196.88"/>
</a>
</g>
</g>
<!-- cdmOrg_Organization -->
<g id="node2" class="node">
<title>cdmOrg_Organization</title>
<polygon fill="lightgray" stroke="none" points="187.38,-270.88 187.38,-287.12 302.62,-287.12 302.62,-270.88 187.38,-270.88"/>
<text xml:space="preserve" text-anchor="start" x="188.38" y="-274.73" font-family="Arial" font-size="12.00">cdmOrg:Organization</text>
<polygon fill="none" stroke="black" points="186.38,-269.88 186.38,-288.12 303.62,-288.12 303.62,-269.88 186.38,-269.88"/>
</g>
<!-- cdmOrg_GovernmentOrganization&#45;&gt;cdmOrg_Organization -->
<g id="edge1" class="edge">
<title>cdmOrg_GovernmentOrganization&#45;&gt;cdmOrg_Organization</title>
<path fill="none" stroke="black" d="M245,-223.71C245,-231.47 245,-240.92 245,-249.74"/>
<polygon fill="none" stroke="black" points="241.5,-249.66 245,-259.66 248.5,-249.66 241.5,-249.66"/>
</g>
<!-- Invis -->
<!-- cdmOrg_GovernmentOrganization&#45;&gt;Invis -->
<!-- city_JurisdictionalArea -->
<g id="node4" class="node">
<title>city_JurisdictionalArea</title>
<polygon fill="lightgray" stroke="none" points="17.5,-98.88 17.5,-115.12 136.5,-115.12 136.5,-98.88 17.5,-98.88"/>
<text xml:space="preserve" text-anchor="start" x="18.5" y="-102.72" font-family="Arial" font-size="12.00">city:JurisdictionalArea</text>
<polygon fill="none" stroke="black" points="16.5,-97.88 16.5,-116.12 137.5,-116.12 137.5,-97.88 16.5,-97.88"/>
</g>
<!-- cdmOrg_GovernmentOrganization&#45;&gt;city_JurisdictionalArea -->
<g id="edge5" class="edge">
<title>cdmOrg_GovernmentOrganization&#45;&gt;city_JurisdictionalArea</title>
<path fill="none" stroke="black" d="M165.72,-188.06C152.69,-183.38 139.77,-177.46 128.5,-170 114.6,-160.8 102.48,-146.73 93.5,-134.32"/>
<polygon fill="black" stroke="black" points="96.4,-132.36 87.85,-126.1 90.63,-136.32 96.4,-132.36"/>
<text xml:space="preserve" text-anchor="middle" x="177.25" y="-159.55" font-family="Arial" font-size="11.00"> cdmOrg:jurisdiction </text>
<text xml:space="preserve" text-anchor="middle" x="177.25" y="-146.05" font-family="Arial" font-size="11.00"> «only» &#160;</text>
</g>
<!-- cityService_Program -->
<g id="node5" class="node">
<title>cityService_Program</title>
<polygon fill="lightgray" stroke="none" points="25.38,-25.88 25.38,-42.12 134.62,-42.12 134.62,-25.88 25.38,-25.88"/>
<text xml:space="preserve" text-anchor="start" x="26.38" y="-29.73" font-family="Arial" font-size="12.00">cityService:Program</text>
<polygon fill="none" stroke="black" points="24.38,-24.88 24.38,-43.12 135.62,-43.12 135.62,-24.88 24.38,-24.88"/>
</g>
<!-- cdmOrg_GovernmentOrganization&#45;&gt;cityService_Program -->
<g id="edge6" class="edge">
<title>cdmOrg_GovernmentOrganization&#45;&gt;cityService_Program</title>
<path fill="none" stroke="black" d="M242.8,-188.2C240.4,-174.95 235.56,-156.51 226,-143 199.68,-105.79 156.54,-76.17 123.96,-57.43"/>
<polygon fill="black" stroke="black" points="125.97,-54.55 115.54,-52.71 122.55,-60.65 125.97,-54.55"/>
<text xml:space="preserve" text-anchor="middle" x="263.84" y="-110.05" font-family="Arial" font-size="11.00"> cdmOrg:hasProgram </text>
<text xml:space="preserve" text-anchor="middle" x="263.84" y="-96.55" font-family="Arial" font-size="11.00"> «only» &#160;</text>
</g>
<!-- Invis&#45;&gt;city_JurisdictionalArea -->
<!-- city_JurisdictionalArea&#45;&gt;cityService_Program -->
</g>
</svg>
