<?xml version="1.0" encoding="UTF-8" standalone="no"?>
<!DOCTYPE svg PUBLIC "-//W3C//DTD SVG 1.1//EN"
 "http://www.w3.org/Graphics/SVG/1.1/DTD/svg11.dtd">
<!-- Generated by graphviz version 14.0.2 (20251019.1705)
 -->
<!-- Pages: 1 -->
<svg width="320pt" height="232pt"
 viewBox="0.00 0.00 320.00 232.00" xmlns="http://www.w3.org/2000/svg" xmlns:xlink="http://www.w3.org/1999/xlink">
<g id="graph0" class="graph" transform="scale(1 1) rotate(0) translate(4 228)">
<polygon fill="white" stroke="none" points="-4,4 -4,-228 316.12,-228 316.12,4 -4,4"/>
<g id="clust2" class="cluster">
<title>cluster_associated</title>
</g>
<!-- cdmOrg_Compensation -->
<g id="node1" class="node">
<title>cdmOrg_Compensation</title>
<g id="a_node1"><a xlink:href="../classes/Organization__cdmOrg:Compensation.md" xlink:title="&lt;TABLE&gt;">
<polygon fill="lightgray" stroke="none" points="165.5,-124.88 165.5,-141.12 290.5,-141.12 290.5,-124.88 165.5,-124.88"/>
<text xml:space="preserve" text-anchor="start" x="166.5" y="-128.72" font-family="Arial" font-size="12.00">cdmOrg:Compensation</text>
<polygon fill="none" stroke="black" points="164.5,-123.88 164.5,-142.12 291.5,-142.12 291.5,-123.88 164.5,-123.88"/>
</a>
</g>
</g>
<!-- cdmOrg_CityOrgOntologyThing -->
<g id="node2" class="node">
<title>cdmOrg_CityOrgOntologyThing</title>
<polygon fill="lightgray" stroke="none" points="144.88,-197.88 144.88,-214.12 311.12,-214.12 311.12,-197.88 144.88,-197.88"/>
<text xml:space="preserve" text-anchor="start" x="145.88" y="-201.72" font-family="Arial" font-size="12.00">cdmOrg:CityOrgOntologyThing</text>
<polygon fill="none" stroke="black" points="143.88,-196.88 143.88,-215.12 312.12,-215.12 312.12,-196.88 143.88,-196.88"/>
</g>
<!-- cdmOrg_Compensation&#45;&gt;cdmOrg_CityOrgOntologyThing -->
<g id="edge1" class="edge">
<title>cdmOrg_Compensation&#45;&gt;cdmOrg_CityOrgOntologyThing</title>
<path fill="none" stroke="black" d="M228,-150.71C228,-158.47 228,-167.92 228,-176.74"/>
<polygon fill="none" stroke="black" points="224.5,-176.66 228,-186.66 231.5,-176.66 224.5,-176.66"/>
</g>
<!-- Invis -->
<!-- cdmOrg_Compensation&#45;&gt;Invis -->
<!-- cityUnits_MonetaryValue -->
<g id="node4" class="node">
<title>cityUnits_MonetaryValue</title>
<polygon fill="lightgray" stroke="none" points="16.88,-25.88 16.88,-42.12 147.12,-42.12 147.12,-25.88 16.88,-25.88"/>
<text xml:space="preserve" text-anchor="start" x="17.88" y="-29.73" font-family="Arial" font-size="12.00">cityUnits:MonetaryValue</text>
<polygon fill="none" stroke="black" points="15.88,-24.88 15.88,-43.12 148.12,-43.12 148.12,-24.88 15.88,-24.88"/>
</g>
<!-- cdmOrg_Compensation&#45;&gt;cityUnits_MonetaryValue -->
<g id="edge4" class="edge">
<title>cdmOrg_Compensation&#45;&gt;cityUnits_MonetaryValue</title>
<path fill="none" stroke="black" d="M202.57,-115.1C178.7,-99.25 142.82,-75.41 116.4,-57.86"/>
<polygon fill="black" stroke="black" points="118.67,-55.16 108.4,-52.54 114.79,-60.99 118.67,-55.16"/>
<text xml:space="preserve" text-anchor="middle" x="214" y="-86.55" font-family="Arial" font-size="11.00"> cdmOrg:hasPay </text>
<text xml:space="preserve" text-anchor="middle" x="214" y="-73.05" font-family="Arial" font-size="11.00"> «max 1» &#160;</text>
</g>
<!-- Invis&#45;&gt;cityUnits_MonetaryValue -->
</g>
</svg>
