<?xml version="1.0" encoding="UTF-8" standalone="no"?>
<!DOCTYPE svg PUBLIC "-//W3C//DTD SVG 1.1//EN"
 "http://www.w3.org/Graphics/SVG/1.1/DTD/svg11.dtd">
<!-- Generated by graphviz version 14.0.2 (20251019.1705)
 -->
<!-- Pages: 1 -->
<svg width="322pt" height="305pt"
 viewBox="0.00 0.00 322.00 305.00" xmlns="http://www.w3.org/2000/svg" xmlns:xlink="http://www.w3.org/1999/xlink">
<g id="graph0" class="graph" transform="scale(1 1) rotate(0) translate(4 301)">
<polygon fill="white" stroke="none" points="-4,4 -4,-301 318.12,-301 318.12,4 -4,4"/>
<g id="clust2" class="cluster">
<title>cluster_associated</title>
</g>
<!-- cdmOrg_BusinessEstablishment -->
<g id="node1" class="node">
<title>cdmOrg_BusinessEstablishment</title>
<g id="a_node1"><a xlink:href="../classes/Organization__cdmOrg:BusinessEstablishment.md" xlink:title="&lt;TABLE&gt;">
<polygon fill="lightgray" stroke="none" points="140.88,-197.88 140.88,-214.12 313.12,-214.12 313.12,-197.88 140.88,-197.88"/>
<text xml:space="preserve" text-anchor="start" x="141.88" y="-201.72" font-family="Arial" font-size="12.00">cdmOrg:BusinessEstablishment</text>
<polygon fill="none" stroke="black" points="139.88,-196.88 139.88,-215.12 314.12,-215.12 314.12,-196.88 139.88,-196.88"/>
</a>
</g>
</g>
<!-- cdmOrg_CityOrgOntologyThing -->
<g id="node2" class="node">
<title>cdmOrg_CityOrgOntologyThing</title>
<polygon fill="lightgray" stroke="none" points="143.88,-270.88 143.88,-287.12 310.12,-287.12 310.12,-270.88 143.88,-270.88"/>
<text xml:space="preserve" text-anchor="start" x="144.88" y="-274.73" font-family="Arial" font-size="12.00">cdmOrg:CityOrgOntologyThing</text>
<polygon fill="none" stroke="black" points="142.88,-269.88 142.88,-288.12 311.12,-288.12 311.12,-269.88 142.88,-269.88"/>
</g>
<!-- cdmOrg_BusinessEstablishment&#45;&gt;cdmOrg_CityOrgOntologyThing -->
<g id="edge1" class="edge">
<title>cdmOrg_BusinessEstablishment&#45;&gt;cdmOrg_CityOrgOntologyThing</title>
<path fill="none" stroke="black" d="M227,-223.71C227,-231.47 227,-240.92 227,-249.74"/>
<polygon fill="none" stroke="black" points="223.5,-249.66 227,-259.66 230.5,-249.66 223.5,-249.66"/>
</g>
<!-- Invis -->
<!-- cdmOrg_BusinessEstablishment&#45;&gt;Invis -->
<!-- contact_/Address -->
<g id="node4" class="node">
<title>contact_/Address</title>
<polygon fill="lightgray" stroke="none" points="31.75,-98.88 31.75,-115.12 122.25,-115.12 122.25,-98.88 31.75,-98.88"/>
<text xml:space="preserve" text-anchor="start" x="32.75" y="-102.72" font-family="Arial" font-size="12.00">contact:/Address</text>
<polygon fill="none" stroke="black" points="30.75,-97.88 30.75,-116.12 123.25,-116.12 123.25,-97.88 30.75,-97.88"/>
</g>
<!-- cdmOrg_BusinessEstablishment&#45;&gt;contact_/Address -->
<g id="edge5" class="edge">
<title>cdmOrg_BusinessEstablishment&#45;&gt;contact_/Address</title>
<path fill="none" stroke="black" d="M140.46,-188.04C129.31,-183.41 118.62,-177.51 109.5,-170 98.65,-161.07 90.97,-147.56 85.82,-135.43"/>
<polygon fill="black" stroke="black" points="89.15,-134.35 82.31,-126.26 82.61,-136.85 89.15,-134.35"/>
<text xml:space="preserve" text-anchor="middle" x="159.75" y="-159.55" font-family="Arial" font-size="11.00"> contact:hasAddress </text>
<text xml:space="preserve" text-anchor="middle" x="159.75" y="-146.05" font-family="Arial" font-size="11.00"> «only» &#160;</text>
</g>
<!-- spatialLoc_Location -->
<g id="node5" class="node">
<title>spatialLoc_Location</title>
<polygon fill="lightgray" stroke="none" points="17.25,-25.88 17.25,-42.12 122.75,-42.12 122.75,-25.88 17.25,-25.88"/>
<text xml:space="preserve" text-anchor="start" x="18.25" y="-29.73" font-family="Arial" font-size="12.00">spatialLoc:Location</text>
<polygon fill="none" stroke="black" points="16.25,-24.88 16.25,-43.12 123.75,-43.12 123.75,-24.88 16.25,-24.88"/>
</g>
<!-- cdmOrg_BusinessEstablishment&#45;&gt;spatialLoc_Location -->
<g id="edge6" class="edge">
<title>cdmOrg_BusinessEstablishment&#45;&gt;spatialLoc_Location</title>
<path fill="none" stroke="black" d="M225.35,-188.26C223.39,-175.05 219.14,-156.63 210,-143 185.32,-106.19 143.95,-76.55 112.56,-57.7"/>
<polygon fill="black" stroke="black" points="114.46,-54.76 104.06,-52.73 110.93,-60.8 114.46,-54.76"/>
<text xml:space="preserve" text-anchor="middle" x="252.82" y="-110.05" font-family="Arial" font-size="11.00"> spatialLoc:hasLocation </text>
<text xml:space="preserve" text-anchor="middle" x="252.82" y="-96.55" font-family="Arial" font-size="11.00"> «max 1» &#160;</text>
</g>
<!-- Invis&#45;&gt;contact_/Address -->
<!-- contact_/Address&#45;&gt;spatialLoc_Location -->
</g>
</svg>
