<?xml version="1.0" encoding="UTF-8" standalone="no"?>
<!DOCTYPE svg PUBLIC "-//W3C//DTD SVG 1.1//EN"
 "http://www.w3.org/Graphics/SVG/1.1/DTD/svg11.dtd">
<!-- Generated by graphviz version 14.0.2 (20251019.1705)
 -->
<!-- Pages: 1 -->
<svg width="244pt" height="305pt"
 viewBox="0.00 0.00 244.00 305.00" xmlns="http://www.w3.org/2000/svg" xmlns:xlink="http://www.w3.org/1999/xlink">
<g id="graph0" class="graph" transform="scale(1 1) rotate(0) translate(4 301)">
<polygon fill="white" stroke="none" points="-4,4 -4,-301 240,-301 240,4 -4,4"/>
<g id="clust2" class="cluster">
<title>cluster_associated</title>
</g>
<!-- Wage -->
<g id="node1" class="node">
<title>Wage</title>
<g id="a_node1"><a xlink:href="../classes/Organization__Wage.md" xlink:title="&lt;TABLE&gt;">
<polygon fill="lightgray" stroke="none" points="178.25,-197.88 178.25,-214.12 211.75,-214.12 211.75,-197.88 178.25,-197.88"/>
<text xml:space="preserve" text-anchor="start" x="179.25" y="-201.72" font-family="Arial" font-size="12.00">Wage</text>
<polygon fill="none" stroke="black" points="177.25,-196.88 177.25,-215.12 212.75,-215.12 212.75,-196.88 177.25,-196.88"/>
</a>
</g>
</g>
<!-- Compensation -->
<g id="node2" class="node">
<title>Compensation</title>
<g id="a_node2"><a xlink:href="../_counters/Organization__Compensation.md" xlink:title="&lt;TABLE&gt;">
<polygon fill="lightgray" stroke="none" points="155,-270.88 155,-287.12 235,-287.12 235,-270.88 155,-270.88"/>
<text xml:space="preserve" text-anchor="start" x="156" y="-274.73" font-family="Arial" font-size="12.00">Compensation</text>
<polygon fill="none" stroke="black" points="154,-269.88 154,-288.12 236,-288.12 236,-269.88 154,-269.88"/>
</a>
</g>
</g>
<!-- Wage&#45;&gt;Compensation -->
<g id="edge1" class="edge">
<title>Wage&#45;&gt;Compensation</title>
<path fill="none" stroke="black" d="M195,-223.71C195,-231.47 195,-240.92 195,-249.74"/>
<polygon fill="none" stroke="black" points="191.5,-249.66 195,-259.66 198.5,-249.66 191.5,-249.66"/>
</g>
<!-- Invis -->
<!-- Wage&#45;&gt;Invis -->
<!-- cityUnits__MonetaryValue -->
<g id="node4" class="node">
<title>cityUnits__MonetaryValue</title>
<polygon fill="lightgray" stroke="none" points="17.38,-98.88 17.38,-115.12 150.62,-115.12 150.62,-98.88 17.38,-98.88"/>
<text xml:space="preserve" text-anchor="start" x="18.38" y="-102.72" font-family="Arial" font-size="12.00">cityUnits::MonetaryValue</text>
<polygon fill="none" stroke="black" points="16.38,-97.88 16.38,-116.12 151.62,-116.12 151.62,-97.88 16.38,-97.88"/>
</g>
<!-- Wage&#45;&gt;cityUnits__MonetaryValue -->
<g id="edge5" class="edge">
<title>Wage&#45;&gt;cityUnits__MonetaryValue</title>
<path fill="none" stroke="black" d="M168.08,-189.91C166.71,-189.25 165.34,-188.61 164,-188 142.47,-178.29 131.55,-185.8 114,-170 103.9,-160.91 96.85,-147.66 92.14,-135.75"/>
<polygon fill="black" stroke="black" points="95.45,-134.61 88.82,-126.34 88.85,-136.94 95.45,-134.61"/>
<text xml:space="preserve" text-anchor="middle" x="147" y="-159.55" font-family="Arial" font-size="11.00"> overtimePay </text>
<text xml:space="preserve" text-anchor="middle" x="147" y="-146.05" font-family="Arial" font-size="11.00"> «only» &#160;</text>
</g>
<!-- cityunits__MonetaryValue -->
<g id="node5" class="node">
<title>cityunits__MonetaryValue</title>
<polygon fill="lightgray" stroke="none" points="19.5,-25.88 19.5,-42.12 150.5,-42.12 150.5,-25.88 19.5,-25.88"/>
<text xml:space="preserve" text-anchor="start" x="20.5" y="-29.73" font-family="Arial" font-size="12.00">cityunits::MonetaryValue</text>
<polygon fill="none" stroke="black" points="18.5,-24.88 18.5,-43.12 151.5,-43.12 151.5,-24.88 18.5,-24.88"/>
</g>
<!-- Wage&#45;&gt;cityunits__MonetaryValue -->
<g id="edge6" class="edge">
<title>Wage&#45;&gt;cityunits__MonetaryValue</title>
<path fill="none" stroke="black" d="M193.8,-188.38C191.31,-164.26 183.73,-119.17 161,-89 151.84,-76.84 139.16,-66.33 126.77,-57.9"/>
<polygon fill="black" stroke="black" points="129,-55.17 118.7,-52.68 125.2,-61.05 129,-55.17"/>
<text xml:space="preserve" text-anchor="middle" x="206.64" y="-110.05" font-family="Arial" font-size="11.00"> hourlyPay </text>
<text xml:space="preserve" text-anchor="middle" x="206.64" y="-96.55" font-family="Arial" font-size="11.00"> «max 1» &#160;</text>
</g>
<!-- Invis&#45;&gt;cityUnits__MonetaryValue -->
<!-- cityUnits__MonetaryValue&#45;&gt;cityunits__MonetaryValue -->
</g>
</svg>
