<?xml version="1.0" encoding="UTF-8" standalone="no"?>
<!DOCTYPE svg PUBLIC "-//W3C//DTD SVG 1.1//EN"
 "http://www.w3.org/Graphics/SVG/1.1/DTD/svg11.dtd">
<!-- Generated by graphviz version 14.0.2 (20251019.1705)
 -->
<!-- Pages: 1 -->
<svg width="276pt" height="232pt"
 viewBox="0.00 0.00 276.00 232.00" xmlns="http://www.w3.org/2000/svg" xmlns:xlink="http://www.w3.org/1999/xlink">
<g id="graph0" class="graph" transform="scale(1 1) rotate(0) translate(4 228)">
<polygon fill="white" stroke="none" points="-4,4 -4,-228 272.25,-228 272.25,4 -4,4"/>
<g id="clust2" class="cluster">
<title>cluster_associated</title>
</g>
<!-- NonProfitOrganization -->
<g id="node1" class="node">
<title>NonProfitOrganization</title>
<g id="a_node1"><a xlink:href="../classes/Organization__NonProfitOrganization.md" xlink:title="&lt;TABLE&gt;">
<polygon fill="lightgray" stroke="none" points="146.75,-124.88 146.75,-141.12 267.25,-141.12 267.25,-124.88 146.75,-124.88"/>
<text xml:space="preserve" text-anchor="start" x="147.75" y="-128.72" font-family="Arial" font-size="12.00">NonProfitOrganization</text>
<polygon fill="none" stroke="black" points="145.75,-123.88 145.75,-142.12 268.25,-142.12 268.25,-123.88 145.75,-123.88"/>
</a>
</g>
</g>
<!-- Organization -->
<g id="node2" class="node">
<title>Organization</title>
<g id="a_node2"><a xlink:href="../_counters/Organization__Organization.md" xlink:title="&lt;TABLE&gt;">
<polygon fill="lightgray" stroke="none" points="171.88,-197.88 171.88,-214.12 242.12,-214.12 242.12,-197.88 171.88,-197.88"/>
<text xml:space="preserve" text-anchor="start" x="172.88" y="-201.72" font-family="Arial" font-size="12.00">Organization</text>
<polygon fill="none" stroke="black" points="170.88,-196.88 170.88,-215.12 243.12,-215.12 243.12,-196.88 170.88,-196.88"/>
</a>
</g>
</g>
<!-- NonProfitOrganization&#45;&gt;Organization -->
<g id="edge1" class="edge">
<title>NonProfitOrganization&#45;&gt;Organization</title>
<path fill="none" stroke="black" d="M207,-150.71C207,-158.47 207,-167.92 207,-176.74"/>
<polygon fill="none" stroke="black" points="203.5,-176.66 207,-186.66 210.5,-176.66 203.5,-176.66"/>
</g>
<!-- Invis -->
<!-- NonProfitOrganization&#45;&gt;Invis -->
<!-- cityService__Program -->
<g id="node4" class="node">
<title>cityService__Program</title>
<polygon fill="lightgray" stroke="none" points="16.88,-25.88 16.88,-42.12 129.12,-42.12 129.12,-25.88 16.88,-25.88"/>
<text xml:space="preserve" text-anchor="start" x="17.88" y="-29.73" font-family="Arial" font-size="12.00">cityService::Program</text>
<polygon fill="none" stroke="black" points="15.88,-24.88 15.88,-43.12 130.12,-43.12 130.12,-24.88 15.88,-24.88"/>
</g>
<!-- NonProfitOrganization&#45;&gt;cityService__Program -->
<g id="edge4" class="edge">
<title>NonProfitOrganization&#45;&gt;cityService__Program</title>
<path fill="none" stroke="black" d="M183.66,-115.1C161.95,-99.39 129.4,-75.83 105.22,-58.32"/>
<polygon fill="black" stroke="black" points="107.45,-55.62 97.3,-52.59 103.35,-61.29 107.45,-55.62"/>
<text xml:space="preserve" text-anchor="middle" x="188.57" y="-86.55" font-family="Arial" font-size="11.00"> hasProgram </text>
<text xml:space="preserve" text-anchor="middle" x="188.57" y="-73.05" font-family="Arial" font-size="11.00"> «only» &#160;</text>
</g>
<!-- Invis&#45;&gt;cityService__Program -->
</g>
</svg>
