<?xml version="1.0" encoding="UTF-8" standalone="no"?>
<!DOCTYPE svg PUBLIC "-//W3C//DTD SVG 1.1//EN"
 "http://www.w3.org/Graphics/SVG/1.1/DTD/svg11.dtd">
<!-- Generated by graphviz version 14.0.2 (20251019.1705)
 -->
<!-- Pages: 1 -->
<svg width="288pt" height="305pt"
 viewBox="0.00 0.00 288.00 305.00" xmlns="http://www.w3.org/2000/svg" xmlns:xlink="http://www.w3.org/1999/xlink">
<g id="graph0" class="graph" transform="scale(1 1) rotate(0) translate(4 301)">
<polygon fill="white" stroke="none" points="-4,4 -4,-301 284,-301 284,4 -4,4"/>
<g id="clust2" class="cluster">
<title>cluster_associated</title>
</g>
<!-- ForProfitOrganization -->
<g id="node1" class="node">
<title>ForProfitOrganization</title>
<g id="a_node1"><a xlink:href="../classes/Organization__ForProfitOrganization.md" xlink:title="&lt;TABLE&gt;">
<polygon fill="lightgray" stroke="none" points="163,-197.88 163,-214.12 279,-214.12 279,-197.88 163,-197.88"/>
<text xml:space="preserve" text-anchor="start" x="164" y="-201.72" font-family="Arial" font-size="12.00">ForProfitOrganization</text>
<polygon fill="none" stroke="black" points="162,-196.88 162,-215.12 280,-215.12 280,-196.88 162,-196.88"/>
</a>
</g>
</g>
<!-- Organization -->
<g id="node2" class="node">
<title>Organization</title>
<g id="a_node2"><a xlink:href="../_counters/Organization__Organization.md" xlink:title="&lt;TABLE&gt;">
<polygon fill="lightgray" stroke="none" points="185.88,-270.88 185.88,-287.12 256.12,-287.12 256.12,-270.88 185.88,-270.88"/>
<text xml:space="preserve" text-anchor="start" x="186.88" y="-274.73" font-family="Arial" font-size="12.00">Organization</text>
<polygon fill="none" stroke="black" points="184.88,-269.88 184.88,-288.12 257.12,-288.12 257.12,-269.88 184.88,-269.88"/>
</a>
</g>
</g>
<!-- ForProfitOrganization&#45;&gt;Organization -->
<g id="edge1" class="edge">
<title>ForProfitOrganization&#45;&gt;Organization</title>
<path fill="none" stroke="black" d="M221,-223.71C221,-231.47 221,-240.92 221,-249.74"/>
<polygon fill="none" stroke="black" points="217.5,-249.66 221,-259.66 224.5,-249.66 217.5,-249.66"/>
</g>
<!-- Invis -->
<!-- ForProfitOrganization&#45;&gt;Invis -->
<!-- BusinessEstablishment -->
<g id="node4" class="node">
<title>BusinessEstablishment</title>
<g id="a_node4"><a xlink:href="../_counters/Organization__BusinessEstablishment.md" xlink:title="&lt;TABLE&gt;">
<polygon fill="lightgray" stroke="none" points="17.38,-98.88 17.38,-115.12 144.62,-115.12 144.62,-98.88 17.38,-98.88"/>
<text xml:space="preserve" text-anchor="start" x="18.38" y="-102.72" font-family="Arial" font-size="12.00">BusinessEstablishment</text>
<polygon fill="none" stroke="black" points="16.38,-97.88 16.38,-116.12 145.62,-116.12 145.62,-97.88 16.38,-97.88"/>
</a>
</g>
</g>
<!-- ForProfitOrganization&#45;&gt;BusinessEstablishment -->
<g id="edge5" class="edge">
<title>ForProfitOrganization&#45;&gt;BusinessEstablishment</title>
<path fill="none" stroke="black" d="M163.13,-188.03C140.33,-180.97 118.53,-173.59 114.25,-170 103.43,-160.93 95.6,-147.41 90.27,-135.3"/>
<polygon fill="black" stroke="black" points="93.58,-134.15 86.62,-126.16 87.08,-136.75 93.58,-134.15"/>
<text xml:space="preserve" text-anchor="middle" x="159.62" y="-159.55" font-family="Arial" font-size="11.00"> hasEstablishment </text>
<text xml:space="preserve" text-anchor="middle" x="159.62" y="-146.05" font-family="Arial" font-size="11.00"> «only» &#160;</text>
</g>
<!-- IndustryType -->
<g id="node5" class="node">
<title>IndustryType</title>
<g id="a_node5"><a xlink:href="../_counters/Organization__IndustryType.md" xlink:title="&lt;TABLE&gt;">
<polygon fill="lightgray" stroke="none" points="60.88,-25.88 60.88,-42.12 131.12,-42.12 131.12,-25.88 60.88,-25.88"/>
<text xml:space="preserve" text-anchor="start" x="61.88" y="-29.73" font-family="Arial" font-size="12.00">IndustryType</text>
<polygon fill="none" stroke="black" points="59.88,-24.88 59.88,-43.12 132.12,-43.12 132.12,-24.88 59.88,-24.88"/>
</a>
</g>
</g>
<!-- ForProfitOrganization&#45;&gt;IndustryType -->
<g id="edge6" class="edge">
<title>ForProfitOrganization&#45;&gt;IndustryType</title>
<path fill="none" stroke="black" d="M218.94,-188.12C216.83,-175.16 212.72,-157.15 205,-143 186.44,-109 153.79,-78.78 129.05,-59.01"/>
<polygon fill="black" stroke="black" points="131.24,-56.28 121.2,-52.89 126.93,-61.8 131.24,-56.28"/>
<text xml:space="preserve" text-anchor="middle" x="235.03" y="-110.05" font-family="Arial" font-size="11.00"> hasIndustryType </text>
<text xml:space="preserve" text-anchor="middle" x="235.03" y="-96.55" font-family="Arial" font-size="11.00"> «only» &#160;</text>
</g>
<!-- Invis&#45;&gt;BusinessEstablishment -->
<!-- BusinessEstablishment&#45;&gt;IndustryType -->
</g>
</svg>
