<?xml version="1.0" encoding="UTF-8" standalone="no"?>
<!DOCTYPE svg PUBLIC "-//W3C//DTD SVG 1.1//EN"
 "http://www.w3.org/Graphics/SVG/1.1/DTD/svg11.dtd">
<!-- Generated by graphviz version 14.0.2 (20251019.1705)
 -->
<!-- Pages: 1 -->
<svg width="600pt" height="477pt"
 viewBox="0.00 0.00 600.00 477.00" xmlns="http://www.w3.org/2000/svg" xmlns:xlink="http://www.w3.org/1999/xlink">
<g id="graph0" class="graph" transform="scale(1 1) rotate(0) translate(4 473)">
<polygon fill="white" stroke="none" points="-4,4 -4,-473 595.5,-473 595.5,4 -4,4"/>
<g id="clust2" class="cluster">
<title>cluster_associated</title>
</g>
<!-- cdmOrg_Employment -->
<g id="node1" class="node">
<title>cdmOrg_Employment</title>
<g id="a_node1"><a xlink:href="../classes/Organization__cdmOrg:Employment.md" xlink:title="&lt;TABLE&gt;">
<polygon fill="lightgray" stroke="none" points="183.12,-369.88 183.12,-386.12 296.88,-386.12 296.88,-369.88 183.12,-369.88"/>
<text xml:space="preserve" text-anchor="start" x="184.12" y="-373.73" font-family="Arial" font-size="12.00">cdmOrg:Employment</text>
<polygon fill="none" stroke="black" points="182.12,-368.88 182.12,-387.12 297.88,-387.12 297.88,-368.88 182.12,-368.88"/>
</a>
</g>
</g>
<!-- cdmOrg_CityOrgOntologyThing -->
<g id="node2" class="node">
<title>cdmOrg_CityOrgOntologyThing</title>
<polygon fill="lightgray" stroke="none" points="156.88,-442.88 156.88,-459.12 323.12,-459.12 323.12,-442.88 156.88,-442.88"/>
<text xml:space="preserve" text-anchor="start" x="157.88" y="-446.73" font-family="Arial" font-size="12.00">cdmOrg:CityOrgOntologyThing</text>
<polygon fill="none" stroke="black" points="155.88,-441.88 155.88,-460.12 324.12,-460.12 324.12,-441.88 155.88,-441.88"/>
</g>
<!-- cdmOrg_Employment&#45;&gt;cdmOrg_CityOrgOntologyThing -->
<g id="edge1" class="edge">
<title>cdmOrg_Employment&#45;&gt;cdmOrg_CityOrgOntologyThing</title>
<path fill="none" stroke="black" d="M240,-395.71C240,-403.47 240,-412.92 240,-421.74"/>
<polygon fill="none" stroke="black" points="236.5,-421.66 240,-431.66 243.5,-421.66 236.5,-421.66"/>
</g>
<!-- Invis -->
<!-- cdmOrg_Employment&#45;&gt;Invis -->
<!-- cdmOrg_Compensation -->
<g id="node4" class="node">
<title>cdmOrg_Compensation</title>
<polygon fill="lightgray" stroke="none" points="17.5,-270.88 17.5,-287.12 142.5,-287.12 142.5,-270.88 17.5,-270.88"/>
<text xml:space="preserve" text-anchor="start" x="18.5" y="-274.73" font-family="Arial" font-size="12.00">cdmOrg:Compensation</text>
<polygon fill="none" stroke="black" points="16.5,-269.88 16.5,-288.12 143.5,-288.12 143.5,-269.88 16.5,-269.88"/>
</g>
<!-- cdmOrg_Employment&#45;&gt;cdmOrg_Compensation -->
<g id="edge10" class="edge">
<title>cdmOrg_Employment&#45;&gt;cdmOrg_Compensation</title>
<path fill="none" stroke="black" d="M182.29,-361C180.84,-360.66 179.41,-360.32 178,-360 156.58,-355.09 94.91,-358.81 80.75,-342 72.95,-332.74 71.86,-319.64 73.09,-307.87"/>
<polygon fill="black" stroke="black" points="76.51,-308.66 74.68,-298.23 69.6,-307.52 76.51,-308.66"/>
<text xml:space="preserve" text-anchor="middle" x="147.88" y="-331.55" font-family="Arial" font-size="11.00"> cdmOrg:hasCompensation </text>
<text xml:space="preserve" text-anchor="middle" x="147.88" y="-318.05" font-family="Arial" font-size="11.00"> «some» &#160;</text>
</g>
<!-- cdmOrg_EmploymentStatus -->
<g id="node5" class="node">
<title>cdmOrg_EmploymentStatus</title>
<polygon fill="lightgray" stroke="none" points="17.25,-171.88 17.25,-188.12 164.75,-188.12 164.75,-171.88 17.25,-171.88"/>
<text xml:space="preserve" text-anchor="start" x="18.25" y="-175.72" font-family="Arial" font-size="12.00">cdmOrg:EmploymentStatus</text>
<polygon fill="none" stroke="black" points="16.25,-170.88 16.25,-189.12 165.75,-189.12 165.75,-170.88 16.25,-170.88"/>
</g>
<!-- cdmOrg_Employment&#45;&gt;cdmOrg_EmploymentStatus -->
<g id="edge7" class="edge">
<title>cdmOrg_Employment&#45;&gt;cdmOrg_EmploymentStatus</title>
<path fill="none" stroke="black" d="M235.62,-360.1C231.66,-346.97 224.92,-328.74 215,-315 207.75,-304.97 202.6,-305.65 193.75,-297 163.56,-267.47 131.77,-230.55 111.69,-206.4"/>
<polygon fill="black" stroke="black" points="114.62,-204.46 105.55,-198.98 109.23,-208.91 114.62,-204.46"/>
<text xml:space="preserve" text-anchor="middle" x="271.38" y="-282.05" font-family="Arial" font-size="11.00"> cdmOrg:hasEmploymentStatus </text>
<text xml:space="preserve" text-anchor="middle" x="271.38" y="-268.55" font-family="Arial" font-size="11.00"> «only» &#160;</text>
</g>
<!-- cdmOrg_Occupation -->
<g id="node6" class="node">
<title>cdmOrg_Occupation</title>
<polygon fill="lightgray" stroke="none" points="53.12,-98.88 53.12,-115.12 160.88,-115.12 160.88,-98.88 53.12,-98.88"/>
<text xml:space="preserve" text-anchor="start" x="54.12" y="-102.72" font-family="Arial" font-size="12.00">cdmOrg:Occupation</text>
<polygon fill="none" stroke="black" points="52.12,-97.88 52.12,-116.12 161.88,-116.12 161.88,-97.88 52.12,-97.88"/>
</g>
<!-- cdmOrg_Employment&#45;&gt;cdmOrg_Occupation -->
<g id="edge9" class="edge">
<title>cdmOrg_Employment&#45;&gt;cdmOrg_Occupation</title>
<path fill="none" stroke="black" d="M277.02,-360.09C316.81,-339.36 371.53,-301.91 349,-261 311.69,-193.27 230.36,-151.36 172.29,-128.9"/>
<polygon fill="black" stroke="black" points="173.74,-125.7 163.15,-125.46 171.28,-132.25 173.74,-125.7"/>
<text xml:space="preserve" text-anchor="middle" x="389.63" y="-232.55" font-family="Arial" font-size="11.00"> cdmOrg:employedAs </text>
<text xml:space="preserve" text-anchor="middle" x="389.63" y="-219.05" font-family="Arial" font-size="11.00"> «only» &#160;</text>
</g>
<!-- cdmOrg_Organization -->
<g id="node7" class="node">
<title>cdmOrg_Organization</title>
<polygon fill="lightgray" stroke="none" points="49.38,-25.88 49.38,-42.12 164.62,-42.12 164.62,-25.88 49.38,-25.88"/>
<text xml:space="preserve" text-anchor="start" x="50.38" y="-29.73" font-family="Arial" font-size="12.00">cdmOrg:Organization</text>
<polygon fill="none" stroke="black" points="48.38,-24.88 48.38,-43.12 165.62,-43.12 165.62,-24.88 48.38,-24.88"/>
</g>
<!-- cdmOrg_Employment&#45;&gt;cdmOrg_Organization -->
<g id="edge8" class="edge">
<title>cdmOrg_Employment&#45;&gt;cdmOrg_Organization</title>
<path fill="none" stroke="black" d="M297.75,-366.1C370.18,-350.75 485,-320.09 485,-280 485,-280 485,-280 485,-106 485,-43.93 285.63,-34.57 176.47,-34.09"/>
<polygon fill="black" stroke="black" points="176.75,-30.59 166.75,-34.08 176.74,-37.59 176.75,-30.59"/>
<text xml:space="preserve" text-anchor="middle" x="538.25" y="-183.05" font-family="Arial" font-size="11.00"> cdmOrg:employedBy </text>
<text xml:space="preserve" text-anchor="middle" x="538.25" y="-169.55" font-family="Arial" font-size="11.00"> «some» &#160;</text>
</g>
<!-- Invis&#45;&gt;cdmOrg_Compensation -->
<!-- cdmOrg_Compensation&#45;&gt;cdmOrg_EmploymentStatus -->
<!-- cdmOrg_EmploymentStatus&#45;&gt;cdmOrg_Occupation -->
<!-- cdmOrg_Occupation&#45;&gt;cdmOrg_Organization -->
</g>
</svg>
