<?xml version="1.0" encoding="UTF-8" standalone="no"?>
<!DOCTYPE svg PUBLIC "-//W3C//DTD SVG 1.1//EN"
 "http://www.w3.org/Graphics/SVG/1.1/DTD/svg11.dtd">
<!-- Generated by graphviz version 14.0.2 (20251019.1705)
 -->
<!-- Pages: 1 -->
<svg width="266pt" height="132pt"
 viewBox="0.00 0.00 266.00 132.00" xmlns="http://www.w3.org/2000/svg" xmlns:xlink="http://www.w3.org/1999/xlink">
<g id="graph0" class="graph" transform="scale(1 1) rotate(0) translate(4 128)">
<polygon fill="white" stroke="none" points="-4,4 -4,-128 261.88,-128 261.88,4 -4,4"/>
<g id="clust2" class="cluster">
<title>cluster_associated</title>
</g>
<!-- cdmOrg_Goal -->
<g id="node1" class="node">
<title>cdmOrg_Goal</title>
<g id="a_node1"><a xlink:href="../classes/Organization__cdmOrg:Goal.md" xlink:title="&lt;TABLE&gt;">
<polygon fill="lightgray" stroke="none" points="68.5,-25.88 68.5,-42.12 141,-42.12 141,-25.88 68.5,-25.88"/>
<text xml:space="preserve" text-anchor="start" x="69.5" y="-29.73" font-family="Arial" font-size="12.00">cdmOrg:Goal</text>
<polygon fill="none" stroke="black" points="67.5,-24.88 67.5,-43.12 142,-43.12 142,-24.88 67.5,-24.88"/>
</a>
</g>
</g>
<!-- activity_State -->
<g id="node2" class="node">
<title>activity_State</title>
<polygon fill="lightgray" stroke="none" points="1,-97.88 1,-114.12 70.5,-114.12 70.5,-97.88 1,-97.88"/>
<text xml:space="preserve" text-anchor="start" x="2" y="-101.72" font-family="Arial" font-size="12.00">activity:State</text>
<polygon fill="none" stroke="black" points="0,-96.88 0,-115.12 71.5,-115.12 71.5,-96.88 0,-96.88"/>
</g>
<!-- cdmOrg_Goal&#45;&gt;activity_State -->
<g id="edge1" class="edge">
<title>cdmOrg_Goal&#45;&gt;activity_State</title>
<path fill="none" stroke="black" d="M88.2,-51.79C79.92,-60.19 69.72,-70.53 60.53,-79.86"/>
<polygon fill="none" stroke="black" points="58.04,-77.4 53.52,-86.98 63.03,-82.31 58.04,-77.4"/>
</g>
<!-- cdmOrg_CityOrgOntologyThing -->
<g id="node3" class="node">
<title>cdmOrg_CityOrgOntologyThing</title>
<polygon fill="lightgray" stroke="none" points="90.62,-97.88 90.62,-114.12 256.88,-114.12 256.88,-97.88 90.62,-97.88"/>
<text xml:space="preserve" text-anchor="start" x="91.62" y="-101.72" font-family="Arial" font-size="12.00">cdmOrg:CityOrgOntologyThing</text>
<polygon fill="none" stroke="black" points="89.62,-96.88 89.62,-115.12 257.88,-115.12 257.88,-96.88 89.62,-96.88"/>
</g>
<!-- cdmOrg_Goal&#45;&gt;cdmOrg_CityOrgOntologyThing -->
<g id="edge2" class="edge">
<title>cdmOrg_Goal&#45;&gt;cdmOrg_CityOrgOntologyThing</title>
<path fill="none" stroke="black" d="M121.3,-51.79C129.58,-60.19 139.78,-70.53 148.97,-79.86"/>
<polygon fill="none" stroke="black" points="146.47,-82.31 155.98,-86.98 151.46,-77.4 146.47,-82.31"/>
</g>
<!-- Invis -->
</g>
</svg>
