<?xml version="1.0" encoding="UTF-8" standalone="no"?>
<!DOCTYPE svg PUBLIC "-//W3C//DTD SVG 1.1//EN"
 "http://www.w3.org/Graphics/SVG/1.1/DTD/svg11.dtd">
<!-- Generated by graphviz version 14.0.2 (20251019.1705)
 -->
<!-- Pages: 1 -->
<svg width="235pt" height="132pt"
 viewBox="0.00 0.00 235.00 132.00" xmlns="http://www.w3.org/2000/svg" xmlns:xlink="http://www.w3.org/1999/xlink">
<g id="graph0" class="graph" transform="scale(1 1) rotate(0) translate(4 128)">
<polygon fill="white" stroke="none" points="-4,4 -4,-128 231.12,-128 231.12,4 -4,4"/>
<g id="clust2" class="cluster">
<title>cluster_associated</title>
</g>
<!-- cdmOrg_Occupation -->
<g id="node1" class="node">
<title>cdmOrg_Occupation</title>
<g id="a_node1"><a xlink:href="../classes/Organization__cdmOrg:Occupation.md" xlink:title="&lt;TABLE&gt;">
<polygon fill="lightgray" stroke="none" points="30.25,-25.88 30.25,-42.12 138,-42.12 138,-25.88 30.25,-25.88"/>
<text xml:space="preserve" text-anchor="start" x="31.25" y="-29.73" font-family="Arial" font-size="12.00">cdmOrg:Occupation</text>
<polygon fill="none" stroke="black" points="29.25,-24.88 29.25,-43.12 139,-43.12 139,-24.88 29.25,-24.88"/>
</a>
</g>
</g>
<!-- cdmOrg_CityOrgOntologyThing -->
<g id="node2" class="node">
<title>cdmOrg_CityOrgOntologyThing</title>
<polygon fill="lightgray" stroke="none" points="1,-97.88 1,-114.12 167.25,-114.12 167.25,-97.88 1,-97.88"/>
<text xml:space="preserve" text-anchor="start" x="2" y="-101.72" font-family="Arial" font-size="12.00">cdmOrg:CityOrgOntologyThing</text>
<polygon fill="none" stroke="black" points="0,-96.88 0,-115.12 168.25,-115.12 168.25,-96.88 0,-96.88"/>
</g>
<!-- cdmOrg_Occupation&#45;&gt;cdmOrg_CityOrgOntologyThing -->
<g id="edge1" class="edge">
<title>cdmOrg_Occupation&#45;&gt;cdmOrg_CityOrgOntologyThing</title>
<path fill="none" stroke="black" d="M84.12,-51.79C84.12,-59.25 84.12,-68.24 84.12,-76.69"/>
<polygon fill="none" stroke="black" points="80.63,-76.54 84.13,-86.54 87.63,-76.54 80.63,-76.54"/>
</g>
<!-- Invis -->
</g>
</svg>
