<?xml version="1.0" encoding="UTF-8" standalone="no"?>
<!DOCTYPE svg PUBLIC "-//W3C//DTD SVG 1.1//EN"
 "http://www.w3.org/Graphics/SVG/1.1/DTD/svg11.dtd">
<!-- Generated by graphviz version 14.0.2 (20251019.1705)
 -->
<!-- Pages: 1 -->
<svg width="279pt" height="232pt"
 viewBox="0.00 0.00 279.00 232.00" xmlns="http://www.w3.org/2000/svg" xmlns:xlink="http://www.w3.org/1999/xlink">
<g id="graph0" class="graph" transform="scale(1 1) rotate(0) translate(4 228)">
<polygon fill="white" stroke="none" points="-4,4 -4,-228 274.62,-228 274.62,4 -4,4"/>
<g id="clust2" class="cluster">
<title>cluster_associated</title>
</g>
<!-- Compensation -->
<g id="node1" class="node">
<title>Compensation</title>
<g id="a_node1"><a xlink:href="../classes/Organization__Compensation.md" xlink:title="&lt;TABLE&gt;">
<polygon fill="lightgray" stroke="none" points="169,-124.88 169,-141.12 249,-141.12 249,-124.88 169,-124.88"/>
<text xml:space="preserve" text-anchor="start" x="170" y="-128.72" font-family="Arial" font-size="12.00">Compensation</text>
<polygon fill="none" stroke="black" points="168,-123.88 168,-142.12 250,-142.12 250,-123.88 168,-123.88"/>
</a>
</g>
</g>
<!-- CityOrgOntologyThing -->
<g id="node2" class="node">
<title>CityOrgOntologyThing</title>
<g id="a_node2"><a xlink:href="../_counters/Organization__CityOrgOntologyThing.md" xlink:title="&lt;TABLE&gt;">
<polygon fill="lightgray" stroke="none" points="148.38,-197.88 148.38,-214.12 269.62,-214.12 269.62,-197.88 148.38,-197.88"/>
<text xml:space="preserve" text-anchor="start" x="149.38" y="-201.72" font-family="Arial" font-size="12.00">CityOrgOntologyThing</text>
<polygon fill="none" stroke="black" points="147.38,-196.88 147.38,-215.12 270.62,-215.12 270.62,-196.88 147.38,-196.88"/>
</a>
</g>
</g>
<!-- Compensation&#45;&gt;CityOrgOntologyThing -->
<g id="edge1" class="edge">
<title>Compensation&#45;&gt;CityOrgOntologyThing</title>
<path fill="none" stroke="black" d="M209,-150.71C209,-158.47 209,-167.92 209,-176.74"/>
<polygon fill="none" stroke="black" points="205.5,-176.66 209,-186.66 212.5,-176.66 205.5,-176.66"/>
</g>
<!-- Invis -->
<!-- Compensation&#45;&gt;Invis -->
<!-- cityUnits__MonetaryValue -->
<g id="node4" class="node">
<title>cityUnits__MonetaryValue</title>
<polygon fill="lightgray" stroke="none" points="17.38,-25.88 17.38,-42.12 150.62,-42.12 150.62,-25.88 17.38,-25.88"/>
<text xml:space="preserve" text-anchor="start" x="18.38" y="-29.73" font-family="Arial" font-size="12.00">cityUnits::MonetaryValue</text>
<polygon fill="none" stroke="black" points="16.38,-24.88 16.38,-43.12 151.62,-43.12 151.62,-24.88 16.38,-24.88"/>
</g>
<!-- Compensation&#45;&gt;cityUnits__MonetaryValue -->
<g id="edge4" class="edge">
<title>Compensation&#45;&gt;cityUnits__MonetaryValue</title>
<path fill="none" stroke="black" d="M187.23,-115.1C167.06,-99.46 136.88,-76.03 114.35,-58.55"/>
<polygon fill="black" stroke="black" points="116.77,-56 106.72,-52.63 112.47,-61.53 116.77,-56"/>
<text xml:space="preserve" text-anchor="middle" x="186.5" y="-86.55" font-family="Arial" font-size="11.00"> hasPay </text>
<text xml:space="preserve" text-anchor="middle" x="186.5" y="-73.05" font-family="Arial" font-size="11.00"> «max 1» &#160;</text>
</g>
<!-- Invis&#45;&gt;cityUnits__MonetaryValue -->
</g>
</svg>
