<?xml version="1.0" encoding="UTF-8" standalone="no"?>
<!DOCTYPE svg PUBLIC "-//W3C//DTD SVG 1.1//EN"
 "http://www.w3.org/Graphics/SVG/1.1/DTD/svg11.dtd">
<!-- Generated by graphviz version 14.0.2 (20251019.1705)
 -->
<!-- Pages: 1 -->
<svg width="351pt" height="404pt"
 viewBox="0.00 0.00 351.00 404.00" xmlns="http://www.w3.org/2000/svg" xmlns:xlink="http://www.w3.org/1999/xlink">
<g id="graph0" class="graph" transform="scale(1 1) rotate(0) translate(4 400)">
<polygon fill="white" stroke="none" points="-4,4 -4,-400 347.04,-400 347.04,4 -4,4"/>
<g id="clust2" class="cluster">
<title>cluster_associated</title>
</g>
<!-- cdmOrg_Role -->
<g id="node1" class="node">
<title>cdmOrg_Role</title>
<g id="a_node1"><a xlink:href="../classes/Organization__cdmOrg:Role.md" xlink:title="&lt;TABLE&gt;">
<polygon fill="lightgray" stroke="none" points="138.75,-296.88 138.75,-313.12 211.25,-313.12 211.25,-296.88 138.75,-296.88"/>
<text xml:space="preserve" text-anchor="start" x="139.75" y="-300.73" font-family="Arial" font-size="12.00">cdmOrg:Role</text>
<polygon fill="none" stroke="black" points="137.75,-295.88 137.75,-314.12 212.25,-314.12 212.25,-295.88 137.75,-295.88"/>
</a>
</g>
</g>
<!-- cdmOrg_CityOrgOntologyThing -->
<g id="node2" class="node">
<title>cdmOrg_CityOrgOntologyThing</title>
<polygon fill="lightgray" stroke="none" points="26.88,-369.88 26.88,-386.12 193.12,-386.12 193.12,-369.88 26.88,-369.88"/>
<text xml:space="preserve" text-anchor="start" x="27.88" y="-373.73" font-family="Arial" font-size="12.00">cdmOrg:CityOrgOntologyThing</text>
<polygon fill="none" stroke="black" points="25.88,-368.88 25.88,-387.12 194.12,-387.12 194.12,-368.88 25.88,-368.88"/>
</g>
<!-- cdmOrg_Role&#45;&gt;cdmOrg_CityOrgOntologyThing -->
<g id="edge1" class="edge">
<title>cdmOrg_Role&#45;&gt;cdmOrg_CityOrgOntologyThing</title>
<path fill="none" stroke="black" d="M159.71,-322.71C151.79,-331.35 141.96,-342.09 133.14,-351.72"/>
<polygon fill="none" stroke="black" points="130.6,-349.32 126.43,-359.06 135.76,-354.05 130.6,-349.32"/>
</g>
<!-- org_Role -->
<g id="node3" class="node">
<title>org_Role</title>
<polygon fill="lightgray" stroke="none" points="215.12,-369.88 215.12,-386.12 262.88,-386.12 262.88,-369.88 215.12,-369.88"/>
<text xml:space="preserve" text-anchor="start" x="216.12" y="-373.73" font-family="Arial" font-size="12.00">org:Role</text>
<polygon fill="none" stroke="black" points="214.12,-368.88 214.12,-387.12 263.88,-387.12 263.88,-368.88 214.12,-368.88"/>
</g>
<!-- cdmOrg_Role&#45;&gt;org_Role -->
<g id="edge2" class="edge">
<title>cdmOrg_Role&#45;&gt;org_Role</title>
<path fill="none" stroke="black" d="M190.06,-322.71C197.85,-331.35 207.53,-342.09 216.22,-351.72"/>
<polygon fill="none" stroke="black" points="213.52,-353.97 222.82,-359.05 218.72,-349.28 213.52,-353.97"/>
</g>
<!-- Invis -->
<!-- cdmOrg_Role&#45;&gt;Invis -->
<!-- activity_Activity -->
<g id="node5" class="node">
<title>activity_Activity</title>
<polygon fill="lightgray" stroke="none" points="17,-197.88 17,-214.12 97,-214.12 97,-197.88 17,-197.88"/>
<text xml:space="preserve" text-anchor="start" x="18" y="-201.72" font-family="Arial" font-size="12.00">activity:Activity</text>
<polygon fill="none" stroke="black" points="16,-196.88 16,-215.12 98,-215.12 98,-196.88 16,-196.88"/>
</g>
<!-- cdmOrg_Role&#45;&gt;activity_Activity -->
<g id="edge9" class="edge">
<title>cdmOrg_Role&#45;&gt;activity_Activity</title>
<path fill="none" stroke="black" d="M138,-288.34C136.66,-287.88 135.32,-287.43 134,-287 100.76,-276.28 79.3,-296.29 57.5,-269 49.99,-259.6 48.95,-246.59 50.15,-234.92"/>
<polygon fill="black" stroke="black" points="53.55,-235.8 51.7,-225.37 46.64,-234.67 53.55,-235.8"/>
<text xml:space="preserve" text-anchor="middle" x="109.25" y="-258.55" font-family="Arial" font-size="11.00"> cdmOrg:hasProcess </text>
<text xml:space="preserve" text-anchor="middle" x="109.25" y="-245.05" font-family="Arial" font-size="11.00"> «only» &#160;</text>
</g>
<!-- cdmOrg_Goal -->
<g id="node6" class="node">
<title>cdmOrg_Goal</title>
<polygon fill="lightgray" stroke="none" points="32.75,-98.88 32.75,-115.12 105.25,-115.12 105.25,-98.88 32.75,-98.88"/>
<text xml:space="preserve" text-anchor="start" x="33.75" y="-102.72" font-family="Arial" font-size="12.00">cdmOrg:Goal</text>
<polygon fill="none" stroke="black" points="31.75,-97.88 31.75,-116.12 106.25,-116.12 106.25,-97.88 31.75,-97.88"/>
</g>
<!-- cdmOrg_Role&#45;&gt;cdmOrg_Goal -->
<g id="edge7" class="edge">
<title>cdmOrg_Role&#45;&gt;cdmOrg_Goal</title>
<path fill="none" stroke="black" d="M172.96,-287.14C171,-274.36 167.36,-256.56 161,-242 143.09,-201 112.08,-159.4 91.07,-133.65"/>
<polygon fill="black" stroke="black" points="93.86,-131.55 84.78,-126.08 88.48,-136.02 93.86,-131.55"/>
<text xml:space="preserve" text-anchor="middle" x="194.9" y="-209.05" font-family="Arial" font-size="11.00"> cdmOrg:hasGoal </text>
<text xml:space="preserve" text-anchor="middle" x="194.9" y="-195.55" font-family="Arial" font-size="11.00"> «only» &#160;</text>
</g>
<!-- resource_Resource -->
<g id="node7" class="node">
<title>resource_Resource</title>
<polygon fill="lightgray" stroke="none" points="17.38,-25.88 17.38,-42.12 120.62,-42.12 120.62,-25.88 17.38,-25.88"/>
<text xml:space="preserve" text-anchor="start" x="18.38" y="-29.73" font-family="Arial" font-size="12.00">resource:Resource</text>
<polygon fill="none" stroke="black" points="16.38,-24.88 16.38,-43.12 121.62,-43.12 121.62,-24.88 16.38,-24.88"/>
</g>
<!-- cdmOrg_Role&#45;&gt;resource_Resource -->
<g id="edge8" class="edge">
<title>cdmOrg_Role&#45;&gt;resource_Resource</title>
<path fill="none" stroke="black" d="M196.34,-287.28C221.7,-265.22 258.62,-224.89 242,-188 215.24,-128.61 152.76,-82.97 110.68,-57.56"/>
<polygon fill="black" stroke="black" points="112.68,-54.67 102.29,-52.61 109.13,-60.7 112.68,-54.67"/>
<text xml:space="preserve" text-anchor="middle" x="287.54" y="-159.55" font-family="Arial" font-size="11.00"> cdmOrg:hasResource </text>
<text xml:space="preserve" text-anchor="middle" x="287.54" y="-146.05" font-family="Arial" font-size="11.00"> «only» &#160;</text>
</g>
<!-- Invis&#45;&gt;activity_Activity -->
<!-- activity_Activity&#45;&gt;cdmOrg_Goal -->
<!-- cdmOrg_Goal&#45;&gt;resource_Resource -->
</g>
</svg>
