<?xml version="1.0" encoding="UTF-8" standalone="no"?>
<!DOCTYPE svg PUBLIC "-//W3C//DTD SVG 1.1//EN"
 "http://www.w3.org/Graphics/SVG/1.1/DTD/svg11.dtd">
<!-- Generated by graphviz version 14.0.2 (20251019.1705)
 -->
<!-- Pages: 1 -->
<svg width="284pt" height="305pt"
 viewBox="0.00 0.00 284.00 305.00" xmlns="http://www.w3.org/2000/svg" xmlns:xlink="http://www.w3.org/1999/xlink">
<g id="graph0" class="graph" transform="scale(1 1) rotate(0) translate(4 301)">
<polygon fill="white" stroke="none" points="-4,4 -4,-301 280.15,-301 280.15,4 -4,4"/>
<g id="clust2" class="cluster">
<title>cluster_associated</title>
</g>
<!-- person_Citizenship -->
<g id="node1" class="node">
<title>person_Citizenship</title>
<g id="a_node1"><a xlink:href="../classes/Person__person:Citizenship.md" xlink:title="&lt;TABLE&gt;">
<polygon fill="lightgray" stroke="none" points="141.12,-197.88 141.12,-214.12 242.88,-214.12 242.88,-197.88 141.12,-197.88"/>
<text xml:space="preserve" text-anchor="start" x="142.12" y="-201.72" font-family="Arial" font-size="12.00">person:Citizenship</text>
<polygon fill="none" stroke="black" points="140.12,-196.88 140.12,-215.12 243.88,-215.12 243.88,-196.88 140.12,-196.88"/>
</a>
</g>
</g>
<!-- person_PersonOntologyThing -->
<g id="node2" class="node">
<title>person_PersonOntologyThing</title>
<polygon fill="lightgray" stroke="none" points="112.62,-270.88 112.62,-287.12 271.38,-287.12 271.38,-270.88 112.62,-270.88"/>
<text xml:space="preserve" text-anchor="start" x="113.62" y="-274.73" font-family="Arial" font-size="12.00">person:PersonOntologyThing</text>
<polygon fill="none" stroke="black" points="111.62,-269.88 111.62,-288.12 272.38,-288.12 272.38,-269.88 111.62,-269.88"/>
</g>
<!-- person_Citizenship&#45;&gt;person_PersonOntologyThing -->
<g id="edge1" class="edge">
<title>person_Citizenship&#45;&gt;person_PersonOntologyThing</title>
<path fill="none" stroke="black" d="M192,-223.71C192,-231.47 192,-240.92 192,-249.74"/>
<polygon fill="none" stroke="black" points="188.5,-249.66 192,-259.66 195.5,-249.66 188.5,-249.66"/>
</g>
<!-- Invis -->
<!-- person_Citizenship&#45;&gt;Invis -->
<!-- contact_/Country -->
<g id="node4" class="node">
<title>contact_/Country</title>
<polygon fill="lightgray" stroke="none" points="25.88,-98.88 25.88,-115.12 114.12,-115.12 114.12,-98.88 25.88,-98.88"/>
<text xml:space="preserve" text-anchor="start" x="26.88" y="-102.72" font-family="Arial" font-size="12.00">contact:/Country</text>
<polygon fill="none" stroke="black" points="24.88,-97.88 24.88,-116.12 115.12,-116.12 115.12,-97.88 24.88,-97.88"/>
</g>
<!-- person_Citizenship&#45;&gt;contact_/Country -->
<g id="edge5" class="edge">
<title>person_Citizenship&#45;&gt;contact_/Country</title>
<path fill="none" stroke="black" d="M140.3,-188.55C115.66,-180.51 91.05,-172.12 89,-170 80.18,-160.91 75.44,-147.84 72.9,-136.03"/>
<polygon fill="black" stroke="black" points="76.38,-135.63 71.28,-126.35 69.48,-136.79 76.38,-135.63"/>
<text xml:space="preserve" text-anchor="middle" x="135.5" y="-159.55" font-family="Arial" font-size="11.00"> person:forCountry </text>
<text xml:space="preserve" text-anchor="middle" x="135.5" y="-146.05" font-family="Arial" font-size="11.00"> «max 1» &#160;</text>
</g>
<!-- time__ProperInterval -->
<g id="node5" class="node">
<title>time__ProperInterval</title>
<polygon fill="lightgray" stroke="none" points="17.25,-25.88 17.25,-42.12 122.75,-42.12 122.75,-25.88 17.25,-25.88"/>
<text xml:space="preserve" text-anchor="start" x="18.25" y="-29.73" font-family="Arial" font-size="12.00">time::ProperInterval</text>
<polygon fill="none" stroke="black" points="16.25,-24.88 16.25,-43.12 123.75,-43.12 123.75,-24.88 16.25,-24.88"/>
</g>
<!-- person_Citizenship&#45;&gt;time__ProperInterval -->
<g id="edge6" class="edge">
<title>person_Citizenship&#45;&gt;time__ProperInterval</title>
<path fill="none" stroke="black" d="M192.12,-188.04C191.56,-175.04 189.32,-157.01 182,-143 163.83,-108.25 130.25,-78.18 104.58,-58.66"/>
<polygon fill="black" stroke="black" points="106.86,-55.99 96.74,-52.86 102.7,-61.62 106.86,-55.99"/>
<text xml:space="preserve" text-anchor="middle" x="223.28" y="-110.05" font-family="Arial" font-size="11.00"> person:validityPeriod </text>
<text xml:space="preserve" text-anchor="middle" x="223.28" y="-96.55" font-family="Arial" font-size="11.00"> «max 1» &#160;</text>
</g>
<!-- Invis&#45;&gt;contact_/Country -->
<!-- contact_/Country&#45;&gt;time__ProperInterval -->
</g>
</svg>
