<?xml version="1.0" encoding="UTF-8" standalone="no"?>
<!DOCTYPE svg PUBLIC "-//W3C//DTD SVG 1.1//EN"
 "http://www.w3.org/Graphics/SVG/1.1/DTD/svg11.dtd">
<!-- Generated by graphviz version 14.0.2 (20251019.1705)
 -->
<!-- Pages: 1 -->
<svg width="218pt" height="132pt"
 viewBox="0.00 0.00 218.00 132.00" xmlns="http://www.w3.org/2000/svg" xmlns:xlink="http://www.w3.org/1999/xlink">
<g id="graph0" class="graph" transform="scale(1 1) rotate(0) translate(4 128)">
<polygon fill="white" stroke="none" points="-4,4 -4,-128 214.38,-128 214.38,4 -4,4"/>
<g id="clust2" class="cluster">
<title>cluster_associated</title>
</g>
<!-- person_Gender -->
<g id="node1" class="node">
<title>person_Gender</title>
<g id="a_node1"><a xlink:href="../classes/Person__person:Gender.md" xlink:title="&lt;TABLE&gt;">
<polygon fill="lightgray" stroke="none" points="39.62,-25.88 39.62,-42.12 121.12,-42.12 121.12,-25.88 39.62,-25.88"/>
<text xml:space="preserve" text-anchor="start" x="40.62" y="-29.73" font-family="Arial" font-size="12.00">person:Gender</text>
<polygon fill="none" stroke="black" points="38.62,-24.88 38.62,-43.12 122.12,-43.12 122.12,-24.88 38.62,-24.88"/>
</a>
</g>
</g>
<!-- person_PersonOntologyThing -->
<g id="node2" class="node">
<title>person_PersonOntologyThing</title>
<polygon fill="lightgray" stroke="none" points="1,-97.88 1,-114.12 159.75,-114.12 159.75,-97.88 1,-97.88"/>
<text xml:space="preserve" text-anchor="start" x="2" y="-101.72" font-family="Arial" font-size="12.00">person:PersonOntologyThing</text>
<polygon fill="none" stroke="black" points="0,-96.88 0,-115.12 160.75,-115.12 160.75,-96.88 0,-96.88"/>
</g>
<!-- person_Gender&#45;&gt;person_PersonOntologyThing -->
<g id="edge1" class="edge">
<title>person_Gender&#45;&gt;person_PersonOntologyThing</title>
<path fill="none" stroke="black" d="M80.38,-51.79C80.38,-59.25 80.38,-68.24 80.38,-76.69"/>
<polygon fill="none" stroke="black" points="76.88,-76.54 80.38,-86.54 83.88,-76.54 76.88,-76.54"/>
</g>
<!-- Invis -->
</g>
</svg>
