<?xml version="1.0" encoding="UTF-8" standalone="no"?>
<!DOCTYPE svg PUBLIC "-//W3C//DTD SVG 1.1//EN"
 "http://www.w3.org/Graphics/SVG/1.1/DTD/svg11.dtd">
<!-- Generated by graphviz version 14.0.2 (20251019.1705)
 -->
<!-- Pages: 1 -->
<svg width="320pt" height="148pt"
 viewBox="0.00 0.00 320.00 148.00" xmlns="http://www.w3.org/2000/svg" xmlns:xlink="http://www.w3.org/1999/xlink">
<g id="graph0" class="graph" transform="scale(1 1) rotate(0) translate(4 143.5)">
<polygon fill="white" stroke="none" points="-4,4 -4,-143.5 316.25,-143.5 316.25,4 -4,4"/>
<g id="clust2" class="cluster">
<title>cluster_associated</title>
</g>
<!-- person_PersonName -->
<g id="node1" class="node">
<title>person_PersonName</title>
<g id="a_node1"><a xlink:href="../classes/Person__person:PersonName.md" xlink:title="&lt;TABLE&gt;">
<polygon fill="lightgray" stroke="none" points="1,-50.25 1,-66.5 223.5,-66.5 223.5,-50.25 1,-50.25"/>
<text xml:space="preserve" text-anchor="start" x="57.12" y="-54.1" font-family="Arial" font-size="12.00">person:PersonName</text>
<text xml:space="preserve" text-anchor="start" x="2" y="-37.85" font-family="Arial" font-size="12.00">person:additionalName: xsd:string «only»</text>
<text xml:space="preserve" text-anchor="start" x="2" y="-21.6" font-family="Arial" font-size="12.00">person:familyName: xsd:string «max 1»</text>
<text xml:space="preserve" text-anchor="start" x="2" y="-5.35" font-family="Arial" font-size="12.00">person:givenName: xsd:string «only»</text>
<polygon fill="none" stroke="black" points="0,-0.5 0,-67.5 224.5,-67.5 224.5,-0.5 0,-0.5"/>
</a>
</g>
</g>
<!-- person_PersonOntologyThing -->
<g id="node2" class="node">
<title>person_PersonOntologyThing</title>
<polygon fill="lightgray" stroke="none" points="32.88,-113.38 32.88,-129.62 191.62,-129.62 191.62,-113.38 32.88,-113.38"/>
<text xml:space="preserve" text-anchor="start" x="33.88" y="-117.22" font-family="Arial" font-size="12.00">person:PersonOntologyThing</text>
<polygon fill="none" stroke="black" points="31.88,-112.38 31.88,-130.62 192.62,-130.62 192.62,-112.38 31.88,-112.38"/>
</g>
<!-- person_PersonName&#45;&gt;person_PersonOntologyThing -->
<g id="edge1" class="edge">
<title>person_PersonName&#45;&gt;person_PersonOntologyThing</title>
<path fill="none" stroke="black" d="M112.25,-67.43C112.25,-75.62 112.25,-84.33 112.25,-92.29"/>
<polygon fill="none" stroke="black" points="108.75,-92.09 112.25,-102.09 115.75,-92.09 108.75,-92.09"/>
</g>
<!-- Invis -->
</g>
</svg>
