<?xml version="1.0" encoding="UTF-8" standalone="no"?>
<!DOCTYPE svg PUBLIC "-//W3C//DTD SVG 1.1//EN"
 "http://www.w3.org/Graphics/SVG/1.1/DTD/svg11.dtd">
<!-- Generated by graphviz version 14.0.2 (20251019.1705)
 -->
<!-- Pages: 1 -->
<svg width="351pt" height="404pt"
 viewBox="0.00 0.00 351.00 404.00" xmlns="http://www.w3.org/2000/svg" xmlns:xlink="http://www.w3.org/1999/xlink">
<g id="graph0" class="graph" transform="scale(1 1) rotate(0) translate(4 400)">
<polygon fill="white" stroke="none" points="-4,4 -4,-400 346.85,-400 346.85,4 -4,4"/>
<g id="clust2" class="cluster">
<title>cluster_associated</title>
</g>
<!-- person_PersonId -->
<g id="node1" class="node">
<title>person_PersonId</title>
<g id="a_node1"><a xlink:href="../classes/Person__person:PersonId.md" xlink:title="&lt;TABLE&gt;">
<polygon fill="lightgray" stroke="none" points="115.12,-305 115.12,-321.25 318.88,-321.25 318.88,-305 115.12,-305"/>
<text xml:space="preserve" text-anchor="start" x="173.12" y="-308.85" font-family="Arial" font-size="12.00">person:PersonId</text>
<text xml:space="preserve" text-anchor="start" x="116.12" y="-292.6" font-family="Arial" font-size="12.00">person:photoID: xsd:boolean «max 1»</text>
<polygon fill="none" stroke="black" points="114.12,-287.75 114.12,-322.25 319.88,-322.25 319.88,-287.75 114.12,-287.75"/>
</a>
</g>
</g>
<!-- person_PersonOntologyThing -->
<g id="node2" class="node">
<title>person_PersonOntologyThing</title>
<polygon fill="lightgray" stroke="none" points="137.62,-369.88 137.62,-386.12 296.38,-386.12 296.38,-369.88 137.62,-369.88"/>
<text xml:space="preserve" text-anchor="start" x="138.62" y="-373.73" font-family="Arial" font-size="12.00">person:PersonOntologyThing</text>
<polygon fill="none" stroke="black" points="136.62,-368.88 136.62,-387.12 297.38,-387.12 297.38,-368.88 136.62,-368.88"/>
</g>
<!-- person_PersonId&#45;&gt;person_PersonOntologyThing -->
<g id="edge1" class="edge">
<title>person_PersonId&#45;&gt;person_PersonOntologyThing</title>
<path fill="none" stroke="black" d="M217,-322.71C217,-330.47 217,-339.92 217,-348.74"/>
<polygon fill="none" stroke="black" points="213.5,-348.66 217,-358.66 220.5,-348.66 213.5,-348.66"/>
</g>
<!-- Invis -->
<!-- person_PersonId&#45;&gt;Invis -->
<!-- agent_Agent -->
<g id="node4" class="node">
<title>agent_Agent</title>
<polygon fill="lightgray" stroke="none" points="23.75,-197.88 23.75,-214.12 90.25,-214.12 90.25,-197.88 23.75,-197.88"/>
<text xml:space="preserve" text-anchor="start" x="24.75" y="-201.72" font-family="Arial" font-size="12.00">agent:Agent</text>
<polygon fill="none" stroke="black" points="22.75,-196.88 22.75,-215.12 91.25,-215.12 91.25,-196.88 22.75,-196.88"/>
</g>
<!-- person_PersonId&#45;&gt;agent_Agent -->
<g id="edge8" class="edge">
<title>person_PersonId&#45;&gt;agent_Agent</title>
<path fill="none" stroke="black" d="M124.78,-287.03C95.87,-280.87 70.21,-274.16 65.5,-269 57.26,-259.97 54.62,-246.91 54.25,-235.1"/>
<polygon fill="black" stroke="black" points="57.74,-235.49 54.48,-225.41 50.74,-235.32 57.74,-235.49"/>
<text xml:space="preserve" text-anchor="middle" x="108.25" y="-258.55" font-family="Arial" font-size="11.00"> person:issuedBy </text>
<text xml:space="preserve" text-anchor="middle" x="108.25" y="-245.05" font-family="Arial" font-size="11.00"> «max 1» &#160;</text>
</g>
<!-- person_IDType -->
<g id="node5" class="node">
<title>person_IDType</title>
<polygon fill="lightgray" stroke="none" points="17,-98.88 17,-115.12 97,-115.12 97,-98.88 17,-98.88"/>
<text xml:space="preserve" text-anchor="start" x="18" y="-102.72" font-family="Arial" font-size="12.00">person:IDType</text>
<polygon fill="none" stroke="black" points="16,-97.88 16,-116.12 98,-116.12 98,-97.88 16,-97.88"/>
</g>
<!-- person_PersonId&#45;&gt;person_IDType -->
<g id="edge7" class="edge">
<title>person_PersonId&#45;&gt;person_IDType</title>
<path fill="none" stroke="black" d="M203.36,-287.29C175.38,-253.02 111.36,-174.59 78.03,-133.76"/>
<polygon fill="black" stroke="black" points="80.83,-131.65 71.79,-126.12 75.4,-136.08 80.83,-131.65"/>
<text xml:space="preserve" text-anchor="middle" x="197.15" y="-209.05" font-family="Arial" font-size="11.00"> person:hasIDType </text>
<text xml:space="preserve" text-anchor="middle" x="197.15" y="-195.55" font-family="Arial" font-size="11.00"> «only» &#160;</text>
</g>
<!-- time__Interval -->
<g id="node6" class="node">
<title>time__Interval</title>
<polygon fill="lightgray" stroke="none" points="25.25,-25.88 25.25,-42.12 94.75,-42.12 94.75,-25.88 25.25,-25.88"/>
<text xml:space="preserve" text-anchor="start" x="26.25" y="-29.73" font-family="Arial" font-size="12.00">time::Interval</text>
<polygon fill="none" stroke="black" points="24.25,-24.88 24.25,-43.12 95.75,-43.12 95.75,-24.88 24.25,-24.88"/>
</g>
<!-- person_PersonId&#45;&gt;time__Interval -->
<g id="edge6" class="edge">
<title>person_PersonId&#45;&gt;time__Interval</title>
<path fill="none" stroke="black" d="M228.56,-287.2C242.96,-264.02 263.84,-221.32 248,-188 218.68,-126.35 151.02,-81.39 105.39,-56.73"/>
<polygon fill="black" stroke="black" points="107.26,-53.76 96.78,-52.19 104,-59.95 107.26,-53.76"/>
<text xml:space="preserve" text-anchor="middle" x="289.97" y="-159.55" font-family="Arial" font-size="11.00"> person:validityPeriod </text>
<text xml:space="preserve" text-anchor="middle" x="289.97" y="-146.05" font-family="Arial" font-size="11.00"> «max 1» &#160;</text>
</g>
<!-- Invis&#45;&gt;agent_Agent -->
<!-- agent_Agent&#45;&gt;person_IDType -->
<!-- person_IDType&#45;&gt;time__Interval -->
</g>
</svg>
