<?xml version="1.0" encoding="UTF-8" standalone="no"?>
<!DOCTYPE svg PUBLIC "-//W3C//DTD SVG 1.1//EN"
 "http://www.w3.org/Graphics/SVG/1.1/DTD/svg11.dtd">
<!-- Generated by graphviz version 14.0.2 (20251019.1705)
 -->
<!-- Pages: 1 -->
<svg width="956pt" height="1165pt"
 viewBox="0.00 0.00 956.00 1165.00" xmlns="http://www.w3.org/2000/svg" xmlns:xlink="http://www.w3.org/1999/xlink">
<g id="graph0" class="graph" transform="scale(1 1) rotate(0) translate(4 1161)">
<polygon fill="white" stroke="none" points="-4,4 -4,-1161 952.25,-1161 952.25,4 -4,4"/>
<g id="clust2" class="cluster">
<title>cluster_associated</title>
</g>
<!-- person_Person -->
<g id="node1" class="node">
<title>person_Person</title>
<g id="a_node1"><a xlink:href="../classes/Person__person:Person.md" xlink:title="&lt;TABLE&gt;">
<polygon fill="lightgray" stroke="none" points="432,-1057.88 432,-1074.12 512,-1074.12 512,-1057.88 432,-1057.88"/>
<text xml:space="preserve" text-anchor="start" x="433" y="-1061.72" font-family="Arial" font-size="12.00">person:Person</text>
<polygon fill="none" stroke="black" points="431,-1056.88 431,-1075.12 513,-1075.12 513,-1056.88 431,-1056.88"/>
</a>
</g>
</g>
<!-- person_Person&#45;&gt;person_Person -->
<g id="edge20" class="edge">
<title>person_Person&#45;&gt;person_Person</title>
<path fill="none" stroke="black" d="M512.81,-1068.25C523.2,-1068.11 531,-1067.35 531,-1066 531,-1065.22 528.39,-1064.64 524.19,-1064.26"/>
<polygon fill="black" stroke="black" points="524.47,-1060.76 514.32,-1063.81 524.16,-1067.76 524.47,-1060.76"/>
<text xml:space="preserve" text-anchor="middle" x="567.38" y="-1069.05" font-family="Arial" font-size="11.00"> person:parent </text>
<text xml:space="preserve" text-anchor="middle" x="567.38" y="-1055.55" font-family="Arial" font-size="11.00"> «only» &#160;</text>
</g>
<!-- person_Person&#45;&gt;person_Person -->
<g id="edge22" class="edge">
<title>person_Person&#45;&gt;person_Person</title>
<path fill="none" stroke="black" d="M512.92,-1069.88C552.75,-1071.51 603.75,-1070.22 603.75,-1066 603.75,-1062.18 561.86,-1060.76 524.36,-1061.74"/>
<polygon fill="black" stroke="black" points="524.31,-1058.24 514.43,-1062.07 524.54,-1065.23 524.31,-1058.24"/>
<text xml:space="preserve" text-anchor="middle" x="643.5" y="-1069.05" font-family="Arial" font-size="11.00"> person:children </text>
<text xml:space="preserve" text-anchor="middle" x="643.5" y="-1055.55" font-family="Arial" font-size="11.00"> «only» &#160;</text>
</g>
<!-- person_Person&#45;&gt;person_Person -->
<g id="edge28" class="edge">
<title>person_Person&#45;&gt;person_Person</title>
<path fill="none" stroke="black" d="M512.97,-1070.83C576.36,-1074.65 683.25,-1073.04 683.25,-1066 683.25,-1059.36 588.13,-1057.55 524.14,-1060.58"/>
<polygon fill="black" stroke="black" points="524.28,-1057.06 514.48,-1061.09 524.66,-1064.05 524.28,-1057.06"/>
<text xml:space="preserve" text-anchor="middle" x="721.5" y="-1069.05" font-family="Arial" font-size="11.00"> person:spouse </text>
<text xml:space="preserve" text-anchor="middle" x="721.5" y="-1055.55" font-family="Arial" font-size="11.00"> «only» &#160;</text>
</g>
<!-- agent_Agent -->
<g id="node2" class="node">
<title>agent_Agent</title>
<polygon fill="lightgray" stroke="none" points="371.75,-1130.88 371.75,-1147.12 438.25,-1147.12 438.25,-1130.88 371.75,-1130.88"/>
<text xml:space="preserve" text-anchor="start" x="372.75" y="-1134.72" font-family="Arial" font-size="12.00">agent:Agent</text>
<polygon fill="none" stroke="black" points="370.75,-1129.88 370.75,-1148.12 439.25,-1148.12 439.25,-1129.88 370.75,-1129.88"/>
</g>
<!-- person_Person&#45;&gt;agent_Agent -->
<g id="edge1" class="edge">
<title>person_Person&#45;&gt;agent_Agent</title>
<path fill="none" stroke="black" d="M456.24,-1083.71C447.99,-1092.44 437.74,-1103.31 428.57,-1113.02"/>
<polygon fill="none" stroke="black" points="426.23,-1110.4 421.92,-1120.07 431.33,-1115.2 426.23,-1110.4"/>
</g>
<!-- person_PersonOntologyThing -->
<g id="node3" class="node">
<title>person_PersonOntologyThing</title>
<polygon fill="lightgray" stroke="none" points="458.62,-1130.88 458.62,-1147.12 617.38,-1147.12 617.38,-1130.88 458.62,-1130.88"/>
<text xml:space="preserve" text-anchor="start" x="459.62" y="-1134.72" font-family="Arial" font-size="12.00">person:PersonOntologyThing</text>
<polygon fill="none" stroke="black" points="457.62,-1129.88 457.62,-1148.12 618.38,-1148.12 618.38,-1129.88 457.62,-1129.88"/>
</g>
<!-- person_Person&#45;&gt;person_PersonOntologyThing -->
<g id="edge2" class="edge">
<title>person_Person&#45;&gt;person_PersonOntologyThing</title>
<path fill="none" stroke="black" d="M487.53,-1083.71C495.65,-1092.44 505.75,-1103.31 514.78,-1113.02"/>
<polygon fill="none" stroke="black" points="511.96,-1115.12 521.33,-1120.07 517.08,-1110.36 511.96,-1115.12"/>
</g>
<!-- Invis -->
<!-- person_Person&#45;&gt;Invis -->
<!-- cityUnits_MonetaryValue -->
<g id="node5" class="node">
<title>cityUnits_MonetaryValue</title>
<polygon fill="lightgray" stroke="none" points="16.88,-958.88 16.88,-975.12 147.12,-975.12 147.12,-958.88 16.88,-958.88"/>
<text xml:space="preserve" text-anchor="start" x="17.88" y="-962.73" font-family="Arial" font-size="12.00">cityUnits:MonetaryValue</text>
<polygon fill="none" stroke="black" points="15.88,-957.88 15.88,-976.12 148.12,-976.12 148.12,-957.88 15.88,-957.88"/>
</g>
<!-- person_Person&#45;&gt;cityUnits_MonetaryValue -->
<g id="edge30" class="edge">
<title>person_Person&#45;&gt;cityUnits_MonetaryValue</title>
<path fill="none" stroke="black" d="M431.18,-1063.96C338.45,-1061.23 118.05,-1052.41 93.5,-1030 84.28,-1021.59 80.99,-1008.37 80.18,-996.3"/>
<polygon fill="black" stroke="black" points="83.68,-996.31 80.08,-986.34 76.68,-996.38 83.68,-996.31"/>
<text xml:space="preserve" text-anchor="middle" x="131.75" y="-1019.55" font-family="Arial" font-size="11.00"> person:income </text>
<text xml:space="preserve" text-anchor="middle" x="131.75" y="-1006.05" font-family="Arial" font-size="11.00"> «only» &#160;</text>
</g>
<!-- contact_/Address -->
<g id="node6" class="node">
<title>contact_/Address</title>
<polygon fill="lightgray" stroke="none" points="35.75,-859.88 35.75,-876.12 126.25,-876.12 126.25,-859.88 35.75,-859.88"/>
<text xml:space="preserve" text-anchor="start" x="36.75" y="-863.73" font-family="Arial" font-size="12.00">contact:/Address</text>
<polygon fill="none" stroke="black" points="34.75,-858.88 34.75,-877.12 127.25,-877.12 127.25,-858.88 34.75,-858.88"/>
</g>
<!-- person_Person&#45;&gt;contact_/Address -->
<g id="edge19" class="edge">
<title>person_Person&#45;&gt;contact_/Address</title>
<path fill="none" stroke="black" d="M431.09,-1060.64C393.03,-1055.8 335.11,-1046.41 287,-1030 245.24,-1015.76 235.11,-1009.64 198.5,-985 178.24,-971.37 175.49,-964.95 157,-949 147.69,-940.97 144.77,-939.62 136,-931 124.34,-919.54 112.2,-906.04 102.29,-894.56"/>
<polygon fill="black" stroke="black" points="105.02,-892.37 95.87,-887.03 99.69,-896.91 105.02,-892.37"/>
<text xml:space="preserve" text-anchor="middle" x="242.75" y="-970.05" font-family="Arial" font-size="11.00"> person:birthplace </text>
<text xml:space="preserve" text-anchor="middle" x="242.75" y="-956.55" font-family="Arial" font-size="11.00"> «max 1» &#160;</text>
</g>
<!-- contact_Address -->
<g id="node7" class="node">
<title>contact_Address</title>
<polygon fill="lightgray" stroke="none" points="51.25,-760.88 51.25,-777.12 138.75,-777.12 138.75,-760.88 51.25,-760.88"/>
<text xml:space="preserve" text-anchor="start" x="52.25" y="-764.73" font-family="Arial" font-size="12.00">contact:Address</text>
<polygon fill="none" stroke="black" points="50.25,-759.88 50.25,-778.12 139.75,-778.12 139.75,-759.88 50.25,-759.88"/>
</g>
<!-- person_Person&#45;&gt;contact_Address -->
<g id="edge24" class="edge">
<title>person_Person&#45;&gt;contact_Address</title>
<path fill="none" stroke="black" d="M431.01,-1064.6C398.94,-1062.27 354.92,-1054.34 325,-1030 294.15,-1004.91 319.03,-972.57 287,-949 239.66,-914.17 199.69,-970.31 156,-931 128.43,-906.2 148.99,-884.73 136,-850 129.12,-831.59 119.08,-811.93 110.66,-796.71"/>
<polygon fill="black" stroke="black" points="113.86,-795.26 105.9,-788.27 107.77,-798.7 113.86,-795.26"/>
<text xml:space="preserve" text-anchor="middle" x="204" y="-920.55" font-family="Arial" font-size="11.00"> person:deathPlace </text>
<text xml:space="preserve" text-anchor="middle" x="204" y="-907.05" font-family="Arial" font-size="11.00"> «max 1» &#160;</text>
</g>
<!-- person_Person&#45;&gt;contact_Address -->
<g id="edge27" class="edge">
<title>person_Person&#45;&gt;contact_Address</title>
<path fill="none" stroke="black" d="M431.11,-1058.71C409.21,-1053.75 382.76,-1045.06 363,-1030 328.78,-1003.93 341.88,-977.89 310,-949 297.18,-937.39 289.08,-941.71 275.5,-931 263.01,-921.15 263.3,-915.19 252,-904 210.52,-862.92 158.25,-819.85 125.72,-793.97"/>
<polygon fill="black" stroke="black" points="127.9,-791.23 117.88,-787.76 123.55,-796.72 127.9,-791.23"/>
<text xml:space="preserve" text-anchor="middle" x="325.75" y="-920.55" font-family="Arial" font-size="11.00"> contact:hasAddress </text>
<text xml:space="preserve" text-anchor="middle" x="325.75" y="-907.05" font-family="Arial" font-size="11.00"> «only» &#160;</text>
</g>
<!-- contact_PhoneNumber -->
<g id="node8" class="node">
<title>contact_PhoneNumber</title>
<polygon fill="lightgray" stroke="none" points="25.38,-661.88 25.38,-678.12 146.62,-678.12 146.62,-661.88 25.38,-661.88"/>
<text xml:space="preserve" text-anchor="start" x="26.38" y="-665.73" font-family="Arial" font-size="12.00">contact:PhoneNumber</text>
<polygon fill="none" stroke="black" points="24.38,-660.88 24.38,-679.12 147.62,-679.12 147.62,-660.88 24.38,-660.88"/>
</g>
<!-- person_Person&#45;&gt;contact_PhoneNumber -->
<g id="edge21" class="edge">
<title>person_Person&#45;&gt;contact_PhoneNumber</title>
<path fill="none" stroke="black" d="M431.02,-1052.49C419.78,-1047.21 408.61,-1039.92 401,-1030 366.25,-984.7 416.12,-944.62 376,-904 348.79,-876.45 324.57,-904.87 290.75,-886 246.57,-861.35 149.77,-748.11 107.01,-696.62"/>
<polygon fill="black" stroke="black" points="109.72,-694.4 100.65,-688.92 104.33,-698.86 109.72,-694.4"/>
<text xml:space="preserve" text-anchor="middle" x="345.88" y="-871.05" font-family="Arial" font-size="11.00"> contact:hasTelephone </text>
<text xml:space="preserve" text-anchor="middle" x="345.88" y="-857.55" font-family="Arial" font-size="11.00"> «only» &#160;</text>
</g>
<!-- person_Citizenship -->
<g id="node9" class="node">
<title>person_Citizenship</title>
<polygon fill="lightgray" stroke="none" points="45.12,-562.88 45.12,-579.12 146.88,-579.12 146.88,-562.88 45.12,-562.88"/>
<text xml:space="preserve" text-anchor="start" x="46.12" y="-566.73" font-family="Arial" font-size="12.00">person:Citizenship</text>
<polygon fill="none" stroke="black" points="44.12,-561.88 44.12,-580.12 147.88,-580.12 147.88,-561.88 44.12,-561.88"/>
</g>
<!-- person_Person&#45;&gt;person_Citizenship -->
<g id="edge26" class="edge">
<title>person_Person&#45;&gt;person_Citizenship</title>
<path fill="none" stroke="black" d="M452.76,-1048.34C447.6,-1042.96 442.48,-1036.66 439,-1030 401.1,-957.55 457.25,-909.34 401,-850 379.71,-827.54 360.2,-848.06 333.75,-832 280.9,-799.9 163.23,-656.33 116.1,-597.38"/>
<polygon fill="black" stroke="black" points="119.07,-595.5 110.1,-589.86 113.6,-599.86 119.07,-595.5"/>
<text xml:space="preserve" text-anchor="middle" x="375.38" y="-821.55" font-family="Arial" font-size="11.00"> person:citizenOf </text>
<text xml:space="preserve" text-anchor="middle" x="375.38" y="-808.05" font-family="Arial" font-size="11.00"> «only» &#160;</text>
</g>
<!-- person_Education -->
<g id="node10" class="node">
<title>person_Education</title>
<polygon fill="lightgray" stroke="none" points="51.12,-463.88 51.12,-480.12 146.88,-480.12 146.88,-463.88 51.12,-463.88"/>
<text xml:space="preserve" text-anchor="start" x="52.12" y="-467.73" font-family="Arial" font-size="12.00">person:Education</text>
<polygon fill="none" stroke="black" points="50.12,-462.88 50.12,-481.12 147.88,-481.12 147.88,-462.88 50.12,-462.88"/>
</g>
<!-- person_Person&#45;&gt;person_Education -->
<g id="edge31" class="edge">
<title>person_Person&#45;&gt;person_Education</title>
<path fill="none" stroke="black" d="M473.59,-1048.01C476.87,-1002.65 479.45,-877.26 417,-805 402.31,-788 388.15,-799.9 369.75,-787 308.95,-744.36 170.25,-566.44 118.74,-499.04"/>
<polygon fill="black" stroke="black" points="121.56,-496.96 112.71,-491.13 115.99,-501.2 121.56,-496.96"/>
<text xml:space="preserve" text-anchor="middle" x="423.38" y="-772.05" font-family="Arial" font-size="11.00"> person:hasEducation </text>
<text xml:space="preserve" text-anchor="middle" x="423.38" y="-758.55" font-family="Arial" font-size="11.00"> «only» &#160;</text>
</g>
<!-- person_Gender -->
<g id="node11" class="node">
<title>person_Gender</title>
<polygon fill="lightgray" stroke="none" points="60.25,-390.88 60.25,-407.12 141.75,-407.12 141.75,-390.88 60.25,-390.88"/>
<text xml:space="preserve" text-anchor="start" x="61.25" y="-394.73" font-family="Arial" font-size="12.00">person:Gender</text>
<polygon fill="none" stroke="black" points="59.25,-389.88 59.25,-408.12 142.75,-408.12 142.75,-389.88 59.25,-389.88"/>
</g>
<!-- person_Person&#45;&gt;person_Gender -->
<g id="edge33" class="edge">
<title>person_Person&#45;&gt;person_Gender</title>
<path fill="none" stroke="black" d="M477.39,-1048.03C483.01,-1028.81 491,-996.49 491,-968 491,-968 491,-968 491,-817.5 491,-787.3 498.48,-772.23 477,-751 447.75,-722.09 412.38,-764.75 386.25,-733 354.76,-694.74 386,-671.06 386,-621.5 386,-621.5 386,-621.5 386,-471 386,-423.75 236.63,-407.7 154.16,-402.44"/>
<polygon fill="black" stroke="black" points="154.45,-398.95 144.26,-401.85 154.03,-405.94 154.45,-398.95"/>
<text xml:space="preserve" text-anchor="middle" x="451.12" y="-722.55" font-family="Arial" font-size="11.00"> person:hasGenderIdentity </text>
<text xml:space="preserve" text-anchor="middle" x="451.12" y="-709.05" font-family="Arial" font-size="11.00"> «only» &#160;</text>
</g>
<!-- person_PersonId -->
<g id="node12" class="node">
<title>person_PersonId</title>
<polygon fill="lightgray" stroke="none" points="56.12,-317.88 56.12,-334.12 145.88,-334.12 145.88,-317.88 56.12,-317.88"/>
<text xml:space="preserve" text-anchor="start" x="57.12" y="-321.73" font-family="Arial" font-size="12.00">person:PersonId</text>
<polygon fill="none" stroke="black" points="55.12,-316.88 55.12,-335.12 146.88,-335.12 146.88,-316.88 55.12,-316.88"/>
</g>
<!-- person_Person&#45;&gt;person_PersonId -->
<g id="edge23" class="edge">
<title>person_Person&#45;&gt;person_PersonId</title>
<path fill="none" stroke="black" d="M489.41,-1048.17C506.17,-1030.08 529,-999.64 529,-968 529,-968 529,-968 529,-817.5 529,-767.61 548.67,-743.7 516,-706 495.53,-682.37 469.53,-710.67 448,-688 427.2,-666.1 434,-651.7 434,-621.5 434,-621.5 434,-621.5 434,-398 434,-342.25 253.2,-330.11 158.04,-327.58"/>
<polygon fill="black" stroke="black" points="158.2,-324.08 148.12,-327.35 158.03,-331.08 158.2,-324.08"/>
<text xml:space="preserve" text-anchor="middle" x="500.5" y="-673.05" font-family="Arial" font-size="11.00"> person:hasPersonID </text>
<text xml:space="preserve" text-anchor="middle" x="500.5" y="-659.55" font-family="Arial" font-size="11.00"> «only» &#160;</text>
</g>
<!-- person_PersonName -->
<g id="node13" class="node">
<title>person_PersonName</title>
<polygon fill="lightgray" stroke="none" points="34.88,-244.88 34.88,-261.12 147.12,-261.12 147.12,-244.88 34.88,-244.88"/>
<text xml:space="preserve" text-anchor="start" x="35.88" y="-248.72" font-family="Arial" font-size="12.00">person:PersonName</text>
<polygon fill="none" stroke="black" points="33.88,-243.88 33.88,-262.12 148.12,-262.12 148.12,-243.88 33.88,-243.88"/>
</g>
<!-- person_Person&#45;&gt;person_PersonName -->
<g id="edge29" class="edge">
<title>person_Person&#45;&gt;person_PersonName</title>
<path fill="none" stroke="black" d="M505.76,-1048.04C533.07,-1031.67 567,-1004.06 567,-968 567,-968 567,-968 567,-718.5 567,-688.3 574.21,-673.5 553,-652 527.41,-626.05 496,-662.27 473,-634 455.61,-612.62 472,-599.56 472,-572 472,-572 472,-572 472,-325 472,-293.56 268.95,-270.19 159.32,-259.86"/>
<polygon fill="black" stroke="black" points="159.83,-256.39 149.55,-258.95 159.18,-263.36 159.83,-256.39"/>
<text xml:space="preserve" text-anchor="middle" x="507.5" y="-623.55" font-family="Arial" font-size="11.00"> person:name </text>
<text xml:space="preserve" text-anchor="middle" x="507.5" y="-610.05" font-family="Arial" font-size="11.00"> «max 1» &#160;</text>
</g>
<!-- person_Person&#45;&gt;person_PersonName -->
<g id="edge32" class="edge">
<title>person_Person&#45;&gt;person_PersonName</title>
<path fill="none" stroke="black" d="M512.99,-1053.97C552.07,-1040.68 605,-1014.15 605,-968 605,-968 605,-968 605,-718.5 605,-686.08 589.4,-681.05 575,-652 570.96,-643.85 567.85,-642.72 565.25,-634 551.05,-586.34 556,-572.23 556,-522.5 556,-522.5 556,-522.5 556,-325 556,-285.36 288.57,-265.01 159.33,-257.49"/>
<polygon fill="black" stroke="black" points="159.71,-254.01 149.53,-256.93 159.31,-261 159.71,-254.01"/>
<text xml:space="preserve" text-anchor="middle" x="597.12" y="-623.55" font-family="Arial" font-size="11.00"> person:alias </text>
<text xml:space="preserve" text-anchor="middle" x="597.12" y="-610.05" font-family="Arial" font-size="11.00"> «only» &#160;</text>
</g>
<!-- person_Sex -->
<g id="node14" class="node">
<title>person_Sex</title>
<polygon fill="lightgray" stroke="none" points="82.62,-171.88 82.62,-188.12 145.38,-188.12 145.38,-171.88 82.62,-171.88"/>
<text xml:space="preserve" text-anchor="start" x="83.62" y="-175.72" font-family="Arial" font-size="12.00">person:Sex</text>
<polygon fill="none" stroke="black" points="81.62,-170.88 81.62,-189.12 146.38,-189.12 146.38,-170.88 81.62,-170.88"/>
</g>
<!-- person_Person&#45;&gt;person_Sex -->
<g id="edge17" class="edge">
<title>person_Person&#45;&gt;person_Sex</title>
<path fill="none" stroke="black" d="M512.96,-1059.88C563.55,-1050.99 643,-1027.56 643,-968 643,-968 643,-968 643,-669 643,-640.75 640.38,-632.86 629,-607 625.08,-598.09 620.39,-597.93 616.5,-589 604.42,-561.27 602,-552.75 602,-522.5 602,-522.5 602,-522.5 602,-252 602,-207.26 276.62,-188.24 157.24,-182.77"/>
<polygon fill="black" stroke="black" points="157.68,-179.29 147.53,-182.34 157.36,-186.28 157.68,-179.29"/>
<text xml:space="preserve" text-anchor="middle" x="645.75" y="-574.05" font-family="Arial" font-size="11.00"> person:sex </text>
<text xml:space="preserve" text-anchor="middle" x="645.75" y="-560.55" font-family="Arial" font-size="11.00"> «max 1» &#160;</text>
</g>
<!-- person_Skill -->
<g id="node15" class="node">
<title>person_Skill</title>
<polygon fill="lightgray" stroke="none" points="81.5,-98.88 81.5,-115.12 146.5,-115.12 146.5,-98.88 81.5,-98.88"/>
<text xml:space="preserve" text-anchor="start" x="82.5" y="-102.72" font-family="Arial" font-size="12.00">person:Skill</text>
<polygon fill="none" stroke="black" points="80.5,-97.88 80.5,-116.12 147.5,-116.12 147.5,-97.88 80.5,-97.88"/>
</g>
<!-- person_Person&#45;&gt;person_Skill -->
<g id="edge16" class="edge">
<title>person_Person&#45;&gt;person_Skill</title>
<path fill="none" stroke="black" d="M512.82,-1064.37C575.68,-1061 689,-1044.34 689,-968 689,-968 689,-968 689,-619.5 689,-589.3 693.14,-577.15 675,-553 664.79,-539.41 650.14,-549.49 641.25,-535 626.83,-511.51 640,-500.56 640,-473 640,-473 640,-473 640,-179 640,-130.58 285.41,-113.81 158.5,-109.36"/>
<polygon fill="black" stroke="black" points="158.93,-105.87 148.82,-109.03 158.69,-112.86 158.93,-105.87"/>
<text xml:space="preserve" text-anchor="middle" x="680.62" y="-524.55" font-family="Arial" font-size="11.00"> person:hasSkill </text>
<text xml:space="preserve" text-anchor="middle" x="680.62" y="-511.05" font-family="Arial" font-size="11.00"> «only» &#160;</text>
</g>
<!-- time__Instant -->
<g id="node16" class="node">
<title>time__Instant</title>
<polygon fill="lightgray" stroke="none" points="81.12,-25.88 81.12,-42.12 146.88,-42.12 146.88,-25.88 81.12,-25.88"/>
<text xml:space="preserve" text-anchor="start" x="82.12" y="-29.73" font-family="Arial" font-size="12.00">time::Instant</text>
<polygon fill="none" stroke="black" points="80.12,-24.88 80.12,-43.12 147.88,-43.12 147.88,-24.88 80.12,-24.88"/>
</g>
<!-- person_Person&#45;&gt;time__Instant -->
<g id="edge18" class="edge">
<title>person_Person&#45;&gt;time__Instant</title>
<path fill="none" stroke="black" d="M512.73,-1065.92C556.47,-1065.2 626.73,-1058.99 679,-1030 711.21,-1012.14 734,-1004.84 734,-968 734,-968 734,-968 734,-106 734,-48.11 301.8,-37.39 159.11,-35.43"/>
<polygon fill="black" stroke="black" points="159.33,-31.94 149.29,-35.31 159.24,-38.93 159.33,-31.94"/>
<text xml:space="preserve" text-anchor="middle" x="777.12" y="-475.05" font-family="Arial" font-size="11.00"> person:birthDate </text>
<text xml:space="preserve" text-anchor="middle" x="777.12" y="-461.55" font-family="Arial" font-size="11.00"> «max 1» &#160;</text>
</g>
<!-- person_Person&#45;&gt;time__Instant -->
<g id="edge25" class="edge">
<title>person_Person&#45;&gt;time__Instant</title>
<path fill="none" stroke="black" d="M512.73,-1063.32C611.56,-1058.14 856,-1038.22 856,-968 856,-968 856,-968 856,-106 856,-35.62 320.12,-33.58 159.17,-34.56"/>
<polygon fill="black" stroke="black" points="159.3,-31.06 149.32,-34.63 159.35,-38.06 159.3,-31.06"/>
<text xml:space="preserve" text-anchor="middle" x="902.12" y="-475.05" font-family="Arial" font-size="11.00"> person:deathDate </text>
<text xml:space="preserve" text-anchor="middle" x="902.12" y="-461.55" font-family="Arial" font-size="11.00"> «max 1» &#160;</text>
</g>
<!-- Invis&#45;&gt;cityUnits_MonetaryValue -->
<!-- cityUnits_MonetaryValue&#45;&gt;contact_/Address -->
<!-- contact_/Address&#45;&gt;contact_Address -->
<!-- contact_Address&#45;&gt;contact_PhoneNumber -->
<!-- contact_PhoneNumber&#45;&gt;person_Citizenship -->
<!-- person_Citizenship&#45;&gt;person_Education -->
<!-- person_Education&#45;&gt;person_Gender -->
<!-- person_Gender&#45;&gt;person_PersonId -->
<!-- person_PersonId&#45;&gt;person_PersonName -->
<!-- person_PersonName&#45;&gt;person_Sex -->
<!-- person_Sex&#45;&gt;person_Skill -->
<!-- person_Skill&#45;&gt;time__Instant -->
</g>
</svg>
