<?xml version="1.0" encoding="UTF-8" standalone="no"?>
<!DOCTYPE svg PUBLIC "-//W3C//DTD SVG 1.1//EN"
 "http://www.w3.org/Graphics/SVG/1.1/DTD/svg11.dtd">
<!-- Generated by graphviz version 14.0.2 (20251019.1705)
 -->
<!-- Pages: 1 -->
<svg width="192pt" height="132pt"
 viewBox="0.00 0.00 192.00 132.00" xmlns="http://www.w3.org/2000/svg" xmlns:xlink="http://www.w3.org/1999/xlink">
<g id="graph0" class="graph" transform="scale(1 1) rotate(0) translate(4 128)">
<polygon fill="white" stroke="none" points="-4,4 -4,-128 187.5,-128 187.5,4 -4,4"/>
<g id="clust2" class="cluster">
<title>cluster_associated</title>
</g>
<!-- Qualification -->
<g id="node1" class="node">
<title>Qualification</title>
<g id="a_node1"><a xlink:href="../classes/Person__Qualification.md" xlink:title="&lt;TABLE&gt;">
<polygon fill="lightgray" stroke="none" points="26.12,-25.88 26.12,-42.12 94.88,-42.12 94.88,-25.88 26.12,-25.88"/>
<text xml:space="preserve" text-anchor="start" x="27.12" y="-29.73" font-family="Arial" font-size="12.00">Qualification</text>
<polygon fill="none" stroke="black" points="25.12,-24.88 25.12,-43.12 95.88,-43.12 95.88,-24.88 25.12,-24.88"/>
</a>
</g>
</g>
<!-- PersonOntologyThing -->
<g id="node2" class="node">
<title>PersonOntologyThing</title>
<g id="a_node2"><a xlink:href="../_counters/Person__PersonOntologyThing.md" xlink:title="&lt;TABLE&gt;">
<polygon fill="lightgray" stroke="none" points="1,-97.88 1,-114.12 120,-114.12 120,-97.88 1,-97.88"/>
<text xml:space="preserve" text-anchor="start" x="2" y="-101.72" font-family="Arial" font-size="12.00">PersonOntologyThing</text>
<polygon fill="none" stroke="black" points="0,-96.88 0,-115.12 121,-115.12 121,-96.88 0,-96.88"/>
</a>
</g>
</g>
<!-- Qualification&#45;&gt;PersonOntologyThing -->
<g id="edge1" class="edge">
<title>Qualification&#45;&gt;PersonOntologyThing</title>
<path fill="none" stroke="black" d="M60.5,-51.79C60.5,-59.25 60.5,-68.24 60.5,-76.69"/>
<polygon fill="none" stroke="black" points="57,-76.54 60.5,-86.54 64,-76.54 57,-76.54"/>
</g>
<!-- Invis -->
</g>
</svg>
