<?xml version="1.0" encoding="UTF-8" standalone="no"?>
<!DOCTYPE svg PUBLIC "-//W3C//DTD SVG 1.1//EN"
 "http://www.w3.org/Graphics/SVG/1.1/DTD/svg11.dtd">
<!-- Generated by graphviz version 14.0.2 (20251019.1705)
 -->
<!-- Pages: 1 -->
<svg width="241pt" height="305pt"
 viewBox="0.00 0.00 241.00 305.00" xmlns="http://www.w3.org/2000/svg" xmlns:xlink="http://www.w3.org/1999/xlink">
<g id="graph0" class="graph" transform="scale(1 1) rotate(0) translate(4 301)">
<polygon fill="white" stroke="none" points="-4,4 -4,-301 236.5,-301 236.5,4 -4,4"/>
<g id="clust2" class="cluster">
<title>cluster_associated</title>
</g>
<!-- Citizenship -->
<g id="node1" class="node">
<title>Citizenship</title>
<g id="a_node1"><a xlink:href="../classes/Person__Citizenship.md" xlink:title="&lt;TABLE&gt;">
<polygon fill="lightgray" stroke="none" points="141,-197.88 141,-214.12 203,-214.12 203,-197.88 141,-197.88"/>
<text xml:space="preserve" text-anchor="start" x="142" y="-201.72" font-family="Arial" font-size="12.00">Citizenship</text>
<polygon fill="none" stroke="black" points="140,-196.88 140,-215.12 204,-215.12 204,-196.88 140,-196.88"/>
</a>
</g>
</g>
<!-- PersonOntologyThing -->
<g id="node2" class="node">
<title>PersonOntologyThing</title>
<g id="a_node2"><a xlink:href="../_counters/Person__PersonOntologyThing.md" xlink:title="&lt;TABLE&gt;">
<polygon fill="lightgray" stroke="none" points="112.5,-270.88 112.5,-287.12 231.5,-287.12 231.5,-270.88 112.5,-270.88"/>
<text xml:space="preserve" text-anchor="start" x="113.5" y="-274.73" font-family="Arial" font-size="12.00">PersonOntologyThing</text>
<polygon fill="none" stroke="black" points="111.5,-269.88 111.5,-288.12 232.5,-288.12 232.5,-269.88 111.5,-269.88"/>
</a>
</g>
</g>
<!-- Citizenship&#45;&gt;PersonOntologyThing -->
<g id="edge1" class="edge">
<title>Citizenship&#45;&gt;PersonOntologyThing</title>
<path fill="none" stroke="black" d="M172,-223.71C172,-231.47 172,-240.92 172,-249.74"/>
<polygon fill="none" stroke="black" points="168.5,-249.66 172,-259.66 175.5,-249.66 168.5,-249.66"/>
</g>
<!-- Invis -->
<!-- Citizenship&#45;&gt;Invis -->
<!-- contact__Country -->
<g id="node4" class="node">
<title>contact__Country</title>
<polygon fill="lightgray" stroke="none" points="31.88,-98.88 31.88,-115.12 120.12,-115.12 120.12,-98.88 31.88,-98.88"/>
<text xml:space="preserve" text-anchor="start" x="32.88" y="-102.72" font-family="Arial" font-size="12.00">contact::Country</text>
<polygon fill="none" stroke="black" points="30.88,-97.88 30.88,-116.12 121.12,-116.12 121.12,-97.88 30.88,-97.88"/>
</g>
<!-- Citizenship&#45;&gt;contact__Country -->
<g id="edge5" class="edge">
<title>Citizenship&#45;&gt;contact__Country</title>
<path fill="none" stroke="black" d="M140.06,-189.88C121.95,-181.2 102.57,-171.69 101,-170 92.18,-160.49 86.29,-147.47 82.46,-135.82"/>
<polygon fill="black" stroke="black" points="85.84,-134.89 79.71,-126.25 79.11,-136.83 85.84,-134.89"/>
<text xml:space="preserve" text-anchor="middle" x="129.5" y="-159.55" font-family="Arial" font-size="11.00"> forCountry </text>
<text xml:space="preserve" text-anchor="middle" x="129.5" y="-146.05" font-family="Arial" font-size="11.00"> «max 1» &#160;</text>
</g>
<!-- time__ProperInterval -->
<g id="node5" class="node">
<title>time__ProperInterval</title>
<polygon fill="lightgray" stroke="none" points="17.25,-25.88 17.25,-42.12 122.75,-42.12 122.75,-25.88 17.25,-25.88"/>
<text xml:space="preserve" text-anchor="start" x="18.25" y="-29.73" font-family="Arial" font-size="12.00">time::ProperInterval</text>
<polygon fill="none" stroke="black" points="16.25,-24.88 16.25,-43.12 123.75,-43.12 123.75,-24.88 16.25,-24.88"/>
</g>
<!-- Citizenship&#45;&gt;time__ProperInterval -->
<g id="edge6" class="edge">
<title>Citizenship&#45;&gt;time__ProperInterval</title>
<path fill="none" stroke="black" d="M169.39,-188.09C167.15,-175.43 163.41,-157.82 158,-143 148.72,-117.61 146.54,-110.39 130,-89 121.65,-78.2 110.96,-67.79 100.92,-59.05"/>
<polygon fill="black" stroke="black" points="103.41,-56.57 93.5,-52.8 98.9,-61.92 103.41,-56.57"/>
<text xml:space="preserve" text-anchor="middle" x="186.09" y="-110.05" font-family="Arial" font-size="11.00"> validityPeriod </text>
<text xml:space="preserve" text-anchor="middle" x="186.09" y="-96.55" font-family="Arial" font-size="11.00"> «max 1» &#160;</text>
</g>
<!-- Invis&#45;&gt;contact__Country -->
<!-- contact__Country&#45;&gt;time__ProperInterval -->
</g>
</svg>
