<?xml version="1.0" encoding="UTF-8" standalone="no"?>
<!DOCTYPE svg PUBLIC "-//W3C//DTD SVG 1.1//EN"
 "http://www.w3.org/Graphics/SVG/1.1/DTD/svg11.dtd">
<!-- Generated by graphviz version 14.0.2 (20251019.1705)
 -->
<!-- Pages: 1 -->
<svg width="205pt" height="232pt"
 viewBox="0.00 0.00 205.00 232.00" xmlns="http://www.w3.org/2000/svg" xmlns:xlink="http://www.w3.org/1999/xlink">
<g id="graph0" class="graph" transform="scale(1 1) rotate(0) translate(4 228)">
<polygon fill="white" stroke="none" points="-4,4 -4,-228 200.5,-228 200.5,4 -4,4"/>
<g id="clust2" class="cluster">
<title>cluster_associated</title>
</g>
<!-- Skill -->
<g id="node1" class="node">
<title>Skill</title>
<g id="a_node1"><a xlink:href="../classes/Person__Skill.md" xlink:title="&lt;TABLE&gt;">
<polygon fill="lightgray" stroke="none" points="123.38,-124.88 123.38,-141.12 148.62,-141.12 148.62,-124.88 123.38,-124.88"/>
<text xml:space="preserve" text-anchor="start" x="124.38" y="-128.72" font-family="Arial" font-size="12.00">Skill</text>
<polygon fill="none" stroke="black" points="122.38,-123.88 122.38,-142.12 149.62,-142.12 149.62,-123.88 122.38,-123.88"/>
</a>
</g>
</g>
<!-- PersonOntologyThing -->
<g id="node2" class="node">
<title>PersonOntologyThing</title>
<g id="a_node2"><a xlink:href="../_counters/Person__PersonOntologyThing.md" xlink:title="&lt;TABLE&gt;">
<polygon fill="lightgray" stroke="none" points="76.5,-197.88 76.5,-214.12 195.5,-214.12 195.5,-197.88 76.5,-197.88"/>
<text xml:space="preserve" text-anchor="start" x="77.5" y="-201.72" font-family="Arial" font-size="12.00">PersonOntologyThing</text>
<polygon fill="none" stroke="black" points="75.5,-196.88 75.5,-215.12 196.5,-215.12 196.5,-196.88 75.5,-196.88"/>
</a>
</g>
</g>
<!-- Skill&#45;&gt;PersonOntologyThing -->
<g id="edge1" class="edge">
<title>Skill&#45;&gt;PersonOntologyThing</title>
<path fill="none" stroke="black" d="M136,-150.71C136,-158.47 136,-167.92 136,-176.74"/>
<polygon fill="none" stroke="black" points="132.5,-176.66 136,-186.66 139.5,-176.66 132.5,-176.66"/>
</g>
<!-- Invis -->
<!-- Skill&#45;&gt;Invis -->
<!-- code__Code -->
<g id="node4" class="node">
<title>code__Code</title>
<polygon fill="lightgray" stroke="none" points="17.25,-25.88 17.25,-42.12 80.75,-42.12 80.75,-25.88 17.25,-25.88"/>
<text xml:space="preserve" text-anchor="start" x="18.25" y="-29.73" font-family="Arial" font-size="12.00">code::Code</text>
<polygon fill="none" stroke="black" points="16.25,-24.88 16.25,-43.12 81.75,-43.12 81.75,-24.88 16.25,-24.88"/>
</g>
<!-- Skill&#45;&gt;code__Code -->
<g id="edge4" class="edge">
<title>Skill&#45;&gt;code__Code</title>
<path fill="none" stroke="black" d="M120.85,-115.1C107.25,-99.94 87.1,-77.48 71.6,-60.2"/>
<polygon fill="black" stroke="black" points="74.27,-57.94 64.99,-52.83 69.06,-62.61 74.27,-57.94"/>
<text xml:space="preserve" text-anchor="middle" x="142.23" y="-86.55" font-family="Arial" font-size="11.00"> code::hasCode </text>
<text xml:space="preserve" text-anchor="middle" x="142.23" y="-73.05" font-family="Arial" font-size="11.00"> «only» &#160;</text>
</g>
<!-- Invis&#45;&gt;code__Code -->
</g>
</svg>
