<?xml version="1.0" encoding="UTF-8" standalone="no"?>
<!DOCTYPE svg PUBLIC "-//W3C//DTD SVG 1.1//EN"
 "http://www.w3.org/Graphics/SVG/1.1/DTD/svg11.dtd">
<!-- Generated by graphviz version 14.0.2 (20251019.1705)
 -->
<!-- Pages: 1 -->
<svg width="329pt" height="258pt"
 viewBox="0.00 0.00 329.00 258.00" xmlns="http://www.w3.org/2000/svg" xmlns:xlink="http://www.w3.org/1999/xlink">
<g id="graph0" class="graph" transform="scale(1 1) rotate(0) translate(4 254)">
<polygon fill="white" stroke="none" points="-4,4 -4,-254 325.26,-254 325.26,4 -4,4"/>
<g id="clust2" class="cluster">
<title>cluster_associated</title>
</g>
<!-- sosa_Sampler -->
<g id="node1" class="node">
<title>sosa_Sampler</title>
<g id="a_node1"><a xlink:href="../classes/Sensors__sosa:Sampler.md" xlink:title="&lt;TABLE&gt;">
<polygon fill="lightgray" stroke="none" points="119.25,-124.88 119.25,-141.12 194.75,-141.12 194.75,-124.88 119.25,-124.88"/>
<text xml:space="preserve" text-anchor="start" x="120.25" y="-128.72" font-family="Arial" font-size="12.00">sosa:Sampler</text>
<polygon fill="none" stroke="black" points="118.25,-123.88 118.25,-142.12 195.75,-142.12 195.75,-123.88 118.25,-123.88"/>
</a>
</g>
</g>
<!-- ssn_System -->
<g id="node2" class="node">
<title>ssn_System</title>
<polygon fill="lightgray" stroke="none" points="84.25,-223.88 84.25,-240.12 147.75,-240.12 147.75,-223.88 84.25,-223.88"/>
<text xml:space="preserve" text-anchor="start" x="85.25" y="-227.72" font-family="Arial" font-size="12.00">ssn:System</text>
<polygon fill="none" stroke="black" points="83.25,-222.88 83.25,-241.12 148.75,-241.12 148.75,-222.88 83.25,-222.88"/>
</g>
<!-- sosa_Sampler&#45;&gt;ssn_System -->
<g id="edge1" class="edge">
<title>sosa_Sampler&#45;&gt;ssn_System</title>
<path fill="none" stroke="black" d="M149.94,-150.7C143.79,-165.25 134.76,-186.61 127.56,-203.65"/>
<polygon fill="none" stroke="black" points="124.4,-202.14 123.73,-212.71 130.85,-204.86 124.4,-202.14"/>
</g>
<!-- Invis -->
<!-- sosa_Sampler&#45;&gt;Invis -->
<!-- sosa_Sampling -->
<g id="node4" class="node">
<title>sosa_Sampling</title>
<polygon fill="lightgray" stroke="none" points="17.25,-25.88 17.25,-42.12 98.75,-42.12 98.75,-25.88 17.25,-25.88"/>
<text xml:space="preserve" text-anchor="start" x="18.25" y="-29.73" font-family="Arial" font-size="12.00">sosa:Sampling</text>
<polygon fill="none" stroke="black" points="16.25,-24.88 16.25,-43.12 99.75,-43.12 99.75,-24.88 16.25,-24.88"/>
</g>
<!-- sosa_Sampler&#45;&gt;sosa_Sampling -->
<g id="edge5" class="edge">
<title>sosa_Sampler&#45;&gt;sosa_Sampling</title>
<path fill="none" stroke="black" d="M139.76,-115.1C124.14,-99.8 100.94,-77.07 83.24,-59.73"/>
<polygon fill="black" stroke="black" points="85.72,-57.26 76.13,-52.76 80.82,-62.26 85.72,-57.26"/>
<text xml:space="preserve" text-anchor="middle" x="171.03" y="-86.55" font-family="Arial" font-size="11.00"> sosa:madeSampling </text>
<text xml:space="preserve" text-anchor="middle" x="171.03" y="-73.05" font-family="Arial" font-size="11.00"> «only» &#160;</text>
</g>
<!-- owl__Thing -->
<g id="node5" class="node">
<title>owl__Thing</title>
<polygon fill="lightgray" stroke="none" points="168.25,-223.88 168.25,-240.12 225.75,-240.12 225.75,-223.88 168.25,-223.88"/>
<text xml:space="preserve" text-anchor="start" x="169.25" y="-227.72" font-family="Arial" font-size="12.00">owl::Thing</text>
<polygon fill="none" stroke="black" points="167.25,-222.88 167.25,-241.12 226.75,-241.12 226.75,-222.88 167.25,-222.88"/>
</g>
<!-- sosa_Sampler&#45;&gt;owl__Thing -->
<g id="edge4" class="edge">
<title>sosa_Sampler&#45;&gt;owl__Thing</title>
<path fill="none" stroke="black" stroke-dasharray="5,2" d="M163.89,-150.7C169.89,-165.25 178.7,-186.61 185.72,-203.65"/>
<polygon fill="black" stroke="black" points="182.41,-204.79 189.46,-212.7 188.88,-202.13 182.41,-204.79"/>
<text xml:space="preserve" text-anchor="middle" x="251.51" y="-185.55" font-family="Arial" font-size="11.00"> onProperty: ssn:implements </text>
<text xml:space="preserve" text-anchor="middle" x="251.51" y="-172.05" font-family="Arial" font-size="11.00"> «min 1» &#160;</text>
</g>
<!-- Invis&#45;&gt;sosa_Sampling -->
</g>
</svg>
