<?xml version="1.0" encoding="UTF-8" standalone="no"?>
<!DOCTYPE svg PUBLIC "-//W3C//DTD SVG 1.1//EN"
 "http://www.w3.org/Graphics/SVG/1.1/DTD/svg11.dtd">
<!-- Generated by graphviz version 14.0.2 (20251019.1705)
 -->
<!-- Pages: 1 -->
<svg width="241pt" height="232pt"
 viewBox="0.00 0.00 241.00 232.00" xmlns="http://www.w3.org/2000/svg" xmlns:xlink="http://www.w3.org/1999/xlink">
<g id="graph0" class="graph" transform="scale(1 1) rotate(0) translate(4 228)">
<polygon fill="white" stroke="none" points="-4,4 -4,-228 237.44,-228 237.44,4 -4,4"/>
<g id="clust2" class="cluster">
<title>cluster_associated</title>
</g>
<!-- ssn_Property -->
<g id="node1" class="node">
<title>ssn_Property</title>
<g id="a_node1"><a xlink:href="../classes/Sensors__ssn:Property.md" xlink:title="&lt;TABLE&gt;">
<polygon fill="lightgray" stroke="none" points="156.62,-124.88 156.62,-141.12 225.38,-141.12 225.38,-124.88 156.62,-124.88"/>
<text xml:space="preserve" text-anchor="start" x="157.62" y="-128.72" font-family="Arial" font-size="12.00">ssn:Property</text>
<polygon fill="none" stroke="black" points="155.62,-123.88 155.62,-142.12 226.38,-142.12 226.38,-123.88 155.62,-123.88"/>
</a>
</g>
</g>
<!-- sensorsThing -->
<g id="node2" class="node">
<title>sensorsThing</title>
<g id="a_node2"><a xlink:href="../_counters/Sensors__sensorsThing.md" xlink:title="&lt;TABLE&gt;">
<polygon fill="lightgray" stroke="none" points="153.62,-197.88 153.62,-214.12 228.38,-214.12 228.38,-197.88 153.62,-197.88"/>
<text xml:space="preserve" text-anchor="start" x="154.62" y="-201.72" font-family="Arial" font-size="12.00">sensorsThing</text>
<polygon fill="none" stroke="black" points="152.62,-196.88 152.62,-215.12 229.38,-215.12 229.38,-196.88 152.62,-196.88"/>
</a>
</g>
</g>
<!-- ssn_Property&#45;&gt;sensorsThing -->
<g id="edge1" class="edge">
<title>ssn_Property&#45;&gt;sensorsThing</title>
<path fill="none" stroke="black" d="M191,-150.71C191,-158.47 191,-167.92 191,-176.74"/>
<polygon fill="none" stroke="black" points="187.5,-176.66 191,-186.66 194.5,-176.66 187.5,-176.66"/>
</g>
<!-- Invis -->
<!-- ssn_Property&#45;&gt;Invis -->
<!-- sosa_FeatureOfInterest -->
<g id="node4" class="node">
<title>sosa_FeatureOfInterest</title>
<polygon fill="lightgray" stroke="none" points="16.62,-25.88 16.62,-42.12 139.38,-42.12 139.38,-25.88 16.62,-25.88"/>
<text xml:space="preserve" text-anchor="start" x="17.62" y="-29.73" font-family="Arial" font-size="12.00">sosa:FeatureOfInterest</text>
<polygon fill="none" stroke="black" points="15.62,-24.88 15.62,-43.12 140.38,-43.12 140.38,-24.88 15.62,-24.88"/>
</g>
<!-- ssn_Property&#45;&gt;sosa_FeatureOfInterest -->
<g id="edge4" class="edge">
<title>ssn_Property&#45;&gt;sosa_FeatureOfInterest</title>
<path fill="none" stroke="black" d="M171.32,-115.1C153.25,-99.6 126.29,-76.45 105.98,-59.02"/>
<polygon fill="black" stroke="black" points="108.47,-56.55 98.61,-52.69 103.91,-61.86 108.47,-56.55"/>
<text xml:space="preserve" text-anchor="middle" x="190.69" y="-86.55" font-family="Arial" font-size="11.00"> ssn:isPropertyOf </text>
<text xml:space="preserve" text-anchor="middle" x="190.69" y="-73.05" font-family="Arial" font-size="11.00"> «only» &#160;</text>
</g>
<!-- Invis&#45;&gt;sosa_FeatureOfInterest -->
</g>
</svg>
