<?xml version="1.0" encoding="UTF-8" standalone="no"?>
<!DOCTYPE svg PUBLIC "-//W3C//DTD SVG 1.1//EN"
 "http://www.w3.org/Graphics/SVG/1.1/DTD/svg11.dtd">
<!-- Generated by graphviz version 14.0.2 (20251019.1705)
 -->
<!-- Pages: 1 -->
<svg width="402pt" height="258pt"
 viewBox="0.00 0.00 402.00 258.00" xmlns="http://www.w3.org/2000/svg" xmlns:xlink="http://www.w3.org/1999/xlink">
<g id="graph0" class="graph" transform="scale(1 1) rotate(0) translate(4 254)">
<polygon fill="white" stroke="none" points="-4,4 -4,-254 398.03,-254 398.03,4 -4,4"/>
<g id="clust2" class="cluster">
<title>cluster_associated</title>
</g>
<!-- sosa_Sample -->
<g id="node1" class="node">
<title>sosa_Sample</title>
<g id="a_node1"><a xlink:href="../classes/Sensors__sosa:Sample.md" xlink:title="&lt;TABLE&gt;">
<polygon fill="lightgray" stroke="none" points="150.5,-124.88 150.5,-141.12 222.25,-141.12 222.25,-124.88 150.5,-124.88"/>
<text xml:space="preserve" text-anchor="start" x="151.5" y="-128.72" font-family="Arial" font-size="12.00">sosa:Sample</text>
<polygon fill="none" stroke="black" points="149.5,-123.88 149.5,-142.12 223.25,-142.12 223.25,-123.88 149.5,-123.88"/>
</a>
</g>
</g>
<!-- sosa_FeatureOfInterest -->
<g id="node2" class="node">
<title>sosa_FeatureOfInterest</title>
<polygon fill="lightgray" stroke="none" points="1,-223.88 1,-240.12 123.75,-240.12 123.75,-223.88 1,-223.88"/>
<text xml:space="preserve" text-anchor="start" x="2" y="-227.72" font-family="Arial" font-size="12.00">sosa:FeatureOfInterest</text>
<polygon fill="none" stroke="black" points="0,-222.88 0,-241.12 124.75,-241.12 124.75,-222.88 0,-222.88"/>
</g>
<!-- sosa_Sample&#45;&gt;sosa_FeatureOfInterest -->
<g id="edge1" class="edge">
<title>sosa_Sample&#45;&gt;sosa_FeatureOfInterest</title>
<path fill="none" stroke="black" d="M161.25,-150.83C155.57,-153.99 149.43,-156.95 143.38,-159 126.83,-164.61 77.23,-156.16 65.38,-169 57.15,-177.91 55.57,-190.96 56.39,-202.79"/>
<polygon fill="none" stroke="black" points="52.9,-203.05 57.66,-212.52 59.84,-202.15 52.9,-203.05"/>
</g>
<!-- sosa_Sample&#45;&gt;sosa_FeatureOfInterest -->
<g id="edge5" class="edge">
<title>sosa_Sample&#45;&gt;sosa_FeatureOfInterest</title>
<path fill="none" stroke="black" d="M160.2,-150.99C154.79,-153.99 149.02,-156.84 143.38,-159 123.03,-166.8 112.81,-155.92 95.38,-169 84.02,-177.51 76.17,-191.1 70.99,-203.39"/>
<polygon fill="black" stroke="black" points="67.73,-202.11 67.48,-212.71 74.28,-204.58 67.73,-202.11"/>
<text xml:space="preserve" text-anchor="middle" x="138.88" y="-185.55" font-family="Arial" font-size="11.00"> sosa:isSampleOf </text>
<text xml:space="preserve" text-anchor="middle" x="138.88" y="-172.05" font-family="Arial" font-size="11.00"> «only» &#160;</text>
</g>
<!-- sosa_Result -->
<g id="node3" class="node">
<title>sosa_Result</title>
<polygon fill="lightgray" stroke="none" points="153.88,-223.88 153.88,-240.12 218.88,-240.12 218.88,-223.88 153.88,-223.88"/>
<text xml:space="preserve" text-anchor="start" x="154.88" y="-227.72" font-family="Arial" font-size="12.00">sosa:Result</text>
<polygon fill="none" stroke="black" points="152.88,-222.88 152.88,-241.12 219.88,-241.12 219.88,-222.88 152.88,-222.88"/>
</g>
<!-- sosa_Sample&#45;&gt;sosa_Result -->
<g id="edge2" class="edge">
<title>sosa_Sample&#45;&gt;sosa_Result</title>
<path fill="none" stroke="black" d="M186.38,-150.7C186.38,-164.97 186.38,-185.8 186.38,-202.67"/>
<polygon fill="none" stroke="black" points="182.88,-202.59 186.38,-212.59 189.88,-202.59 182.88,-202.59"/>
</g>
<!-- Invis -->
<!-- sosa_Sample&#45;&gt;Invis -->
<!-- sosa_Sampling -->
<g id="node5" class="node">
<title>sosa_Sampling</title>
<polygon fill="lightgray" stroke="none" points="48.62,-25.88 48.62,-42.12 130.12,-42.12 130.12,-25.88 48.62,-25.88"/>
<text xml:space="preserve" text-anchor="start" x="49.62" y="-29.73" font-family="Arial" font-size="12.00">sosa:Sampling</text>
<polygon fill="none" stroke="black" points="47.62,-24.88 47.62,-43.12 131.12,-43.12 131.12,-24.88 47.62,-24.88"/>
</g>
<!-- sosa_Sample&#45;&gt;sosa_Sampling -->
<g id="edge7" class="edge">
<title>sosa_Sample&#45;&gt;sosa_Sampling</title>
<path fill="none" stroke="black" stroke-dasharray="5,2" d="M169.48,-115.1C154.18,-99.8 131.45,-77.07 114.1,-59.73"/>
<polygon fill="black" stroke="black" points="116.69,-57.37 107.15,-52.77 111.74,-62.32 116.69,-57.37"/>
<text xml:space="preserve" text-anchor="middle" x="219.54" y="-86.55" font-family="Arial" font-size="11.00"> onProperty: sosa:isResultOf </text>
<text xml:space="preserve" text-anchor="middle" x="219.54" y="-73.05" font-family="Arial" font-size="11.00"> «only» &#160;</text>
</g>
<!-- owl__Thing -->
<g id="node6" class="node">
<title>owl__Thing</title>
<polygon fill="lightgray" stroke="none" points="269.62,-223.88 269.62,-240.12 327.12,-240.12 327.12,-223.88 269.62,-223.88"/>
<text xml:space="preserve" text-anchor="start" x="270.62" y="-227.72" font-family="Arial" font-size="12.00">owl::Thing</text>
<polygon fill="none" stroke="black" points="268.62,-222.88 268.62,-241.12 328.12,-241.12 328.12,-222.88 268.62,-222.88"/>
</g>
<!-- sosa_Sample&#45;&gt;owl__Thing -->
<g id="edge6" class="edge">
<title>sosa_Sample&#45;&gt;owl__Thing</title>
<path fill="none" stroke="black" d="M192.19,-150.94C197.62,-164.62 206.94,-183.59 220.38,-196 231.02,-205.83 244.9,-213.26 257.99,-218.68"/>
<polygon fill="black" stroke="black" points="256.71,-221.94 267.3,-222.23 259.2,-215.4 256.71,-221.94"/>
<text xml:space="preserve" text-anchor="middle" x="263.88" y="-185.55" font-family="Arial" font-size="11.00"> sosa:isSampleOf </text>
<text xml:space="preserve" text-anchor="middle" x="263.88" y="-172.05" font-family="Arial" font-size="11.00"> «min 1» &#160;</text>
</g>
<!-- sosa_Sample&#45;&gt;owl__Thing -->
<g id="edge8" class="edge">
<title>sosa_Sample&#45;&gt;owl__Thing</title>
<path fill="none" stroke="black" d="M223,-133.66C251.03,-135.58 288.06,-143.3 307.38,-169 314.71,-178.75 313.89,-191.86 310.65,-203.51"/>
<polygon fill="black" stroke="black" points="307.45,-202.05 307.49,-212.65 314.07,-204.34 307.45,-202.05"/>
<text xml:space="preserve" text-anchor="middle" x="353.53" y="-185.55" font-family="Arial" font-size="11.00"> sosa:isResultOf </text>
<text xml:space="preserve" text-anchor="middle" x="353.53" y="-172.05" font-family="Arial" font-size="11.00"> «min 1» &#160;</text>
</g>
<!-- Invis&#45;&gt;sosa_Sampling -->
</g>
</svg>
