<?xml version="1.0" encoding="UTF-8" standalone="no"?>
<!DOCTYPE svg PUBLIC "-//W3C//DTD SVG 1.1//EN"
 "http://www.w3.org/Graphics/SVG/1.1/DTD/svg11.dtd">
<!-- Generated by graphviz version 14.0.2 (20251019.1705)
 -->
<!-- Pages: 1 -->
<svg width="312pt" height="404pt"
 viewBox="0.00 0.00 312.00 404.00" xmlns="http://www.w3.org/2000/svg" xmlns:xlink="http://www.w3.org/1999/xlink">
<g id="graph0" class="graph" transform="scale(1 1) rotate(0) translate(4 400)">
<polygon fill="white" stroke="none" points="-4,4 -4,-400 308.35,-400 308.35,4 -4,4"/>
<g id="clust2" class="cluster">
<title>cluster_associated</title>
</g>
<!-- sosa_Procedure -->
<g id="node1" class="node">
<title>sosa_Procedure</title>
<g id="a_node1"><a xlink:href="../classes/Sensors__sosa:Procedure.md" xlink:title="&lt;TABLE&gt;">
<polygon fill="lightgray" stroke="none" points="107,-296.88 107,-313.12 193,-313.12 193,-296.88 107,-296.88"/>
<text xml:space="preserve" text-anchor="start" x="108" y="-300.73" font-family="Arial" font-size="12.00">sosa:Procedure</text>
<polygon fill="none" stroke="black" points="106,-295.88 106,-314.12 194,-314.12 194,-295.88 106,-295.88"/>
</a>
</g>
</g>
<!-- sensorsThing -->
<g id="node2" class="node">
<title>sensorsThing</title>
<g id="a_node2"><a xlink:href="../_counters/Sensors__sensorsThing.md" xlink:title="&lt;TABLE&gt;">
<polygon fill="lightgray" stroke="none" points="112.62,-369.88 112.62,-386.12 187.38,-386.12 187.38,-369.88 112.62,-369.88"/>
<text xml:space="preserve" text-anchor="start" x="113.62" y="-373.73" font-family="Arial" font-size="12.00">sensorsThing</text>
<polygon fill="none" stroke="black" points="111.62,-368.88 111.62,-387.12 188.38,-387.12 188.38,-368.88 111.62,-368.88"/>
</a>
</g>
</g>
<!-- sosa_Procedure&#45;&gt;sensorsThing -->
<g id="edge1" class="edge">
<title>sosa_Procedure&#45;&gt;sensorsThing</title>
<path fill="none" stroke="black" d="M150,-322.71C150,-330.47 150,-339.92 150,-348.74"/>
<polygon fill="none" stroke="black" points="146.5,-348.66 150,-358.66 153.5,-348.66 146.5,-348.66"/>
</g>
<!-- Invis -->
<!-- sosa_Procedure&#45;&gt;Invis -->
<!-- ssn_Input -->
<g id="node4" class="node">
<title>ssn_Input</title>
<polygon fill="lightgray" stroke="none" points="25,-197.88 25,-214.12 75,-214.12 75,-197.88 25,-197.88"/>
<text xml:space="preserve" text-anchor="start" x="26" y="-201.72" font-family="Arial" font-size="12.00">ssn:Input</text>
<polygon fill="none" stroke="black" points="24,-196.88 24,-215.12 76,-215.12 76,-196.88 24,-196.88"/>
</g>
<!-- sosa_Procedure&#45;&gt;ssn_Input -->
<g id="edge7" class="edge">
<title>sosa_Procedure&#45;&gt;ssn_Input</title>
<path fill="none" stroke="black" d="M106.13,-289.3C84.61,-281.69 62.58,-273.15 59.25,-269 51.73,-259.61 48.98,-246.76 48.28,-235.2"/>
<polygon fill="black" stroke="black" points="51.78,-235.29 48.2,-225.32 44.78,-235.35 51.78,-235.29"/>
<text xml:space="preserve" text-anchor="middle" x="92.62" y="-258.55" font-family="Arial" font-size="11.00"> ssn:hasInput </text>
<text xml:space="preserve" text-anchor="middle" x="92.62" y="-245.05" font-family="Arial" font-size="11.00"> «only» &#160;</text>
</g>
<!-- ssn_Output -->
<g id="node5" class="node">
<title>ssn_Output</title>
<polygon fill="lightgray" stroke="none" points="20.5,-98.88 20.5,-115.12 79.5,-115.12 79.5,-98.88 20.5,-98.88"/>
<text xml:space="preserve" text-anchor="start" x="21.5" y="-102.72" font-family="Arial" font-size="12.00">ssn:Output</text>
<polygon fill="none" stroke="black" points="19.5,-97.88 19.5,-116.12 80.5,-116.12 80.5,-97.88 19.5,-97.88"/>
</g>
<!-- sosa_Procedure&#45;&gt;ssn_Output -->
<g id="edge8" class="edge">
<title>sosa_Procedure&#45;&gt;ssn_Output</title>
<path fill="none" stroke="black" d="M144.23,-287.14C139.73,-274.51 133.07,-256.91 126,-242 107.8,-203.6 82.91,-161.24 66.65,-134.63"/>
<polygon fill="black" stroke="black" points="69.68,-132.88 61.46,-126.2 63.72,-136.55 69.68,-132.88"/>
<text xml:space="preserve" text-anchor="middle" x="154.25" y="-209.05" font-family="Arial" font-size="11.00"> ssn:hasOutput </text>
<text xml:space="preserve" text-anchor="middle" x="154.25" y="-195.55" font-family="Arial" font-size="11.00"> «only» &#160;</text>
</g>
<!-- Invis&#45;&gt;ssn_Input -->
<!-- ssn_Input&#45;&gt;ssn_Output -->
<!-- ssn_System -->
<g id="node6" class="node">
<title>ssn_System</title>
<polygon fill="lightgray" stroke="none" points="17.25,-25.88 17.25,-42.12 80.75,-42.12 80.75,-25.88 17.25,-25.88"/>
<text xml:space="preserve" text-anchor="start" x="18.25" y="-29.73" font-family="Arial" font-size="12.00">ssn:System</text>
<polygon fill="none" stroke="black" points="16.25,-24.88 16.25,-43.12 81.75,-43.12 81.75,-24.88 16.25,-24.88"/>
</g>
<!-- ssn_Output&#45;&gt;ssn_System -->
<!-- ssn_System&#45;&gt;sosa_Procedure -->
<g id="edge6" class="edge">
<title>ssn_System&#45;&gt;sosa_Procedure</title>
<path fill="none" stroke="black" d="M74.51,-51.81C109.67,-76.68 171.45,-127 196,-188 208.55,-219.19 188.99,-255.19 171.63,-278.71"/>
<polygon fill="black" stroke="black" points="162.69,-284.54 171.58,-278.77 168.23,-288.82 162.69,-284.54"/>
<text xml:space="preserve" text-anchor="middle" x="245.48" y="-159.55" font-family="Arial" font-size="11.00"> inverse ssn:implements </text>
<text xml:space="preserve" text-anchor="middle" x="245.48" y="-146.05" font-family="Arial" font-size="11.00"> «only» &#160;</text>
</g>
</g>
</svg>
