<?xml version="1.0" encoding="UTF-8" standalone="no"?>
<!DOCTYPE svg PUBLIC "-//W3C//DTD SVG 1.1//EN"
 "http://www.w3.org/Graphics/SVG/1.1/DTD/svg11.dtd">
<!-- Generated by graphviz version 14.0.2 (20251019.1705)
 -->
<!-- Pages: 1 -->
<svg width="1041pt" height="493pt"
 viewBox="0.00 0.00 1041.00 493.00" xmlns="http://www.w3.org/2000/svg" xmlns:xlink="http://www.w3.org/1999/xlink">
<g id="graph0" class="graph" transform="scale(1 1) rotate(0) translate(4 489)">
<polygon fill="white" stroke="none" points="-4,4 -4,-489 1036.76,-489 1036.76,4 -4,4"/>
<g id="clust2" class="cluster">
<title>cluster_associated</title>
</g>
<!-- sosa_Actuation -->
<g id="node1" class="node">
<title>sosa_Actuation</title>
<g id="a_node1"><a xlink:href="../classes/Sensors__sosa:Actuation.md" xlink:title="&lt;TABLE&gt;">
<polygon fill="lightgray" stroke="none" points="331.5,-206 331.5,-222.25 558.5,-222.25 558.5,-206 331.5,-206"/>
<text xml:space="preserve" text-anchor="start" x="405.62" y="-209.85" font-family="Arial" font-size="12.00">sosa:Actuation</text>
<text xml:space="preserve" text-anchor="start" x="332.5" y="-193.6" font-family="Arial" font-size="12.00">sosa:resultTime: xsd:dateTime «exactly 1»</text>
<polygon fill="none" stroke="black" points="330.5,-188.75 330.5,-223.25 559.5,-223.25 559.5,-188.75 330.5,-188.75"/>
</a>
</g>
</g>
<!-- sensorsThing -->
<g id="node2" class="node">
<title>sensorsThing</title>
<g id="a_node2"><a xlink:href="../_counters/Sensors__sensorsThing.md" xlink:title="&lt;TABLE&gt;">
<polygon fill="lightgray" stroke="none" points="406.62,-296.88 406.62,-313.12 481.38,-313.12 481.38,-296.88 406.62,-296.88"/>
<text xml:space="preserve" text-anchor="start" x="407.62" y="-300.73" font-family="Arial" font-size="12.00">sensorsThing</text>
<polygon fill="none" stroke="black" points="405.62,-295.88 405.62,-314.12 482.38,-314.12 482.38,-295.88 405.62,-295.88"/>
</a>
</g>
</g>
<!-- sosa_Actuation&#45;&gt;sensorsThing -->
<g id="edge1" class="edge">
<title>sosa_Actuation&#45;&gt;sensorsThing</title>
<path fill="none" stroke="black" d="M433.73,-223.74C430.59,-229.31 427.6,-235.7 426,-242 423.05,-253.63 423.18,-257.34 426,-269 426.64,-271.63 427.51,-274.29 428.53,-276.9"/>
<polygon fill="none" stroke="black" points="425.28,-278.23 432.68,-285.82 431.63,-275.28 425.28,-278.23"/>
</g>
<!-- Invis -->
<!-- sosa_Actuation&#45;&gt;Invis -->
<!-- sosa_Actuator -->
<g id="node5" class="node">
<title>sosa_Actuator</title>
<polygon fill="lightgray" stroke="none" points="45.62,-296.88 45.62,-313.12 120.38,-313.12 120.38,-296.88 45.62,-296.88"/>
<text xml:space="preserve" text-anchor="start" x="46.62" y="-300.73" font-family="Arial" font-size="12.00">sosa:Actuator</text>
<polygon fill="none" stroke="black" points="44.62,-295.88 44.62,-314.12 121.38,-314.12 121.38,-295.88 44.62,-295.88"/>
</g>
<!-- sosa_Actuation&#45;&gt;sosa_Actuator -->
<g id="edge16" class="edge">
<title>sosa_Actuation&#45;&gt;sosa_Actuator</title>
<path fill="none" stroke="black" d="M330.65,-211.52C234.68,-216.43 110.52,-225.82 93.25,-242 84.18,-250.51 81.15,-263.73 80.59,-275.79"/>
<polygon fill="black" stroke="black" points="77.09,-275.76 80.69,-285.72 84.09,-275.68 77.09,-275.76"/>
<text xml:space="preserve" text-anchor="middle" x="149.12" y="-258.55" font-family="Arial" font-size="11.00"> sosa:madeByActuator </text>
<text xml:space="preserve" text-anchor="middle" x="149.12" y="-245.05" font-family="Arial" font-size="11.00"> «only» &#160;</text>
</g>
<!-- sosa_Procedure -->
<g id="node7" class="node">
<title>sosa_Procedure</title>
<polygon fill="lightgray" stroke="none" points="63,-98.88 63,-115.12 149,-115.12 149,-98.88 63,-98.88"/>
<text xml:space="preserve" text-anchor="start" x="64" y="-102.72" font-family="Arial" font-size="12.00">sosa:Procedure</text>
<polygon fill="none" stroke="black" points="62,-97.88 62,-116.12 150,-116.12 150,-97.88 62,-97.88"/>
</g>
<!-- sosa_Actuation&#45;&gt;sosa_Procedure -->
<g id="edge9" class="edge">
<title>sosa_Actuation&#45;&gt;sosa_Procedure</title>
<path fill="none" stroke="black" d="M346.33,-188.02C321.55,-182.97 295.14,-176.92 271,-170 231.75,-158.76 188.6,-142.39 156.27,-129.3"/>
<polygon fill="black" stroke="black" points="157.72,-126.11 147.14,-125.57 155.07,-132.59 157.72,-126.11"/>
<text xml:space="preserve" text-anchor="middle" x="323.5" y="-159.55" font-family="Arial" font-size="11.00"> sosa:usedProcedure </text>
<text xml:space="preserve" text-anchor="middle" x="323.5" y="-146.05" font-family="Arial" font-size="11.00"> «only» &#160;</text>
</g>
<!-- owl__Thing -->
<g id="node9" class="node">
<title>owl__Thing</title>
<polygon fill="lightgray" stroke="none" points="641.25,-296.88 641.25,-313.12 698.75,-313.12 698.75,-296.88 641.25,-296.88"/>
<text xml:space="preserve" text-anchor="start" x="642.25" y="-300.73" font-family="Arial" font-size="12.00">owl::Thing</text>
<polygon fill="none" stroke="black" points="640.25,-295.88 640.25,-314.12 699.75,-314.12 699.75,-295.88 640.25,-295.88"/>
</g>
<!-- sosa_Actuation&#45;&gt;owl__Thing -->
<g id="edge10" class="edge">
<title>sosa_Actuation&#45;&gt;owl__Thing</title>
<path fill="none" stroke="black" d="M559.32,-207.55C690.67,-209.4 891.27,-216.44 915,-242 923.16,-250.79 922.86,-259.93 915,-269 889.08,-298.88 773.7,-303.89 710.96,-304.34"/>
<polygon fill="black" stroke="black" points="711.02,-300.84 701.03,-304.37 711.04,-307.84 711.02,-300.84"/>
<text xml:space="preserve" text-anchor="middle" x="976.88" y="-258.55" font-family="Arial" font-size="11.00"> sosa:madeByActuator </text>
<text xml:space="preserve" text-anchor="middle" x="976.88" y="-245.05" font-family="Arial" font-size="11.00"> «exactly 1» &#160;</text>
</g>
<!-- sosa_ActuatableProperty -->
<g id="node4" class="node">
<title>sosa_ActuatableProperty</title>
<polygon fill="lightgray" stroke="none" points="16.75,-369.88 16.75,-386.12 149.25,-386.12 149.25,-369.88 16.75,-369.88"/>
<text xml:space="preserve" text-anchor="start" x="17.75" y="-373.73" font-family="Arial" font-size="12.00">sosa:ActuatableProperty</text>
<polygon fill="none" stroke="black" points="15.75,-368.88 15.75,-387.12 150.25,-387.12 150.25,-368.88 15.75,-368.88"/>
</g>
<!-- Invis&#45;&gt;sosa_ActuatableProperty -->
<!-- sosa_ActuatableProperty&#45;&gt;sosa_Actuation -->
<g id="edge13" class="edge">
<title>sosa_ActuatableProperty&#45;&gt;sosa_Actuation</title>
<path fill="none" stroke="black" d="M107.92,-360.11C137.02,-340.83 187.02,-309.14 232.75,-287 281.48,-263.41 339.08,-242.09 381.98,-227.4"/>
<polygon fill="black" stroke="black" points="392.65,-227.47 382.05,-227.37 390.4,-220.84 392.65,-227.47"/>
<text xml:space="preserve" text-anchor="middle" x="298.38" y="-308.05" font-family="Arial" font-size="11.00"> inverse sosa:isActedOnBy </text>
<text xml:space="preserve" text-anchor="middle" x="298.38" y="-294.55" font-family="Arial" font-size="11.00"> «only» &#160;</text>
</g>
<!-- sosa_ActuatableProperty&#45;&gt;sosa_Actuator -->
<!-- sosa_FeatureOfInterest -->
<g id="node6" class="node">
<title>sosa_FeatureOfInterest</title>
<polygon fill="lightgray" stroke="none" points="16.62,-197.88 16.62,-214.12 139.38,-214.12 139.38,-197.88 16.62,-197.88"/>
<text xml:space="preserve" text-anchor="start" x="17.62" y="-201.72" font-family="Arial" font-size="12.00">sosa:FeatureOfInterest</text>
<polygon fill="none" stroke="black" points="15.62,-196.88 15.62,-215.12 140.38,-215.12 140.38,-196.88 15.62,-196.88"/>
</g>
<!-- sosa_Actuator&#45;&gt;sosa_FeatureOfInterest -->
<!-- sosa_FeatureOfInterest&#45;&gt;sosa_Actuation -->
<g id="edge11" class="edge">
<title>sosa_FeatureOfInterest&#45;&gt;sosa_Actuation</title>
<path fill="none" stroke="black" d="M140.26,-206C189.46,-206 259.71,-206 320.36,-206"/>
<polygon fill="black" stroke="black" points="330.28,-209.5 320.28,-206 330.28,-202.5 330.28,-209.5"/>
<text xml:space="preserve" text-anchor="middle" x="235.44" y="-225.55" font-family="Arial" font-size="11.00"> inverse sosa:isFeatureOfInterestOf </text>
<text xml:space="preserve" text-anchor="middle" x="235.44" y="-212.05" font-family="Arial" font-size="11.00"> «only» &#160;</text>
</g>
<!-- sosa_FeatureOfInterest&#45;&gt;sosa_Procedure -->
<!-- sosa_Result -->
<g id="node8" class="node">
<title>sosa_Result</title>
<polygon fill="lightgray" stroke="none" points="78.5,-25.88 78.5,-42.12 143.5,-42.12 143.5,-25.88 78.5,-25.88"/>
<text xml:space="preserve" text-anchor="start" x="79.5" y="-29.73" font-family="Arial" font-size="12.00">sosa:Result</text>
<polygon fill="none" stroke="black" points="77.5,-24.88 77.5,-43.12 144.5,-43.12 144.5,-24.88 77.5,-24.88"/>
</g>
<!-- sosa_Procedure&#45;&gt;sosa_Result -->
<!-- sosa_Result&#45;&gt;sosa_Actuation -->
<g id="edge12" class="edge">
<title>sosa_Result&#45;&gt;sosa_Actuation</title>
<path fill="none" stroke="black" d="M144.13,-44.44C196.08,-60.1 298.74,-94.61 376,-143 392.84,-153.55 409.48,-168.33 422.19,-180.82"/>
<polygon fill="black" stroke="black" points="426.74,-190.35 422.17,-180.79 431.7,-185.41 426.74,-190.35"/>
<text xml:space="preserve" text-anchor="middle" x="401.64" y="-110.05" font-family="Arial" font-size="11.00"> inverse sosa:isResultOf </text>
<text xml:space="preserve" text-anchor="middle" x="401.64" y="-96.55" font-family="Arial" font-size="11.00"> «only» &#160;</text>
</g>
<!-- owl__Thing&#45;&gt;sosa_Actuation -->
<g id="edge8" class="edge">
<title>owl__Thing&#45;&gt;sosa_Actuation</title>
<path fill="none" stroke="black" d="M640.46,-301.5C582.49,-296.29 458.36,-283.55 445.75,-269 437.65,-259.66 436.67,-246.22 438.05,-234.24"/>
<polygon fill="black" stroke="black" points="443.21,-224.9 438.06,-234.16 436.31,-223.71 443.21,-224.9"/>
<text xml:space="preserve" text-anchor="middle" x="511.38" y="-258.55" font-family="Arial" font-size="11.00"> inverse sosa:isActedOnBy </text>
<text xml:space="preserve" text-anchor="middle" x="511.38" y="-245.05" font-family="Arial" font-size="11.00"> «min 1» &#160;</text>
</g>
<!-- owl__Thing&#45;&gt;sosa_Actuation -->
<g id="edge14" class="edge">
<title>owl__Thing&#45;&gt;sosa_Actuation</title>
<path fill="none" stroke="black" d="M640.45,-292.21C627.51,-286.28 612.55,-278.37 600.5,-269 587.94,-259.24 590.5,-250.41 577,-242 567.75,-236.24 557.58,-231.43 547.1,-227.4"/>
<polygon fill="black" stroke="black" points="539.07,-220.79 547.29,-227.46 536.7,-227.37 539.07,-220.79"/>
<text xml:space="preserve" text-anchor="middle" x="659.75" y="-258.55" font-family="Arial" font-size="11.00"> inverse sosa:isResultOf </text>
<text xml:space="preserve" text-anchor="middle" x="659.75" y="-245.05" font-family="Arial" font-size="11.00"> «min 1» &#160;</text>
</g>
<!-- owl__Thing&#45;&gt;sosa_Actuation -->
<g id="edge15" class="edge">
<title>owl__Thing&#45;&gt;sosa_Actuation</title>
<path fill="none" stroke="black" d="M699.66,-289.49C707.36,-284.18 714.69,-277.37 719,-269 724.49,-258.33 726.93,-251.01 719,-242 708.62,-230.21 637.09,-221.32 569.72,-215.45"/>
<polygon fill="black" stroke="black" points="560.19,-211.13 569.85,-215.46 559.59,-218.1 560.19,-211.13"/>
<text xml:space="preserve" text-anchor="middle" x="810.32" y="-258.55" font-family="Arial" font-size="11.00"> inverse sosa:isFeatureOfInterestOf </text>
<text xml:space="preserve" text-anchor="middle" x="810.32" y="-245.05" font-family="Arial" font-size="11.00"> «exactly 1» &#160;</text>
</g>
</g>
</svg>
