<?xml version="1.0" encoding="UTF-8" standalone="no"?>
<!DOCTYPE svg PUBLIC "-//W3C//DTD SVG 1.1//EN"
 "http://www.w3.org/Graphics/SVG/1.1/DTD/svg11.dtd">
<!-- Generated by graphviz version 14.0.2 (20251019.1705)
 -->
<!-- Pages: 1 -->
<svg width="466pt" height="404pt"
 viewBox="0.00 0.00 466.00 404.00" xmlns="http://www.w3.org/2000/svg" xmlns:xlink="http://www.w3.org/1999/xlink">
<g id="graph0" class="graph" transform="scale(1 1) rotate(0) translate(4 400)">
<polygon fill="white" stroke="none" points="-4,4 -4,-400 461.75,-400 461.75,4 -4,4"/>
<g id="clust2" class="cluster">
<title>cluster_associated</title>
</g>
<!-- ssn_System -->
<g id="node1" class="node">
<title>ssn_System</title>
<g id="a_node1"><a xlink:href="../classes/Sensors__ssn:System.md" xlink:title="&lt;TABLE&gt;">
<polygon fill="lightgray" stroke="none" points="123.25,-296.88 123.25,-313.12 186.75,-313.12 186.75,-296.88 123.25,-296.88"/>
<text xml:space="preserve" text-anchor="start" x="124.25" y="-300.73" font-family="Arial" font-size="12.00">ssn:System</text>
<polygon fill="none" stroke="black" points="122.25,-295.88 122.25,-314.12 187.75,-314.12 187.75,-295.88 122.25,-295.88"/>
</a>
</g>
</g>
<!-- ssn_System&#45;&gt;ssn_System -->
<g id="edge7" class="edge">
<title>ssn_System&#45;&gt;ssn_System</title>
<path fill="none" stroke="black" d="M187.7,-308.42C197.81,-308.35 205.75,-307.21 205.75,-305 205.75,-303.65 202.8,-302.7 198.21,-302.15"/>
<polygon fill="black" stroke="black" points="188.39,-298.11 198.19,-302.15 188.01,-305.1 188.39,-298.11"/>
<text xml:space="preserve" text-anchor="middle" x="273.62" y="-308.05" font-family="Arial" font-size="11.00"> inverse ssn:hasSubSystem </text>
<text xml:space="preserve" text-anchor="middle" x="273.62" y="-294.55" font-family="Arial" font-size="11.00"> «only» &#160;</text>
</g>
<!-- ssn_System&#45;&gt;ssn_System -->
<g id="edge8" class="edge">
<title>ssn_System&#45;&gt;ssn_System</title>
<path fill="none" stroke="black" d="M187.46,-309.71C242.16,-313.68 341.5,-312.11 341.5,-305 341.5,-298.36 254.91,-296.55 198.9,-299.57"/>
<polygon fill="black" stroke="black" points="198.73,-296.08 188.97,-300.2 199.17,-303.06 198.73,-296.08"/>
<text xml:space="preserve" text-anchor="middle" x="390.62" y="-308.05" font-family="Arial" font-size="11.00"> ssn:hasSubSystem </text>
<text xml:space="preserve" text-anchor="middle" x="390.62" y="-294.55" font-family="Arial" font-size="11.00"> «only» &#160;</text>
</g>
<!-- sensorsThing -->
<g id="node2" class="node">
<title>sensorsThing</title>
<g id="a_node2"><a xlink:href="../_counters/Sensors__sensorsThing.md" xlink:title="&lt;TABLE&gt;">
<polygon fill="lightgray" stroke="none" points="117.62,-369.88 117.62,-386.12 192.38,-386.12 192.38,-369.88 117.62,-369.88"/>
<text xml:space="preserve" text-anchor="start" x="118.62" y="-373.73" font-family="Arial" font-size="12.00">sensorsThing</text>
<polygon fill="none" stroke="black" points="116.62,-368.88 116.62,-387.12 193.38,-387.12 193.38,-368.88 116.62,-368.88"/>
</a>
</g>
</g>
<!-- ssn_System&#45;&gt;sensorsThing -->
<g id="edge1" class="edge">
<title>ssn_System&#45;&gt;sensorsThing</title>
<path fill="none" stroke="black" d="M155,-322.71C155,-330.47 155,-339.92 155,-348.74"/>
<polygon fill="none" stroke="black" points="151.5,-348.66 155,-358.66 158.5,-348.66 151.5,-348.66"/>
</g>
<!-- Invis -->
<!-- ssn_System&#45;&gt;Invis -->
<!-- sosa_Platform -->
<g id="node4" class="node">
<title>sosa_Platform</title>
<polygon fill="lightgray" stroke="none" points="16.62,-197.88 16.62,-214.12 91.38,-214.12 91.38,-197.88 16.62,-197.88"/>
<text xml:space="preserve" text-anchor="start" x="17.62" y="-201.72" font-family="Arial" font-size="12.00">sosa:Platform</text>
<polygon fill="none" stroke="black" points="15.62,-196.88 15.62,-215.12 92.38,-215.12 92.38,-196.88 15.62,-196.88"/>
</g>
<!-- ssn_System&#45;&gt;sosa_Platform -->
<g id="edge10" class="edge">
<title>ssn_System&#45;&gt;sosa_Platform</title>
<path fill="none" stroke="black" d="M122.43,-288.71C120.94,-288.11 119.46,-287.54 118,-287 90.58,-276.87 72.5,-292.22 54.75,-269 47.52,-259.54 46.4,-246.69 47.45,-235.13"/>
<polygon fill="black" stroke="black" points="50.91,-235.67 48.95,-225.26 43.99,-234.62 50.91,-235.67"/>
<text xml:space="preserve" text-anchor="middle" x="97.88" y="-258.55" font-family="Arial" font-size="11.00"> sosa:isHostedBy </text>
<text xml:space="preserve" text-anchor="middle" x="97.88" y="-245.05" font-family="Arial" font-size="11.00"> «only» &#160;</text>
</g>
<!-- sosa_Procedure -->
<g id="node5" class="node">
<title>sosa_Procedure</title>
<polygon fill="lightgray" stroke="none" points="18,-98.88 18,-115.12 104,-115.12 104,-98.88 18,-98.88"/>
<text xml:space="preserve" text-anchor="start" x="19" y="-102.72" font-family="Arial" font-size="12.00">sosa:Procedure</text>
<polygon fill="none" stroke="black" points="17,-97.88 17,-116.12 105,-116.12 105,-97.88 17,-97.88"/>
</g>
<!-- ssn_System&#45;&gt;sosa_Procedure -->
<g id="edge6" class="edge">
<title>ssn_System&#45;&gt;sosa_Procedure</title>
<path fill="none" stroke="black" d="M152.69,-287.26C150.59,-274.53 146.9,-256.76 141,-242 125.04,-202.07 98.12,-160.14 79.96,-134.04"/>
<polygon fill="black" stroke="black" points="82.97,-132.24 74.35,-126.09 77.26,-136.28 82.97,-132.24"/>
<text xml:space="preserve" text-anchor="middle" x="172.63" y="-209.05" font-family="Arial" font-size="11.00"> ssn:implements </text>
<text xml:space="preserve" text-anchor="middle" x="172.63" y="-195.55" font-family="Arial" font-size="11.00"> «only» &#160;</text>
</g>
<!-- ssn_Deployment -->
<g id="node6" class="node">
<title>ssn_Deployment</title>
<polygon fill="lightgray" stroke="none" points="16.88,-25.88 16.88,-42.12 105.12,-42.12 105.12,-25.88 16.88,-25.88"/>
<text xml:space="preserve" text-anchor="start" x="17.88" y="-29.73" font-family="Arial" font-size="12.00">ssn:Deployment</text>
<polygon fill="none" stroke="black" points="15.88,-24.88 15.88,-43.12 106.12,-43.12 106.12,-24.88 15.88,-24.88"/>
</g>
<!-- ssn_System&#45;&gt;ssn_Deployment -->
<g id="edge9" class="edge">
<title>ssn_System&#45;&gt;ssn_Deployment</title>
<path fill="none" stroke="black" d="M174.74,-287.2C198.21,-265.06 232.38,-224.63 217,-188 192.97,-130.77 135.92,-84.19 97.88,-58.03"/>
<polygon fill="black" stroke="black" points="100.16,-55.34 89.91,-52.67 96.26,-61.15 100.16,-55.34"/>
<text xml:space="preserve" text-anchor="middle" x="258.35" y="-159.55" font-family="Arial" font-size="11.00"> ssn:hasDeployment </text>
<text xml:space="preserve" text-anchor="middle" x="258.35" y="-146.05" font-family="Arial" font-size="11.00"> «only» &#160;</text>
</g>
<!-- Invis&#45;&gt;sosa_Platform -->
<!-- sosa_Platform&#45;&gt;sosa_Procedure -->
<!-- sosa_Procedure&#45;&gt;ssn_Deployment -->
</g>
</svg>
