<?xml version="1.0" encoding="UTF-8" standalone="no"?>
<!DOCTYPE svg PUBLIC "-//W3C//DTD SVG 1.1//EN"
 "http://www.w3.org/Graphics/SVG/1.1/DTD/svg11.dtd">
<!-- Generated by graphviz version 14.0.2 (20251019.1705)
 -->
<!-- Pages: 1 -->
<svg width="376pt" height="331pt"
 viewBox="0.00 0.00 376.00 331.00" xmlns="http://www.w3.org/2000/svg" xmlns:xlink="http://www.w3.org/1999/xlink">
<g id="graph0" class="graph" transform="scale(1 1) rotate(0) translate(4 327)">
<polygon fill="white" stroke="none" points="-4,4 -4,-327 372.26,-327 372.26,4 -4,4"/>
<g id="clust2" class="cluster">
<title>cluster_associated</title>
</g>
<!-- sosa_Actuator -->
<g id="node1" class="node">
<title>sosa_Actuator</title>
<g id="a_node1"><a xlink:href="../classes/Sensors__sosa:Actuator.md" xlink:title="&lt;TABLE&gt;">
<polygon fill="lightgray" stroke="none" points="166.62,-197.88 166.62,-214.12 241.38,-214.12 241.38,-197.88 166.62,-197.88"/>
<text xml:space="preserve" text-anchor="start" x="167.62" y="-201.72" font-family="Arial" font-size="12.00">sosa:Actuator</text>
<polygon fill="none" stroke="black" points="165.62,-196.88 165.62,-215.12 242.38,-215.12 242.38,-196.88 165.62,-196.88"/>
</a>
</g>
</g>
<!-- ssn_System -->
<g id="node2" class="node">
<title>ssn_System</title>
<polygon fill="lightgray" stroke="none" points="131.25,-296.88 131.25,-313.12 194.75,-313.12 194.75,-296.88 131.25,-296.88"/>
<text xml:space="preserve" text-anchor="start" x="132.25" y="-300.73" font-family="Arial" font-size="12.00">ssn:System</text>
<polygon fill="none" stroke="black" points="130.25,-295.88 130.25,-314.12 195.75,-314.12 195.75,-295.88 130.25,-295.88"/>
</g>
<!-- sosa_Actuator&#45;&gt;ssn_System -->
<g id="edge1" class="edge">
<title>sosa_Actuator&#45;&gt;ssn_System</title>
<path fill="none" stroke="black" d="M196.94,-223.7C190.79,-238.25 181.76,-259.61 174.56,-276.65"/>
<polygon fill="none" stroke="black" points="171.4,-275.14 170.73,-285.71 177.85,-277.86 171.4,-275.14"/>
</g>
<!-- Invis -->
<!-- sosa_Actuator&#45;&gt;Invis -->
<!-- sosa_ActuatableProperty -->
<g id="node4" class="node">
<title>sosa_ActuatableProperty</title>
<polygon fill="lightgray" stroke="none" points="16.75,-98.88 16.75,-115.12 149.25,-115.12 149.25,-98.88 16.75,-98.88"/>
<text xml:space="preserve" text-anchor="start" x="17.75" y="-102.72" font-family="Arial" font-size="12.00">sosa:ActuatableProperty</text>
<polygon fill="none" stroke="black" points="15.75,-97.88 15.75,-116.12 150.25,-116.12 150.25,-97.88 15.75,-97.88"/>
</g>
<!-- sosa_Actuator&#45;&gt;sosa_ActuatableProperty -->
<g id="edge6" class="edge">
<title>sosa_Actuator&#45;&gt;sosa_ActuatableProperty</title>
<path fill="none" stroke="black" d="M166.03,-189.52C164.67,-189.01 163.33,-188.5 162,-188 138.89,-179.37 127.57,-186.79 109.5,-170 99.75,-160.94 93.44,-147.71 89.43,-135.79"/>
<polygon fill="black" stroke="black" points="92.84,-135.01 86.68,-126.39 86.13,-136.97 92.84,-135.01"/>
<text xml:space="preserve" text-anchor="middle" x="149.25" y="-159.55" font-family="Arial" font-size="11.00"> ssn:forProperty </text>
<text xml:space="preserve" text-anchor="middle" x="149.25" y="-146.05" font-family="Arial" font-size="11.00"> «only» &#160;</text>
</g>
<!-- owl__Thing -->
<g id="node6" class="node">
<title>owl__Thing</title>
<polygon fill="lightgray" stroke="none" points="215.25,-296.88 215.25,-313.12 272.75,-313.12 272.75,-296.88 215.25,-296.88"/>
<text xml:space="preserve" text-anchor="start" x="216.25" y="-300.73" font-family="Arial" font-size="12.00">owl::Thing</text>
<polygon fill="none" stroke="black" points="214.25,-295.88 214.25,-314.12 273.75,-314.12 273.75,-295.88 214.25,-295.88"/>
</g>
<!-- sosa_Actuator&#45;&gt;owl__Thing -->
<g id="edge5" class="edge">
<title>sosa_Actuator&#45;&gt;owl__Thing</title>
<path fill="none" stroke="black" stroke-dasharray="5,2" d="M210.89,-223.7C216.89,-238.25 225.7,-259.61 232.72,-276.65"/>
<polygon fill="black" stroke="black" points="229.41,-277.79 236.46,-285.7 235.88,-275.13 229.41,-277.79"/>
<text xml:space="preserve" text-anchor="middle" x="298.51" y="-258.55" font-family="Arial" font-size="11.00"> onProperty: ssn:implements </text>
<text xml:space="preserve" text-anchor="middle" x="298.51" y="-245.05" font-family="Arial" font-size="11.00"> «min 1» &#160;</text>
</g>
<!-- Invis&#45;&gt;sosa_ActuatableProperty -->
<!-- sosa_Actuation -->
<g id="node5" class="node">
<title>sosa_Actuation</title>
<polygon fill="lightgray" stroke="none" points="55.62,-25.88 55.62,-42.12 136.38,-42.12 136.38,-25.88 55.62,-25.88"/>
<text xml:space="preserve" text-anchor="start" x="56.62" y="-29.73" font-family="Arial" font-size="12.00">sosa:Actuation</text>
<polygon fill="none" stroke="black" points="54.62,-24.88 54.62,-43.12 137.38,-43.12 137.38,-24.88 54.62,-24.88"/>
</g>
<!-- sosa_ActuatableProperty&#45;&gt;sosa_Actuation -->
<!-- sosa_Actuation&#45;&gt;sosa_Actuator -->
<g id="edge7" class="edge">
<title>sosa_Actuation&#45;&gt;sosa_Actuator</title>
<path fill="none" stroke="black" d="M119.66,-51.99C132.33,-61.85 147.61,-75.05 159,-89 176.36,-110.27 179.01,-117.43 189,-143 193.32,-154.06 196.65,-166.74 199.07,-177.73"/>
<polygon fill="black" stroke="black" points="197.65,-188.26 199.07,-177.76 204.51,-186.86 197.65,-188.26"/>
<text xml:space="preserve" text-anchor="middle" x="256.28" y="-110.05" font-family="Arial" font-size="11.00"> inverse sosa:madeByActuator </text>
<text xml:space="preserve" text-anchor="middle" x="256.28" y="-96.55" font-family="Arial" font-size="11.00"> «only» &#160;</text>
</g>
</g>
</svg>
