<?xml version="1.0" encoding="UTF-8" standalone="no"?>
<!DOCTYPE svg PUBLIC "-//W3C//DTD SVG 1.1//EN"
 "http://www.w3.org/Graphics/SVG/1.1/DTD/svg11.dtd">
<!-- Generated by graphviz version 14.0.2 (20251019.1705)
 -->
<!-- Pages: 1 -->
<svg width="211pt" height="159pt"
 viewBox="0.00 0.00 211.00 159.00" xmlns="http://www.w3.org/2000/svg" xmlns:xlink="http://www.w3.org/1999/xlink">
<g id="graph0" class="graph" transform="scale(1 1) rotate(0) translate(4 155)">
<polygon fill="white" stroke="none" points="-4,4 -4,-155 207.38,-155 207.38,4 -4,4"/>
<g id="clust2" class="cluster">
<title>cluster_associated</title>
</g>
<!-- sosa_Result -->
<g id="node1" class="node">
<title>sosa_Result</title>
<g id="a_node1"><a xlink:href="../classes/Sensors__sosa:Result.md" xlink:title="&lt;TABLE&gt;">
<polygon fill="lightgray" stroke="none" points="48.88,-25.88 48.88,-42.12 113.88,-42.12 113.88,-25.88 48.88,-25.88"/>
<text xml:space="preserve" text-anchor="start" x="49.88" y="-29.73" font-family="Arial" font-size="12.00">sosa:Result</text>
<polygon fill="none" stroke="black" points="47.88,-24.88 47.88,-43.12 114.88,-43.12 114.88,-24.88 47.88,-24.88"/>
</a>
</g>
</g>
<!-- sensorsThing -->
<g id="node2" class="node">
<title>sensorsThing</title>
<g id="a_node2"><a xlink:href="../_counters/Sensors__sensorsThing.md" xlink:title="&lt;TABLE&gt;">
<polygon fill="lightgray" stroke="none" points="1,-124.88 1,-141.12 75.75,-141.12 75.75,-124.88 1,-124.88"/>
<text xml:space="preserve" text-anchor="start" x="2" y="-128.72" font-family="Arial" font-size="12.00">sensorsThing</text>
<polygon fill="none" stroke="black" points="0,-123.88 0,-142.12 76.75,-142.12 76.75,-123.88 0,-123.88"/>
</a>
</g>
</g>
<!-- sosa_Result&#45;&gt;sensorsThing -->
<g id="edge1" class="edge">
<title>sosa_Result&#45;&gt;sensorsThing</title>
<path fill="none" stroke="black" d="M73.97,-51.7C67.52,-66.25 58.05,-87.61 50.5,-104.65"/>
<polygon fill="none" stroke="black" points="47.33,-103.16 46.48,-113.72 53.73,-106 47.33,-103.16"/>
</g>
<!-- owl__Thing -->
<g id="node4" class="node">
<title>owl__Thing</title>
<polygon fill="lightgray" stroke="none" points="95.62,-124.88 95.62,-141.12 153.12,-141.12 153.12,-124.88 95.62,-124.88"/>
<text xml:space="preserve" text-anchor="start" x="96.62" y="-128.72" font-family="Arial" font-size="12.00">owl::Thing</text>
<polygon fill="none" stroke="black" points="94.62,-123.88 94.62,-142.12 154.12,-142.12 154.12,-123.88 94.62,-123.88"/>
</g>
<!-- sosa_Result&#45;&gt;owl__Thing -->
<g id="edge2" class="edge">
<title>sosa_Result&#45;&gt;owl__Thing</title>
<path fill="none" stroke="black" d="M88.78,-51.7C95.23,-66.25 104.7,-87.61 112.25,-104.65"/>
<polygon fill="black" stroke="black" points="109.02,-106 116.27,-113.72 115.42,-103.16 109.02,-106"/>
<text xml:space="preserve" text-anchor="middle" x="148.49" y="-86.55" font-family="Arial" font-size="11.00"> sosa:isResultOf </text>
<text xml:space="preserve" text-anchor="middle" x="148.49" y="-73.05" font-family="Arial" font-size="11.00"> «min 1» &#160;</text>
</g>
<!-- Invis -->
</g>
</svg>
