<?xml version="1.0" encoding="UTF-8" standalone="no"?>
<!DOCTYPE svg PUBLIC "-//W3C//DTD SVG 1.1//EN"
 "http://www.w3.org/Graphics/SVG/1.1/DTD/svg11.dtd">
<!-- Generated by graphviz version 14.0.2 (20251019.1705)
 -->
<!-- Pages: 1 -->
<svg width="476pt" height="258pt"
 viewBox="0.00 0.00 476.00 258.00" xmlns="http://www.w3.org/2000/svg" xmlns:xlink="http://www.w3.org/1999/xlink">
<g id="graph0" class="graph" transform="scale(1 1) rotate(0) translate(4 254)">
<polygon fill="white" stroke="none" points="-4,4 -4,-254 471.62,-254 471.62,4 -4,4"/>
<g id="clust2" class="cluster">
<title>cluster_associated</title>
</g>
<!-- ssn_Stimulus -->
<g id="node1" class="node">
<title>ssn_Stimulus</title>
<g id="a_node1"><a xlink:href="../classes/Sensors__ssn:Stimulus.md" xlink:title="&lt;TABLE&gt;">
<polygon fill="lightgray" stroke="none" points="172.88,-124.88 172.88,-141.12 243.12,-141.12 243.12,-124.88 172.88,-124.88"/>
<text xml:space="preserve" text-anchor="start" x="173.88" y="-128.72" font-family="Arial" font-size="12.00">ssn:Stimulus</text>
<polygon fill="none" stroke="black" points="171.88,-123.88 171.88,-142.12 244.12,-142.12 244.12,-123.88 171.88,-123.88"/>
</a>
</g>
</g>
<!-- sensorsThing -->
<g id="node2" class="node">
<title>sensorsThing</title>
<g id="a_node2"><a xlink:href="../_counters/Sensors__sensorsThing.md" xlink:title="&lt;TABLE&gt;">
<polygon fill="lightgray" stroke="none" points="65.62,-223.88 65.62,-240.12 140.38,-240.12 140.38,-223.88 65.62,-223.88"/>
<text xml:space="preserve" text-anchor="start" x="66.62" y="-227.72" font-family="Arial" font-size="12.00">sensorsThing</text>
<polygon fill="none" stroke="black" points="64.62,-222.88 64.62,-241.12 141.38,-241.12 141.38,-222.88 64.62,-222.88"/>
</a>
</g>
</g>
<!-- ssn_Stimulus&#45;&gt;sensorsThing -->
<g id="edge1" class="edge">
<title>ssn_Stimulus&#45;&gt;sensorsThing</title>
<path fill="none" stroke="black" d="M189.92,-150.7C173.28,-166.08 148.38,-189.08 129.49,-206.53"/>
<polygon fill="none" stroke="black" points="127.37,-203.72 122.4,-213.08 132.12,-208.86 127.37,-203.72"/>
</g>
<!-- Invis -->
<!-- ssn_Stimulus&#45;&gt;Invis -->
<!-- sosa_ObservableProperty -->
<g id="node4" class="node">
<title>sosa_ObservableProperty</title>
<polygon fill="lightgray" stroke="none" points="17.5,-25.88 17.5,-42.12 154.5,-42.12 154.5,-25.88 17.5,-25.88"/>
<text xml:space="preserve" text-anchor="start" x="18.5" y="-29.73" font-family="Arial" font-size="12.00">sosa:ObservableProperty</text>
<polygon fill="none" stroke="black" points="16.5,-24.88 16.5,-43.12 155.5,-43.12 155.5,-24.88 16.5,-24.88"/>
</g>
<!-- ssn_Stimulus&#45;&gt;sosa_ObservableProperty -->
<g id="edge6" class="edge">
<title>ssn_Stimulus&#45;&gt;sosa_ObservableProperty</title>
<path fill="none" stroke="black" d="M186.75,-115.1C167.16,-99.53 137.87,-76.24 115.92,-58.79"/>
<polygon fill="black" stroke="black" points="118.2,-56.13 108.19,-52.64 113.84,-61.61 118.2,-56.13"/>
<text xml:space="preserve" text-anchor="middle" x="200.14" y="-86.55" font-family="Arial" font-size="11.00"> ssn:isProxyFor </text>
<text xml:space="preserve" text-anchor="middle" x="200.14" y="-73.05" font-family="Arial" font-size="11.00"> «only» &#160;</text>
</g>
<!-- Invis&#45;&gt;sosa_ObservableProperty -->
<!-- sosa_Observation -->
<g id="node5" class="node">
<title>sosa_Observation</title>
<polygon fill="lightgray" stroke="none" points="160.5,-223.88 160.5,-240.12 255.5,-240.12 255.5,-223.88 160.5,-223.88"/>
<text xml:space="preserve" text-anchor="start" x="161.5" y="-227.72" font-family="Arial" font-size="12.00">sosa:Observation</text>
<polygon fill="none" stroke="black" points="159.5,-222.88 159.5,-241.12 256.5,-241.12 256.5,-222.88 159.5,-222.88"/>
</g>
<!-- sosa_Observation&#45;&gt;ssn_Stimulus -->
<g id="edge4" class="edge">
<title>sosa_Observation&#45;&gt;ssn_Stimulus</title>
<path fill="none" stroke="black" d="M208,-214.1C208,-199.5 208,-178.12 208,-161.12"/>
<polygon fill="black" stroke="black" points="211.5,-151.2 208,-161.2 204.5,-151.2 211.5,-151.2"/>
<text xml:space="preserve" text-anchor="middle" x="280.38" y="-185.55" font-family="Arial" font-size="11.00"> inverse ssn:wasOriginatedBy </text>
<text xml:space="preserve" text-anchor="middle" x="280.38" y="-172.05" font-family="Arial" font-size="11.00"> «only» &#160;</text>
</g>
<!-- sosa_Sensor -->
<g id="node6" class="node">
<title>sosa_Sensor</title>
<polygon fill="lightgray" stroke="none" points="341.62,-223.88 341.62,-240.12 410.38,-240.12 410.38,-223.88 341.62,-223.88"/>
<text xml:space="preserve" text-anchor="start" x="342.62" y="-227.72" font-family="Arial" font-size="12.00">sosa:Sensor</text>
<polygon fill="none" stroke="black" points="340.62,-222.88 340.62,-241.12 411.38,-241.12 411.38,-222.88 340.62,-222.88"/>
</g>
<!-- sosa_Sensor&#45;&gt;ssn_Stimulus -->
<g id="edge5" class="edge">
<title>sosa_Sensor&#45;&gt;ssn_Stimulus</title>
<path fill="none" stroke="black" d="M374.4,-214.09C372.17,-200.03 366.82,-180.53 354,-169 326.93,-144.65 285.92,-136.45 254.25,-134.03"/>
<polygon fill="black" stroke="black" points="244.61,-129.95 254.39,-134.04 244.2,-136.94 244.61,-129.95"/>
<text xml:space="preserve" text-anchor="middle" x="418.87" y="-185.55" font-family="Arial" font-size="11.00"> inverse ssn:detects </text>
<text xml:space="preserve" text-anchor="middle" x="418.87" y="-172.05" font-family="Arial" font-size="11.00"> «only» &#160;</text>
</g>
</g>
</svg>
