<?xml version="1.0" encoding="UTF-8" standalone="no"?>
<!DOCTYPE svg PUBLIC "-//W3C//DTD SVG 1.1//EN"
 "http://www.w3.org/Graphics/SVG/1.1/DTD/svg11.dtd">
<!-- Generated by graphviz version 14.0.2 (20251019.1705)
 -->
<!-- Pages: 1 -->
<svg width="379pt" height="430pt"
 viewBox="0.00 0.00 379.00 430.00" xmlns="http://www.w3.org/2000/svg" xmlns:xlink="http://www.w3.org/1999/xlink">
<g id="graph0" class="graph" transform="scale(1 1) rotate(0) translate(4 426)">
<polygon fill="white" stroke="none" points="-4,4 -4,-426 375.26,-426 375.26,4 -4,4"/>
<g id="clust2" class="cluster">
<title>cluster_associated</title>
</g>
<!-- sosa_Sensor -->
<g id="node1" class="node">
<title>sosa_Sensor</title>
<g id="a_node1"><a xlink:href="../classes/Sensors__sosa:Sensor.md" xlink:title="&lt;TABLE&gt;">
<polygon fill="lightgray" stroke="none" points="172.62,-296.88 172.62,-313.12 241.38,-313.12 241.38,-296.88 172.62,-296.88"/>
<text xml:space="preserve" text-anchor="start" x="173.62" y="-300.73" font-family="Arial" font-size="12.00">sosa:Sensor</text>
<polygon fill="none" stroke="black" points="171.62,-295.88 171.62,-314.12 242.38,-314.12 242.38,-295.88 171.62,-295.88"/>
</a>
</g>
</g>
<!-- ssn_System -->
<g id="node2" class="node">
<title>ssn_System</title>
<polygon fill="lightgray" stroke="none" points="134.25,-395.88 134.25,-412.12 197.75,-412.12 197.75,-395.88 134.25,-395.88"/>
<text xml:space="preserve" text-anchor="start" x="135.25" y="-399.73" font-family="Arial" font-size="12.00">ssn:System</text>
<polygon fill="none" stroke="black" points="133.25,-394.88 133.25,-413.12 198.75,-413.12 198.75,-394.88 133.25,-394.88"/>
</g>
<!-- sosa_Sensor&#45;&gt;ssn_System -->
<g id="edge1" class="edge">
<title>sosa_Sensor&#45;&gt;ssn_System</title>
<path fill="none" stroke="black" d="M199.94,-322.7C193.79,-337.25 184.76,-358.61 177.56,-375.65"/>
<polygon fill="none" stroke="black" points="174.4,-374.14 173.73,-384.71 180.85,-376.86 174.4,-374.14"/>
</g>
<!-- Invis -->
<!-- sosa_Sensor&#45;&gt;Invis -->
<!-- sosa_ObservableProperty -->
<g id="node4" class="node">
<title>sosa_ObservableProperty</title>
<polygon fill="lightgray" stroke="none" points="17.5,-197.88 17.5,-214.12 154.5,-214.12 154.5,-197.88 17.5,-197.88"/>
<text xml:space="preserve" text-anchor="start" x="18.5" y="-201.72" font-family="Arial" font-size="12.00">sosa:ObservableProperty</text>
<polygon fill="none" stroke="black" points="16.5,-196.88 16.5,-215.12 155.5,-215.12 155.5,-196.88 16.5,-196.88"/>
</g>
<!-- sosa_Sensor&#45;&gt;sosa_ObservableProperty -->
<g id="edge7" class="edge">
<title>sosa_Sensor&#45;&gt;sosa_ObservableProperty</title>
<path fill="none" stroke="black" d="M171.79,-288.42C170.52,-287.93 169.25,-287.45 168,-287 141.44,-277.33 127.38,-288.59 107,-269 97.72,-260.08 92.54,-246.92 89.65,-235.02"/>
<polygon fill="black" stroke="black" points="93.09,-234.37 87.75,-225.22 86.22,-235.7 93.09,-234.37"/>
<text xml:space="preserve" text-anchor="middle" x="144.5" y="-258.55" font-family="Arial" font-size="11.00"> sosa:observes </text>
<text xml:space="preserve" text-anchor="middle" x="144.5" y="-245.05" font-family="Arial" font-size="11.00"> «only» &#160;</text>
</g>
<!-- sosa_Observation -->
<g id="node5" class="node">
<title>sosa_Observation</title>
<polygon fill="lightgray" stroke="none" points="59.5,-98.88 59.5,-115.12 154.5,-115.12 154.5,-98.88 59.5,-98.88"/>
<text xml:space="preserve" text-anchor="start" x="60.5" y="-102.72" font-family="Arial" font-size="12.00">sosa:Observation</text>
<polygon fill="none" stroke="black" points="58.5,-97.88 58.5,-116.12 155.5,-116.12 155.5,-97.88 58.5,-97.88"/>
</g>
<!-- sosa_Sensor&#45;&gt;sosa_Observation -->
<g id="edge9" class="edge">
<title>sosa_Sensor&#45;&gt;sosa_Observation</title>
<path fill="none" stroke="black" d="M202.54,-287.25C196.03,-264.13 182.75,-221.5 165,-188 154.75,-168.67 140.32,-148.74 128.42,-133.62"/>
<polygon fill="black" stroke="black" points="131.33,-131.65 122.34,-126.04 125.87,-136.03 131.33,-131.65"/>
<text xml:space="preserve" text-anchor="middle" x="239.48" y="-209.05" font-family="Arial" font-size="11.00"> sosa:madeObservation </text>
<text xml:space="preserve" text-anchor="middle" x="239.48" y="-195.55" font-family="Arial" font-size="11.00"> «only» &#160;</text>
</g>
<!-- ssn_Stimulus -->
<g id="node6" class="node">
<title>ssn_Stimulus</title>
<polygon fill="lightgray" stroke="none" points="81.88,-25.88 81.88,-42.12 152.12,-42.12 152.12,-25.88 81.88,-25.88"/>
<text xml:space="preserve" text-anchor="start" x="82.88" y="-29.73" font-family="Arial" font-size="12.00">ssn:Stimulus</text>
<polygon fill="none" stroke="black" points="80.88,-24.88 80.88,-43.12 153.12,-43.12 153.12,-24.88 80.88,-24.88"/>
</g>
<!-- sosa_Sensor&#45;&gt;ssn_Stimulus -->
<g id="edge6" class="edge">
<title>sosa_Sensor&#45;&gt;ssn_Stimulus</title>
<path fill="none" stroke="black" d="M238.34,-287.08C272.77,-266.05 320.84,-228.04 302,-188 273.35,-127.12 207.27,-82.19 162.36,-57.29"/>
<polygon fill="black" stroke="black" points="164.07,-54.24 153.61,-52.56 160.74,-60.39 164.07,-54.24"/>
<text xml:space="preserve" text-anchor="middle" x="321.29" y="-159.55" font-family="Arial" font-size="11.00"> ssn:detects </text>
<text xml:space="preserve" text-anchor="middle" x="321.29" y="-146.05" font-family="Arial" font-size="11.00"> «only» &#160;</text>
</g>
<!-- owl__Thing -->
<g id="node7" class="node">
<title>owl__Thing</title>
<polygon fill="lightgray" stroke="none" points="218.25,-395.88 218.25,-412.12 275.75,-412.12 275.75,-395.88 218.25,-395.88"/>
<text xml:space="preserve" text-anchor="start" x="219.25" y="-399.73" font-family="Arial" font-size="12.00">owl::Thing</text>
<polygon fill="none" stroke="black" points="217.25,-394.88 217.25,-413.12 276.75,-413.12 276.75,-394.88 217.25,-394.88"/>
</g>
<!-- sosa_Sensor&#45;&gt;owl__Thing -->
<g id="edge8" class="edge">
<title>sosa_Sensor&#45;&gt;owl__Thing</title>
<path fill="none" stroke="black" stroke-dasharray="5,2" d="M213.89,-322.7C219.89,-337.25 228.7,-358.61 235.72,-375.65"/>
<polygon fill="black" stroke="black" points="232.41,-376.79 239.46,-384.7 238.88,-374.13 232.41,-376.79"/>
<text xml:space="preserve" text-anchor="middle" x="301.51" y="-357.55" font-family="Arial" font-size="11.00"> onProperty: ssn:implements </text>
<text xml:space="preserve" text-anchor="middle" x="301.51" y="-344.05" font-family="Arial" font-size="11.00"> «min 1» &#160;</text>
</g>
<!-- Invis&#45;&gt;sosa_ObservableProperty -->
<!-- sosa_ObservableProperty&#45;&gt;sosa_Observation -->
<!-- sosa_Observation&#45;&gt;ssn_Stimulus -->
</g>
</svg>
