<?xml version="1.0" encoding="UTF-8" standalone="no"?>
<!DOCTYPE svg PUBLIC "-//W3C//DTD SVG 1.1//EN"
 "http://www.w3.org/Graphics/SVG/1.1/DTD/svg11.dtd">
<!-- Generated by graphviz version 14.0.2 (20251019.1705)
 -->
<!-- Pages: 1 -->
<svg width="1204pt" height="592pt"
 viewBox="0.00 0.00 1204.00 592.00" xmlns="http://www.w3.org/2000/svg" xmlns:xlink="http://www.w3.org/1999/xlink">
<g id="graph0" class="graph" transform="scale(1 1) rotate(0) translate(4 588)">
<polygon fill="white" stroke="none" points="-4,4 -4,-588 1200.1,-588 1200.1,4 -4,4"/>
<g id="clust2" class="cluster">
<title>cluster_associated</title>
</g>
<!-- sosa_Observation -->
<g id="node1" class="node">
<title>sosa_Observation</title>
<g id="a_node1"><a xlink:href="../classes/Sensors__sosa:Observation.md" xlink:title="&lt;TABLE&gt;">
<polygon fill="lightgray" stroke="none" points="291.5,-378 291.5,-394.25 518.5,-394.25 518.5,-378 291.5,-378"/>
<text xml:space="preserve" text-anchor="start" x="358.5" y="-381.85" font-family="Arial" font-size="12.00">sosa:Observation</text>
<text xml:space="preserve" text-anchor="start" x="292.5" y="-365.6" font-family="Arial" font-size="12.00">sosa:resultTime: xsd:dateTime «exactly 1»</text>
<polygon fill="none" stroke="black" points="290.5,-360.75 290.5,-395.25 519.5,-395.25 519.5,-360.75 290.5,-360.75"/>
</a>
</g>
</g>
<!-- sensorsThing -->
<g id="node2" class="node">
<title>sensorsThing</title>
<g id="a_node2"><a xlink:href="../_counters/Sensors__sensorsThing.md" xlink:title="&lt;TABLE&gt;">
<polygon fill="lightgray" stroke="none" points="195.62,-468.88 195.62,-485.12 270.38,-485.12 270.38,-468.88 195.62,-468.88"/>
<text xml:space="preserve" text-anchor="start" x="196.62" y="-472.73" font-family="Arial" font-size="12.00">sensorsThing</text>
<polygon fill="none" stroke="black" points="194.62,-467.88 194.62,-486.12 271.38,-486.12 271.38,-467.88 194.62,-467.88"/>
</a>
</g>
</g>
<!-- sosa_Observation&#45;&gt;sensorsThing -->
<g id="edge1" class="edge">
<title>sosa_Observation&#45;&gt;sensorsThing</title>
<path fill="none" stroke="black" d="M326.2,-396C312.88,-400.68 299.62,-406.59 288,-414 273.4,-423.31 260.38,-437.57 250.67,-450.06"/>
<polygon fill="none" stroke="black" points="247.97,-447.83 244.83,-457.95 253.59,-452 247.97,-447.83"/>
</g>
<!-- Invis -->
<!-- sosa_Observation&#45;&gt;Invis -->
<!-- sosa_ObservableProperty -->
<g id="node5" class="node">
<title>sosa_ObservableProperty</title>
<polygon fill="lightgray" stroke="none" points="17.5,-369.88 17.5,-386.12 154.5,-386.12 154.5,-369.88 17.5,-369.88"/>
<text xml:space="preserve" text-anchor="start" x="18.5" y="-373.73" font-family="Arial" font-size="12.00">sosa:ObservableProperty</text>
<polygon fill="none" stroke="black" points="16.5,-368.88 16.5,-387.12 155.5,-387.12 155.5,-368.88 16.5,-368.88"/>
</g>
<!-- sosa_Observation&#45;&gt;sosa_ObservableProperty -->
<g id="edge12" class="edge">
<title>sosa_Observation&#45;&gt;sosa_ObservableProperty</title>
<path fill="none" stroke="black" d="M290.76,-378C249.69,-378 204.25,-378 166.63,-378"/>
<polygon fill="black" stroke="black" points="166.73,-374.5 156.73,-378 166.73,-381.5 166.73,-374.5"/>
<text xml:space="preserve" text-anchor="middle" x="223" y="-397.55" font-family="Arial" font-size="11.00"> sosa:observedProperty </text>
<text xml:space="preserve" text-anchor="middle" x="223" y="-384.05" font-family="Arial" font-size="11.00"> «only» &#160;</text>
</g>
<!-- sosa_Procedure -->
<g id="node6" class="node">
<title>sosa_Procedure</title>
<polygon fill="lightgray" stroke="none" points="67,-270.88 67,-287.12 153,-287.12 153,-270.88 67,-270.88"/>
<text xml:space="preserve" text-anchor="start" x="68" y="-274.73" font-family="Arial" font-size="12.00">sosa:Procedure</text>
<polygon fill="none" stroke="black" points="66,-269.88 66,-288.12 154,-288.12 154,-269.88 66,-269.88"/>
</g>
<!-- sosa_Observation&#45;&gt;sosa_Procedure -->
<g id="edge14" class="edge">
<title>sosa_Observation&#45;&gt;sosa_Procedure</title>
<path fill="none" stroke="black" d="M290.51,-370.51C213.29,-364.93 123.29,-355.62 111,-342 102.89,-333.01 101.71,-319.95 102.94,-308.13"/>
<polygon fill="black" stroke="black" points="106.37,-308.85 104.56,-298.41 99.46,-307.7 106.37,-308.85"/>
<text xml:space="preserve" text-anchor="middle" x="163.5" y="-331.55" font-family="Arial" font-size="11.00"> sosa:usedProcedure </text>
<text xml:space="preserve" text-anchor="middle" x="163.5" y="-318.05" font-family="Arial" font-size="11.00"> «only» &#160;</text>
</g>
<!-- ssn_Stimulus -->
<g id="node9" class="node">
<title>ssn_Stimulus</title>
<polygon fill="lightgray" stroke="none" points="84.88,-25.88 84.88,-42.12 155.12,-42.12 155.12,-25.88 84.88,-25.88"/>
<text xml:space="preserve" text-anchor="start" x="85.88" y="-29.73" font-family="Arial" font-size="12.00">ssn:Stimulus</text>
<polygon fill="none" stroke="black" points="83.88,-24.88 83.88,-43.12 156.12,-43.12 156.12,-24.88 83.88,-24.88"/>
</g>
<!-- sosa_Observation&#45;&gt;ssn_Stimulus -->
<g id="edge13" class="edge">
<title>sosa_Observation&#45;&gt;ssn_Stimulus</title>
<path fill="none" stroke="black" d="M467.67,-360.15C505.32,-345.81 546,-320.85 546,-280 546,-280 546,-280 546,-106 546,-67.94 277.96,-45.59 167.11,-37.97"/>
<polygon fill="black" stroke="black" points="167.68,-34.5 157.46,-37.32 167.21,-41.48 167.68,-34.5"/>
<text xml:space="preserve" text-anchor="middle" x="599.62" y="-183.05" font-family="Arial" font-size="11.00"> ssn:wasOriginatedBy </text>
<text xml:space="preserve" text-anchor="middle" x="599.62" y="-169.55" font-family="Arial" font-size="11.00"> «only» &#160;</text>
</g>
<!-- owl__Thing -->
<g id="node10" class="node">
<title>owl__Thing</title>
<polygon fill="lightgray" stroke="none" points="720.25,-468.88 720.25,-485.12 777.75,-485.12 777.75,-468.88 720.25,-468.88"/>
<text xml:space="preserve" text-anchor="start" x="721.25" y="-472.73" font-family="Arial" font-size="12.00">owl::Thing</text>
<polygon fill="none" stroke="black" points="719.25,-467.88 719.25,-486.12 778.75,-486.12 778.75,-467.88 719.25,-467.88"/>
</g>
<!-- sosa_Observation&#45;&gt;owl__Thing -->
<g id="edge16" class="edge">
<title>sosa_Observation&#45;&gt;owl__Thing</title>
<path fill="none" stroke="black" d="M519.27,-380.72C636.5,-383.69 804.59,-391.82 825,-414 833.13,-422.83 831.47,-430.89 825,-441 816.96,-453.55 803.17,-461.66 789.51,-466.88"/>
<polygon fill="black" stroke="black" points="788.53,-463.51 780.14,-469.99 790.74,-470.16 788.53,-463.51"/>
<text xml:space="preserve" text-anchor="middle" x="889.36" y="-430.55" font-family="Arial" font-size="11.00"> sosa:phenomenonTime </text>
<text xml:space="preserve" text-anchor="middle" x="889.36" y="-417.05" font-family="Arial" font-size="11.00"> «exactly 1» &#160;</text>
</g>
<!-- sosa_Observation&#45;&gt;owl__Thing -->
<g id="edge18" class="edge">
<title>sosa_Observation&#45;&gt;owl__Thing</title>
<path fill="none" stroke="black" d="M519.29,-378.17C670.96,-378.28 923.09,-383.18 952,-414 1000.36,-465.55 862.27,-474.66 790,-475.98"/>
<polygon fill="black" stroke="black" points="790.05,-472.48 780.09,-476.12 790.14,-479.48 790.05,-472.48"/>
<text xml:space="preserve" text-anchor="middle" x="1015.62" y="-430.55" font-family="Arial" font-size="11.00"> ssn:wasOriginatedBy </text>
<text xml:space="preserve" text-anchor="middle" x="1015.62" y="-417.05" font-family="Arial" font-size="11.00"> «exactly 1» &#160;</text>
</g>
<!-- sosa_Observation&#45;&gt;owl__Thing -->
<g id="edge20" class="edge">
<title>sosa_Observation&#45;&gt;owl__Thing</title>
<path fill="none" stroke="black" d="M519.23,-380.94C705.1,-384.67 1054.28,-394.27 1073,-414 1081.26,-422.7 1081.02,-432.07 1073,-441 1054.41,-461.71 872.95,-471.26 790,-474.57"/>
<polygon fill="black" stroke="black" points="790.11,-471.07 780.26,-474.95 790.39,-478.06 790.11,-471.07"/>
<text xml:space="preserve" text-anchor="middle" x="1137.6" y="-430.55" font-family="Arial" font-size="11.00"> sosa:observedProperty </text>
<text xml:space="preserve" text-anchor="middle" x="1137.6" y="-417.05" font-family="Arial" font-size="11.00"> «exactly 1» &#160;</text>
</g>
<!-- sosa_FeatureOfInterest -->
<g id="node4" class="node">
<title>sosa_FeatureOfInterest</title>
<polygon fill="lightgray" stroke="none" points="24.62,-468.88 24.62,-485.12 147.38,-485.12 147.38,-468.88 24.62,-468.88"/>
<text xml:space="preserve" text-anchor="start" x="25.62" y="-472.73" font-family="Arial" font-size="12.00">sosa:FeatureOfInterest</text>
<polygon fill="none" stroke="black" points="23.62,-467.88 23.62,-486.12 148.38,-486.12 148.38,-467.88 23.62,-467.88"/>
</g>
<!-- Invis&#45;&gt;sosa_FeatureOfInterest -->
<!-- sosa_FeatureOfInterest&#45;&gt;sosa_Observation -->
<g id="edge17" class="edge">
<title>sosa_FeatureOfInterest&#45;&gt;sosa_Observation</title>
<path fill="none" stroke="black" d="M79.14,-459.1C74.76,-445.25 71.7,-426.04 82.5,-414 89.34,-406.38 192.57,-396.11 280.42,-388.67"/>
<polygon fill="black" stroke="black" points="290.57,-391.33 280.31,-388.68 289.98,-384.36 290.57,-391.33"/>
<text xml:space="preserve" text-anchor="middle" x="168.75" y="-430.55" font-family="Arial" font-size="11.00"> inverse sosa:isFeatureOfInterestOf </text>
<text xml:space="preserve" text-anchor="middle" x="168.75" y="-417.05" font-family="Arial" font-size="11.00"> «only» &#160;</text>
</g>
<!-- sosa_FeatureOfInterest&#45;&gt;sosa_ObservableProperty -->
<!-- sosa_ObservableProperty&#45;&gt;sosa_Procedure -->
<!-- sosa_Result -->
<g id="node7" class="node">
<title>sosa_Result</title>
<polygon fill="lightgray" stroke="none" points="88.5,-171.88 88.5,-188.12 153.5,-188.12 153.5,-171.88 88.5,-171.88"/>
<text xml:space="preserve" text-anchor="start" x="89.5" y="-175.72" font-family="Arial" font-size="12.00">sosa:Result</text>
<polygon fill="none" stroke="black" points="87.5,-170.88 87.5,-189.12 154.5,-189.12 154.5,-170.88 87.5,-170.88"/>
</g>
<!-- sosa_Procedure&#45;&gt;sosa_Result -->
<!-- sosa_Result&#45;&gt;sosa_Observation -->
<g id="edge11" class="edge">
<title>sosa_Result&#45;&gt;sosa_Observation</title>
<path fill="none" stroke="black" d="M135.7,-197.6C157.64,-221.69 201.05,-266.74 244.5,-297 278.68,-320.8 320.98,-341.58 353.56,-355.99"/>
<polygon fill="black" stroke="black" points="361.06,-363.07 353.29,-355.87 363.86,-356.66 361.06,-363.07"/>
<text xml:space="preserve" text-anchor="middle" x="303.75" y="-282.05" font-family="Arial" font-size="11.00"> inverse sosa:isResultOf </text>
<text xml:space="preserve" text-anchor="middle" x="303.75" y="-268.55" font-family="Arial" font-size="11.00"> «only» &#160;</text>
</g>
<!-- sosa_Sensor -->
<g id="node8" class="node">
<title>sosa_Sensor</title>
<polygon fill="lightgray" stroke="none" points="86.62,-98.88 86.62,-115.12 155.38,-115.12 155.38,-98.88 86.62,-98.88"/>
<text xml:space="preserve" text-anchor="start" x="87.62" y="-102.72" font-family="Arial" font-size="12.00">sosa:Sensor</text>
<polygon fill="none" stroke="black" points="85.62,-97.88 85.62,-116.12 156.38,-116.12 156.38,-97.88 85.62,-97.88"/>
</g>
<!-- sosa_Result&#45;&gt;sosa_Sensor -->
<!-- sosa_Sensor&#45;&gt;sosa_Observation -->
<g id="edge15" class="edge">
<title>sosa_Sensor&#45;&gt;sosa_Observation</title>
<path fill="none" stroke="black" d="M156.19,-121.47C208.45,-143.17 306.47,-190.69 363,-261 384.04,-287.17 395.07,-324.8 400.45,-350.03"/>
<polygon fill="black" stroke="black" points="398.95,-360.53 400.45,-350.04 405.82,-359.18 398.95,-360.53"/>
<text xml:space="preserve" text-anchor="middle" x="422.21" y="-232.55" font-family="Arial" font-size="11.00"> inverse sosa:madeObservation </text>
<text xml:space="preserve" text-anchor="middle" x="422.21" y="-219.05" font-family="Arial" font-size="11.00"> «only» &#160;</text>
</g>
<!-- sosa_Sensor&#45;&gt;ssn_Stimulus -->
<!-- owl__Thing&#45;&gt;sosa_Observation -->
<g id="edge9" class="edge">
<title>owl__Thing&#45;&gt;sosa_Observation</title>
<path fill="none" stroke="black" d="M719.32,-475.77C628.56,-474.74 359.29,-469.33 333.25,-441 325.13,-432.17 326.89,-424.18 333.25,-414 336.11,-409.42 339.77,-405.42 343.91,-401.93"/>
<polygon fill="black" stroke="black" points="354.03,-398.97 343.87,-401.96 349.94,-393.29 354.03,-398.97"/>
<text xml:space="preserve" text-anchor="middle" x="410.12" y="-430.55" font-family="Arial" font-size="11.00"> inverse sosa:madeObservation </text>
<text xml:space="preserve" text-anchor="middle" x="410.12" y="-417.05" font-family="Arial" font-size="11.00"> «exactly 1» &#160;</text>
</g>
<!-- owl__Thing&#45;&gt;sosa_Observation -->
<g id="edge10" class="edge">
<title>owl__Thing&#45;&gt;sosa_Observation</title>
<path fill="none" stroke="black" d="M719.65,-474.23C664.11,-470.48 546.03,-460.42 510.5,-441 496.54,-433.37 499.86,-423.36 487,-414 479.98,-408.89 472.11,-404.35 464.08,-400.36"/>
<polygon fill="black" stroke="black" points="456.58,-392.97 464.15,-400.39 453.61,-399.31 456.58,-392.97"/>
<text xml:space="preserve" text-anchor="middle" x="569.75" y="-430.55" font-family="Arial" font-size="11.00"> inverse sosa:isResultOf </text>
<text xml:space="preserve" text-anchor="middle" x="569.75" y="-417.05" font-family="Arial" font-size="11.00"> «min 1» &#160;</text>
</g>
<!-- owl__Thing&#45;&gt;sosa_Observation -->
<g id="edge19" class="edge">
<title>owl__Thing&#45;&gt;sosa_Observation</title>
<path fill="none" stroke="black" d="M719.48,-470.68C698.16,-465.73 669.54,-456.67 648.5,-441 636.63,-432.16 641.62,-421.74 629,-414 611.56,-403.31 571.37,-395.53 529.76,-390.06"/>
<polygon fill="black" stroke="black" points="520.39,-385.34 529.87,-390.07 519.51,-392.29 520.39,-385.34"/>
<text xml:space="preserve" text-anchor="middle" x="734.75" y="-430.55" font-family="Arial" font-size="11.00"> inverse sosa:isFeatureOfInterestOf </text>
<text xml:space="preserve" text-anchor="middle" x="734.75" y="-417.05" font-family="Arial" font-size="11.00"> «exactly 1» &#160;</text>
</g>
</g>
</svg>
