<?xml version="1.0" encoding="UTF-8" standalone="no"?>
<!DOCTYPE svg PUBLIC "-//W3C//DTD SVG 1.1//EN"
 "http://www.w3.org/Graphics/SVG/1.1/DTD/svg11.dtd">
<!-- Generated by graphviz version 14.0.2 (20251019.1705)
 -->
<!-- Pages: 1 -->
<svg width="472pt" height="248pt"
 viewBox="0.00 0.00 472.00 248.00" xmlns="http://www.w3.org/2000/svg" xmlns:xlink="http://www.w3.org/1999/xlink">
<g id="graph0" class="graph" transform="scale(1 1) rotate(0) translate(4 244)">
<polygon fill="white" stroke="none" points="-4,4 -4,-244 468.38,-244 468.38,4 -4,4"/>
<g id="clust2" class="cluster">
<title>cluster_associated</title>
</g>
<!-- sosa_FeatureOfInterest -->
<g id="node1" class="node">
<title>sosa_FeatureOfInterest</title>
<g id="a_node1"><a xlink:href="../classes/Sensors__sosa:FeatureOfInterest.md" xlink:title="&lt;TABLE&gt;">
<polygon fill="lightgray" stroke="none" points="227.62,-25.88 227.62,-42.12 350.38,-42.12 350.38,-25.88 227.62,-25.88"/>
<text xml:space="preserve" text-anchor="start" x="228.62" y="-29.73" font-family="Arial" font-size="12.00">sosa:FeatureOfInterest</text>
<polygon fill="none" stroke="black" points="226.62,-24.88 226.62,-43.12 351.38,-43.12 351.38,-24.88 226.62,-24.88"/>
</a>
</g>
</g>
<!-- sensorsThing -->
<g id="node2" class="node">
<title>sensorsThing</title>
<g id="a_node2"><a xlink:href="../_counters/Sensors__sensorsThing.md" xlink:title="&lt;TABLE&gt;">
<polygon fill="lightgray" stroke="none" points="388.62,-124.88 388.62,-141.12 463.38,-141.12 463.38,-124.88 388.62,-124.88"/>
<text xml:space="preserve" text-anchor="start" x="389.62" y="-128.72" font-family="Arial" font-size="12.00">sensorsThing</text>
<polygon fill="none" stroke="black" points="387.62,-123.88 387.62,-142.12 464.38,-142.12 464.38,-123.88 387.62,-123.88"/>
</a>
</g>
</g>
<!-- sosa_FeatureOfInterest&#45;&gt;sensorsThing -->
<g id="edge1" class="edge">
<title>sosa_FeatureOfInterest&#45;&gt;sensorsThing</title>
<path fill="none" stroke="black" d="M351.13,-39.69C373.08,-44.39 396.21,-53.31 412,-70 420.53,-79.02 424.27,-92.08 425.78,-103.9"/>
<polygon fill="none" stroke="black" points="422.27,-103.89 426.52,-113.59 429.25,-103.35 422.27,-103.89"/>
</g>
<!-- Invis -->
<!-- sosa_FeatureOfInterest&#45;&gt;Invis -->
<!-- sosa_Sample -->
<g id="node4" class="node">
<title>sosa_Sample</title>
<polygon fill="lightgray" stroke="none" points="17.12,-124.88 17.12,-141.12 88.88,-141.12 88.88,-124.88 17.12,-124.88"/>
<text xml:space="preserve" text-anchor="start" x="18.12" y="-128.72" font-family="Arial" font-size="12.00">sosa:Sample</text>
<polygon fill="none" stroke="black" points="16.12,-123.88 16.12,-142.12 89.88,-142.12 89.88,-123.88 16.12,-123.88"/>
</g>
<!-- Invis&#45;&gt;sosa_Sample -->
<!-- sosa_Sample&#45;&gt;sosa_FeatureOfInterest -->
<g id="edge6" class="edge">
<title>sosa_Sample&#45;&gt;sosa_FeatureOfInterest</title>
<path fill="none" stroke="black" d="M58.34,-115.25C63.82,-100.91 73.79,-80.89 89.5,-70 109.83,-55.91 168.06,-46.73 216.4,-41.33"/>
<polygon fill="black" stroke="black" points="226.74,-43.73 216.42,-41.33 225.99,-36.77 226.74,-43.73"/>
<text xml:space="preserve" text-anchor="middle" x="151.75" y="-86.55" font-family="Arial" font-size="11.00"> inverse sosa:isSampleOf </text>
<text xml:space="preserve" text-anchor="middle" x="151.75" y="-73.05" font-family="Arial" font-size="11.00"> «only» &#160;</text>
</g>
<!-- ssn_Property -->
<g id="node5" class="node">
<title>ssn_Property</title>
<polygon fill="lightgray" stroke="none" points="16.62,-25.88 16.62,-42.12 85.38,-42.12 85.38,-25.88 16.62,-25.88"/>
<text xml:space="preserve" text-anchor="start" x="17.62" y="-29.73" font-family="Arial" font-size="12.00">ssn:Property</text>
<polygon fill="none" stroke="black" points="15.62,-24.88 15.62,-43.12 86.38,-43.12 86.38,-24.88 15.62,-24.88"/>
</g>
<!-- sosa_Sample&#45;&gt;ssn_Property -->
<!-- ssn_Property&#45;&gt;sosa_FeatureOfInterest -->
<g id="edge5" class="edge">
<title>ssn_Property&#45;&gt;sosa_FeatureOfInterest</title>
<path fill="none" stroke="black" d="M86.37,-34C120.59,-34 173.45,-34 216.6,-34"/>
<polygon fill="black" stroke="black" points="226.56,-37.5 216.56,-34 226.56,-30.5 226.56,-37.5"/>
<text xml:space="preserve" text-anchor="middle" x="156.5" y="-53.55" font-family="Arial" font-size="11.00"> inverse ssn:isPropertyOf </text>
<text xml:space="preserve" text-anchor="middle" x="156.5" y="-40.05" font-family="Arial" font-size="11.00"> «only» &#160;</text>
</g>
<!-- owl__Thing -->
<g id="node6" class="node">
<title>owl__Thing</title>
<polygon fill="lightgray" stroke="none" points="259.25,-124.88 259.25,-141.12 316.75,-141.12 316.75,-124.88 259.25,-124.88"/>
<text xml:space="preserve" text-anchor="start" x="260.25" y="-128.72" font-family="Arial" font-size="12.00">owl::Thing</text>
<polygon fill="none" stroke="black" points="258.25,-123.88 258.25,-142.12 317.75,-142.12 317.75,-123.88 258.25,-123.88"/>
</g>
<!-- owl__Thing&#45;&gt;sosa_FeatureOfInterest -->
<g id="edge7" class="edge">
<title>owl__Thing&#45;&gt;sosa_FeatureOfInterest</title>
<path fill="none" stroke="black" d="M288.17,-115.1C288.32,-100.5 288.55,-79.12 288.72,-62.12"/>
<polygon fill="black" stroke="black" points="292.32,-52.24 288.72,-62.2 285.32,-52.17 292.32,-52.24"/>
<text xml:space="preserve" text-anchor="middle" x="350.12" y="-86.55" font-family="Arial" font-size="11.00"> inverse ssn:isPropertyOf </text>
<text xml:space="preserve" text-anchor="middle" x="350.12" y="-73.05" font-family="Arial" font-size="11.00"> «min 1» &#160;</text>
</g>
</g>
</svg>
