<?xml version="1.0" encoding="UTF-8" standalone="no"?>
<!DOCTYPE svg PUBLIC "-//W3C//DTD SVG 1.1//EN"
 "http://www.w3.org/Graphics/SVG/1.1/DTD/svg11.dtd">
<!-- Generated by graphviz version 14.0.2 (20251019.1705)
 -->
<!-- Pages: 1 -->
<svg width="284pt" height="305pt"
 viewBox="0.00 0.00 284.00 305.00" xmlns="http://www.w3.org/2000/svg" xmlns:xlink="http://www.w3.org/1999/xlink">
<g id="graph0" class="graph" transform="scale(1 1) rotate(0) translate(4 301)">
<polygon fill="white" stroke="none" points="-4,4 -4,-301 279.74,-301 279.74,4 -4,4"/>
<g id="clust2" class="cluster">
<title>cluster_associated</title>
</g>
<!-- sosa_Platform -->
<g id="node1" class="node">
<title>sosa_Platform</title>
<g id="a_node1"><a xlink:href="../classes/Sensors__sosa:Platform.md" xlink:title="&lt;TABLE&gt;">
<polygon fill="lightgray" stroke="none" points="122.62,-197.88 122.62,-214.12 197.38,-214.12 197.38,-197.88 122.62,-197.88"/>
<text xml:space="preserve" text-anchor="start" x="123.62" y="-201.72" font-family="Arial" font-size="12.00">sosa:Platform</text>
<polygon fill="none" stroke="black" points="121.62,-196.88 121.62,-215.12 198.38,-215.12 198.38,-196.88 121.62,-196.88"/>
</a>
</g>
</g>
<!-- sensorsThing -->
<g id="node2" class="node">
<title>sensorsThing</title>
<g id="a_node2"><a xlink:href="../_counters/Sensors__sensorsThing.md" xlink:title="&lt;TABLE&gt;">
<polygon fill="lightgray" stroke="none" points="122.62,-270.88 122.62,-287.12 197.38,-287.12 197.38,-270.88 122.62,-270.88"/>
<text xml:space="preserve" text-anchor="start" x="123.62" y="-274.73" font-family="Arial" font-size="12.00">sensorsThing</text>
<polygon fill="none" stroke="black" points="121.62,-269.88 121.62,-288.12 198.38,-288.12 198.38,-269.88 121.62,-269.88"/>
</a>
</g>
</g>
<!-- sosa_Platform&#45;&gt;sensorsThing -->
<g id="edge1" class="edge">
<title>sosa_Platform&#45;&gt;sensorsThing</title>
<path fill="none" stroke="black" d="M160,-223.71C160,-231.47 160,-240.92 160,-249.74"/>
<polygon fill="none" stroke="black" points="156.5,-249.66 160,-259.66 163.5,-249.66 156.5,-249.66"/>
</g>
<!-- Invis -->
<!-- sosa_Platform&#45;&gt;Invis -->
<!-- ssn_Deployment -->
<g id="node4" class="node">
<title>ssn_Deployment</title>
<polygon fill="lightgray" stroke="none" points="16.88,-98.88 16.88,-115.12 105.12,-115.12 105.12,-98.88 16.88,-98.88"/>
<text xml:space="preserve" text-anchor="start" x="17.88" y="-102.72" font-family="Arial" font-size="12.00">ssn:Deployment</text>
<polygon fill="none" stroke="black" points="15.88,-97.88 15.88,-116.12 106.12,-116.12 106.12,-97.88 15.88,-97.88"/>
</g>
<!-- sosa_Platform&#45;&gt;ssn_Deployment -->
<g id="edge6" class="edge">
<title>sosa_Platform&#45;&gt;ssn_Deployment</title>
<path fill="none" stroke="black" d="M122.02,-189.57C120.66,-189.04 119.32,-188.51 118,-188 96.56,-179.69 83.88,-187.94 69.5,-170 61.98,-160.63 59.38,-147.78 58.84,-136.21"/>
<polygon fill="black" stroke="black" points="62.34,-136.35 58.9,-126.33 55.34,-136.31 62.34,-136.35"/>
<text xml:space="preserve" text-anchor="middle" x="115.25" y="-159.55" font-family="Arial" font-size="11.00"> ssn:inDeployment </text>
<text xml:space="preserve" text-anchor="middle" x="115.25" y="-146.05" font-family="Arial" font-size="11.00"> «only» &#160;</text>
</g>
<!-- Invis&#45;&gt;ssn_Deployment -->
<!-- ssn_System -->
<g id="node5" class="node">
<title>ssn_System</title>
<polygon fill="lightgray" stroke="none" points="35.25,-25.88 35.25,-42.12 98.75,-42.12 98.75,-25.88 35.25,-25.88"/>
<text xml:space="preserve" text-anchor="start" x="36.25" y="-29.73" font-family="Arial" font-size="12.00">ssn:System</text>
<polygon fill="none" stroke="black" points="34.25,-24.88 34.25,-43.12 99.75,-43.12 99.75,-24.88 34.25,-24.88"/>
</g>
<!-- ssn_Deployment&#45;&gt;ssn_System -->
<!-- ssn_System&#45;&gt;sosa_Platform -->
<g id="edge5" class="edge">
<title>ssn_System&#45;&gt;sosa_Platform</title>
<path fill="none" stroke="black" d="M89.24,-52C112.3,-71.18 146.91,-104.74 161,-143 165.02,-153.91 165.47,-166.65 164.64,-177.73"/>
<polygon fill="black" stroke="black" points="160.06,-187.25 164.65,-177.7 167.02,-188.03 160.06,-187.25"/>
<text xml:space="preserve" text-anchor="middle" x="213.86" y="-110.05" font-family="Arial" font-size="11.00"> inverse sosa:isHostedBy </text>
<text xml:space="preserve" text-anchor="middle" x="213.86" y="-96.55" font-family="Arial" font-size="11.00"> «only» &#160;</text>
</g>
</g>
</svg>
