<?xml version="1.0" encoding="UTF-8" standalone="no"?>
<!DOCTYPE svg PUBLIC "-//W3C//DTD SVG 1.1//EN"
 "http://www.w3.org/Graphics/SVG/1.1/DTD/svg11.dtd">
<!-- Generated by graphviz version 14.0.2 (20251019.1705)
 -->
<!-- Pages: 1 -->
<svg width="473pt" height="258pt"
 viewBox="0.00 0.00 473.00 258.00" xmlns="http://www.w3.org/2000/svg" xmlns:xlink="http://www.w3.org/1999/xlink">
<g id="graph0" class="graph" transform="scale(1 1) rotate(0) translate(4 254)">
<polygon fill="white" stroke="none" points="-4,4 -4,-254 468.8,-254 468.8,4 -4,4"/>
<g id="clust2" class="cluster">
<title>cluster_associated</title>
</g>
<!-- sosa_ObservableProperty -->
<g id="node1" class="node">
<title>sosa_ObservableProperty</title>
<g id="a_node1"><a xlink:href="../classes/Sensors__sosa:ObservableProperty.md" xlink:title="&lt;TABLE&gt;">
<polygon fill="lightgray" stroke="none" points="110.5,-124.88 110.5,-141.12 247.5,-141.12 247.5,-124.88 110.5,-124.88"/>
<text xml:space="preserve" text-anchor="start" x="111.5" y="-128.72" font-family="Arial" font-size="12.00">sosa:ObservableProperty</text>
<polygon fill="none" stroke="black" points="109.5,-123.88 109.5,-142.12 248.5,-142.12 248.5,-123.88 109.5,-123.88"/>
</a>
</g>
</g>
<!-- ssn_Property -->
<g id="node2" class="node">
<title>ssn_Property</title>
<polygon fill="lightgray" stroke="none" points="54.62,-223.88 54.62,-240.12 123.38,-240.12 123.38,-223.88 54.62,-223.88"/>
<text xml:space="preserve" text-anchor="start" x="55.62" y="-227.72" font-family="Arial" font-size="12.00">ssn:Property</text>
<polygon fill="none" stroke="black" points="53.62,-222.88 53.62,-241.12 124.38,-241.12 124.38,-222.88 53.62,-222.88"/>
</g>
<!-- sosa_ObservableProperty&#45;&gt;ssn_Property -->
<g id="edge1" class="edge">
<title>sosa_ObservableProperty&#45;&gt;ssn_Property</title>
<path fill="none" stroke="black" d="M163.5,-150.7C149.37,-165.94 128.28,-188.66 112.15,-206.05"/>
<polygon fill="none" stroke="black" points="109.94,-203.28 105.71,-212.99 115.07,-208.04 109.94,-203.28"/>
</g>
<!-- Invis -->
<!-- sosa_ObservableProperty&#45;&gt;Invis -->
<!-- sosa_Sensor -->
<g id="node4" class="node">
<title>sosa_Sensor</title>
<polygon fill="lightgray" stroke="none" points="16.62,-25.88 16.62,-42.12 85.38,-42.12 85.38,-25.88 16.62,-25.88"/>
<text xml:space="preserve" text-anchor="start" x="17.62" y="-29.73" font-family="Arial" font-size="12.00">sosa:Sensor</text>
<polygon fill="none" stroke="black" points="15.62,-24.88 15.62,-43.12 86.38,-43.12 86.38,-24.88 15.62,-24.88"/>
</g>
<!-- Invis&#45;&gt;sosa_Sensor -->
<!-- sosa_Sensor&#45;&gt;sosa_ObservableProperty -->
<g id="edge6" class="edge">
<title>sosa_Sensor&#45;&gt;sosa_ObservableProperty</title>
<path fill="none" stroke="black" d="M73.04,-51.7C93.88,-67.49 125.33,-91.33 148.55,-108.93"/>
<polygon fill="black" stroke="black" points="154.19,-117.59 148.34,-108.76 158.42,-112.01 154.19,-117.59"/>
<text xml:space="preserve" text-anchor="middle" x="186.48" y="-86.55" font-family="Arial" font-size="11.00"> inverse sosa:observes </text>
<text xml:space="preserve" text-anchor="middle" x="186.48" y="-73.05" font-family="Arial" font-size="11.00"> «only» &#160;</text>
</g>
<!-- ssn_Stimulus -->
<g id="node5" class="node">
<title>ssn_Stimulus</title>
<polygon fill="lightgray" stroke="none" points="143.88,-223.88 143.88,-240.12 214.12,-240.12 214.12,-223.88 143.88,-223.88"/>
<text xml:space="preserve" text-anchor="start" x="144.88" y="-227.72" font-family="Arial" font-size="12.00">ssn:Stimulus</text>
<polygon fill="none" stroke="black" points="142.88,-222.88 142.88,-241.12 215.12,-241.12 215.12,-222.88 142.88,-222.88"/>
</g>
<!-- ssn_Stimulus&#45;&gt;sosa_ObservableProperty -->
<g id="edge4" class="edge">
<title>ssn_Stimulus&#45;&gt;sosa_ObservableProperty</title>
<path fill="none" stroke="black" d="M179,-214.1C179,-199.5 179,-178.12 179,-161.12"/>
<polygon fill="black" stroke="black" points="182.5,-151.2 179,-161.2 175.5,-151.2 182.5,-151.2"/>
<text xml:space="preserve" text-anchor="middle" x="236.38" y="-185.55" font-family="Arial" font-size="11.00"> inverse ssn:isProxyFor </text>
<text xml:space="preserve" text-anchor="middle" x="236.38" y="-172.05" font-family="Arial" font-size="11.00"> «only» &#160;</text>
</g>
<!-- sosa_Observation -->
<g id="node6" class="node">
<title>sosa_Observation</title>
<polygon fill="lightgray" stroke="none" points="269.5,-223.88 269.5,-240.12 364.5,-240.12 364.5,-223.88 269.5,-223.88"/>
<text xml:space="preserve" text-anchor="start" x="270.5" y="-227.72" font-family="Arial" font-size="12.00">sosa:Observation</text>
<polygon fill="none" stroke="black" points="268.5,-222.88 268.5,-241.12 365.5,-241.12 365.5,-222.88 268.5,-222.88"/>
</g>
<!-- sosa_Observation&#45;&gt;sosa_ObservableProperty -->
<g id="edge5" class="edge">
<title>sosa_Observation&#45;&gt;sosa_ObservableProperty</title>
<path fill="none" stroke="black" d="M315.23,-214.27C312.89,-200.33 307.48,-180.9 295,-169 284.71,-159.19 271.76,-152.12 258.29,-147.03"/>
<polygon fill="black" stroke="black" points="250.01,-140.51 258.34,-147.05 247.75,-147.13 250.01,-140.51"/>
<text xml:space="preserve" text-anchor="middle" x="387.55" y="-185.55" font-family="Arial" font-size="11.00"> inverse sosa:observedProperty </text>
<text xml:space="preserve" text-anchor="middle" x="387.55" y="-172.05" font-family="Arial" font-size="11.00"> «only» &#160;</text>
</g>
</g>
</svg>
