<?xml version="1.0" encoding="UTF-8" standalone="no"?>
<!DOCTYPE svg PUBLIC "-//W3C//DTD SVG 1.1//EN"
 "http://www.w3.org/Graphics/SVG/1.1/DTD/svg11.dtd">
<!-- Generated by graphviz version 14.0.2 (20251019.1705)
 -->
<!-- Pages: 1 -->
<svg width="823pt" height="420pt"
 viewBox="0.00 0.00 823.00 420.00" xmlns="http://www.w3.org/2000/svg" xmlns:xlink="http://www.w3.org/1999/xlink">
<g id="graph0" class="graph" transform="scale(1 1) rotate(0) translate(4 416)">
<polygon fill="white" stroke="none" points="-4,4 -4,-416 818.63,-416 818.63,4 -4,4"/>
<g id="clust2" class="cluster">
<title>cluster_associated</title>
</g>
<!-- sosa_Sampling -->
<g id="node1" class="node">
<title>sosa_Sampling</title>
<g id="a_node1"><a xlink:href="../classes/Sensors__sosa:Sampling.md" xlink:title="&lt;TABLE&gt;">
<polygon fill="lightgray" stroke="none" points="227.5,-206 227.5,-222.25 454.5,-222.25 454.5,-206 227.5,-206"/>
<text xml:space="preserve" text-anchor="start" x="301.25" y="-209.85" font-family="Arial" font-size="12.00">sosa:Sampling</text>
<text xml:space="preserve" text-anchor="start" x="228.5" y="-193.6" font-family="Arial" font-size="12.00">sosa:resultTime: xsd:dateTime «exactly 1»</text>
<polygon fill="none" stroke="black" points="226.5,-188.75 226.5,-223.25 455.5,-223.25 455.5,-188.75 226.5,-188.75"/>
</a>
</g>
</g>
<!-- sensorsThing -->
<g id="node2" class="node">
<title>sensorsThing</title>
<g id="a_node2"><a xlink:href="../_counters/Sensors__sensorsThing.md" xlink:title="&lt;TABLE&gt;">
<polygon fill="lightgray" stroke="none" points="297.62,-296.88 297.62,-313.12 372.38,-313.12 372.38,-296.88 297.62,-296.88"/>
<text xml:space="preserve" text-anchor="start" x="298.62" y="-300.73" font-family="Arial" font-size="12.00">sensorsThing</text>
<polygon fill="none" stroke="black" points="296.62,-295.88 296.62,-314.12 373.38,-314.12 373.38,-295.88 296.62,-295.88"/>
</a>
</g>
</g>
<!-- sosa_Sampling&#45;&gt;sensorsThing -->
<g id="edge1" class="edge">
<title>sosa_Sampling&#45;&gt;sensorsThing</title>
<path fill="none" stroke="black" d="M337.55,-223.66C336.51,-229.44 335.51,-235.98 335,-242 334.06,-253.07 333.88,-265.28 333.99,-275.92"/>
<polygon fill="none" stroke="black" points="330.49,-275.69 334.2,-285.61 337.49,-275.54 330.49,-275.69"/>
</g>
<!-- Invis -->
<!-- sosa_Sampling&#45;&gt;Invis -->
<!-- sosa_Procedure -->
<g id="node5" class="node">
<title>sosa_Procedure</title>
<polygon fill="lightgray" stroke="none" points="17,-197.88 17,-214.12 103,-214.12 103,-197.88 17,-197.88"/>
<text xml:space="preserve" text-anchor="start" x="18" y="-201.72" font-family="Arial" font-size="12.00">sosa:Procedure</text>
<polygon fill="none" stroke="black" points="16,-196.88 16,-215.12 104,-215.12 104,-196.88 16,-196.88"/>
</g>
<!-- sosa_Sampling&#45;&gt;sosa_Procedure -->
<g id="edge12" class="edge">
<title>sosa_Sampling&#45;&gt;sosa_Procedure</title>
<path fill="none" stroke="black" d="M226.5,-206C188.06,-206 146.93,-206 115.16,-206"/>
<polygon fill="black" stroke="black" points="115.42,-202.5 105.42,-206 115.42,-209.5 115.42,-202.5"/>
<text xml:space="preserve" text-anchor="middle" x="165.25" y="-225.55" font-family="Arial" font-size="11.00"> sosa:usedProcedure </text>
<text xml:space="preserve" text-anchor="middle" x="165.25" y="-212.05" font-family="Arial" font-size="11.00"> «only» &#160;</text>
</g>
<!-- sosa_FeatureOfInterest -->
<g id="node4" class="node">
<title>sosa_FeatureOfInterest</title>
<polygon fill="lightgray" stroke="none" points="16.62,-296.88 16.62,-313.12 139.38,-313.12 139.38,-296.88 16.62,-296.88"/>
<text xml:space="preserve" text-anchor="start" x="17.62" y="-300.73" font-family="Arial" font-size="12.00">sosa:FeatureOfInterest</text>
<polygon fill="none" stroke="black" points="15.62,-295.88 15.62,-314.12 140.38,-314.12 140.38,-295.88 15.62,-295.88"/>
</g>
<!-- Invis&#45;&gt;sosa_FeatureOfInterest -->
<!-- sosa_FeatureOfInterest&#45;&gt;sosa_Sampling -->
<g id="edge7" class="edge">
<title>sosa_FeatureOfInterest&#45;&gt;sosa_Sampling</title>
<path fill="none" stroke="black" d="M74.02,-287.26C71.78,-273.31 71.34,-253.88 82.5,-242 92.29,-231.59 155.27,-222.93 216.6,-216.84"/>
<polygon fill="black" stroke="black" points="226.66,-219.37 216.37,-216.86 225.99,-212.41 226.66,-219.37"/>
<text xml:space="preserve" text-anchor="middle" x="168.75" y="-258.55" font-family="Arial" font-size="11.00"> inverse sosa:isFeatureOfInterestOf </text>
<text xml:space="preserve" text-anchor="middle" x="168.75" y="-245.05" font-family="Arial" font-size="11.00"> «only» &#160;</text>
</g>
<!-- sosa_FeatureOfInterest&#45;&gt;sosa_Procedure -->
<!-- sosa_Sample -->
<g id="node6" class="node">
<title>sosa_Sample</title>
<polygon fill="lightgray" stroke="none" points="65.12,-98.88 65.12,-115.12 136.88,-115.12 136.88,-98.88 65.12,-98.88"/>
<text xml:space="preserve" text-anchor="start" x="66.12" y="-102.72" font-family="Arial" font-size="12.00">sosa:Sample</text>
<polygon fill="none" stroke="black" points="64.12,-97.88 64.12,-116.12 137.88,-116.12 137.88,-97.88 64.12,-97.88"/>
</g>
<!-- sosa_Procedure&#45;&gt;sosa_Sample -->
<!-- sosa_Sample&#45;&gt;sosa_Sampling -->
<g id="edge9" class="edge">
<title>sosa_Sample&#45;&gt;sosa_Sampling</title>
<path fill="none" stroke="black" d="M118.03,-124.78C133.37,-138.94 157.2,-158.67 181.5,-170 194.55,-176.08 208.7,-181.13 222.99,-185.31"/>
<polygon fill="black" stroke="black" points="231.48,-191.31 222.79,-185.25 233.36,-184.56 231.48,-191.31"/>
<text xml:space="preserve" text-anchor="middle" x="240.75" y="-159.55" font-family="Arial" font-size="11.00"> inverse sosa:isResultOf </text>
<text xml:space="preserve" text-anchor="middle" x="240.75" y="-146.05" font-family="Arial" font-size="11.00"> «only» &#160;</text>
</g>
<!-- sosa_Sampler -->
<g id="node7" class="node">
<title>sosa_Sampler</title>
<polygon fill="lightgray" stroke="none" points="63.25,-25.88 63.25,-42.12 138.75,-42.12 138.75,-25.88 63.25,-25.88"/>
<text xml:space="preserve" text-anchor="start" x="64.25" y="-29.73" font-family="Arial" font-size="12.00">sosa:Sampler</text>
<polygon fill="none" stroke="black" points="62.25,-24.88 62.25,-43.12 139.75,-43.12 139.75,-24.88 62.25,-24.88"/>
</g>
<!-- sosa_Sample&#45;&gt;sosa_Sampler -->
<!-- sosa_Sampler&#45;&gt;sosa_Sampling -->
<g id="edge10" class="edge">
<title>sosa_Sampler&#45;&gt;sosa_Sampling</title>
<path fill="none" stroke="black" d="M139.66,-49.31C182.5,-66.59 251.9,-98.91 300,-143 311.11,-153.18 320.62,-166.98 327.67,-178.97"/>
<polygon fill="black" stroke="black" points="329.49,-189.37 327.65,-178.94 335.59,-185.95 329.49,-189.37"/>
<text xml:space="preserve" text-anchor="middle" x="348.27" y="-110.05" font-family="Arial" font-size="11.00"> inverse sosa:madeSampling </text>
<text xml:space="preserve" text-anchor="middle" x="348.27" y="-96.55" font-family="Arial" font-size="11.00"> «only» &#160;</text>
</g>
<!-- owl__Thing -->
<g id="node8" class="node">
<title>owl__Thing</title>
<polygon fill="lightgray" stroke="none" points="521.25,-296.88 521.25,-313.12 578.75,-313.12 578.75,-296.88 521.25,-296.88"/>
<text xml:space="preserve" text-anchor="start" x="522.25" y="-300.73" font-family="Arial" font-size="12.00">owl::Thing</text>
<polygon fill="none" stroke="black" points="520.25,-295.88 520.25,-314.12 579.75,-314.12 579.75,-295.88 520.25,-295.88"/>
</g>
<!-- owl__Thing&#45;&gt;sosa_Sampling -->
<g id="edge8" class="edge">
<title>owl__Thing&#45;&gt;sosa_Sampling</title>
<path fill="none" stroke="black" d="M520.3,-302.56C471.82,-299.58 378.76,-291.09 355.5,-269 346.14,-260.11 342.3,-246.43 340.89,-234.18"/>
<polygon fill="black" stroke="black" points="343.73,-224.2 340.91,-234.41 336.75,-224.67 343.73,-224.2"/>
<text xml:space="preserve" text-anchor="middle" x="441.75" y="-258.55" font-family="Arial" font-size="11.00"> inverse sosa:isFeatureOfInterestOf </text>
<text xml:space="preserve" text-anchor="middle" x="441.75" y="-245.05" font-family="Arial" font-size="11.00"> «exactly 1» &#160;</text>
</g>
<!-- owl__Thing&#45;&gt;sosa_Sampling -->
<g id="edge11" class="edge">
<title>owl__Thing&#45;&gt;sosa_Sampling</title>
<path fill="none" stroke="black" d="M548.59,-287.2C546.48,-273.02 541.19,-253.28 528,-242 517.32,-232.87 493.1,-225.95 465.51,-220.77"/>
<polygon fill="black" stroke="black" points="456.31,-215.58 465.55,-220.77 455.09,-222.47 456.31,-215.58"/>
<text xml:space="preserve" text-anchor="middle" x="614.83" y="-258.55" font-family="Arial" font-size="11.00"> inverse sosa:madeSampling </text>
<text xml:space="preserve" text-anchor="middle" x="614.83" y="-245.05" font-family="Arial" font-size="11.00"> «exactly 1» &#160;</text>
</g>
<!-- owl__Thing&#45;&gt;sosa_Sampling -->
<g id="edge13" class="edge">
<title>owl__Thing&#45;&gt;sosa_Sampling</title>
<path fill="none" stroke="black" d="M579.67,-301.19C629.8,-295.35 722.68,-279.23 689,-242 673.88,-225.29 559.3,-216.19 465.68,-211.49"/>
<polygon fill="black" stroke="black" points="455.92,-207.51 465.73,-211.5 455.57,-214.5 455.92,-207.51"/>
<text xml:space="preserve" text-anchor="middle" x="755.38" y="-258.55" font-family="Arial" font-size="11.00"> inverse sosa:isResultOf </text>
<text xml:space="preserve" text-anchor="middle" x="755.38" y="-245.05" font-family="Arial" font-size="11.00"> «min 1» &#160;</text>
</g>
</g>
</svg>
