<?xml version="1.0" encoding="UTF-8" standalone="no"?>
<!DOCTYPE svg PUBLIC "-//W3C//DTD SVG 1.1//EN"
 "http://www.w3.org/Graphics/SVG/1.1/DTD/svg11.dtd">
<!-- Generated by graphviz version 14.0.2 (20251019.1705)
 -->
<!-- Pages: 1 -->
<svg width="375pt" height="159pt"
 viewBox="0.00 0.00 375.00 159.00" xmlns="http://www.w3.org/2000/svg" xmlns:xlink="http://www.w3.org/1999/xlink">
<g id="graph0" class="graph" transform="scale(1 1) rotate(0) translate(4 155)">
<polygon fill="white" stroke="none" points="-4,4 -4,-155 371.44,-155 371.44,4 -4,4"/>
<g id="clust2" class="cluster">
<title>cluster_associated</title>
</g>
<!-- ssn_Output -->
<g id="node1" class="node">
<title>ssn_Output</title>
<g id="a_node1"><a xlink:href="../classes/Sensors__ssn:Output.md" xlink:title="&lt;TABLE&gt;">
<polygon fill="lightgray" stroke="none" points="94.88,-25.88 94.88,-42.12 153.88,-42.12 153.88,-25.88 94.88,-25.88"/>
<text xml:space="preserve" text-anchor="start" x="95.88" y="-29.73" font-family="Arial" font-size="12.00">ssn:Output</text>
<polygon fill="none" stroke="black" points="93.88,-24.88 93.88,-43.12 154.88,-43.12 154.88,-24.88 93.88,-24.88"/>
</a>
</g>
</g>
<!-- sensorsThing -->
<g id="node2" class="node">
<title>sensorsThing</title>
<g id="a_node2"><a xlink:href="../_counters/Sensors__sensorsThing.md" xlink:title="&lt;TABLE&gt;">
<polygon fill="lightgray" stroke="none" points="1,-124.88 1,-141.12 75.75,-141.12 75.75,-124.88 1,-124.88"/>
<text xml:space="preserve" text-anchor="start" x="2" y="-128.72" font-family="Arial" font-size="12.00">sensorsThing</text>
<polygon fill="none" stroke="black" points="0,-123.88 0,-142.12 76.75,-142.12 76.75,-123.88 0,-123.88"/>
</a>
</g>
</g>
<!-- ssn_Output&#45;&gt;sensorsThing -->
<g id="edge1" class="edge">
<title>ssn_Output&#45;&gt;sensorsThing</title>
<path fill="none" stroke="black" d="M109.57,-51.7C96.18,-66.8 76.28,-89.25 60.92,-106.58"/>
<polygon fill="none" stroke="black" points="58.37,-104.17 54.36,-113.97 63.61,-108.81 58.37,-104.17"/>
</g>
<!-- Invis -->
<!-- owl__Thing -->
<g id="node4" class="node">
<title>owl__Thing</title>
<polygon fill="lightgray" stroke="none" points="95.62,-124.88 95.62,-141.12 153.12,-141.12 153.12,-124.88 95.62,-124.88"/>
<text xml:space="preserve" text-anchor="start" x="96.62" y="-128.72" font-family="Arial" font-size="12.00">owl::Thing</text>
<polygon fill="none" stroke="black" points="94.62,-123.88 94.62,-142.12 154.12,-142.12 154.12,-123.88 94.62,-123.88"/>
</g>
<!-- owl__Thing&#45;&gt;ssn_Output -->
<g id="edge2" class="edge">
<title>owl__Thing&#45;&gt;ssn_Output</title>
<path fill="none" stroke="black" d="M124.38,-115.1C124.38,-100.5 124.38,-79.12 124.38,-62.12"/>
<polygon fill="black" stroke="black" points="127.88,-52.2 124.38,-62.2 120.88,-52.2 127.88,-52.2"/>
<text xml:space="preserve" text-anchor="middle" x="180.62" y="-86.55" font-family="Arial" font-size="11.00"> inverse ssn:hasOutput </text>
<text xml:space="preserve" text-anchor="middle" x="180.62" y="-73.05" font-family="Arial" font-size="11.00"> «min 1» &#160;</text>
</g>
<!-- sosa_Procedure -->
<g id="node5" class="node">
<title>sosa_Procedure</title>
<polygon fill="lightgray" stroke="none" points="217.38,-124.88 217.38,-141.12 303.38,-141.12 303.38,-124.88 217.38,-124.88"/>
<text xml:space="preserve" text-anchor="start" x="218.38" y="-128.72" font-family="Arial" font-size="12.00">sosa:Procedure</text>
<polygon fill="none" stroke="black" points="216.38,-123.88 216.38,-142.12 304.38,-142.12 304.38,-123.88 216.38,-123.88"/>
</g>
<!-- sosa_Procedure&#45;&gt;ssn_Output -->
<g id="edge3" class="edge">
<title>sosa_Procedure&#45;&gt;ssn_Output</title>
<path fill="none" stroke="black" d="M259.12,-115.02C257.1,-100.72 251.88,-80.91 238.38,-70 211.53,-48.31 193.65,-72.21 161.38,-60 159.2,-59.18 157.02,-58.2 154.87,-57.12"/>
<polygon fill="black" stroke="black" points="147.93,-49.08 154.85,-57.11 144.44,-55.14 147.93,-49.08"/>
<text xml:space="preserve" text-anchor="middle" x="311.19" y="-86.55" font-family="Arial" font-size="11.00"> inverse ssn:hasOutput </text>
<text xml:space="preserve" text-anchor="middle" x="311.19" y="-73.05" font-family="Arial" font-size="11.00"> «only» &#160;</text>
</g>
</g>
</svg>
