<?xml version="1.0" encoding="UTF-8" standalone="no"?>
<!DOCTYPE svg PUBLIC "-//W3C//DTD SVG 1.1//EN"
 "http://www.w3.org/Graphics/SVG/1.1/DTD/svg11.dtd">
<!-- Generated by graphviz version 14.0.2 (20251019.1705)
 -->
<!-- Pages: 1 -->
<svg width="331pt" height="347pt"
 viewBox="0.00 0.00 331.00 347.00" xmlns="http://www.w3.org/2000/svg" xmlns:xlink="http://www.w3.org/1999/xlink">
<g id="graph0" class="graph" transform="scale(1 1) rotate(0) translate(4 343)">
<polygon fill="white" stroke="none" points="-4,4 -4,-343 327.38,-343 327.38,4 -4,4"/>
<g id="clust2" class="cluster">
<title>cluster_associated</title>
</g>
<!-- ssn_Deployment -->
<g id="node1" class="node">
<title>ssn_Deployment</title>
<g id="a_node1"><a xlink:href="../classes/Sensors__ssn:Deployment.md" xlink:title="&lt;TABLE&gt;">
<polygon fill="lightgray" stroke="none" points="184.88,-124.88 184.88,-141.12 273.12,-141.12 273.12,-124.88 184.88,-124.88"/>
<text xml:space="preserve" text-anchor="start" x="185.88" y="-128.72" font-family="Arial" font-size="12.00">ssn:Deployment</text>
<polygon fill="none" stroke="black" points="183.88,-123.88 183.88,-142.12 274.12,-142.12 274.12,-123.88 183.88,-123.88"/>
</a>
</g>
</g>
<!-- sensorsThing -->
<g id="node2" class="node">
<title>sensorsThing</title>
<g id="a_node2"><a xlink:href="../_counters/Sensors__sensorsThing.md" xlink:title="&lt;TABLE&gt;">
<polygon fill="lightgray" stroke="none" points="247.62,-223.88 247.62,-240.12 322.38,-240.12 322.38,-223.88 247.62,-223.88"/>
<text xml:space="preserve" text-anchor="start" x="248.62" y="-227.72" font-family="Arial" font-size="12.00">sensorsThing</text>
<polygon fill="none" stroke="black" points="246.62,-222.88 246.62,-241.12 323.38,-241.12 323.38,-222.88 246.62,-222.88"/>
</a>
</g>
</g>
<!-- ssn_Deployment&#45;&gt;sensorsThing -->
<g id="edge1" class="edge">
<title>ssn_Deployment&#45;&gt;sensorsThing</title>
<path fill="none" stroke="black" d="M238.64,-150.7C247.12,-165.39 259.61,-187.02 269.49,-204.13"/>
<polygon fill="none" stroke="black" points="266.46,-205.88 274.49,-212.79 272.52,-202.38 266.46,-205.88"/>
</g>
<!-- Invis -->
<!-- ssn_Deployment&#45;&gt;Invis -->
<!-- ssn_Property -->
<g id="node5" class="node">
<title>ssn_Property</title>
<polygon fill="lightgray" stroke="none" points="16.62,-124.88 16.62,-141.12 85.38,-141.12 85.38,-124.88 16.62,-124.88"/>
<text xml:space="preserve" text-anchor="start" x="17.62" y="-128.72" font-family="Arial" font-size="12.00">ssn:Property</text>
<polygon fill="none" stroke="black" points="15.62,-123.88 15.62,-142.12 86.38,-142.12 86.38,-123.88 15.62,-123.88"/>
</g>
<!-- ssn_Deployment&#45;&gt;ssn_Property -->
<g id="edge7" class="edge">
<title>ssn_Deployment&#45;&gt;ssn_Property</title>
<path fill="none" stroke="black" d="M184.09,-133C157.65,-133 124.26,-133 97.55,-133"/>
<polygon fill="black" stroke="black" points="97.68,-129.5 87.68,-133 97.68,-136.5 97.68,-129.5"/>
<text xml:space="preserve" text-anchor="middle" x="135.12" y="-152.55" font-family="Arial" font-size="11.00"> ssn:forProperty </text>
<text xml:space="preserve" text-anchor="middle" x="135.12" y="-139.05" font-family="Arial" font-size="11.00"> «only» &#160;</text>
</g>
<!-- sosa_Platform -->
<g id="node4" class="node">
<title>sosa_Platform</title>
<polygon fill="lightgray" stroke="none" points="16.62,-223.88 16.62,-240.12 91.38,-240.12 91.38,-223.88 16.62,-223.88"/>
<text xml:space="preserve" text-anchor="start" x="17.62" y="-227.72" font-family="Arial" font-size="12.00">sosa:Platform</text>
<polygon fill="none" stroke="black" points="15.62,-222.88 15.62,-241.12 92.38,-241.12 92.38,-222.88 15.62,-222.88"/>
</g>
<!-- Invis&#45;&gt;sosa_Platform -->
<!-- sosa_Platform&#45;&gt;ssn_Deployment -->
<g id="edge6" class="edge">
<title>sosa_Platform&#45;&gt;ssn_Deployment</title>
<path fill="none" stroke="black" d="M55.57,-214.05C57.78,-199.98 63.12,-180.47 76,-169 90.46,-156.12 136.03,-146.76 173.71,-140.97"/>
<polygon fill="black" stroke="black" points="184.11,-142.97 173.7,-140.97 183.08,-136.05 184.11,-142.97"/>
<text xml:space="preserve" text-anchor="middle" x="140.5" y="-185.55" font-family="Arial" font-size="11.00"> inverse ssn:inDeployment </text>
<text xml:space="preserve" text-anchor="middle" x="140.5" y="-172.05" font-family="Arial" font-size="11.00"> «only» &#160;</text>
</g>
<!-- sosa_Platform&#45;&gt;ssn_Property -->
<!-- ssn_System -->
<g id="node6" class="node">
<title>ssn_System</title>
<polygon fill="lightgray" stroke="none" points="23.25,-25.88 23.25,-42.12 86.75,-42.12 86.75,-25.88 23.25,-25.88"/>
<text xml:space="preserve" text-anchor="start" x="24.25" y="-29.73" font-family="Arial" font-size="12.00">ssn:System</text>
<polygon fill="none" stroke="black" points="22.25,-24.88 22.25,-43.12 87.75,-43.12 87.75,-24.88 22.25,-24.88"/>
</g>
<!-- ssn_Property&#45;&gt;ssn_System -->
<!-- ssn_System&#45;&gt;ssn_Deployment -->
<g id="edge8" class="edge">
<title>ssn_System&#45;&gt;ssn_Deployment</title>
<path fill="none" stroke="black" d="M85.25,-51.86C114.21,-68.01 158.05,-92.45 189.7,-110.09"/>
<polygon fill="black" stroke="black" points="196.55,-117.92 189.52,-109.99 199.96,-111.8 196.55,-117.92"/>
<text xml:space="preserve" text-anchor="middle" x="231.7" y="-86.55" font-family="Arial" font-size="11.00"> inverse ssn:hasDeployment </text>
<text xml:space="preserve" text-anchor="middle" x="231.7" y="-73.05" font-family="Arial" font-size="11.00"> «only» &#160;</text>
</g>
</g>
</svg>
