<?xml version="1.0" encoding="UTF-8" standalone="no"?>
<!DOCTYPE svg PUBLIC "-//W3C//DTD SVG 1.1//EN"
 "http://www.w3.org/Graphics/SVG/1.1/DTD/svg11.dtd">
<!-- Generated by graphviz version 14.0.2 (20251019.1705)
 -->
<!-- Pages: 1 -->
<svg width="259pt" height="232pt"
 viewBox="0.00 0.00 259.00 232.00" xmlns="http://www.w3.org/2000/svg" xmlns:xlink="http://www.w3.org/1999/xlink">
<g id="graph0" class="graph" transform="scale(1 1) rotate(0) translate(4 228)">
<polygon fill="white" stroke="none" points="-4,4 -4,-228 255.25,-228 255.25,4 -4,4"/>
<g id="clust2" class="cluster">
<title>cluster_associated</title>
</g>
<!-- sosa_ActuatableProperty -->
<g id="node1" class="node">
<title>sosa_ActuatableProperty</title>
<g id="a_node1"><a xlink:href="../classes/Sensors__sosa:ActuatableProperty.md" xlink:title="&lt;TABLE&gt;">
<polygon fill="lightgray" stroke="none" points="117.75,-124.88 117.75,-141.12 250.25,-141.12 250.25,-124.88 117.75,-124.88"/>
<text xml:space="preserve" text-anchor="start" x="118.75" y="-128.72" font-family="Arial" font-size="12.00">sosa:ActuatableProperty</text>
<polygon fill="none" stroke="black" points="116.75,-123.88 116.75,-142.12 251.25,-142.12 251.25,-123.88 116.75,-123.88"/>
</a>
</g>
</g>
<!-- ssn_Property -->
<g id="node2" class="node">
<title>ssn_Property</title>
<polygon fill="lightgray" stroke="none" points="149.62,-197.88 149.62,-214.12 218.38,-214.12 218.38,-197.88 149.62,-197.88"/>
<text xml:space="preserve" text-anchor="start" x="150.62" y="-201.72" font-family="Arial" font-size="12.00">ssn:Property</text>
<polygon fill="none" stroke="black" points="148.62,-196.88 148.62,-215.12 219.38,-215.12 219.38,-196.88 148.62,-196.88"/>
</g>
<!-- sosa_ActuatableProperty&#45;&gt;ssn_Property -->
<g id="edge1" class="edge">
<title>sosa_ActuatableProperty&#45;&gt;ssn_Property</title>
<path fill="none" stroke="black" d="M184,-150.71C184,-158.47 184,-167.92 184,-176.74"/>
<polygon fill="none" stroke="black" points="180.5,-176.66 184,-186.66 187.5,-176.66 180.5,-176.66"/>
</g>
<!-- Invis -->
<!-- sosa_ActuatableProperty&#45;&gt;Invis -->
<!-- sosa_Actuation -->
<g id="node4" class="node">
<title>sosa_Actuation</title>
<polygon fill="lightgray" stroke="none" points="16.62,-25.88 16.62,-42.12 97.38,-42.12 97.38,-25.88 16.62,-25.88"/>
<text xml:space="preserve" text-anchor="start" x="17.62" y="-29.73" font-family="Arial" font-size="12.00">sosa:Actuation</text>
<polygon fill="none" stroke="black" points="15.62,-24.88 15.62,-43.12 98.38,-43.12 98.38,-24.88 15.62,-24.88"/>
</g>
<!-- sosa_ActuatableProperty&#45;&gt;sosa_Actuation -->
<g id="edge4" class="edge">
<title>sosa_ActuatableProperty&#45;&gt;sosa_Actuation</title>
<path fill="none" stroke="black" d="M161.88,-115.1C141.39,-99.46 110.73,-76.03 87.84,-58.55"/>
<polygon fill="black" stroke="black" points="90.14,-55.91 80.07,-52.62 85.89,-61.47 90.14,-55.91"/>
<text xml:space="preserve" text-anchor="middle" x="182.48" y="-86.55" font-family="Arial" font-size="11.00"> sosa:isActedOnBy </text>
<text xml:space="preserve" text-anchor="middle" x="182.48" y="-73.05" font-family="Arial" font-size="11.00"> «only» &#160;</text>
</g>
<!-- Invis&#45;&gt;sosa_Actuation -->
</g>
</svg>
