<?xml version="1.0" encoding="UTF-8" standalone="no"?>
<!DOCTYPE svg PUBLIC "-//W3C//DTD SVG 1.1//EN"
 "http://www.w3.org/Graphics/SVG/1.1/DTD/svg11.dtd">
<!-- Generated by graphviz version 14.0.2 (20251019.1705)
 -->
<!-- Pages: 1 -->
<svg width="446pt" height="305pt"
 viewBox="0.00 0.00 446.00 305.00" xmlns="http://www.w3.org/2000/svg" xmlns:xlink="http://www.w3.org/1999/xlink">
<g id="graph0" class="graph" transform="scale(1 1) rotate(0) translate(4 301)">
<polygon fill="white" stroke="none" points="-4,4 -4,-301 442.25,-301 442.25,4 -4,4"/>
<g id="clust2" class="cluster">
<title>cluster_associated</title>
</g>
<!-- Bridge -->
<g id="node1" class="node">
<title>Bridge</title>
<g id="a_node1"><a xlink:href="../classes/TransportationInfrastructure__Bridge.md" xlink:title="&lt;TABLE&gt;">
<polygon fill="lightgray" stroke="none" points="191.5,-197.88 191.5,-214.12 228.75,-214.12 228.75,-197.88 191.5,-197.88"/>
<text xml:space="preserve" text-anchor="start" x="192.5" y="-201.72" font-family="Arial" font-size="12.00">Bridge</text>
<polygon fill="none" stroke="black" points="190.5,-196.88 190.5,-215.12 229.75,-215.12 229.75,-196.88 190.5,-196.88"/>
</a>
</g>
</g>
<!-- infrastructure__InfrastructureElement -->
<g id="node2" class="node">
<title>infrastructure__InfrastructureElement</title>
<polygon fill="lightgray" stroke="none" points="1,-270.88 1,-287.12 191.25,-287.12 191.25,-270.88 1,-270.88"/>
<text xml:space="preserve" text-anchor="start" x="2" y="-274.73" font-family="Arial" font-size="12.00">infrastructure::InfrastructureElement</text>
<polygon fill="none" stroke="black" points="0,-269.88 0,-288.12 192.25,-288.12 192.25,-269.88 0,-269.88"/>
</g>
<!-- Bridge&#45;&gt;infrastructure__InfrastructureElement -->
<g id="edge1" class="edge">
<title>Bridge&#45;&gt;infrastructure__InfrastructureElement</title>
<path fill="none" stroke="black" d="M190.16,-223.92C186.57,-226.73 182.8,-229.53 179.12,-232 166.72,-240.35 152.68,-248.56 139.73,-255.68"/>
<polygon fill="none" stroke="black" points="138.09,-252.58 130.95,-260.42 141.41,-258.74 138.09,-252.58"/>
</g>
<!-- TransportationInfrastructureOntologyThing -->
<g id="node3" class="node">
<title>TransportationInfrastructureOntologyThing</title>
<g id="a_node3"><a xlink:href="../_counters/TransportationInfrastructure__TransportationInfrastructureOntologyThing.md" xlink:title="&lt;TABLE&gt;">
<polygon fill="lightgray" stroke="none" points="211,-270.88 211,-287.12 437.25,-287.12 437.25,-270.88 211,-270.88"/>
<text xml:space="preserve" text-anchor="start" x="212" y="-274.73" font-family="Arial" font-size="12.00">TransportationInfrastructureOntologyThing</text>
<polygon fill="none" stroke="black" points="210,-269.88 210,-288.12 438.25,-288.12 438.25,-269.88 210,-269.88"/>
</a>
</g>
</g>
<!-- Bridge&#45;&gt;TransportationInfrastructureOntologyThing -->
<g id="edge2" class="edge">
<title>Bridge&#45;&gt;TransportationInfrastructureOntologyThing</title>
<path fill="none" stroke="black" d="M236.95,-223.71C252.1,-233.15 271.26,-245.08 287.76,-255.35"/>
<polygon fill="none" stroke="black" points="285.49,-258.06 295.82,-260.37 289.19,-252.12 285.49,-258.06"/>
</g>
<!-- Invis -->
<!-- Bridge&#45;&gt;Invis -->
<!-- BridgeSegment -->
<g id="node5" class="node">
<title>BridgeSegment</title>
<g id="a_node5"><a xlink:href="../_counters/TransportationInfrastructure__BridgeSegment.md" xlink:title="&lt;TABLE&gt;">
<polygon fill="lightgray" stroke="none" points="61.5,-98.88 61.5,-115.12 146.75,-115.12 146.75,-98.88 61.5,-98.88"/>
<text xml:space="preserve" text-anchor="start" x="62.5" y="-102.72" font-family="Arial" font-size="12.00">BridgeSegment</text>
<polygon fill="none" stroke="black" points="60.5,-97.88 60.5,-116.12 147.75,-116.12 147.75,-97.88 60.5,-97.88"/>
</a>
</g>
</g>
<!-- Bridge&#45;&gt;BridgeSegment -->
<g id="edge6" class="edge">
<title>Bridge&#45;&gt;BridgeSegment</title>
<path fill="none" stroke="black" d="M183.25,-189.79C181.87,-189.16 180.49,-188.56 179.12,-188 151.88,-176.85 135.17,-191.79 115.38,-170 107.1,-160.89 103.92,-147.81 102.97,-136.02"/>
<polygon fill="black" stroke="black" points="106.47,-136.25 102.68,-126.35 99.48,-136.45 106.47,-136.25"/>
<text xml:space="preserve" text-anchor="middle" x="180.25" y="-159.55" font-family="Arial" font-size="11.00"> partwhole::hasProperPart </text>
<text xml:space="preserve" text-anchor="middle" x="180.25" y="-146.05" font-family="Arial" font-size="11.00"> «only» &#160;</text>
</g>
<!-- TravelledWaySegment -->
<g id="node6" class="node">
<title>TravelledWaySegment</title>
<g id="a_node6"><a xlink:href="../_counters/TransportationInfrastructure__TravelledWaySegment.md" xlink:title="&lt;TABLE&gt;">
<polygon fill="lightgray" stroke="none" points="42.38,-25.88 42.38,-42.12 165.88,-42.12 165.88,-25.88 42.38,-25.88"/>
<text xml:space="preserve" text-anchor="start" x="43.38" y="-29.73" font-family="Arial" font-size="12.00">TravelledWaySegment</text>
<polygon fill="none" stroke="black" points="41.38,-24.88 41.38,-43.12 166.88,-43.12 166.88,-24.88 41.38,-24.88"/>
</a>
</g>
</g>
<!-- Bridge&#45;&gt;TravelledWaySegment -->
<g id="edge7" class="edge">
<title>Bridge&#45;&gt;TravelledWaySegment</title>
<path fill="none" stroke="black" d="M232.19,-188.23C237.42,-183.02 242.3,-176.83 245.12,-170 249.72,-158.91 250.44,-153.76 245.12,-143 225.89,-104.04 185.1,-75.24 152.32,-57.23"/>
<polygon fill="black" stroke="black" points="154.25,-54.29 143.78,-52.7 150.97,-60.47 154.25,-54.29"/>
<text xml:space="preserve" text-anchor="middle" x="257.87" y="-110.05" font-family="Arial" font-size="11.00"> supports </text>
<text xml:space="preserve" text-anchor="middle" x="257.87" y="-96.55" font-family="Arial" font-size="11.00"> «only» &#160;</text>
</g>
<!-- Invis&#45;&gt;BridgeSegment -->
<!-- BridgeSegment&#45;&gt;TravelledWaySegment -->
</g>
</svg>
