<?xml version="1.0" encoding="UTF-8" standalone="no"?>
<!DOCTYPE svg PUBLIC "-//W3C//DTD SVG 1.1//EN"
 "http://www.w3.org/Graphics/SVG/1.1/DTD/svg11.dtd">
<!-- Generated by graphviz version 14.0.2 (20251019.1705)
 -->
<!-- Pages: 1 -->
<svg width="380pt" height="305pt"
 viewBox="0.00 0.00 380.00 305.00" xmlns="http://www.w3.org/2000/svg" xmlns:xlink="http://www.w3.org/1999/xlink">
<g id="graph0" class="graph" transform="scale(1 1) rotate(0) translate(4 301)">
<polygon fill="white" stroke="none" points="-4,4 -4,-301 375.88,-301 375.88,4 -4,4"/>
<g id="clust2" class="cluster">
<title>cluster_associated</title>
</g>
<!-- RoadSegment -->
<g id="node1" class="node">
<title>RoadSegment</title>
<g id="a_node1"><a xlink:href="../classes/TransportationInfrastructure__RoadSegment.md" xlink:title="&lt;TABLE&gt;">
<polygon fill="lightgray" stroke="none" points="172.5,-197.88 172.5,-214.12 251.75,-214.12 251.75,-197.88 172.5,-197.88"/>
<text xml:space="preserve" text-anchor="start" x="173.5" y="-201.72" font-family="Arial" font-size="12.00">RoadSegment</text>
<polygon fill="none" stroke="black" points="171.5,-196.88 171.5,-215.12 252.75,-215.12 252.75,-196.88 171.5,-196.88"/>
</a>
</g>
</g>
<!-- TransportationInfrastructureOntologyThing -->
<g id="node2" class="node">
<title>TransportationInfrastructureOntologyThing</title>
<g id="a_node2"><a xlink:href="../_counters/TransportationInfrastructure__TransportationInfrastructureOntologyThing.md" xlink:title="&lt;TABLE&gt;">
<polygon fill="lightgray" stroke="none" points="1,-270.88 1,-287.12 227.25,-287.12 227.25,-270.88 1,-270.88"/>
<text xml:space="preserve" text-anchor="start" x="2" y="-274.73" font-family="Arial" font-size="12.00">TransportationInfrastructureOntologyThing</text>
<polygon fill="none" stroke="black" points="0,-269.88 0,-288.12 228.25,-288.12 228.25,-269.88 0,-269.88"/>
</a>
</g>
</g>
<!-- RoadSegment&#45;&gt;TransportationInfrastructureOntologyThing -->
<g id="edge1" class="edge">
<title>RoadSegment&#45;&gt;TransportationInfrastructureOntologyThing</title>
<path fill="none" stroke="black" d="M188.73,-223.95C176.1,-233.1 160.31,-244.54 146.52,-254.53"/>
<polygon fill="none" stroke="black" points="144.62,-251.58 138.58,-260.29 148.73,-257.25 144.62,-251.58"/>
</g>
<!-- TravelledWaySegment -->
<g id="node3" class="node">
<title>TravelledWaySegment</title>
<g id="a_node3"><a xlink:href="../_counters/TransportationInfrastructure__TravelledWaySegment.md" xlink:title="&lt;TABLE&gt;">
<polygon fill="lightgray" stroke="none" points="247.38,-270.88 247.38,-287.12 370.88,-287.12 370.88,-270.88 247.38,-270.88"/>
<text xml:space="preserve" text-anchor="start" x="248.38" y="-274.73" font-family="Arial" font-size="12.00">TravelledWaySegment</text>
<polygon fill="none" stroke="black" points="246.38,-269.88 246.38,-288.12 371.88,-288.12 371.88,-269.88 246.38,-269.88"/>
</a>
</g>
</g>
<!-- RoadSegment&#45;&gt;TravelledWaySegment -->
<g id="edge2" class="edge">
<title>RoadSegment&#45;&gt;TravelledWaySegment</title>
<path fill="none" stroke="black" d="M235.28,-223.95C247.78,-233.1 263.41,-244.54 277.06,-254.53"/>
<polygon fill="none" stroke="black" points="274.78,-257.2 284.92,-260.28 278.91,-251.55 274.78,-257.2"/>
</g>
<!-- Invis -->
<!-- RoadSegment&#45;&gt;Invis -->
<!-- RoadLink -->
<g id="node5" class="node">
<title>RoadLink</title>
<g id="a_node5"><a xlink:href="../_counters/TransportationInfrastructure__RoadLink.md" xlink:title="&lt;TABLE&gt;">
<polygon fill="lightgray" stroke="none" points="76.25,-98.88 76.25,-115.12 130,-115.12 130,-98.88 76.25,-98.88"/>
<text xml:space="preserve" text-anchor="start" x="77.25" y="-102.72" font-family="Arial" font-size="12.00">RoadLink</text>
<polygon fill="none" stroke="black" points="75.25,-97.88 75.25,-116.12 131,-116.12 131,-97.88 75.25,-97.88"/>
</a>
</g>
</g>
<!-- RoadSegment&#45;&gt;RoadLink -->
<g id="edge6" class="edge">
<title>RoadSegment&#45;&gt;RoadLink</title>
<path fill="none" stroke="black" d="M171.93,-189.7C170.31,-189.12 168.7,-188.55 167.12,-188 142.34,-179.36 127.64,-190.2 110.88,-170 103.21,-160.77 100.73,-147.94 100.37,-136.35"/>
<polygon fill="black" stroke="black" points="103.87,-136.52 100.61,-126.43 96.87,-136.35 103.87,-136.52"/>
<text xml:space="preserve" text-anchor="middle" x="172" y="-159.55" font-family="Arial" font-size="11.00"> partwhole::properPartOf </text>
<text xml:space="preserve" text-anchor="middle" x="172" y="-146.05" font-family="Arial" font-size="11.00"> «some» &#160;</text>
</g>
<!-- RoadNetworkType -->
<g id="node6" class="node">
<title>RoadNetworkType</title>
<g id="a_node6"><a xlink:href="../_counters/TransportationInfrastructure__RoadNetworkType.md" xlink:title="&lt;TABLE&gt;">
<polygon fill="lightgray" stroke="none" points="52.25,-25.88 52.25,-42.12 154,-42.12 154,-25.88 52.25,-25.88"/>
<text xml:space="preserve" text-anchor="start" x="53.25" y="-29.73" font-family="Arial" font-size="12.00">RoadNetworkType</text>
<polygon fill="none" stroke="black" points="51.25,-24.88 51.25,-43.12 155,-43.12 155,-24.88 51.25,-24.88"/>
</a>
</g>
</g>
<!-- RoadSegment&#45;&gt;RoadNetworkType -->
<g id="edge7" class="edge">
<title>RoadSegment&#45;&gt;RoadNetworkType</title>
<path fill="none" stroke="black" d="M224.82,-188.02C232.67,-175.33 240.03,-157.71 233.12,-143 215.35,-105.13 177.06,-75.94 146.61,-57.52"/>
<polygon fill="black" stroke="black" points="148.74,-54.71 138.34,-52.68 145.2,-60.75 148.74,-54.71"/>
<text xml:space="preserve" text-anchor="middle" x="256.2" y="-110.05" font-family="Arial" font-size="11.00"> networkType </text>
<text xml:space="preserve" text-anchor="middle" x="256.2" y="-96.55" font-family="Arial" font-size="11.00"> «only» &#160;</text>
</g>
<!-- Invis&#45;&gt;RoadLink -->
<!-- RoadLink&#45;&gt;RoadNetworkType -->
</g>
</svg>
