<?xml version="1.0" encoding="UTF-8" standalone="no"?>
<!DOCTYPE svg PUBLIC "-//W3C//DTD SVG 1.1//EN"
 "http://www.w3.org/Graphics/SVG/1.1/DTD/svg11.dtd">
<!-- Generated by graphviz version 14.0.2 (20251019.1705)
 -->
<!-- Pages: 1 -->
<svg width="255pt" height="232pt"
 viewBox="0.00 0.00 255.00 232.00" xmlns="http://www.w3.org/2000/svg" xmlns:xlink="http://www.w3.org/1999/xlink">
<g id="graph0" class="graph" transform="scale(1 1) rotate(0) translate(4 228)">
<polygon fill="white" stroke="none" points="-4,4 -4,-228 251.12,-228 251.12,4 -4,4"/>
<g id="clust2" class="cluster">
<title>cluster_associated</title>
</g>
<!-- RailLink -->
<g id="node1" class="node">
<title>RailLink</title>
<g id="a_node1"><a xlink:href="../classes/TransportationInfrastructure__RailLink.md" xlink:title="&lt;TABLE&gt;">
<polygon fill="lightgray" stroke="none" points="109.88,-124.88 109.88,-141.12 156.12,-141.12 156.12,-124.88 109.88,-124.88"/>
<text xml:space="preserve" text-anchor="start" x="110.88" y="-128.72" font-family="Arial" font-size="12.00">RailLink</text>
<polygon fill="none" stroke="black" points="108.88,-123.88 108.88,-142.12 157.12,-142.12 157.12,-123.88 108.88,-123.88"/>
</a>
</g>
</g>
<!-- TransportationInfrastructureOntologyThing -->
<g id="node2" class="node">
<title>TransportationInfrastructureOntologyThing</title>
<g id="a_node2"><a xlink:href="../_counters/TransportationInfrastructure__TransportationInfrastructureOntologyThing.md" xlink:title="&lt;TABLE&gt;">
<polygon fill="lightgray" stroke="none" points="19.88,-197.88 19.88,-214.12 246.12,-214.12 246.12,-197.88 19.88,-197.88"/>
<text xml:space="preserve" text-anchor="start" x="20.88" y="-201.72" font-family="Arial" font-size="12.00">TransportationInfrastructureOntologyThing</text>
<polygon fill="none" stroke="black" points="18.88,-196.88 18.88,-215.12 247.12,-215.12 247.12,-196.88 18.88,-196.88"/>
</a>
</g>
</g>
<!-- RailLink&#45;&gt;TransportationInfrastructureOntologyThing -->
<g id="edge1" class="edge">
<title>RailLink&#45;&gt;TransportationInfrastructureOntologyThing</title>
<path fill="none" stroke="black" d="M133,-150.71C133,-158.47 133,-167.92 133,-176.74"/>
<polygon fill="none" stroke="black" points="129.5,-176.66 133,-186.66 136.5,-176.66 129.5,-176.66"/>
</g>
<!-- Invis -->
<!-- RailLink&#45;&gt;Invis -->
<!-- RailLine -->
<g id="node4" class="node">
<title>RailLine</title>
<g id="a_node4"><a xlink:href="../_counters/TransportationInfrastructure__RailLine.md" xlink:title="&lt;TABLE&gt;">
<polygon fill="lightgray" stroke="none" points="19.5,-25.88 19.5,-42.12 66.5,-42.12 66.5,-25.88 19.5,-25.88"/>
<text xml:space="preserve" text-anchor="start" x="20.5" y="-29.73" font-family="Arial" font-size="12.00">RailLine</text>
<polygon fill="none" stroke="black" points="18.5,-24.88 18.5,-43.12 67.5,-43.12 67.5,-24.88 18.5,-24.88"/>
</a>
</g>
</g>
<!-- RailLink&#45;&gt;RailLine -->
<g id="edge4" class="edge">
<title>RailLink&#45;&gt;RailLine</title>
<path fill="none" stroke="black" d="M117.32,-115.1C103.13,-99.8 82.04,-77.07 65.94,-59.73"/>
<polygon fill="black" stroke="black" points="68.89,-57.76 59.53,-52.81 63.76,-62.52 68.89,-57.76"/>
<text xml:space="preserve" text-anchor="middle" x="131.71" y="-86.55" font-family="Arial" font-size="11.00"> aggregateOf </text>
<text xml:space="preserve" text-anchor="middle" x="131.71" y="-73.05" font-family="Arial" font-size="11.00"> «only» &#160;</text>
</g>
<!-- Invis&#45;&gt;RailLine -->
</g>
</svg>
