<?xml version="1.0" encoding="UTF-8" standalone="no"?>
<!DOCTYPE svg PUBLIC "-//W3C//DTD SVG 1.1//EN"
 "http://www.w3.org/Graphics/SVG/1.1/DTD/svg11.dtd">
<!-- Generated by graphviz version 14.0.2 (20251019.1705)
 -->
<!-- Pages: 1 -->
<svg width="354pt" height="232pt"
 viewBox="0.00 0.00 354.00 232.00" xmlns="http://www.w3.org/2000/svg" xmlns:xlink="http://www.w3.org/1999/xlink">
<g id="graph0" class="graph" transform="scale(1 1) rotate(0) translate(4 228)">
<polygon fill="white" stroke="none" points="-4,4 -4,-228 350.12,-228 350.12,4 -4,4"/>
<g id="clust2" class="cluster">
<title>cluster_associated</title>
</g>
<!-- RoadLink -->
<g id="node1" class="node">
<title>RoadLink</title>
<g id="a_node1"><a xlink:href="../classes/TransportationInfrastructure__RoadLink.md" xlink:title="&lt;TABLE&gt;">
<polygon fill="lightgray" stroke="none" points="178.25,-124.88 178.25,-141.12 232,-141.12 232,-124.88 178.25,-124.88"/>
<text xml:space="preserve" text-anchor="start" x="179.25" y="-128.72" font-family="Arial" font-size="12.00">RoadLink</text>
<polygon fill="none" stroke="black" points="177.25,-123.88 177.25,-142.12 233,-142.12 233,-123.88 177.25,-123.88"/>
</a>
</g>
</g>
<!-- TransportationInfrastructureOntologyThing -->
<g id="node2" class="node">
<title>TransportationInfrastructureOntologyThing</title>
<g id="a_node2"><a xlink:href="../_counters/TransportationInfrastructure__TransportationInfrastructureOntologyThing.md" xlink:title="&lt;TABLE&gt;">
<polygon fill="lightgray" stroke="none" points="1,-197.88 1,-214.12 227.25,-214.12 227.25,-197.88 1,-197.88"/>
<text xml:space="preserve" text-anchor="start" x="2" y="-201.72" font-family="Arial" font-size="12.00">TransportationInfrastructureOntologyThing</text>
<polygon fill="none" stroke="black" points="0,-196.88 0,-215.12 228.25,-215.12 228.25,-196.88 0,-196.88"/>
</a>
</g>
</g>
<!-- RoadLink&#45;&gt;TransportationInfrastructureOntologyThing -->
<g id="edge1" class="edge">
<title>RoadLink&#45;&gt;TransportationInfrastructureOntologyThing</title>
<path fill="none" stroke="black" d="M183.4,-150.95C171.78,-160.01 157.29,-171.32 144.57,-181.24"/>
<polygon fill="none" stroke="black" points="142.62,-178.33 136.88,-187.24 146.92,-183.85 142.62,-178.33"/>
</g>
<!-- TravelledWayLink -->
<g id="node3" class="node">
<title>TravelledWayLink</title>
<g id="a_node3"><a xlink:href="../_counters/TransportationInfrastructure__TravelledWayLink.md" xlink:title="&lt;TABLE&gt;">
<polygon fill="lightgray" stroke="none" points="247.12,-197.88 247.12,-214.12 345.12,-214.12 345.12,-197.88 247.12,-197.88"/>
<text xml:space="preserve" text-anchor="start" x="248.12" y="-201.72" font-family="Arial" font-size="12.00">TravelledWayLink</text>
<polygon fill="none" stroke="black" points="246.12,-196.88 246.12,-215.12 346.12,-215.12 346.12,-196.88 246.12,-196.88"/>
</a>
</g>
</g>
<!-- RoadLink&#45;&gt;TravelledWayLink -->
<g id="edge2" class="edge">
<title>RoadLink&#45;&gt;TravelledWayLink</title>
<path fill="none" stroke="black" d="M226.85,-150.95C238.47,-160.01 252.96,-171.32 265.68,-181.24"/>
<polygon fill="none" stroke="black" points="263.33,-183.85 273.37,-187.24 267.63,-178.33 263.33,-183.85"/>
</g>
<!-- Invis -->
<!-- RoadLink&#45;&gt;Invis -->
<!-- Road -->
<g id="node5" class="node">
<title>Road</title>
<g id="a_node5"><a xlink:href="../_counters/TransportationInfrastructure__Road.md" xlink:title="&lt;TABLE&gt;">
<polygon fill="lightgray" stroke="none" points="99.5,-25.88 99.5,-42.12 130.75,-42.12 130.75,-25.88 99.5,-25.88"/>
<text xml:space="preserve" text-anchor="start" x="100.5" y="-29.73" font-family="Arial" font-size="12.00">Road</text>
<polygon fill="none" stroke="black" points="98.5,-24.88 98.5,-43.12 131.75,-43.12 131.75,-24.88 98.5,-24.88"/>
</a>
</g>
</g>
<!-- RoadLink&#45;&gt;Road -->
<g id="edge5" class="edge">
<title>RoadLink&#45;&gt;Road</title>
<path fill="none" stroke="black" stroke-dasharray="5,2" d="M189.45,-115.1C175.25,-99.8 154.16,-77.07 138.07,-59.73"/>
<polygon fill="black" stroke="black" points="141.02,-57.76 131.65,-52.81 135.89,-62.52 141.02,-57.76"/>
<text xml:space="preserve" text-anchor="middle" x="233.46" y="-86.55" font-family="Arial" font-size="11.00"> onProperty: aggregateOf </text>
<text xml:space="preserve" text-anchor="middle" x="233.46" y="-73.05" font-family="Arial" font-size="11.00"> «only» &#160;</text>
</g>
<!-- Invis&#45;&gt;Road -->
</g>
</svg>
