<?xml version="1.0" encoding="UTF-8" standalone="no"?>
<!DOCTYPE svg PUBLIC "-//W3C//DTD SVG 1.1//EN"
 "http://www.w3.org/Graphics/SVG/1.1/DTD/svg11.dtd">
<!-- Generated by graphviz version 14.0.2 (20251019.1705)
 -->
<!-- Pages: 1 -->
<svg width="380pt" height="232pt"
 viewBox="0.00 0.00 380.00 232.00" xmlns="http://www.w3.org/2000/svg" xmlns:xlink="http://www.w3.org/1999/xlink">
<g id="graph0" class="graph" transform="scale(1 1) rotate(0) translate(4 228)">
<polygon fill="white" stroke="none" points="-4,4 -4,-228 375.88,-228 375.88,4 -4,4"/>
<g id="clust2" class="cluster">
<title>cluster_associated</title>
</g>
<!-- RailSegment -->
<g id="node1" class="node">
<title>RailSegment</title>
<g id="a_node1"><a xlink:href="../classes/TransportationInfrastructure__RailSegment.md" xlink:title="&lt;TABLE&gt;">
<polygon fill="lightgray" stroke="none" points="176.25,-124.88 176.25,-141.12 248,-141.12 248,-124.88 176.25,-124.88"/>
<text xml:space="preserve" text-anchor="start" x="177.25" y="-128.72" font-family="Arial" font-size="12.00">RailSegment</text>
<polygon fill="none" stroke="black" points="175.25,-123.88 175.25,-142.12 249,-142.12 249,-123.88 175.25,-123.88"/>
</a>
</g>
</g>
<!-- TransportationInfrastructureOntologyThing -->
<g id="node2" class="node">
<title>TransportationInfrastructureOntologyThing</title>
<g id="a_node2"><a xlink:href="../_counters/TransportationInfrastructure__TransportationInfrastructureOntologyThing.md" xlink:title="&lt;TABLE&gt;">
<polygon fill="lightgray" stroke="none" points="1,-197.88 1,-214.12 227.25,-214.12 227.25,-197.88 1,-197.88"/>
<text xml:space="preserve" text-anchor="start" x="2" y="-201.72" font-family="Arial" font-size="12.00">TransportationInfrastructureOntologyThing</text>
<polygon fill="none" stroke="black" points="0,-196.88 0,-215.12 228.25,-215.12 228.25,-196.88 0,-196.88"/>
</a>
</g>
</g>
<!-- RailSegment&#45;&gt;TransportationInfrastructureOntologyThing -->
<g id="edge1" class="edge">
<title>RailSegment&#45;&gt;TransportationInfrastructureOntologyThing</title>
<path fill="none" stroke="black" d="M188.73,-150.95C176.1,-160.1 160.31,-171.54 146.52,-181.53"/>
<polygon fill="none" stroke="black" points="144.62,-178.58 138.58,-187.29 148.73,-184.25 144.62,-178.58"/>
</g>
<!-- TravelledWaySegment -->
<g id="node3" class="node">
<title>TravelledWaySegment</title>
<g id="a_node3"><a xlink:href="../_counters/TransportationInfrastructure__TravelledWaySegment.md" xlink:title="&lt;TABLE&gt;">
<polygon fill="lightgray" stroke="none" points="247.38,-197.88 247.38,-214.12 370.88,-214.12 370.88,-197.88 247.38,-197.88"/>
<text xml:space="preserve" text-anchor="start" x="248.38" y="-201.72" font-family="Arial" font-size="12.00">TravelledWaySegment</text>
<polygon fill="none" stroke="black" points="246.38,-196.88 246.38,-215.12 371.88,-215.12 371.88,-196.88 246.38,-196.88"/>
</a>
</g>
</g>
<!-- RailSegment&#45;&gt;TravelledWaySegment -->
<g id="edge2" class="edge">
<title>RailSegment&#45;&gt;TravelledWaySegment</title>
<path fill="none" stroke="black" d="M235.28,-150.95C247.78,-160.1 263.41,-171.54 277.06,-181.53"/>
<polygon fill="none" stroke="black" points="274.78,-184.2 284.92,-187.28 278.91,-178.55 274.78,-184.2"/>
</g>
<!-- Invis -->
<!-- RailSegment&#45;&gt;Invis -->
<!-- RailLink -->
<g id="node5" class="node">
<title>RailLink</title>
<g id="a_node5"><a xlink:href="../_counters/TransportationInfrastructure__RailLink.md" xlink:title="&lt;TABLE&gt;">
<polygon fill="lightgray" stroke="none" points="90,-25.88 90,-42.12 136.25,-42.12 136.25,-25.88 90,-25.88"/>
<text xml:space="preserve" text-anchor="start" x="91" y="-29.73" font-family="Arial" font-size="12.00">RailLink</text>
<polygon fill="none" stroke="black" points="89,-24.88 89,-43.12 137.25,-43.12 137.25,-24.88 89,-24.88"/>
</a>
</g>
</g>
<!-- RailSegment&#45;&gt;RailLink -->
<g id="edge5" class="edge">
<title>RailSegment&#45;&gt;RailLink</title>
<path fill="none" stroke="black" d="M194.88,-115.1C179.26,-99.8 156.06,-77.07 138.36,-59.73"/>
<polygon fill="black" stroke="black" points="140.85,-57.26 131.25,-52.76 135.95,-62.26 140.85,-57.26"/>
<text xml:space="preserve" text-anchor="middle" x="235.53" y="-86.55" font-family="Arial" font-size="11.00"> partwhole::properPartOf </text>
<text xml:space="preserve" text-anchor="middle" x="235.53" y="-73.05" font-family="Arial" font-size="11.00"> «some» &#160;</text>
</g>
<!-- Invis&#45;&gt;RailLink -->
</g>
</svg>
