<?xml version="1.0" encoding="UTF-8" standalone="no"?>
<!DOCTYPE svg PUBLIC "-//W3C//DTD SVG 1.1//EN"
 "http://www.w3.org/Graphics/SVG/1.1/DTD/svg11.dtd">
<!-- Generated by graphviz version 14.0.2 (20251019.1705)
 -->
<!-- Pages: 1 -->
<svg width="293pt" height="232pt"
 viewBox="0.00 0.00 293.00 232.00" xmlns="http://www.w3.org/2000/svg" xmlns:xlink="http://www.w3.org/1999/xlink">
<g id="graph0" class="graph" transform="scale(1 1) rotate(0) translate(4 228)">
<polygon fill="white" stroke="none" points="-4,4 -4,-228 289.12,-228 289.12,4 -4,4"/>
<g id="clust2" class="cluster">
<title>cluster_associated</title>
</g>
<!-- TravelledWay -->
<g id="node1" class="node">
<title>TravelledWay</title>
<g id="a_node1"><a xlink:href="../classes/TransportationInfrastructure__TravelledWay.md" xlink:title="&lt;TABLE&gt;">
<polygon fill="lightgray" stroke="none" points="133.25,-124.88 133.25,-141.12 208.75,-141.12 208.75,-124.88 133.25,-124.88"/>
<text xml:space="preserve" text-anchor="start" x="134.25" y="-128.72" font-family="Arial" font-size="12.00">TravelledWay</text>
<polygon fill="none" stroke="black" points="132.25,-123.88 132.25,-142.12 209.75,-142.12 209.75,-123.88 132.25,-123.88"/>
</a>
</g>
</g>
<!-- TransportationInfrastructureOntologyThing -->
<g id="node2" class="node">
<title>TransportationInfrastructureOntologyThing</title>
<g id="a_node2"><a xlink:href="../_counters/TransportationInfrastructure__TransportationInfrastructureOntologyThing.md" xlink:title="&lt;TABLE&gt;">
<polygon fill="lightgray" stroke="none" points="57.88,-197.88 57.88,-214.12 284.12,-214.12 284.12,-197.88 57.88,-197.88"/>
<text xml:space="preserve" text-anchor="start" x="58.88" y="-201.72" font-family="Arial" font-size="12.00">TransportationInfrastructureOntologyThing</text>
<polygon fill="none" stroke="black" points="56.88,-196.88 56.88,-215.12 285.12,-215.12 285.12,-196.88 56.88,-196.88"/>
</a>
</g>
</g>
<!-- TravelledWay&#45;&gt;TransportationInfrastructureOntologyThing -->
<g id="edge1" class="edge">
<title>TravelledWay&#45;&gt;TransportationInfrastructureOntologyThing</title>
<path fill="none" stroke="black" d="M171,-150.71C171,-158.47 171,-167.92 171,-176.74"/>
<polygon fill="none" stroke="black" points="167.5,-176.66 171,-186.66 174.5,-176.66 167.5,-176.66"/>
</g>
<!-- Invis -->
<!-- TravelledWay&#45;&gt;Invis -->
<!-- TravelledWayLink -->
<g id="node4" class="node">
<title>TravelledWayLink</title>
<g id="a_node4"><a xlink:href="../_counters/TransportationInfrastructure__TravelledWayLink.md" xlink:title="&lt;TABLE&gt;">
<polygon fill="lightgray" stroke="none" points="17,-25.88 17,-42.12 115,-42.12 115,-25.88 17,-25.88"/>
<text xml:space="preserve" text-anchor="start" x="18" y="-29.73" font-family="Arial" font-size="12.00">TravelledWayLink</text>
<polygon fill="none" stroke="black" points="16,-24.88 16,-43.12 116,-43.12 116,-24.88 16,-24.88"/>
</a>
</g>
</g>
<!-- TravelledWay&#45;&gt;TravelledWayLink -->
<g id="edge4" class="edge">
<title>TravelledWay&#45;&gt;TravelledWayLink</title>
<path fill="none" stroke="black" d="M152.71,-115.1C136.07,-99.73 111.32,-76.86 92.51,-59.49"/>
<polygon fill="black" stroke="black" points="94.91,-56.94 85.19,-52.73 90.16,-62.09 94.91,-56.94"/>
<text xml:space="preserve" text-anchor="middle" x="168.12" y="-86.55" font-family="Arial" font-size="11.00"> aggregationOf </text>
<text xml:space="preserve" text-anchor="middle" x="168.12" y="-73.05" font-family="Arial" font-size="11.00"> «only» &#160;</text>
</g>
<!-- Invis&#45;&gt;TravelledWayLink -->
</g>
</svg>
