<?xml version="1.0" encoding="UTF-8" standalone="no"?>
<!DOCTYPE svg PUBLIC "-//W3C//DTD SVG 1.1//EN"
 "http://www.w3.org/Graphics/SVG/1.1/DTD/svg11.dtd">
<!-- Generated by graphviz version 14.0.2 (20251019.1705)
 -->
<!-- Pages: 1 -->
<svg width="609pt" height="232pt"
 viewBox="0.00 0.00 609.00 232.00" xmlns="http://www.w3.org/2000/svg" xmlns:xlink="http://www.w3.org/1999/xlink">
<g id="graph0" class="graph" transform="scale(1 1) rotate(0) translate(4 228)">
<polygon fill="white" stroke="none" points="-4,4 -4,-228 604.5,-228 604.5,4 -4,4"/>
<g id="clust2" class="cluster">
<title>cluster_associated</title>
</g>
<!-- https_//standards.iso.org/iso&#45;iec/5087/&#45;2/ed&#45;1/en/ontology/CityService/CatchmentAreaType -->
<g id="node1" class="node">
<title>https_//standards.iso.org/iso&#45;iec/5087/&#45;2/ed&#45;1/en/ontology/CityService/CatchmentAreaType</title>
<g id="a_node1"><a xlink:href="../classes/CityService__https://standards.iso.org/iso-iec/5087/-2/ed-1/en/ontology/CityService/CatchmentAreaType.md" xlink:title="&lt;TABLE&gt;">
<polygon fill="lightgray" stroke="none" points="120.5,-124.88 120.5,-141.12 599.5,-141.12 599.5,-124.88 120.5,-124.88"/>
<text xml:space="preserve" text-anchor="start" x="121.5" y="-128.72" font-family="Arial" font-size="12.00">https://standards.iso.org/iso&#45;iec/5087/&#45;2/ed&#45;1/en/ontology/CityService/CatchmentAreaType</text>
<polygon fill="none" stroke="black" points="119.5,-123.88 119.5,-142.12 600.5,-142.12 600.5,-123.88 119.5,-123.88"/>
</a>
</g>
</g>
<!-- CityServiceOntologyThing -->
<g id="node2" class="node">
<title>CityServiceOntologyThing</title>
<g id="a_node2"><a xlink:href="../_counters/CityService__CityServiceOntologyThing.md" xlink:title="&lt;TABLE&gt;">
<polygon fill="lightgray" stroke="none" points="288.88,-197.88 288.88,-214.12 431.12,-214.12 431.12,-197.88 288.88,-197.88"/>
<text xml:space="preserve" text-anchor="start" x="289.88" y="-201.72" font-family="Arial" font-size="12.00">CityServiceOntologyThing</text>
<polygon fill="none" stroke="black" points="287.88,-196.88 287.88,-215.12 432.12,-215.12 432.12,-196.88 287.88,-196.88"/>
</a>
</g>
</g>
<!-- https_//standards.iso.org/iso&#45;iec/5087/&#45;2/ed&#45;1/en/ontology/CityService/CatchmentAreaType&#45;&gt;CityServiceOntologyThing -->
<g id="edge1" class="edge">
<title>https_//standards.iso.org/iso&#45;iec/5087/&#45;2/ed&#45;1/en/ontology/CityService/CatchmentAreaType&#45;&gt;CityServiceOntologyThing</title>
<path fill="none" stroke="black" d="M360,-150.71C360,-158.47 360,-167.92 360,-176.74"/>
<polygon fill="none" stroke="black" points="356.5,-176.66 360,-186.66 363.5,-176.66 356.5,-176.66"/>
</g>
<!-- Invis -->
<!-- https_//standards.iso.org/iso&#45;iec/5087/&#45;2/ed&#45;1/en/ontology/CityService/CatchmentAreaType&#45;&gt;Invis -->
<!-- hascode__Code -->
<g id="node4" class="node">
<title>hascode__Code</title>
<polygon fill="lightgray" stroke="none" points="17.5,-25.88 17.5,-42.12 100.5,-42.12 100.5,-25.88 17.5,-25.88"/>
<text xml:space="preserve" text-anchor="start" x="18.5" y="-29.73" font-family="Arial" font-size="12.00">hascode::Code</text>
<polygon fill="none" stroke="black" points="16.5,-24.88 16.5,-43.12 101.5,-43.12 101.5,-24.88 16.5,-24.88"/>
</g>
<!-- https_//standards.iso.org/iso&#45;iec/5087/&#45;2/ed&#45;1/en/ontology/CityService/CatchmentAreaType&#45;&gt;hascode__Code -->
<g id="edge4" class="edge">
<title>https_//standards.iso.org/iso&#45;iec/5087/&#45;2/ed&#45;1/en/ontology/CityService/CatchmentAreaType&#45;&gt;hascode__Code</title>
<path fill="none" stroke="black" d="M307.57,-115.1C252.73,-97.43 167.13,-69.85 112.06,-52.1"/>
<polygon fill="black" stroke="black" points="113.16,-48.78 102.57,-49.04 111.02,-55.44 113.16,-48.78"/>
<text xml:space="preserve" text-anchor="middle" x="293.31" y="-86.55" font-family="Arial" font-size="11.00"> hascode::hasCode </text>
<text xml:space="preserve" text-anchor="middle" x="293.31" y="-73.05" font-family="Arial" font-size="11.00"> «only» &#160;</text>
</g>
<!-- Invis&#45;&gt;hascode__Code -->
</g>
</svg>
