<?xml version="1.0" encoding="UTF-8" standalone="no"?>
<!DOCTYPE svg PUBLIC "-//W3C//DTD SVG 1.1//EN"
 "http://www.w3.org/Graphics/SVG/1.1/DTD/svg11.dtd">
<!-- Generated by graphviz version 14.0.2 (20251019.1705)
 -->
<!-- Pages: 1 -->
<svg width="590pt" height="419pt"
 viewBox="0.00 0.00 590.00 419.00" xmlns="http://www.w3.org/2000/svg" xmlns:xlink="http://www.w3.org/1999/xlink">
<g id="graph0" class="graph" transform="scale(1 1) rotate(0) translate(4 414.75)">
<polygon fill="white" stroke="none" points="-4,4 -4,-414.75 586,-414.75 586,4 -4,4"/>
<g id="clust2" class="cluster">
<title>cluster_associated</title>
</g>
<!-- https_//standards.iso.org/iso&#45;iec/5087/&#45;2/ed&#45;1/en/ontology/CityService/Stakeholder -->
<g id="node1" class="node">
<title>https_//standards.iso.org/iso&#45;iec/5087/&#45;2/ed&#45;1/en/ontology/CityService/Stakeholder</title>
<g id="a_node1"><a xlink:href="../classes/CityService__https://standards.iso.org/iso-iec/5087/-2/ed-1/en/ontology/CityService/Stakeholder.md" xlink:title="&lt;TABLE&gt;">
<polygon fill="lightgray" stroke="none" points="147,-320.5 147,-336.75 581,-336.75 581,-320.5 147,-320.5"/>
<text xml:space="preserve" text-anchor="start" x="148" y="-324.35" font-family="Arial" font-size="12.00">https://standards.iso.org/iso&#45;iec/5087/&#45;2/ed&#45;1/en/ontology/CityService/Stakeholder</text>
<text xml:space="preserve" text-anchor="start" x="148" y="-308.1" font-family="Arial" font-size="12.00">genericdataproperty::hasDescription: xsd::string «only»</text>
<text xml:space="preserve" text-anchor="start" x="148" y="-291.85" font-family="Arial" font-size="12.00">genericdataproperty::hasName: xsd::string «max 1»</text>
<polygon fill="none" stroke="black" points="146,-287 146,-337.75 582,-337.75 582,-287 146,-287"/>
</a>
</g>
</g>
<!-- CityServiceOntologyThing -->
<g id="node2" class="node">
<title>CityServiceOntologyThing</title>
<g id="a_node2"><a xlink:href="../_counters/CityService__CityServiceOntologyThing.md" xlink:title="&lt;TABLE&gt;">
<polygon fill="lightgray" stroke="none" points="292.88,-384.62 292.88,-400.88 435.12,-400.88 435.12,-384.62 292.88,-384.62"/>
<text xml:space="preserve" text-anchor="start" x="293.88" y="-388.48" font-family="Arial" font-size="12.00">CityServiceOntologyThing</text>
<polygon fill="none" stroke="black" points="291.88,-383.62 291.88,-401.88 436.12,-401.88 436.12,-383.62 291.88,-383.62"/>
</a>
</g>
</g>
<!-- https_//standards.iso.org/iso&#45;iec/5087/&#45;2/ed&#45;1/en/ontology/CityService/Stakeholder&#45;&gt;CityServiceOntologyThing -->
<g id="edge1" class="edge">
<title>https_//standards.iso.org/iso&#45;iec/5087/&#45;2/ed&#45;1/en/ontology/CityService/Stakeholder&#45;&gt;CityServiceOntologyThing</title>
<path fill="none" stroke="black" d="M364,-337.71C364,-345.97 364,-355.27 364,-363.79"/>
<polygon fill="none" stroke="black" points="360.5,-363.62 364,-373.62 367.5,-363.62 360.5,-363.62"/>
</g>
<!-- Invis -->
<!-- https_//standards.iso.org/iso&#45;iec/5087/&#45;2/ed&#45;1/en/ontology/CityService/Stakeholder&#45;&gt;Invis -->
<!-- activity__Activity -->
<g id="node4" class="node">
<title>activity__Activity</title>
<polygon fill="lightgray" stroke="none" points="41.5,-197.88 41.5,-214.12 124.5,-214.12 124.5,-197.88 41.5,-197.88"/>
<text xml:space="preserve" text-anchor="start" x="42.5" y="-201.72" font-family="Arial" font-size="12.00">activity::Activity</text>
<polygon fill="none" stroke="black" points="40.5,-196.88 40.5,-215.12 125.5,-215.12 125.5,-196.88 40.5,-196.88"/>
</g>
<!-- https_//standards.iso.org/iso&#45;iec/5087/&#45;2/ed&#45;1/en/ontology/CityService/Stakeholder&#45;&gt;activity__Activity -->
<g id="edge6" class="edge">
<title>https_//standards.iso.org/iso&#45;iec/5087/&#45;2/ed&#45;1/en/ontology/CityService/Stakeholder&#45;&gt;activity__Activity</title>
<path fill="none" stroke="black" d="M181.3,-287.07C167,-282.1 153.13,-276.14 140.25,-269 124.47,-260.25 110.63,-245.58 100.51,-232.7"/>
<polygon fill="black" stroke="black" points="103.52,-230.88 94.73,-224.97 97.91,-235.07 103.52,-230.88"/>
<text xml:space="preserve" text-anchor="middle" x="164.62" y="-258.55" font-family="Arial" font-size="11.00"> performs </text>
<text xml:space="preserve" text-anchor="middle" x="164.62" y="-245.05" font-family="Arial" font-size="11.00"> «some» &#160;</text>
</g>
<!-- CatchmentAreaType -->
<g id="node5" class="node">
<title>CatchmentAreaType</title>
<g id="a_node5"><a xlink:href="../_counters/CityService__CatchmentAreaType.md" xlink:title="&lt;TABLE&gt;">
<polygon fill="lightgray" stroke="none" points="17.25,-98.88 17.25,-115.12 128.75,-115.12 128.75,-98.88 17.25,-98.88"/>
<text xml:space="preserve" text-anchor="start" x="18.25" y="-102.72" font-family="Arial" font-size="12.00">CatchmentAreaType</text>
<polygon fill="none" stroke="black" points="16.25,-97.88 16.25,-116.12 129.75,-116.12 129.75,-97.88 16.25,-97.88"/>
</a>
</g>
</g>
<!-- https_//standards.iso.org/iso&#45;iec/5087/&#45;2/ed&#45;1/en/ontology/CityService/Stakeholder&#45;&gt;CatchmentAreaType -->
<g id="edge8" class="edge">
<title>https_//standards.iso.org/iso&#45;iec/5087/&#45;2/ed&#45;1/en/ontology/CityService/Stakeholder&#45;&gt;CatchmentAreaType</title>
<path fill="none" stroke="black" d="M321.83,-287.15C293.1,-270.24 254.49,-246.72 221.75,-224 178.59,-194.05 131.12,-156.09 101.68,-131.92"/>
<polygon fill="black" stroke="black" points="104.26,-129.51 94.32,-125.84 99.8,-134.91 104.26,-129.51"/>
<text xml:space="preserve" text-anchor="middle" x="282.88" y="-209.05" font-family="Arial" font-size="11.00"> hasCatchmentAreaType </text>
<text xml:space="preserve" text-anchor="middle" x="282.88" y="-195.55" font-family="Arial" font-size="11.00"> «only» &#160;</text>
</g>
<!-- location__Location -->
<g id="node6" class="node">
<title>location__Location</title>
<polygon fill="lightgray" stroke="none" points="29.12,-25.88 29.12,-42.12 124.88,-42.12 124.88,-25.88 29.12,-25.88"/>
<text xml:space="preserve" text-anchor="start" x="30.12" y="-29.73" font-family="Arial" font-size="12.00">location::Location</text>
<polygon fill="none" stroke="black" points="28.12,-24.88 28.12,-43.12 125.88,-43.12 125.88,-24.88 28.12,-24.88"/>
</g>
<!-- https_//standards.iso.org/iso&#45;iec/5087/&#45;2/ed&#45;1/en/ontology/CityService/Stakeholder&#45;&gt;location__Location -->
<g id="edge7" class="edge">
<title>https_//standards.iso.org/iso&#45;iec/5087/&#45;2/ed&#45;1/en/ontology/CityService/Stakeholder&#45;&gt;location__Location</title>
<path fill="none" stroke="black" d="M365.92,-287.33C366.83,-260.7 364.5,-217.61 344,-188 294.15,-116 198.68,-73.48 136.44,-52.2"/>
<polygon fill="black" stroke="black" points="137.64,-48.91 127.05,-49.08 135.43,-55.55 137.64,-48.91"/>
<text xml:space="preserve" text-anchor="middle" x="377.93" y="-159.55" font-family="Arial" font-size="11.00"> hasCatchmentArea </text>
<text xml:space="preserve" text-anchor="middle" x="377.93" y="-146.05" font-family="Arial" font-size="11.00"> «only» &#160;</text>
</g>
<!-- Invis&#45;&gt;activity__Activity -->
<!-- activity__Activity&#45;&gt;CatchmentAreaType -->
<!-- CatchmentAreaType&#45;&gt;location__Location -->
</g>
</svg>
