<?xml version="1.0" encoding="UTF-8" standalone="no"?>
<!DOCTYPE svg PUBLIC "-//W3C//DTD SVG 1.1//EN"
 "http://www.w3.org/Graphics/SVG/1.1/DTD/svg11.dtd">
<!-- Generated by graphviz version 14.0.2 (20251019.1705)
 -->
<!-- Pages: 1 -->
<svg width="537pt" height="132pt"
 viewBox="0.00 0.00 537.00 132.00" xmlns="http://www.w3.org/2000/svg" xmlns:xlink="http://www.w3.org/1999/xlink">
<g id="graph0" class="graph" transform="scale(1 1) rotate(0) translate(4 128)">
<polygon fill="white" stroke="none" points="-4,4 -4,-128 532.5,-128 532.5,4 -4,4"/>
<g id="clust2" class="cluster">
<title>cluster_associated</title>
</g>
<!-- http_//ontology.eil.utoronto.ca/5087/2/:EmployedPopulation -->
<g id="node1" class="node">
<title>http_//ontology.eil.utoronto.ca/5087/2/:EmployedPopulation</title>
<g id="a_node1"><a xlink:href="../classes/LandUse__http://ontology.eil.utoronto.ca/5087/2/:EmployedPopulation.md" xlink:title="&lt;TABLE&gt;">
<polygon fill="lightgray" stroke="none" points="1,-25.88 1,-42.12 312,-42.12 312,-25.88 1,-25.88"/>
<text xml:space="preserve" text-anchor="start" x="2" y="-29.73" font-family="Arial" font-size="12.00">http://ontology.eil.utoronto.ca/5087/2/:EmployedPopulation</text>
<polygon fill="none" stroke="black" points="0,-24.88 0,-43.12 313,-43.12 313,-24.88 0,-24.88"/>
</a>
</g>
</g>
<!-- ResidentPopulation -->
<g id="node2" class="node">
<title>ResidentPopulation</title>
<g id="a_node2"><a xlink:href="../_counters/LandUse__ResidentPopulation.md" xlink:title="&lt;TABLE&gt;">
<polygon fill="lightgray" stroke="none" points="331.62,-25.88 331.62,-42.12 439.38,-42.12 439.38,-25.88 331.62,-25.88"/>
<text xml:space="preserve" text-anchor="start" x="332.62" y="-29.73" font-family="Arial" font-size="12.00">ResidentPopulation</text>
<polygon fill="none" stroke="black" points="330.62,-24.88 330.62,-43.12 440.38,-43.12 440.38,-24.88 330.62,-24.88"/>
</a>
</g>
</g>
<!-- Invis -->
<!-- http_//ontology.eil.utoronto.ca/5087/2/ -->
<g id="node4" class="node">
<title>http_//ontology.eil.utoronto.ca/5087/2/</title>
<text xml:space="preserve" text-anchor="middle" x="385.5" y="-101.72" font-family="Arial" font-size="12.00">http_//ontology.eil.utoronto.ca/5087/2/</text>
</g>
<!-- http_//ontology.eil.utoronto.ca/5087/2/&#45;&gt;ResidentPopulation -->
<g id="edge1" class="edge">
<title>http_//ontology.eil.utoronto.ca/5087/2/:EmployedPopulation&#45;&gt;ResidentPopulation</title>
<path fill="none" stroke="black" d="M385.5,-88.05C385.5,-80.57 385.5,-71.58 385.5,-63.14"/>
<polygon fill="none" stroke="black" points="389,-63.3 385.5,-53.3 382,-63.3 389,-63.3"/>
</g>
</g>
</svg>
