<?xml version="1.0" encoding="UTF-8" standalone="no"?>
<!DOCTYPE svg PUBLIC "-//W3C//DTD SVG 1.1//EN"
 "http://www.w3.org/Graphics/SVG/1.1/DTD/svg11.dtd">
<!-- Generated by graphviz version 14.0.2 (20251019.1705)
 -->
<!-- Pages: 1 -->
<svg width="1055pt" height="477pt"
 viewBox="0.00 0.00 1055.00 477.00" xmlns="http://www.w3.org/2000/svg" xmlns:xlink="http://www.w3.org/1999/xlink">
<g id="graph0" class="graph" transform="scale(1 1) rotate(0) translate(4 473)">
<polygon fill="white" stroke="none" points="-4,4 -4,-473 1050.62,-473 1050.62,4 -4,4"/>
<g id="clust2" class="cluster">
<title>cluster_associated</title>
</g>
<!-- http_//ontology.eil.utoronto.ca/5087/2/:LandArea -->
<g id="node1" class="node">
<title>http_//ontology.eil.utoronto.ca/5087/2/:LandArea</title>
<g id="a_node1"><a xlink:href="../classes/LandUse__http://ontology.eil.utoronto.ca/5087/2/:LandArea.md" xlink:title="&lt;TABLE&gt;">
<polygon fill="lightgray" stroke="none" points="1,-369.88 1,-386.12 252.75,-386.12 252.75,-369.88 1,-369.88"/>
<text xml:space="preserve" text-anchor="start" x="2" y="-373.73" font-family="Arial" font-size="12.00">http://ontology.eil.utoronto.ca/5087/2/:LandArea</text>
<polygon fill="none" stroke="black" points="0,-368.88 0,-387.12 253.75,-387.12 253.75,-368.88 0,-368.88"/>
</a>
</g>
</g>
<!-- change_Manifestation -->
<g id="node2" class="node">
<title>change_Manifestation</title>
<polygon fill="lightgray" stroke="none" points="272.88,-369.88 272.88,-386.12 388.88,-386.12 388.88,-369.88 272.88,-369.88"/>
<text xml:space="preserve" text-anchor="start" x="273.88" y="-373.73" font-family="Arial" font-size="12.00">change:Manifestation</text>
<polygon fill="none" stroke="black" points="271.88,-368.88 271.88,-387.12 389.88,-387.12 389.88,-368.88 271.88,-368.88"/>
</g>
<!-- LandUseOntologyThing -->
<g id="node3" class="node">
<title>LandUseOntologyThing</title>
<g id="a_node3"><a xlink:href="../_counters/LandUse__LandUseOntologyThing.md" xlink:title="&lt;TABLE&gt;">
<polygon fill="lightgray" stroke="none" points="409.12,-369.88 409.12,-386.12 538.62,-386.12 538.62,-369.88 409.12,-369.88"/>
<text xml:space="preserve" text-anchor="start" x="410.12" y="-373.73" font-family="Arial" font-size="12.00">LandUseOntologyThing</text>
<polygon fill="none" stroke="black" points="408.12,-368.88 408.12,-387.12 539.62,-387.12 539.62,-368.88 408.12,-368.88"/>
</a>
</g>
</g>
<!-- Parcel -->
<g id="node4" class="node">
<title>Parcel</title>
<g id="a_node4"><a xlink:href="../_counters/LandUse__Parcel.md" xlink:title="&lt;TABLE&gt;">
<polygon fill="lightgray" stroke="none" points="566.62,-369.88 566.62,-386.12 603.12,-386.12 603.12,-369.88 566.62,-369.88"/>
<text xml:space="preserve" text-anchor="start" x="567.62" y="-373.73" font-family="Arial" font-size="12.00">Parcel</text>
<polygon fill="none" stroke="black" points="565.62,-368.88 565.62,-387.12 604.12,-387.12 604.12,-368.88 565.62,-368.88"/>
</a>
</g>
</g>
<!-- Invis -->
<!-- cityUnits_Area -->
<g id="node6" class="node">
<title>cityUnits_Area</title>
<polygon fill="lightgray" stroke="none" points="662.75,-270.88 662.75,-287.12 739,-287.12 739,-270.88 662.75,-270.88"/>
<text xml:space="preserve" text-anchor="start" x="663.75" y="-274.73" font-family="Arial" font-size="12.00">cityUnits:Area</text>
<polygon fill="none" stroke="black" points="661.75,-269.88 661.75,-288.12 740,-288.12 740,-269.88 661.75,-269.88"/>
</g>
<!-- Invis&#45;&gt;cityUnits_Area -->
<!-- i72_Feature -->
<g id="node7" class="node">
<title>i72_Feature</title>
<polygon fill="lightgray" stroke="none" points="676.5,-171.88 676.5,-188.12 739.25,-188.12 739.25,-171.88 676.5,-171.88"/>
<text xml:space="preserve" text-anchor="start" x="677.5" y="-175.72" font-family="Arial" font-size="12.00">i72:Feature</text>
<polygon fill="none" stroke="black" points="675.5,-170.88 675.5,-189.12 740.25,-189.12 740.25,-170.88 675.5,-170.88"/>
</g>
<!-- cityUnits_Area&#45;&gt;i72_Feature -->
<!-- i72_Population -->
<g id="node8" class="node">
<title>i72_Population</title>
<polygon fill="lightgray" stroke="none" points="668.25,-98.88 668.25,-115.12 747.5,-115.12 747.5,-98.88 668.25,-98.88"/>
<text xml:space="preserve" text-anchor="start" x="669.25" y="-102.72" font-family="Arial" font-size="12.00">i72:Population</text>
<polygon fill="none" stroke="black" points="667.25,-97.88 667.25,-116.12 748.5,-116.12 748.5,-97.88 667.25,-97.88"/>
</g>
<!-- i72_Feature&#45;&gt;i72_Population -->
<!-- LandUseClassification -->
<g id="node9" class="node">
<title>LandUseClassification</title>
<g id="a_node9"><a xlink:href="../_counters/LandUse__LandUseClassification.md" xlink:title="&lt;TABLE&gt;">
<polygon fill="lightgray" stroke="none" points="630.5,-25.88 630.5,-42.12 753.25,-42.12 753.25,-25.88 630.5,-25.88"/>
<text xml:space="preserve" text-anchor="start" x="631.5" y="-29.73" font-family="Arial" font-size="12.00">LandUseClassification</text>
<polygon fill="none" stroke="black" points="629.5,-24.88 629.5,-43.12 754.25,-43.12 754.25,-24.88 629.5,-24.88"/>
</a>
</g>
</g>
<!-- i72_Population&#45;&gt;LandUseClassification -->
<!-- http_//ontology.eil.utoronto.ca/5087/2/ -->
<g id="node10" class="node">
<title>http_//ontology.eil.utoronto.ca/5087/2/</title>
<text xml:space="preserve" text-anchor="middle" x="703.88" y="-446.73" font-family="Arial" font-size="12.00">http_//ontology.eil.utoronto.ca/5087/2/</text>
</g>
<!-- http_//ontology.eil.utoronto.ca/5087/2/&#45;&gt;change_Manifestation -->
<g id="edge1" class="edge">
<title>http_//ontology.eil.utoronto.ca/5087/2/:LandArea&#45;&gt;change_Manifestation</title>
<path fill="none" stroke="black" d="M604.99,-440.23C544.8,-433.02 466.7,-421.39 398.88,-404 393.81,-402.7 388.6,-401.17 383.42,-399.5"/>
<polygon fill="none" stroke="black" points="384.92,-396.32 374.33,-396.44 382.69,-402.95 384.92,-396.32"/>
</g>
<!-- http_//ontology.eil.utoronto.ca/5087/2/&#45;&gt;LandUseOntologyThing -->
<g id="edge2" class="edge">
<title>http_//ontology.eil.utoronto.ca/5087/2/:LandArea&#45;&gt;LandUseOntologyThing</title>
<path fill="none" stroke="black" d="M645.22,-433.09C616.17,-424.59 580.6,-413.99 548.88,-404 544.18,-402.52 539.33,-400.97 534.46,-399.39"/>
<polygon fill="none" stroke="black" points="535.86,-396.16 525.26,-396.38 533.68,-402.81 535.86,-396.16"/>
</g>
<!-- http_//ontology.eil.utoronto.ca/5087/2/&#45;&gt;Parcel -->
<g id="edge3" class="edge">
<title>http_//ontology.eil.utoronto.ca/5087/2/:LandArea&#45;&gt;Parcel</title>
<path fill="none" stroke="black" d="M669.27,-433.07C653.29,-424.85 634.27,-414.5 617.88,-404 617.03,-403.46 616.17,-402.9 615.32,-402.33"/>
<polygon fill="none" stroke="black" points="617.61,-399.66 607.42,-396.78 613.59,-405.39 617.61,-399.66"/>
</g>
<!-- http_//ontology.eil.utoronto.ca/5087/2/&#45;&gt;Invis -->
<!-- http_//ontology.eil.utoronto.ca/5087/2/&#45;&gt;cityUnits_Area -->
<g id="edge10" class="edge">
<title>http_//ontology.eil.utoronto.ca/5087/2/:LandArea&#45;&gt;cityUnits_Area</title>
<path fill="none" stroke="black" d="M703.58,-433.08C703.06,-403.93 702,-343.96 701.38,-308.34"/>
<polygon fill="black" stroke="black" points="704.88,-308.3 701.2,-298.37 697.88,-308.43 704.88,-308.3"/>
<text xml:space="preserve" text-anchor="middle" x="743.18" y="-381.05" font-family="Arial" font-size="11.00"> associatedArea </text>
<text xml:space="preserve" text-anchor="middle" x="743.18" y="-367.55" font-family="Arial" font-size="11.00"> «only» &#160;</text>
</g>
<!-- http_//ontology.eil.utoronto.ca/5087/2/&#45;&gt;i72_Feature -->
<g id="edge9" class="edge">
<title>http_//ontology.eil.utoronto.ca/5087/2/:LandArea&#45;&gt;i72_Feature</title>
<path fill="none" stroke="black" d="M753.82,-433.17C766.86,-426.25 779.35,-416.78 786.88,-404 796.8,-387.15 794.42,-378.04 786.88,-360 782.48,-349.49 774.24,-351.91 768.62,-342 750.35,-309.76 761.8,-295.73 748.88,-261 742.02,-242.58 731.98,-222.92 723.56,-207.7"/>
<polygon fill="black" stroke="black" points="726.76,-206.25 718.79,-199.26 720.66,-209.69 726.76,-206.25"/>
<text xml:space="preserve" text-anchor="middle" x="816.25" y="-331.55" font-family="Arial" font-size="11.00"> parcelHasLocation </text>
<text xml:space="preserve" text-anchor="middle" x="816.25" y="-318.05" font-family="Arial" font-size="11.00"> «some» &#160;</text>
</g>
<!-- http_//ontology.eil.utoronto.ca/5087/2/&#45;&gt;i72_Population -->
<g id="edge12" class="edge">
<title>http_//ontology.eil.utoronto.ca/5087/2/:LandArea&#45;&gt;i72_Population</title>
<path fill="none" stroke="black" d="M802.82,-443.53C841.99,-435.05 877.88,-416.93 877.88,-379 877.88,-379 877.88,-379 877.88,-179 877.88,-127.07 809.5,-112.45 759.48,-108.71"/>
<polygon fill="black" stroke="black" points="759.87,-105.22 749.67,-108.11 759.44,-112.21 759.87,-105.22"/>
<text xml:space="preserve" text-anchor="middle" x="915" y="-282.05" font-family="Arial" font-size="11.00"> hasPopulation </text>
<text xml:space="preserve" text-anchor="middle" x="915" y="-268.55" font-family="Arial" font-size="11.00"> «only» &#160;</text>
</g>
<!-- http_//ontology.eil.utoronto.ca/5087/2/&#45;&gt;LandUseClassification -->
<g id="edge11" class="edge">
<title>http_//ontology.eil.utoronto.ca/5087/2/:LandArea&#45;&gt;LandUseClassification</title>
<path fill="none" stroke="black" d="M802.74,-443.07C881.93,-434.7 979.88,-416.73 979.88,-379 979.88,-379 979.88,-379 979.88,-106 979.88,-61.87 850.81,-45.01 765.48,-38.68"/>
<polygon fill="black" stroke="black" points="765.74,-35.19 755.52,-37.98 765.25,-42.17 765.74,-35.19"/>
<text xml:space="preserve" text-anchor="middle" x="1013.25" y="-232.55" font-family="Arial" font-size="11.00"> hasLandUse </text>
<text xml:space="preserve" text-anchor="middle" x="1013.25" y="-219.05" font-family="Arial" font-size="11.00"> «only» &#160;</text>
</g>
</g>
</svg>
