<?xml version="1.0" encoding="UTF-8" standalone="no"?>
<!DOCTYPE svg PUBLIC "-//W3C//DTD SVG 1.1//EN"
 "http://www.w3.org/Graphics/SVG/1.1/DTD/svg11.dtd">
<!-- Generated by graphviz version 14.0.2 (20251019.1705)
 -->
<!-- Pages: 1 -->
<svg width="482pt" height="132pt"
 viewBox="0.00 0.00 482.00 132.00" xmlns="http://www.w3.org/2000/svg" xmlns:xlink="http://www.w3.org/1999/xlink">
<g id="graph0" class="graph" transform="scale(1 1) rotate(0) translate(4 128)">
<polygon fill="white" stroke="none" points="-4,4 -4,-128 477.88,-128 477.88,4 -4,4"/>
<g id="clust2" class="cluster">
<title>cluster_associated</title>
</g>
<!-- http_//ontology.eil.utoronto.ca/5087/2/:Parcel -->
<g id="node1" class="node">
<title>http_//ontology.eil.utoronto.ca/5087/2/:Parcel</title>
<g id="a_node1"><a xlink:href="../classes/LandUse__http://ontology.eil.utoronto.ca/5087/2/:Parcel.md" xlink:title="&lt;TABLE&gt;">
<polygon fill="lightgray" stroke="none" points="1,-25.88 1,-42.12 234.75,-42.12 234.75,-25.88 1,-25.88"/>
<text xml:space="preserve" text-anchor="start" x="2" y="-29.73" font-family="Arial" font-size="12.00">http://ontology.eil.utoronto.ca/5087/2/:Parcel</text>
<polygon fill="none" stroke="black" points="0,-24.88 0,-43.12 235.75,-43.12 235.75,-24.88 0,-24.88"/>
</a>
</g>
</g>
<!-- LandUseOntologyThing -->
<g id="node2" class="node">
<title>LandUseOntologyThing</title>
<g id="a_node2"><a xlink:href="../_counters/LandUse__LandUseOntologyThing.md" xlink:title="&lt;TABLE&gt;">
<polygon fill="lightgray" stroke="none" points="255.12,-25.88 255.12,-42.12 384.62,-42.12 384.62,-25.88 255.12,-25.88"/>
<text xml:space="preserve" text-anchor="start" x="256.12" y="-29.73" font-family="Arial" font-size="12.00">LandUseOntologyThing</text>
<polygon fill="none" stroke="black" points="254.12,-24.88 254.12,-43.12 385.62,-43.12 385.62,-24.88 254.12,-24.88"/>
</a>
</g>
</g>
<!-- Invis -->
<!-- http_//ontology.eil.utoronto.ca/5087/2/ -->
<g id="node4" class="node">
<title>http_//ontology.eil.utoronto.ca/5087/2/</title>
<text xml:space="preserve" text-anchor="middle" x="319.88" y="-101.72" font-family="Arial" font-size="12.00">http_//ontology.eil.utoronto.ca/5087/2/</text>
</g>
<!-- http_//ontology.eil.utoronto.ca/5087/2/&#45;&gt;LandUseOntologyThing -->
<g id="edge1" class="edge">
<title>http_//ontology.eil.utoronto.ca/5087/2/:Parcel&#45;&gt;LandUseOntologyThing</title>
<path fill="none" stroke="black" d="M319.88,-88.05C319.88,-80.57 319.88,-71.58 319.88,-63.14"/>
<polygon fill="none" stroke="black" points="323.38,-63.3 319.88,-53.3 316.38,-63.3 323.38,-63.3"/>
</g>
</g>
</svg>
