<?xml version="1.0" encoding="UTF-8" standalone="no"?>
<!DOCTYPE svg PUBLIC "-//W3C//DTD SVG 1.1//EN"
 "http://www.w3.org/Graphics/SVG/1.1/DTD/svg11.dtd">
<!-- Generated by graphviz version 14.0.2 (20251019.1705)
 -->
<!-- Pages: 1 -->
<svg width="652pt" height="132pt"
 viewBox="0.00 0.00 652.00 132.00" xmlns="http://www.w3.org/2000/svg" xmlns:xlink="http://www.w3.org/1999/xlink">
<g id="graph0" class="graph" transform="scale(1 1) rotate(0) translate(4 128)">
<polygon fill="white" stroke="none" points="-4,4 -4,-128 647.5,-128 647.5,4 -4,4"/>
<g id="clust2" class="cluster">
<title>cluster_associated</title>
</g>
<!-- http_//ontology.eil.utoronto.ca/5087/2/:ResidentPopulation -->
<g id="node1" class="node">
<title>http_//ontology.eil.utoronto.ca/5087/2/:ResidentPopulation</title>
<g id="a_node1"><a xlink:href="../classes/LandUse__http://ontology.eil.utoronto.ca/5087/2/:ResidentPopulation.md" xlink:title="&lt;TABLE&gt;">
<polygon fill="lightgray" stroke="none" points="1,-25.88 1,-42.12 306,-42.12 306,-25.88 1,-25.88"/>
<text xml:space="preserve" text-anchor="start" x="2" y="-29.73" font-family="Arial" font-size="12.00">http://ontology.eil.utoronto.ca/5087/2/:ResidentPopulation</text>
<polygon fill="none" stroke="black" points="0,-24.88 0,-43.12 307,-43.12 307,-24.88 0,-24.88"/>
</a>
</g>
</g>
<!-- i72_Population -->
<g id="node2" class="node">
<title>i72_Population</title>
<polygon fill="lightgray" stroke="none" points="325.88,-25.88 325.88,-42.12 405.12,-42.12 405.12,-25.88 325.88,-25.88"/>
<text xml:space="preserve" text-anchor="start" x="326.88" y="-29.73" font-family="Arial" font-size="12.00">i72:Population</text>
<polygon fill="none" stroke="black" points="324.88,-24.88 324.88,-43.12 406.12,-43.12 406.12,-24.88 324.88,-24.88"/>
</g>
<!-- LandUseOntologyThing -->
<g id="node3" class="node">
<title>LandUseOntologyThing</title>
<g id="a_node3"><a xlink:href="../_counters/LandUse__LandUseOntologyThing.md" xlink:title="&lt;TABLE&gt;">
<polygon fill="lightgray" stroke="none" points="424.75,-25.88 424.75,-42.12 554.25,-42.12 554.25,-25.88 424.75,-25.88"/>
<text xml:space="preserve" text-anchor="start" x="425.75" y="-29.73" font-family="Arial" font-size="12.00">LandUseOntologyThing</text>
<polygon fill="none" stroke="black" points="423.75,-24.88 423.75,-43.12 555.25,-43.12 555.25,-24.88 423.75,-24.88"/>
</a>
</g>
</g>
<!-- Invis -->
<!-- http_//ontology.eil.utoronto.ca/5087/2/ -->
<g id="node5" class="node">
<title>http_//ontology.eil.utoronto.ca/5087/2/</title>
<text xml:space="preserve" text-anchor="middle" x="427.5" y="-101.72" font-family="Arial" font-size="12.00">http_//ontology.eil.utoronto.ca/5087/2/</text>
</g>
<!-- http_//ontology.eil.utoronto.ca/5087/2/&#45;&gt;i72_Population -->
<g id="edge1" class="edge">
<title>http_//ontology.eil.utoronto.ca/5087/2/:ResidentPopulation&#45;&gt;i72_Population</title>
<path fill="none" stroke="black" d="M412.49,-88.05C405.1,-79.71 396.05,-69.49 387.87,-60.25"/>
<polygon fill="none" stroke="black" points="390.62,-58.09 381.37,-52.92 385.38,-62.73 390.62,-58.09"/>
</g>
<!-- http_//ontology.eil.utoronto.ca/5087/2/&#45;&gt;LandUseOntologyThing -->
<g id="edge2" class="edge">
<title>http_//ontology.eil.utoronto.ca/5087/2/:ResidentPopulation&#45;&gt;LandUseOntologyThing</title>
<path fill="none" stroke="black" d="M442.51,-88.05C449.9,-79.71 458.95,-69.49 467.13,-60.25"/>
<polygon fill="none" stroke="black" points="469.62,-62.73 473.63,-52.92 464.38,-58.09 469.62,-62.73"/>
</g>
</g>
</svg>
