<?xml version="1.0" encoding="UTF-8" standalone="no"?>
<!DOCTYPE svg PUBLIC "-//W3C//DTD SVG 1.1//EN"
 "http://www.w3.org/Graphics/SVG/1.1/DTD/svg11.dtd">
<!-- Generated by graphviz version 14.0.2 (20251019.1705)
 -->
<!-- Pages: 1 -->
<svg width="432pt" height="132pt"
 viewBox="0.00 0.00 432.00 132.00" xmlns="http://www.w3.org/2000/svg" xmlns:xlink="http://www.w3.org/1999/xlink">
<g id="graph0" class="graph" transform="scale(1 1) rotate(0) translate(4 128)">
<polygon fill="white" stroke="none" points="-4,4 -4,-128 427.62,-128 427.62,4 -4,4"/>
<g id="clust2" class="cluster">
<title>cluster_associated</title>
</g>
<!-- http_//ontology.eil.utoronto.ca/5087/2/:TrafficZone -->
<g id="node1" class="node">
<title>http_//ontology.eil.utoronto.ca/5087/2/:TrafficZone</title>
<g id="a_node1"><a xlink:href="../classes/LandUse__http://ontology.eil.utoronto.ca/5087/2/:TrafficZone.md" xlink:title="&lt;TABLE&gt;">
<polygon fill="lightgray" stroke="none" points="1,-25.88 1,-42.12 260.25,-42.12 260.25,-25.88 1,-25.88"/>
<text xml:space="preserve" text-anchor="start" x="2" y="-29.73" font-family="Arial" font-size="12.00">http://ontology.eil.utoronto.ca/5087/2/:TrafficZone</text>
<polygon fill="none" stroke="black" points="0,-24.88 0,-43.12 261.25,-43.12 261.25,-24.88 0,-24.88"/>
</a>
</g>
</g>
<!-- LandArea -->
<g id="node2" class="node">
<title>LandArea</title>
<g id="a_node2"><a xlink:href="../_counters/LandUse__LandArea.md" xlink:title="&lt;TABLE&gt;">
<polygon fill="lightgray" stroke="none" points="280.38,-25.88 280.38,-42.12 334.88,-42.12 334.88,-25.88 280.38,-25.88"/>
<text xml:space="preserve" text-anchor="start" x="281.38" y="-29.73" font-family="Arial" font-size="12.00">LandArea</text>
<polygon fill="none" stroke="black" points="279.38,-24.88 279.38,-43.12 335.88,-43.12 335.88,-24.88 279.38,-24.88"/>
</a>
</g>
</g>
<!-- Invis -->
<!-- http_//ontology.eil.utoronto.ca/5087/2/ -->
<g id="node4" class="node">
<title>http_//ontology.eil.utoronto.ca/5087/2/</title>
<text xml:space="preserve" text-anchor="middle" x="307.62" y="-101.72" font-family="Arial" font-size="12.00">http_//ontology.eil.utoronto.ca/5087/2/</text>
</g>
<!-- http_//ontology.eil.utoronto.ca/5087/2/&#45;&gt;LandArea -->
<g id="edge1" class="edge">
<title>http_//ontology.eil.utoronto.ca/5087/2/:TrafficZone&#45;&gt;LandArea</title>
<path fill="none" stroke="black" d="M307.62,-88.05C307.62,-80.57 307.62,-71.58 307.62,-63.14"/>
<polygon fill="none" stroke="black" points="311.13,-63.3 307.63,-53.3 304.13,-63.3 311.13,-63.3"/>
</g>
</g>
</svg>
