<?xml version="1.0" encoding="UTF-8" standalone="no"?>
<!DOCTYPE svg PUBLIC "-//W3C//DTD SVG 1.1//EN"
 "http://www.w3.org/Graphics/SVG/1.1/DTD/svg11.dtd">
<!-- Generated by graphviz version 14.0.2 (20251019.1705)
 -->
<!-- Pages: 1 -->
<svg width="432pt" height="132pt"
 viewBox="0.00 0.00 432.00 132.00" xmlns="http://www.w3.org/2000/svg" xmlns:xlink="http://www.w3.org/1999/xlink">
<g id="graph0" class="graph" transform="scale(1 1) rotate(0) translate(4 128)">
<polygon fill="white" stroke="none" points="-4,4 -4,-128 428.12,-128 428.12,4 -4,4"/>
<g id="clust2" class="cluster">
<title>cluster_associated</title>
</g>
<!-- http_//ontology.eil.utoronto.ca/5087/2/Building/BuildingFunction -->
<g id="node1" class="node">
<title>http_//ontology.eil.utoronto.ca/5087/2/Building/BuildingFunction</title>
<g id="a_node1"><a xlink:href="../classes/Building__http://ontology.eil.utoronto.ca/5087/2/Building/BuildingFunction.md" xlink:title="&lt;TABLE&gt;">
<polygon fill="lightgray" stroke="none" points="1,-25.88 1,-42.12 335.25,-42.12 335.25,-25.88 1,-25.88"/>
<text xml:space="preserve" text-anchor="start" x="2" y="-29.73" font-family="Arial" font-size="12.00">http://ontology.eil.utoronto.ca/5087/2/Building/BuildingFunction</text>
<polygon fill="none" stroke="black" points="0,-24.88 0,-43.12 336.25,-43.12 336.25,-24.88 0,-24.88"/>
</a>
</g>
</g>
<!-- BuildingOntologyThing -->
<g id="node2" class="node">
<title>BuildingOntologyThing</title>
<g id="a_node2"><a xlink:href="../_counters/Building__BuildingOntologyThing.md" xlink:title="&lt;TABLE&gt;">
<polygon fill="lightgray" stroke="none" points="105.62,-97.88 105.62,-114.12 230.62,-114.12 230.62,-97.88 105.62,-97.88"/>
<text xml:space="preserve" text-anchor="start" x="106.62" y="-101.72" font-family="Arial" font-size="12.00">BuildingOntologyThing</text>
<polygon fill="none" stroke="black" points="104.62,-96.88 104.62,-115.12 231.62,-115.12 231.62,-96.88 104.62,-96.88"/>
</a>
</g>
</g>
<!-- http_//ontology.eil.utoronto.ca/5087/2/Building/BuildingFunction&#45;&gt;BuildingOntologyThing -->
<g id="edge1" class="edge">
<title>http_//ontology.eil.utoronto.ca/5087/2/Building/BuildingFunction&#45;&gt;BuildingOntologyThing</title>
<path fill="none" stroke="black" d="M168.12,-51.79C168.12,-59.25 168.12,-68.24 168.12,-76.69"/>
<polygon fill="none" stroke="black" points="164.63,-76.54 168.13,-86.54 171.63,-76.54 164.63,-76.54"/>
</g>
<!-- Invis -->
</g>
</svg>
