<?xml version="1.0" encoding="UTF-8" standalone="no"?>
<!DOCTYPE svg PUBLIC "-//W3C//DTD SVG 1.1//EN"
 "http://www.w3.org/Graphics/SVG/1.1/DTD/svg11.dtd">
<!-- Generated by graphviz version 14.0.2 (20251019.1705)
 -->
<!-- Pages: 1 -->
<svg width="424pt" height="132pt"
 viewBox="0.00 0.00 424.00 132.00" xmlns="http://www.w3.org/2000/svg" xmlns:xlink="http://www.w3.org/1999/xlink">
<g id="graph0" class="graph" transform="scale(1 1) rotate(0) translate(4 128)">
<polygon fill="white" stroke="none" points="-4,4 -4,-128 420,-128 420,4 -4,4"/>
<g id="clust2" class="cluster">
<title>cluster_associated</title>
</g>
<!-- http_//ontology.eil.utoronto.ca/5087/2/Building/BuildingFacility -->
<g id="node1" class="node">
<title>http_//ontology.eil.utoronto.ca/5087/2/Building/BuildingFacility</title>
<g id="a_node1"><a xlink:href="../classes/Building__http://ontology.eil.utoronto.ca/5087/2/Building/BuildingFacility.md" xlink:title="&lt;TABLE&gt;">
<polygon fill="lightgray" stroke="none" points="1,-25.88 1,-42.12 327,-42.12 327,-25.88 1,-25.88"/>
<text xml:space="preserve" text-anchor="start" x="2" y="-29.73" font-family="Arial" font-size="12.00">http://ontology.eil.utoronto.ca/5087/2/Building/BuildingFacility</text>
<polygon fill="none" stroke="black" points="0,-24.88 0,-43.12 328,-43.12 328,-24.88 0,-24.88"/>
</a>
</g>
</g>
<!-- BuildingOntologyThing -->
<g id="node2" class="node">
<title>BuildingOntologyThing</title>
<g id="a_node2"><a xlink:href="../_counters/Building__BuildingOntologyThing.md" xlink:title="&lt;TABLE&gt;">
<polygon fill="lightgray" stroke="none" points="101.5,-97.88 101.5,-114.12 226.5,-114.12 226.5,-97.88 101.5,-97.88"/>
<text xml:space="preserve" text-anchor="start" x="102.5" y="-101.72" font-family="Arial" font-size="12.00">BuildingOntologyThing</text>
<polygon fill="none" stroke="black" points="100.5,-96.88 100.5,-115.12 227.5,-115.12 227.5,-96.88 100.5,-96.88"/>
</a>
</g>
</g>
<!-- http_//ontology.eil.utoronto.ca/5087/2/Building/BuildingFacility&#45;&gt;BuildingOntologyThing -->
<g id="edge1" class="edge">
<title>http_//ontology.eil.utoronto.ca/5087/2/Building/BuildingFacility&#45;&gt;BuildingOntologyThing</title>
<path fill="none" stroke="black" d="M164,-51.79C164,-59.25 164,-68.24 164,-76.69"/>
<polygon fill="none" stroke="black" points="160.5,-76.54 164,-86.54 167.5,-76.54 160.5,-76.54"/>
</g>
<!-- Invis -->
</g>
</svg>
