<?xml version="1.0" encoding="UTF-8" standalone="no"?>
<!DOCTYPE svg PUBLIC "-//W3C//DTD SVG 1.1//EN"
 "http://www.w3.org/Graphics/SVG/1.1/DTD/svg11.dtd">
<!-- Generated by graphviz version 14.0.2 (20251019.1705)
 -->
<!-- Pages: 1 -->
<svg width="653pt" height="649pt"
 viewBox="0.00 0.00 653.00 649.00" xmlns="http://www.w3.org/2000/svg" xmlns:xlink="http://www.w3.org/1999/xlink">
<g id="graph0" class="graph" transform="scale(1 1) rotate(0) translate(4 645)">
<polygon fill="white" stroke="none" points="-4,4 -4,-645 649,-645 649,4 -4,4"/>
<g id="clust2" class="cluster">
<title>cluster_associated</title>
</g>
<!-- http_//ontology.eil.utoronto.ca/5087/2/Building/Building -->
<g id="node1" class="node">
<title>http_//ontology.eil.utoronto.ca/5087/2/Building/Building</title>
<g id="a_node1"><a xlink:href="../classes/Building__http://ontology.eil.utoronto.ca/5087/2/Building/Building.md" xlink:title="&lt;TABLE&gt;">
<polygon fill="lightgray" stroke="none" points="129.12,-550 129.12,-566.25 416.88,-566.25 416.88,-550 129.12,-550"/>
<text xml:space="preserve" text-anchor="start" x="130.12" y="-553.85" font-family="Arial" font-size="12.00">http://ontology.eil.utoronto.ca/5087/2/Building/Building</text>
<text xml:space="preserve" text-anchor="start" x="130.12" y="-537.6" font-family="Arial" font-size="12.00">hasNumberOfFloors: xsd::integer «exactly 1»</text>
<polygon fill="none" stroke="black" points="128.12,-532.75 128.12,-567.25 417.88,-567.25 417.88,-532.75 128.12,-532.75"/>
</a>
</g>
</g>
<!-- BuildingOntologyThing -->
<g id="node2" class="node">
<title>BuildingOntologyThing</title>
<g id="a_node2"><a xlink:href="../_counters/Building__BuildingOntologyThing.md" xlink:title="&lt;TABLE&gt;">
<polygon fill="lightgray" stroke="none" points="66.5,-614.88 66.5,-631.12 191.5,-631.12 191.5,-614.88 66.5,-614.88"/>
<text xml:space="preserve" text-anchor="start" x="67.5" y="-618.73" font-family="Arial" font-size="12.00">BuildingOntologyThing</text>
<polygon fill="none" stroke="black" points="65.5,-613.88 65.5,-632.12 192.5,-632.12 192.5,-613.88 65.5,-613.88"/>
</a>
</g>
</g>
<!-- http_//ontology.eil.utoronto.ca/5087/2/Building/Building&#45;&gt;BuildingOntologyThing -->
<g id="edge1" class="edge">
<title>http_//ontology.eil.utoronto.ca/5087/2/Building/Building&#45;&gt;BuildingOntologyThing</title>
<path fill="none" stroke="black" d="M238.62,-567.95C219.08,-577.59 194.4,-589.75 173.41,-600.1"/>
<polygon fill="none" stroke="black" points="171.9,-596.94 164.48,-604.5 175,-603.22 171.9,-596.94"/>
</g>
<!-- Change__Manifestation -->
<g id="node3" class="node">
<title>Change__Manifestation</title>
<polygon fill="lightgray" stroke="none" points="212,-614.88 212,-631.12 334,-631.12 334,-614.88 212,-614.88"/>
<text xml:space="preserve" text-anchor="start" x="213" y="-618.73" font-family="Arial" font-size="12.00">Change::Manifestation</text>
<polygon fill="none" stroke="black" points="211,-613.88 211,-632.12 335,-632.12 335,-613.88 211,-613.88"/>
</g>
<!-- http_//ontology.eil.utoronto.ca/5087/2/Building/Building&#45;&gt;Change__Manifestation -->
<g id="edge2" class="edge">
<title>http_//ontology.eil.utoronto.ca/5087/2/Building/Building&#45;&gt;Change__Manifestation</title>
<path fill="none" stroke="black" d="M273,-567.71C273,-575.47 273,-584.92 273,-593.74"/>
<polygon fill="none" stroke="black" points="269.5,-593.66 273,-603.66 276.5,-593.66 269.5,-593.66"/>
</g>
<!-- infrastructureelement__InfrastructureElement -->
<g id="node4" class="node">
<title>infrastructureelement__InfrastructureElement</title>
<polygon fill="lightgray" stroke="none" points="354.5,-614.88 354.5,-631.12 587.5,-631.12 587.5,-614.88 354.5,-614.88"/>
<text xml:space="preserve" text-anchor="start" x="355.5" y="-618.73" font-family="Arial" font-size="12.00">infrastructureelement::InfrastructureElement</text>
<polygon fill="none" stroke="black" points="353.5,-613.88 353.5,-632.12 588.5,-632.12 588.5,-613.88 353.5,-613.88"/>
</g>
<!-- http_//ontology.eil.utoronto.ca/5087/2/Building/Building&#45;&gt;infrastructureelement__InfrastructureElement -->
<g id="edge3" class="edge">
<title>http_//ontology.eil.utoronto.ca/5087/2/Building/Building&#45;&gt;infrastructureelement__InfrastructureElement</title>
<path fill="none" stroke="black" d="M320.16,-567.91C348.07,-577.92 383.63,-590.67 413.22,-601.28"/>
<polygon fill="none" stroke="black" points="411.81,-604.49 422.4,-604.57 414.17,-597.9 411.81,-604.49"/>
</g>
<!-- Invis -->
<!-- http_//ontology.eil.utoronto.ca/5087/2/Building/Building&#45;&gt;Invis -->
<!-- BuildingFacility -->
<g id="node6" class="node">
<title>BuildingFacility</title>
<g id="a_node6"><a xlink:href="../_counters/Building__BuildingFacility.md" xlink:title="&lt;TABLE&gt;">
<polygon fill="lightgray" stroke="none" points="16.75,-442.88 16.75,-459.12 101.25,-459.12 101.25,-442.88 16.75,-442.88"/>
<text xml:space="preserve" text-anchor="start" x="17.75" y="-446.73" font-family="Arial" font-size="12.00">BuildingFacility</text>
<polygon fill="none" stroke="black" points="15.75,-441.88 15.75,-460.12 102.25,-460.12 102.25,-441.88 15.75,-441.88"/>
</a>
</g>
</g>
<!-- http_//ontology.eil.utoronto.ca/5087/2/Building/Building&#45;&gt;BuildingFacility -->
<g id="edge11" class="edge">
<title>http_//ontology.eil.utoronto.ca/5087/2/Building/Building&#45;&gt;BuildingFacility</title>
<path fill="none" stroke="black" d="M128.35,-532.03C94.23,-526.63 66.05,-520.38 60.5,-514 52.55,-504.86 51.3,-491.78 52.39,-479.99"/>
<polygon fill="black" stroke="black" points="55.82,-480.73 53.88,-470.31 48.9,-479.67 55.82,-480.73"/>
<text xml:space="preserve" text-anchor="middle" x="107.75" y="-503.55" font-family="Arial" font-size="11.00"> hasBuildingFacility </text>
<text xml:space="preserve" text-anchor="middle" x="107.75" y="-490.05" font-family="Arial" font-size="11.00"> «only» &#160;</text>
</g>
<!-- BuildingFunction -->
<g id="node7" class="node">
<title>BuildingFunction</title>
<g id="a_node7"><a xlink:href="../_counters/Building__BuildingFunction.md" xlink:title="&lt;TABLE&gt;">
<polygon fill="lightgray" stroke="none" points="18.62,-343.88 18.62,-360.12 111.38,-360.12 111.38,-343.88 18.62,-343.88"/>
<text xml:space="preserve" text-anchor="start" x="19.62" y="-347.73" font-family="Arial" font-size="12.00">BuildingFunction</text>
<polygon fill="none" stroke="black" points="17.62,-342.88 17.62,-361.12 112.38,-361.12 112.38,-342.88 17.62,-342.88"/>
</a>
</g>
</g>
<!-- http_//ontology.eil.utoronto.ca/5087/2/Building/Building&#45;&gt;BuildingFunction -->
<g id="edge16" class="edge">
<title>http_//ontology.eil.utoronto.ca/5087/2/Building/Building&#45;&gt;BuildingFunction</title>
<path fill="none" stroke="black" d="M245.19,-532.01C236.14,-526.37 226.09,-520 217,-514 187.84,-494.73 177.67,-493.25 152.5,-469 123.92,-441.46 97.42,-403.96 81.24,-379.14"/>
<polygon fill="black" stroke="black" points="84.32,-377.47 75.98,-370.94 78.43,-381.25 84.32,-377.47"/>
<text xml:space="preserve" text-anchor="middle" x="184.75" y="-454.05" font-family="Arial" font-size="11.00"> hasFunction </text>
<text xml:space="preserve" text-anchor="middle" x="184.75" y="-440.55" font-family="Arial" font-size="11.00"> «only» &#160;</text>
</g>
<!-- BuildingUse -->
<g id="node9" class="node">
<title>BuildingUse</title>
<g id="a_node9"><a xlink:href="../_counters/Building__BuildingUse.md" xlink:title="&lt;TABLE&gt;">
<polygon fill="lightgray" stroke="none" points="41,-171.88 41,-188.12 109,-188.12 109,-171.88 41,-171.88"/>
<text xml:space="preserve" text-anchor="start" x="42" y="-175.72" font-family="Arial" font-size="12.00">BuildingUse</text>
<polygon fill="none" stroke="black" points="40,-170.88 40,-189.12 110,-189.12 110,-170.88 40,-170.88"/>
</a>
</g>
</g>
<!-- http_//ontology.eil.utoronto.ca/5087/2/Building/Building&#45;&gt;BuildingUse -->
<g id="edge17" class="edge">
<title>http_//ontology.eil.utoronto.ca/5087/2/Building/Building&#45;&gt;BuildingUse</title>
<path fill="none" stroke="black" d="M274.6,-532.17C276.79,-501.92 278.28,-436.94 257,-388 222.96,-309.71 147.97,-240 105.64,-204.94"/>
<polygon fill="black" stroke="black" points="108.01,-202.36 98.05,-198.75 103.59,-207.79 108.01,-202.36"/>
<text xml:space="preserve" text-anchor="middle" x="268.92" y="-355.05" font-family="Arial" font-size="11.00"> hasUse </text>
<text xml:space="preserve" text-anchor="middle" x="268.92" y="-341.55" font-family="Arial" font-size="11.00"> «only» &#160;</text>
</g>
<!-- CityUnits__Area -->
<g id="node10" class="node">
<title>CityUnits__Area</title>
<polygon fill="lightgray" stroke="none" points="28.88,-98.88 28.88,-115.12 111.12,-115.12 111.12,-98.88 28.88,-98.88"/>
<text xml:space="preserve" text-anchor="start" x="29.88" y="-102.72" font-family="Arial" font-size="12.00">CityUnits::Area</text>
<polygon fill="none" stroke="black" points="27.88,-97.88 27.88,-116.12 112.12,-116.12 112.12,-97.88 27.88,-97.88"/>
</g>
<!-- http_//ontology.eil.utoronto.ca/5087/2/Building/Building&#45;&gt;CityUnits__Area -->
<g id="edge12" class="edge">
<title>http_//ontology.eil.utoronto.ca/5087/2/Building/Building&#45;&gt;CityUnits__Area</title>
<path fill="none" stroke="black" d="M346.39,-532.13C386.06,-518.19 427,-493.71 427,-452 427,-452 427,-452 427,-179 427,-117.83 222.86,-108.57 123.32,-107.7"/>
<polygon fill="black" stroke="black" points="123.54,-104.2 113.52,-107.64 123.49,-111.2 123.54,-104.2"/>
<text xml:space="preserve" text-anchor="middle" x="481.75" y="-305.55" font-family="Arial" font-size="11.00"> hasBuildingFloorArea </text>
<text xml:space="preserve" text-anchor="middle" x="481.75" y="-292.05" font-family="Arial" font-size="11.00"> «only» &#160;</text>
</g>
<!-- http_//ontology.eil.utoronto.ca/5087/2/Building/Building&#45;&gt;CityUnits__Area -->
<g id="edge13" class="edge">
<title>http_//ontology.eil.utoronto.ca/5087/2/Building/Building&#45;&gt;CityUnits__Area</title>
<path fill="none" stroke="black" d="M282.99,-532.1C285.8,-526.53 288.49,-520.17 290,-514 309.02,-436.27 324.46,-408 294,-334 292.67,-330.76 152.58,-190.53 94.64,-132.62"/>
<polygon fill="black" stroke="black" points="97.34,-130.36 87.79,-125.77 92.39,-135.31 97.34,-130.36"/>
<text xml:space="preserve" text-anchor="middle" x="340.57" y="-305.55" font-family="Arial" font-size="11.00"> hasBuildingFootprintArea </text>
<text xml:space="preserve" text-anchor="middle" x="340.57" y="-292.05" font-family="Arial" font-size="11.00"> «only» &#160;</text>
</g>
<!-- CityUnits__Length -->
<g id="node11" class="node">
<title>CityUnits__Length</title>
<polygon fill="lightgray" stroke="none" points="17.25,-25.88 17.25,-42.12 110.75,-42.12 110.75,-25.88 17.25,-25.88"/>
<text xml:space="preserve" text-anchor="start" x="18.25" y="-29.73" font-family="Arial" font-size="12.00">CityUnits::Length</text>
<polygon fill="none" stroke="black" points="16.25,-24.88 16.25,-43.12 111.75,-43.12 111.75,-24.88 16.25,-24.88"/>
</g>
<!-- http_//ontology.eil.utoronto.ca/5087/2/Building/Building&#45;&gt;CityUnits__Length -->
<g id="edge14" class="edge">
<title>http_//ontology.eil.utoronto.ca/5087/2/Building/Building&#45;&gt;CityUnits__Length</title>
<path fill="none" stroke="black" d="M380.07,-532.04C458.75,-516.44 552,-489.95 552,-452 552,-452 552,-452 552,-106 552,-63.1 252.81,-43.85 122.96,-37.52"/>
<polygon fill="black" stroke="black" points="123.35,-34.03 113.19,-37.05 123.01,-41.02 123.35,-34.03"/>
<text xml:space="preserve" text-anchor="middle" x="598.5" y="-256.05" font-family="Arial" font-size="11.00"> hasBuildingHeight </text>
<text xml:space="preserve" text-anchor="middle" x="598.5" y="-242.55" font-family="Arial" font-size="11.00"> «only» &#160;</text>
</g>
<!-- Invis&#45;&gt;BuildingFacility -->
<!-- BuildingFacility&#45;&gt;BuildingFunction -->
<!-- BuildingUnit -->
<g id="node8" class="node">
<title>BuildingUnit</title>
<g id="a_node8"><a xlink:href="../_counters/Building__BuildingUnit.md" xlink:title="&lt;TABLE&gt;">
<polygon fill="lightgray" stroke="none" points="41,-244.88 41,-261.12 109,-261.12 109,-244.88 41,-244.88"/>
<text xml:space="preserve" text-anchor="start" x="42" y="-248.72" font-family="Arial" font-size="12.00">BuildingUnit</text>
<polygon fill="none" stroke="black" points="40,-243.88 40,-262.12 110,-262.12 110,-243.88 40,-243.88"/>
</a>
</g>
</g>
<!-- BuildingFunction&#45;&gt;BuildingUnit -->
<!-- BuildingUnit&#45;&gt;http_//ontology.eil.utoronto.ca/5087/2/Building/Building -->
<g id="edge15" class="edge">
<title>BuildingUnit&#45;&gt;http_//ontology.eil.utoronto.ca/5087/2/Building/Building</title>
<path fill="none" stroke="black" d="M86.02,-270.98C96.02,-286.84 110.71,-311.4 121,-334 136.79,-368.67 121.09,-389.08 149,-415 171.91,-436.27 192.89,-413.1 217,-433 220.77,-436.11 245.53,-489.12 260.84,-522.39"/>
<polygon fill="black" stroke="black" points="261.86,-533.01 260.87,-522.46 268.22,-530.09 261.86,-533.01"/>
<text xml:space="preserve" text-anchor="middle" x="203" y="-404.55" font-family="Arial" font-size="11.00"> inverse unitInBuilding </text>
<text xml:space="preserve" text-anchor="middle" x="203" y="-391.05" font-family="Arial" font-size="11.00"> «only» &#160;</text>
</g>
<!-- BuildingUnit&#45;&gt;BuildingUse -->
<!-- BuildingUse&#45;&gt;CityUnits__Area -->
<!-- CityUnits__Area&#45;&gt;CityUnits__Length -->
</g>
</svg>
