<?xml version="1.0" encoding="UTF-8" standalone="no"?>
<!DOCTYPE svg PUBLIC "-//W3C//DTD SVG 1.1//EN"
 "http://www.w3.org/Graphics/SVG/1.1/DTD/svg11.dtd">
<!-- Generated by graphviz version 14.0.2 (20251019.1705)
 -->
<!-- Pages: 1 -->
<svg width="650pt" height="576pt"
 viewBox="0.00 0.00 650.00 576.00" xmlns="http://www.w3.org/2000/svg" xmlns:xlink="http://www.w3.org/1999/xlink">
<g id="graph0" class="graph" transform="scale(1 1) rotate(0) translate(4 572)">
<polygon fill="white" stroke="none" points="-4,4 -4,-572 645.5,-572 645.5,4 -4,4"/>
<g id="clust2" class="cluster">
<title>cluster_associated</title>
</g>
<!-- http_//ontology.eil.utoronto.ca/5087/2/Building/BuildingUnit -->
<g id="node1" class="node">
<title>http_//ontology.eil.utoronto.ca/5087/2/Building/BuildingUnit</title>
<g id="a_node1"><a xlink:href="../classes/Building__http://ontology.eil.utoronto.ca/5087/2/Building/BuildingUnit.md" xlink:title="&lt;TABLE&gt;">
<polygon fill="lightgray" stroke="none" points="171.25,-477 171.25,-493.25 480.75,-493.25 480.75,-477 171.25,-477"/>
<text xml:space="preserve" text-anchor="start" x="172.25" y="-480.85" font-family="Arial" font-size="12.00">http://ontology.eil.utoronto.ca/5087/2/Building/BuildingUnit</text>
<text xml:space="preserve" text-anchor="start" x="172.25" y="-464.6" font-family="Arial" font-size="12.00">hasNumberOfRooms: xsd::integer «only»</text>
<polygon fill="none" stroke="black" points="170.25,-459.75 170.25,-494.25 481.75,-494.25 481.75,-459.75 170.25,-459.75"/>
</a>
</g>
</g>
<!-- BuildingOntologyThing -->
<g id="node2" class="node">
<title>BuildingOntologyThing</title>
<g id="a_node2"><a xlink:href="../_counters/Building__BuildingOntologyThing.md" xlink:title="&lt;TABLE&gt;">
<polygon fill="lightgray" stroke="none" points="119.5,-541.88 119.5,-558.12 244.5,-558.12 244.5,-541.88 119.5,-541.88"/>
<text xml:space="preserve" text-anchor="start" x="120.5" y="-545.73" font-family="Arial" font-size="12.00">BuildingOntologyThing</text>
<polygon fill="none" stroke="black" points="118.5,-540.88 118.5,-559.12 245.5,-559.12 245.5,-540.88 118.5,-540.88"/>
</a>
</g>
</g>
<!-- http_//ontology.eil.utoronto.ca/5087/2/Building/BuildingUnit&#45;&gt;BuildingOntologyThing -->
<g id="edge1" class="edge">
<title>http_//ontology.eil.utoronto.ca/5087/2/Building/BuildingUnit&#45;&gt;BuildingOntologyThing</title>
<path fill="none" stroke="black" d="M291.62,-494.95C272.08,-504.59 247.4,-516.75 226.41,-527.1"/>
<polygon fill="none" stroke="black" points="224.9,-523.94 217.48,-531.5 228,-530.22 224.9,-523.94"/>
</g>
<!-- Change__Manifestation -->
<g id="node3" class="node">
<title>Change__Manifestation</title>
<polygon fill="lightgray" stroke="none" points="265,-541.88 265,-558.12 387,-558.12 387,-541.88 265,-541.88"/>
<text xml:space="preserve" text-anchor="start" x="266" y="-545.73" font-family="Arial" font-size="12.00">Change::Manifestation</text>
<polygon fill="none" stroke="black" points="264,-540.88 264,-559.12 388,-559.12 388,-540.88 264,-540.88"/>
</g>
<!-- http_//ontology.eil.utoronto.ca/5087/2/Building/BuildingUnit&#45;&gt;Change__Manifestation -->
<g id="edge2" class="edge">
<title>http_//ontology.eil.utoronto.ca/5087/2/Building/BuildingUnit&#45;&gt;Change__Manifestation</title>
<path fill="none" stroke="black" d="M326,-494.71C326,-502.47 326,-511.92 326,-520.74"/>
<polygon fill="none" stroke="black" points="322.5,-520.66 326,-530.66 329.5,-520.66 322.5,-520.66"/>
</g>
<!-- infrastructureelement__InfrastructureElement -->
<g id="node4" class="node">
<title>infrastructureelement__InfrastructureElement</title>
<polygon fill="lightgray" stroke="none" points="407.5,-541.88 407.5,-558.12 640.5,-558.12 640.5,-541.88 407.5,-541.88"/>
<text xml:space="preserve" text-anchor="start" x="408.5" y="-545.73" font-family="Arial" font-size="12.00">infrastructureelement::InfrastructureElement</text>
<polygon fill="none" stroke="black" points="406.5,-540.88 406.5,-559.12 641.5,-559.12 641.5,-540.88 406.5,-540.88"/>
</g>
<!-- http_//ontology.eil.utoronto.ca/5087/2/Building/BuildingUnit&#45;&gt;infrastructureelement__InfrastructureElement -->
<g id="edge3" class="edge">
<title>http_//ontology.eil.utoronto.ca/5087/2/Building/BuildingUnit&#45;&gt;infrastructureelement__InfrastructureElement</title>
<path fill="none" stroke="black" d="M373.16,-494.91C401.07,-504.92 436.63,-517.67 466.22,-528.28"/>
<polygon fill="none" stroke="black" points="464.81,-531.49 475.4,-531.57 467.17,-524.9 464.81,-531.49"/>
</g>
<!-- Invis -->
<!-- http_//ontology.eil.utoronto.ca/5087/2/Building/BuildingUnit&#45;&gt;Invis -->
<!-- Building -->
<g id="node6" class="node">
<title>Building</title>
<g id="a_node6"><a xlink:href="../_counters/Building__Building.md" xlink:title="&lt;TABLE&gt;">
<polygon fill="lightgray" stroke="none" points="39.88,-369.88 39.88,-386.12 86.12,-386.12 86.12,-369.88 39.88,-369.88"/>
<text xml:space="preserve" text-anchor="start" x="40.88" y="-373.73" font-family="Arial" font-size="12.00">Building</text>
<polygon fill="none" stroke="black" points="38.88,-368.88 38.88,-387.12 87.12,-387.12 87.12,-368.88 38.88,-368.88"/>
</a>
</g>
</g>
<!-- http_//ontology.eil.utoronto.ca/5087/2/Building/BuildingUnit&#45;&gt;Building -->
<g id="edge14" class="edge">
<title>http_//ontology.eil.utoronto.ca/5087/2/Building/BuildingUnit&#45;&gt;Building</title>
<path fill="none" stroke="black" d="M170.47,-459.23C116.69,-452.68 68.67,-445.65 64.5,-441 56.41,-431.98 55.14,-418.92 56.26,-407.1"/>
<polygon fill="black" stroke="black" points="59.69,-407.82 57.78,-397.4 52.78,-406.74 59.69,-407.82"/>
<text xml:space="preserve" text-anchor="middle" x="99.75" y="-430.55" font-family="Arial" font-size="11.00"> unitInBuilding </text>
<text xml:space="preserve" text-anchor="middle" x="99.75" y="-417.05" font-family="Arial" font-size="11.00"> «exactly 1» &#160;</text>
</g>
<!-- BuildingFacility -->
<g id="node7" class="node">
<title>BuildingFacility</title>
<g id="a_node7"><a xlink:href="../_counters/Building__BuildingFacility.md" xlink:title="&lt;TABLE&gt;">
<polygon fill="lightgray" stroke="none" points="55.75,-270.88 55.75,-287.12 140.25,-287.12 140.25,-270.88 55.75,-270.88"/>
<text xml:space="preserve" text-anchor="start" x="56.75" y="-274.73" font-family="Arial" font-size="12.00">BuildingFacility</text>
<polygon fill="none" stroke="black" points="54.75,-269.88 54.75,-288.12 141.25,-288.12 141.25,-269.88 54.75,-269.88"/>
</a>
</g>
</g>
<!-- http_//ontology.eil.utoronto.ca/5087/2/Building/BuildingUnit&#45;&gt;BuildingFacility -->
<g id="edge11" class="edge">
<title>http_//ontology.eil.utoronto.ca/5087/2/Building/BuildingUnit&#45;&gt;BuildingFacility</title>
<path fill="none" stroke="black" d="M260.28,-459.14C223.67,-446.85 179.54,-426.85 149.5,-396 125.37,-371.22 111.47,-333.22 104.33,-307.53"/>
<polygon fill="black" stroke="black" points="107.79,-306.94 101.89,-298.14 101.02,-308.7 107.79,-306.94"/>
<text xml:space="preserve" text-anchor="middle" x="196.75" y="-381.05" font-family="Arial" font-size="11.00"> hasBuildingFacility </text>
<text xml:space="preserve" text-anchor="middle" x="196.75" y="-367.55" font-family="Arial" font-size="11.00"> «only» &#160;</text>
</g>
<!-- CityUnits__Area -->
<g id="node8" class="node">
<title>CityUnits__Area</title>
<polygon fill="lightgray" stroke="none" points="56.88,-171.88 56.88,-188.12 139.12,-188.12 139.12,-171.88 56.88,-171.88"/>
<text xml:space="preserve" text-anchor="start" x="57.88" y="-175.72" font-family="Arial" font-size="12.00">CityUnits::Area</text>
<polygon fill="none" stroke="black" points="55.88,-170.88 55.88,-189.12 140.12,-189.12 140.12,-170.88 55.88,-170.88"/>
</g>
<!-- http_//ontology.eil.utoronto.ca/5087/2/Building/BuildingUnit&#45;&gt;CityUnits__Area -->
<g id="edge13" class="edge">
<title>http_//ontology.eil.utoronto.ca/5087/2/Building/BuildingUnit&#45;&gt;CityUnits__Area</title>
<path fill="none" stroke="black" d="M314.68,-459.22C299.17,-436.43 270.26,-394.56 244,-360 201.46,-304.02 148.71,-240.75 119.68,-206.44"/>
<polygon fill="black" stroke="black" points="122.61,-204.48 113.47,-199.12 117.27,-209.01 122.61,-204.48"/>
<text xml:space="preserve" text-anchor="middle" x="261.2" y="-331.55" font-family="Arial" font-size="11.00"> hasUnitSize </text>
<text xml:space="preserve" text-anchor="middle" x="261.2" y="-318.05" font-family="Arial" font-size="11.00"> «only» &#160;</text>
</g>
<!-- CityUnits__MonetaryValue -->
<g id="node9" class="node">
<title>CityUnits__MonetaryValue</title>
<polygon fill="lightgray" stroke="none" points="16.88,-98.88 16.88,-115.12 153.12,-115.12 153.12,-98.88 16.88,-98.88"/>
<text xml:space="preserve" text-anchor="start" x="17.88" y="-102.72" font-family="Arial" font-size="12.00">CityUnits::MonetaryValue</text>
<polygon fill="none" stroke="black" points="15.88,-97.88 15.88,-116.12 154.12,-116.12 154.12,-97.88 15.88,-97.88"/>
</g>
<!-- http_//ontology.eil.utoronto.ca/5087/2/Building/BuildingUnit&#45;&gt;CityUnits__MonetaryValue -->
<g id="edge12" class="edge">
<title>http_//ontology.eil.utoronto.ca/5087/2/Building/BuildingUnit&#45;&gt;CityUnits__MonetaryValue</title>
<path fill="none" stroke="black" d="M326,-459.18C326,-439.83 326,-407.12 326,-379 326,-379 326,-379 326,-179 326,-144.74 235.25,-125.79 165.12,-116.26"/>
<polygon fill="black" stroke="black" points="165.93,-112.84 155.56,-115.01 165.02,-119.78 165.93,-112.84"/>
<text xml:space="preserve" text-anchor="middle" x="349.25" y="-282.05" font-family="Arial" font-size="11.00"> hasRent </text>
<text xml:space="preserve" text-anchor="middle" x="349.25" y="-268.55" font-family="Arial" font-size="11.00"> «only» &#160;</text>
</g>
<!-- hasaddress__Address -->
<g id="node10" class="node">
<title>hasaddress__Address</title>
<polygon fill="lightgray" stroke="none" points="33.75,-25.88 33.75,-42.12 148.25,-42.12 148.25,-25.88 33.75,-25.88"/>
<text xml:space="preserve" text-anchor="start" x="34.75" y="-29.73" font-family="Arial" font-size="12.00">hasaddress::Address</text>
<polygon fill="none" stroke="black" points="32.75,-24.88 32.75,-43.12 149.25,-43.12 149.25,-24.88 32.75,-24.88"/>
</g>
<!-- http_//ontology.eil.utoronto.ca/5087/2/Building/BuildingUnit&#45;&gt;hasaddress__Address -->
<g id="edge10" class="edge">
<title>http_//ontology.eil.utoronto.ca/5087/2/Building/BuildingUnit&#45;&gt;hasaddress__Address</title>
<path fill="none" stroke="black" d="M350.56,-459.03C372.43,-441.7 401,-412.63 401,-379 401,-379 401,-379 401,-106 401,-56.96 251.71,-41.79 160.34,-37.1"/>
<polygon fill="black" stroke="black" points="160.61,-33.61 150.46,-36.63 160.28,-40.6 160.61,-33.61"/>
<text xml:space="preserve" text-anchor="middle" x="461.75" y="-232.55" font-family="Arial" font-size="11.00"> buildingUnitHasAddress </text>
<text xml:space="preserve" text-anchor="middle" x="461.75" y="-219.05" font-family="Arial" font-size="11.00"> «only» &#160;</text>
</g>
<!-- Invis&#45;&gt;Building -->
<!-- Building&#45;&gt;BuildingFacility -->
<!-- BuildingFacility&#45;&gt;CityUnits__Area -->
<!-- CityUnits__Area&#45;&gt;CityUnits__MonetaryValue -->
<!-- CityUnits__MonetaryValue&#45;&gt;hasaddress__Address -->
</g>
</svg>
