<?xml version="1.0" encoding="UTF-8" standalone="no"?>
<!DOCTYPE svg PUBLIC "-//W3C//DTD SVG 1.1//EN"
 "http://www.w3.org/Graphics/SVG/1.1/DTD/svg11.dtd">
<!-- Generated by graphviz version 14.0.2 (20251019.1705)
 -->
<!-- Pages: 1 -->
<svg width="645pt" height="763pt"
 viewBox="0.00 0.00 645.00 763.00" xmlns="http://www.w3.org/2000/svg" xmlns:xlink="http://www.w3.org/1999/xlink">
<g id="graph0" class="graph" transform="scale(1 1) rotate(0) translate(4 758.75)">
<polygon fill="white" stroke="none" points="-4,4 -4,-758.75 640.75,-758.75 640.75,4 -4,4"/>
<g id="clust2" class="cluster">
<title>cluster_associated</title>
</g>
<!-- BuildingUnit -->
<g id="node1" class="node">
<title>BuildingUnit</title>
<g id="a_node1"><a xlink:href="../classes/Building__BuildingUnit.md" xlink:title="&lt;TABLE&gt;">
<polygon fill="lightgray" stroke="none" points="169,-664.5 169,-680.75 453,-680.75 453,-664.5 169,-664.5"/>
<text xml:space="preserve" text-anchor="start" x="278" y="-668.35" font-family="Arial" font-size="12.00">BuildingUnit</text>
<text xml:space="preserve" text-anchor="start" x="170" y="-652.1" font-family="Arial" font-size="12.00">numberOfBedrooms: xsd::nonNegativeInteger «only»</text>
<text xml:space="preserve" text-anchor="start" x="170" y="-635.85" font-family="Arial" font-size="12.00">numberOfRooms: xsd::nonNegativeInteger «only»</text>
<polygon fill="none" stroke="black" points="168,-631 168,-681.75 454,-681.75 454,-631 168,-631"/>
</a>
</g>
</g>
<!-- BuildingOntologyThing -->
<g id="node2" class="node">
<title>BuildingOntologyThing</title>
<g id="a_node2"><a xlink:href="../_counters/Building__BuildingOntologyThing.md" xlink:title="&lt;TABLE&gt;">
<polygon fill="lightgray" stroke="none" points="106.5,-728.62 106.5,-744.88 231.5,-744.88 231.5,-728.62 106.5,-728.62"/>
<text xml:space="preserve" text-anchor="start" x="107.5" y="-732.48" font-family="Arial" font-size="12.00">BuildingOntologyThing</text>
<polygon fill="none" stroke="black" points="105.5,-727.62 105.5,-745.88 232.5,-745.88 232.5,-727.62 105.5,-727.62"/>
</a>
</g>
</g>
<!-- BuildingUnit&#45;&gt;BuildingOntologyThing -->
<g id="edge1" class="edge">
<title>BuildingUnit&#45;&gt;BuildingOntologyThing</title>
<path fill="none" stroke="black" d="M266.84,-681.75C248.47,-691.89 227.28,-703.58 209.34,-713.49"/>
<polygon fill="none" stroke="black" points="207.85,-710.31 200.79,-718.21 211.23,-716.44 207.85,-710.31"/>
</g>
<!-- change__Manifestation -->
<g id="node3" class="node">
<title>change__Manifestation</title>
<polygon fill="lightgray" stroke="none" points="251.5,-728.62 251.5,-744.88 370.5,-744.88 370.5,-728.62 251.5,-728.62"/>
<text xml:space="preserve" text-anchor="start" x="252.5" y="-732.48" font-family="Arial" font-size="12.00">change::Manifestation</text>
<polygon fill="none" stroke="black" points="250.5,-727.62 250.5,-745.88 371.5,-745.88 371.5,-727.62 250.5,-727.62"/>
</g>
<!-- BuildingUnit&#45;&gt;change__Manifestation -->
<g id="edge2" class="edge">
<title>BuildingUnit&#45;&gt;change__Manifestation</title>
<path fill="none" stroke="black" d="M311,-681.71C311,-689.97 311,-699.27 311,-707.79"/>
<polygon fill="none" stroke="black" points="307.5,-707.62 311,-717.62 314.5,-707.62 307.5,-707.62"/>
</g>
<!-- infrastructure__InfrastructureElement -->
<g id="node4" class="node">
<title>infrastructure__InfrastructureElement</title>
<polygon fill="lightgray" stroke="none" points="390.88,-728.62 390.88,-744.88 581.12,-744.88 581.12,-728.62 390.88,-728.62"/>
<text xml:space="preserve" text-anchor="start" x="391.88" y="-732.48" font-family="Arial" font-size="12.00">infrastructure::InfrastructureElement</text>
<polygon fill="none" stroke="black" points="389.88,-727.62 389.88,-745.88 582.12,-745.88 582.12,-727.62 389.88,-727.62"/>
</g>
<!-- BuildingUnit&#45;&gt;infrastructure__InfrastructureElement -->
<g id="edge3" class="edge">
<title>BuildingUnit&#45;&gt;infrastructure__InfrastructureElement</title>
<path fill="none" stroke="black" d="M365.42,-681.75C388.69,-692.17 415.63,-704.23 438.13,-714.31"/>
<polygon fill="none" stroke="black" points="436.52,-717.42 447.08,-718.32 439.38,-711.04 436.52,-717.42"/>
</g>
<!-- Invis -->
<!-- BuildingUnit&#45;&gt;Invis -->
<!-- Building -->
<g id="node6" class="node">
<title>Building</title>
<g id="a_node6"><a xlink:href="../_counters/Building__Building.md" xlink:title="&lt;TABLE&gt;">
<polygon fill="lightgray" stroke="none" points="19.88,-541.88 19.88,-558.12 66.12,-558.12 66.12,-541.88 19.88,-541.88"/>
<text xml:space="preserve" text-anchor="start" x="20.88" y="-545.73" font-family="Arial" font-size="12.00">Building</text>
<polygon fill="none" stroke="black" points="18.88,-540.88 18.88,-559.12 67.12,-559.12 67.12,-540.88 18.88,-540.88"/>
</a>
</g>
</g>
<!-- BuildingUnit&#45;&gt;Building -->
<g id="edge18" class="edge">
<title>BuildingUnit&#45;&gt;Building</title>
<path fill="none" stroke="black" d="M168.24,-631.67C166.82,-631.45 165.41,-631.22 164,-631 137.47,-626.8 62.26,-633.14 44.5,-613 36.49,-603.92 35.23,-590.84 36.33,-579.04"/>
<polygon fill="black" stroke="black" points="39.76,-579.77 37.83,-569.35 32.84,-578.7 39.76,-579.77"/>
<text xml:space="preserve" text-anchor="middle" x="79.75" y="-602.55" font-family="Arial" font-size="11.00"> unitInBuilding </text>
<text xml:space="preserve" text-anchor="middle" x="79.75" y="-589.05" font-family="Arial" font-size="11.00"> «exactly 1» &#160;</text>
</g>
<!-- cityUnits__Area -->
<g id="node7" class="node">
<title>cityUnits__Area</title>
<polygon fill="lightgray" stroke="none" points="30.38,-442.88 30.38,-459.12 109.62,-459.12 109.62,-442.88 30.38,-442.88"/>
<text xml:space="preserve" text-anchor="start" x="31.38" y="-446.73" font-family="Arial" font-size="12.00">cityUnits::Area</text>
<polygon fill="none" stroke="black" points="29.38,-441.88 29.38,-460.12 110.62,-460.12 110.62,-441.88 29.38,-441.88"/>
</g>
<!-- BuildingUnit&#45;&gt;cityUnits__Area -->
<g id="edge15" class="edge">
<title>BuildingUnit&#45;&gt;cityUnits__Area</title>
<path fill="none" stroke="black" d="M202.72,-631.14C189.23,-626.13 175.98,-620.14 164,-613 114.48,-583.5 88.37,-517.14 77.06,-479.47"/>
<polygon fill="black" stroke="black" points="80.54,-478.89 74.43,-470.23 73.8,-480.81 80.54,-478.89"/>
<text xml:space="preserve" text-anchor="middle" x="139.01" y="-553.05" font-family="Arial" font-size="11.00"> unitSize </text>
<text xml:space="preserve" text-anchor="middle" x="139.01" y="-539.55" font-family="Arial" font-size="11.00"> «only» &#160;</text>
</g>
<!-- cityUnits__Length -->
<g id="node8" class="node">
<title>cityUnits__Length</title>
<polygon fill="lightgray" stroke="none" points="38.75,-343.88 38.75,-360.12 129.25,-360.12 129.25,-343.88 38.75,-343.88"/>
<text xml:space="preserve" text-anchor="start" x="39.75" y="-347.73" font-family="Arial" font-size="12.00">cityUnits::Length</text>
<polygon fill="none" stroke="black" points="37.75,-342.88 37.75,-361.12 130.25,-361.12 130.25,-342.88 37.75,-342.88"/>
</g>
<!-- BuildingUnit&#45;&gt;cityUnits__Length -->
<g id="edge13" class="edge">
<title>BuildingUnit&#45;&gt;cityUnits__Length</title>
<path fill="none" stroke="black" d="M268.56,-631.13C259.84,-625.55 250.91,-619.37 243,-613 203.82,-581.47 201.7,-565.28 164,-532 154.07,-523.23 147.55,-525.05 140.25,-514 119.8,-483.03 132.16,-468.06 120,-433 113.73,-414.94 104.96,-395.35 97.64,-380.08"/>
<polygon fill="black" stroke="black" points="100.82,-378.62 93.29,-371.17 94.53,-381.69 100.82,-378.62"/>
<text xml:space="preserve" text-anchor="middle" x="191.62" y="-503.55" font-family="Arial" font-size="11.00"> floorToCeilingHeight </text>
<text xml:space="preserve" text-anchor="middle" x="191.62" y="-490.05" font-family="Arial" font-size="11.00"> «only» &#160;</text>
</g>
<!-- cityUnits__MonetaryValue -->
<g id="node9" class="node">
<title>cityUnits__MonetaryValue</title>
<polygon fill="lightgray" stroke="none" points="17.38,-244.88 17.38,-261.12 150.62,-261.12 150.62,-244.88 17.38,-244.88"/>
<text xml:space="preserve" text-anchor="start" x="18.38" y="-248.72" font-family="Arial" font-size="12.00">cityUnits::MonetaryValue</text>
<polygon fill="none" stroke="black" points="16.38,-243.88 16.38,-262.12 151.62,-262.12 151.62,-243.88 16.38,-243.88"/>
</g>
<!-- BuildingUnit&#45;&gt;cityUnits__MonetaryValue -->
<g id="edge14" class="edge">
<title>BuildingUnit&#45;&gt;cityUnits__MonetaryValue</title>
<path fill="none" stroke="black" d="M291.82,-631.12C287.87,-625.39 284.01,-619.16 281,-613 255.32,-560.45 280.02,-532.28 243,-487 232.3,-473.91 221.38,-481.02 209.5,-469 161.92,-420.86 173.9,-392 139,-334 127.77,-315.34 113.87,-295.14 102.85,-279.71"/>
<polygon fill="black" stroke="black" points="105.98,-278.07 97.3,-272 100.3,-282.16 105.98,-278.07"/>
<text xml:space="preserve" text-anchor="middle" x="232.75" y="-454.05" font-family="Arial" font-size="11.00"> hasRent </text>
<text xml:space="preserve" text-anchor="middle" x="232.75" y="-440.55" font-family="Arial" font-size="11.00"> «only» &#160;</text>
</g>
<!-- BuildingUnit&#45;&gt;cityUnits__MonetaryValue -->
<g id="edge17" class="edge">
<title>BuildingUnit&#45;&gt;cityUnits__MonetaryValue</title>
<path fill="none" stroke="black" d="M308.72,-631.04C303.96,-588.69 290.4,-499.61 256,-433 217.25,-357.96 194.09,-346.26 132,-289 127.75,-285.08 123.06,-281.2 118.32,-277.53"/>
<polygon fill="black" stroke="black" points="120.59,-274.85 110.48,-271.67 116.4,-280.46 120.59,-274.85"/>
<text xml:space="preserve" text-anchor="middle" x="323.36" y="-454.05" font-family="Arial" font-size="11.00"> partwhole::hasValue </text>
<text xml:space="preserve" text-anchor="middle" x="323.36" y="-440.55" font-family="Arial" font-size="11.00"> «only» &#160;</text>
</g>
<!-- contact__Address -->
<g id="node10" class="node">
<title>contact__Address</title>
<polygon fill="lightgray" stroke="none" points="58.75,-171.88 58.75,-188.12 149.25,-188.12 149.25,-171.88 58.75,-171.88"/>
<text xml:space="preserve" text-anchor="start" x="59.75" y="-175.72" font-family="Arial" font-size="12.00">contact::Address</text>
<polygon fill="none" stroke="black" points="57.75,-170.88 57.75,-189.12 150.25,-189.12 150.25,-170.88 57.75,-170.88"/>
</g>
<!-- BuildingUnit&#45;&gt;contact__Address -->
<g id="edge16" class="edge">
<title>BuildingUnit&#45;&gt;contact__Address</title>
<path fill="none" stroke="black" d="M330.96,-631.21C364.13,-587.96 422.8,-495.97 379,-433 365.87,-414.12 349.66,-427.7 330.5,-415 238.91,-354.28 238.58,-312.82 161,-235 151.17,-225.14 140.12,-214.56 130.38,-205.4"/>
<polygon fill="black" stroke="black" points="133.02,-203.08 123.33,-198.8 128.24,-208.19 133.02,-203.08"/>
<text xml:space="preserve" text-anchor="middle" x="382.25" y="-404.55" font-family="Arial" font-size="11.00"> contact::hasAddress </text>
<text xml:space="preserve" text-anchor="middle" x="382.25" y="-391.05" font-family="Arial" font-size="11.00"> «only» &#160;</text>
</g>
<!-- Facility -->
<g id="node11" class="node">
<title>Facility</title>
<g id="a_node11"><a xlink:href="../_counters/Building__Facility.md" xlink:title="&lt;TABLE&gt;">
<polygon fill="lightgray" stroke="none" points="83.88,-98.88 83.88,-115.12 124.12,-115.12 124.12,-98.88 83.88,-98.88"/>
<text xml:space="preserve" text-anchor="start" x="84.88" y="-102.72" font-family="Arial" font-size="12.00">Facility</text>
<polygon fill="none" stroke="black" points="82.88,-97.88 82.88,-116.12 125.12,-116.12 125.12,-97.88 82.88,-97.88"/>
</a>
</g>
</g>
<!-- BuildingUnit&#45;&gt;Facility -->
<g id="edge12" class="edge">
<title>BuildingUnit&#45;&gt;Facility</title>
<path fill="none" stroke="black" d="M381.11,-631.11C414.81,-614.55 448,-588.68 448,-551 448,-551 448,-551 448,-179 448,-117.14 231.93,-108.74 142.27,-107.91"/>
<polygon fill="black" stroke="black" points="142.53,-104.41 132.51,-107.85 142.48,-111.41 142.53,-104.41"/>
<text xml:space="preserve" text-anchor="middle" x="485.88" y="-355.05" font-family="Arial" font-size="11.00"> buildingFacility </text>
<text xml:space="preserve" text-anchor="middle" x="485.88" y="-341.55" font-family="Arial" font-size="11.00"> «only» &#160;</text>
</g>
<!-- time__TemporalEntity -->
<g id="node12" class="node">
<title>time__TemporalEntity</title>
<polygon fill="lightgray" stroke="none" points="41,-25.88 41,-42.12 151,-42.12 151,-25.88 41,-25.88"/>
<text xml:space="preserve" text-anchor="start" x="42" y="-29.73" font-family="Arial" font-size="12.00">time::TemporalEntity</text>
<polygon fill="none" stroke="black" points="40,-24.88 40,-43.12 152,-43.12 152,-24.88 40,-24.88"/>
</g>
<!-- BuildingUnit&#45;&gt;time__TemporalEntity -->
<g id="edge19" class="edge">
<title>BuildingUnit&#45;&gt;time__TemporalEntity</title>
<path fill="none" stroke="black" d="M453.98,-641.93C505.87,-628.43 552,-602.07 552,-551 552,-551 552,-551 552,-106 552,-67.15 290.28,-46.42 163.39,-38.65"/>
<polygon fill="black" stroke="black" points="163.62,-35.15 153.43,-38.05 163.2,-42.14 163.62,-35.15"/>
<text xml:space="preserve" text-anchor="middle" x="594.38" y="-305.55" font-family="Arial" font-size="11.00"> change::existsAt </text>
<text xml:space="preserve" text-anchor="middle" x="594.38" y="-292.05" font-family="Arial" font-size="11.00"> «exactly 1» &#160;</text>
</g>
<!-- Invis&#45;&gt;Building -->
<!-- Building&#45;&gt;cityUnits__Area -->
<!-- cityUnits__Area&#45;&gt;cityUnits__Length -->
<!-- cityUnits__Length&#45;&gt;cityUnits__MonetaryValue -->
<!-- cityUnits__MonetaryValue&#45;&gt;contact__Address -->
<!-- contact__Address&#45;&gt;Facility -->
<!-- Facility&#45;&gt;time__TemporalEntity -->
</g>
</svg>
