<?xml version="1.0" encoding="UTF-8" standalone="no"?>
<!DOCTYPE svg PUBLIC "-//W3C//DTD SVG 1.1//EN"
 "http://www.w3.org/Graphics/SVG/1.1/DTD/svg11.dtd">
<!-- Generated by graphviz version 14.0.2 (20251019.1705)
 -->
<!-- Pages: 1 -->
<svg width="207pt" height="132pt"
 viewBox="0.00 0.00 207.00 132.00" xmlns="http://www.w3.org/2000/svg" xmlns:xlink="http://www.w3.org/1999/xlink">
<g id="graph0" class="graph" transform="scale(1 1) rotate(0) translate(4 128)">
<polygon fill="white" stroke="none" points="-4,4 -4,-128 202.5,-128 202.5,4 -4,4"/>
<g id="clust2" class="cluster">
<title>cluster_associated</title>
</g>
<!-- BuildingFunction -->
<g id="node1" class="node">
<title>BuildingFunction</title>
<g id="a_node1"><a xlink:href="../classes/Building__BuildingFunction.md" xlink:title="&lt;TABLE&gt;">
<polygon fill="lightgray" stroke="none" points="17.12,-25.88 17.12,-42.12 109.88,-42.12 109.88,-25.88 17.12,-25.88"/>
<text xml:space="preserve" text-anchor="start" x="18.12" y="-29.73" font-family="Arial" font-size="12.00">BuildingFunction</text>
<polygon fill="none" stroke="black" points="16.12,-24.88 16.12,-43.12 110.88,-43.12 110.88,-24.88 16.12,-24.88"/>
</a>
</g>
</g>
<!-- BuildingOntologyThing -->
<g id="node2" class="node">
<title>BuildingOntologyThing</title>
<g id="a_node2"><a xlink:href="../_counters/Building__BuildingOntologyThing.md" xlink:title="&lt;TABLE&gt;">
<polygon fill="lightgray" stroke="none" points="1,-97.88 1,-114.12 126,-114.12 126,-97.88 1,-97.88"/>
<text xml:space="preserve" text-anchor="start" x="2" y="-101.72" font-family="Arial" font-size="12.00">BuildingOntologyThing</text>
<polygon fill="none" stroke="black" points="0,-96.88 0,-115.12 127,-115.12 127,-96.88 0,-96.88"/>
</a>
</g>
</g>
<!-- BuildingFunction&#45;&gt;BuildingOntologyThing -->
<g id="edge1" class="edge">
<title>BuildingFunction&#45;&gt;BuildingOntologyThing</title>
<path fill="none" stroke="black" d="M63.5,-51.79C63.5,-59.25 63.5,-68.24 63.5,-76.69"/>
<polygon fill="none" stroke="black" points="60,-76.54 63.5,-86.54 67,-76.54 60,-76.54"/>
</g>
<!-- Invis -->
</g>
</svg>
