<?xml version="1.0" encoding="UTF-8" standalone="no"?>
<!DOCTYPE svg PUBLIC "-//W3C//DTD SVG 1.1//EN"
 "http://www.w3.org/Graphics/SVG/1.1/DTD/svg11.dtd">
<!-- Generated by graphviz version 14.0.2 (20251019.1705)
 -->
<!-- Pages: 1 -->
<svg width="188pt" height="159pt"
 viewBox="0.00 0.00 188.00 159.00" xmlns="http://www.w3.org/2000/svg" xmlns:xlink="http://www.w3.org/1999/xlink">
<g id="graph0" class="graph" transform="scale(1 1) rotate(0) translate(4 155)">
<polygon fill="white" stroke="none" points="-4,4 -4,-155 183.88,-155 183.88,4 -4,4"/>
<g id="clust2" class="cluster">
<title>cluster_associated</title>
</g>
<!-- AmendingBylaw -->
<g id="node1" class="node">
<title>AmendingBylaw</title>
<g id="a_node1"><a xlink:href="../classes/Bylaw__AmendingBylaw.md" xlink:title="&lt;TABLE&gt;">
<polygon fill="lightgray" stroke="none" points="1,-25.88 1,-42.12 90.75,-42.12 90.75,-25.88 1,-25.88"/>
<text xml:space="preserve" text-anchor="start" x="2" y="-29.73" font-family="Arial" font-size="12.00">AmendingBylaw</text>
<polygon fill="none" stroke="black" points="0,-24.88 0,-43.12 91.75,-43.12 91.75,-24.88 0,-24.88"/>
</a>
</g>
</g>
<!-- Bylaw -->
<g id="node2" class="node">
<title>Bylaw</title>
<g id="a_node2"><a xlink:href="../_counters/Bylaw__Bylaw.md" xlink:title="&lt;TABLE&gt;">
<polygon fill="lightgray" stroke="none" points="28.38,-124.88 28.38,-141.12 63.38,-141.12 63.38,-124.88 28.38,-124.88"/>
<text xml:space="preserve" text-anchor="start" x="29.38" y="-128.72" font-family="Arial" font-size="12.00">Bylaw</text>
<polygon fill="none" stroke="black" points="27.38,-123.88 27.38,-142.12 64.38,-142.12 64.38,-123.88 27.38,-123.88"/>
</a>
</g>
</g>
<!-- AmendingBylaw&#45;&gt;Bylaw -->
<g id="edge1" class="edge">
<title>AmendingBylaw&#45;&gt;Bylaw</title>
<path fill="none" stroke="black" d="M44.72,-51.73C44.38,-57.51 44.05,-64.04 43.88,-70 43.53,-82 43.53,-85 43.88,-97 43.94,-99.24 44.03,-101.55 44.13,-103.88"/>
<polygon fill="none" stroke="black" points="40.63,-103.96 44.65,-113.76 47.62,-103.59 40.63,-103.96"/>
</g>
<!-- AmendingBylaw&#45;&gt;Bylaw -->
<g id="edge2" class="edge">
<title>AmendingBylaw&#45;&gt;Bylaw</title>
<path fill="none" stroke="black" d="M45.88,-51.7C45.88,-65.97 45.88,-86.8 45.88,-103.67"/>
<polygon fill="black" stroke="black" points="42.38,-103.59 45.88,-113.59 49.38,-103.59 42.38,-103.59"/>
<text xml:space="preserve" text-anchor="middle" x="94.25" y="-86.55" font-family="Arial" font-size="11.00"> legislationChanges </text>
<text xml:space="preserve" text-anchor="middle" x="94.25" y="-73.05" font-family="Arial" font-size="11.00"> «exactly 1» &#160;</text>
</g>
<!-- Invis -->
</g>
</svg>
