<?xml version="1.0" encoding="UTF-8" standalone="no"?>
<!DOCTYPE svg PUBLIC "-//W3C//DTD SVG 1.1//EN"
 "http://www.w3.org/Graphics/SVG/1.1/DTD/svg11.dtd">
<!-- Generated by graphviz version 14.0.2 (20251019.1705)
 -->
<!-- Pages: 1 -->
<svg width="358pt" height="247pt"
 viewBox="0.00 0.00 358.00 247.00" xmlns="http://www.w3.org/2000/svg" xmlns:xlink="http://www.w3.org/1999/xlink">
<g id="graph0" class="graph" transform="scale(1 1) rotate(0) translate(4 242.75)">
<polygon fill="white" stroke="none" points="-4,4 -4,-242.75 354.38,-242.75 354.38,4 -4,4"/>
<g id="clust2" class="cluster">
<title>cluster_associated</title>
</g>
<!-- Definition -->
<g id="node1" class="node">
<title>Definition</title>
<g id="a_node1"><a xlink:href="../classes/Bylaw__Definition.md" xlink:title="&lt;TABLE&gt;">
<polygon fill="lightgray" stroke="none" points="106.62,-148.5 106.62,-164.75 349.38,-164.75 349.38,-148.5 106.62,-148.5"/>
<text xml:space="preserve" text-anchor="start" x="202.5" y="-152.35" font-family="Arial" font-size="12.00">Definition</text>
<text xml:space="preserve" text-anchor="start" x="107.62" y="-136.1" font-family="Arial" font-size="12.00">genProp::hasDescription: xsd::string «max 1»</text>
<text xml:space="preserve" text-anchor="start" x="107.62" y="-119.85" font-family="Arial" font-size="12.00">genProp::hasName: xsd::string «max 1»</text>
<polygon fill="none" stroke="black" points="105.62,-115 105.62,-165.75 350.38,-165.75 350.38,-115 105.62,-115"/>
</a>
</g>
</g>
<!-- BylawOntologyThing -->
<g id="node2" class="node">
<title>BylawOntologyThing</title>
<g id="a_node2"><a xlink:href="../_counters/Bylaw__BylawOntologyThing.md" xlink:title="&lt;TABLE&gt;">
<polygon fill="lightgray" stroke="none" points="171.12,-212.62 171.12,-228.88 284.88,-228.88 284.88,-212.62 171.12,-212.62"/>
<text xml:space="preserve" text-anchor="start" x="172.12" y="-216.47" font-family="Arial" font-size="12.00">BylawOntologyThing</text>
<polygon fill="none" stroke="black" points="170.12,-211.62 170.12,-229.88 285.88,-229.88 285.88,-211.62 170.12,-211.62"/>
</a>
</g>
</g>
<!-- Definition&#45;&gt;BylawOntologyThing -->
<g id="edge1" class="edge">
<title>Definition&#45;&gt;BylawOntologyThing</title>
<path fill="none" stroke="black" d="M228,-165.71C228,-173.97 228,-183.27 228,-191.79"/>
<polygon fill="none" stroke="black" points="224.5,-191.62 228,-201.62 231.5,-191.62 224.5,-191.62"/>
</g>
<!-- Invis -->
<!-- Definition&#45;&gt;Invis -->
<!-- Law -->
<g id="node4" class="node">
<title>Law</title>
<g id="a_node4"><a xlink:href="../_counters/Bylaw__Law.md" xlink:title="&lt;TABLE&gt;">
<polygon fill="lightgray" stroke="none" points="30.75,-25.88 30.75,-42.12 55.25,-42.12 55.25,-25.88 30.75,-25.88"/>
<text xml:space="preserve" text-anchor="start" x="31.75" y="-29.73" font-family="Arial" font-size="12.00">Law</text>
<polygon fill="none" stroke="black" points="29.75,-24.88 29.75,-43.12 56.25,-43.12 56.25,-24.88 29.75,-24.88"/>
</a>
</g>
</g>
<!-- Definition&#45;&gt;Law -->
<g id="edge4" class="edge">
<title>Definition&#45;&gt;Law</title>
<path fill="none" stroke="black" d="M185.09,-115.17C153.16,-97.15 110.03,-72.82 79.69,-55.7"/>
<polygon fill="black" stroke="black" points="81.67,-52.8 71.24,-50.93 78.23,-58.9 81.67,-52.8"/>
<text xml:space="preserve" text-anchor="middle" x="213.2" y="-86.55" font-family="Arial" font-size="11.00"> partwhole::properPartOf </text>
<text xml:space="preserve" text-anchor="middle" x="213.2" y="-73.05" font-family="Arial" font-size="11.00"> «exactly 1» &#160;</text>
</g>
<!-- Invis&#45;&gt;Law -->
</g>
</svg>
