<?xml version="1.0" encoding="UTF-8" standalone="no"?>
<!DOCTYPE svg PUBLIC "-//W3C//DTD SVG 1.1//EN"
 "http://www.w3.org/Graphics/SVG/1.1/DTD/svg11.dtd">
<!-- Generated by graphviz version 14.0.2 (20251019.1705)
 -->
<!-- Pages: 1 -->
<svg width="467pt" height="477pt"
 viewBox="0.00 0.00 467.00 477.00" xmlns="http://www.w3.org/2000/svg" xmlns:xlink="http://www.w3.org/1999/xlink">
<g id="graph0" class="graph" transform="scale(1 1) rotate(0) translate(4 473)">
<polygon fill="white" stroke="none" points="-4,4 -4,-473 462.75,-473 462.75,4 -4,4"/>
<g id="clust2" class="cluster">
<title>cluster_associated</title>
</g>
<!-- Residence -->
<g id="node1" class="node">
<title>Residence</title>
<g id="a_node1"><a xlink:href="../classes/CityResident__Residence.md" xlink:title="&lt;TABLE&gt;">
<polygon fill="lightgray" stroke="none" points="165.5,-378 165.5,-394.25 350.5,-394.25 350.5,-378 165.5,-378"/>
<text xml:space="preserve" text-anchor="start" x="229.12" y="-381.85" font-family="Arial" font-size="12.00">Residence</text>
<text xml:space="preserve" text-anchor="start" x="166.5" y="-365.6" font-family="Arial" font-size="12.00">time::hasTime: xsd::string «max 1»</text>
<polygon fill="none" stroke="black" points="164.5,-360.75 164.5,-395.25 351.5,-395.25 351.5,-360.75 164.5,-360.75"/>
</a>
</g>
</g>
<!-- CityResidentOntologyThing -->
<g id="node2" class="node">
<title>CityResidentOntologyThing</title>
<g id="a_node2"><a xlink:href="../_counters/CityResident__CityResidentOntologyThing.md" xlink:title="&lt;TABLE&gt;">
<polygon fill="lightgray" stroke="none" points="183.12,-442.88 183.12,-459.12 332.88,-459.12 332.88,-442.88 183.12,-442.88"/>
<text xml:space="preserve" text-anchor="start" x="184.12" y="-446.73" font-family="Arial" font-size="12.00">CityResidentOntologyThing</text>
<polygon fill="none" stroke="black" points="182.12,-441.88 182.12,-460.12 333.88,-460.12 333.88,-441.88 182.12,-441.88"/>
</a>
</g>
</g>
<!-- Residence&#45;&gt;CityResidentOntologyThing -->
<g id="edge1" class="edge">
<title>Residence&#45;&gt;CityResidentOntologyThing</title>
<path fill="none" stroke="black" d="M258,-395.71C258,-403.47 258,-412.92 258,-421.74"/>
<polygon fill="none" stroke="black" points="254.5,-421.66 258,-431.66 261.5,-421.66 254.5,-421.66"/>
</g>
<!-- Invis -->
<!-- Residence&#45;&gt;Invis -->
<!-- contact__Address -->
<g id="node4" class="node">
<title>contact__Address</title>
<polygon fill="lightgray" stroke="none" points="21.75,-270.88 21.75,-287.12 112.25,-287.12 112.25,-270.88 21.75,-270.88"/>
<text xml:space="preserve" text-anchor="start" x="22.75" y="-274.73" font-family="Arial" font-size="12.00">contact::Address</text>
<polygon fill="none" stroke="black" points="20.75,-269.88 20.75,-288.12 113.25,-288.12 113.25,-269.88 20.75,-269.88"/>
</g>
<!-- Residence&#45;&gt;contact__Address -->
<g id="edge10" class="edge">
<title>Residence&#45;&gt;contact__Address</title>
<path fill="none" stroke="black" d="M164.73,-360.41C117.3,-351.87 69.37,-343.02 68.5,-342 60.64,-332.78 59.4,-319.69 60.48,-307.92"/>
<polygon fill="black" stroke="black" points="63.9,-308.67 61.94,-298.26 56.98,-307.62 63.9,-308.67"/>
<text xml:space="preserve" text-anchor="middle" x="120.25" y="-331.55" font-family="Arial" font-size="11.00"> contact::hasAddress </text>
<text xml:space="preserve" text-anchor="middle" x="120.25" y="-318.05" font-family="Arial" font-size="11.00"> «max 1» &#160;</text>
</g>
<!-- HomeType -->
<g id="node5" class="node">
<title>HomeType</title>
<g id="a_node5"><a xlink:href="../_counters/CityResident__HomeType.md" xlink:title="&lt;TABLE&gt;">
<polygon fill="lightgray" stroke="none" points="67.75,-171.88 67.75,-188.12 128.25,-188.12 128.25,-171.88 67.75,-171.88"/>
<text xml:space="preserve" text-anchor="start" x="68.75" y="-175.72" font-family="Arial" font-size="12.00">HomeType</text>
<polygon fill="none" stroke="black" points="66.75,-170.88 66.75,-189.12 129.25,-189.12 129.25,-170.88 66.75,-170.88"/>
</a>
</g>
</g>
<!-- Residence&#45;&gt;HomeType -->
<g id="edge9" class="edge">
<title>Residence&#45;&gt;HomeType</title>
<path fill="none" stroke="black" d="M235.64,-360.2C216.37,-345.02 188.53,-321.4 168.25,-297 144.91,-268.93 124.07,-232.31 111.27,-207.79"/>
<polygon fill="black" stroke="black" points="114.5,-206.42 106.82,-199.12 108.27,-209.61 114.5,-206.42"/>
<text xml:space="preserve" text-anchor="middle" x="206.12" y="-282.05" font-family="Arial" font-size="11.00"> hasHomeType </text>
<text xml:space="preserve" text-anchor="middle" x="206.12" y="-268.55" font-family="Arial" font-size="11.00"> «max 1» &#160;</text>
</g>
<!-- iso21972__City -->
<g id="node6" class="node">
<title>iso21972__City</title>
<polygon fill="lightgray" stroke="none" points="58.75,-98.88 58.75,-115.12 137.25,-115.12 137.25,-98.88 58.75,-98.88"/>
<text xml:space="preserve" text-anchor="start" x="59.75" y="-102.72" font-family="Arial" font-size="12.00">iso21972::City</text>
<polygon fill="none" stroke="black" points="57.75,-97.88 57.75,-116.12 138.25,-116.12 138.25,-97.88 57.75,-97.88"/>
</g>
<!-- Residence&#45;&gt;iso21972__City -->
<g id="edge8" class="edge">
<title>Residence&#45;&gt;iso21972__City</title>
<path fill="none" stroke="black" d="M259.19,-360.35C260.16,-336.98 259.41,-293.65 244,-261 218.17,-206.29 165.11,-158.62 130.57,-131.6"/>
<polygon fill="black" stroke="black" points="133.05,-129.09 122.98,-125.78 128.79,-134.64 133.05,-129.09"/>
<text xml:space="preserve" text-anchor="middle" x="259.34" y="-232.55" font-family="Arial" font-size="11.00"> forCity </text>
<text xml:space="preserve" text-anchor="middle" x="259.34" y="-219.05" font-family="Arial" font-size="11.00"> «max 1» &#160;</text>
</g>
<!-- ResidentialRelationship -->
<g id="node7" class="node">
<title>ResidentialRelationship</title>
<g id="a_node7"><a xlink:href="../_counters/CityResident__ResidentialRelationship.md" xlink:title="&lt;TABLE&gt;">
<polygon fill="lightgray" stroke="none" points="16.88,-25.88 16.88,-42.12 147.12,-42.12 147.12,-25.88 16.88,-25.88"/>
<text xml:space="preserve" text-anchor="start" x="17.88" y="-29.73" font-family="Arial" font-size="12.00">ResidentialRelationship</text>
<polygon fill="none" stroke="black" points="15.88,-24.88 15.88,-43.12 148.12,-43.12 148.12,-24.88 15.88,-24.88"/>
</a>
</g>
</g>
<!-- Residence&#45;&gt;ResidentialRelationship -->
<g id="edge7" class="edge">
<title>Residence&#45;&gt;ResidentialRelationship</title>
<path fill="none" stroke="black" d="M278.21,-360.32C297.29,-342.59 323,-312.64 323,-280 323,-280 323,-280 323,-106 323,-71.22 229.48,-52.22 158.96,-42.84"/>
<polygon fill="black" stroke="black" points="159.72,-39.41 149.36,-41.61 158.83,-46.35 159.72,-39.41"/>
<text xml:space="preserve" text-anchor="middle" x="390.88" y="-183.05" font-family="Arial" font-size="11.00"> hasResidentialRelationship </text>
<text xml:space="preserve" text-anchor="middle" x="390.88" y="-169.55" font-family="Arial" font-size="11.00"> «exactly 1» &#160;</text>
</g>
<!-- Invis&#45;&gt;contact__Address -->
<!-- contact__Address&#45;&gt;HomeType -->
<!-- HomeType&#45;&gt;iso21972__City -->
<!-- iso21972__City&#45;&gt;ResidentialRelationship -->
</g>
</svg>
