<?xml version="1.0" encoding="UTF-8" standalone="no"?>
<!DOCTYPE svg PUBLIC "-//W3C//DTD SVG 1.1//EN"
 "http://www.w3.org/Graphics/SVG/1.1/DTD/svg11.dtd">
<!-- Generated by graphviz version 14.0.2 (20251019.1705)
 -->
<!-- Pages: 1 -->
<svg width="445pt" height="247pt"
 viewBox="0.00 0.00 445.00 247.00" xmlns="http://www.w3.org/2000/svg" xmlns:xlink="http://www.w3.org/1999/xlink">
<g id="graph0" class="graph" transform="scale(1 1) rotate(0) translate(4 242.75)">
<polygon fill="white" stroke="none" points="-4,4 -4,-242.75 440.88,-242.75 440.88,4 -4,4"/>
<g id="clust2" class="cluster">
<title>cluster_associated</title>
</g>
<!-- Output -->
<g id="node1" class="node">
<title>Output</title>
<g id="a_node1"><a xlink:href="../classes/CityService__Output.md" xlink:title="&lt;TABLE&gt;">
<polygon fill="lightgray" stroke="none" points="139.5,-148.5 139.5,-164.75 372.5,-164.75 372.5,-148.5 139.5,-148.5"/>
<text xml:space="preserve" text-anchor="start" x="238.38" y="-152.35" font-family="Arial" font-size="12.00">Output</text>
<text xml:space="preserve" text-anchor="start" x="140.5" y="-136.1" font-family="Arial" font-size="12.00">genProp::hasDescription: xsd::string «only»</text>
<text xml:space="preserve" text-anchor="start" x="140.5" y="-119.85" font-family="Arial" font-size="12.00">genProp::hasName: xsd::string «max 1»</text>
<polygon fill="none" stroke="black" points="138.5,-115 138.5,-165.75 373.5,-165.75 373.5,-115 138.5,-115"/>
</a>
</g>
</g>
<!-- CityServiceOntologyThing -->
<g id="node2" class="node">
<title>CityServiceOntologyThing</title>
<g id="a_node2"><a xlink:href="../_counters/CityService__CityServiceOntologyThing.md" xlink:title="&lt;TABLE&gt;">
<polygon fill="lightgray" stroke="none" points="93.88,-212.62 93.88,-228.88 236.12,-228.88 236.12,-212.62 93.88,-212.62"/>
<text xml:space="preserve" text-anchor="start" x="94.88" y="-216.47" font-family="Arial" font-size="12.00">CityServiceOntologyThing</text>
<polygon fill="none" stroke="black" points="92.88,-211.62 92.88,-229.88 237.12,-229.88 237.12,-211.62 92.88,-211.62"/>
</a>
</g>
</g>
<!-- Output&#45;&gt;CityServiceOntologyThing -->
<g id="edge1" class="edge">
<title>Output&#45;&gt;CityServiceOntologyThing</title>
<path fill="none" stroke="black" d="M227.74,-165.71C216.61,-175.3 203.86,-186.28 192.77,-195.83"/>
<polygon fill="none" stroke="black" points="190.74,-192.96 185.45,-202.14 195.31,-198.27 190.74,-192.96"/>
</g>
<!-- resource__TerminalResourceState -->
<g id="node3" class="node">
<title>resource__TerminalResourceState</title>
<polygon fill="lightgray" stroke="none" points="256.12,-212.62 256.12,-228.88 435.88,-228.88 435.88,-212.62 256.12,-212.62"/>
<text xml:space="preserve" text-anchor="start" x="257.12" y="-216.47" font-family="Arial" font-size="12.00">resource::TerminalResourceState</text>
<polygon fill="none" stroke="black" points="255.12,-211.62 255.12,-229.88 436.88,-229.88 436.88,-211.62 255.12,-211.62"/>
</g>
<!-- Output&#45;&gt;resource__TerminalResourceState -->
<g id="edge2" class="edge">
<title>Output&#45;&gt;resource__TerminalResourceState</title>
<path fill="none" stroke="black" d="M283.94,-165.71C294.96,-175.3 307.57,-186.28 318.53,-195.83"/>
<polygon fill="none" stroke="black" points="315.93,-198.21 325.77,-202.13 320.53,-192.93 315.93,-198.21"/>
</g>
<!-- Invis -->
<!-- Output&#45;&gt;Invis -->
<!-- iso21972__Indicator -->
<g id="node5" class="node">
<title>iso21972__Indicator</title>
<polygon fill="lightgray" stroke="none" points="17.38,-25.88 17.38,-42.12 120.62,-42.12 120.62,-25.88 17.38,-25.88"/>
<text xml:space="preserve" text-anchor="start" x="18.38" y="-29.73" font-family="Arial" font-size="12.00">iso21972::Indicator</text>
<polygon fill="none" stroke="black" points="16.38,-24.88 16.38,-43.12 121.62,-43.12 121.62,-24.88 16.38,-24.88"/>
</g>
<!-- Output&#45;&gt;iso21972__Indicator -->
<g id="edge5" class="edge">
<title>Output&#45;&gt;iso21972__Indicator</title>
<path fill="none" stroke="black" d="M212.63,-115.17C181.42,-97.75 139.62,-74.42 109.17,-57.42"/>
<polygon fill="black" stroke="black" points="111.06,-54.47 100.63,-52.65 107.65,-60.58 111.06,-54.47"/>
<text xml:space="preserve" text-anchor="middle" x="220.87" y="-86.55" font-family="Arial" font-size="11.00"> usedByIndicator </text>
<text xml:space="preserve" text-anchor="middle" x="220.87" y="-73.05" font-family="Arial" font-size="11.00"> «only» &#160;</text>
</g>
<!-- Invis&#45;&gt;iso21972__Indicator -->
</g>
</svg>
