<?xml version="1.0" encoding="UTF-8" standalone="no"?>
<!DOCTYPE svg PUBLIC "-//W3C//DTD SVG 1.1//EN"
 "http://www.w3.org/Graphics/SVG/1.1/DTD/svg11.dtd">
<!-- Generated by graphviz version 14.0.2 (20251019.1705)
 -->
<!-- Pages: 1 -->
<svg width="551pt" height="492pt"
 viewBox="0.00 0.00 551.00 492.00" xmlns="http://www.w3.org/2000/svg" xmlns:xlink="http://www.w3.org/1999/xlink">
<g id="graph0" class="graph" transform="scale(1 1) rotate(0) translate(4 487.75)">
<polygon fill="white" stroke="none" points="-4,4 -4,-487.75 546.5,-487.75 546.5,4 -4,4"/>
<g id="clust2" class="cluster">
<title>cluster_associated</title>
</g>
<!-- Service -->
<g id="node1" class="node">
<title>Service</title>
<g id="a_node1"><a xlink:href="../classes/CityService__Service.md" xlink:title="&lt;TABLE&gt;">
<polygon fill="lightgray" stroke="none" points="106.62,-393.5 106.62,-409.75 349.38,-409.75 349.38,-393.5 106.62,-393.5"/>
<text xml:space="preserve" text-anchor="start" x="207.75" y="-397.35" font-family="Arial" font-size="12.00">Service</text>
<text xml:space="preserve" text-anchor="start" x="107.62" y="-381.1" font-family="Arial" font-size="12.00">genProp::hasDescription: xsd::string «max 1»</text>
<text xml:space="preserve" text-anchor="start" x="107.62" y="-364.85" font-family="Arial" font-size="12.00">genProp::hasName: xsd::string «max 1»</text>
<polygon fill="none" stroke="black" points="105.62,-360 105.62,-410.75 350.38,-410.75 350.38,-360 105.62,-360"/>
</a>
</g>
</g>
<!-- activity__Activity -->
<g id="node2" class="node">
<title>activity__Activity</title>
<polygon fill="lightgray" stroke="none" points="119.5,-457.62 119.5,-473.88 202.5,-473.88 202.5,-457.62 119.5,-457.62"/>
<text xml:space="preserve" text-anchor="start" x="120.5" y="-461.48" font-family="Arial" font-size="12.00">activity::Activity</text>
<polygon fill="none" stroke="black" points="118.5,-456.62 118.5,-474.88 203.5,-474.88 203.5,-456.62 118.5,-456.62"/>
</g>
<!-- Service&#45;&gt;activity__Activity -->
<g id="edge1" class="edge">
<title>Service&#45;&gt;activity__Activity</title>
<path fill="none" stroke="black" d="M207.2,-410.71C199.4,-419.83 190.54,-430.2 182.67,-439.4"/>
<polygon fill="none" stroke="black" points="180.03,-437.1 176.19,-446.98 185.35,-441.65 180.03,-437.1"/>
</g>
<!-- CityServiceOntologyThing -->
<g id="node3" class="node">
<title>CityServiceOntologyThing</title>
<g id="a_node3"><a xlink:href="../_counters/CityService__CityServiceOntologyThing.md" xlink:title="&lt;TABLE&gt;">
<polygon fill="lightgray" stroke="none" points="222.88,-457.62 222.88,-473.88 365.12,-473.88 365.12,-457.62 222.88,-457.62"/>
<text xml:space="preserve" text-anchor="start" x="223.88" y="-461.48" font-family="Arial" font-size="12.00">CityServiceOntologyThing</text>
<polygon fill="none" stroke="black" points="221.88,-456.62 221.88,-474.88 366.12,-474.88 366.12,-456.62 221.88,-456.62"/>
</a>
</g>
</g>
<!-- Service&#45;&gt;CityServiceOntologyThing -->
<g id="edge2" class="edge">
<title>Service&#45;&gt;CityServiceOntologyThing</title>
<path fill="none" stroke="black" d="M248.49,-410.71C256.17,-419.83 264.9,-430.2 272.66,-439.4"/>
<polygon fill="none" stroke="black" points="269.91,-441.58 279.03,-446.97 275.26,-437.07 269.91,-441.58"/>
</g>
<!-- Invis -->
<!-- Service&#45;&gt;Invis -->
<!-- Input -->
<g id="node5" class="node">
<title>Input</title>
<g id="a_node5"><a xlink:href="../_counters/CityService__Input.md" xlink:title="&lt;TABLE&gt;">
<polygon fill="lightgray" stroke="none" points="28.88,-270.88 28.88,-287.12 57.12,-287.12 57.12,-270.88 28.88,-270.88"/>
<text xml:space="preserve" text-anchor="start" x="29.88" y="-274.73" font-family="Arial" font-size="12.00">Input</text>
<polygon fill="none" stroke="black" points="27.88,-269.88 27.88,-288.12 58.12,-288.12 58.12,-269.88 27.88,-269.88"/>
</a>
</g>
</g>
<!-- Service&#45;&gt;Input -->
<g id="edge10" class="edge">
<title>Service&#45;&gt;Input</title>
<path fill="none" stroke="black" d="M106.07,-361.97C75.33,-355.15 49.58,-347.91 44.75,-342 37.13,-332.69 35.83,-319.69 36.78,-308"/>
<polygon fill="black" stroke="black" points="40.2,-308.82 38.13,-298.43 33.27,-307.85 40.2,-308.82"/>
<text xml:space="preserve" text-anchor="middle" x="68.38" y="-331.55" font-family="Arial" font-size="11.00"> hasInput </text>
<text xml:space="preserve" text-anchor="middle" x="68.38" y="-318.05" font-family="Arial" font-size="11.00"> «only» &#160;</text>
</g>
<!-- Outcome -->
<g id="node6" class="node">
<title>Outcome</title>
<g id="a_node6"><a xlink:href="../_counters/CityService__Outcome.md" xlink:title="&lt;TABLE&gt;">
<polygon fill="lightgray" stroke="none" points="29,-171.88 29,-188.12 79,-188.12 79,-171.88 29,-171.88"/>
<text xml:space="preserve" text-anchor="start" x="30" y="-175.72" font-family="Arial" font-size="12.00">Outcome</text>
<polygon fill="none" stroke="black" points="28,-170.88 28,-189.12 80,-189.12 80,-170.88 28,-170.88"/>
</a>
</g>
</g>
<!-- Service&#45;&gt;Outcome -->
<g id="edge11" class="edge">
<title>Service&#45;&gt;Outcome</title>
<path fill="none" stroke="black" d="M191.64,-360.15C169.26,-344.04 140.99,-321.41 120.25,-297 97.07,-269.72 77.76,-233.16 66.08,-208.43"/>
<polygon fill="black" stroke="black" points="69.26,-206.97 61.89,-199.36 62.9,-209.9 69.26,-206.97"/>
<text xml:space="preserve" text-anchor="middle" x="153.62" y="-282.05" font-family="Arial" font-size="11.00"> hasOutcome </text>
<text xml:space="preserve" text-anchor="middle" x="153.62" y="-268.55" font-family="Arial" font-size="11.00"> «only» &#160;</text>
</g>
<!-- Output -->
<g id="node7" class="node">
<title>Output</title>
<g id="a_node7"><a xlink:href="../_counters/CityService__Output.md" xlink:title="&lt;TABLE&gt;">
<polygon fill="lightgray" stroke="none" points="35.38,-98.88 35.38,-115.12 72.62,-115.12 72.62,-98.88 35.38,-98.88"/>
<text xml:space="preserve" text-anchor="start" x="36.38" y="-102.72" font-family="Arial" font-size="12.00">Output</text>
<polygon fill="none" stroke="black" points="34.38,-97.88 34.38,-116.12 73.62,-116.12 73.62,-97.88 34.38,-97.88"/>
</a>
</g>
</g>
<!-- Service&#45;&gt;Output -->
<g id="edge12" class="edge">
<title>Service&#45;&gt;Output</title>
<path fill="none" stroke="black" d="M223.37,-360.28C217.64,-334.37 206.22,-292.63 187,-261 181.21,-251.46 177.02,-251.24 169.5,-243 135.51,-205.74 97.82,-161 75.02,-133.54"/>
<polygon fill="black" stroke="black" points="77.93,-131.56 68.85,-126.09 72.54,-136.02 77.93,-131.56"/>
<text xml:space="preserve" text-anchor="middle" x="197.25" y="-232.55" font-family="Arial" font-size="11.00"> hasOutput </text>
<text xml:space="preserve" text-anchor="middle" x="197.25" y="-219.05" font-family="Arial" font-size="11.00"> «only» &#160;</text>
</g>
<!-- Stakeholder -->
<g id="node8" class="node">
<title>Stakeholder</title>
<g id="a_node8"><a xlink:href="../_counters/CityService__Stakeholder.md" xlink:title="&lt;TABLE&gt;">
<polygon fill="lightgray" stroke="none" points="16.75,-25.88 16.75,-42.12 83.25,-42.12 83.25,-25.88 16.75,-25.88"/>
<text xml:space="preserve" text-anchor="start" x="17.75" y="-29.73" font-family="Arial" font-size="12.00">Stakeholder</text>
<polygon fill="none" stroke="black" points="15.75,-24.88 15.75,-43.12 84.25,-43.12 84.25,-24.88 15.75,-24.88"/>
</a>
</g>
</g>
<!-- Service&#45;&gt;Stakeholder -->
<g id="edge8" class="edge">
<title>Service&#45;&gt;Stakeholder</title>
<path fill="none" stroke="black" d="M231.97,-360.41C235.12,-339.3 239,-307.7 239,-280 239,-280 239,-280 239,-106 239,-75.42 151.2,-53.54 95.29,-42.71"/>
<polygon fill="black" stroke="black" points="96.19,-39.32 85.71,-40.91 94.89,-46.2 96.19,-39.32"/>
<text xml:space="preserve" text-anchor="middle" x="302.75" y="-183.05" font-family="Arial" font-size="11.00"> hasBeneficialStakeholder </text>
<text xml:space="preserve" text-anchor="middle" x="302.75" y="-169.55" font-family="Arial" font-size="11.00"> «only» &#160;</text>
</g>
<!-- Service&#45;&gt;Stakeholder -->
<g id="edge9" class="edge">
<title>Service&#45;&gt;Stakeholder</title>
<path fill="none" stroke="black" d="M331.82,-360.06C369.5,-344.55 403,-319.62 403,-280 403,-280 403,-280 403,-106 403,-43.97 190.83,-35.44 95.47,-34.75"/>
<polygon fill="black" stroke="black" points="95.7,-31.25 85.68,-34.7 95.67,-38.25 95.7,-31.25"/>
<text xml:space="preserve" text-anchor="middle" x="472.75" y="-183.05" font-family="Arial" font-size="11.00"> hasContributingStakeholder </text>
<text xml:space="preserve" text-anchor="middle" x="472.75" y="-169.55" font-family="Arial" font-size="11.00"> «only» &#160;</text>
</g>
<!-- Invis&#45;&gt;Input -->
<!-- Input&#45;&gt;Outcome -->
<!-- Outcome&#45;&gt;Output -->
<!-- Output&#45;&gt;Stakeholder -->
</g>
</svg>
