<?xml version="1.0" encoding="UTF-8" standalone="no"?>
<!DOCTYPE svg PUBLIC "-//W3C//DTD SVG 1.1//EN"
 "http://www.w3.org/Graphics/SVG/1.1/DTD/svg11.dtd">
<!-- Generated by graphviz version 14.0.2 (20251019.1705)
 -->
<!-- Pages: 1 -->
<svg width="259pt" height="232pt"
 viewBox="0.00 0.00 259.00 232.00" xmlns="http://www.w3.org/2000/svg" xmlns:xlink="http://www.w3.org/1999/xlink">
<g id="graph0" class="graph" transform="scale(1 1) rotate(0) translate(4 228)">
<polygon fill="white" stroke="none" points="-4,4 -4,-228 254.88,-228 254.88,4 -4,4"/>
<g id="clust2" class="cluster">
<title>cluster_associated</title>
</g>
<!-- ResidentialRelationship -->
<g id="node1" class="node">
<title>ResidentialRelationship</title>
<g id="a_node1"><a xlink:href="../classes/CityResident__ResidentialRelationship.md" xlink:title="&lt;TABLE&gt;">
<polygon fill="lightgray" stroke="none" points="109.88,-124.88 109.88,-141.12 240.12,-141.12 240.12,-124.88 109.88,-124.88"/>
<text xml:space="preserve" text-anchor="start" x="110.88" y="-128.72" font-family="Arial" font-size="12.00">ResidentialRelationship</text>
<polygon fill="none" stroke="black" points="108.88,-123.88 108.88,-142.12 241.12,-142.12 241.12,-123.88 108.88,-123.88"/>
</a>
</g>
</g>
<!-- CityResidentOntologyThing -->
<g id="node2" class="node">
<title>CityResidentOntologyThing</title>
<g id="a_node2"><a xlink:href="../_counters/CityResident__CityResidentOntologyThing.md" xlink:title="&lt;TABLE&gt;">
<polygon fill="lightgray" stroke="none" points="100.12,-197.88 100.12,-214.12 249.88,-214.12 249.88,-197.88 100.12,-197.88"/>
<text xml:space="preserve" text-anchor="start" x="101.12" y="-201.72" font-family="Arial" font-size="12.00">CityResidentOntologyThing</text>
<polygon fill="none" stroke="black" points="99.12,-196.88 99.12,-215.12 250.88,-215.12 250.88,-196.88 99.12,-196.88"/>
</a>
</g>
</g>
<!-- ResidentialRelationship&#45;&gt;CityResidentOntologyThing -->
<g id="edge1" class="edge">
<title>ResidentialRelationship&#45;&gt;CityResidentOntologyThing</title>
<path fill="none" stroke="black" d="M175,-150.71C175,-158.47 175,-167.92 175,-176.74"/>
<polygon fill="none" stroke="black" points="171.5,-176.66 175,-186.66 178.5,-176.66 171.5,-176.66"/>
</g>
<!-- Invis -->
<!-- ResidentialRelationship&#45;&gt;Invis -->
<!-- code__Code -->
<g id="node4" class="node">
<title>code__Code</title>
<polygon fill="lightgray" stroke="none" points="17.25,-25.88 17.25,-42.12 80.75,-42.12 80.75,-25.88 17.25,-25.88"/>
<text xml:space="preserve" text-anchor="start" x="18.25" y="-29.73" font-family="Arial" font-size="12.00">code::Code</text>
<polygon fill="none" stroke="black" points="16.25,-24.88 16.25,-43.12 81.75,-43.12 81.75,-24.88 16.25,-24.88"/>
</g>
<!-- ResidentialRelationship&#45;&gt;code__Code -->
<g id="edge4" class="edge">
<title>ResidentialRelationship&#45;&gt;code__Code</title>
<path fill="none" stroke="black" d="M153.05,-115.1C132.73,-99.46 102.3,-76.03 79.6,-58.55"/>
<polygon fill="black" stroke="black" points="81.95,-55.95 71.9,-52.63 77.68,-61.5 81.95,-55.95"/>
<text xml:space="preserve" text-anchor="middle" x="166.37" y="-86.55" font-family="Arial" font-size="11.00"> code::hasCode </text>
<text xml:space="preserve" text-anchor="middle" x="166.37" y="-73.05" font-family="Arial" font-size="11.00"> «only» &#160;</text>
</g>
<!-- Invis&#45;&gt;code__Code -->
</g>
</svg>
