<?xml version="1.0" encoding="UTF-8" standalone="no"?>
<!DOCTYPE svg PUBLIC "-//W3C//DTD SVG 1.1//EN"
 "http://www.w3.org/Graphics/SVG/1.1/DTD/svg11.dtd">
<!-- Generated by graphviz version 14.0.2 (20251019.1705)
 -->
<!-- Pages: 1 -->
<svg width="302pt" height="232pt"
 viewBox="0.00 0.00 302.00 232.00" xmlns="http://www.w3.org/2000/svg" xmlns:xlink="http://www.w3.org/1999/xlink">
<g id="graph0" class="graph" transform="scale(1 1) rotate(0) translate(4 228)">
<polygon fill="white" stroke="none" points="-4,4 -4,-228 297.5,-228 297.5,4 -4,4"/>
<g id="clust2" class="cluster">
<title>cluster_associated</title>
</g>
<!-- ControlledEntity -->
<g id="node1" class="node">
<title>ControlledEntity</title>
<g id="a_node1"><a xlink:href="../classes/CityResident__ControlledEntity.md" xlink:title="&lt;TABLE&gt;">
<polygon fill="lightgray" stroke="none" points="107.5,-133 107.5,-149.25 292.5,-149.25 292.5,-133 107.5,-133"/>
<text xml:space="preserve" text-anchor="start" x="157.25" y="-136.85" font-family="Arial" font-size="12.00">ControlledEntity</text>
<text xml:space="preserve" text-anchor="start" x="108.5" y="-120.6" font-family="Arial" font-size="12.00">time::hasTime: xsd::string «max 1»</text>
<polygon fill="none" stroke="black" points="106.5,-115.75 106.5,-150.25 293.5,-150.25 293.5,-115.75 106.5,-115.75"/>
</a>
</g>
</g>
<!-- CityResidentOntologyThing -->
<g id="node2" class="node">
<title>CityResidentOntologyThing</title>
<g id="a_node2"><a xlink:href="../_counters/CityResident__CityResidentOntologyThing.md" xlink:title="&lt;TABLE&gt;">
<polygon fill="lightgray" stroke="none" points="125.12,-197.88 125.12,-214.12 274.88,-214.12 274.88,-197.88 125.12,-197.88"/>
<text xml:space="preserve" text-anchor="start" x="126.12" y="-201.72" font-family="Arial" font-size="12.00">CityResidentOntologyThing</text>
<polygon fill="none" stroke="black" points="124.12,-196.88 124.12,-215.12 275.88,-215.12 275.88,-196.88 124.12,-196.88"/>
</a>
</g>
</g>
<!-- ControlledEntity&#45;&gt;CityResidentOntologyThing -->
<g id="edge1" class="edge">
<title>ControlledEntity&#45;&gt;CityResidentOntologyThing</title>
<path fill="none" stroke="black" d="M200,-150.71C200,-158.47 200,-167.92 200,-176.74"/>
<polygon fill="none" stroke="black" points="196.5,-176.66 200,-186.66 203.5,-176.66 196.5,-176.66"/>
</g>
<!-- Invis -->
<!-- ControlledEntity&#45;&gt;Invis -->
<!-- owl__Thing -->
<g id="node4" class="node">
<title>owl__Thing</title>
<polygon fill="lightgray" stroke="none" points="17.25,-25.88 17.25,-42.12 74.75,-42.12 74.75,-25.88 17.25,-25.88"/>
<text xml:space="preserve" text-anchor="start" x="18.25" y="-29.73" font-family="Arial" font-size="12.00">owl::Thing</text>
<polygon fill="none" stroke="black" points="16.25,-24.88 16.25,-43.12 75.75,-43.12 75.75,-24.88 16.25,-24.88"/>
</g>
<!-- ControlledEntity&#45;&gt;owl__Thing -->
<g id="edge4" class="edge">
<title>ControlledEntity&#45;&gt;owl__Thing</title>
<path fill="none" stroke="black" d="M173.18,-115.1C147.97,-99.23 110.05,-75.35 82.18,-57.79"/>
<polygon fill="black" stroke="black" points="84.38,-55.04 74.06,-52.67 80.65,-60.96 84.38,-55.04"/>
<text xml:space="preserve" text-anchor="middle" x="164.95" y="-86.55" font-family="Arial" font-size="11.00"> entity </text>
<text xml:space="preserve" text-anchor="middle" x="164.95" y="-73.05" font-family="Arial" font-size="11.00"> «some» &#160;</text>
</g>
<!-- Invis&#45;&gt;owl__Thing -->
</g>
</svg>
