<?xml version="1.0" encoding="UTF-8" standalone="no"?>
<!DOCTYPE svg PUBLIC "-//W3C//DTD SVG 1.1//EN"
 "http://www.w3.org/Graphics/SVG/1.1/DTD/svg11.dtd">
<!-- Generated by graphviz version 14.0.2 (20251019.1705)
 -->
<!-- Pages: 1 -->
<svg width="550pt" height="477pt"
 viewBox="0.00 0.00 550.00 477.00" xmlns="http://www.w3.org/2000/svg" xmlns:xlink="http://www.w3.org/1999/xlink">
<g id="graph0" class="graph" transform="scale(1 1) rotate(0) translate(4 473)">
<polygon fill="white" stroke="none" points="-4,4 -4,-473 545.5,-473 545.5,4 -4,4"/>
<g id="clust2" class="cluster">
<title>cluster_associated</title>
</g>
<!-- Outcome -->
<g id="node1" class="node">
<title>Outcome</title>
<g id="a_node1"><a xlink:href="../classes/CityService__Outcome.md" xlink:title="&lt;TABLE&gt;">
<polygon fill="lightgray" stroke="none" points="138.62,-378 138.62,-394.25 381.38,-394.25 381.38,-378 138.62,-378"/>
<text xml:space="preserve" text-anchor="start" x="236" y="-381.85" font-family="Arial" font-size="12.00">Outcome</text>
<text xml:space="preserve" text-anchor="start" x="139.62" y="-365.6" font-family="Arial" font-size="12.00">genProp::hasDescription: xsd::string «max 1»</text>
<polygon fill="none" stroke="black" points="137.62,-360.75 137.62,-395.25 382.38,-395.25 382.38,-360.75 137.62,-360.75"/>
</a>
</g>
</g>
<!-- CityServiceOntologyThing -->
<g id="node2" class="node">
<title>CityServiceOntologyThing</title>
<g id="a_node2"><a xlink:href="../_counters/CityService__CityServiceOntologyThing.md" xlink:title="&lt;TABLE&gt;">
<polygon fill="lightgray" stroke="none" points="188.88,-442.88 188.88,-459.12 331.12,-459.12 331.12,-442.88 188.88,-442.88"/>
<text xml:space="preserve" text-anchor="start" x="189.88" y="-446.73" font-family="Arial" font-size="12.00">CityServiceOntologyThing</text>
<polygon fill="none" stroke="black" points="187.88,-441.88 187.88,-460.12 332.12,-460.12 332.12,-441.88 187.88,-441.88"/>
</a>
</g>
</g>
<!-- Outcome&#45;&gt;CityServiceOntologyThing -->
<g id="edge1" class="edge">
<title>Outcome&#45;&gt;CityServiceOntologyThing</title>
<path fill="none" stroke="black" d="M260,-395.71C260,-403.47 260,-412.92 260,-421.74"/>
<polygon fill="none" stroke="black" points="256.5,-421.66 260,-431.66 263.5,-421.66 256.5,-421.66"/>
</g>
<!-- Invis -->
<!-- Outcome&#45;&gt;Invis -->
<!-- ImpactDirection -->
<g id="node4" class="node">
<title>ImpactDirection</title>
<g id="a_node4"><a xlink:href="../_counters/CityService__ImpactDirection.md" xlink:title="&lt;TABLE&gt;">
<polygon fill="lightgray" stroke="none" points="17.38,-270.88 17.38,-287.12 102.62,-287.12 102.62,-270.88 17.38,-270.88"/>
<text xml:space="preserve" text-anchor="start" x="18.38" y="-274.73" font-family="Arial" font-size="12.00">ImpactDirection</text>
<polygon fill="none" stroke="black" points="16.38,-269.88 16.38,-288.12 103.62,-288.12 103.62,-269.88 16.38,-269.88"/>
</a>
</g>
</g>
<!-- Outcome&#45;&gt;ImpactDirection -->
<g id="edge11" class="edge">
<title>Outcome&#45;&gt;ImpactDirection</title>
<path fill="none" stroke="black" d="M146.97,-360.04C104.12,-353.07 64.74,-345.76 61.5,-342 53.6,-332.82 52.36,-319.73 53.44,-307.95"/>
<polygon fill="black" stroke="black" points="56.87,-308.7 54.91,-298.28 49.95,-307.64 56.87,-308.7"/>
<text xml:space="preserve" text-anchor="middle" x="101.25" y="-331.55" font-family="Arial" font-size="11.00"> intendedImpact </text>
<text xml:space="preserve" text-anchor="middle" x="101.25" y="-318.05" font-family="Arial" font-size="11.00"> «max 1» &#160;</text>
</g>
<!-- Importance -->
<g id="node5" class="node">
<title>Importance</title>
<g id="a_node5"><a xlink:href="../_counters/CityService__Importance.md" xlink:title="&lt;TABLE&gt;">
<polygon fill="lightgray" stroke="none" points="38.38,-171.88 38.38,-188.12 99.62,-188.12 99.62,-171.88 38.38,-171.88"/>
<text xml:space="preserve" text-anchor="start" x="39.38" y="-175.72" font-family="Arial" font-size="12.00">Importance</text>
<polygon fill="none" stroke="black" points="37.38,-170.88 37.38,-189.12 100.62,-189.12 100.62,-170.88 37.38,-170.88"/>
</a>
</g>
</g>
<!-- Outcome&#45;&gt;Importance -->
<g id="edge10" class="edge">
<title>Outcome&#45;&gt;Importance</title>
<path fill="none" stroke="black" d="M233.39,-360.2C210.79,-345.2 178.23,-321.83 153.75,-297 126.36,-269.21 100.8,-232.07 85.05,-207.38"/>
<polygon fill="black" stroke="black" points="88.22,-205.83 79.93,-199.22 82.29,-209.55 88.22,-205.83"/>
<text xml:space="preserve" text-anchor="middle" x="192.38" y="-282.05" font-family="Arial" font-size="11.00"> hasImportance </text>
<text xml:space="preserve" text-anchor="middle" x="192.38" y="-268.55" font-family="Arial" font-size="11.00"> «max 1» &#160;</text>
</g>
<!-- iso21972__Indicator -->
<g id="node6" class="node">
<title>iso21972__Indicator</title>
<polygon fill="lightgray" stroke="none" points="17.38,-98.88 17.38,-115.12 120.62,-115.12 120.62,-98.88 17.38,-98.88"/>
<text xml:space="preserve" text-anchor="start" x="18.38" y="-102.72" font-family="Arial" font-size="12.00">iso21972::Indicator</text>
<polygon fill="none" stroke="black" points="16.38,-97.88 16.38,-116.12 121.62,-116.12 121.62,-97.88 16.38,-97.88"/>
</g>
<!-- Outcome&#45;&gt;iso21972__Indicator -->
<g id="edge7" class="edge">
<title>Outcome&#45;&gt;iso21972__Indicator</title>
<path fill="none" stroke="black" d="M259.48,-360.1C257.98,-336.04 252.27,-291.47 231,-261 222.85,-249.33 215.48,-252.06 204.5,-243 161.98,-207.9 117.62,-161.54 91.69,-133.3"/>
<polygon fill="black" stroke="black" points="94.29,-130.95 84.96,-125.92 89.11,-135.67 94.29,-130.95"/>
<text xml:space="preserve" text-anchor="middle" x="236.75" y="-232.55" font-family="Arial" font-size="11.00"> hasIndicator </text>
<text xml:space="preserve" text-anchor="middle" x="236.75" y="-219.05" font-family="Arial" font-size="11.00"> «only» &#160;</text>
</g>
<!-- Stakeholder -->
<g id="node7" class="node">
<title>Stakeholder</title>
<g id="a_node7"><a xlink:href="../_counters/CityService__Stakeholder.md" xlink:title="&lt;TABLE&gt;">
<polygon fill="lightgray" stroke="none" points="54.75,-25.88 54.75,-42.12 121.25,-42.12 121.25,-25.88 54.75,-25.88"/>
<text xml:space="preserve" text-anchor="start" x="55.75" y="-29.73" font-family="Arial" font-size="12.00">Stakeholder</text>
<polygon fill="none" stroke="black" points="53.75,-24.88 53.75,-43.12 122.25,-43.12 122.25,-24.88 53.75,-24.88"/>
</a>
</g>
</g>
<!-- Outcome&#45;&gt;Stakeholder -->
<g id="edge8" class="edge">
<title>Outcome&#45;&gt;Stakeholder</title>
<path fill="none" stroke="black" d="M266.53,-360.12C273.33,-340.99 283,-308.73 283,-280 283,-280 283,-280 283,-106 283,-74.25 190.57,-52.56 132.98,-42.13"/>
<polygon fill="black" stroke="black" points="133.91,-38.74 123.46,-40.46 132.7,-45.64 133.91,-38.74"/>
<text xml:space="preserve" text-anchor="middle" x="330.62" y="-183.05" font-family="Arial" font-size="11.00"> fromPerspectiveOf </text>
<text xml:space="preserve" text-anchor="middle" x="330.62" y="-169.55" font-family="Arial" font-size="11.00"> «exactly 1» &#160;</text>
</g>
<!-- Outcome&#45;&gt;Stakeholder -->
<g id="edge9" class="edge">
<title>Outcome&#45;&gt;Stakeholder</title>
<path fill="none" stroke="black" d="M333.39,-360.13C373.06,-346.19 414,-321.71 414,-280 414,-280 414,-280 414,-106 414,-49.25 223,-37.78 133.39,-35.52"/>
<polygon fill="black" stroke="black" points="133.55,-32.02 123.48,-35.3 133.4,-39.02 133.55,-32.02"/>
<text xml:space="preserve" text-anchor="middle" x="477.75" y="-183.05" font-family="Arial" font-size="11.00"> hasBeneficialStakeholder </text>
<text xml:space="preserve" text-anchor="middle" x="477.75" y="-169.55" font-family="Arial" font-size="11.00"> «exactly 1» &#160;</text>
</g>
<!-- Invis&#45;&gt;ImpactDirection -->
<!-- ImpactDirection&#45;&gt;Importance -->
<!-- Importance&#45;&gt;iso21972__Indicator -->
<!-- iso21972__Indicator&#45;&gt;Stakeholder -->
</g>
</svg>
