<?xml version="1.0" encoding="UTF-8" standalone="no"?>
<!DOCTYPE svg PUBLIC "-//W3C//DTD SVG 1.1//EN"
 "http://www.w3.org/Graphics/SVG/1.1/DTD/svg11.dtd">
<!-- Generated by graphviz version 14.0.2 (20251019.1705)
 -->
<!-- Pages: 1 -->
<svg width="224pt" height="232pt"
 viewBox="0.00 0.00 224.00 232.00" xmlns="http://www.w3.org/2000/svg" xmlns:xlink="http://www.w3.org/1999/xlink">
<g id="graph0" class="graph" transform="scale(1 1) rotate(0) translate(4 228)">
<polygon fill="white" stroke="none" points="-4,4 -4,-228 219.88,-228 219.88,4 -4,4"/>
<g id="clust2" class="cluster">
<title>cluster_associated</title>
</g>
<!-- HomeType -->
<g id="node1" class="node">
<title>HomeType</title>
<g id="a_node1"><a xlink:href="../classes/CityResident__HomeType.md" xlink:title="&lt;TABLE&gt;">
<polygon fill="lightgray" stroke="none" points="109.75,-124.88 109.75,-141.12 170.25,-141.12 170.25,-124.88 109.75,-124.88"/>
<text xml:space="preserve" text-anchor="start" x="110.75" y="-128.72" font-family="Arial" font-size="12.00">HomeType</text>
<polygon fill="none" stroke="black" points="108.75,-123.88 108.75,-142.12 171.25,-142.12 171.25,-123.88 108.75,-123.88"/>
</a>
</g>
</g>
<!-- CityResidentOntologyThing -->
<g id="node2" class="node">
<title>CityResidentOntologyThing</title>
<g id="a_node2"><a xlink:href="../_counters/CityResident__CityResidentOntologyThing.md" xlink:title="&lt;TABLE&gt;">
<polygon fill="lightgray" stroke="none" points="65.12,-197.88 65.12,-214.12 214.88,-214.12 214.88,-197.88 65.12,-197.88"/>
<text xml:space="preserve" text-anchor="start" x="66.12" y="-201.72" font-family="Arial" font-size="12.00">CityResidentOntologyThing</text>
<polygon fill="none" stroke="black" points="64.12,-196.88 64.12,-215.12 215.88,-215.12 215.88,-196.88 64.12,-196.88"/>
</a>
</g>
</g>
<!-- HomeType&#45;&gt;CityResidentOntologyThing -->
<g id="edge1" class="edge">
<title>HomeType&#45;&gt;CityResidentOntologyThing</title>
<path fill="none" stroke="black" d="M140,-150.71C140,-158.47 140,-167.92 140,-176.74"/>
<polygon fill="none" stroke="black" points="136.5,-176.66 140,-186.66 143.5,-176.66 136.5,-176.66"/>
</g>
<!-- Invis -->
<!-- HomeType&#45;&gt;Invis -->
<!-- code__Code -->
<g id="node4" class="node">
<title>code__Code</title>
<polygon fill="lightgray" stroke="none" points="17.25,-25.88 17.25,-42.12 80.75,-42.12 80.75,-25.88 17.25,-25.88"/>
<text xml:space="preserve" text-anchor="start" x="18.25" y="-29.73" font-family="Arial" font-size="12.00">code::Code</text>
<polygon fill="none" stroke="black" points="16.25,-24.88 16.25,-43.12 81.75,-43.12 81.75,-24.88 16.25,-24.88"/>
</g>
<!-- HomeType&#45;&gt;code__Code -->
<g id="edge4" class="edge">
<title>HomeType&#45;&gt;code__Code</title>
<path fill="none" stroke="black" d="M124.15,-115.1C109.8,-99.8 88.47,-77.07 72.2,-59.73"/>
<polygon fill="black" stroke="black" points="75.1,-57.7 65.7,-52.81 69.99,-62.49 75.1,-57.7"/>
<text xml:space="preserve" text-anchor="middle" x="144.7" y="-86.55" font-family="Arial" font-size="11.00"> code::hasCode </text>
<text xml:space="preserve" text-anchor="middle" x="144.7" y="-73.05" font-family="Arial" font-size="11.00"> «only» &#160;</text>
</g>
<!-- Invis&#45;&gt;code__Code -->
</g>
</svg>
