<?xml version="1.0" encoding="UTF-8" standalone="no"?>
<!DOCTYPE svg PUBLIC "-//W3C//DTD SVG 1.1//EN"
 "http://www.w3.org/Graphics/SVG/1.1/DTD/svg11.dtd">
<!-- Generated by graphviz version 14.0.2 (20251019.1705)
 -->
<!-- Pages: 1 -->
<svg width="246pt" height="232pt"
 viewBox="0.00 0.00 246.00 232.00" xmlns="http://www.w3.org/2000/svg" xmlns:xlink="http://www.w3.org/1999/xlink">
<g id="graph0" class="graph" transform="scale(1 1) rotate(0) translate(4 228)">
<polygon fill="white" stroke="none" points="-4,4 -4,-228 242.12,-228 242.12,4 -4,4"/>
<g id="clust2" class="cluster">
<title>cluster_associated</title>
</g>
<!-- CatchmentAreaType -->
<g id="node1" class="node">
<title>CatchmentAreaType</title>
<g id="a_node1"><a xlink:href="../classes/CityService__CatchmentAreaType.md" xlink:title="&lt;TABLE&gt;">
<polygon fill="lightgray" stroke="none" points="110.25,-124.88 110.25,-141.12 221.75,-141.12 221.75,-124.88 110.25,-124.88"/>
<text xml:space="preserve" text-anchor="start" x="111.25" y="-128.72" font-family="Arial" font-size="12.00">CatchmentAreaType</text>
<polygon fill="none" stroke="black" points="109.25,-123.88 109.25,-142.12 222.75,-142.12 222.75,-123.88 109.25,-123.88"/>
</a>
</g>
</g>
<!-- CityServiceOntologyThing -->
<g id="node2" class="node">
<title>CityServiceOntologyThing</title>
<g id="a_node2"><a xlink:href="../_counters/CityService__CityServiceOntologyThing.md" xlink:title="&lt;TABLE&gt;">
<polygon fill="lightgray" stroke="none" points="94.88,-197.88 94.88,-214.12 237.12,-214.12 237.12,-197.88 94.88,-197.88"/>
<text xml:space="preserve" text-anchor="start" x="95.88" y="-201.72" font-family="Arial" font-size="12.00">CityServiceOntologyThing</text>
<polygon fill="none" stroke="black" points="93.88,-196.88 93.88,-215.12 238.12,-215.12 238.12,-196.88 93.88,-196.88"/>
</a>
</g>
</g>
<!-- CatchmentAreaType&#45;&gt;CityServiceOntologyThing -->
<g id="edge1" class="edge">
<title>CatchmentAreaType&#45;&gt;CityServiceOntologyThing</title>
<path fill="none" stroke="black" d="M166,-150.71C166,-158.47 166,-167.92 166,-176.74"/>
<polygon fill="none" stroke="black" points="162.5,-176.66 166,-186.66 169.5,-176.66 162.5,-176.66"/>
</g>
<!-- Invis -->
<!-- CatchmentAreaType&#45;&gt;Invis -->
<!-- code1__Code -->
<g id="node4" class="node">
<title>code1__Code</title>
<polygon fill="lightgray" stroke="none" points="16.88,-25.88 16.88,-42.12 87.12,-42.12 87.12,-25.88 16.88,-25.88"/>
<text xml:space="preserve" text-anchor="start" x="17.88" y="-29.73" font-family="Arial" font-size="12.00">code1::Code</text>
<polygon fill="none" stroke="black" points="15.88,-24.88 15.88,-43.12 88.12,-43.12 88.12,-24.88 15.88,-24.88"/>
</g>
<!-- CatchmentAreaType&#45;&gt;code1__Code -->
<g id="edge4" class="edge">
<title>CatchmentAreaType&#45;&gt;code1__Code</title>
<path fill="none" stroke="black" d="M146.14,-115.1C127.92,-99.6 100.71,-76.45 80.23,-59.02"/>
<polygon fill="black" stroke="black" points="82.67,-56.5 72.78,-52.68 78.13,-61.83 82.67,-56.5"/>
<text xml:space="preserve" text-anchor="middle" x="164.94" y="-86.55" font-family="Arial" font-size="11.00"> code1::hasCode </text>
<text xml:space="preserve" text-anchor="middle" x="164.94" y="-73.05" font-family="Arial" font-size="11.00"> «only» &#160;</text>
</g>
<!-- Invis&#45;&gt;code1__Code -->
</g>
</svg>
