<?xml version="1.0" encoding="UTF-8" standalone="no"?>
<!DOCTYPE svg PUBLIC "-//W3C//DTD SVG 1.1//EN"
 "http://www.w3.org/Graphics/SVG/1.1/DTD/svg11.dtd">
<!-- Generated by graphviz version 14.0.2 (20251019.1705)
 -->
<!-- Pages: 1 -->
<svg width="233pt" height="232pt"
 viewBox="0.00 0.00 233.00 232.00" xmlns="http://www.w3.org/2000/svg" xmlns:xlink="http://www.w3.org/1999/xlink">
<g id="graph0" class="graph" transform="scale(1 1) rotate(0) translate(4 228)">
<polygon fill="white" stroke="none" points="-4,4 -4,-228 229.12,-228 229.12,4 -4,4"/>
<g id="clust2" class="cluster">
<title>cluster_associated</title>
</g>
<!-- ImpactDirection -->
<g id="node1" class="node">
<title>ImpactDirection</title>
<g id="a_node1"><a xlink:href="../classes/CityService__ImpactDirection.md" xlink:title="&lt;TABLE&gt;">
<polygon fill="lightgray" stroke="none" points="110.38,-124.88 110.38,-141.12 195.62,-141.12 195.62,-124.88 110.38,-124.88"/>
<text xml:space="preserve" text-anchor="start" x="111.38" y="-128.72" font-family="Arial" font-size="12.00">ImpactDirection</text>
<polygon fill="none" stroke="black" points="109.38,-123.88 109.38,-142.12 196.62,-142.12 196.62,-123.88 109.38,-123.88"/>
</a>
</g>
</g>
<!-- CityServiceOntologyThing -->
<g id="node2" class="node">
<title>CityServiceOntologyThing</title>
<g id="a_node2"><a xlink:href="../_counters/CityService__CityServiceOntologyThing.md" xlink:title="&lt;TABLE&gt;">
<polygon fill="lightgray" stroke="none" points="81.88,-197.88 81.88,-214.12 224.12,-214.12 224.12,-197.88 81.88,-197.88"/>
<text xml:space="preserve" text-anchor="start" x="82.88" y="-201.72" font-family="Arial" font-size="12.00">CityServiceOntologyThing</text>
<polygon fill="none" stroke="black" points="80.88,-196.88 80.88,-215.12 225.12,-215.12 225.12,-196.88 80.88,-196.88"/>
</a>
</g>
</g>
<!-- ImpactDirection&#45;&gt;CityServiceOntologyThing -->
<g id="edge1" class="edge">
<title>ImpactDirection&#45;&gt;CityServiceOntologyThing</title>
<path fill="none" stroke="black" d="M153,-150.71C153,-158.47 153,-167.92 153,-176.74"/>
<polygon fill="none" stroke="black" points="149.5,-176.66 153,-186.66 156.5,-176.66 149.5,-176.66"/>
</g>
<!-- Invis -->
<!-- ImpactDirection&#45;&gt;Invis -->
<!-- code1__Code -->
<g id="node4" class="node">
<title>code1__Code</title>
<polygon fill="lightgray" stroke="none" points="16.88,-25.88 16.88,-42.12 87.12,-42.12 87.12,-25.88 16.88,-25.88"/>
<text xml:space="preserve" text-anchor="start" x="17.88" y="-29.73" font-family="Arial" font-size="12.00">code1::Code</text>
<polygon fill="none" stroke="black" points="15.88,-24.88 15.88,-43.12 88.12,-43.12 88.12,-24.88 15.88,-24.88"/>
</g>
<!-- ImpactDirection&#45;&gt;code1__Code -->
<g id="edge4" class="edge">
<title>ImpactDirection&#45;&gt;code1__Code</title>
<path fill="none" stroke="black" d="M135.41,-115.1C119.33,-99.66 95.38,-76.66 77.26,-59.26"/>
<polygon fill="black" stroke="black" points="80.12,-57.15 70.48,-52.75 75.27,-62.2 80.12,-57.15"/>
<text xml:space="preserve" text-anchor="middle" x="156.89" y="-86.55" font-family="Arial" font-size="11.00"> code1::hasCode </text>
<text xml:space="preserve" text-anchor="middle" x="156.89" y="-73.05" font-family="Arial" font-size="11.00"> «only» &#160;</text>
</g>
<!-- Invis&#45;&gt;code1__Code -->
</g>
</svg>
