<?xml version="1.0" encoding="UTF-8" standalone="no"?>
<!DOCTYPE svg PUBLIC "-//W3C//DTD SVG 1.1//EN"
 "http://www.w3.org/Graphics/SVG/1.1/DTD/svg11.dtd">
<!-- Generated by graphviz version 14.0.2 (20251019.1705)
 -->
<!-- Pages: 1 -->
<svg width="295pt" height="232pt"
 viewBox="0.00 0.00 295.00 232.00" xmlns="http://www.w3.org/2000/svg" xmlns:xlink="http://www.w3.org/1999/xlink">
<g id="graph0" class="graph" transform="scale(1 1) rotate(0) translate(4 228)">
<polygon fill="white" stroke="none" points="-4,4 -4,-228 290.74,-228 290.74,4 -4,4"/>
<g id="clust2" class="cluster">
<title>cluster_associated</title>
</g>
<!-- CityAdministrativeArea -->
<g id="node1" class="node">
<title>CityAdministrativeArea</title>
<g id="a_node1"><a xlink:href="../classes/City__CityAdministrativeArea.md" xlink:title="&lt;TABLE&gt;">
<polygon fill="lightgray" stroke="none" points="106.88,-124.88 106.88,-141.12 231.12,-141.12 231.12,-124.88 106.88,-124.88"/>
<text xml:space="preserve" text-anchor="start" x="107.88" y="-128.72" font-family="Arial" font-size="12.00">CityAdministrativeArea</text>
<polygon fill="none" stroke="black" points="105.88,-123.88 105.88,-142.12 232.12,-142.12 232.12,-123.88 105.88,-123.88"/>
</a>
</g>
</g>
<!-- CityOntologyThing -->
<g id="node2" class="node">
<title>CityOntologyThing</title>
<g id="a_node2"><a xlink:href="../_counters/City__CityOntologyThing.md" xlink:title="&lt;TABLE&gt;">
<polygon fill="lightgray" stroke="none" points="58.12,-197.88 58.12,-214.12 159.88,-214.12 159.88,-197.88 58.12,-197.88"/>
<text xml:space="preserve" text-anchor="start" x="59.12" y="-201.72" font-family="Arial" font-size="12.00">CityOntologyThing</text>
<polygon fill="none" stroke="black" points="57.12,-196.88 57.12,-215.12 160.88,-215.12 160.88,-196.88 57.12,-196.88"/>
</a>
</g>
</g>
<!-- CityAdministrativeArea&#45;&gt;CityOntologyThing -->
<g id="edge1" class="edge">
<title>CityAdministrativeArea&#45;&gt;CityOntologyThing</title>
<path fill="none" stroke="black" d="M154.88,-150.71C147.65,-159.26 138.69,-169.87 130.61,-179.43"/>
<polygon fill="none" stroke="black" points="127.98,-177.12 124.2,-187.02 133.32,-181.64 127.98,-177.12"/>
</g>
<!-- JurisdictionalArea -->
<g id="node3" class="node">
<title>JurisdictionalArea</title>
<g id="a_node3"><a xlink:href="../_counters/City__JurisdictionalArea.md" xlink:title="&lt;TABLE&gt;">
<polygon fill="lightgray" stroke="none" points="180,-197.88 180,-214.12 278,-214.12 278,-197.88 180,-197.88"/>
<text xml:space="preserve" text-anchor="start" x="181" y="-201.72" font-family="Arial" font-size="12.00">JurisdictionalArea</text>
<polygon fill="none" stroke="black" points="179,-196.88 179,-215.12 279,-215.12 279,-196.88 179,-196.88"/>
</a>
</g>
</g>
<!-- CityAdministrativeArea&#45;&gt;JurisdictionalArea -->
<g id="edge2" class="edge">
<title>CityAdministrativeArea&#45;&gt;JurisdictionalArea</title>
<path fill="none" stroke="black" d="M183.12,-150.71C190.35,-159.26 199.31,-169.87 207.39,-179.43"/>
<polygon fill="none" stroke="black" points="204.68,-181.64 213.8,-187.02 210.02,-177.12 204.68,-181.64"/>
</g>
<!-- Invis -->
<!-- CityAdministrativeArea&#45;&gt;Invis -->
<!-- i72__City -->
<g id="node5" class="node">
<title>i72__City</title>
<polygon fill="lightgray" stroke="none" points="20.25,-25.88 20.25,-42.12 65.75,-42.12 65.75,-25.88 20.25,-25.88"/>
<text xml:space="preserve" text-anchor="start" x="21.25" y="-29.73" font-family="Arial" font-size="12.00">i72::City</text>
<polygon fill="none" stroke="black" points="19.25,-24.88 19.25,-43.12 66.75,-43.12 66.75,-24.88 19.25,-24.88"/>
</g>
<!-- CityAdministrativeArea&#45;&gt;i72__City -->
<g id="edge5" class="edge">
<title>CityAdministrativeArea&#45;&gt;i72__City</title>
<path fill="none" stroke="black" stroke-dasharray="5,2" d="M147.05,-115.1C126.73,-99.46 96.3,-76.03 73.6,-58.55"/>
<polygon fill="black" stroke="black" points="75.95,-55.95 65.9,-52.63 71.68,-61.5 75.95,-55.95"/>
<text xml:space="preserve" text-anchor="middle" x="203.87" y="-86.55" font-family="Arial" font-size="11.00"> onProperty: administrativeAreaOf </text>
<text xml:space="preserve" text-anchor="middle" x="203.87" y="-73.05" font-family="Arial" font-size="11.00"> «some» &#160;</text>
</g>
<!-- Invis&#45;&gt;i72__City -->
</g>
</svg>
