<?xml version="1.0" encoding="UTF-8" standalone="no"?>
<!DOCTYPE svg PUBLIC "-//W3C//DTD SVG 1.1//EN"
 "http://www.w3.org/Graphics/SVG/1.1/DTD/svg11.dtd">
<!-- Generated by graphviz version 14.0.2 (20251019.1705)
 -->
<!-- Pages: 1 -->
<svg width="418pt" height="263pt"
 viewBox="0.00 0.00 418.00 263.00" xmlns="http://www.w3.org/2000/svg" xmlns:xlink="http://www.w3.org/1999/xlink">
<g id="graph0" class="graph" transform="scale(1 1) rotate(0) translate(4 259)">
<polygon fill="white" stroke="none" points="-4,4 -4,-259 413.5,-259 413.5,4 -4,4"/>
<g id="clust2" class="cluster">
<title>cluster_associated</title>
</g>
<!-- Phone Number -->
<g id="node1" class="node">
<title>Phone Number</title>
<g id="a_node1"><a xlink:href="../classes/Contact__Phone Number.md" xlink:title="&lt;TABLE&gt;">
<polygon fill="lightgray" stroke="none" points="109.5,-164.75 109.5,-181 408.5,-181 408.5,-164.75 109.5,-164.75"/>
<text xml:space="preserve" text-anchor="start" x="218.5" y="-168.6" font-family="Arial" font-size="12.00">Phone Number</text>
<text xml:space="preserve" text-anchor="start" x="110.5" y="-152.35" font-family="Arial" font-size="12.00">hasAreaCode: xsd::nonNegativeInteger «exactly 1»</text>
<text xml:space="preserve" text-anchor="start" x="110.5" y="-136.1" font-family="Arial" font-size="12.00">hasCountryCode: xsd::nonNegativeInteger «exactly 1»</text>
<text xml:space="preserve" text-anchor="start" x="110.5" y="-119.85" font-family="Arial" font-size="12.00">hasPhoneNumber: xsd::nonNegativeInteger «exactly 1»</text>
<polygon fill="none" stroke="black" points="108.5,-115 108.5,-182 409.5,-182 409.5,-115 108.5,-115"/>
</a>
</g>
</g>
<!-- ContactThing -->
<g id="node2" class="node">
<title>ContactThing</title>
<g id="a_node2"><a xlink:href="../_counters/Contact__ContactThing.md" xlink:title="&lt;TABLE&gt;">
<polygon fill="lightgray" stroke="none" points="222,-228.88 222,-245.12 296,-245.12 296,-228.88 222,-228.88"/>
<text xml:space="preserve" text-anchor="start" x="223" y="-232.72" font-family="Arial" font-size="12.00">ContactThing</text>
<polygon fill="none" stroke="black" points="221,-227.88 221,-246.12 297,-246.12 297,-227.88 221,-227.88"/>
</a>
</g>
</g>
<!-- Phone Number&#45;&gt;ContactThing -->
<g id="edge1" class="edge">
<title>Phone Number&#45;&gt;ContactThing</title>
<path fill="none" stroke="black" d="M259,-181.89C259,-190.45 259,-199.62 259,-207.93"/>
<polygon fill="none" stroke="black" points="255.5,-207.81 259,-217.81 262.5,-207.81 255.5,-207.81"/>
</g>
<!-- Invis -->
<!-- Phone Number&#45;&gt;Invis -->
<!-- PhoneType -->
<g id="node4" class="node">
<title>PhoneType</title>
<g id="a_node4"><a xlink:href="../_counters/Contact__PhoneType.md" xlink:title="&lt;TABLE&gt;">
<polygon fill="lightgray" stroke="none" points="17.25,-25.88 17.25,-42.12 80.75,-42.12 80.75,-25.88 17.25,-25.88"/>
<text xml:space="preserve" text-anchor="start" x="18.25" y="-29.73" font-family="Arial" font-size="12.00">PhoneType</text>
<polygon fill="none" stroke="black" points="16.25,-24.88 16.25,-43.12 81.75,-43.12 81.75,-24.88 16.25,-24.88"/>
</a>
</g>
</g>
<!-- Phone Number&#45;&gt;PhoneType -->
<g id="edge4" class="edge">
<title>Phone Number&#45;&gt;PhoneType</title>
<path fill="none" stroke="black" d="M198.54,-115.11C163.92,-96.57 121.38,-73.77 90.53,-57.25"/>
<polygon fill="black" stroke="black" points="92.34,-54.25 81.88,-52.61 89.04,-60.42 92.34,-54.25"/>
<text xml:space="preserve" text-anchor="middle" x="199.3" y="-86.55" font-family="Arial" font-size="11.00"> hasPhoneType </text>
<text xml:space="preserve" text-anchor="middle" x="199.3" y="-73.05" font-family="Arial" font-size="11.00"> «exactly 1» &#160;</text>
</g>
<!-- Invis&#45;&gt;PhoneType -->
</g>
</svg>
