<?xml version="1.0" encoding="UTF-8" standalone="no"?>
<!DOCTYPE svg PUBLIC "-//W3C//DTD SVG 1.1//EN"
 "http://www.w3.org/Graphics/SVG/1.1/DTD/svg11.dtd">
<!-- Generated by graphviz version 14.0.2 (20251019.1705)
 -->
<!-- Pages: 1 -->
<svg width="242pt" height="132pt"
 viewBox="0.00 0.00 242.00 132.00" xmlns="http://www.w3.org/2000/svg" xmlns:xlink="http://www.w3.org/1999/xlink">
<g id="graph0" class="graph" transform="scale(1 1) rotate(0) translate(4 128)">
<polygon fill="white" stroke="none" points="-4,4 -4,-128 237.5,-128 237.5,4 -4,4"/>
<g id="clust2" class="cluster">
<title>cluster_associated</title>
</g>
<!-- Mobile Telephone Number -->
<g id="node1" class="node">
<title>Mobile Telephone Number</title>
<g id="a_node1"><a xlink:href="../classes/Contact__Mobile Telephone Number.md" xlink:title="&lt;TABLE&gt;">
<polygon fill="lightgray" stroke="none" points="1,-25.88 1,-42.12 144,-42.12 144,-25.88 1,-25.88"/>
<text xml:space="preserve" text-anchor="start" x="2" y="-29.73" font-family="Arial" font-size="12.00">Mobile Telephone Number</text>
<polygon fill="none" stroke="black" points="0,-24.88 0,-43.12 145,-43.12 145,-24.88 0,-24.88"/>
</a>
</g>
</g>
<!-- PhoneNumber -->
<g id="node2" class="node">
<title>PhoneNumber</title>
<g id="a_node2"><a xlink:href="../_counters/Contact__PhoneNumber.md" xlink:title="&lt;TABLE&gt;">
<polygon fill="lightgray" stroke="none" points="32.5,-97.88 32.5,-114.12 112.5,-114.12 112.5,-97.88 32.5,-97.88"/>
<text xml:space="preserve" text-anchor="start" x="33.5" y="-101.72" font-family="Arial" font-size="12.00">PhoneNumber</text>
<polygon fill="none" stroke="black" points="31.5,-96.88 31.5,-115.12 113.5,-115.12 113.5,-96.88 31.5,-96.88"/>
</a>
</g>
</g>
<!-- Mobile Telephone Number&#45;&gt;PhoneNumber -->
<g id="edge1" class="edge">
<title>Mobile Telephone Number&#45;&gt;PhoneNumber</title>
<path fill="none" stroke="black" d="M72.5,-51.79C72.5,-59.25 72.5,-68.24 72.5,-76.69"/>
<polygon fill="none" stroke="black" points="69,-76.54 72.5,-86.54 76,-76.54 69,-76.54"/>
</g>
<!-- Invis -->
</g>
</svg>
