<?xml version="1.0" encoding="UTF-8" standalone="no"?>
<!DOCTYPE svg PUBLIC "-//W3C//DTD SVG 1.1//EN"
 "http://www.w3.org/Graphics/SVG/1.1/DTD/svg11.dtd">
<!-- Generated by graphviz version 14.0.2 (20251019.1705)
 -->
<!-- Pages: 1 -->
<svg width="194pt" height="132pt"
 viewBox="0.00 0.00 194.00 132.00" xmlns="http://www.w3.org/2000/svg" xmlns:xlink="http://www.w3.org/1999/xlink">
<g id="graph0" class="graph" transform="scale(1 1) rotate(0) translate(4 128)">
<polygon fill="white" stroke="none" points="-4,4 -4,-128 189.88,-128 189.88,4 -4,4"/>
<g id="clust2" class="cluster">
<title>cluster_associated</title>
</g>
<!-- Representation -->
<g id="node1" class="node">
<title>Representation</title>
<g id="a_node1"><a xlink:href="../classes/Contract__Representation.md" xlink:title="&lt;TABLE&gt;">
<polygon fill="lightgray" stroke="none" points="13,-25.88 13,-42.12 96.75,-42.12 96.75,-25.88 13,-25.88"/>
<text xml:space="preserve" text-anchor="start" x="14" y="-29.73" font-family="Arial" font-size="12.00">Representation</text>
<polygon fill="none" stroke="black" points="12,-24.88 12,-43.12 97.75,-43.12 97.75,-24.88 12,-24.88"/>
</a>
</g>
</g>
<!-- ContractualElement -->
<g id="node2" class="node">
<title>ContractualElement</title>
<g id="a_node2"><a xlink:href="../_counters/Contract__ContractualElement.md" xlink:title="&lt;TABLE&gt;">
<polygon fill="lightgray" stroke="none" points="1,-97.88 1,-114.12 108.75,-114.12 108.75,-97.88 1,-97.88"/>
<text xml:space="preserve" text-anchor="start" x="2" y="-101.72" font-family="Arial" font-size="12.00">ContractualElement</text>
<polygon fill="none" stroke="black" points="0,-96.88 0,-115.12 109.75,-115.12 109.75,-96.88 0,-96.88"/>
</a>
</g>
</g>
<!-- Representation&#45;&gt;ContractualElement -->
<g id="edge1" class="edge">
<title>Representation&#45;&gt;ContractualElement</title>
<path fill="none" stroke="black" d="M54.88,-51.79C54.88,-59.25 54.88,-68.24 54.88,-76.69"/>
<polygon fill="none" stroke="black" points="51.38,-76.54 54.88,-86.54 58.38,-76.54 51.38,-76.54"/>
</g>
<!-- Invis -->
</g>
</svg>
