<?xml version="1.0" encoding="UTF-8" standalone="no"?>
<!DOCTYPE svg PUBLIC "-//W3C//DTD SVG 1.1//EN"
 "http://www.w3.org/Graphics/SVG/1.1/DTD/svg11.dtd">
<!-- Generated by graphviz version 14.0.2 (20251019.1705)
 -->
<!-- Pages: 1 -->
<svg width="300pt" height="232pt"
 viewBox="0.00 0.00 300.00 232.00" xmlns="http://www.w3.org/2000/svg" xmlns:xlink="http://www.w3.org/1999/xlink">
<g id="graph0" class="graph" transform="scale(1 1) rotate(0) translate(4 228)">
<polygon fill="white" stroke="none" points="-4,4 -4,-228 295.5,-228 295.5,4 -4,4"/>
<g id="clust2" class="cluster">
<title>cluster_associated</title>
</g>
<!-- ContractualCommitment -->
<g id="node1" class="node">
<title>ContractualCommitment</title>
<g id="a_node1"><a xlink:href="../classes/Contract__ContractualCommitment.md" xlink:title="&lt;TABLE&gt;">
<polygon fill="lightgray" stroke="none" points="159.5,-124.88 159.5,-141.12 290.5,-141.12 290.5,-124.88 159.5,-124.88"/>
<text xml:space="preserve" text-anchor="start" x="160.5" y="-128.72" font-family="Arial" font-size="12.00">ContractualCommitment</text>
<polygon fill="none" stroke="black" points="158.5,-123.88 158.5,-142.12 291.5,-142.12 291.5,-123.88 158.5,-123.88"/>
</a>
</g>
</g>
<!-- ContractualElement -->
<g id="node2" class="node">
<title>ContractualElement</title>
<g id="a_node2"><a xlink:href="../_counters/Contract__ContractualElement.md" xlink:title="&lt;TABLE&gt;">
<polygon fill="lightgray" stroke="none" points="171.12,-197.88 171.12,-214.12 278.88,-214.12 278.88,-197.88 171.12,-197.88"/>
<text xml:space="preserve" text-anchor="start" x="172.12" y="-201.72" font-family="Arial" font-size="12.00">ContractualElement</text>
<polygon fill="none" stroke="black" points="170.12,-196.88 170.12,-215.12 279.88,-215.12 279.88,-196.88 170.12,-196.88"/>
</a>
</g>
</g>
<!-- ContractualCommitment&#45;&gt;ContractualElement -->
<g id="edge1" class="edge">
<title>ContractualCommitment&#45;&gt;ContractualElement</title>
<path fill="none" stroke="black" d="M225,-150.71C225,-158.47 225,-167.92 225,-176.74"/>
<polygon fill="none" stroke="black" points="221.5,-176.66 225,-186.66 228.5,-176.66 221.5,-176.66"/>
</g>
<!-- Invis -->
<!-- ContractualCommitment&#45;&gt;Invis -->
<!-- agreement__Agreement -->
<g id="node4" class="node">
<title>agreement__Agreement</title>
<polygon fill="lightgray" stroke="none" points="17.25,-25.88 17.25,-42.12 140.75,-42.12 140.75,-25.88 17.25,-25.88"/>
<text xml:space="preserve" text-anchor="start" x="18.25" y="-29.73" font-family="Arial" font-size="12.00">agreement::Agreement</text>
<polygon fill="none" stroke="black" points="16.25,-24.88 16.25,-43.12 141.75,-43.12 141.75,-24.88 16.25,-24.88"/>
</g>
<!-- ContractualCommitment&#45;&gt;agreement__Agreement -->
<g id="edge4" class="edge">
<title>ContractualCommitment&#45;&gt;agreement__Agreement</title>
<path fill="none" stroke="black" d="M199.57,-115.1C175.7,-99.25 139.82,-75.41 113.4,-57.86"/>
<polygon fill="black" stroke="black" points="115.67,-55.16 105.4,-52.54 111.79,-60.99 115.67,-55.16"/>
<text xml:space="preserve" text-anchor="middle" x="219.62" y="-86.55" font-family="Arial" font-size="11.00"> specifiesAgreement </text>
<text xml:space="preserve" text-anchor="middle" x="219.62" y="-73.05" font-family="Arial" font-size="11.00"> «only» &#160;</text>
</g>
<!-- Invis&#45;&gt;agreement__Agreement -->
</g>
</svg>
