<?xml version="1.0" encoding="UTF-8" standalone="no"?>
<!DOCTYPE svg PUBLIC "-//W3C//DTD SVG 1.1//EN"
 "http://www.w3.org/Graphics/SVG/1.1/DTD/svg11.dtd">
<!-- Generated by graphviz version 14.0.2 (20251019.1705)
 -->
<!-- Pages: 1 -->
<svg width="350pt" height="247pt"
 viewBox="0.00 0.00 350.00 247.00" xmlns="http://www.w3.org/2000/svg" xmlns:xlink="http://www.w3.org/1999/xlink">
<g id="graph0" class="graph" transform="scale(1 1) rotate(0) translate(4 242.75)">
<polygon fill="white" stroke="none" points="-4,4 -4,-242.75 346.25,-242.75 346.25,4 -4,4"/>
<g id="clust2" class="cluster">
<title>cluster_associated</title>
</g>
<!-- HoursOfOperation -->
<g id="node1" class="node">
<title>HoursOfOperation</title>
<g id="a_node1"><a xlink:href="../classes/Contact__HoursOfOperation.md" xlink:title="&lt;TABLE&gt;">
<polygon fill="lightgray" stroke="none" points="130.75,-148.5 130.75,-164.75 341.25,-164.75 341.25,-148.5 130.75,-148.5"/>
<text xml:space="preserve" text-anchor="start" x="187.62" y="-152.35" font-family="Arial" font-size="12.00">HoursOfOperation</text>
<text xml:space="preserve" text-anchor="start" x="131.75" y="-136.1" font-family="Arial" font-size="12.00">hasClosingTime: xsd::time «exactly 1»</text>
<text xml:space="preserve" text-anchor="start" x="131.75" y="-119.85" font-family="Arial" font-size="12.00">hasOpeningTime: xsd::time «exactly 1»</text>
<polygon fill="none" stroke="black" points="129.75,-115 129.75,-165.75 342.25,-165.75 342.25,-115 129.75,-115"/>
</a>
</g>
</g>
<!-- ContactThing -->
<g id="node2" class="node">
<title>ContactThing</title>
<g id="a_node2"><a xlink:href="../_counters/Contact__ContactThing.md" xlink:title="&lt;TABLE&gt;">
<polygon fill="lightgray" stroke="none" points="199,-212.62 199,-228.88 273,-228.88 273,-212.62 199,-212.62"/>
<text xml:space="preserve" text-anchor="start" x="200" y="-216.47" font-family="Arial" font-size="12.00">ContactThing</text>
<polygon fill="none" stroke="black" points="198,-211.62 198,-229.88 274,-229.88 274,-211.62 198,-211.62"/>
</a>
</g>
</g>
<!-- HoursOfOperation&#45;&gt;ContactThing -->
<g id="edge1" class="edge">
<title>HoursOfOperation&#45;&gt;ContactThing</title>
<path fill="none" stroke="black" d="M236,-165.71C236,-173.97 236,-183.27 236,-191.79"/>
<polygon fill="none" stroke="black" points="232.5,-191.62 236,-201.62 239.5,-191.62 232.5,-191.62"/>
</g>
<!-- Invis -->
<!-- HoursOfOperation&#45;&gt;Invis -->
<!-- time__DayOfWeek -->
<g id="node4" class="node">
<title>time__DayOfWeek</title>
<polygon fill="lightgray" stroke="none" points="17.5,-25.88 17.5,-42.12 112.5,-42.12 112.5,-25.88 17.5,-25.88"/>
<text xml:space="preserve" text-anchor="start" x="18.5" y="-29.73" font-family="Arial" font-size="12.00">time::DayOfWeek</text>
<polygon fill="none" stroke="black" points="16.5,-24.88 16.5,-43.12 113.5,-43.12 113.5,-24.88 16.5,-24.88"/>
</g>
<!-- HoursOfOperation&#45;&gt;time__DayOfWeek -->
<g id="edge4" class="edge">
<title>HoursOfOperation&#45;&gt;time__DayOfWeek</title>
<path fill="none" stroke="black" d="M196.34,-115.17C168.04,-97.9 130.24,-74.82 102.46,-57.86"/>
<polygon fill="black" stroke="black" points="104.36,-54.93 94,-52.7 100.72,-60.9 104.36,-54.93"/>
<text xml:space="preserve" text-anchor="middle" x="195.82" y="-86.55" font-family="Arial" font-size="11.00"> dayofWeek </text>
<text xml:space="preserve" text-anchor="middle" x="195.82" y="-73.05" font-family="Arial" font-size="11.00"> «only» &#160;</text>
</g>
<!-- Invis&#45;&gt;time__DayOfWeek -->
</g>
</svg>
