<?xml version="1.0" encoding="UTF-8" standalone="no"?>
<!DOCTYPE svg PUBLIC "-//W3C//DTD SVG 1.1//EN"
 "http://www.w3.org/Graphics/SVG/1.1/DTD/svg11.dtd">
<!-- Generated by graphviz version 14.0.2 (20251019.1705)
 -->
<!-- Pages: 1 -->
<svg width="316pt" height="159pt"
 viewBox="0.00 0.00 316.00 159.00" xmlns="http://www.w3.org/2000/svg" xmlns:xlink="http://www.w3.org/1999/xlink">
<g id="graph0" class="graph" transform="scale(1 1) rotate(0) translate(4 155)">
<polygon fill="white" stroke="none" points="-4,4 -4,-155 311.92,-155 311.92,4 -4,4"/>
<g id="clust2" class="cluster">
<title>cluster_associated</title>
</g>
<!-- ContractualElement -->
<g id="node1" class="node">
<title>ContractualElement</title>
<g id="a_node1"><a xlink:href="../classes/Contract__ContractualElement.md" xlink:title="&lt;TABLE&gt;">
<polygon fill="lightgray" stroke="none" points="43.75,-34 43.75,-50.25 192,-50.25 192,-34 43.75,-34"/>
<text xml:space="preserve" text-anchor="start" x="65" y="-37.85" font-family="Arial" font-size="12.00">ContractualElement</text>
<text xml:space="preserve" text-anchor="start" x="44.75" y="-21.6" font-family="Arial" font-size="12.00">hasContractText: xsd::string</text>
<polygon fill="none" stroke="black" points="42.75,-16.75 42.75,-51.25 193,-51.25 193,-16.75 42.75,-16.75"/>
</a>
</g>
</g>
<!-- ContractOntologyThing -->
<g id="node2" class="node">
<title>ContractOntologyThing</title>
<g id="a_node2"><a xlink:href="../_counters/Contract__ContractOntologyThing.md" xlink:title="&lt;TABLE&gt;">
<polygon fill="lightgray" stroke="none" points="1,-124.88 1,-141.12 126.75,-141.12 126.75,-124.88 1,-124.88"/>
<text xml:space="preserve" text-anchor="start" x="2" y="-128.72" font-family="Arial" font-size="12.00">ContractOntologyThing</text>
<polygon fill="none" stroke="black" points="0,-123.88 0,-142.12 127.75,-142.12 127.75,-123.88 0,-123.88"/>
</a>
</g>
</g>
<!-- ContractualElement&#45;&gt;ContractOntologyThing -->
<g id="edge1" class="edge">
<title>ContractualElement&#45;&gt;ContractOntologyThing</title>
<path fill="none" stroke="black" d="M108.58,-51.7C100.4,-66.39 88.36,-88.02 78.83,-105.13"/>
<polygon fill="none" stroke="black" points="75.82,-103.34 74.02,-113.78 81.94,-106.75 75.82,-103.34"/>
</g>
<!-- Invis -->
<!-- Contract -->
<g id="node4" class="node">
<title>Contract</title>
<g id="a_node4"><a xlink:href="../_counters/Contract__Contract.md" xlink:title="&lt;TABLE&gt;">
<polygon fill="lightgray" stroke="none" points="149.38,-124.88 149.38,-141.12 196.38,-141.12 196.38,-124.88 149.38,-124.88"/>
<text xml:space="preserve" text-anchor="start" x="150.38" y="-128.72" font-family="Arial" font-size="12.00">Contract</text>
<polygon fill="none" stroke="black" points="148.38,-123.88 148.38,-142.12 197.38,-142.12 197.38,-123.88 148.38,-123.88"/>
</a>
</g>
</g>
<!-- Contract&#45;&gt;ContractualElement -->
<g id="edge2" class="edge">
<title>Contract&#45;&gt;ContractualElement</title>
<path fill="none" stroke="black" d="M163.29,-115.1C154.78,-100.08 142.2,-77.9 132.44,-60.68"/>
<polygon fill="black" stroke="black" points="130.64,-50.41 132.52,-60.84 124.55,-53.86 130.64,-50.41"/>
<text xml:space="preserve" text-anchor="middle" x="229.92" y="-86.55" font-family="Arial" font-size="11.00"> inverse hasContractualElement </text>
<text xml:space="preserve" text-anchor="middle" x="229.92" y="-73.05" font-family="Arial" font-size="11.00"> «some» &#160;</text>
</g>
</g>
</svg>
