<?xml version="1.0" encoding="UTF-8" standalone="no"?>
<!DOCTYPE svg PUBLIC "-//W3C//DTD SVG 1.1//EN"
 "http://www.w3.org/Graphics/SVG/1.1/DTD/svg11.dtd">
<!-- Generated by graphviz version 14.0.2 (20251019.1705)
 -->
<!-- Pages: 1 -->
<svg width="190pt" height="232pt"
 viewBox="0.00 0.00 190.00 232.00" xmlns="http://www.w3.org/2000/svg" xmlns:xlink="http://www.w3.org/1999/xlink">
<g id="graph0" class="graph" transform="scale(1 1) rotate(0) translate(4 228)">
<polygon fill="white" stroke="none" points="-4,4 -4,-228 185.6,-228 185.6,4 -4,4"/>
<g id="clust2" class="cluster">
<title>cluster_associated</title>
</g>
<!-- Country -->
<g id="node1" class="node">
<title>Country</title>
<g id="a_node1"><a xlink:href="../classes/Contact__Country.md" xlink:title="&lt;TABLE&gt;">
<polygon fill="lightgray" stroke="none" points="114,-124.88 114,-141.12 158,-141.12 158,-124.88 114,-124.88"/>
<text xml:space="preserve" text-anchor="start" x="115" y="-128.72" font-family="Arial" font-size="12.00">Country</text>
<polygon fill="none" stroke="black" points="113,-123.88 113,-142.12 159,-142.12 159,-123.88 113,-123.88"/>
</a>
</g>
</g>
<!-- ContactThing -->
<g id="node2" class="node">
<title>ContactThing</title>
<g id="a_node2"><a xlink:href="../_counters/Contact__ContactThing.md" xlink:title="&lt;TABLE&gt;">
<polygon fill="lightgray" stroke="none" points="99,-197.88 99,-214.12 173,-214.12 173,-197.88 99,-197.88"/>
<text xml:space="preserve" text-anchor="start" x="100" y="-201.72" font-family="Arial" font-size="12.00">ContactThing</text>
<polygon fill="none" stroke="black" points="98,-196.88 98,-215.12 174,-215.12 174,-196.88 98,-196.88"/>
</a>
</g>
</g>
<!-- Country&#45;&gt;ContactThing -->
<g id="edge1" class="edge">
<title>Country&#45;&gt;ContactThing</title>
<path fill="none" stroke="black" d="M136,-150.71C136,-158.47 136,-167.92 136,-176.74"/>
<polygon fill="none" stroke="black" points="132.5,-176.66 136,-186.66 139.5,-176.66 132.5,-176.66"/>
</g>
<!-- Invis -->
<!-- Country&#45;&gt;Invis -->
<!-- code__Code -->
<g id="node4" class="node">
<title>code__Code</title>
<polygon fill="lightgray" stroke="none" points="17.25,-25.88 17.25,-42.12 80.75,-42.12 80.75,-25.88 17.25,-25.88"/>
<text xml:space="preserve" text-anchor="start" x="18.25" y="-29.73" font-family="Arial" font-size="12.00">code::Code</text>
<polygon fill="none" stroke="black" points="16.25,-24.88 16.25,-43.12 81.75,-43.12 81.75,-24.88 16.25,-24.88"/>
</g>
<!-- Country&#45;&gt;code__Code -->
<g id="edge4" class="edge">
<title>Country&#45;&gt;code__Code</title>
<path fill="none" stroke="black" d="M120.85,-115.1C107.25,-99.94 87.1,-77.48 71.6,-60.2"/>
<polygon fill="black" stroke="black" points="74.27,-57.94 64.99,-52.83 69.06,-62.61 74.27,-57.94"/>
<text xml:space="preserve" text-anchor="middle" x="142.23" y="-86.55" font-family="Arial" font-size="11.00"> code::hasCode </text>
<text xml:space="preserve" text-anchor="middle" x="142.23" y="-73.05" font-family="Arial" font-size="11.00"> «only» &#160;</text>
</g>
<!-- Invis&#45;&gt;code__Code -->
</g>
</svg>
