<?xml version="1.0" encoding="UTF-8" standalone="no"?>
<!DOCTYPE svg PUBLIC "-//W3C//DTD SVG 1.1//EN"
 "http://www.w3.org/Graphics/SVG/1.1/DTD/svg11.dtd">
<!-- Generated by graphviz version 14.0.2 (20251019.1705)
 -->
<!-- Pages: 1 -->
<svg width="441pt" height="404pt"
 viewBox="0.00 0.00 441.00 404.00" xmlns="http://www.w3.org/2000/svg" xmlns:xlink="http://www.w3.org/1999/xlink">
<g id="graph0" class="graph" transform="scale(1 1) rotate(0) translate(4 400)">
<polygon fill="white" stroke="none" points="-4,4 -4,-400 437.38,-400 437.38,4 -4,4"/>
<g id="clust2" class="cluster">
<title>cluster_associated</title>
</g>
<!-- InfrastructureElement -->
<g id="node1" class="node">
<title>InfrastructureElement</title>
<g id="a_node1"><a xlink:href="../_counters/Infrastructure__InfrastructureElement.md" xlink:title="&lt;TABLE&gt;">
<polygon fill="lightgray" stroke="none" points="169.38,-296.88 169.38,-313.12 284.62,-313.12 284.62,-296.88 169.38,-296.88"/>
<text xml:space="preserve" text-anchor="start" x="170.38" y="-300.73" font-family="Arial" font-size="12.00">InfrastructureElement</text>
<polygon fill="none" stroke="black" points="168.38,-295.88 168.38,-314.12 285.62,-314.12 285.62,-295.88 168.38,-295.88"/>
</a>
</g>
</g>
<!-- InfrastructureElement&#45;&gt;InfrastructureElement -->
<g id="edge7" class="edge">
<title>InfrastructureElement&#45;&gt;InfrastructureElement</title>
<path fill="none" stroke="black" d="M285.47,-311.47C296.14,-310.65 303.62,-308.49 303.62,-305 303.62,-302.93 300.99,-301.32 296.61,-300.19"/>
<polygon fill="black" stroke="black" points="297.37,-296.77 286.96,-298.76 296.34,-303.69 297.37,-296.77"/>
<text xml:space="preserve" text-anchor="middle" x="368.5" y="-308.05" font-family="Arial" font-size="11.00"> partwhole::hasProperPart </text>
<text xml:space="preserve" text-anchor="middle" x="368.5" y="-294.55" font-family="Arial" font-size="11.00"> «only» &#160;</text>
</g>
<!-- InfrastructureOntologyThing -->
<g id="node2" class="node">
<title>InfrastructureOntologyThing</title>
<g id="a_node2"><a xlink:href="../_counters/Infrastructure__InfrastructureOntologyThing.md" xlink:title="&lt;TABLE&gt;">
<polygon fill="lightgray" stroke="none" points="152.12,-369.88 152.12,-386.12 301.88,-386.12 301.88,-369.88 152.12,-369.88"/>
<text xml:space="preserve" text-anchor="start" x="153.12" y="-373.73" font-family="Arial" font-size="12.00">InfrastructureOntologyThing</text>
<polygon fill="none" stroke="black" points="151.12,-368.88 151.12,-387.12 302.88,-387.12 302.88,-368.88 151.12,-368.88"/>
</a>
</g>
</g>
<!-- InfrastructureElement&#45;&gt;InfrastructureOntologyThing -->
<g id="edge1" class="edge">
<title>InfrastructureElement&#45;&gt;InfrastructureOntologyThing</title>
<path fill="none" stroke="black" d="M227,-322.71C227,-330.47 227,-339.92 227,-348.74"/>
<polygon fill="none" stroke="black" points="223.5,-348.66 227,-358.66 230.5,-348.66 223.5,-348.66"/>
</g>
<!-- Invis -->
<!-- InfrastructureElement&#45;&gt;Invis -->
<!-- cityUnits__MonetaryValue -->
<g id="node4" class="node">
<title>cityUnits__MonetaryValue</title>
<polygon fill="lightgray" stroke="none" points="17.38,-197.88 17.38,-214.12 150.62,-214.12 150.62,-197.88 17.38,-197.88"/>
<text xml:space="preserve" text-anchor="start" x="18.38" y="-201.72" font-family="Arial" font-size="12.00">cityUnits::MonetaryValue</text>
<polygon fill="none" stroke="black" points="16.38,-196.88 16.38,-215.12 151.62,-215.12 151.62,-196.88 16.38,-196.88"/>
</g>
<!-- InfrastructureElement&#45;&gt;cityUnits__MonetaryValue -->
<g id="edge6" class="edge">
<title>InfrastructureElement&#45;&gt;cityUnits__MonetaryValue</title>
<path fill="none" stroke="black" d="M168.66,-288.29C139.17,-280.13 109.04,-271.38 106.5,-269 96.94,-260.04 91.43,-246.71 88.26,-234.69"/>
<polygon fill="black" stroke="black" points="91.75,-234.28 86.2,-225.25 84.91,-235.76 91.75,-234.28"/>
<text xml:space="preserve" text-anchor="middle" x="141.75" y="-258.55" font-family="Arial" font-size="11.00"> i72::hasValue </text>
<text xml:space="preserve" text-anchor="middle" x="141.75" y="-245.05" font-family="Arial" font-size="11.00"> «only» &#160;</text>
</g>
<!-- contact__Address -->
<g id="node5" class="node">
<title>contact__Address</title>
<polygon fill="lightgray" stroke="none" points="51.75,-98.88 51.75,-115.12 142.25,-115.12 142.25,-98.88 51.75,-98.88"/>
<text xml:space="preserve" text-anchor="start" x="52.75" y="-102.72" font-family="Arial" font-size="12.00">contact::Address</text>
<polygon fill="none" stroke="black" points="50.75,-97.88 50.75,-116.12 143.25,-116.12 143.25,-97.88 50.75,-97.88"/>
</g>
<!-- InfrastructureElement&#45;&gt;contact__Address -->
<g id="edge9" class="edge">
<title>InfrastructureElement&#45;&gt;contact__Address</title>
<path fill="none" stroke="black" d="M218.6,-287.37C206.76,-264.4 184.02,-221.94 161,-188 148.06,-168.93 131.83,-148.67 118.95,-133.31"/>
<polygon fill="black" stroke="black" points="121.91,-131.4 112.78,-126.03 116.57,-135.92 121.91,-131.4"/>
<text xml:space="preserve" text-anchor="middle" x="234.51" y="-209.05" font-family="Arial" font-size="11.00"> contact::hasAddress </text>
<text xml:space="preserve" text-anchor="middle" x="234.51" y="-195.55" font-family="Arial" font-size="11.00"> «only» &#160;</text>
</g>
<!-- spatialLoc__Location -->
<g id="node6" class="node">
<title>spatialLoc__Location</title>
<polygon fill="lightgray" stroke="none" points="42.75,-25.88 42.75,-42.12 151.25,-42.12 151.25,-25.88 42.75,-25.88"/>
<text xml:space="preserve" text-anchor="start" x="43.75" y="-29.73" font-family="Arial" font-size="12.00">spatialLoc::Location</text>
<polygon fill="none" stroke="black" points="41.75,-24.88 41.75,-43.12 152.25,-43.12 152.25,-24.88 41.75,-24.88"/>
</g>
<!-- InfrastructureElement&#45;&gt;spatialLoc__Location -->
<g id="edge8" class="edge">
<title>InfrastructureElement&#45;&gt;spatialLoc__Location</title>
<path fill="none" stroke="black" d="M247.17,-287.35C271.6,-265.06 307.45,-224.11 290,-188 260.07,-126.08 191.57,-81.57 144.77,-57.04"/>
<polygon fill="black" stroke="black" points="146.4,-53.94 135.9,-52.51 143.22,-60.17 146.4,-53.94"/>
<text xml:space="preserve" text-anchor="middle" x="338.35" y="-159.55" font-family="Arial" font-size="11.00"> spatialLoc::hasLocation </text>
<text xml:space="preserve" text-anchor="middle" x="338.35" y="-146.05" font-family="Arial" font-size="11.00"> «only» &#160;</text>
</g>
<!-- Invis&#45;&gt;cityUnits__MonetaryValue -->
<!-- cityUnits__MonetaryValue&#45;&gt;contact__Address -->
<!-- contact__Address&#45;&gt;spatialLoc__Location -->
</g>
</svg>
