<?xml version="1.0" encoding="UTF-8" standalone="no"?>
<!DOCTYPE svg PUBLIC "-//W3C//DTD SVG 1.1//EN"
 "http://www.w3.org/Graphics/SVG/1.1/DTD/svg11.dtd">
<!-- Generated by graphviz version 14.0.2 (20251019.1705)
 -->
<!-- Pages: 1 -->
<svg width="321pt" height="139pt"
 viewBox="0.00 0.00 321.00 139.00" xmlns="http://www.w3.org/2000/svg" xmlns:xlink="http://www.w3.org/1999/xlink">
<g id="graph0" class="graph" transform="scale(1 1) rotate(0) translate(4 135.38)">
<polygon fill="white" stroke="none" points="-4,4 -4,-135.38 316.62,-135.38 316.62,4 -4,4"/>
<g id="clust2" class="cluster">
<title>cluster_associated</title>
</g>
<!-- Operation -->
<g id="node1" class="node">
<title>Operation</title>
<g id="a_node1"><a xlink:href="../classes/Organization__Operation.md" xlink:title="&lt;TABLE&gt;">
<polygon fill="lightgray" stroke="none" points="49.75,-42.12 49.75,-58.38 223.5,-58.38 223.5,-42.12 49.75,-42.12"/>
<text xml:space="preserve" text-anchor="start" x="110.38" y="-45.98" font-family="Arial" font-size="12.00">Operation</text>
<text xml:space="preserve" text-anchor="start" x="50.75" y="-29.73" font-family="Arial" font-size="12.00">closingTime: xsd::time «max 1»</text>
<text xml:space="preserve" text-anchor="start" x="50.75" y="-13.47" font-family="Arial" font-size="12.00">openingTime: xsd::time «max 1»</text>
<polygon fill="none" stroke="black" points="48.75,-8.62 48.75,-59.38 224.5,-59.38 224.5,-8.62 48.75,-8.62"/>
</a>
</g>
</g>
<!-- CityOrgOntologyThing -->
<g id="node2" class="node">
<title>CityOrgOntologyThing</title>
<g id="a_node2"><a xlink:href="../_counters/Organization__CityOrgOntologyThing.md" xlink:title="&lt;TABLE&gt;">
<polygon fill="lightgray" stroke="none" points="1,-105.25 1,-121.5 122.25,-121.5 122.25,-105.25 1,-105.25"/>
<text xml:space="preserve" text-anchor="start" x="2" y="-109.1" font-family="Arial" font-size="12.00">CityOrgOntologyThing</text>
<polygon fill="none" stroke="black" points="0,-104.25 0,-122.5 123.25,-122.5 123.25,-104.25 0,-104.25"/>
</a>
</g>
</g>
<!-- Operation&#45;&gt;CityOrgOntologyThing -->
<g id="edge1" class="edge">
<title>Operation&#45;&gt;CityOrgOntologyThing</title>
<path fill="none" stroke="black" d="M113.27,-59.1C104.57,-68.07 94.68,-78.27 85.9,-87.33"/>
<polygon fill="none" stroke="black" points="83.4,-84.88 78.95,-94.5 88.43,-89.75 83.4,-84.88"/>
</g>
<!-- resource__RecurringEvent -->
<g id="node3" class="node">
<title>resource__RecurringEvent</title>
<polygon fill="lightgray" stroke="none" points="142.75,-105.25 142.75,-121.5 280.5,-121.5 280.5,-105.25 142.75,-105.25"/>
<text xml:space="preserve" text-anchor="start" x="143.75" y="-109.1" font-family="Arial" font-size="12.00">resource::RecurringEvent</text>
<polygon fill="none" stroke="black" points="141.75,-104.25 141.75,-122.5 281.5,-122.5 281.5,-104.25 141.75,-104.25"/>
</g>
<!-- Operation&#45;&gt;resource__RecurringEvent -->
<g id="edge2" class="edge">
<title>Operation&#45;&gt;resource__RecurringEvent</title>
<path fill="none" stroke="black" d="M159.98,-59.1C168.68,-68.07 178.57,-78.27 187.35,-87.33"/>
<polygon fill="none" stroke="black" points="184.82,-89.75 194.3,-94.5 189.85,-84.88 184.82,-89.75"/>
</g>
<!-- Invis -->
</g>
</svg>
