<?xml version="1.0" encoding="UTF-8" standalone="no"?>
<!DOCTYPE svg PUBLIC "-//W3C//DTD SVG 1.1//EN"
 "http://www.w3.org/Graphics/SVG/1.1/DTD/svg11.dtd">
<!-- Generated by graphviz version 14.0.2 (20251019.1705)
 -->
<!-- Pages: 1 -->
<svg width="269pt" height="404pt"
 viewBox="0.00 0.00 269.00 404.00" xmlns="http://www.w3.org/2000/svg" xmlns:xlink="http://www.w3.org/1999/xlink">
<g id="graph0" class="graph" transform="scale(1 1) rotate(0) translate(4 400)">
<polygon fill="white" stroke="none" points="-4,4 -4,-400 264.85,-400 264.85,4 -4,4"/>
<g id="clust2" class="cluster">
<title>cluster_associated</title>
</g>
<!-- Role -->
<g id="node1" class="node">
<title>Role</title>
<g id="a_node1"><a xlink:href="../classes/Organization__Role.md" xlink:title="&lt;TABLE&gt;">
<polygon fill="lightgray" stroke="none" points="161.25,-296.88 161.25,-313.12 188.75,-313.12 188.75,-296.88 161.25,-296.88"/>
<text xml:space="preserve" text-anchor="start" x="162.25" y="-300.73" font-family="Arial" font-size="12.00">Role</text>
<polygon fill="none" stroke="black" points="160.25,-295.88 160.25,-314.12 189.75,-314.12 189.75,-295.88 160.25,-295.88"/>
</a>
</g>
</g>
<!-- CityOrgOntologyThing -->
<g id="node2" class="node">
<title>CityOrgOntologyThing</title>
<g id="a_node2"><a xlink:href="../_counters/Organization__CityOrgOntologyThing.md" xlink:title="&lt;TABLE&gt;">
<polygon fill="lightgray" stroke="none" points="60.38,-369.88 60.38,-386.12 181.62,-386.12 181.62,-369.88 60.38,-369.88"/>
<text xml:space="preserve" text-anchor="start" x="61.38" y="-373.73" font-family="Arial" font-size="12.00">CityOrgOntologyThing</text>
<polygon fill="none" stroke="black" points="59.38,-368.88 59.38,-387.12 182.62,-387.12 182.62,-368.88 59.38,-368.88"/>
</a>
</g>
</g>
<!-- Role&#45;&gt;CityOrgOntologyThing -->
<g id="edge1" class="edge">
<title>Role&#45;&gt;CityOrgOntologyThing</title>
<path fill="none" stroke="black" d="M162.29,-322.71C155.85,-331.17 147.89,-341.65 140.67,-351.13"/>
<polygon fill="none" stroke="black" points="137.98,-348.89 134.71,-358.97 143.55,-353.13 137.98,-348.89"/>
</g>
<!-- org__Role -->
<g id="node3" class="node">
<title>org__Role</title>
<polygon fill="lightgray" stroke="none" points="202.62,-369.88 202.62,-386.12 253.38,-386.12 253.38,-369.88 202.62,-369.88"/>
<text xml:space="preserve" text-anchor="start" x="203.62" y="-373.73" font-family="Arial" font-size="12.00">org::Role</text>
<polygon fill="none" stroke="black" points="201.62,-368.88 201.62,-387.12 254.38,-387.12 254.38,-368.88 201.62,-368.88"/>
</g>
<!-- Role&#45;&gt;org__Role -->
<g id="edge2" class="edge">
<title>Role&#45;&gt;org__Role</title>
<path fill="none" stroke="black" d="M187.47,-322.71C193.79,-331.17 201.61,-341.65 208.69,-351.13"/>
<polygon fill="none" stroke="black" points="205.75,-353.04 214.53,-358.96 211.36,-348.85 205.75,-353.04"/>
</g>
<!-- Invis -->
<!-- Role&#45;&gt;Invis -->
<!-- activity__Activity -->
<g id="node5" class="node">
<title>activity__Activity</title>
<polygon fill="lightgray" stroke="none" points="40.5,-197.88 40.5,-214.12 123.5,-214.12 123.5,-197.88 40.5,-197.88"/>
<text xml:space="preserve" text-anchor="start" x="41.5" y="-201.72" font-family="Arial" font-size="12.00">activity::Activity</text>
<polygon fill="none" stroke="black" points="39.5,-196.88 39.5,-215.12 124.5,-215.12 124.5,-196.88 39.5,-196.88"/>
</g>
<!-- Role&#45;&gt;activity__Activity -->
<g id="edge8" class="edge">
<title>Role&#45;&gt;activity__Activity</title>
<path fill="none" stroke="black" d="M148.09,-288.88C146.72,-288.22 145.35,-287.59 144,-287 121.13,-276.96 106.7,-288.23 90.75,-269 83.07,-259.75 80.4,-246.92 79.83,-235.33"/>
<polygon fill="black" stroke="black" points="83.33,-235.44 79.88,-225.42 76.33,-235.4 83.33,-235.44"/>
<text xml:space="preserve" text-anchor="middle" x="121.88" y="-258.55" font-family="Arial" font-size="11.00"> hasProcess </text>
<text xml:space="preserve" text-anchor="middle" x="121.88" y="-245.05" font-family="Arial" font-size="11.00"> «only» &#160;</text>
</g>
<!-- Goal -->
<g id="node6" class="node">
<title>Goal</title>
<g id="a_node6"><a xlink:href="../_counters/Organization__Goal.md" xlink:title="&lt;TABLE&gt;">
<polygon fill="lightgray" stroke="none" points="68.25,-98.88 68.25,-115.12 95.75,-115.12 95.75,-98.88 68.25,-98.88"/>
<text xml:space="preserve" text-anchor="start" x="69.25" y="-102.72" font-family="Arial" font-size="12.00">Goal</text>
<polygon fill="none" stroke="black" points="67.25,-97.88 67.25,-116.12 96.75,-116.12 96.75,-97.88 67.25,-97.88"/>
</a>
</g>
</g>
<!-- Role&#45;&gt;Goal -->
<g id="edge7" class="edge">
<title>Role&#45;&gt;Goal</title>
<path fill="none" stroke="black" d="M170.47,-287.37C163.92,-264.38 150.72,-221.91 134,-188 124.69,-169.11 111.8,-149.25 101.18,-134.04"/>
<polygon fill="black" stroke="black" points="104.12,-132.13 95.47,-126.01 98.41,-136.19 104.12,-132.13"/>
<text xml:space="preserve" text-anchor="middle" x="171.8" y="-209.05" font-family="Arial" font-size="11.00"> hasGoal </text>
<text xml:space="preserve" text-anchor="middle" x="171.8" y="-195.55" font-family="Arial" font-size="11.00"> «only» &#160;</text>
</g>
<!-- resource1__Resource -->
<g id="node7" class="node">
<title>resource1__Resource</title>
<polygon fill="lightgray" stroke="none" points="17.5,-25.88 17.5,-42.12 130.5,-42.12 130.5,-25.88 17.5,-25.88"/>
<text xml:space="preserve" text-anchor="start" x="18.5" y="-29.73" font-family="Arial" font-size="12.00">resource1::Resource</text>
<polygon fill="none" stroke="black" points="16.5,-24.88 16.5,-43.12 131.5,-43.12 131.5,-24.88 16.5,-24.88"/>
</g>
<!-- Role&#45;&gt;resource1__Resource -->
<g id="edge9" class="edge">
<title>Role&#45;&gt;resource1__Resource</title>
<path fill="none" stroke="black" d="M184.13,-287.08C195.25,-264.14 211.16,-222.09 199,-188 180.02,-134.78 133.71,-86.69 103.1,-59.18"/>
<polygon fill="black" stroke="black" points="105.49,-56.62 95.67,-52.64 100.86,-61.88 105.49,-56.62"/>
<text xml:space="preserve" text-anchor="middle" x="225.97" y="-159.55" font-family="Arial" font-size="11.00"> hasResource </text>
<text xml:space="preserve" text-anchor="middle" x="225.97" y="-146.05" font-family="Arial" font-size="11.00"> «only» &#160;</text>
</g>
<!-- Invis&#45;&gt;activity__Activity -->
<!-- activity__Activity&#45;&gt;Goal -->
<!-- Goal&#45;&gt;resource1__Resource -->
</g>
</svg>
