<?xml version="1.0" encoding="UTF-8" standalone="no"?>
<!DOCTYPE svg PUBLIC "-//W3C//DTD SVG 1.1//EN"
 "http://www.w3.org/Graphics/SVG/1.1/DTD/svg11.dtd">
<!-- Generated by graphviz version 14.0.2 (20251019.1705)
 -->
<!-- Pages: 1 -->
<svg width="224pt" height="132pt"
 viewBox="0.00 0.00 224.00 132.00" xmlns="http://www.w3.org/2000/svg" xmlns:xlink="http://www.w3.org/1999/xlink">
<g id="graph0" class="graph" transform="scale(1 1) rotate(0) translate(4 128)">
<polygon fill="white" stroke="none" points="-4,4 -4,-128 219.88,-128 219.88,4 -4,4"/>
<g id="clust2" class="cluster">
<title>cluster_associated</title>
</g>
<!-- Goal -->
<g id="node1" class="node">
<title>Goal</title>
<g id="a_node1"><a xlink:href="../classes/Organization__Goal.md" xlink:title="&lt;TABLE&gt;">
<polygon fill="lightgray" stroke="none" points="81.5,-25.88 81.5,-42.12 109,-42.12 109,-25.88 81.5,-25.88"/>
<text xml:space="preserve" text-anchor="start" x="82.5" y="-29.73" font-family="Arial" font-size="12.00">Goal</text>
<polygon fill="none" stroke="black" points="80.5,-24.88 80.5,-43.12 110,-43.12 110,-24.88 80.5,-24.88"/>
</a>
</g>
</g>
<!-- activity__State -->
<g id="node2" class="node">
<title>activity__State</title>
<polygon fill="lightgray" stroke="none" points="1,-97.88 1,-114.12 73.5,-114.12 73.5,-97.88 1,-97.88"/>
<text xml:space="preserve" text-anchor="start" x="2" y="-101.72" font-family="Arial" font-size="12.00">activity::State</text>
<polygon fill="none" stroke="black" points="0,-96.88 0,-115.12 74.5,-115.12 74.5,-96.88 0,-96.88"/>
</g>
<!-- Goal&#45;&gt;activity__State -->
<g id="edge1" class="edge">
<title>Goal&#45;&gt;activity__State</title>
<path fill="none" stroke="black" d="M81.34,-51.79C74.52,-60.02 66.16,-70.11 58.55,-79.29"/>
<polygon fill="none" stroke="black" points="55.94,-76.96 52.26,-86.89 61.33,-81.42 55.94,-76.96"/>
</g>
<!-- CityOrgOntologyThing -->
<g id="node3" class="node">
<title>CityOrgOntologyThing</title>
<g id="a_node3"><a xlink:href="../_counters/Organization__CityOrgOntologyThing.md" xlink:title="&lt;TABLE&gt;">
<polygon fill="lightgray" stroke="none" points="93.62,-97.88 93.62,-114.12 214.88,-114.12 214.88,-97.88 93.62,-97.88"/>
<text xml:space="preserve" text-anchor="start" x="94.62" y="-101.72" font-family="Arial" font-size="12.00">CityOrgOntologyThing</text>
<polygon fill="none" stroke="black" points="92.62,-96.88 92.62,-115.12 215.88,-115.12 215.88,-96.88 92.62,-96.88"/>
</a>
</g>
</g>
<!-- Goal&#45;&gt;CityOrgOntologyThing -->
<g id="edge2" class="edge">
<title>Goal&#45;&gt;CityOrgOntologyThing</title>
<path fill="none" stroke="black" d="M109.4,-51.79C116.34,-60.02 124.85,-70.11 132.58,-79.29"/>
<polygon fill="none" stroke="black" points="129.87,-81.51 138.99,-86.9 135.22,-77 129.87,-81.51"/>
</g>
<!-- Invis -->
</g>
</svg>
