<?xml version="1.0" encoding="UTF-8" standalone="no"?>
<!DOCTYPE svg PUBLIC "-//W3C//DTD SVG 1.1//EN"
 "http://www.w3.org/Graphics/SVG/1.1/DTD/svg11.dtd">
<!-- Generated by graphviz version 14.0.2 (20251019.1705)
 -->
<!-- Pages: 1 -->
<svg width="242pt" height="232pt"
 viewBox="0.00 0.00 242.00 232.00" xmlns="http://www.w3.org/2000/svg" xmlns:xlink="http://www.w3.org/1999/xlink">
<g id="graph0" class="graph" transform="scale(1 1) rotate(0) translate(4 228)">
<polygon fill="white" stroke="none" points="-4,4 -4,-228 238,-228 238,4 -4,4"/>
<g id="clust2" class="cluster">
<title>cluster_associated</title>
</g>
<!-- Salary -->
<g id="node1" class="node">
<title>Salary</title>
<g id="a_node1"><a xlink:href="../classes/Organization__Salary.md" xlink:title="&lt;TABLE&gt;">
<polygon fill="lightgray" stroke="none" points="174.75,-124.88 174.75,-141.12 211.25,-141.12 211.25,-124.88 174.75,-124.88"/>
<text xml:space="preserve" text-anchor="start" x="175.75" y="-128.72" font-family="Arial" font-size="12.00">Salary</text>
<polygon fill="none" stroke="black" points="173.75,-123.88 173.75,-142.12 212.25,-142.12 212.25,-123.88 173.75,-123.88"/>
</a>
</g>
</g>
<!-- Compensation -->
<g id="node2" class="node">
<title>Compensation</title>
<g id="a_node2"><a xlink:href="../_counters/Organization__Compensation.md" xlink:title="&lt;TABLE&gt;">
<polygon fill="lightgray" stroke="none" points="153,-197.88 153,-214.12 233,-214.12 233,-197.88 153,-197.88"/>
<text xml:space="preserve" text-anchor="start" x="154" y="-201.72" font-family="Arial" font-size="12.00">Compensation</text>
<polygon fill="none" stroke="black" points="152,-196.88 152,-215.12 234,-215.12 234,-196.88 152,-196.88"/>
</a>
</g>
</g>
<!-- Salary&#45;&gt;Compensation -->
<g id="edge1" class="edge">
<title>Salary&#45;&gt;Compensation</title>
<path fill="none" stroke="black" d="M193,-150.71C193,-158.47 193,-167.92 193,-176.74"/>
<polygon fill="none" stroke="black" points="189.5,-176.66 193,-186.66 196.5,-176.66 189.5,-176.66"/>
</g>
<!-- Invis -->
<!-- Salary&#45;&gt;Invis -->
<!-- cityunits__MonetaryValue -->
<g id="node4" class="node">
<title>cityunits__MonetaryValue</title>
<polygon fill="lightgray" stroke="none" points="17.5,-25.88 17.5,-42.12 148.5,-42.12 148.5,-25.88 17.5,-25.88"/>
<text xml:space="preserve" text-anchor="start" x="18.5" y="-29.73" font-family="Arial" font-size="12.00">cityunits::MonetaryValue</text>
<polygon fill="none" stroke="black" points="16.5,-24.88 16.5,-43.12 149.5,-43.12 149.5,-24.88 16.5,-24.88"/>
</g>
<!-- Salary&#45;&gt;cityunits__MonetaryValue -->
<g id="edge4" class="edge">
<title>Salary&#45;&gt;cityunits__MonetaryValue</title>
<path fill="none" stroke="black" d="M173.84,-115.1C156.33,-99.66 130.24,-76.66 110.51,-59.26"/>
<polygon fill="black" stroke="black" points="112.89,-56.69 103.08,-52.7 108.26,-61.94 112.89,-56.69"/>
<text xml:space="preserve" text-anchor="middle" x="179.59" y="-86.55" font-family="Arial" font-size="11.00"> annualPay </text>
<text xml:space="preserve" text-anchor="middle" x="179.59" y="-73.05" font-family="Arial" font-size="11.00"> «max 1» &#160;</text>
</g>
<!-- Invis&#45;&gt;cityunits__MonetaryValue -->
</g>
</svg>
