<?xml version="1.0" encoding="UTF-8" standalone="no"?>
<!DOCTYPE svg PUBLIC "-//W3C//DTD SVG 1.1//EN"
 "http://www.w3.org/Graphics/SVG/1.1/DTD/svg11.dtd">
<!-- Generated by graphviz version 14.0.2 (20251019.1705)
 -->
<!-- Pages: 1 -->
<svg width="302pt" height="305pt"
 viewBox="0.00 0.00 302.00 305.00" xmlns="http://www.w3.org/2000/svg" xmlns:xlink="http://www.w3.org/1999/xlink">
<g id="graph0" class="graph" transform="scale(1 1) rotate(0) translate(4 301)">
<polygon fill="white" stroke="none" points="-4,4 -4,-301 297.75,-301 297.75,4 -4,4"/>
<g id="clust2" class="cluster">
<title>cluster_associated</title>
</g>
<!-- GovernmentOrganization -->
<g id="node1" class="node">
<title>GovernmentOrganization</title>
<g id="a_node1"><a xlink:href="../classes/Organization__GovernmentOrganization.md" xlink:title="&lt;TABLE&gt;">
<polygon fill="lightgray" stroke="none" points="157.25,-197.88 157.25,-214.12 292.75,-214.12 292.75,-197.88 157.25,-197.88"/>
<text xml:space="preserve" text-anchor="start" x="158.25" y="-201.72" font-family="Arial" font-size="12.00">GovernmentOrganization</text>
<polygon fill="none" stroke="black" points="156.25,-196.88 156.25,-215.12 293.75,-215.12 293.75,-196.88 156.25,-196.88"/>
</a>
</g>
</g>
<!-- Organization -->
<g id="node2" class="node">
<title>Organization</title>
<g id="a_node2"><a xlink:href="../_counters/Organization__Organization.md" xlink:title="&lt;TABLE&gt;">
<polygon fill="lightgray" stroke="none" points="189.88,-270.88 189.88,-287.12 260.12,-287.12 260.12,-270.88 189.88,-270.88"/>
<text xml:space="preserve" text-anchor="start" x="190.88" y="-274.73" font-family="Arial" font-size="12.00">Organization</text>
<polygon fill="none" stroke="black" points="188.88,-269.88 188.88,-288.12 261.12,-288.12 261.12,-269.88 188.88,-269.88"/>
</a>
</g>
</g>
<!-- GovernmentOrganization&#45;&gt;Organization -->
<g id="edge1" class="edge">
<title>GovernmentOrganization&#45;&gt;Organization</title>
<path fill="none" stroke="black" d="M225,-223.71C225,-231.47 225,-240.92 225,-249.74"/>
<polygon fill="none" stroke="black" points="221.5,-249.66 225,-259.66 228.5,-249.66 221.5,-249.66"/>
</g>
<!-- Invis -->
<!-- GovernmentOrganization&#45;&gt;Invis -->
<!-- city__JurisdictionalArea -->
<g id="node4" class="node">
<title>city__JurisdictionalArea</title>
<polygon fill="lightgray" stroke="none" points="17,-98.88 17,-115.12 139,-115.12 139,-98.88 17,-98.88"/>
<text xml:space="preserve" text-anchor="start" x="18" y="-102.72" font-family="Arial" font-size="12.00">city::JurisdictionalArea</text>
<polygon fill="none" stroke="black" points="16,-97.88 16,-116.12 140,-116.12 140,-97.88 16,-97.88"/>
</g>
<!-- GovernmentOrganization&#45;&gt;city__JurisdictionalArea -->
<g id="edge6" class="edge">
<title>GovernmentOrganization&#45;&gt;city__JurisdictionalArea</title>
<path fill="none" stroke="black" d="M164.19,-188.07C152.19,-183.27 140.12,-177.31 129.75,-170 116.18,-160.44 104.1,-146.47 95.03,-134.21"/>
<polygon fill="black" stroke="black" points="97.93,-132.24 89.3,-126.09 92.21,-136.28 97.93,-132.24"/>
<text xml:space="preserve" text-anchor="middle" x="157.88" y="-159.55" font-family="Arial" font-size="11.00"> jurisdiction </text>
<text xml:space="preserve" text-anchor="middle" x="157.88" y="-146.05" font-family="Arial" font-size="11.00"> «only» &#160;</text>
</g>
<!-- cityService__Program -->
<g id="node5" class="node">
<title>cityService__Program</title>
<polygon fill="lightgray" stroke="none" points="24.88,-25.88 24.88,-42.12 137.12,-42.12 137.12,-25.88 24.88,-25.88"/>
<text xml:space="preserve" text-anchor="start" x="25.88" y="-29.73" font-family="Arial" font-size="12.00">cityService::Program</text>
<polygon fill="none" stroke="black" points="23.88,-24.88 23.88,-43.12 138.12,-43.12 138.12,-24.88 23.88,-24.88"/>
</g>
<!-- GovernmentOrganization&#45;&gt;cityService__Program -->
<g id="edge5" class="edge">
<title>GovernmentOrganization&#45;&gt;cityService__Program</title>
<path fill="none" stroke="black" d="M216.48,-188.39C203.83,-164.68 178.38,-120.53 149,-89 138.78,-78.04 126.24,-67.44 114.73,-58.59"/>
<polygon fill="black" stroke="black" points="117.09,-55.98 106.99,-52.79 112.9,-61.59 117.09,-55.98"/>
<text xml:space="preserve" text-anchor="middle" x="209.4" y="-110.05" font-family="Arial" font-size="11.00"> hasProgram </text>
<text xml:space="preserve" text-anchor="middle" x="209.4" y="-96.55" font-family="Arial" font-size="11.00"> «only» &#160;</text>
</g>
<!-- Invis&#45;&gt;city__JurisdictionalArea -->
<!-- city__JurisdictionalArea&#45;&gt;cityService__Program -->
</g>
</svg>
