<?xml version="1.0" encoding="UTF-8" standalone="no"?>
<!DOCTYPE svg PUBLIC "-//W3C//DTD SVG 1.1//EN"
 "http://www.w3.org/Graphics/SVG/1.1/DTD/svg11.dtd">
<!-- Generated by graphviz version 14.0.2 (20251019.1705)
 -->
<!-- Pages: 1 -->
<svg width="231pt" height="232pt"
 viewBox="0.00 0.00 231.00 232.00" xmlns="http://www.w3.org/2000/svg" xmlns:xlink="http://www.w3.org/1999/xlink">
<g id="graph0" class="graph" transform="scale(1 1) rotate(0) translate(4 228)">
<polygon fill="white" stroke="none" points="-4,4 -4,-228 226.62,-228 226.62,4 -4,4"/>
<g id="clust2" class="cluster">
<title>cluster_associated</title>
</g>
<!-- EmploymentStatus -->
<g id="node1" class="node">
<title>EmploymentStatus</title>
<g id="a_node1"><a xlink:href="../classes/Organization__EmploymentStatus.md" xlink:title="&lt;TABLE&gt;">
<polygon fill="lightgray" stroke="none" points="109.75,-124.88 109.75,-141.12 212.25,-141.12 212.25,-124.88 109.75,-124.88"/>
<text xml:space="preserve" text-anchor="start" x="110.75" y="-128.72" font-family="Arial" font-size="12.00">EmploymentStatus</text>
<polygon fill="none" stroke="black" points="108.75,-123.88 108.75,-142.12 213.25,-142.12 213.25,-123.88 108.75,-123.88"/>
</a>
</g>
</g>
<!-- CityOrgOntologyThing -->
<g id="node2" class="node">
<title>CityOrgOntologyThing</title>
<g id="a_node2"><a xlink:href="../_counters/Organization__CityOrgOntologyThing.md" xlink:title="&lt;TABLE&gt;">
<polygon fill="lightgray" stroke="none" points="100.38,-197.88 100.38,-214.12 221.62,-214.12 221.62,-197.88 100.38,-197.88"/>
<text xml:space="preserve" text-anchor="start" x="101.38" y="-201.72" font-family="Arial" font-size="12.00">CityOrgOntologyThing</text>
<polygon fill="none" stroke="black" points="99.38,-196.88 99.38,-215.12 222.62,-215.12 222.62,-196.88 99.38,-196.88"/>
</a>
</g>
</g>
<!-- EmploymentStatus&#45;&gt;CityOrgOntologyThing -->
<g id="edge1" class="edge">
<title>EmploymentStatus&#45;&gt;CityOrgOntologyThing</title>
<path fill="none" stroke="black" d="M161,-150.71C161,-158.47 161,-167.92 161,-176.74"/>
<polygon fill="none" stroke="black" points="157.5,-176.66 161,-186.66 164.5,-176.66 157.5,-176.66"/>
</g>
<!-- Invis -->
<!-- EmploymentStatus&#45;&gt;Invis -->
<!-- code__Code -->
<g id="node4" class="node">
<title>code__Code</title>
<polygon fill="lightgray" stroke="none" points="17.25,-25.88 17.25,-42.12 80.75,-42.12 80.75,-25.88 17.25,-25.88"/>
<text xml:space="preserve" text-anchor="start" x="18.25" y="-29.73" font-family="Arial" font-size="12.00">code::Code</text>
<polygon fill="none" stroke="black" points="16.25,-24.88 16.25,-43.12 81.75,-43.12 81.75,-24.88 16.25,-24.88"/>
</g>
<!-- EmploymentStatus&#45;&gt;code__Code -->
<g id="edge4" class="edge">
<title>EmploymentStatus&#45;&gt;code__Code</title>
<path fill="none" stroke="black" d="M141.49,-115.1C123.58,-99.6 96.86,-76.45 76.74,-59.02"/>
<polygon fill="black" stroke="black" points="79.28,-56.59 69.43,-52.69 74.7,-61.89 79.28,-56.59"/>
<text xml:space="preserve" text-anchor="middle" x="157.7" y="-86.55" font-family="Arial" font-size="11.00"> code::hasCode </text>
<text xml:space="preserve" text-anchor="middle" x="157.7" y="-73.05" font-family="Arial" font-size="11.00"> «only» &#160;</text>
</g>
<!-- Invis&#45;&gt;code__Code -->
</g>
</svg>
