<?xml version="1.0" encoding="UTF-8" standalone="no"?>
<!DOCTYPE svg PUBLIC "-//W3C//DTD SVG 1.1//EN"
 "http://www.w3.org/Graphics/SVG/1.1/DTD/svg11.dtd">
<!-- Generated by graphviz version 14.0.2 (20251019.1705)
 -->
<!-- Pages: 1 -->
<svg width="557pt" height="576pt"
 viewBox="0.00 0.00 557.00 576.00" xmlns="http://www.w3.org/2000/svg" xmlns:xlink="http://www.w3.org/1999/xlink">
<g id="graph0" class="graph" transform="scale(1 1) rotate(0) translate(4 572)">
<polygon fill="white" stroke="none" points="-4,4 -4,-572 552.75,-572 552.75,4 -4,4"/>
<g id="clust2" class="cluster">
<title>cluster_associated</title>
</g>
<!-- Organization -->
<g id="node1" class="node">
<title>Organization</title>
<g id="a_node1"><a xlink:href="../classes/Organization__Organization.md" xlink:title="&lt;TABLE&gt;">
<polygon fill="lightgray" stroke="none" points="204.88,-468.88 204.88,-485.12 275.12,-485.12 275.12,-468.88 204.88,-468.88"/>
<text xml:space="preserve" text-anchor="start" x="205.88" y="-472.73" font-family="Arial" font-size="12.00">Organization</text>
<polygon fill="none" stroke="black" points="203.88,-467.88 203.88,-486.12 276.12,-486.12 276.12,-467.88 203.88,-467.88"/>
</a>
</g>
</g>
<!-- cdmOrgStruct__Organization -->
<g id="node2" class="node">
<title>cdmOrgStruct__Organization</title>
<polygon fill="lightgray" stroke="none" points="87.5,-541.88 87.5,-558.12 236.5,-558.12 236.5,-541.88 87.5,-541.88"/>
<text xml:space="preserve" text-anchor="start" x="88.5" y="-545.73" font-family="Arial" font-size="12.00">cdmOrgStruct::Organization</text>
<polygon fill="none" stroke="black" points="86.5,-540.88 86.5,-559.12 237.5,-559.12 237.5,-540.88 86.5,-540.88"/>
</g>
<!-- Organization&#45;&gt;cdmOrgStruct__Organization -->
<g id="edge1" class="edge">
<title>Organization&#45;&gt;cdmOrgStruct__Organization</title>
<path fill="none" stroke="black" d="M221.38,-494.95C211.62,-503.84 199.48,-514.88 188.74,-524.66"/>
<polygon fill="none" stroke="black" points="186.64,-521.84 181.6,-531.16 191.36,-527.01 186.64,-521.84"/>
</g>
<!-- CityOrgOntologyThing -->
<g id="node3" class="node">
<title>CityOrgOntologyThing</title>
<g id="a_node3"><a xlink:href="../_counters/Organization__CityOrgOntologyThing.md" xlink:title="&lt;TABLE&gt;">
<polygon fill="lightgray" stroke="none" points="256.38,-541.88 256.38,-558.12 377.62,-558.12 377.62,-541.88 256.38,-541.88"/>
<text xml:space="preserve" text-anchor="start" x="257.38" y="-545.73" font-family="Arial" font-size="12.00">CityOrgOntologyThing</text>
<polygon fill="none" stroke="black" points="255.38,-540.88 255.38,-559.12 378.62,-559.12 378.62,-540.88 255.38,-540.88"/>
</a>
</g>
</g>
<!-- Organization&#45;&gt;CityOrgOntologyThing -->
<g id="edge2" class="edge">
<title>Organization&#45;&gt;CityOrgOntologyThing</title>
<path fill="none" stroke="black" d="M258.38,-494.95C267.93,-503.75 279.76,-514.66 290.29,-524.37"/>
<polygon fill="none" stroke="black" points="287.92,-526.94 297.64,-531.15 292.66,-521.8 287.92,-526.94"/>
</g>
<!-- Invis -->
<!-- Organization&#45;&gt;Invis -->
<!-- contact__Address -->
<g id="node5" class="node">
<title>contact__Address</title>
<polygon fill="lightgray" stroke="none" points="16.75,-369.88 16.75,-386.12 107.25,-386.12 107.25,-369.88 16.75,-369.88"/>
<text xml:space="preserve" text-anchor="start" x="17.75" y="-373.73" font-family="Arial" font-size="12.00">contact::Address</text>
<polygon fill="none" stroke="black" points="15.75,-368.88 15.75,-387.12 108.25,-387.12 108.25,-368.88 15.75,-368.88"/>
</g>
<!-- Organization&#45;&gt;contact__Address -->
<g id="edge13" class="edge">
<title>Organization&#45;&gt;contact__Address</title>
<path fill="none" stroke="black" d="M203.93,-468.91C153.97,-459.06 69.65,-442.27 68.5,-441 60.32,-431.98 58.07,-418.92 58.12,-407.1"/>
<polygon fill="black" stroke="black" points="61.6,-407.61 58.72,-397.41 54.61,-407.18 61.6,-407.61"/>
<text xml:space="preserve" text-anchor="middle" x="99.25" y="-430.55" font-family="Arial" font-size="11.00"> orgAddress </text>
<text xml:space="preserve" text-anchor="middle" x="99.25" y="-417.05" font-family="Arial" font-size="11.00"> «only» &#160;</text>
</g>
<!-- contact__PhoneNumber -->
<g id="node6" class="node">
<title>contact__PhoneNumber</title>
<polygon fill="lightgray" stroke="none" points="16.88,-270.88 16.88,-287.12 141.12,-287.12 141.12,-270.88 16.88,-270.88"/>
<text xml:space="preserve" text-anchor="start" x="17.88" y="-274.73" font-family="Arial" font-size="12.00">contact::PhoneNumber</text>
<polygon fill="none" stroke="black" points="15.88,-269.88 15.88,-288.12 142.12,-288.12 142.12,-269.88 15.88,-269.88"/>
</g>
<!-- Organization&#45;&gt;contact__PhoneNumber -->
<g id="edge10" class="edge">
<title>Organization&#45;&gt;contact__PhoneNumber</title>
<path fill="none" stroke="black" d="M220.62,-459.21C203.22,-443.68 177.46,-419.51 157.75,-396 133.53,-367.11 109.79,-330.72 94.82,-306.48"/>
<polygon fill="black" stroke="black" points="97.95,-304.89 89.75,-298.18 91.97,-308.54 97.95,-304.89"/>
<text xml:space="preserve" text-anchor="middle" x="214.38" y="-381.05" font-family="Arial" font-size="11.00"> contact::hasTelephone </text>
<text xml:space="preserve" text-anchor="middle" x="214.38" y="-367.55" font-family="Arial" font-size="11.00"> «only» &#160;</text>
</g>
<!-- Goal -->
<g id="node7" class="node">
<title>Goal</title>
<g id="a_node7"><a xlink:href="../_counters/Organization__Goal.md" xlink:title="&lt;TABLE&gt;">
<polygon fill="lightgray" stroke="none" points="87.25,-171.88 87.25,-188.12 114.75,-188.12 114.75,-171.88 87.25,-171.88"/>
<text xml:space="preserve" text-anchor="start" x="88.25" y="-175.72" font-family="Arial" font-size="12.00">Goal</text>
<polygon fill="none" stroke="black" points="86.25,-170.88 86.25,-189.12 115.75,-189.12 115.75,-170.88 86.25,-170.88"/>
</a>
</g>
</g>
<!-- Organization&#45;&gt;Goal -->
<g id="edge11" class="edge">
<title>Organization&#45;&gt;Goal</title>
<path fill="none" stroke="black" d="M251.17,-459.08C264.85,-436.12 284.6,-394.07 271,-360 243.8,-291.87 176.98,-234.82 135.67,-204.5"/>
<polygon fill="black" stroke="black" points="137.9,-201.79 127.74,-198.79 133.81,-207.47 137.9,-201.79"/>
<text xml:space="preserve" text-anchor="middle" x="285.41" y="-331.55" font-family="Arial" font-size="11.00"> hasGoal </text>
<text xml:space="preserve" text-anchor="middle" x="285.41" y="-318.05" font-family="Arial" font-size="11.00"> «only» &#160;</text>
</g>
<!-- Operation -->
<g id="node8" class="node">
<title>Operation</title>
<g id="a_node8"><a xlink:href="../_counters/Organization__Operation.md" xlink:title="&lt;TABLE&gt;">
<polygon fill="lightgray" stroke="none" points="73.75,-98.88 73.75,-115.12 128.25,-115.12 128.25,-98.88 73.75,-98.88"/>
<text xml:space="preserve" text-anchor="start" x="74.75" y="-102.72" font-family="Arial" font-size="12.00">Operation</text>
<polygon fill="none" stroke="black" points="72.75,-97.88 72.75,-116.12 129.25,-116.12 129.25,-97.88 72.75,-97.88"/>
</a>
</g>
</g>
<!-- Organization&#45;&gt;Operation -->
<g id="edge12" class="edge">
<title>Organization&#45;&gt;Operation</title>
<path fill="none" stroke="black" d="M267.64,-459.31C291.78,-442.4 323,-413.8 323,-379 323,-379 323,-379 323,-179 323,-141.1 204.11,-120.65 140.34,-112.4"/>
<polygon fill="black" stroke="black" points="140.97,-108.95 130.62,-111.19 140.11,-115.9 140.97,-108.95"/>
<text xml:space="preserve" text-anchor="middle" x="363.12" y="-282.05" font-family="Arial" font-size="11.00"> operatingHours </text>
<text xml:space="preserve" text-anchor="middle" x="363.12" y="-268.55" font-family="Arial" font-size="11.00"> «only» &#160;</text>
</g>
<!-- spatialLoc__Location -->
<g id="node9" class="node">
<title>spatialLoc__Location</title>
<polygon fill="lightgray" stroke="none" points="32.75,-25.88 32.75,-42.12 141.25,-42.12 141.25,-25.88 32.75,-25.88"/>
<text xml:space="preserve" text-anchor="start" x="33.75" y="-29.73" font-family="Arial" font-size="12.00">spatialLoc::Location</text>
<polygon fill="none" stroke="black" points="31.75,-24.88 31.75,-43.12 142.25,-43.12 142.25,-24.88 31.75,-24.88"/>
</g>
<!-- Organization&#45;&gt;spatialLoc__Location -->
<g id="edge9" class="edge">
<title>Organization&#45;&gt;spatialLoc__Location</title>
<path fill="none" stroke="black" d="M275.93,-473.63C331.25,-467.82 431,-447.8 431,-379 431,-379 431,-379 431,-106 431,-49.91 253.35,-37.77 153.38,-35.38"/>
<polygon fill="black" stroke="black" points="153.47,-31.88 143.4,-35.17 153.33,-38.88 153.47,-31.88"/>
<text xml:space="preserve" text-anchor="middle" x="489.88" y="-232.55" font-family="Arial" font-size="11.00"> spatialLoc::hasLocation </text>
<text xml:space="preserve" text-anchor="middle" x="489.88" y="-219.05" font-family="Arial" font-size="11.00"> «only» &#160;</text>
</g>
<!-- Invis&#45;&gt;contact__Address -->
<!-- contact__Address&#45;&gt;contact__PhoneNumber -->
<!-- contact__PhoneNumber&#45;&gt;Goal -->
<!-- Goal&#45;&gt;Operation -->
<!-- Operation&#45;&gt;spatialLoc__Location -->
</g>
</svg>
