<?xml version="1.0" encoding="UTF-8" standalone="no"?>
<!DOCTYPE svg PUBLIC "-//W3C//DTD SVG 1.1//EN"
 "http://www.w3.org/Graphics/SVG/1.1/DTD/svg11.dtd">
<!-- Generated by graphviz version 14.0.2 (20251019.1705)
 -->
<!-- Pages: 1 -->
<svg width="215pt" height="232pt"
 viewBox="0.00 0.00 215.00 232.00" xmlns="http://www.w3.org/2000/svg" xmlns:xlink="http://www.w3.org/1999/xlink">
<g id="graph0" class="graph" transform="scale(1 1) rotate(0) translate(4 228)">
<polygon fill="white" stroke="none" points="-4,4 -4,-228 210.62,-228 210.62,4 -4,4"/>
<g id="clust2" class="cluster">
<title>cluster_associated</title>
</g>
<!-- IndustryType -->
<g id="node1" class="node">
<title>IndustryType</title>
<g id="a_node1"><a xlink:href="../classes/Organization__IndustryType.md" xlink:title="&lt;TABLE&gt;">
<polygon fill="lightgray" stroke="none" points="109.88,-124.88 109.88,-141.12 180.12,-141.12 180.12,-124.88 109.88,-124.88"/>
<text xml:space="preserve" text-anchor="start" x="110.88" y="-128.72" font-family="Arial" font-size="12.00">IndustryType</text>
<polygon fill="none" stroke="black" points="108.88,-123.88 108.88,-142.12 181.12,-142.12 181.12,-123.88 108.88,-123.88"/>
</a>
</g>
</g>
<!-- CityOrgOntologyThing -->
<g id="node2" class="node">
<title>CityOrgOntologyThing</title>
<g id="a_node2"><a xlink:href="../_counters/Organization__CityOrgOntologyThing.md" xlink:title="&lt;TABLE&gt;">
<polygon fill="lightgray" stroke="none" points="84.38,-197.88 84.38,-214.12 205.62,-214.12 205.62,-197.88 84.38,-197.88"/>
<text xml:space="preserve" text-anchor="start" x="85.38" y="-201.72" font-family="Arial" font-size="12.00">CityOrgOntologyThing</text>
<polygon fill="none" stroke="black" points="83.38,-196.88 83.38,-215.12 206.62,-215.12 206.62,-196.88 83.38,-196.88"/>
</a>
</g>
</g>
<!-- IndustryType&#45;&gt;CityOrgOntologyThing -->
<g id="edge1" class="edge">
<title>IndustryType&#45;&gt;CityOrgOntologyThing</title>
<path fill="none" stroke="black" d="M145,-150.71C145,-158.47 145,-167.92 145,-176.74"/>
<polygon fill="none" stroke="black" points="141.5,-176.66 145,-186.66 148.5,-176.66 141.5,-176.66"/>
</g>
<!-- Invis -->
<!-- IndustryType&#45;&gt;Invis -->
<!-- code__Code -->
<g id="node4" class="node">
<title>code__Code</title>
<polygon fill="lightgray" stroke="none" points="17.25,-25.88 17.25,-42.12 80.75,-42.12 80.75,-25.88 17.25,-25.88"/>
<text xml:space="preserve" text-anchor="start" x="18.25" y="-29.73" font-family="Arial" font-size="12.00">code::Code</text>
<polygon fill="none" stroke="black" points="16.25,-24.88 16.25,-43.12 81.75,-43.12 81.75,-24.88 16.25,-24.88"/>
</g>
<!-- IndustryType&#45;&gt;code__Code -->
<g id="edge4" class="edge">
<title>IndustryType&#45;&gt;code__Code</title>
<path fill="none" stroke="black" d="M128.28,-115.1C113.14,-99.8 90.64,-77.07 73.47,-59.73"/>
<polygon fill="black" stroke="black" points="76.12,-57.42 66.59,-52.78 71.14,-62.35 76.12,-57.42"/>
<text xml:space="preserve" text-anchor="middle" x="147.8" y="-86.55" font-family="Arial" font-size="11.00"> code::hasCode </text>
<text xml:space="preserve" text-anchor="middle" x="147.8" y="-73.05" font-family="Arial" font-size="11.00"> «only» &#160;</text>
</g>
<!-- Invis&#45;&gt;code__Code -->
</g>
</svg>
