<?xml version="1.0" encoding="UTF-8" standalone="no"?>
<!DOCTYPE svg PUBLIC "-//W3C//DTD SVG 1.1//EN"
 "http://www.w3.org/Graphics/SVG/1.1/DTD/svg11.dtd">
<!-- Generated by graphviz version 14.0.2 (20251019.1705)
 -->
<!-- Pages: 1 -->
<svg width="309pt" height="305pt"
 viewBox="0.00 0.00 309.00 305.00" xmlns="http://www.w3.org/2000/svg" xmlns:xlink="http://www.w3.org/1999/xlink">
<g id="graph0" class="graph" transform="scale(1 1) rotate(0) translate(4 301)">
<polygon fill="white" stroke="none" points="-4,4 -4,-301 305.43,-301 305.43,4 -4,4"/>
<g id="clust2" class="cluster">
<title>cluster_associated</title>
</g>
<!-- BusinessEstablishment -->
<g id="node1" class="node">
<title>BusinessEstablishment</title>
<g id="a_node1"><a xlink:href="../classes/Organization__BusinessEstablishment.md" xlink:title="&lt;TABLE&gt;">
<polygon fill="lightgray" stroke="none" points="143.38,-197.88 143.38,-214.12 270.62,-214.12 270.62,-197.88 143.38,-197.88"/>
<text xml:space="preserve" text-anchor="start" x="144.38" y="-201.72" font-family="Arial" font-size="12.00">BusinessEstablishment</text>
<polygon fill="none" stroke="black" points="142.38,-196.88 142.38,-215.12 271.62,-215.12 271.62,-196.88 142.38,-196.88"/>
</a>
</g>
</g>
<!-- CityOrgOntologyThing -->
<g id="node2" class="node">
<title>CityOrgOntologyThing</title>
<g id="a_node2"><a xlink:href="../_counters/Organization__CityOrgOntologyThing.md" xlink:title="&lt;TABLE&gt;">
<polygon fill="lightgray" stroke="none" points="146.38,-270.88 146.38,-287.12 267.62,-287.12 267.62,-270.88 146.38,-270.88"/>
<text xml:space="preserve" text-anchor="start" x="147.38" y="-274.73" font-family="Arial" font-size="12.00">CityOrgOntologyThing</text>
<polygon fill="none" stroke="black" points="145.38,-269.88 145.38,-288.12 268.62,-288.12 268.62,-269.88 145.38,-269.88"/>
</a>
</g>
</g>
<!-- BusinessEstablishment&#45;&gt;CityOrgOntologyThing -->
<g id="edge1" class="edge">
<title>BusinessEstablishment&#45;&gt;CityOrgOntologyThing</title>
<path fill="none" stroke="black" d="M207,-223.71C207,-231.47 207,-240.92 207,-249.74"/>
<polygon fill="none" stroke="black" points="203.5,-249.66 207,-259.66 210.5,-249.66 203.5,-249.66"/>
</g>
<!-- Invis -->
<!-- BusinessEstablishment&#45;&gt;Invis -->
<!-- contact__Address -->
<g id="node4" class="node">
<title>contact__Address</title>
<polygon fill="lightgray" stroke="none" points="25.75,-98.88 25.75,-115.12 116.25,-115.12 116.25,-98.88 25.75,-98.88"/>
<text xml:space="preserve" text-anchor="start" x="26.75" y="-102.72" font-family="Arial" font-size="12.00">contact::Address</text>
<polygon fill="none" stroke="black" points="24.75,-97.88 24.75,-116.12 117.25,-116.12 117.25,-97.88 24.75,-97.88"/>
</g>
<!-- BusinessEstablishment&#45;&gt;contact__Address -->
<g id="edge5" class="edge">
<title>BusinessEstablishment&#45;&gt;contact__Address</title>
<path fill="none" stroke="black" d="M143.05,-188.07C119.13,-181.24 96.69,-174.04 92.5,-170 83.27,-161.11 78,-148.06 74.99,-136.22"/>
<polygon fill="black" stroke="black" points="78.43,-135.56 72.98,-126.47 71.57,-136.97 78.43,-135.56"/>
<text xml:space="preserve" text-anchor="middle" x="144.25" y="-159.55" font-family="Arial" font-size="11.00"> contact::hasAddress </text>
<text xml:space="preserve" text-anchor="middle" x="144.25" y="-146.05" font-family="Arial" font-size="11.00"> «only» &#160;</text>
</g>
<!-- spatialLoc__Location -->
<g id="node5" class="node">
<title>spatialLoc__Location</title>
<polygon fill="lightgray" stroke="none" points="16.75,-25.88 16.75,-42.12 125.25,-42.12 125.25,-25.88 16.75,-25.88"/>
<text xml:space="preserve" text-anchor="start" x="17.75" y="-29.73" font-family="Arial" font-size="12.00">spatialLoc::Location</text>
<polygon fill="none" stroke="black" points="15.75,-24.88 15.75,-43.12 126.25,-43.12 126.25,-24.88 15.75,-24.88"/>
</g>
<!-- BusinessEstablishment&#45;&gt;spatialLoc__Location -->
<g id="edge6" class="edge">
<title>BusinessEstablishment&#45;&gt;spatialLoc__Location</title>
<path fill="none" stroke="black" d="M207.02,-188.18C206.36,-175.09 203.89,-156.88 196,-143 175.5,-106.94 138.26,-77.15 109.74,-58.05"/>
<polygon fill="black" stroke="black" points="112,-55.35 101.71,-52.82 108.18,-61.21 112,-55.35"/>
<text xml:space="preserve" text-anchor="middle" x="242.56" y="-110.05" font-family="Arial" font-size="11.00"> spatialLoc::hasLocation </text>
<text xml:space="preserve" text-anchor="middle" x="242.56" y="-96.55" font-family="Arial" font-size="11.00"> «max 1» &#160;</text>
</g>
<!-- Invis&#45;&gt;contact__Address -->
<!-- contact__Address&#45;&gt;spatialLoc__Location -->
</g>
</svg>
