<?xml version="1.0" encoding="UTF-8" standalone="no"?>
<!DOCTYPE svg PUBLIC "-//W3C//DTD SVG 1.1//EN"
 "http://www.w3.org/Graphics/SVG/1.1/DTD/svg11.dtd">
<!-- Generated by graphviz version 14.0.2 (20251019.1705)
 -->
<!-- Pages: 1 -->
<svg width="207pt" height="232pt"
 viewBox="0.00 0.00 207.00 232.00" xmlns="http://www.w3.org/2000/svg" xmlns:xlink="http://www.w3.org/1999/xlink">
<g id="graph0" class="graph" transform="scale(1 1) rotate(0) translate(4 228)">
<polygon fill="white" stroke="none" points="-4,4 -4,-228 202.5,-228 202.5,4 -4,4"/>
<g id="clust2" class="cluster">
<title>cluster_associated</title>
</g>
<!-- Education -->
<g id="node1" class="node">
<title>Education</title>
<g id="a_node1"><a xlink:href="../classes/Person__Education.md" xlink:title="&lt;TABLE&gt;">
<polygon fill="lightgray" stroke="none" points="110,-124.88 110,-141.12 166,-141.12 166,-124.88 110,-124.88"/>
<text xml:space="preserve" text-anchor="start" x="111" y="-128.72" font-family="Arial" font-size="12.00">Education</text>
<polygon fill="none" stroke="black" points="109,-123.88 109,-142.12 167,-142.12 167,-123.88 109,-123.88"/>
</a>
</g>
</g>
<!-- PersonOntologyThing -->
<g id="node2" class="node">
<title>PersonOntologyThing</title>
<g id="a_node2"><a xlink:href="../_counters/Person__PersonOntologyThing.md" xlink:title="&lt;TABLE&gt;">
<polygon fill="lightgray" stroke="none" points="78.5,-197.88 78.5,-214.12 197.5,-214.12 197.5,-197.88 78.5,-197.88"/>
<text xml:space="preserve" text-anchor="start" x="79.5" y="-201.72" font-family="Arial" font-size="12.00">PersonOntologyThing</text>
<polygon fill="none" stroke="black" points="77.5,-196.88 77.5,-215.12 198.5,-215.12 198.5,-196.88 77.5,-196.88"/>
</a>
</g>
</g>
<!-- Education&#45;&gt;PersonOntologyThing -->
<g id="edge1" class="edge">
<title>Education&#45;&gt;PersonOntologyThing</title>
<path fill="none" stroke="black" d="M138,-150.71C138,-158.47 138,-167.92 138,-176.74"/>
<polygon fill="none" stroke="black" points="134.5,-176.66 138,-186.66 141.5,-176.66 134.5,-176.66"/>
</g>
<!-- Invis -->
<!-- Education&#45;&gt;Invis -->
<!-- code__Code -->
<g id="node4" class="node">
<title>code__Code</title>
<polygon fill="lightgray" stroke="none" points="17.25,-25.88 17.25,-42.12 80.75,-42.12 80.75,-25.88 17.25,-25.88"/>
<text xml:space="preserve" text-anchor="start" x="18.25" y="-29.73" font-family="Arial" font-size="12.00">code::Code</text>
<polygon fill="none" stroke="black" points="16.25,-24.88 16.25,-43.12 81.75,-43.12 81.75,-24.88 16.25,-24.88"/>
</g>
<!-- Education&#45;&gt;code__Code -->
<g id="edge4" class="edge">
<title>Education&#45;&gt;code__Code</title>
<path fill="none" stroke="black" d="M122.5,-115.1C108.46,-99.8 87.6,-77.07 71.69,-59.73"/>
<polygon fill="black" stroke="black" points="74.69,-57.82 65.35,-52.82 69.53,-62.55 74.69,-57.82"/>
<text xml:space="preserve" text-anchor="middle" x="143.46" y="-86.55" font-family="Arial" font-size="11.00"> code::hasCode </text>
<text xml:space="preserve" text-anchor="middle" x="143.46" y="-73.05" font-family="Arial" font-size="11.00"> «only» &#160;</text>
</g>
<!-- Invis&#45;&gt;code__Code -->
</g>
</svg>
