<?xml version="1.0" encoding="UTF-8" standalone="no"?>
<!DOCTYPE svg PUBLIC "-//W3C//DTD SVG 1.1//EN"
 "http://www.w3.org/Graphics/SVG/1.1/DTD/svg11.dtd">
<!-- Generated by graphviz version 14.0.2 (20251019.1705)
 -->
<!-- Pages: 1 -->
<svg width="406pt" height="419pt"
 viewBox="0.00 0.00 406.00 419.00" xmlns="http://www.w3.org/2000/svg" xmlns:xlink="http://www.w3.org/1999/xlink">
<g id="graph0" class="graph" transform="scale(1 1) rotate(0) translate(4 414.75)">
<polygon fill="white" stroke="none" points="-4,4 -4,-414.75 402,-414.75 402,4 -4,4"/>
<g id="clust2" class="cluster">
<title>cluster_associated</title>
</g>
<!-- PersonId -->
<g id="node1" class="node">
<title>PersonId</title>
<g id="a_node1"><a xlink:href="../classes/Person__PersonId.md" xlink:title="&lt;TABLE&gt;">
<polygon fill="lightgray" stroke="none" points="107,-320.5 107,-336.75 397,-336.75 397,-320.5 107,-320.5"/>
<text xml:space="preserve" text-anchor="start" x="228" y="-324.35" font-family="Arial" font-size="12.00">PersonId</text>
<text xml:space="preserve" text-anchor="start" x="108" y="-308.1" font-family="Arial" font-size="12.00">genericproperties::hasIdentifier: xsd::string «exactly 1»</text>
<text xml:space="preserve" text-anchor="start" x="108" y="-291.85" font-family="Arial" font-size="12.00">photoID: xsd::boolean «max 1»</text>
<polygon fill="none" stroke="black" points="106,-287 106,-337.75 398,-337.75 398,-287 106,-287"/>
</a>
</g>
</g>
<!-- PersonOntologyThing -->
<g id="node2" class="node">
<title>PersonOntologyThing</title>
<g id="a_node2"><a xlink:href="../_counters/Person__PersonOntologyThing.md" xlink:title="&lt;TABLE&gt;">
<polygon fill="lightgray" stroke="none" points="192.5,-384.62 192.5,-400.88 311.5,-400.88 311.5,-384.62 192.5,-384.62"/>
<text xml:space="preserve" text-anchor="start" x="193.5" y="-388.48" font-family="Arial" font-size="12.00">PersonOntologyThing</text>
<polygon fill="none" stroke="black" points="191.5,-383.62 191.5,-401.88 312.5,-401.88 312.5,-383.62 191.5,-383.62"/>
</a>
</g>
</g>
<!-- PersonId&#45;&gt;PersonOntologyThing -->
<g id="edge1" class="edge">
<title>PersonId&#45;&gt;PersonOntologyThing</title>
<path fill="none" stroke="black" d="M252,-337.71C252,-345.97 252,-355.27 252,-363.79"/>
<polygon fill="none" stroke="black" points="248.5,-363.62 252,-373.62 255.5,-363.62 248.5,-363.62"/>
</g>
<!-- Invis -->
<!-- PersonId&#45;&gt;Invis -->
<!-- agent__Agent -->
<g id="node4" class="node">
<title>agent__Agent</title>
<polygon fill="lightgray" stroke="none" points="17.25,-197.88 17.25,-214.12 86.75,-214.12 86.75,-197.88 17.25,-197.88"/>
<text xml:space="preserve" text-anchor="start" x="18.25" y="-201.72" font-family="Arial" font-size="12.00">agent::Agent</text>
<polygon fill="none" stroke="black" points="16.25,-196.88 16.25,-215.12 87.75,-215.12 87.75,-196.88 16.25,-196.88"/>
</g>
<!-- PersonId&#45;&gt;agent__Agent -->
<g id="edge7" class="edge">
<title>PersonId&#45;&gt;agent__Agent</title>
<path fill="none" stroke="black" d="M127.99,-287.1C116.22,-282.14 104.91,-276.18 94.75,-269 82.15,-260.1 72.09,-246.24 64.9,-233.87"/>
<polygon fill="black" stroke="black" points="68.1,-232.44 60.26,-225.32 61.95,-235.77 68.1,-232.44"/>
<text xml:space="preserve" text-anchor="middle" x="119.88" y="-258.55" font-family="Arial" font-size="11.00"> issuedBy </text>
<text xml:space="preserve" text-anchor="middle" x="119.88" y="-245.05" font-family="Arial" font-size="11.00"> «max 1» &#160;</text>
</g>
<!-- IDType -->
<g id="node5" class="node">
<title>IDType</title>
<g id="a_node5"><a xlink:href="../_counters/Person__IDType.md" xlink:title="&lt;TABLE&gt;">
<polygon fill="lightgray" stroke="none" points="31.88,-98.88 31.88,-115.12 72.12,-115.12 72.12,-98.88 31.88,-98.88"/>
<text xml:space="preserve" text-anchor="start" x="32.88" y="-102.72" font-family="Arial" font-size="12.00">IDType</text>
<polygon fill="none" stroke="black" points="30.88,-97.88 30.88,-116.12 73.12,-116.12 73.12,-97.88 30.88,-97.88"/>
</a>
</g>
</g>
<!-- PersonId&#45;&gt;IDType -->
<g id="edge6" class="edge">
<title>PersonId&#45;&gt;IDType</title>
<path fill="none" stroke="black" d="M228.27,-287.25C189.92,-248.25 114.72,-171.78 76.12,-132.53"/>
<polygon fill="black" stroke="black" points="79.03,-130.5 69.53,-125.82 74.04,-135.41 79.03,-130.5"/>
<text xml:space="preserve" text-anchor="middle" x="194.17" y="-209.05" font-family="Arial" font-size="11.00"> hasIDType </text>
<text xml:space="preserve" text-anchor="middle" x="194.17" y="-195.55" font-family="Arial" font-size="11.00"> «only» &#160;</text>
</g>
<!-- time__Interval -->
<g id="node6" class="node">
<title>time__Interval</title>
<polygon fill="lightgray" stroke="none" points="17.25,-25.88 17.25,-42.12 86.75,-42.12 86.75,-25.88 17.25,-25.88"/>
<text xml:space="preserve" text-anchor="start" x="18.25" y="-29.73" font-family="Arial" font-size="12.00">time::Interval</text>
<polygon fill="none" stroke="black" points="16.25,-24.88 16.25,-43.12 87.75,-43.12 87.75,-24.88 16.25,-24.88"/>
</g>
<!-- PersonId&#45;&gt;time__Interval -->
<g id="edge8" class="edge">
<title>PersonId&#45;&gt;time__Interval</title>
<path fill="none" stroke="black" d="M251.61,-287.03C250.2,-260.91 245,-218.99 227,-188 193.77,-130.77 131.31,-84.08 90.7,-57.91"/>
<polygon fill="black" stroke="black" points="92.73,-55.06 82.4,-52.67 88.99,-60.97 92.73,-55.06"/>
<text xml:space="preserve" text-anchor="middle" x="250.14" y="-159.55" font-family="Arial" font-size="11.00"> validityPeriod </text>
<text xml:space="preserve" text-anchor="middle" x="250.14" y="-146.05" font-family="Arial" font-size="11.00"> «max 1» &#160;</text>
</g>
<!-- Invis&#45;&gt;agent__Agent -->
<!-- agent__Agent&#45;&gt;IDType -->
<!-- IDType&#45;&gt;time__Interval -->
</g>
</svg>
