<?xml version="1.0" encoding="UTF-8" standalone="no"?>
<!DOCTYPE svg PUBLIC "-//W3C//DTD SVG 1.1//EN"
 "http://www.w3.org/Graphics/SVG/1.1/DTD/svg11.dtd">
<!-- Generated by graphviz version 14.0.2 (20251019.1705)
 -->
<!-- Pages: 1 -->
<svg width="906pt" height="1165pt"
 viewBox="0.00 0.00 906.00 1165.00" xmlns="http://www.w3.org/2000/svg" xmlns:xlink="http://www.w3.org/1999/xlink">
<g id="graph0" class="graph" transform="scale(1 1) rotate(0) translate(4 1161)">
<polygon fill="white" stroke="none" points="-4,4 -4,-1161 902,-1161 902,4 -4,4"/>
<g id="clust2" class="cluster">
<title>cluster_associated</title>
</g>
<!-- Person -->
<g id="node1" class="node">
<title>Person</title>
<g id="a_node1"><a xlink:href="../_counters/Person__Person.md" xlink:title="&lt;TABLE&gt;">
<polygon fill="lightgray" stroke="none" points="460.88,-1057.88 460.88,-1074.12 501.12,-1074.12 501.12,-1057.88 460.88,-1057.88"/>
<text xml:space="preserve" text-anchor="start" x="461.88" y="-1061.72" font-family="Arial" font-size="12.00">Person</text>
<polygon fill="none" stroke="black" points="459.88,-1056.88 459.88,-1075.12 502.12,-1075.12 502.12,-1056.88 459.88,-1056.88"/>
</a>
</g>
</g>
<!-- Person&#45;&gt;Person -->
<g id="edge19" class="edge">
<title>Person&#45;&gt;Person</title>
<path fill="none" stroke="black" d="M507.79,-1068.28C517.78,-1068.35 526,-1067.59 526,-1066 526,-1065.08 523.25,-1064.44 519.01,-1064.07"/>
<polygon fill="black" stroke="black" points="519.41,-1060.59 509.31,-1063.77 519.19,-1067.58 519.41,-1060.59"/>
<text xml:space="preserve" text-anchor="middle" x="547.75" y="-1069.05" font-family="Arial" font-size="11.00"> children </text>
<text xml:space="preserve" text-anchor="middle" x="547.75" y="-1055.55" font-family="Arial" font-size="11.00"> «only» &#160;</text>
</g>
<!-- Person&#45;&gt;Person -->
<g id="edge26" class="edge">
<title>Person&#45;&gt;Person</title>
<path fill="none" stroke="black" d="M507.66,-1069.72C535.01,-1071.59 569.5,-1070.35 569.5,-1066 569.5,-1062.23 543.56,-1060.8 518.84,-1061.7"/>
<polygon fill="black" stroke="black" points="518.98,-1058.19 509.18,-1062.2 519.34,-1065.18 518.98,-1058.19"/>
<text xml:space="preserve" text-anchor="middle" x="589.75" y="-1069.05" font-family="Arial" font-size="11.00"> parent </text>
<text xml:space="preserve" text-anchor="middle" x="589.75" y="-1055.55" font-family="Arial" font-size="11.00"> «only» &#160;</text>
</g>
<!-- Person&#45;&gt;Person -->
<g id="edge27" class="edge">
<title>Person&#45;&gt;Person</title>
<path fill="none" stroke="black" d="M507.93,-1070.71C548.06,-1074.68 610,-1073.11 610,-1066 610,-1059.53 558.69,-1057.65 519.22,-1060.36"/>
<polygon fill="black" stroke="black" points="519.12,-1056.85 509.44,-1061.17 519.7,-1063.83 519.12,-1056.85"/>
<text xml:space="preserve" text-anchor="middle" x="630.25" y="-1069.05" font-family="Arial" font-size="11.00"> spouse </text>
<text xml:space="preserve" text-anchor="middle" x="630.25" y="-1055.55" font-family="Arial" font-size="11.00"> «only» &#160;</text>
</g>
<!-- agent__Agent -->
<g id="node2" class="node">
<title>agent__Agent</title>
<polygon fill="lightgray" stroke="none" points="389.25,-1130.88 389.25,-1147.12 458.75,-1147.12 458.75,-1130.88 389.25,-1130.88"/>
<text xml:space="preserve" text-anchor="start" x="390.25" y="-1134.72" font-family="Arial" font-size="12.00">agent::Agent</text>
<polygon fill="none" stroke="black" points="388.25,-1129.88 388.25,-1148.12 459.75,-1148.12 459.75,-1129.88 388.25,-1129.88"/>
</g>
<!-- Person&#45;&gt;agent__Agent -->
<g id="edge1" class="edge">
<title>Person&#45;&gt;agent__Agent</title>
<path fill="none" stroke="black" d="M467.59,-1083.71C460.72,-1092.26 452.2,-1102.87 444.53,-1112.43"/>
<polygon fill="none" stroke="black" points="441.99,-1110 438.46,-1119.99 447.45,-1114.39 441.99,-1110"/>
</g>
<!-- PersonOntologyThing -->
<g id="node3" class="node">
<title>PersonOntologyThing</title>
<g id="a_node3"><a xlink:href="../_counters/Person__PersonOntologyThing.md" xlink:title="&lt;TABLE&gt;">
<polygon fill="lightgray" stroke="none" points="478.5,-1130.88 478.5,-1147.12 597.5,-1147.12 597.5,-1130.88 478.5,-1130.88"/>
<text xml:space="preserve" text-anchor="start" x="479.5" y="-1134.72" font-family="Arial" font-size="12.00">PersonOntologyThing</text>
<polygon fill="none" stroke="black" points="477.5,-1129.88 477.5,-1148.12 598.5,-1148.12 598.5,-1129.88 477.5,-1129.88"/>
</a>
</g>
</g>
<!-- Person&#45;&gt;PersonOntologyThing -->
<g id="edge2" class="edge">
<title>Person&#45;&gt;PersonOntologyThing</title>
<path fill="none" stroke="black" d="M494.41,-1083.71C501.28,-1092.26 509.8,-1102.87 517.47,-1112.43"/>
<polygon fill="none" stroke="black" points="514.55,-1114.39 523.54,-1119.99 520.01,-1110 514.55,-1114.39"/>
</g>
<!-- Invis -->
<!-- Person&#45;&gt;Invis -->
<!-- Citizenship -->
<g id="node5" class="node">
<title>Citizenship</title>
<g id="a_node5"><a xlink:href="../_counters/Person__Citizenship.md" xlink:title="&lt;TABLE&gt;">
<polygon fill="lightgray" stroke="none" points="17,-958.88 17,-975.12 79,-975.12 79,-958.88 17,-958.88"/>
<text xml:space="preserve" text-anchor="start" x="18" y="-962.73" font-family="Arial" font-size="12.00">Citizenship</text>
<polygon fill="none" stroke="black" points="16,-957.88 16,-976.12 80,-976.12 80,-957.88 16,-957.88"/>
</a>
</g>
</g>
<!-- Person&#45;&gt;Citizenship -->
<g id="edge20" class="edge">
<title>Person&#45;&gt;Citizenship</title>
<path fill="none" stroke="black" d="M454.08,-1063.73C362.69,-1059.29 69.11,-1043.99 54.75,-1030 45.97,-1021.45 43.63,-1008.33 43.76,-996.35"/>
<polygon fill="black" stroke="black" points="47.24,-996.71 44.46,-986.49 40.26,-996.22 47.24,-996.71"/>
<text xml:space="preserve" text-anchor="middle" x="78.38" y="-1019.55" font-family="Arial" font-size="11.00"> citizenOf </text>
<text xml:space="preserve" text-anchor="middle" x="78.38" y="-1006.05" font-family="Arial" font-size="11.00"> «only» &#160;</text>
</g>
<!-- cityUnits__MonetaryValue -->
<g id="node6" class="node">
<title>cityUnits__MonetaryValue</title>
<polygon fill="lightgray" stroke="none" points="17.38,-859.88 17.38,-876.12 150.62,-876.12 150.62,-859.88 17.38,-859.88"/>
<text xml:space="preserve" text-anchor="start" x="18.38" y="-863.73" font-family="Arial" font-size="12.00">cityUnits::MonetaryValue</text>
<polygon fill="none" stroke="black" points="16.38,-858.88 16.38,-877.12 151.62,-877.12 151.62,-858.88 16.38,-858.88"/>
</g>
<!-- Person&#45;&gt;cityUnits__MonetaryValue -->
<g id="edge25" class="edge">
<title>Person&#45;&gt;cityUnits__MonetaryValue</title>
<path fill="none" stroke="black" d="M454.39,-1064.4C388.63,-1062.53 220.24,-1055.34 171,-1030 120.54,-1004.04 98.15,-935.94 89.21,-897.13"/>
<polygon fill="black" stroke="black" points="92.64,-896.41 87.13,-887.36 85.79,-897.87 92.64,-896.41"/>
<text xml:space="preserve" text-anchor="middle" x="143.4" y="-970.05" font-family="Arial" font-size="11.00"> income </text>
<text xml:space="preserve" text-anchor="middle" x="143.4" y="-956.55" font-family="Arial" font-size="11.00"> «only» &#160;</text>
</g>
<!-- contact__Address -->
<g id="node7" class="node">
<title>contact__Address</title>
<polygon fill="lightgray" stroke="none" points="60.75,-760.88 60.75,-777.12 151.25,-777.12 151.25,-760.88 60.75,-760.88"/>
<text xml:space="preserve" text-anchor="start" x="61.75" y="-764.73" font-family="Arial" font-size="12.00">contact::Address</text>
<polygon fill="none" stroke="black" points="59.75,-759.88 59.75,-778.12 152.25,-778.12 152.25,-759.88 59.75,-759.88"/>
</g>
<!-- Person&#45;&gt;contact__Address -->
<g id="edge16" class="edge">
<title>Person&#45;&gt;contact__Address</title>
<path fill="none" stroke="black" d="M454.34,-1063.43C399.61,-1059.83 276.66,-1049.75 240,-1030 197.6,-1007.15 206.75,-977.6 168,-949 152.48,-937.54 138.94,-947.23 128.5,-931 122.01,-920.91 122.41,-914.34 128.5,-904 136.88,-889.77 152.62,-900.23 161,-886 169.12,-872.22 165.75,-865.28 161,-850 154.71,-829.74 141.31,-810.06 129.31,-795.29"/>
<polygon fill="black" stroke="black" points="132.2,-793.3 123.07,-787.92 126.86,-797.82 132.2,-793.3"/>
<text xml:space="preserve" text-anchor="middle" x="180.25" y="-920.55" font-family="Arial" font-size="11.00"> contact::hasAddress </text>
<text xml:space="preserve" text-anchor="middle" x="180.25" y="-907.05" font-family="Arial" font-size="11.00"> «only» &#160;</text>
</g>
<!-- Person&#45;&gt;contact__Address -->
<g id="edge29" class="edge">
<title>Person&#45;&gt;contact__Address</title>
<path fill="none" stroke="black" d="M454.04,-1065.33C419.24,-1064.49 358.17,-1058.6 316,-1030 260.3,-992.23 270.65,-959.1 232,-904 200.61,-859.24 198.64,-842.64 159,-805 154.76,-800.97 150,-797.12 145.13,-793.53"/>
<polygon fill="black" stroke="black" points="147.16,-790.67 136.95,-787.85 143.16,-796.42 147.16,-790.67"/>
<text xml:space="preserve" text-anchor="middle" x="274.22" y="-920.55" font-family="Arial" font-size="11.00"> birthplace </text>
<text xml:space="preserve" text-anchor="middle" x="274.22" y="-907.05" font-family="Arial" font-size="11.00"> «max 1» &#160;</text>
</g>
<!-- Person&#45;&gt;contact__Address -->
<g id="edge31" class="edge">
<title>Person&#45;&gt;contact__Address</title>
<path fill="none" stroke="black" d="M454.06,-1059.03C434.97,-1053.78 409.55,-1044.65 391,-1030 337.6,-987.81 351.17,-953.05 304,-904 294.76,-894.39 290.39,-894.36 280,-886 237.03,-851.44 232.67,-834.38 186,-805 178.34,-800.18 169.9,-795.7 161.46,-791.67"/>
<polygon fill="black" stroke="black" points="163.14,-788.59 152.59,-787.61 160.23,-794.96 163.14,-788.59"/>
<text xml:space="preserve" text-anchor="middle" x="355.38" y="-920.55" font-family="Arial" font-size="11.00"> deathPlace </text>
<text xml:space="preserve" text-anchor="middle" x="355.38" y="-907.05" font-family="Arial" font-size="11.00"> «max 1» &#160;</text>
</g>
<!-- contact__PhoneNumber -->
<g id="node8" class="node">
<title>contact__PhoneNumber</title>
<polygon fill="lightgray" stroke="none" points="26.88,-661.88 26.88,-678.12 151.12,-678.12 151.12,-661.88 26.88,-661.88"/>
<text xml:space="preserve" text-anchor="start" x="27.88" y="-665.73" font-family="Arial" font-size="12.00">contact::PhoneNumber</text>
<polygon fill="none" stroke="black" points="25.88,-660.88 25.88,-679.12 152.12,-679.12 152.12,-660.88 25.88,-660.88"/>
</g>
<!-- Person&#45;&gt;contact__PhoneNumber -->
<g id="edge17" class="edge">
<title>Person&#45;&gt;contact__PhoneNumber</title>
<path fill="none" stroke="black" d="M454.14,-1051.72C445.07,-1046.1 435.59,-1038.8 429,-1030 393.78,-982.97 431.9,-944.14 389,-904 364.52,-881.1 345.17,-902.07 315.75,-886 303.81,-879.48 171.23,-751.04 114.5,-695.85"/>
<polygon fill="black" stroke="black" points="117.08,-693.48 107.48,-689.01 112.2,-698.5 117.08,-693.48"/>
<text xml:space="preserve" text-anchor="middle" x="372.38" y="-871.05" font-family="Arial" font-size="11.00"> contact::hasTelephone </text>
<text xml:space="preserve" text-anchor="middle" x="372.38" y="-857.55" font-family="Arial" font-size="11.00"> «only» &#160;</text>
</g>
<!-- Education -->
<g id="node9" class="node">
<title>Education</title>
<g id="a_node9"><a xlink:href="../_counters/Person__Education.md" xlink:title="&lt;TABLE&gt;">
<polygon fill="lightgray" stroke="none" points="95,-562.88 95,-579.12 151,-579.12 151,-562.88 95,-562.88"/>
<text xml:space="preserve" text-anchor="start" x="96" y="-566.73" font-family="Arial" font-size="12.00">Education</text>
<polygon fill="none" stroke="black" points="94,-561.88 94,-580.12 152,-580.12 152,-561.88 94,-561.88"/>
</a>
</g>
</g>
<!-- Person&#45;&gt;Education -->
<g id="edge21" class="edge">
<title>Person&#45;&gt;Education</title>
<path fill="none" stroke="black" d="M473.57,-1048.12C471.25,-1042.44 468.82,-1036.01 467,-1030 443.28,-951.75 483.64,-910.82 429,-850 411.74,-830.79 395.64,-845.7 373.75,-832 269.88,-766.99 178.48,-649.74 141.04,-597.88"/>
<polygon fill="black" stroke="black" points="144.02,-596.03 135.36,-589.93 138.32,-600.1 144.02,-596.03"/>
<text xml:space="preserve" text-anchor="middle" x="409.38" y="-821.55" font-family="Arial" font-size="11.00"> hasEducation </text>
<text xml:space="preserve" text-anchor="middle" x="409.38" y="-808.05" font-family="Arial" font-size="11.00"> «only» &#160;</text>
</g>
<!-- Gender -->
<g id="node10" class="node">
<title>Gender</title>
<g id="a_node10"><a xlink:href="../_counters/Person__Gender.md" xlink:title="&lt;TABLE&gt;">
<polygon fill="lightgray" stroke="none" points="103.12,-463.88 103.12,-480.12 144.88,-480.12 144.88,-463.88 103.12,-463.88"/>
<text xml:space="preserve" text-anchor="start" x="104.12" y="-467.73" font-family="Arial" font-size="12.00">Gender</text>
<polygon fill="none" stroke="black" points="102.12,-462.88 102.12,-481.12 145.88,-481.12 145.88,-462.88 102.12,-462.88"/>
</a>
</g>
</g>
<!-- Person&#45;&gt;Gender -->
<g id="edge22" class="edge">
<title>Person&#45;&gt;Gender</title>
<path fill="none" stroke="black" d="M480.28,-1048.46C478.85,-1019.19 475.07,-956.41 467,-904 460.14,-859.45 472.27,-840.89 445,-805 434.72,-791.46 421.48,-800.57 411.25,-787 393.05,-762.86 397,-750.73 397,-720.5 397,-720.5 397,-720.5 397,-570 397,-520.7 236.95,-490.03 161.94,-478.36"/>
<polygon fill="black" stroke="black" points="162.58,-474.92 152.17,-476.88 161.53,-481.84 162.58,-474.92"/>
<text xml:space="preserve" text-anchor="middle" x="458.12" y="-772.05" font-family="Arial" font-size="11.00"> hasGenderIdentity </text>
<text xml:space="preserve" text-anchor="middle" x="458.12" y="-758.55" font-family="Arial" font-size="11.00"> «only» &#160;</text>
</g>
<!-- PersonId -->
<g id="node11" class="node">
<title>PersonId</title>
<g id="a_node11"><a xlink:href="../_counters/Person__PersonId.md" xlink:title="&lt;TABLE&gt;">
<polygon fill="lightgray" stroke="none" points="99,-390.88 99,-407.12 149,-407.12 149,-390.88 99,-390.88"/>
<text xml:space="preserve" text-anchor="start" x="100" y="-394.73" font-family="Arial" font-size="12.00">PersonId</text>
<polygon fill="none" stroke="black" points="98,-389.88 98,-408.12 150,-408.12 150,-389.88 98,-389.88"/>
</a>
</g>
</g>
<!-- Person&#45;&gt;PersonId -->
<g id="edge23" class="edge">
<title>Person&#45;&gt;PersonId</title>
<path fill="none" stroke="black" d="M491.99,-1048.26C503.21,-1029.51 519,-997.84 519,-968 519,-968 519,-968 519,-817.5 519,-787.3 524.6,-773.98 505,-751 490.48,-733.98 472.48,-750.05 458,-733 425.24,-694.44 435,-672.1 435,-621.5 435,-621.5 435,-621.5 435,-471 435,-415.64 245.34,-403.45 162.24,-400.76"/>
<polygon fill="black" stroke="black" points="162.39,-397.26 152.3,-400.47 162.19,-404.26 162.39,-397.26"/>
<text xml:space="preserve" text-anchor="middle" x="492.5" y="-722.55" font-family="Arial" font-size="11.00"> hasPersonID </text>
<text xml:space="preserve" text-anchor="middle" x="492.5" y="-709.05" font-family="Arial" font-size="11.00"> «only» &#160;</text>
</g>
<!-- PersonName -->
<g id="node12" class="node">
<title>PersonName</title>
<g id="a_node12"><a xlink:href="../_counters/Person__PersonName.md" xlink:title="&lt;TABLE&gt;">
<polygon fill="lightgray" stroke="none" points="78.75,-317.88 78.75,-334.12 151.25,-334.12 151.25,-317.88 78.75,-317.88"/>
<text xml:space="preserve" text-anchor="start" x="79.75" y="-321.73" font-family="Arial" font-size="12.00">PersonName</text>
<polygon fill="none" stroke="black" points="77.75,-316.88 77.75,-335.12 152.25,-335.12 152.25,-316.88 77.75,-316.88"/>
</a>
</g>
</g>
<!-- Person&#45;&gt;PersonName -->
<g id="edge18" class="edge">
<title>Person&#45;&gt;PersonName</title>
<path fill="none" stroke="black" d="M505.89,-1048.1C528.05,-1030.83 557,-1001.8 557,-968 557,-968 557,-968 557,-817.5 557,-766.18 558.35,-746.63 527,-706 517.15,-693.23 505.04,-701 495.5,-688 477.6,-663.61 481,-651.75 481,-621.5 481,-621.5 481,-621.5 481,-398 481,-334.03 262.78,-326.52 163.34,-326.41"/>
<polygon fill="black" stroke="black" points="163.62,-322.91 153.62,-326.43 163.63,-329.91 163.62,-322.91"/>
<text xml:space="preserve" text-anchor="middle" x="515.75" y="-673.05" font-family="Arial" font-size="11.00"> alias </text>
<text xml:space="preserve" text-anchor="middle" x="515.75" y="-659.55" font-family="Arial" font-size="11.00"> «only» &#160;</text>
</g>
<!-- Person&#45;&gt;PersonName -->
<g id="edge32" class="edge">
<title>Person&#45;&gt;PersonName</title>
<path fill="none" stroke="black" d="M507.73,-1055.79C541.42,-1042.27 595,-1013.61 595,-968 595,-968 595,-968 595,-817.5 595,-728.85 558,-710.15 558,-621.5 558,-621.5 558,-621.5 558,-398 558,-358.37 278.04,-336.88 163.23,-329.73"/>
<polygon fill="black" stroke="black" points="163.71,-326.26 153.52,-329.14 163.29,-333.24 163.71,-326.26"/>
<text xml:space="preserve" text-anchor="middle" x="591.12" y="-673.05" font-family="Arial" font-size="11.00"> name </text>
<text xml:space="preserve" text-anchor="middle" x="591.12" y="-659.55" font-family="Arial" font-size="11.00"> «max 1» &#160;</text>
</g>
<!-- Sex -->
<g id="node13" class="node">
<title>Sex</title>
<g id="a_node13"><a xlink:href="../_counters/Person__Sex.md" xlink:title="&lt;TABLE&gt;">
<polygon fill="lightgray" stroke="none" points="110.5,-244.88 110.5,-261.12 133.5,-261.12 133.5,-244.88 110.5,-244.88"/>
<text xml:space="preserve" text-anchor="start" x="111.5" y="-248.72" font-family="Arial" font-size="12.00">Sex</text>
<polygon fill="none" stroke="black" points="109.5,-243.88 109.5,-262.12 134.5,-262.12 134.5,-243.88 109.5,-243.88"/>
</a>
</g>
</g>
<!-- Person&#45;&gt;Sex -->
<g id="edge33" class="edge">
<title>Person&#45;&gt;Sex</title>
<path fill="none" stroke="black" d="M508,-1060.74C552.41,-1052.02 636,-1027.68 636,-968 636,-968 636,-968 636,-718.5 636,-688.1 632.82,-679.56 620,-652 615.81,-642.99 610.22,-643.31 606.75,-634 589.41,-587.42 598,-572.21 598,-522.5 598,-522.5 598,-522.5 598,-325 598,-280.82 273.06,-261.18 160.12,-255.68"/>
<polygon fill="black" stroke="black" points="160.62,-252.2 150.47,-255.23 160.29,-259.2 160.62,-252.2"/>
<text xml:space="preserve" text-anchor="middle" x="631.88" y="-623.55" font-family="Arial" font-size="11.00"> sex </text>
<text xml:space="preserve" text-anchor="middle" x="631.88" y="-610.05" font-family="Arial" font-size="11.00"> «max 1» &#160;</text>
</g>
<!-- Skill -->
<g id="node14" class="node">
<title>Skill</title>
<g id="a_node14"><a xlink:href="../_counters/Person__Skill.md" xlink:title="&lt;TABLE&gt;">
<polygon fill="lightgray" stroke="none" points="109.38,-171.88 109.38,-188.12 134.62,-188.12 134.62,-171.88 109.38,-171.88"/>
<text xml:space="preserve" text-anchor="start" x="110.38" y="-175.72" font-family="Arial" font-size="12.00">Skill</text>
<polygon fill="none" stroke="black" points="108.38,-170.88 108.38,-189.12 135.62,-189.12 135.62,-170.88 108.38,-170.88"/>
</a>
</g>
</g>
<!-- Person&#45;&gt;Skill -->
<g id="edge24" class="edge">
<title>Person&#45;&gt;Skill</title>
<path fill="none" stroke="black" d="M507.84,-1063.63C560.87,-1059.31 674,-1041.5 674,-968 674,-968 674,-968 674,-718.5 674,-668.37 664.59,-656.55 657,-607 651.25,-569.44 644,-560.5 644,-522.5 644,-522.5 644,-522.5 644,-252 644,-203.15 280.47,-186.39 160.15,-182.18"/>
<polygon fill="black" stroke="black" points="160.59,-178.69 150.48,-181.85 160.35,-185.69 160.59,-178.69"/>
<text xml:space="preserve" text-anchor="middle" x="675.01" y="-574.05" font-family="Arial" font-size="11.00"> hasSkill </text>
<text xml:space="preserve" text-anchor="middle" x="675.01" y="-560.55" font-family="Arial" font-size="11.00"> «only» &#160;</text>
</g>
<!-- time__Instant -->
<g id="node15" class="node">
<title>time__Instant</title>
<polygon fill="lightgray" stroke="none" points="85.12,-98.88 85.12,-115.12 150.88,-115.12 150.88,-98.88 85.12,-98.88"/>
<text xml:space="preserve" text-anchor="start" x="86.12" y="-102.72" font-family="Arial" font-size="12.00">time::Instant</text>
<polygon fill="none" stroke="black" points="84.12,-97.88 84.12,-116.12 151.88,-116.12 151.88,-97.88 84.12,-97.88"/>
</g>
<!-- Person&#45;&gt;time__Instant -->
<g id="edge28" class="edge">
<title>Person&#45;&gt;time__Instant</title>
<path fill="none" stroke="black" d="M507.84,-1065.73C569.31,-1065.87 715,-1056.83 715,-968 715,-968 715,-968 715,-619.5 715,-589.2 714.34,-579.69 700,-553 694.76,-543.24 686.94,-545.26 682.75,-535 672.32,-509.49 682,-500.56 682,-473 682,-473 682,-473 682,-179 682,-126.79 296.62,-112.38 162.99,-108.95"/>
<polygon fill="black" stroke="black" points="163.19,-105.46 153.1,-108.71 163.02,-112.46 163.19,-105.46"/>
<text xml:space="preserve" text-anchor="middle" x="707.88" y="-524.55" font-family="Arial" font-size="11.00"> birthDate </text>
<text xml:space="preserve" text-anchor="middle" x="707.88" y="-511.05" font-family="Arial" font-size="11.00"> «max 1» &#160;</text>
</g>
<!-- Person&#45;&gt;time__Instant -->
<g id="edge30" class="edge">
<title>Person&#45;&gt;time__Instant</title>
<path fill="none" stroke="black" d="M507.7,-1063.33C559.98,-1059.68 673.65,-1049.66 707,-1030 737.02,-1012.3 755,-1002.85 755,-968 755,-968 755,-968 755,-179 755,-119.34 308.03,-109.81 162.91,-108.29"/>
<polygon fill="black" stroke="black" points="163.34,-104.79 153.31,-108.2 163.28,-111.79 163.34,-104.79"/>
<text xml:space="preserve" text-anchor="middle" x="783.12" y="-524.55" font-family="Arial" font-size="11.00"> deathDate </text>
<text xml:space="preserve" text-anchor="middle" x="783.12" y="-511.05" font-family="Arial" font-size="11.00"> «max 1» &#160;</text>
</g>
<!-- xsd__string -->
<g id="node16" class="node">
<title>xsd__string</title>
<polygon fill="lightgray" stroke="none" points="93,-25.88 93,-42.12 149,-42.12 149,-25.88 93,-25.88"/>
<text xml:space="preserve" text-anchor="start" x="94" y="-29.73" font-family="Arial" font-size="12.00">xsd::string</text>
<polygon fill="none" stroke="black" points="92,-24.88 92,-43.12 150,-43.12 150,-24.88 92,-24.88"/>
</g>
<!-- Person&#45;&gt;xsd__string -->
<g id="edge34" class="edge">
<title>Person&#45;&gt;xsd__string</title>
<path fill="none" stroke="black" d="M507.8,-1065.59C556.04,-1065.75 659.92,-1061.94 740,-1030 783.77,-1012.55 826,-1015.12 826,-968 826,-968 826,-968 826,-106 826,-38.7 310.89,-34.58 161.28,-34.8"/>
<polygon fill="black" stroke="black" points="161.46,-31.3 151.46,-34.82 161.47,-38.3 161.46,-31.3"/>
<text xml:space="preserve" text-anchor="middle" x="862" y="-475.05" font-family="Arial" font-size="11.00"> contact::email </text>
<text xml:space="preserve" text-anchor="middle" x="862" y="-461.55" font-family="Arial" font-size="11.00"> «only» &#160;</text>
</g>
<!-- Invis&#45;&gt;Citizenship -->
<!-- Citizenship&#45;&gt;cityUnits__MonetaryValue -->
<!-- cityUnits__MonetaryValue&#45;&gt;contact__Address -->
<!-- contact__Address&#45;&gt;contact__PhoneNumber -->
<!-- contact__PhoneNumber&#45;&gt;Education -->
<!-- Education&#45;&gt;Gender -->
<!-- Gender&#45;&gt;PersonId -->
<!-- PersonId&#45;&gt;PersonName -->
<!-- PersonName&#45;&gt;Sex -->
<!-- Sex&#45;&gt;Skill -->
<!-- Skill&#45;&gt;time__Instant -->
<!-- time__Instant&#45;&gt;xsd__string -->
</g>
</svg>
