<?xml version="1.0" encoding="UTF-8" standalone="no"?>
<!DOCTYPE svg PUBLIC "-//W3C//DTD SVG 1.1//EN"
 "http://www.w3.org/Graphics/SVG/1.1/DTD/svg11.dtd">
<!-- Generated by graphviz version 14.0.2 (20251019.1705)
 -->
<!-- Pages: 1 -->
<svg width="282pt" height="232pt"
 viewBox="0.00 0.00 282.00 232.00" xmlns="http://www.w3.org/2000/svg" xmlns:xlink="http://www.w3.org/1999/xlink">
<g id="graph0" class="graph" transform="scale(1 1) rotate(0) translate(4 228)">
<polygon fill="white" stroke="none" points="-4,4 -4,-228 278.12,-228 278.12,4 -4,4"/>
<g id="clust2" class="cluster">
<title>cluster_associated</title>
</g>
<!-- RoadNetworkType -->
<g id="node1" class="node">
<title>RoadNetworkType</title>
<g id="a_node1"><a xlink:href="../classes/TransportationInfrastructure__RoadNetworkType.md" xlink:title="&lt;TABLE&gt;">
<polygon fill="lightgray" stroke="none" points="109.12,-124.88 109.12,-141.12 210.88,-141.12 210.88,-124.88 109.12,-124.88"/>
<text xml:space="preserve" text-anchor="start" x="110.12" y="-128.72" font-family="Arial" font-size="12.00">RoadNetworkType</text>
<polygon fill="none" stroke="black" points="108.12,-123.88 108.12,-142.12 211.88,-142.12 211.88,-123.88 108.12,-123.88"/>
</a>
</g>
</g>
<!-- TransportationInfrastructureOntologyThing -->
<g id="node2" class="node">
<title>TransportationInfrastructureOntologyThing</title>
<g id="a_node2"><a xlink:href="../_counters/TransportationInfrastructure__TransportationInfrastructureOntologyThing.md" xlink:title="&lt;TABLE&gt;">
<polygon fill="lightgray" stroke="none" points="46.88,-197.88 46.88,-214.12 273.12,-214.12 273.12,-197.88 46.88,-197.88"/>
<text xml:space="preserve" text-anchor="start" x="47.88" y="-201.72" font-family="Arial" font-size="12.00">TransportationInfrastructureOntologyThing</text>
<polygon fill="none" stroke="black" points="45.88,-196.88 45.88,-215.12 274.12,-215.12 274.12,-196.88 45.88,-196.88"/>
</a>
</g>
</g>
<!-- RoadNetworkType&#45;&gt;TransportationInfrastructureOntologyThing -->
<g id="edge1" class="edge">
<title>RoadNetworkType&#45;&gt;TransportationInfrastructureOntologyThing</title>
<path fill="none" stroke="black" d="M160,-150.71C160,-158.47 160,-167.92 160,-176.74"/>
<polygon fill="none" stroke="black" points="156.5,-176.66 160,-186.66 163.5,-176.66 156.5,-176.66"/>
</g>
<!-- Invis -->
<!-- RoadNetworkType&#45;&gt;Invis -->
<!-- code__Code -->
<g id="node4" class="node">
<title>code__Code</title>
<polygon fill="lightgray" stroke="none" points="17.25,-25.88 17.25,-42.12 80.75,-42.12 80.75,-25.88 17.25,-25.88"/>
<text xml:space="preserve" text-anchor="start" x="18.25" y="-29.73" font-family="Arial" font-size="12.00">code::Code</text>
<polygon fill="none" stroke="black" points="16.25,-24.88 16.25,-43.12 81.75,-43.12 81.75,-24.88 16.25,-24.88"/>
</g>
<!-- RoadNetworkType&#45;&gt;code__Code -->
<g id="edge4" class="edge">
<title>RoadNetworkType&#45;&gt;code__Code</title>
<path fill="none" stroke="black" d="M140.67,-115.1C123,-99.66 96.67,-76.66 76.76,-59.26"/>
<polygon fill="black" stroke="black" points="79.09,-56.64 69.25,-52.7 74.48,-61.91 79.09,-56.64"/>
<text xml:space="preserve" text-anchor="middle" x="157.08" y="-86.55" font-family="Arial" font-size="11.00"> code::hasCode </text>
<text xml:space="preserve" text-anchor="middle" x="157.08" y="-73.05" font-family="Arial" font-size="11.00"> «only» &#160;</text>
</g>
<!-- Invis&#45;&gt;code__Code -->
</g>
</svg>
