<?xml version="1.0" encoding="UTF-8" standalone="no"?>
<!DOCTYPE svg PUBLIC "-//W3C//DTD SVG 1.1//EN"
 "http://www.w3.org/Graphics/SVG/1.1/DTD/svg11.dtd">
<!-- Generated by graphviz version 14.0.2 (20251019.1705)
 -->
<!-- Pages: 1 -->
<svg width="446pt" height="305pt"
 viewBox="0.00 0.00 446.00 305.00" xmlns="http://www.w3.org/2000/svg" xmlns:xlink="http://www.w3.org/1999/xlink">
<g id="graph0" class="graph" transform="scale(1 1) rotate(0) translate(4 301)">
<polygon fill="white" stroke="none" points="-4,4 -4,-301 442.25,-301 442.25,4 -4,4"/>
<g id="clust2" class="cluster">
<title>cluster_associated</title>
</g>
<!-- Tunnel -->
<g id="node1" class="node">
<title>Tunnel</title>
<g id="a_node1"><a xlink:href="../classes/TransportationInfrastructure__Tunnel.md" xlink:title="&lt;TABLE&gt;">
<polygon fill="lightgray" stroke="none" points="190.75,-197.88 190.75,-214.12 229.5,-214.12 229.5,-197.88 190.75,-197.88"/>
<text xml:space="preserve" text-anchor="start" x="191.75" y="-201.72" font-family="Arial" font-size="12.00">Tunnel</text>
<polygon fill="none" stroke="black" points="189.75,-196.88 189.75,-215.12 230.5,-215.12 230.5,-196.88 189.75,-196.88"/>
</a>
</g>
</g>
<!-- infrastructure__InfrastructureElement -->
<g id="node2" class="node">
<title>infrastructure__InfrastructureElement</title>
<polygon fill="lightgray" stroke="none" points="1,-270.88 1,-287.12 191.25,-287.12 191.25,-270.88 1,-270.88"/>
<text xml:space="preserve" text-anchor="start" x="2" y="-274.73" font-family="Arial" font-size="12.00">infrastructure::InfrastructureElement</text>
<polygon fill="none" stroke="black" points="0,-269.88 0,-288.12 192.25,-288.12 192.25,-269.88 0,-269.88"/>
</g>
<!-- Tunnel&#45;&gt;infrastructure__InfrastructureElement -->
<g id="edge1" class="edge">
<title>Tunnel&#45;&gt;infrastructure__InfrastructureElement</title>
<path fill="none" stroke="black" d="M190.16,-223.92C186.57,-226.73 182.8,-229.53 179.12,-232 166.72,-240.35 152.68,-248.56 139.73,-255.68"/>
<polygon fill="none" stroke="black" points="138.09,-252.58 130.95,-260.42 141.41,-258.74 138.09,-252.58"/>
</g>
<!-- TransportationInfrastructureOntologyThing -->
<g id="node3" class="node">
<title>TransportationInfrastructureOntologyThing</title>
<g id="a_node3"><a xlink:href="../_counters/TransportationInfrastructure__TransportationInfrastructureOntologyThing.md" xlink:title="&lt;TABLE&gt;">
<polygon fill="lightgray" stroke="none" points="211,-270.88 211,-287.12 437.25,-287.12 437.25,-270.88 211,-270.88"/>
<text xml:space="preserve" text-anchor="start" x="212" y="-274.73" font-family="Arial" font-size="12.00">TransportationInfrastructureOntologyThing</text>
<polygon fill="none" stroke="black" points="210,-269.88 210,-288.12 438.25,-288.12 438.25,-269.88 210,-269.88"/>
</a>
</g>
</g>
<!-- Tunnel&#45;&gt;TransportationInfrastructureOntologyThing -->
<g id="edge2" class="edge">
<title>Tunnel&#45;&gt;TransportationInfrastructureOntologyThing</title>
<path fill="none" stroke="black" d="M236.95,-223.71C252.1,-233.15 271.26,-245.08 287.76,-255.35"/>
<polygon fill="none" stroke="black" points="285.49,-258.06 295.82,-260.37 289.19,-252.12 285.49,-258.06"/>
</g>
<!-- Invis -->
<!-- Tunnel&#45;&gt;Invis -->
<!-- TravelledWaySegment -->
<g id="node5" class="node">
<title>TravelledWaySegment</title>
<g id="a_node5"><a xlink:href="../_counters/TransportationInfrastructure__TravelledWaySegment.md" xlink:title="&lt;TABLE&gt;">
<polygon fill="lightgray" stroke="none" points="42.38,-98.88 42.38,-115.12 165.88,-115.12 165.88,-98.88 42.38,-98.88"/>
<text xml:space="preserve" text-anchor="start" x="43.38" y="-102.72" font-family="Arial" font-size="12.00">TravelledWaySegment</text>
<polygon fill="none" stroke="black" points="41.38,-97.88 41.38,-116.12 166.88,-116.12 166.88,-97.88 41.38,-97.88"/>
</a>
</g>
</g>
<!-- Tunnel&#45;&gt;TravelledWaySegment -->
<g id="edge7" class="edge">
<title>Tunnel&#45;&gt;TravelledWaySegment</title>
<path fill="none" stroke="black" d="M183.42,-190.32C181.97,-189.53 180.53,-188.75 179.12,-188 163.97,-179.87 157.61,-181.55 144.88,-170 133.95,-160.1 124.65,-146.65 117.7,-134.82"/>
<polygon fill="black" stroke="black" points="120.88,-133.32 112.96,-126.28 114.76,-136.72 120.88,-133.32"/>
<text xml:space="preserve" text-anchor="middle" x="168.5" y="-159.55" font-family="Arial" font-size="11.00"> supports </text>
<text xml:space="preserve" text-anchor="middle" x="168.5" y="-146.05" font-family="Arial" font-size="11.00"> «only» &#160;</text>
</g>
<!-- TunnelSegment -->
<g id="node6" class="node">
<title>TunnelSegment</title>
<g id="a_node6"><a xlink:href="../_counters/TransportationInfrastructure__TunnelSegment.md" xlink:title="&lt;TABLE&gt;">
<polygon fill="lightgray" stroke="none" points="70.75,-25.88 70.75,-42.12 157.5,-42.12 157.5,-25.88 70.75,-25.88"/>
<text xml:space="preserve" text-anchor="start" x="71.75" y="-29.73" font-family="Arial" font-size="12.00">TunnelSegment</text>
<polygon fill="none" stroke="black" points="69.75,-24.88 69.75,-43.12 158.5,-43.12 158.5,-24.88 69.75,-24.88"/>
</a>
</g>
</g>
<!-- Tunnel&#45;&gt;TunnelSegment -->
<g id="edge6" class="edge">
<title>Tunnel&#45;&gt;TunnelSegment</title>
<path fill="none" stroke="black" d="M208.2,-188.01C204.87,-164.23 196.32,-120.43 176.12,-89 168.84,-77.67 158.51,-67.35 148.36,-58.85"/>
<polygon fill="black" stroke="black" points="150.75,-56.28 140.75,-52.8 146.4,-61.76 150.75,-56.28"/>
<text xml:space="preserve" text-anchor="middle" x="257.64" y="-110.05" font-family="Arial" font-size="11.00"> partwhole::hasProperPart </text>
<text xml:space="preserve" text-anchor="middle" x="257.64" y="-96.55" font-family="Arial" font-size="11.00"> «only» &#160;</text>
</g>
<!-- Invis&#45;&gt;TravelledWaySegment -->
<!-- TravelledWaySegment&#45;&gt;TunnelSegment -->
</g>
</svg>
