<?xml version="1.0" encoding="UTF-8" standalone="no"?>
<!DOCTYPE svg PUBLIC "-//W3C//DTD SVG 1.1//EN"
 "http://www.w3.org/Graphics/SVG/1.1/DTD/svg11.dtd">
<!-- Generated by graphviz version 14.0.2 (20251019.1705)
 -->
<!-- Pages: 1 -->
<svg width="332pt" height="232pt"
 viewBox="0.00 0.00 332.00 232.00" xmlns="http://www.w3.org/2000/svg" xmlns:xlink="http://www.w3.org/1999/xlink">
<g id="graph0" class="graph" transform="scale(1 1) rotate(0) translate(4 228)">
<polygon fill="white" stroke="none" points="-4,4 -4,-228 327.88,-228 327.88,4 -4,4"/>
<g id="clust2" class="cluster">
<title>cluster_associated</title>
</g>
<!-- RailLine -->
<g id="node1" class="node">
<title>RailLine</title>
<g id="a_node1"><a xlink:href="../classes/TransportationInfrastructure__RailLine.md" xlink:title="&lt;TABLE&gt;">
<polygon fill="lightgray" stroke="none" points="176.62,-124.88 176.62,-141.12 223.62,-141.12 223.62,-124.88 176.62,-124.88"/>
<text xml:space="preserve" text-anchor="start" x="177.62" y="-128.72" font-family="Arial" font-size="12.00">RailLine</text>
<polygon fill="none" stroke="black" points="175.62,-123.88 175.62,-142.12 224.62,-142.12 224.62,-123.88 175.62,-123.88"/>
</a>
</g>
</g>
<!-- TransportationInfrastructureOntologyThing -->
<g id="node2" class="node">
<title>TransportationInfrastructureOntologyThing</title>
<g id="a_node2"><a xlink:href="../_counters/TransportationInfrastructure__TransportationInfrastructureOntologyThing.md" xlink:title="&lt;TABLE&gt;">
<polygon fill="lightgray" stroke="none" points="1,-197.88 1,-214.12 227.25,-214.12 227.25,-197.88 1,-197.88"/>
<text xml:space="preserve" text-anchor="start" x="2" y="-201.72" font-family="Arial" font-size="12.00">TransportationInfrastructureOntologyThing</text>
<polygon fill="none" stroke="black" points="0,-196.88 0,-215.12 228.25,-215.12 228.25,-196.88 0,-196.88"/>
</a>
</g>
</g>
<!-- RailLine&#45;&gt;TransportationInfrastructureOntologyThing -->
<g id="edge1" class="edge">
<title>RailLine&#45;&gt;TransportationInfrastructureOntologyThing</title>
<path fill="none" stroke="black" d="M179.59,-150.95C168.72,-159.93 155.19,-171.1 143.25,-180.95"/>
<polygon fill="none" stroke="black" points="141.16,-178.14 135.67,-187.21 145.61,-183.54 141.16,-178.14"/>
</g>
<!-- TravelledWay -->
<g id="node3" class="node">
<title>TravelledWay</title>
<g id="a_node3"><a xlink:href="../_counters/TransportationInfrastructure__TravelledWay.md" xlink:title="&lt;TABLE&gt;">
<polygon fill="lightgray" stroke="none" points="247.38,-197.88 247.38,-214.12 322.88,-214.12 322.88,-197.88 247.38,-197.88"/>
<text xml:space="preserve" text-anchor="start" x="248.38" y="-201.72" font-family="Arial" font-size="12.00">TravelledWay</text>
<polygon fill="none" stroke="black" points="246.38,-196.88 246.38,-215.12 323.88,-215.12 323.88,-196.88 246.38,-196.88"/>
</a>
</g>
</g>
<!-- RailLine&#45;&gt;TravelledWay -->
<g id="edge2" class="edge">
<title>RailLine&#45;&gt;TravelledWay</title>
<path fill="none" stroke="black" d="M220.42,-150.95C231.16,-159.93 244.54,-171.1 256.34,-180.95"/>
<polygon fill="none" stroke="black" points="253.9,-183.48 263.82,-187.2 258.39,-178.11 253.9,-183.48"/>
</g>
<!-- Invis -->
<!-- RailLine&#45;&gt;Invis -->
<!-- RailLink -->
<g id="node5" class="node">
<title>RailLink</title>
<g id="a_node5"><a xlink:href="../_counters/TransportationInfrastructure__RailLink.md" xlink:title="&lt;TABLE&gt;">
<polygon fill="lightgray" stroke="none" points="87,-25.88 87,-42.12 133.25,-42.12 133.25,-25.88 87,-25.88"/>
<text xml:space="preserve" text-anchor="start" x="88" y="-29.73" font-family="Arial" font-size="12.00">RailLink</text>
<polygon fill="none" stroke="black" points="86,-24.88 86,-43.12 134.25,-43.12 134.25,-24.88 86,-24.88"/>
</a>
</g>
</g>
<!-- RailLine&#45;&gt;RailLink -->
<g id="edge5" class="edge">
<title>RailLine&#45;&gt;RailLink</title>
<path fill="none" stroke="black" stroke-dasharray="5,2" d="M184.45,-115.1C170.25,-99.8 149.16,-77.07 133.07,-59.73"/>
<polygon fill="black" stroke="black" points="136.02,-57.76 126.65,-52.81 130.89,-62.52 136.02,-57.76"/>
<text xml:space="preserve" text-anchor="middle" x="232.58" y="-86.55" font-family="Arial" font-size="11.00"> onProperty: aggregationOf </text>
<text xml:space="preserve" text-anchor="middle" x="232.58" y="-73.05" font-family="Arial" font-size="11.00"> «only» &#160;</text>
</g>
<!-- Invis&#45;&gt;RailLink -->
</g>
</svg>
