<?xml version="1.0" encoding="UTF-8" standalone="no"?>
<!DOCTYPE svg PUBLIC "-//W3C//DTD SVG 1.1//EN"
 "http://www.w3.org/Graphics/SVG/1.1/DTD/svg11.dtd">
<!-- Generated by graphviz version 14.0.2 (20251019.1705)
 -->
<!-- Pages: 1 -->
<svg width="446pt" height="232pt"
 viewBox="0.00 0.00 446.00 232.00" xmlns="http://www.w3.org/2000/svg" xmlns:xlink="http://www.w3.org/1999/xlink">
<g id="graph0" class="graph" transform="scale(1 1) rotate(0) translate(4 228)">
<polygon fill="white" stroke="none" points="-4,4 -4,-228 442.25,-228 442.25,4 -4,4"/>
<g id="clust2" class="cluster">
<title>cluster_associated</title>
</g>
<!-- TravelledWaySegment -->
<g id="node1" class="node">
<title>TravelledWaySegment</title>
<g id="a_node1"><a xlink:href="../classes/TransportationInfrastructure__TravelledWaySegment.md" xlink:title="&lt;TABLE&gt;">
<polygon fill="lightgray" stroke="none" points="148.38,-124.88 148.38,-141.12 271.88,-141.12 271.88,-124.88 148.38,-124.88"/>
<text xml:space="preserve" text-anchor="start" x="149.38" y="-128.72" font-family="Arial" font-size="12.00">TravelledWaySegment</text>
<polygon fill="none" stroke="black" points="147.38,-123.88 147.38,-142.12 272.88,-142.12 272.88,-123.88 147.38,-123.88"/>
</a>
</g>
</g>
<!-- infrastructure__InfrastructureElement -->
<g id="node2" class="node">
<title>infrastructure__InfrastructureElement</title>
<polygon fill="lightgray" stroke="none" points="1,-197.88 1,-214.12 191.25,-214.12 191.25,-197.88 1,-197.88"/>
<text xml:space="preserve" text-anchor="start" x="2" y="-201.72" font-family="Arial" font-size="12.00">infrastructure::InfrastructureElement</text>
<polygon fill="none" stroke="black" points="0,-196.88 0,-215.12 192.25,-215.12 192.25,-196.88 0,-196.88"/>
</g>
<!-- TravelledWaySegment&#45;&gt;infrastructure__InfrastructureElement -->
<g id="edge1" class="edge">
<title>TravelledWaySegment&#45;&gt;infrastructure__InfrastructureElement</title>
<path fill="none" stroke="black" d="M182.91,-150.95C167.93,-160.28 149.15,-171.98 132.88,-182.11"/>
<polygon fill="none" stroke="black" points="131.06,-179.12 124.43,-187.37 134.76,-185.06 131.06,-179.12"/>
</g>
<!-- TransportationInfrastructureOntologyThing -->
<g id="node3" class="node">
<title>TransportationInfrastructureOntologyThing</title>
<g id="a_node3"><a xlink:href="../_counters/TransportationInfrastructure__TransportationInfrastructureOntologyThing.md" xlink:title="&lt;TABLE&gt;">
<polygon fill="lightgray" stroke="none" points="211,-197.88 211,-214.12 437.25,-214.12 437.25,-197.88 211,-197.88"/>
<text xml:space="preserve" text-anchor="start" x="212" y="-201.72" font-family="Arial" font-size="12.00">TransportationInfrastructureOntologyThing</text>
<polygon fill="none" stroke="black" points="210,-196.88 210,-215.12 438.25,-215.12 438.25,-196.88 210,-196.88"/>
</a>
</g>
</g>
<!-- TravelledWaySegment&#45;&gt;TransportationInfrastructureOntologyThing -->
<g id="edge2" class="edge">
<title>TravelledWaySegment&#45;&gt;TransportationInfrastructureOntologyThing</title>
<path fill="none" stroke="black" d="M237.34,-150.95C252.32,-160.28 271.1,-171.98 287.37,-182.11"/>
<polygon fill="none" stroke="black" points="285.49,-185.06 295.82,-187.37 289.19,-179.12 285.49,-185.06"/>
</g>
<!-- Invis -->
<!-- TravelledWaySegment&#45;&gt;Invis -->
<!-- TravelledWayLink -->
<g id="node5" class="node">
<title>TravelledWayLink</title>
<g id="a_node5"><a xlink:href="../_counters/TransportationInfrastructure__TravelledWayLink.md" xlink:title="&lt;TABLE&gt;">
<polygon fill="lightgray" stroke="none" points="32.12,-25.88 32.12,-42.12 130.12,-42.12 130.12,-25.88 32.12,-25.88"/>
<text xml:space="preserve" text-anchor="start" x="33.12" y="-29.73" font-family="Arial" font-size="12.00">TravelledWayLink</text>
<polygon fill="none" stroke="black" points="31.12,-24.88 31.12,-43.12 131.12,-43.12 131.12,-24.88 31.12,-24.88"/>
</a>
</g>
</g>
<!-- TravelledWaySegment&#45;&gt;TravelledWayLink -->
<g id="edge5" class="edge">
<title>TravelledWaySegment&#45;&gt;TravelledWayLink</title>
<path fill="none" stroke="black" d="M187.65,-115.1C166.84,-99.46 135.7,-76.03 112.45,-58.55"/>
<polygon fill="black" stroke="black" points="114.64,-55.82 104.55,-52.61 110.44,-61.42 114.64,-55.82"/>
<text xml:space="preserve" text-anchor="middle" x="222.1" y="-86.55" font-family="Arial" font-size="11.00"> partwhole::properPartOf </text>
<text xml:space="preserve" text-anchor="middle" x="222.1" y="-73.05" font-family="Arial" font-size="11.00"> «some» &#160;</text>
</g>
<!-- Invis&#45;&gt;TravelledWayLink -->
</g>
</svg>
