<?xml version="1.0" encoding="UTF-8" standalone="no"?>
<!DOCTYPE svg PUBLIC "-//W3C//DTD SVG 1.1//EN"
 "http://www.w3.org/Graphics/SVG/1.1/DTD/svg11.dtd">
<!-- Generated by graphviz version 14.0.2 (20251019.1705)
 -->
<!-- Pages: 1 -->
<svg width="458pt" height="132pt"
 viewBox="0.00 0.00 458.00 132.00" xmlns="http://www.w3.org/2000/svg" xmlns:xlink="http://www.w3.org/1999/xlink">
<g id="graph0" class="graph" transform="scale(1 1) rotate(0) translate(4 128)">
<polygon fill="white" stroke="none" points="-4,4 -4,-128 453.88,-128 453.88,4 -4,4"/>
<g id="clust2" class="cluster">
<title>cluster_associated</title>
</g>
<!-- http_//ontology.eil.utoronto.ca/5087/2/LandUse/EmployedPopulation -->
<g id="node1" class="node">
<title>http_//ontology.eil.utoronto.ca/5087/2/LandUse/EmployedPopulation</title>
<g id="a_node1"><a xlink:href="../classes/LandUse__http://ontology.eil.utoronto.ca/5087/2/LandUse/EmployedPopulation.md" xlink:title="&lt;TABLE&gt;">
<polygon fill="lightgray" stroke="none" points="1,-25.88 1,-42.12 360.75,-42.12 360.75,-25.88 1,-25.88"/>
<text xml:space="preserve" text-anchor="start" x="2" y="-29.73" font-family="Arial" font-size="12.00">http://ontology.eil.utoronto.ca/5087/2/LandUse/EmployedPopulation</text>
<polygon fill="none" stroke="black" points="0,-24.88 0,-43.12 361.75,-43.12 361.75,-24.88 0,-24.88"/>
</a>
</g>
</g>
<!-- ResidentPopulation -->
<g id="node2" class="node">
<title>ResidentPopulation</title>
<g id="a_node2"><a xlink:href="../_counters/LandUse__ResidentPopulation.md" xlink:title="&lt;TABLE&gt;">
<polygon fill="lightgray" stroke="none" points="127,-97.88 127,-114.12 234.75,-114.12 234.75,-97.88 127,-97.88"/>
<text xml:space="preserve" text-anchor="start" x="128" y="-101.72" font-family="Arial" font-size="12.00">ResidentPopulation</text>
<polygon fill="none" stroke="black" points="126,-96.88 126,-115.12 235.75,-115.12 235.75,-96.88 126,-96.88"/>
</a>
</g>
</g>
<!-- http_//ontology.eil.utoronto.ca/5087/2/LandUse/EmployedPopulation&#45;&gt;ResidentPopulation -->
<g id="edge1" class="edge">
<title>http_//ontology.eil.utoronto.ca/5087/2/LandUse/EmployedPopulation&#45;&gt;ResidentPopulation</title>
<path fill="none" stroke="black" d="M180.88,-51.79C180.88,-59.25 180.88,-68.24 180.88,-76.69"/>
<polygon fill="none" stroke="black" points="177.38,-76.54 180.88,-86.54 184.38,-76.54 177.38,-76.54"/>
</g>
<!-- Invis -->
</g>
</svg>
