<?xml version="1.0" encoding="UTF-8" standalone="no"?>
<!DOCTYPE svg PUBLIC "-//W3C//DTD SVG 1.1//EN"
 "http://www.w3.org/Graphics/SVG/1.1/DTD/svg11.dtd">
<!-- Generated by graphviz version 14.0.2 (20251019.1705)
 -->
<!-- Pages: 1 -->
<svg width="470pt" height="477pt"
 viewBox="0.00 0.00 470.00 477.00" xmlns="http://www.w3.org/2000/svg" xmlns:xlink="http://www.w3.org/1999/xlink">
<g id="graph0" class="graph" transform="scale(1 1) rotate(0) translate(4 473)">
<polygon fill="white" stroke="none" points="-4,4 -4,-473 466.25,-473 466.25,4 -4,4"/>
<g id="clust2" class="cluster">
<title>cluster_associated</title>
</g>
<!-- http_//ontology.eil.utoronto.ca/5087/2/LandUse/LandArea -->
<g id="node1" class="node">
<title>http_//ontology.eil.utoronto.ca/5087/2/LandUse/LandArea</title>
<g id="a_node1"><a xlink:href="../classes/LandUse__http://ontology.eil.utoronto.ca/5087/2/LandUse/LandArea.md" xlink:title="&lt;TABLE&gt;">
<polygon fill="lightgray" stroke="none" points="156.75,-378 156.75,-394.25 457.25,-394.25 457.25,-378 156.75,-378"/>
<text xml:space="preserve" text-anchor="start" x="157.75" y="-381.85" font-family="Arial" font-size="12.00">http://ontology.eil.utoronto.ca/5087/2/LandUse/LandArea</text>
<text xml:space="preserve" text-anchor="start" x="157.75" y="-365.6" font-family="Arial" font-size="12.00">CityUnits::existsAt: xsd::string «exactly 1»</text>
<polygon fill="none" stroke="black" points="155.75,-360.75 155.75,-395.25 458.25,-395.25 458.25,-360.75 155.75,-360.75"/>
</a>
</g>
</g>
<!-- CityUnits__Manifestation -->
<g id="node2" class="node">
<title>CityUnits__Manifestation</title>
<polygon fill="lightgray" stroke="none" points="94,-442.88 94,-459.12 222,-459.12 222,-442.88 94,-442.88"/>
<text xml:space="preserve" text-anchor="start" x="95" y="-446.73" font-family="Arial" font-size="12.00">CityUnits::Manifestation</text>
<polygon fill="none" stroke="black" points="93,-441.88 93,-460.12 223,-460.12 223,-441.88 93,-441.88"/>
</g>
<!-- http_//ontology.eil.utoronto.ca/5087/2/LandUse/LandArea&#45;&gt;CityUnits__Manifestation -->
<g id="edge1" class="edge">
<title>http_//ontology.eil.utoronto.ca/5087/2/LandUse/LandArea&#45;&gt;CityUnits__Manifestation</title>
<path fill="none" stroke="black" d="M271.43,-395.95C251.12,-405.63 225.44,-417.87 203.65,-428.25"/>
<polygon fill="none" stroke="black" points="202.2,-425.06 194.68,-432.52 205.21,-431.38 202.2,-425.06"/>
</g>
<!-- LandUseOntologyThing -->
<g id="node3" class="node">
<title>LandUseOntologyThing</title>
<g id="a_node3"><a xlink:href="../_counters/LandUse__LandUseOntologyThing.md" xlink:title="&lt;TABLE&gt;">
<polygon fill="lightgray" stroke="none" points="242.25,-442.88 242.25,-459.12 371.75,-459.12 371.75,-442.88 242.25,-442.88"/>
<text xml:space="preserve" text-anchor="start" x="243.25" y="-446.73" font-family="Arial" font-size="12.00">LandUseOntologyThing</text>
<polygon fill="none" stroke="black" points="241.25,-441.88 241.25,-460.12 372.75,-460.12 372.75,-441.88 241.25,-441.88"/>
</a>
</g>
</g>
<!-- http_//ontology.eil.utoronto.ca/5087/2/LandUse/LandArea&#45;&gt;LandUseOntologyThing -->
<g id="edge2" class="edge">
<title>http_//ontology.eil.utoronto.ca/5087/2/LandUse/LandArea&#45;&gt;LandUseOntologyThing</title>
<path fill="none" stroke="black" d="M307,-395.71C307,-403.47 307,-412.92 307,-421.74"/>
<polygon fill="none" stroke="black" points="303.5,-421.66 307,-431.66 310.5,-421.66 303.5,-421.66"/>
</g>
<!-- Parcel -->
<g id="node4" class="node">
<title>Parcel</title>
<g id="a_node4"><a xlink:href="../_counters/LandUse__Parcel.md" xlink:title="&lt;TABLE&gt;">
<polygon fill="lightgray" stroke="none" points="399.75,-442.88 399.75,-459.12 436.25,-459.12 436.25,-442.88 399.75,-442.88"/>
<text xml:space="preserve" text-anchor="start" x="400.75" y="-446.73" font-family="Arial" font-size="12.00">Parcel</text>
<polygon fill="none" stroke="black" points="398.75,-441.88 398.75,-460.12 437.25,-460.12 437.25,-441.88 398.75,-441.88"/>
</a>
</g>
</g>
<!-- http_//ontology.eil.utoronto.ca/5087/2/LandUse/LandArea&#45;&gt;Parcel -->
<g id="edge3" class="edge">
<title>http_//ontology.eil.utoronto.ca/5087/2/LandUse/LandArea&#45;&gt;Parcel</title>
<path fill="none" stroke="black" d="M333.5,-395.95C348.08,-405.28 366.38,-416.98 382.21,-427.11"/>
<polygon fill="none" stroke="black" points="380.11,-429.92 390.42,-432.36 383.88,-424.02 380.11,-429.92"/>
</g>
<!-- Invis -->
<!-- http_//ontology.eil.utoronto.ca/5087/2/LandUse/LandArea&#45;&gt;Invis -->
<!-- acceleration__Area -->
<g id="node6" class="node">
<title>acceleration__Area</title>
<polygon fill="lightgray" stroke="none" points="28.62,-270.88 28.62,-287.12 127.38,-287.12 127.38,-270.88 28.62,-270.88"/>
<text xml:space="preserve" text-anchor="start" x="29.62" y="-274.73" font-family="Arial" font-size="12.00">acceleration::Area</text>
<polygon fill="none" stroke="black" points="27.62,-269.88 27.62,-288.12 128.38,-288.12 128.38,-269.88 27.62,-269.88"/>
</g>
<!-- http_//ontology.eil.utoronto.ca/5087/2/LandUse/LandArea&#45;&gt;acceleration__Area -->
<g id="edge10" class="edge">
<title>http_//ontology.eil.utoronto.ca/5087/2/LandUse/LandArea&#45;&gt;acceleration__Area</title>
<path fill="none" stroke="black" d="M161.37,-360.04C125.31,-354.53 95.06,-348.24 88.75,-342 79.95,-333.31 76.83,-320.17 76.09,-308.23"/>
<polygon fill="black" stroke="black" points="79.59,-308.38 76.03,-298.4 72.59,-308.42 79.59,-308.38"/>
<text xml:space="preserve" text-anchor="middle" x="128.88" y="-331.55" font-family="Arial" font-size="11.00"> associatedArea </text>
<text xml:space="preserve" text-anchor="middle" x="128.88" y="-318.05" font-family="Arial" font-size="11.00"> «only» &#160;</text>
</g>
<!-- LandUseClassification -->
<g id="node7" class="node">
<title>LandUseClassification</title>
<g id="a_node7"><a xlink:href="../_counters/LandUse__LandUseClassification.md" xlink:title="&lt;TABLE&gt;">
<polygon fill="lightgray" stroke="none" points="16.62,-171.88 16.62,-188.12 139.38,-188.12 139.38,-171.88 16.62,-171.88"/>
<text xml:space="preserve" text-anchor="start" x="17.62" y="-175.72" font-family="Arial" font-size="12.00">LandUseClassification</text>
<polygon fill="none" stroke="black" points="15.62,-170.88 15.62,-189.12 140.38,-189.12 140.38,-170.88 15.62,-170.88"/>
</a>
</g>
</g>
<!-- http_//ontology.eil.utoronto.ca/5087/2/LandUse/LandArea&#45;&gt;LandUseClassification -->
<g id="edge11" class="edge">
<title>http_//ontology.eil.utoronto.ca/5087/2/LandUse/LandArea&#45;&gt;LandUseClassification</title>
<path fill="none" stroke="black" d="M281.83,-360.17C259.08,-344.61 225.01,-320.41 197.25,-297 162.3,-267.51 124.96,-230.13 101.56,-205.89"/>
<polygon fill="black" stroke="black" points="104.39,-203.79 94.94,-199 99.34,-208.64 104.39,-203.79"/>
<text xml:space="preserve" text-anchor="middle" x="230.62" y="-282.05" font-family="Arial" font-size="11.00"> hasLandUse </text>
<text xml:space="preserve" text-anchor="middle" x="230.62" y="-268.55" font-family="Arial" font-size="11.00"> «only» &#160;</text>
</g>
<!-- measure__Feature -->
<g id="node8" class="node">
<title>measure__Feature</title>
<polygon fill="lightgray" stroke="none" points="35.12,-98.88 35.12,-115.12 130.88,-115.12 130.88,-98.88 35.12,-98.88"/>
<text xml:space="preserve" text-anchor="start" x="36.12" y="-102.72" font-family="Arial" font-size="12.00">measure::Feature</text>
<polygon fill="none" stroke="black" points="34.12,-97.88 34.12,-116.12 131.88,-116.12 131.88,-97.88 34.12,-97.88"/>
</g>
<!-- http_//ontology.eil.utoronto.ca/5087/2/LandUse/LandArea&#45;&gt;measure__Feature -->
<g id="edge9" class="edge">
<title>http_//ontology.eil.utoronto.ca/5087/2/LandUse/LandArea&#45;&gt;measure__Feature</title>
<path fill="none" stroke="black" d="M303.63,-360.4C298.22,-336.7 285.95,-292.57 264,-261 225.27,-205.29 161.33,-157.87 120.73,-131.17"/>
<polygon fill="black" stroke="black" points="122.76,-128.31 112.46,-125.82 118.96,-134.19 122.76,-128.31"/>
<text xml:space="preserve" text-anchor="middle" x="296.75" y="-232.55" font-family="Arial" font-size="11.00"> parcelHasLocation </text>
<text xml:space="preserve" text-anchor="middle" x="296.75" y="-219.05" font-family="Arial" font-size="11.00"> «some» &#160;</text>
</g>
<!-- measure__Population -->
<g id="node9" class="node">
<title>measure__Population</title>
<polygon fill="lightgray" stroke="none" points="26.88,-25.88 26.88,-42.12 139.12,-42.12 139.12,-25.88 26.88,-25.88"/>
<text xml:space="preserve" text-anchor="start" x="27.88" y="-29.73" font-family="Arial" font-size="12.00">measure::Population</text>
<polygon fill="none" stroke="black" points="25.88,-24.88 25.88,-43.12 140.12,-43.12 140.12,-24.88 25.88,-24.88"/>
</g>
<!-- http_//ontology.eil.utoronto.ca/5087/2/LandUse/LandArea&#45;&gt;measure__Population -->
<g id="edge12" class="edge">
<title>http_//ontology.eil.utoronto.ca/5087/2/LandUse/LandArea&#45;&gt;measure__Population</title>
<path fill="none" stroke="black" d="M333.97,-360.15C357.53,-343.12 388,-314.45 388,-280 388,-280 388,-280 388,-106 388,-57.76 241.42,-42.28 151.49,-37.33"/>
<polygon fill="black" stroke="black" points="151.69,-33.83 141.52,-36.81 151.33,-40.82 151.69,-33.83"/>
<text xml:space="preserve" text-anchor="middle" x="425.12" y="-183.05" font-family="Arial" font-size="11.00"> hasPopulation </text>
<text xml:space="preserve" text-anchor="middle" x="425.12" y="-169.55" font-family="Arial" font-size="11.00"> «only» &#160;</text>
</g>
<!-- Invis&#45;&gt;acceleration__Area -->
<!-- acceleration__Area&#45;&gt;LandUseClassification -->
<!-- LandUseClassification&#45;&gt;measure__Feature -->
<!-- measure__Feature&#45;&gt;measure__Population -->
</g>
</svg>
