<?xml version="1.0" encoding="UTF-8" standalone="no"?>
<!DOCTYPE svg PUBLIC "-//W3C//DTD SVG 1.1//EN"
 "http://www.w3.org/Graphics/SVG/1.1/DTD/svg11.dtd">
<!-- Generated by graphviz version 14.0.2 (20251019.1705)
 -->
<!-- Pages: 1 -->
<svg width="380pt" height="132pt"
 viewBox="0.00 0.00 380.00 132.00" xmlns="http://www.w3.org/2000/svg" xmlns:xlink="http://www.w3.org/1999/xlink">
<g id="graph0" class="graph" transform="scale(1 1) rotate(0) translate(4 128)">
<polygon fill="white" stroke="none" points="-4,4 -4,-128 376.25,-128 376.25,4 -4,4"/>
<g id="clust2" class="cluster">
<title>cluster_associated</title>
</g>
<!-- http_//ontology.eil.utoronto.ca/5087/2/LandUse/Parcel -->
<g id="node1" class="node">
<title>http_//ontology.eil.utoronto.ca/5087/2/LandUse/Parcel</title>
<g id="a_node1"><a xlink:href="../classes/LandUse__http://ontology.eil.utoronto.ca/5087/2/LandUse/Parcel.md" xlink:title="&lt;TABLE&gt;">
<polygon fill="lightgray" stroke="none" points="1,-25.88 1,-42.12 283.5,-42.12 283.5,-25.88 1,-25.88"/>
<text xml:space="preserve" text-anchor="start" x="2" y="-29.73" font-family="Arial" font-size="12.00">http://ontology.eil.utoronto.ca/5087/2/LandUse/Parcel</text>
<polygon fill="none" stroke="black" points="0,-24.88 0,-43.12 284.5,-43.12 284.5,-24.88 0,-24.88"/>
</a>
</g>
</g>
<!-- LandUseOntologyThing -->
<g id="node2" class="node">
<title>LandUseOntologyThing</title>
<g id="a_node2"><a xlink:href="../_counters/LandUse__LandUseOntologyThing.md" xlink:title="&lt;TABLE&gt;">
<polygon fill="lightgray" stroke="none" points="77.5,-97.88 77.5,-114.12 207,-114.12 207,-97.88 77.5,-97.88"/>
<text xml:space="preserve" text-anchor="start" x="78.5" y="-101.72" font-family="Arial" font-size="12.00">LandUseOntologyThing</text>
<polygon fill="none" stroke="black" points="76.5,-96.88 76.5,-115.12 208,-115.12 208,-96.88 76.5,-96.88"/>
</a>
</g>
</g>
<!-- http_//ontology.eil.utoronto.ca/5087/2/LandUse/Parcel&#45;&gt;LandUseOntologyThing -->
<g id="edge1" class="edge">
<title>http_//ontology.eil.utoronto.ca/5087/2/LandUse/Parcel&#45;&gt;LandUseOntologyThing</title>
<path fill="none" stroke="black" d="M142.25,-51.79C142.25,-59.25 142.25,-68.24 142.25,-76.69"/>
<polygon fill="none" stroke="black" points="138.75,-76.54 142.25,-86.54 145.75,-76.54 138.75,-76.54"/>
</g>
<!-- Invis -->
</g>
</svg>
