<?xml version="1.0" encoding="UTF-8" standalone="no"?>
<!DOCTYPE svg PUBLIC "-//W3C//DTD SVG 1.1//EN"
 "http://www.w3.org/Graphics/SVG/1.1/DTD/svg11.dtd">
<!-- Generated by graphviz version 14.0.2 (20251019.1705)
 -->
<!-- Pages: 1 -->
<svg width="452pt" height="132pt"
 viewBox="0.00 0.00 452.00 132.00" xmlns="http://www.w3.org/2000/svg" xmlns:xlink="http://www.w3.org/1999/xlink">
<g id="graph0" class="graph" transform="scale(1 1) rotate(0) translate(4 128)">
<polygon fill="white" stroke="none" points="-4,4 -4,-128 447.88,-128 447.88,4 -4,4"/>
<g id="clust2" class="cluster">
<title>cluster_associated</title>
</g>
<!-- http_//ontology.eil.utoronto.ca/5087/2/LandUse/ResidentPopulation -->
<g id="node1" class="node">
<title>http_//ontology.eil.utoronto.ca/5087/2/LandUse/ResidentPopulation</title>
<g id="a_node1"><a xlink:href="../classes/LandUse__http://ontology.eil.utoronto.ca/5087/2/LandUse/ResidentPopulation.md" xlink:title="&lt;TABLE&gt;">
<polygon fill="lightgray" stroke="none" points="1,-25.88 1,-42.12 354.75,-42.12 354.75,-25.88 1,-25.88"/>
<text xml:space="preserve" text-anchor="start" x="2" y="-29.73" font-family="Arial" font-size="12.00">http://ontology.eil.utoronto.ca/5087/2/LandUse/ResidentPopulation</text>
<polygon fill="none" stroke="black" points="0,-24.88 0,-43.12 355.75,-43.12 355.75,-24.88 0,-24.88"/>
</a>
</g>
</g>
<!-- LandUseOntologyThing -->
<g id="node2" class="node">
<title>LandUseOntologyThing</title>
<g id="a_node2"><a xlink:href="../_counters/LandUse__LandUseOntologyThing.md" xlink:title="&lt;TABLE&gt;">
<polygon fill="lightgray" stroke="none" points="43.12,-97.88 43.12,-114.12 172.62,-114.12 172.62,-97.88 43.12,-97.88"/>
<text xml:space="preserve" text-anchor="start" x="44.12" y="-101.72" font-family="Arial" font-size="12.00">LandUseOntologyThing</text>
<polygon fill="none" stroke="black" points="42.12,-96.88 42.12,-115.12 173.62,-115.12 173.62,-96.88 42.12,-96.88"/>
</a>
</g>
</g>
<!-- http_//ontology.eil.utoronto.ca/5087/2/LandUse/ResidentPopulation&#45;&gt;LandUseOntologyThing -->
<g id="edge1" class="edge">
<title>http_//ontology.eil.utoronto.ca/5087/2/LandUse/ResidentPopulation&#45;&gt;LandUseOntologyThing</title>
<path fill="none" stroke="black" d="M161.09,-51.79C152.6,-60.28 142.13,-70.75 132.73,-80.15"/>
<polygon fill="none" stroke="black" points="130.49,-77.44 125.89,-86.98 135.44,-82.39 130.49,-77.44"/>
</g>
<!-- measure__Population -->
<g id="node3" class="node">
<title>measure__Population</title>
<polygon fill="lightgray" stroke="none" points="192.75,-97.88 192.75,-114.12 305,-114.12 305,-97.88 192.75,-97.88"/>
<text xml:space="preserve" text-anchor="start" x="193.75" y="-101.72" font-family="Arial" font-size="12.00">measure::Population</text>
<polygon fill="none" stroke="black" points="191.75,-96.88 191.75,-115.12 306,-115.12 306,-96.88 191.75,-96.88"/>
</g>
<!-- http_//ontology.eil.utoronto.ca/5087/2/LandUse/ResidentPopulation&#45;&gt;measure__Population -->
<g id="edge2" class="edge">
<title>http_//ontology.eil.utoronto.ca/5087/2/LandUse/ResidentPopulation&#45;&gt;measure__Population</title>
<path fill="none" stroke="black" d="M194.9,-51.79C203.51,-60.28 214.13,-70.75 223.67,-80.15"/>
<polygon fill="none" stroke="black" points="221.03,-82.46 230.61,-86.99 225.95,-77.48 221.03,-82.46"/>
</g>
<!-- Invis -->
</g>
</svg>
