<?xml version="1.0" encoding="UTF-8" standalone="no"?>
<!DOCTYPE svg PUBLIC "-//W3C//DTD SVG 1.1//EN"
 "http://www.w3.org/Graphics/SVG/1.1/DTD/svg11.dtd">
<!-- Generated by graphviz version 14.0.2 (20251019.1705)
 -->
<!-- Pages: 1 -->
<svg width="406pt" height="132pt"
 viewBox="0.00 0.00 406.00 132.00" xmlns="http://www.w3.org/2000/svg" xmlns:xlink="http://www.w3.org/1999/xlink">
<g id="graph0" class="graph" transform="scale(1 1) rotate(0) translate(4 128)">
<polygon fill="white" stroke="none" points="-4,4 -4,-128 402,-128 402,4 -4,4"/>
<g id="clust2" class="cluster">
<title>cluster_associated</title>
</g>
<!-- http_//ontology.eil.utoronto.ca/5087/2/LandUse/TrafficZone -->
<g id="node1" class="node">
<title>http_//ontology.eil.utoronto.ca/5087/2/LandUse/TrafficZone</title>
<g id="a_node1"><a xlink:href="../classes/LandUse__http://ontology.eil.utoronto.ca/5087/2/LandUse/TrafficZone.md" xlink:title="&lt;TABLE&gt;">
<polygon fill="lightgray" stroke="none" points="1,-25.88 1,-42.12 309,-42.12 309,-25.88 1,-25.88"/>
<text xml:space="preserve" text-anchor="start" x="2" y="-29.73" font-family="Arial" font-size="12.00">http://ontology.eil.utoronto.ca/5087/2/LandUse/TrafficZone</text>
<polygon fill="none" stroke="black" points="0,-24.88 0,-43.12 310,-43.12 310,-24.88 0,-24.88"/>
</a>
</g>
</g>
<!-- LandArea -->
<g id="node2" class="node">
<title>LandArea</title>
<g id="a_node2"><a xlink:href="../_counters/LandUse__LandArea.md" xlink:title="&lt;TABLE&gt;">
<polygon fill="lightgray" stroke="none" points="127.75,-97.88 127.75,-114.12 182.25,-114.12 182.25,-97.88 127.75,-97.88"/>
<text xml:space="preserve" text-anchor="start" x="128.75" y="-101.72" font-family="Arial" font-size="12.00">LandArea</text>
<polygon fill="none" stroke="black" points="126.75,-96.88 126.75,-115.12 183.25,-115.12 183.25,-96.88 126.75,-96.88"/>
</a>
</g>
</g>
<!-- http_//ontology.eil.utoronto.ca/5087/2/LandUse/TrafficZone&#45;&gt;LandArea -->
<g id="edge1" class="edge">
<title>http_//ontology.eil.utoronto.ca/5087/2/LandUse/TrafficZone&#45;&gt;LandArea</title>
<path fill="none" stroke="black" d="M155,-51.79C155,-59.25 155,-68.24 155,-76.69"/>
<polygon fill="none" stroke="black" points="151.5,-76.54 155,-86.54 158.5,-76.54 151.5,-76.54"/>
</g>
<!-- Invis -->
</g>
</svg>
