<?xml version="1.0" encoding="UTF-8" standalone="no"?>
<!DOCTYPE svg PUBLIC "-//W3C//DTD SVG 1.1//EN"
 "http://www.w3.org/Graphics/SVG/1.1/DTD/svg11.dtd">
<!-- Generated by graphviz version 14.0.2 (20251019.1705)
 -->
<!-- Pages: 1 -->
<svg width="558pt" height="132pt"
 viewBox="0.00 0.00 558.00 132.00" xmlns="http://www.w3.org/2000/svg" xmlns:xlink="http://www.w3.org/1999/xlink">
<g id="graph0" class="graph" transform="scale(1 1) rotate(0) translate(4 128)">
<polygon fill="white" stroke="none" points="-4,4 -4,-128 553.75,-128 553.75,4 -4,4"/>
<g id="clust2" class="cluster">
<title>cluster_associated</title>
</g>
<!-- https_//standards.iso.org/iso&#45;iec/5087/&#45;2/ed&#45;1/en/ontology/Contract/ConditionPrecedent -->
<g id="node1" class="node">
<title>https_//standards.iso.org/iso&#45;iec/5087/&#45;2/ed&#45;1/en/ontology/Contract/ConditionPrecedent</title>
<g id="a_node1"><a xlink:href="../classes/Contract__https://standards.iso.org/iso-iec/5087/-2/ed-1/en/ontology/Contract/ConditionPrecedent.md" xlink:title="&lt;TABLE&gt;">
<polygon fill="lightgray" stroke="none" points="1,-25.88 1,-42.12 460.5,-42.12 460.5,-25.88 1,-25.88"/>
<text xml:space="preserve" text-anchor="start" x="2" y="-29.73" font-family="Arial" font-size="12.00">https://standards.iso.org/iso&#45;iec/5087/&#45;2/ed&#45;1/en/ontology/Contract/ConditionPrecedent</text>
<polygon fill="none" stroke="black" points="0,-24.88 0,-43.12 461.5,-43.12 461.5,-24.88 0,-24.88"/>
</a>
</g>
</g>
<!-- ContractualElement -->
<g id="node2" class="node">
<title>ContractualElement</title>
<g id="a_node2"><a xlink:href="../_counters/Contract__ContractualElement.md" xlink:title="&lt;TABLE&gt;">
<polygon fill="lightgray" stroke="none" points="176.88,-97.88 176.88,-114.12 284.62,-114.12 284.62,-97.88 176.88,-97.88"/>
<text xml:space="preserve" text-anchor="start" x="177.88" y="-101.72" font-family="Arial" font-size="12.00">ContractualElement</text>
<polygon fill="none" stroke="black" points="175.88,-96.88 175.88,-115.12 285.62,-115.12 285.62,-96.88 175.88,-96.88"/>
</a>
</g>
</g>
<!-- https_//standards.iso.org/iso&#45;iec/5087/&#45;2/ed&#45;1/en/ontology/Contract/ConditionPrecedent&#45;&gt;ContractualElement -->
<g id="edge1" class="edge">
<title>https_//standards.iso.org/iso&#45;iec/5087/&#45;2/ed&#45;1/en/ontology/Contract/ConditionPrecedent&#45;&gt;ContractualElement</title>
<path fill="none" stroke="black" d="M230.75,-51.79C230.75,-59.25 230.75,-68.24 230.75,-76.69"/>
<polygon fill="none" stroke="black" points="227.25,-76.54 230.75,-86.54 234.25,-76.54 227.25,-76.54"/>
</g>
<!-- Invis -->
</g>
</svg>
