<?xml version="1.0" encoding="UTF-8" standalone="no"?>
<!DOCTYPE svg PUBLIC "-//W3C//DTD SVG 1.1//EN"
 "http://www.w3.org/Graphics/SVG/1.1/DTD/svg11.dtd">
<!-- Generated by graphviz version 14.0.2 (20251019.1705)
 -->
<!-- Pages: 1 -->
<svg width="622pt" height="232pt"
 viewBox="0.00 0.00 622.00 232.00" xmlns="http://www.w3.org/2000/svg" xmlns:xlink="http://www.w3.org/1999/xlink">
<g id="graph0" class="graph" transform="scale(1 1) rotate(0) translate(4 228)">
<polygon fill="white" stroke="none" points="-4,4 -4,-228 618,-228 618,4 -4,4"/>
<g id="clust2" class="cluster">
<title>cluster_associated</title>
</g>
<!-- https_//standards.iso.org/iso&#45;iec/5087/&#45;2/ed&#45;1/en/ontology/Contract/ContractualCommitment -->
<g id="node1" class="node">
<title>https_//standards.iso.org/iso&#45;iec/5087/&#45;2/ed&#45;1/en/ontology/Contract/ContractualCommitment</title>
<g id="a_node1"><a xlink:href="../classes/Contract__https://standards.iso.org/iso-iec/5087/-2/ed-1/en/ontology/Contract/ContractualCommitment.md" xlink:title="&lt;TABLE&gt;">
<polygon fill="lightgray" stroke="none" points="131,-124.88 131,-141.12 613,-141.12 613,-124.88 131,-124.88"/>
<text xml:space="preserve" text-anchor="start" x="132" y="-128.72" font-family="Arial" font-size="12.00">https://standards.iso.org/iso&#45;iec/5087/&#45;2/ed&#45;1/en/ontology/Contract/ContractualCommitment</text>
<polygon fill="none" stroke="black" points="130,-123.88 130,-142.12 614,-142.12 614,-123.88 130,-123.88"/>
</a>
</g>
</g>
<!-- ContractualElement -->
<g id="node2" class="node">
<title>ContractualElement</title>
<g id="a_node2"><a xlink:href="../_counters/Contract__ContractualElement.md" xlink:title="&lt;TABLE&gt;">
<polygon fill="lightgray" stroke="none" points="318.12,-197.88 318.12,-214.12 425.88,-214.12 425.88,-197.88 318.12,-197.88"/>
<text xml:space="preserve" text-anchor="start" x="319.12" y="-201.72" font-family="Arial" font-size="12.00">ContractualElement</text>
<polygon fill="none" stroke="black" points="317.12,-196.88 317.12,-215.12 426.88,-215.12 426.88,-196.88 317.12,-196.88"/>
</a>
</g>
</g>
<!-- https_//standards.iso.org/iso&#45;iec/5087/&#45;2/ed&#45;1/en/ontology/Contract/ContractualCommitment&#45;&gt;ContractualElement -->
<g id="edge1" class="edge">
<title>https_//standards.iso.org/iso&#45;iec/5087/&#45;2/ed&#45;1/en/ontology/Contract/ContractualCommitment&#45;&gt;ContractualElement</title>
<path fill="none" stroke="black" d="M372,-150.71C372,-158.47 372,-167.92 372,-176.74"/>
<polygon fill="none" stroke="black" points="368.5,-176.66 372,-186.66 375.5,-176.66 368.5,-176.66"/>
</g>
<!-- Invis -->
<!-- https_//standards.iso.org/iso&#45;iec/5087/&#45;2/ed&#45;1/en/ontology/Contract/ContractualCommitment&#45;&gt;Invis -->
<!-- agent__Agreement -->
<g id="node4" class="node">
<title>agent__Agreement</title>
<polygon fill="lightgray" stroke="none" points="16.75,-25.88 16.75,-42.12 113.25,-42.12 113.25,-25.88 16.75,-25.88"/>
<text xml:space="preserve" text-anchor="start" x="17.75" y="-29.73" font-family="Arial" font-size="12.00">agent::Agreement</text>
<polygon fill="none" stroke="black" points="15.75,-24.88 15.75,-43.12 114.25,-43.12 114.25,-24.88 15.75,-24.88"/>
</g>
<!-- https_//standards.iso.org/iso&#45;iec/5087/&#45;2/ed&#45;1/en/ontology/Contract/ContractualCommitment&#45;&gt;agent__Agreement -->
<g id="edge4" class="edge">
<title>https_//standards.iso.org/iso&#45;iec/5087/&#45;2/ed&#45;1/en/ontology/Contract/ContractualCommitment&#45;&gt;agent__Agreement</title>
<path fill="none" stroke="black" d="M318.52,-115.1C264.49,-98.03 181.17,-71.7 124.93,-53.94"/>
<polygon fill="black" stroke="black" points="126.1,-50.63 115.51,-50.96 123.99,-57.31 126.1,-50.63"/>
<text xml:space="preserve" text-anchor="middle" x="305.28" y="-86.55" font-family="Arial" font-size="11.00"> specifiesAgreement </text>
<text xml:space="preserve" text-anchor="middle" x="305.28" y="-73.05" font-family="Arial" font-size="11.00"> «only» &#160;</text>
</g>
<!-- Invis&#45;&gt;agent__Agreement -->
</g>
</svg>
