<?xml version="1.0" encoding="UTF-8" standalone="no"?>
<!DOCTYPE svg PUBLIC "-//W3C//DTD SVG 1.1//EN"
 "http://www.w3.org/Graphics/SVG/1.1/DTD/svg11.dtd">
<!-- Generated by graphviz version 14.0.2 (20251019.1705)
 -->
<!-- Pages: 1 -->
<svg width="556pt" height="159pt"
 viewBox="0.00 0.00 556.00 159.00" xmlns="http://www.w3.org/2000/svg" xmlns:xlink="http://www.w3.org/1999/xlink">
<g id="graph0" class="graph" transform="scale(1 1) rotate(0) translate(4 155)">
<polygon fill="white" stroke="none" points="-4,4 -4,-155 552.38,-155 552.38,4 -4,4"/>
<g id="clust2" class="cluster">
<title>cluster_associated</title>
</g>
<!-- https_//standards.iso.org/iso&#45;iec/5087/&#45;2/ed&#45;1/en/ontology/Contract/ContractualElement -->
<g id="node1" class="node">
<title>https_//standards.iso.org/iso&#45;iec/5087/&#45;2/ed&#45;1/en/ontology/Contract/ContractualElement</title>
<g id="a_node1"><a xlink:href="../classes/Contract__https://standards.iso.org/iso-iec/5087/-2/ed-1/en/ontology/Contract/ContractualElement.md" xlink:title="&lt;TABLE&gt;">
<polygon fill="lightgray" stroke="none" points="1,-34 1,-50.25 459.75,-50.25 459.75,-34 1,-34"/>
<text xml:space="preserve" text-anchor="start" x="2" y="-37.85" font-family="Arial" font-size="12.00">https://standards.iso.org/iso&#45;iec/5087/&#45;2/ed&#45;1/en/ontology/Contract/ContractualElement</text>
<text xml:space="preserve" text-anchor="start" x="2" y="-21.6" font-family="Arial" font-size="12.00">hasContractText: xsd::string</text>
<polygon fill="none" stroke="black" points="0,-16.75 0,-51.25 460.75,-51.25 460.75,-16.75 0,-16.75"/>
</a>
</g>
</g>
<!-- ContractOntologyThing -->
<g id="node2" class="node">
<title>ContractOntologyThing</title>
<g id="a_node2"><a xlink:href="../_counters/Contract__ContractOntologyThing.md" xlink:title="&lt;TABLE&gt;">
<polygon fill="lightgray" stroke="none" points="113.5,-124.88 113.5,-141.12 239.25,-141.12 239.25,-124.88 113.5,-124.88"/>
<text xml:space="preserve" text-anchor="start" x="114.5" y="-128.72" font-family="Arial" font-size="12.00">ContractOntologyThing</text>
<polygon fill="none" stroke="black" points="112.5,-123.88 112.5,-142.12 240.25,-142.12 240.25,-123.88 112.5,-123.88"/>
</a>
</g>
</g>
<!-- https_//standards.iso.org/iso&#45;iec/5087/&#45;2/ed&#45;1/en/ontology/Contract/ContractualElement&#45;&gt;ContractOntologyThing -->
<g id="edge1" class="edge">
<title>https_//standards.iso.org/iso&#45;iec/5087/&#45;2/ed&#45;1/en/ontology/Contract/ContractualElement&#45;&gt;ContractOntologyThing</title>
<path fill="none" stroke="black" d="M221.08,-51.7C212.9,-66.39 200.86,-88.02 191.33,-105.13"/>
<polygon fill="none" stroke="black" points="188.32,-103.34 186.52,-113.78 194.44,-106.75 188.32,-103.34"/>
</g>
<!-- Invis -->
<!-- Contract -->
<g id="node4" class="node">
<title>Contract</title>
<g id="a_node4"><a xlink:href="../_counters/Contract__Contract.md" xlink:title="&lt;TABLE&gt;">
<polygon fill="lightgray" stroke="none" points="261.88,-124.88 261.88,-141.12 308.88,-141.12 308.88,-124.88 261.88,-124.88"/>
<text xml:space="preserve" text-anchor="start" x="262.88" y="-128.72" font-family="Arial" font-size="12.00">Contract</text>
<polygon fill="none" stroke="black" points="260.88,-123.88 260.88,-142.12 309.88,-142.12 309.88,-123.88 260.88,-123.88"/>
</a>
</g>
</g>
<!-- Contract&#45;&gt;https_//standards.iso.org/iso&#45;iec/5087/&#45;2/ed&#45;1/en/ontology/Contract/ContractualElement -->
<g id="edge2" class="edge">
<title>Contract&#45;&gt;https_//standards.iso.org/iso&#45;iec/5087/&#45;2/ed&#45;1/en/ontology/Contract/ContractualElement</title>
<path fill="none" stroke="black" d="M275.79,-115.1C267.28,-100.08 254.7,-77.9 244.94,-60.68"/>
<polygon fill="black" stroke="black" points="243.14,-50.41 245.02,-60.84 237.05,-53.86 243.14,-50.41"/>
<text xml:space="preserve" text-anchor="middle" x="342.42" y="-86.55" font-family="Arial" font-size="11.00"> inverse hasContractualElement </text>
<text xml:space="preserve" text-anchor="middle" x="342.42" y="-73.05" font-family="Arial" font-size="11.00"> «some» &#160;</text>
</g>
</g>
</svg>
