<?xml version="1.0" encoding="UTF-8" standalone="no"?>
<!DOCTYPE svg PUBLIC "-//W3C//DTD SVG 1.1//EN"
 "http://www.w3.org/Graphics/SVG/1.1/DTD/svg11.dtd">
<!-- Generated by graphviz version 14.0.2 (20251019.1705)
 -->
<!-- Pages: 1 -->
<svg width="674pt" height="675pt"
 viewBox="0.00 0.00 674.00 675.00" xmlns="http://www.w3.org/2000/svg" xmlns:xlink="http://www.w3.org/1999/xlink">
<g id="graph0" class="graph" transform="scale(1 1) rotate(0) translate(4 671)">
<polygon fill="white" stroke="none" points="-4,4 -4,-671 670,-671 670,4 -4,4"/>
<g id="clust2" class="cluster">
<title>cluster_associated</title>
</g>
<!-- https_//standards.iso.org/iso&#45;iec/5087/&#45;2/ed&#45;1/en/ontology/Contract/Contract -->
<g id="node1" class="node">
<title>https_//standards.iso.org/iso&#45;iec/5087/&#45;2/ed&#45;1/en/ontology/Contract/Contract</title>
<g id="a_node1"><a xlink:href="../classes/Contract__https://standards.iso.org/iso-iec/5087/-2/ed-1/en/ontology/Contract/Contract.md" xlink:title="&lt;TABLE&gt;">
<polygon fill="lightgray" stroke="none" points="267,-541.88 267,-558.12 665,-558.12 665,-541.88 267,-541.88"/>
<text xml:space="preserve" text-anchor="start" x="268" y="-545.73" font-family="Arial" font-size="12.00">https://standards.iso.org/iso&#45;iec/5087/&#45;2/ed&#45;1/en/ontology/Contract/Contract</text>
<polygon fill="none" stroke="black" points="266,-540.88 266,-559.12 666,-559.12 666,-540.88 266,-540.88"/>
</a>
</g>
</g>
<!-- ContractOntologyThing -->
<g id="node2" class="node">
<title>ContractOntologyThing</title>
<g id="a_node2"><a xlink:href="../_counters/Contract__ContractOntologyThing.md" xlink:title="&lt;TABLE&gt;">
<polygon fill="lightgray" stroke="none" points="403.12,-640.88 403.12,-657.12 528.88,-657.12 528.88,-640.88 403.12,-640.88"/>
<text xml:space="preserve" text-anchor="start" x="404.12" y="-644.73" font-family="Arial" font-size="12.00">ContractOntologyThing</text>
<polygon fill="none" stroke="black" points="402.12,-639.88 402.12,-658.12 529.88,-658.12 529.88,-639.88 402.12,-639.88"/>
</a>
</g>
</g>
<!-- https_//standards.iso.org/iso&#45;iec/5087/&#45;2/ed&#45;1/en/ontology/Contract/Contract&#45;&gt;ContractOntologyThing -->
<g id="edge1" class="edge">
<title>https_//standards.iso.org/iso&#45;iec/5087/&#45;2/ed&#45;1/en/ontology/Contract/Contract&#45;&gt;ContractOntologyThing</title>
<path fill="none" stroke="black" d="M466,-567.7C466,-581.97 466,-602.8 466,-619.67"/>
<polygon fill="none" stroke="black" points="462.5,-619.59 466,-629.59 469.5,-619.59 462.5,-619.59"/>
</g>
<!-- Invis -->
<!-- https_//standards.iso.org/iso&#45;iec/5087/&#45;2/ed&#45;1/en/ontology/Contract/Contract&#45;&gt;Invis -->
<!-- agent__Agreement -->
<g id="node4" class="node">
<title>agent__Agreement</title>
<polygon fill="lightgray" stroke="none" points="73.75,-442.88 73.75,-459.12 170.25,-459.12 170.25,-442.88 73.75,-442.88"/>
<text xml:space="preserve" text-anchor="start" x="74.75" y="-446.73" font-family="Arial" font-size="12.00">agent::Agreement</text>
<polygon fill="none" stroke="black" points="72.75,-441.88 72.75,-460.12 171.25,-460.12 171.25,-441.88 72.75,-441.88"/>
</g>
<!-- https_//standards.iso.org/iso&#45;iec/5087/&#45;2/ed&#45;1/en/ontology/Contract/Contract&#45;&gt;agent__Agreement -->
<g id="edge10" class="edge">
<title>https_//standards.iso.org/iso&#45;iec/5087/&#45;2/ed&#45;1/en/ontology/Contract/Contract&#45;&gt;agent__Agreement</title>
<path fill="none" stroke="black" d="M266.07,-532.65C232.06,-527.79 202.56,-521.66 186.5,-514 168.96,-505.63 153.16,-490.63 141.58,-477.48"/>
<polygon fill="black" stroke="black" points="144.36,-475.35 135.25,-469.94 139,-479.85 144.36,-475.35"/>
<text xml:space="preserve" text-anchor="middle" x="236.75" y="-503.55" font-family="Arial" font-size="11.00"> specifiesAgreement </text>
<text xml:space="preserve" text-anchor="middle" x="236.75" y="-490.05" font-family="Arial" font-size="11.00"> «some» &#160;</text>
</g>
<!-- ContractualElement -->
<g id="node6" class="node">
<title>ContractualElement</title>
<g id="a_node6"><a xlink:href="../_counters/Contract__ContractualElement.md" xlink:title="&lt;TABLE&gt;">
<polygon fill="lightgray" stroke="none" points="107.12,-244.88 107.12,-261.12 214.88,-261.12 214.88,-244.88 107.12,-244.88"/>
<text xml:space="preserve" text-anchor="start" x="108.12" y="-248.72" font-family="Arial" font-size="12.00">ContractualElement</text>
<polygon fill="none" stroke="black" points="106.12,-243.88 106.12,-262.12 215.88,-262.12 215.88,-243.88 106.12,-243.88"/>
</a>
</g>
</g>
<!-- https_//standards.iso.org/iso&#45;iec/5087/&#45;2/ed&#45;1/en/ontology/Contract/Contract&#45;&gt;ContractualElement -->
<g id="edge9" class="edge">
<title>https_//standards.iso.org/iso&#45;iec/5087/&#45;2/ed&#45;1/en/ontology/Contract/Contract&#45;&gt;ContractualElement</title>
<path fill="none" stroke="black" d="M443.91,-532.06C436.57,-526.38 428.4,-519.96 421,-514 367.57,-470.93 351.52,-463.03 302.5,-415 291.14,-403.87 289.48,-399.97 279,-388 245.8,-350.07 207.16,-306.26 183.39,-279.34"/>
<polygon fill="black" stroke="black" points="186.18,-277.21 176.94,-272.03 180.93,-281.84 186.18,-277.21"/>
<text xml:space="preserve" text-anchor="middle" x="361.75" y="-404.55" font-family="Arial" font-size="11.00"> hasContractualElement </text>
<text xml:space="preserve" text-anchor="middle" x="361.75" y="-391.05" font-family="Arial" font-size="11.00"> «some» &#160;</text>
</g>
<!-- person__Person -->
<g id="node7" class="node">
<title>person__Person</title>
<polygon fill="lightgray" stroke="none" points="131.5,-171.88 131.5,-188.12 214.5,-188.12 214.5,-171.88 131.5,-171.88"/>
<text xml:space="preserve" text-anchor="start" x="132.5" y="-175.72" font-family="Arial" font-size="12.00">person::Person</text>
<polygon fill="none" stroke="black" points="130.5,-170.88 130.5,-189.12 215.5,-189.12 215.5,-170.88 130.5,-170.88"/>
</g>
<!-- https_//standards.iso.org/iso&#45;iec/5087/&#45;2/ed&#45;1/en/ontology/Contract/Contract&#45;&gt;person__Person -->
<g id="edge16" class="edge">
<title>https_//standards.iso.org/iso&#45;iec/5087/&#45;2/ed&#45;1/en/ontology/Contract/Contract&#45;&gt;person__Person</title>
<path fill="none" stroke="black" d="M462.04,-532.08C452.8,-493.13 429.97,-399.59 421,-388 411.25,-375.4 402.25,-380.19 390,-370 320.71,-312.33 331.03,-268.85 258,-216 248.3,-208.98 236.99,-203.07 225.84,-198.22"/>
<polygon fill="black" stroke="black" points="227.24,-195.01 216.65,-194.47 224.59,-201.49 227.24,-195.01"/>
<text xml:space="preserve" text-anchor="middle" x="424.5" y="-355.05" font-family="Arial" font-size="11.00"> hasSignatory </text>
<text xml:space="preserve" text-anchor="middle" x="424.5" y="-341.55" font-family="Arial" font-size="11.00"> «min 2» &#160;</text>
</g>
<!-- time__Interval -->
<g id="node8" class="node">
<title>time__Interval</title>
<polygon fill="lightgray" stroke="none" points="138.25,-98.88 138.25,-115.12 207.75,-115.12 207.75,-98.88 138.25,-98.88"/>
<text xml:space="preserve" text-anchor="start" x="139.25" y="-102.72" font-family="Arial" font-size="12.00">time::Interval</text>
<polygon fill="none" stroke="black" points="137.25,-97.88 137.25,-116.12 208.75,-116.12 208.75,-97.88 137.25,-97.88"/>
</g>
<!-- https_//standards.iso.org/iso&#45;iec/5087/&#45;2/ed&#45;1/en/ontology/Contract/Contract&#45;&gt;time__Interval -->
<g id="edge12" class="edge">
<title>https_//standards.iso.org/iso&#45;iec/5087/&#45;2/ed&#45;1/en/ontology/Contract/Contract&#45;&gt;time__Interval</title>
<path fill="none" stroke="black" d="M467.95,-532.2C470.02,-512.88 473,-480.2 473,-452 473,-452 473,-452 473,-179 473,-127.63 304.3,-113.38 219.91,-109.46"/>
<polygon fill="black" stroke="black" points="220.25,-105.97 210.1,-109.04 219.94,-112.97 220.25,-105.97"/>
<text xml:space="preserve" text-anchor="middle" x="499.62" y="-305.55" font-family="Arial" font-size="11.00"> isValidFor </text>
<text xml:space="preserve" text-anchor="middle" x="499.62" y="-292.05" font-family="Arial" font-size="11.00"> «only» &#160;</text>
</g>
<!-- time__TemporalEntity -->
<g id="node9" class="node">
<title>time__TemporalEntity</title>
<polygon fill="lightgray" stroke="none" points="105,-25.88 105,-42.12 215,-42.12 215,-25.88 105,-25.88"/>
<text xml:space="preserve" text-anchor="start" x="106" y="-29.73" font-family="Arial" font-size="12.00">time::TemporalEntity</text>
<polygon fill="none" stroke="black" points="104,-24.88 104,-43.12 216,-43.12 216,-24.88 104,-24.88"/>
</g>
<!-- https_//standards.iso.org/iso&#45;iec/5087/&#45;2/ed&#45;1/en/ontology/Contract/Contract&#45;&gt;time__TemporalEntity -->
<g id="edge11" class="edge">
<title>https_//standards.iso.org/iso&#45;iec/5087/&#45;2/ed&#45;1/en/ontology/Contract/Contract&#45;&gt;time__TemporalEntity</title>
<path fill="none" stroke="black" d="M490.56,-532.03C512.43,-514.7 541,-485.63 541,-452 541,-452 541,-452 541,-106 541,-74.44 336.37,-51.01 227.04,-40.74"/>
<polygon fill="black" stroke="black" points="227.6,-37.27 217.32,-39.84 226.95,-44.24 227.6,-37.27"/>
<text xml:space="preserve" text-anchor="middle" x="572.88" y="-256.05" font-family="Arial" font-size="11.00"> executedOn </text>
<text xml:space="preserve" text-anchor="middle" x="572.88" y="-242.55" font-family="Arial" font-size="11.00"> «only» &#160;</text>
</g>
<!-- Nbd5e06f701f34b7dae7d0cc0526b00a0 -->
<g id="node10" class="node">
<title>Nbd5e06f701f34b7dae7d0cc0526b00a0</title>
<polygon fill="lightyellow" stroke="none" points="208.25,-639.88 208.25,-658.12 267.75,-658.12 267.75,-639.88 208.25,-639.88"/>
<text xml:space="preserve" text-anchor="start" x="210.25" y="-644.73" font-family="Arial" font-size="12.00">«unionOf»</text>
<polygon fill="none" stroke="black" points="208.25,-639.88 208.25,-658.12 267.75,-658.12 267.75,-639.88 208.25,-639.88"/>
</g>
<!-- https_//standards.iso.org/iso&#45;iec/5087/&#45;2/ed&#45;1/en/ontology/Contract/Contract&#45;&gt;Nbd5e06f701f34b7dae7d0cc0526b00a0 -->
<g id="edge15" class="edge">
<title>https_//standards.iso.org/iso&#45;iec/5087/&#45;2/ed&#45;1/en/ontology/Contract/Contract&#45;&gt;Nbd5e06f701f34b7dae7d0cc0526b00a0</title>
<path fill="none" stroke="black" d="M426.45,-567.83C384.74,-585.57 319.42,-613.36 277.68,-631.12"/>
<polygon fill="black" stroke="black" points="276.56,-627.79 268.73,-634.92 279.31,-634.23 276.56,-627.79"/>
<text xml:space="preserve" text-anchor="middle" x="403.5" y="-602.55" font-family="Arial" font-size="11.00"> hasParty </text>
<text xml:space="preserve" text-anchor="middle" x="403.5" y="-589.05" font-family="Arial" font-size="11.00"> «min 2» &#160;</text>
</g>
<!-- Invis&#45;&gt;agent__Agreement -->
<!-- businessestablishment__Organization -->
<g id="node5" class="node">
<title>businessestablishment__Organization</title>
<polygon fill="lightgray" stroke="none" points="16.75,-343.88 16.75,-360.12 215.25,-360.12 215.25,-343.88 16.75,-343.88"/>
<text xml:space="preserve" text-anchor="start" x="17.75" y="-347.73" font-family="Arial" font-size="12.00">businessestablishment::Organization</text>
<polygon fill="none" stroke="black" points="15.75,-342.88 15.75,-361.12 216.25,-361.12 216.25,-342.88 15.75,-342.88"/>
</g>
<!-- agent__Agreement&#45;&gt;businessestablishment__Organization -->
<!-- businessestablishment__Organization&#45;&gt;ContractualElement -->
<!-- ContractualElement&#45;&gt;person__Person -->
<!-- person__Person&#45;&gt;time__Interval -->
<!-- time__Interval&#45;&gt;time__TemporalEntity -->
<!-- Nbd5e06f701f34b7dae7d0cc0526b00a0&#45;&gt;businessestablishment__Organization -->
<g id="edge13" class="edge">
<title>Nbd5e06f701f34b7dae7d0cc0526b00a0&#45;&gt;businessestablishment__Organization</title>
<path fill="none" stroke="black" stroke-dasharray="1,5" d="M208.27,-638.17C163.15,-621.29 80.11,-581.86 56.25,-514 39.4,-466.08 71.44,-410.63 94.76,-378.9"/>
<polygon fill="black" stroke="black" points="97.47,-381.13 100.74,-371.06 91.9,-376.89 97.47,-381.13"/>
<text xml:space="preserve" text-anchor="middle" x="76.12" y="-496.8" font-family="Arial" font-size="11.00">member</text>
</g>
<!-- Nbd5e06f701f34b7dae7d0cc0526b00a0&#45;&gt;person__Person -->
<g id="edge14" class="edge">
<title>Nbd5e06f701f34b7dae7d0cc0526b00a0&#45;&gt;person__Person</title>
<path fill="none" stroke="black" stroke-dasharray="1,5" d="M237.81,-631.12C236.9,-555.83 232.8,-253.51 225,-235 220.37,-224.03 212.41,-214 204.09,-205.64"/>
<polygon fill="black" stroke="black" points="206.56,-203.16 196.86,-198.9 201.79,-208.28 206.56,-203.16"/>
<text xml:space="preserve" text-anchor="middle" x="253.94" y="-397.8" font-family="Arial" font-size="11.00">member</text>
</g>
</g>
</svg>
