<?xml version="1.0" encoding="UTF-8" standalone="no"?>
<!DOCTYPE svg PUBLIC "-//W3C//DTD SVG 1.1//EN"
 "http://www.w3.org/Graphics/SVG/1.1/DTD/svg11.dtd">
<!-- Generated by graphviz version 14.0.2 (20251019.1705)
 -->
<!-- Pages: 1 -->
<svg width="564pt" height="132pt"
 viewBox="0.00 0.00 564.00 132.00" xmlns="http://www.w3.org/2000/svg" xmlns:xlink="http://www.w3.org/1999/xlink">
<g id="graph0" class="graph" transform="scale(1 1) rotate(0) translate(4 128)">
<polygon fill="white" stroke="none" points="-4,4 -4,-128 559.75,-128 559.75,4 -4,4"/>
<g id="clust2" class="cluster">
<title>cluster_associated</title>
</g>
<!-- https_//standards.iso.org/iso&#45;iec/5087/&#45;2/ed&#45;1/en/ontology/Contract/ContractualDefinition -->
<g id="node1" class="node">
<title>https_//standards.iso.org/iso&#45;iec/5087/&#45;2/ed&#45;1/en/ontology/Contract/ContractualDefinition</title>
<g id="a_node1"><a xlink:href="../classes/Contract__https://standards.iso.org/iso-iec/5087/-2/ed-1/en/ontology/Contract/ContractualDefinition.md" xlink:title="&lt;TABLE&gt;">
<polygon fill="lightgray" stroke="none" points="1,-25.88 1,-42.12 466.5,-42.12 466.5,-25.88 1,-25.88"/>
<text xml:space="preserve" text-anchor="start" x="2" y="-29.73" font-family="Arial" font-size="12.00">https://standards.iso.org/iso&#45;iec/5087/&#45;2/ed&#45;1/en/ontology/Contract/ContractualDefinition</text>
<polygon fill="none" stroke="black" points="0,-24.88 0,-43.12 467.5,-43.12 467.5,-24.88 0,-24.88"/>
</a>
</g>
</g>
<!-- ContractualElement -->
<g id="node2" class="node">
<title>ContractualElement</title>
<g id="a_node2"><a xlink:href="../_counters/Contract__ContractualElement.md" xlink:title="&lt;TABLE&gt;">
<polygon fill="lightgray" stroke="none" points="179.88,-97.88 179.88,-114.12 287.62,-114.12 287.62,-97.88 179.88,-97.88"/>
<text xml:space="preserve" text-anchor="start" x="180.88" y="-101.72" font-family="Arial" font-size="12.00">ContractualElement</text>
<polygon fill="none" stroke="black" points="178.88,-96.88 178.88,-115.12 288.62,-115.12 288.62,-96.88 178.88,-96.88"/>
</a>
</g>
</g>
<!-- https_//standards.iso.org/iso&#45;iec/5087/&#45;2/ed&#45;1/en/ontology/Contract/ContractualDefinition&#45;&gt;ContractualElement -->
<g id="edge1" class="edge">
<title>https_//standards.iso.org/iso&#45;iec/5087/&#45;2/ed&#45;1/en/ontology/Contract/ContractualDefinition&#45;&gt;ContractualElement</title>
<path fill="none" stroke="black" d="M233.75,-51.79C233.75,-59.25 233.75,-68.24 233.75,-76.69"/>
<polygon fill="none" stroke="black" points="230.25,-76.54 233.75,-86.54 237.25,-76.54 230.25,-76.54"/>
</g>
<!-- Invis -->
</g>
</svg>
