<?xml version="1.0" encoding="UTF-8" standalone="no"?>
<!DOCTYPE svg PUBLIC "-//W3C//DTD SVG 1.1//EN"
 "http://www.w3.org/Graphics/SVG/1.1/DTD/svg11.dtd">
<!-- Generated by graphviz version 14.0.2 (20251019.1705)
 -->
<!-- Pages: 1 -->
<svg width="542pt" height="132pt"
 viewBox="0.00 0.00 542.00 132.00" xmlns="http://www.w3.org/2000/svg" xmlns:xlink="http://www.w3.org/1999/xlink">
<g id="graph0" class="graph" transform="scale(1 1) rotate(0) translate(4 128)">
<polygon fill="white" stroke="none" points="-4,4 -4,-128 537.5,-128 537.5,4 -4,4"/>
<g id="clust2" class="cluster">
<title>cluster_associated</title>
</g>
<!-- https_//standards.iso.org/iso&#45;iec/5087/&#45;2/ed&#45;1/en/ontology/Contract/NonBindingTerm -->
<g id="node1" class="node">
<title>https_//standards.iso.org/iso&#45;iec/5087/&#45;2/ed&#45;1/en/ontology/Contract/NonBindingTerm</title>
<g id="a_node1"><a xlink:href="../classes/Contract__https://standards.iso.org/iso-iec/5087/-2/ed-1/en/ontology/Contract/NonBindingTerm.md" xlink:title="&lt;TABLE&gt;">
<polygon fill="lightgray" stroke="none" points="1,-25.88 1,-42.12 444,-42.12 444,-25.88 1,-25.88"/>
<text xml:space="preserve" text-anchor="start" x="2" y="-29.73" font-family="Arial" font-size="12.00">https://standards.iso.org/iso&#45;iec/5087/&#45;2/ed&#45;1/en/ontology/Contract/NonBindingTerm</text>
<polygon fill="none" stroke="black" points="0,-24.88 0,-43.12 445,-43.12 445,-24.88 0,-24.88"/>
</a>
</g>
</g>
<!-- ContractualElement -->
<g id="node2" class="node">
<title>ContractualElement</title>
<g id="a_node2"><a xlink:href="../_counters/Contract__ContractualElement.md" xlink:title="&lt;TABLE&gt;">
<polygon fill="lightgray" stroke="none" points="168.62,-97.88 168.62,-114.12 276.38,-114.12 276.38,-97.88 168.62,-97.88"/>
<text xml:space="preserve" text-anchor="start" x="169.62" y="-101.72" font-family="Arial" font-size="12.00">ContractualElement</text>
<polygon fill="none" stroke="black" points="167.62,-96.88 167.62,-115.12 277.38,-115.12 277.38,-96.88 167.62,-96.88"/>
</a>
</g>
</g>
<!-- https_//standards.iso.org/iso&#45;iec/5087/&#45;2/ed&#45;1/en/ontology/Contract/NonBindingTerm&#45;&gt;ContractualElement -->
<g id="edge1" class="edge">
<title>https_//standards.iso.org/iso&#45;iec/5087/&#45;2/ed&#45;1/en/ontology/Contract/NonBindingTerm&#45;&gt;ContractualElement</title>
<path fill="none" stroke="black" d="M222.5,-51.79C222.5,-59.25 222.5,-68.24 222.5,-76.69"/>
<polygon fill="none" stroke="black" points="219,-76.54 222.5,-86.54 226,-76.54 219,-76.54"/>
</g>
<!-- Invis -->
</g>
</svg>
