<?xml version="1.0" encoding="UTF-8" standalone="no"?>
<!DOCTYPE svg PUBLIC "-//W3C//DTD SVG 1.1//EN"
 "http://www.w3.org/Graphics/SVG/1.1/DTD/svg11.dtd">
<!-- Generated by graphviz version 14.0.2 (20251019.1705)
 -->
<!-- Pages: 1 -->
<svg width="532pt" height="132pt"
 viewBox="0.00 0.00 532.00 132.00" xmlns="http://www.w3.org/2000/svg" xmlns:xlink="http://www.w3.org/1999/xlink">
<g id="graph0" class="graph" transform="scale(1 1) rotate(0) translate(4 128)">
<polygon fill="white" stroke="none" points="-4,4 -4,-128 528.38,-128 528.38,4 -4,4"/>
<g id="clust2" class="cluster">
<title>cluster_associated</title>
</g>
<!-- https_//standards.iso.org/iso&#45;iec/5087/&#45;2/ed&#45;1/en/ontology/Contract/Representation -->
<g id="node1" class="node">
<title>https_//standards.iso.org/iso&#45;iec/5087/&#45;2/ed&#45;1/en/ontology/Contract/Representation</title>
<g id="a_node1"><a xlink:href="../classes/Contract__https://standards.iso.org/iso-iec/5087/-2/ed-1/en/ontology/Contract/Representation.md" xlink:title="&lt;TABLE&gt;">
<polygon fill="lightgray" stroke="none" points="1,-25.88 1,-42.12 435.75,-42.12 435.75,-25.88 1,-25.88"/>
<text xml:space="preserve" text-anchor="start" x="2" y="-29.73" font-family="Arial" font-size="12.00">https://standards.iso.org/iso&#45;iec/5087/&#45;2/ed&#45;1/en/ontology/Contract/Representation</text>
<polygon fill="none" stroke="black" points="0,-24.88 0,-43.12 436.75,-43.12 436.75,-24.88 0,-24.88"/>
</a>
</g>
</g>
<!-- ContractualElement -->
<g id="node2" class="node">
<title>ContractualElement</title>
<g id="a_node2"><a xlink:href="../_counters/Contract__ContractualElement.md" xlink:title="&lt;TABLE&gt;">
<polygon fill="lightgray" stroke="none" points="164.5,-97.88 164.5,-114.12 272.25,-114.12 272.25,-97.88 164.5,-97.88"/>
<text xml:space="preserve" text-anchor="start" x="165.5" y="-101.72" font-family="Arial" font-size="12.00">ContractualElement</text>
<polygon fill="none" stroke="black" points="163.5,-96.88 163.5,-115.12 273.25,-115.12 273.25,-96.88 163.5,-96.88"/>
</a>
</g>
</g>
<!-- https_//standards.iso.org/iso&#45;iec/5087/&#45;2/ed&#45;1/en/ontology/Contract/Representation&#45;&gt;ContractualElement -->
<g id="edge1" class="edge">
<title>https_//standards.iso.org/iso&#45;iec/5087/&#45;2/ed&#45;1/en/ontology/Contract/Representation&#45;&gt;ContractualElement</title>
<path fill="none" stroke="black" d="M218.38,-51.79C218.38,-59.25 218.38,-68.24 218.38,-76.69"/>
<polygon fill="none" stroke="black" points="214.88,-76.54 218.38,-86.54 221.88,-76.54 214.88,-76.54"/>
</g>
<!-- Invis -->
</g>
</svg>
