<?xml version="1.0" encoding="UTF-8" standalone="no"?>
<!DOCTYPE svg PUBLIC "-//W3C//DTD SVG 1.1//EN"
 "http://www.w3.org/Graphics/SVG/1.1/DTD/svg11.dtd">
<!-- Generated by graphviz version 14.0.2 (20251019.1705)
 -->
<!-- Pages: 1 -->
<svg width="448pt" height="132pt"
 viewBox="0.00 0.00 448.00 132.00" xmlns="http://www.w3.org/2000/svg" xmlns:xlink="http://www.w3.org/1999/xlink">
<g id="graph0" class="graph" transform="scale(1 1) rotate(0) translate(4 128)">
<polygon fill="white" stroke="none" points="-4,4 -4,-128 444,-128 444,4 -4,4"/>
<g id="clust2" class="cluster">
<title>cluster_associated</title>
</g>
<!-- https_//standards.iso.org/iso&#45;iec/5087/&#45;2/ed&#45;1/en/ontology/City/City -->
<g id="node1" class="node">
<title>https_//standards.iso.org/iso&#45;iec/5087/&#45;2/ed&#45;1/en/ontology/City/City</title>
<g id="a_node1"><a xlink:href="../classes/City__https://standards.iso.org/iso-iec/5087/-2/ed-1/en/ontology/City/City.md" xlink:title="&lt;TABLE&gt;">
<polygon fill="lightgray" stroke="none" points="1,-34 1,-50.25 351,-50.25 351,-34 1,-34"/>
<text xml:space="preserve" text-anchor="start" x="2" y="-37.85" font-family="Arial" font-size="12.00">https://standards.iso.org/iso&#45;iec/5087/&#45;2/ed&#45;1/en/ontology/City/City</text>
<text xml:space="preserve" text-anchor="start" x="2" y="-21.6" font-family="Arial" font-size="12.00">legalName: xsd::string «exactly 1»</text>
<polygon fill="none" stroke="black" points="0,-16.75 0,-51.25 352,-51.25 352,-16.75 0,-16.75"/>
</a>
</g>
</g>
<!-- CityOntologyThing -->
<g id="node2" class="node">
<title>CityOntologyThing</title>
<g id="a_node2"><a xlink:href="../_counters/City__CityOntologyThing.md" xlink:title="&lt;TABLE&gt;">
<polygon fill="lightgray" stroke="none" points="65.12,-97.88 65.12,-114.12 166.88,-114.12 166.88,-97.88 65.12,-97.88"/>
<text xml:space="preserve" text-anchor="start" x="66.12" y="-101.72" font-family="Arial" font-size="12.00">CityOntologyThing</text>
<polygon fill="none" stroke="black" points="64.12,-96.88 64.12,-115.12 167.88,-115.12 167.88,-96.88 64.12,-96.88"/>
</a>
</g>
</g>
<!-- https_//standards.iso.org/iso&#45;iec/5087/&#45;2/ed&#45;1/en/ontology/City/City&#45;&gt;CityOntologyThing -->
<g id="edge1" class="edge">
<title>https_//standards.iso.org/iso&#45;iec/5087/&#45;2/ed&#45;1/en/ontology/City/City&#45;&gt;CityOntologyThing</title>
<path fill="none" stroke="black" d="M161.61,-51.79C154.48,-60.11 145.72,-70.32 137.79,-79.58"/>
<polygon fill="none" stroke="black" points="135.36,-77.04 131.51,-86.91 140.67,-81.59 135.36,-77.04"/>
</g>
<!-- JurisdictionalArea -->
<g id="node3" class="node">
<title>JurisdictionalArea</title>
<g id="a_node3"><a xlink:href="../_counters/City__JurisdictionalArea.md" xlink:title="&lt;TABLE&gt;">
<polygon fill="lightgray" stroke="none" points="187,-97.88 187,-114.12 285,-114.12 285,-97.88 187,-97.88"/>
<text xml:space="preserve" text-anchor="start" x="188" y="-101.72" font-family="Arial" font-size="12.00">JurisdictionalArea</text>
<polygon fill="none" stroke="black" points="186,-96.88 186,-115.12 286,-115.12 286,-96.88 186,-96.88"/>
</a>
</g>
</g>
<!-- https_//standards.iso.org/iso&#45;iec/5087/&#45;2/ed&#45;1/en/ontology/City/City&#45;&gt;JurisdictionalArea -->
<g id="edge2" class="edge">
<title>https_//standards.iso.org/iso&#45;iec/5087/&#45;2/ed&#45;1/en/ontology/City/City&#45;&gt;JurisdictionalArea</title>
<path fill="none" stroke="black" d="M190.39,-51.79C197.52,-60.11 206.28,-70.32 214.21,-79.58"/>
<polygon fill="none" stroke="black" points="211.33,-81.59 220.49,-86.91 216.64,-77.04 211.33,-81.59"/>
</g>
<!-- Invis -->
</g>
</svg>
