<?xml version="1.0" encoding="UTF-8" standalone="no"?>
<!DOCTYPE svg PUBLIC "-//W3C//DTD SVG 1.1//EN"
 "http://www.w3.org/Graphics/SVG/1.1/DTD/svg11.dtd">
<!-- Generated by graphviz version 14.0.2 (20251019.1705)
 -->
<!-- Pages: 1 -->
<svg width="575pt" height="232pt"
 viewBox="0.00 0.00 575.00 232.00" xmlns="http://www.w3.org/2000/svg" xmlns:xlink="http://www.w3.org/1999/xlink">
<g id="graph0" class="graph" transform="scale(1 1) rotate(0) translate(4 228)">
<polygon fill="white" stroke="none" points="-4,4 -4,-228 570.62,-228 570.62,4 -4,4"/>
<g id="clust2" class="cluster">
<title>cluster_associated</title>
</g>
<!-- https_//standards.iso.org/iso&#45;iec/5087/&#45;2/ed&#45;1/en/ontology/City/CityAdministrativeArea -->
<g id="node1" class="node">
<title>https_//standards.iso.org/iso&#45;iec/5087/&#45;2/ed&#45;1/en/ontology/City/CityAdministrativeArea</title>
<g id="a_node1"><a xlink:href="../classes/City__https://standards.iso.org/iso-iec/5087/-2/ed-1/en/ontology/City/CityAdministrativeArea.md" xlink:title="&lt;TABLE&gt;">
<polygon fill="lightgray" stroke="none" points="114.38,-124.88 114.38,-141.12 565.62,-141.12 565.62,-124.88 114.38,-124.88"/>
<text xml:space="preserve" text-anchor="start" x="115.38" y="-128.72" font-family="Arial" font-size="12.00">https://standards.iso.org/iso&#45;iec/5087/&#45;2/ed&#45;1/en/ontology/City/CityAdministrativeArea</text>
<polygon fill="none" stroke="black" points="113.38,-123.88 113.38,-142.12 566.62,-142.12 566.62,-123.88 113.38,-123.88"/>
</a>
</g>
</g>
<!-- CityOntologyThing -->
<g id="node2" class="node">
<title>CityOntologyThing</title>
<g id="a_node2"><a xlink:href="../_counters/City__CityOntologyThing.md" xlink:title="&lt;TABLE&gt;">
<polygon fill="lightgray" stroke="none" points="229.12,-197.88 229.12,-214.12 330.88,-214.12 330.88,-197.88 229.12,-197.88"/>
<text xml:space="preserve" text-anchor="start" x="230.12" y="-201.72" font-family="Arial" font-size="12.00">CityOntologyThing</text>
<polygon fill="none" stroke="black" points="228.12,-196.88 228.12,-215.12 331.88,-215.12 331.88,-196.88 228.12,-196.88"/>
</a>
</g>
</g>
<!-- https_//standards.iso.org/iso&#45;iec/5087/&#45;2/ed&#45;1/en/ontology/City/CityAdministrativeArea&#45;&gt;CityOntologyThing -->
<g id="edge1" class="edge">
<title>https_//standards.iso.org/iso&#45;iec/5087/&#45;2/ed&#45;1/en/ontology/City/CityAdministrativeArea&#45;&gt;CityOntologyThing</title>
<path fill="none" stroke="black" d="M325.88,-150.71C318.65,-159.26 309.69,-169.87 301.61,-179.43"/>
<polygon fill="none" stroke="black" points="298.98,-177.12 295.2,-187.02 304.32,-181.64 298.98,-177.12"/>
</g>
<!-- JurisdictionalArea -->
<g id="node3" class="node">
<title>JurisdictionalArea</title>
<g id="a_node3"><a xlink:href="../_counters/City__JurisdictionalArea.md" xlink:title="&lt;TABLE&gt;">
<polygon fill="lightgray" stroke="none" points="351,-197.88 351,-214.12 449,-214.12 449,-197.88 351,-197.88"/>
<text xml:space="preserve" text-anchor="start" x="352" y="-201.72" font-family="Arial" font-size="12.00">JurisdictionalArea</text>
<polygon fill="none" stroke="black" points="350,-196.88 350,-215.12 450,-215.12 450,-196.88 350,-196.88"/>
</a>
</g>
</g>
<!-- https_//standards.iso.org/iso&#45;iec/5087/&#45;2/ed&#45;1/en/ontology/City/CityAdministrativeArea&#45;&gt;JurisdictionalArea -->
<g id="edge2" class="edge">
<title>https_//standards.iso.org/iso&#45;iec/5087/&#45;2/ed&#45;1/en/ontology/City/CityAdministrativeArea&#45;&gt;JurisdictionalArea</title>
<path fill="none" stroke="black" d="M354.12,-150.71C361.35,-159.26 370.31,-169.87 378.39,-179.43"/>
<polygon fill="none" stroke="black" points="375.68,-181.64 384.8,-187.02 381.02,-177.12 375.68,-181.64"/>
</g>
<!-- Invis -->
<!-- https_//standards.iso.org/iso&#45;iec/5087/&#45;2/ed&#45;1/en/ontology/City/CityAdministrativeArea&#45;&gt;Invis -->
<!-- measure__City -->
<g id="node5" class="node">
<title>measure__City</title>
<polygon fill="lightgray" stroke="none" points="17.25,-25.88 17.25,-42.12 92.75,-42.12 92.75,-25.88 17.25,-25.88"/>
<text xml:space="preserve" text-anchor="start" x="18.25" y="-29.73" font-family="Arial" font-size="12.00">measure::City</text>
<polygon fill="none" stroke="black" points="16.25,-24.88 16.25,-43.12 93.75,-43.12 93.75,-24.88 16.25,-24.88"/>
</g>
<!-- https_//standards.iso.org/iso&#45;iec/5087/&#45;2/ed&#45;1/en/ontology/City/CityAdministrativeArea&#45;&gt;measure__City -->
<g id="edge5" class="edge">
<title>https_//standards.iso.org/iso&#45;iec/5087/&#45;2/ed&#45;1/en/ontology/City/CityAdministrativeArea&#45;&gt;measure__City</title>
<path fill="none" stroke="black" stroke-dasharray="5,2" d="M290.36,-115.1C238.1,-97.32 156.32,-69.49 104.22,-51.75"/>
<polygon fill="black" stroke="black" points="105.6,-48.53 95.01,-48.62 103.35,-55.15 105.6,-48.53"/>
<text xml:space="preserve" text-anchor="middle" x="314.28" y="-86.55" font-family="Arial" font-size="11.00"> onProperty: administrativeAreaOf </text>
<text xml:space="preserve" text-anchor="middle" x="314.28" y="-73.05" font-family="Arial" font-size="11.00"> «some» &#160;</text>
</g>
<!-- Invis&#45;&gt;measure__City -->
</g>
</svg>
