<?xml version="1.0" encoding="UTF-8" standalone="no"?>
<!DOCTYPE svg PUBLIC "-//W3C//DTD SVG 1.1//EN"
 "http://www.w3.org/Graphics/SVG/1.1/DTD/svg11.dtd">
<!-- Generated by graphviz version 14.0.2 (20251019.1705)
 -->
<!-- Pages: 1 -->
<svg width="760pt" height="576pt"
 viewBox="0.00 0.00 760.00 576.00" xmlns="http://www.w3.org/2000/svg" xmlns:xlink="http://www.w3.org/1999/xlink">
<g id="graph0" class="graph" transform="scale(1 1) rotate(0) translate(4 572)">
<polygon fill="white" stroke="none" points="-4,4 -4,-572 755.5,-572 755.5,4 -4,4"/>
<g id="clust2" class="cluster">
<title>cluster_associated</title>
</g>
<!-- https_//standards.iso.org/iso&#45;iec/5087/&#45;2/ed&#45;1/en/ontology/City/JurisdictionalArea -->
<g id="node1" class="node">
<title>https_//standards.iso.org/iso&#45;iec/5087/&#45;2/ed&#45;1/en/ontology/City/JurisdictionalArea</title>
<g id="a_node1"><a xlink:href="../classes/City__https://standards.iso.org/iso-iec/5087/-2/ed-1/en/ontology/City/JurisdictionalArea.md" xlink:title="&lt;TABLE&gt;">
<polygon fill="lightgray" stroke="none" points="245.5,-477 245.5,-493.25 670.5,-493.25 670.5,-477 245.5,-477"/>
<text xml:space="preserve" text-anchor="start" x="246.5" y="-480.85" font-family="Arial" font-size="12.00">https://standards.iso.org/iso&#45;iec/5087/&#45;2/ed&#45;1/en/ontology/City/JurisdictionalArea</text>
<text xml:space="preserve" text-anchor="start" x="246.5" y="-464.6" font-family="Arial" font-size="12.00">genericdataproperty::hasName: xsd::string «max 1»</text>
<polygon fill="none" stroke="black" points="244.5,-459.75 244.5,-494.25 671.5,-494.25 671.5,-459.75 244.5,-459.75"/>
</a>
</g>
</g>
<!-- CityOntologyThing -->
<g id="node2" class="node">
<title>CityOntologyThing</title>
<g id="a_node2"><a xlink:href="../_counters/City__CityOntologyThing.md" xlink:title="&lt;TABLE&gt;">
<polygon fill="lightgray" stroke="none" points="407.12,-541.88 407.12,-558.12 508.88,-558.12 508.88,-541.88 407.12,-541.88"/>
<text xml:space="preserve" text-anchor="start" x="408.12" y="-545.73" font-family="Arial" font-size="12.00">CityOntologyThing</text>
<polygon fill="none" stroke="black" points="406.12,-540.88 406.12,-559.12 509.88,-559.12 509.88,-540.88 406.12,-540.88"/>
</a>
</g>
</g>
<!-- https_//standards.iso.org/iso&#45;iec/5087/&#45;2/ed&#45;1/en/ontology/City/JurisdictionalArea&#45;&gt;CityOntologyThing -->
<g id="edge1" class="edge">
<title>https_//standards.iso.org/iso&#45;iec/5087/&#45;2/ed&#45;1/en/ontology/City/JurisdictionalArea&#45;&gt;CityOntologyThing</title>
<path fill="none" stroke="black" d="M458,-494.71C458,-502.47 458,-511.92 458,-520.74"/>
<polygon fill="none" stroke="black" points="454.5,-520.66 458,-530.66 461.5,-520.66 454.5,-520.66"/>
</g>
<!-- Invis -->
<!-- https_//standards.iso.org/iso&#45;iec/5087/&#45;2/ed&#45;1/en/ontology/City/JurisdictionalArea&#45;&gt;Invis -->
<!-- Bylaw__Bylaw -->
<g id="node4" class="node">
<title>Bylaw__Bylaw</title>
<polygon fill="lightgray" stroke="none" points="25,-369.88 25,-386.12 99,-386.12 99,-369.88 25,-369.88"/>
<text xml:space="preserve" text-anchor="start" x="26" y="-373.73" font-family="Arial" font-size="12.00">Bylaw::Bylaw</text>
<polygon fill="none" stroke="black" points="24,-368.88 24,-387.12 100,-387.12 100,-368.88 24,-368.88"/>
</g>
<!-- https_//standards.iso.org/iso&#45;iec/5087/&#45;2/ed&#45;1/en/ontology/City/JurisdictionalArea&#45;&gt;Bylaw__Bylaw -->
<g id="edge8" class="edge">
<title>https_//standards.iso.org/iso&#45;iec/5087/&#45;2/ed&#45;1/en/ontology/City/JurisdictionalArea&#45;&gt;Bylaw__Bylaw</title>
<path fill="none" stroke="black" d="M250.24,-459.02C156.07,-451.07 65.05,-442.93 63.25,-441 54.93,-432.09 53.72,-418.93 54.97,-407.02"/>
<polygon fill="black" stroke="black" points="58.41,-407.67 56.61,-397.23 51.51,-406.52 58.41,-407.67"/>
<text xml:space="preserve" text-anchor="middle" x="107.12" y="-430.55" font-family="Arial" font-size="11.00"> Bylaw::hasBylaw </text>
<text xml:space="preserve" text-anchor="middle" x="107.12" y="-417.05" font-family="Arial" font-size="11.00"> «only» &#160;</text>
</g>
<!-- JurisdictionalArea -->
<g id="node5" class="node">
<title>JurisdictionalArea</title>
<g id="a_node5"><a xlink:href="../_counters/City__JurisdictionalArea.md" xlink:title="&lt;TABLE&gt;">
<polygon fill="lightgray" stroke="none" points="98,-270.88 98,-287.12 196,-287.12 196,-270.88 98,-270.88"/>
<text xml:space="preserve" text-anchor="start" x="99" y="-274.73" font-family="Arial" font-size="12.00">JurisdictionalArea</text>
<polygon fill="none" stroke="black" points="97,-269.88 97,-288.12 197,-288.12 197,-269.88 97,-269.88"/>
</a>
</g>
</g>
<!-- https_//standards.iso.org/iso&#45;iec/5087/&#45;2/ed&#45;1/en/ontology/City/JurisdictionalArea&#45;&gt;JurisdictionalArea -->
<g id="edge10" class="edge">
<title>https_//standards.iso.org/iso&#45;iec/5087/&#45;2/ed&#45;1/en/ontology/City/JurisdictionalArea&#45;&gt;JurisdictionalArea</title>
<path fill="none" stroke="black" d="M327.16,-459.04C251.43,-446.25 166.63,-425.74 143.5,-396 124.09,-371.03 129.8,-333.07 137.12,-307.44"/>
<polygon fill="black" stroke="black" points="140.41,-308.66 140.06,-298.07 133.73,-306.56 140.41,-308.66"/>
<text xml:space="preserve" text-anchor="middle" x="196.75" y="-381.05" font-family="Arial" font-size="11.00"> administrativeAreaOf </text>
<text xml:space="preserve" text-anchor="middle" x="196.75" y="-367.55" font-family="Arial" font-size="11.00"> «only» &#160;</text>
</g>
<!-- LandUse__LandArea -->
<g id="node6" class="node">
<title>LandUse__LandArea</title>
<polygon fill="lightgray" stroke="none" points="109.38,-171.88 109.38,-188.12 218.62,-188.12 218.62,-171.88 109.38,-171.88"/>
<text xml:space="preserve" text-anchor="start" x="110.38" y="-175.72" font-family="Arial" font-size="12.00">LandUse::LandArea</text>
<polygon fill="none" stroke="black" points="108.38,-170.88 108.38,-189.12 219.62,-189.12 219.62,-170.88 108.38,-170.88"/>
</g>
<!-- https_//standards.iso.org/iso&#45;iec/5087/&#45;2/ed&#45;1/en/ontology/City/JurisdictionalArea&#45;&gt;LandUse__LandArea -->
<g id="edge12" class="edge">
<title>https_//standards.iso.org/iso&#45;iec/5087/&#45;2/ed&#45;1/en/ontology/City/JurisdictionalArea&#45;&gt;LandUse__LandArea</title>
<path fill="none" stroke="black" d="M461.39,-459.38C465.43,-434.43 468.82,-387.33 444,-360 418.91,-332.38 395.61,-358.21 362,-342 290.14,-307.34 221.41,-241.79 186.96,-205.95"/>
<polygon fill="black" stroke="black" points="189.82,-203.87 180.39,-199.03 184.74,-208.69 189.82,-203.87"/>
<text xml:space="preserve" text-anchor="middle" x="422" y="-331.55" font-family="Arial" font-size="11.00"> LandUse::hasLandArea </text>
<text xml:space="preserve" text-anchor="middle" x="422" y="-318.05" font-family="Arial" font-size="11.00"> «only» &#160;</text>
</g>
<!-- measure__Population -->
<g id="node7" class="node">
<title>measure__Population</title>
<polygon fill="lightgray" stroke="none" points="107.88,-98.88 107.88,-115.12 220.12,-115.12 220.12,-98.88 107.88,-98.88"/>
<text xml:space="preserve" text-anchor="start" x="108.88" y="-102.72" font-family="Arial" font-size="12.00">measure::Population</text>
<polygon fill="none" stroke="black" points="106.88,-97.88 106.88,-116.12 221.12,-116.12 221.12,-97.88 106.88,-97.88"/>
</g>
<!-- https_//standards.iso.org/iso&#45;iec/5087/&#45;2/ed&#45;1/en/ontology/City/JurisdictionalArea&#45;&gt;measure__Population -->
<g id="edge13" class="edge">
<title>https_//standards.iso.org/iso&#45;iec/5087/&#45;2/ed&#45;1/en/ontology/City/JurisdictionalArea&#45;&gt;measure__Population</title>
<path fill="none" stroke="black" d="M468.99,-459.26C480.21,-440.51 496,-408.84 496,-379 496,-379 496,-379 496,-179 496,-125.62 329.78,-112.23 232.57,-108.97"/>
<polygon fill="black" stroke="black" points="232.69,-105.47 222.59,-108.66 232.47,-112.47 232.69,-105.47"/>
<text xml:space="preserve" text-anchor="middle" x="568.38" y="-282.05" font-family="Arial" font-size="11.00"> LandUse::residentPopulation </text>
<text xml:space="preserve" text-anchor="middle" x="568.38" y="-268.55" font-family="Arial" font-size="11.00"> «max 1» &#160;</text>
</g>
<!-- Organization__GovernmentOrganization -->
<g id="node8" class="node">
<title>Organization__GovernmentOrganization</title>
<polygon fill="lightgray" stroke="none" points="17.12,-25.88 17.12,-42.12 226.88,-42.12 226.88,-25.88 17.12,-25.88"/>
<text xml:space="preserve" text-anchor="start" x="18.12" y="-29.73" font-family="Arial" font-size="12.00">Organization::GovernmentOrganization</text>
<polygon fill="none" stroke="black" points="16.12,-24.88 16.12,-43.12 227.88,-43.12 227.88,-24.88 16.12,-24.88"/>
</g>
<!-- https_//standards.iso.org/iso&#45;iec/5087/&#45;2/ed&#45;1/en/ontology/City/JurisdictionalArea&#45;&gt;Organization__GovernmentOrganization -->
<g id="edge11" class="edge">
<title>https_//standards.iso.org/iso&#45;iec/5087/&#45;2/ed&#45;1/en/ontology/City/JurisdictionalArea&#45;&gt;Organization__GovernmentOrganization</title>
<path fill="none" stroke="black" d="M590.73,-459.04C632.99,-445.6 669,-421.64 669,-379 669,-379 669,-379 669,-106 669,-63.01 399.88,-45.4 239.17,-38.71"/>
<polygon fill="black" stroke="black" points="239.44,-35.22 229.3,-38.31 239.15,-42.21 239.44,-35.22"/>
<text xml:space="preserve" text-anchor="middle" x="710.25" y="-232.55" font-family="Arial" font-size="11.00"> hasGovernment </text>
<text xml:space="preserve" text-anchor="middle" x="710.25" y="-219.05" font-family="Arial" font-size="11.00"> «only» &#160;</text>
</g>
<!-- Invis&#45;&gt;Bylaw__Bylaw -->
<!-- Bylaw__Bylaw&#45;&gt;JurisdictionalArea -->
<!-- JurisdictionalArea&#45;&gt;https_//standards.iso.org/iso&#45;iec/5087/&#45;2/ed&#45;1/en/ontology/City/JurisdictionalArea -->
<g id="edge9" class="edge">
<title>JurisdictionalArea&#45;&gt;https_//standards.iso.org/iso&#45;iec/5087/&#45;2/ed&#45;1/en/ontology/City/JurisdictionalArea</title>
<path fill="none" stroke="black" d="M169.65,-296.71C191.39,-312.8 225.08,-337.87 254,-360 274.62,-375.77 278.09,-382.07 300,-396 335.39,-418.5 377.92,-439.73 409.93,-454.66"/>
<polygon fill="black" stroke="black" points="417.59,-462.06 409.98,-454.69 420.52,-455.7 417.59,-462.06"/>
<text xml:space="preserve" text-anchor="middle" x="372" y="-381.05" font-family="Arial" font-size="11.00"> inverse administrativeAreaOf </text>
<text xml:space="preserve" text-anchor="middle" x="372" y="-367.55" font-family="Arial" font-size="11.00"> «only» &#160;</text>
</g>
<!-- JurisdictionalArea&#45;&gt;LandUse__LandArea -->
<!-- LandUse__LandArea&#45;&gt;measure__Population -->
<!-- measure__Population&#45;&gt;Organization__GovernmentOrganization -->
</g>
</svg>
