<?xml version="1.0" encoding="UTF-8" standalone="no"?>
<!DOCTYPE svg PUBLIC "-//W3C//DTD SVG 1.1//EN"
 "http://www.w3.org/Graphics/SVG/1.1/DTD/svg11.dtd">
<!-- Generated by graphviz version 14.0.2 (20251019.1705)
 -->
<!-- Pages: 1 -->
<svg width="711pt" height="908pt"
 viewBox="0.00 0.00 711.00 908.00" xmlns="http://www.w3.org/2000/svg" xmlns:xlink="http://www.w3.org/1999/xlink">
<g id="graph0" class="graph" transform="scale(1 1) rotate(0) translate(4 904.25)">
<polygon fill="white" stroke="none" points="-4,4 -4,-904.25 707.25,-904.25 707.25,4 -4,4"/>
<g id="clust2" class="cluster">
<title>cluster_associated</title>
</g>
<!-- Bylaw -->
<g id="node1" class="node">
<title>Bylaw</title>
<g id="a_node1"><a xlink:href="../Bylaw.md" xlink:title="&lt;TABLE&gt;">
<polygon fill="lightgray" stroke="none" points="332.5,-733.88 332.5,-750.12 367.5,-750.12 367.5,-733.88 332.5,-733.88"/>
<text xml:space="preserve" text-anchor="start" x="333.5" y="-737.73" font-family="Arial" font-size="12.00">Bylaw</text>
<polygon fill="none" stroke="black" points="331.5,-732.88 331.5,-751.12 368.5,-751.12 368.5,-732.88 331.5,-732.88"/>
</a>
</g>
</g>
<!-- Invis -->
<!-- Bylaw&#45;&gt;Invis -->
<!-- City -->
<g id="node5" class="node">
<title>City</title>
<g id="a_node5"><a xlink:href="../City.md" xlink:title="&lt;TABLE&gt;">
<polygon fill="lightgray" stroke="none" points="189.5,-476.38 189.5,-492.62 212.5,-492.62 212.5,-476.38 189.5,-476.38"/>
<text xml:space="preserve" text-anchor="start" x="190.5" y="-480.23" font-family="Arial" font-size="12.00">City</text>
<polygon fill="none" stroke="black" points="188.5,-475.38 188.5,-493.62 213.5,-493.62 213.5,-475.38 188.5,-475.38"/>
</a>
</g>
</g>
<!-- Bylaw&#45;&gt;City -->
<g id="edge19" class="edge">
<title>Bylaw&#45;&gt;City</title>
<path fill="none" stroke="black" stroke-dasharray="5,2" d="M342.96,-724.08C327.81,-688.49 290,-603.85 247,-539.5 240.4,-529.62 232.24,-519.52 224.63,-510.76"/>
<polygon fill="black" stroke="black" points="227.27,-508.46 218,-503.32 222.04,-513.12 227.27,-508.46"/>
<text xml:space="preserve" text-anchor="middle" x="376.77" y="-610.05" font-family="Arial" font-size="11.00"> onProperty: legislationJurisdiction </text>
<text xml:space="preserve" text-anchor="middle" x="376.77" y="-596.55" font-family="Arial" font-size="11.00"> «max 1» &#160;</text>
</g>
<!-- Law -->
<g id="node12" class="node">
<title>Law</title>
<g id="a_node12"><a xlink:href="../Law.md" xlink:title="&lt;TABLE&gt;">
<polygon fill="lightgray" stroke="none" points="373.75,-853.5 373.75,-869.75 398.25,-869.75 398.25,-853.5 373.75,-853.5"/>
<text xml:space="preserve" text-anchor="start" x="374.75" y="-857.35" font-family="Arial" font-size="12.00">Law</text>
<polygon fill="none" stroke="black" points="372.75,-852.5 372.75,-870.75 399.25,-870.75 399.25,-852.5 372.75,-852.5"/>
</a>
</g>
</g>
<!-- Bylaw&#45;&gt;Law -->
<g id="edge1" class="edge">
<title>Bylaw&#45;&gt;Law</title>
<path fill="none" stroke="black" d="M362.39,-759.74C365.99,-765.3 369.59,-771.7 372,-778 378.68,-795.5 382.18,-816.3 384.01,-832.65"/>
<polygon fill="none" stroke="black" points="380.48,-832.53 384.93,-842.15 387.45,-831.86 380.48,-832.53"/>
</g>
<!-- N73e0d0f42e0b4883a98d78ec4b16b2c9 -->
<g id="node13" class="node">
<title>N73e0d0f42e0b4883a98d78ec4b16b2c9</title>
<polygon fill="lightyellow" stroke="none" points="155.25,-852.5 155.25,-870.75 214.75,-870.75 214.75,-852.5 155.25,-852.5"/>
<text xml:space="preserve" text-anchor="start" x="157.25" y="-857.35" font-family="Arial" font-size="12.00">«unionOf»</text>
<polygon fill="none" stroke="black" points="155.25,-852.5 155.25,-870.75 214.75,-870.75 214.75,-852.5 155.25,-852.5"/>
</g>
<!-- Bylaw&#45;&gt;N73e0d0f42e0b4883a98d78ec4b16b2c9 -->
<g id="edge17" class="edge">
<title>Bylaw&#45;&gt;N73e0d0f42e0b4883a98d78ec4b16b2c9</title>
<path fill="none" stroke="black" d="M338.07,-759.86C325.13,-778.15 306.27,-804.78 306,-805 282.2,-824.73 250.25,-839.03 225.16,-848.18"/>
<polygon fill="black" stroke="black" points="224.23,-844.8 215.95,-851.41 226.54,-851.4 224.23,-844.8"/>
<text xml:space="preserve" text-anchor="middle" x="345.6" y="-794.55" font-family="Arial" font-size="11.00"> impacts </text>
<text xml:space="preserve" text-anchor="middle" x="345.6" y="-781.05" font-family="Arial" font-size="11.00"> «only» &#160;</text>
</g>
<!-- N17b8353572d44302bfeee9d7d6e1d559 -->
<g id="node14" class="node">
<title>N17b8353572d44302bfeee9d7d6e1d559</title>
<polygon fill="lightgray" stroke="none" points="431.75,-868.75 431.75,-899.25 702.25,-899.25 702.25,-868.75 431.75,-868.75"/>
<text xml:space="preserve" text-anchor="start" x="544.5" y="-886.85" font-family="Arial" font-size="12.00">«Enum»</text>
<text xml:space="preserve" text-anchor="start" x="432.75" y="-872.6" font-family="Arial" font-size="12.00">Enum: amendingBylaw, mainBylaw, revisionBylaw</text>
<text xml:space="preserve" text-anchor="start" x="432.75" y="-856.35" font-family="Arial" font-size="12.00">+ amendingBylaw</text>
<text xml:space="preserve" text-anchor="start" x="446.25" y="-842.1" font-family="Arial" font-size="12.00">+ mainBylaw</text>
<text xml:space="preserve" text-anchor="start" x="438.38" y="-827.85" font-family="Arial" font-size="12.00">+ revisionBylaw</text>
<polygon fill="none" stroke="black" points="430.75,-823 430.75,-900.25 703.25,-900.25 703.25,-823 430.75,-823"/>
</g>
<!-- Bylaw&#45;&gt;N17b8353572d44302bfeee9d7d6e1d559 -->
<g id="edge18" class="edge">
<title>Bylaw&#45;&gt;N17b8353572d44302bfeee9d7d6e1d559</title>
<path fill="none" stroke="black" d="M376.94,-757.61C404.62,-772.61 449.04,-796.68 487.98,-817.79"/>
<polygon fill="black" stroke="black" points="485.95,-820.67 496.41,-822.36 489.29,-814.52 485.95,-820.67"/>
<text xml:space="preserve" text-anchor="middle" x="496.75" y="-794.55" font-family="Arial" font-size="11.00"> legislationType </text>
<text xml:space="preserve" text-anchor="middle" x="496.75" y="-781.05" font-family="Arial" font-size="11.00"> «only» &#160;</text>
</g>
<!-- amendingBylaw -->
<g id="node3" class="node">
<title>amendingBylaw</title>
<polygon fill="lightgray" stroke="none" points="148.88,-648.38 148.88,-664.62 237.12,-664.62 237.12,-648.38 148.88,-648.38"/>
<text xml:space="preserve" text-anchor="start" x="149.88" y="-652.23" font-family="Arial" font-size="12.00">amendingBylaw</text>
<polygon fill="none" stroke="black" points="147.88,-647.38 147.88,-665.62 238.12,-665.62 238.12,-647.38 147.88,-647.38"/>
</g>
<!-- Invis&#45;&gt;amendingBylaw -->
<!-- cdm1_Activity -->
<g id="node4" class="node">
<title>cdm1_Activity</title>
<polygon fill="lightgray" stroke="none" points="164.75,-549.38 164.75,-565.62 237.25,-565.62 237.25,-549.38 164.75,-549.38"/>
<text xml:space="preserve" text-anchor="start" x="165.75" y="-553.23" font-family="Arial" font-size="12.00">cdm1:Activity</text>
<polygon fill="none" stroke="black" points="163.75,-548.38 163.75,-566.62 238.25,-566.62 238.25,-548.38 163.75,-548.38"/>
</g>
<!-- amendingBylaw&#45;&gt;cdm1_Activity -->
<!-- cdm1_Activity&#45;&gt;City -->
<!-- JurisdictionalArea -->
<g id="node6" class="node">
<title>JurisdictionalArea</title>
<g id="a_node6"><a xlink:href="../JurisdictionalArea.md" xlink:title="&lt;TABLE&gt;">
<polygon fill="lightgray" stroke="none" points="139,-390.88 139,-407.12 237,-407.12 237,-390.88 139,-390.88"/>
<text xml:space="preserve" text-anchor="start" x="140" y="-394.73" font-family="Arial" font-size="12.00">JurisdictionalArea</text>
<polygon fill="none" stroke="black" points="138,-389.88 138,-408.12 238,-408.12 238,-389.88 138,-389.88"/>
</a>
</g>
</g>
<!-- City&#45;&gt;JurisdictionalArea -->
<!-- LandArea -->
<g id="node7" class="node">
<title>LandArea</title>
<g id="a_node7"><a xlink:href="../LandArea.md" xlink:title="&lt;TABLE&gt;">
<polygon fill="lightgray" stroke="none" points="148.75,-317.88 148.75,-334.12 203.25,-334.12 203.25,-317.88 148.75,-317.88"/>
<text xml:space="preserve" text-anchor="start" x="149.75" y="-321.73" font-family="Arial" font-size="12.00">LandArea</text>
<polygon fill="none" stroke="black" points="147.75,-316.88 147.75,-335.12 204.25,-335.12 204.25,-316.88 147.75,-316.88"/>
</a>
</g>
</g>
<!-- JurisdictionalArea&#45;&gt;LandArea -->
<!-- mainBylaw -->
<g id="node8" class="node">
<title>mainBylaw</title>
<polygon fill="lightgray" stroke="none" points="145.38,-244.88 145.38,-261.12 206.62,-261.12 206.62,-244.88 145.38,-244.88"/>
<text xml:space="preserve" text-anchor="start" x="146.38" y="-248.72" font-family="Arial" font-size="12.00">mainBylaw</text>
<polygon fill="none" stroke="black" points="144.38,-243.88 144.38,-262.12 207.62,-262.12 207.62,-243.88 144.38,-243.88"/>
</g>
<!-- LandArea&#45;&gt;mainBylaw -->
<!-- Organization -->
<g id="node9" class="node">
<title>Organization</title>
<g id="a_node9"><a xlink:href="../Organization.md" xlink:title="&lt;TABLE&gt;">
<polygon fill="lightgray" stroke="none" points="140.88,-171.88 140.88,-188.12 211.12,-188.12 211.12,-171.88 140.88,-171.88"/>
<text xml:space="preserve" text-anchor="start" x="141.88" y="-175.72" font-family="Arial" font-size="12.00">Organization</text>
<polygon fill="none" stroke="black" points="139.88,-170.88 139.88,-189.12 212.12,-189.12 212.12,-170.88 139.88,-170.88"/>
</a>
</g>
</g>
<!-- mainBylaw&#45;&gt;Organization -->
<!-- Person -->
<g id="node10" class="node">
<title>Person</title>
<g id="a_node10"><a xlink:href="../Person.md" xlink:title="&lt;TABLE&gt;">
<polygon fill="lightgray" stroke="none" points="167.88,-98.88 167.88,-115.12 208.12,-115.12 208.12,-98.88 167.88,-98.88"/>
<text xml:space="preserve" text-anchor="start" x="168.88" y="-102.72" font-family="Arial" font-size="12.00">Person</text>
<polygon fill="none" stroke="black" points="166.88,-97.88 166.88,-116.12 209.12,-116.12 209.12,-97.88 166.88,-97.88"/>
</a>
</g>
</g>
<!-- Organization&#45;&gt;Person -->
<!-- revisionBylaw -->
<g id="node11" class="node">
<title>revisionBylaw</title>
<polygon fill="lightgray" stroke="none" points="149.5,-25.88 149.5,-42.12 226.5,-42.12 226.5,-25.88 149.5,-25.88"/>
<text xml:space="preserve" text-anchor="start" x="150.5" y="-29.73" font-family="Arial" font-size="12.00">revisionBylaw</text>
<polygon fill="none" stroke="black" points="148.5,-24.88 148.5,-43.12 227.5,-43.12 227.5,-24.88 148.5,-24.88"/>
</g>
<!-- Person&#45;&gt;revisionBylaw -->
<!-- N73e0d0f42e0b4883a98d78ec4b16b2c9&#45;&gt;cdm1_Activity -->
<g id="edge12" class="edge">
<title>N73e0d0f42e0b4883a98d78ec4b16b2c9&#45;&gt;cdm1_Activity</title>
<path fill="none" stroke="black" stroke-dasharray="1,5" d="M194.62,-843.75C204.59,-825.59 219.96,-795.57 229,-768 238.05,-740.39 254.5,-666.57 247,-638.5 241.81,-619.07 230.66,-599.47 220.63,-584.52"/>
<polygon fill="black" stroke="black" points="223.74,-582.86 215.14,-576.67 218,-586.87 223.74,-582.86"/>
<text xml:space="preserve" text-anchor="middle" x="265.74" y="-695.55" font-family="Arial" font-size="11.00">member</text>
</g>
<!-- N73e0d0f42e0b4883a98d78ec4b16b2c9&#45;&gt;JurisdictionalArea -->
<g id="edge13" class="edge">
<title>N73e0d0f42e0b4883a98d78ec4b16b2c9&#45;&gt;JurisdictionalArea</title>
<path fill="none" stroke="black" stroke-dasharray="1,5" d="M179.31,-843.7C173.23,-825.24 163.6,-794.75 157,-768 124.89,-637.85 132.94,-596.66 165,-466.5 168.21,-453.47 172.9,-439.37 177.21,-427.52"/>
<polygon fill="black" stroke="black" points="180.41,-428.97 180.64,-418.38 173.85,-426.52 180.41,-428.97"/>
<text xml:space="preserve" text-anchor="middle" x="158.68" y="-603.3" font-family="Arial" font-size="11.00">member</text>
</g>
<!-- N73e0d0f42e0b4883a98d78ec4b16b2c9&#45;&gt;LandArea -->
<g id="edge14" class="edge">
<title>N73e0d0f42e0b4883a98d78ec4b16b2c9&#45;&gt;LandArea</title>
<path fill="none" stroke="black" stroke-dasharray="1,5" d="M155.48,-846.94C120.82,-828.61 68,-792.54 68,-743 68,-743 68,-743 68,-398 68,-363.93 106,-345.29 136.92,-335.77"/>
<polygon fill="black" stroke="black" points="137.78,-339.17 146.45,-333.08 135.87,-332.43 137.78,-339.17"/>
<text xml:space="preserve" text-anchor="middle" x="87.88" y="-553.8" font-family="Arial" font-size="11.00">member</text>
</g>
<!-- N73e0d0f42e0b4883a98d78ec4b16b2c9&#45;&gt;Organization -->
<g id="edge15" class="edge">
<title>N73e0d0f42e0b4883a98d78ec4b16b2c9&#45;&gt;Organization</title>
<path fill="none" stroke="black" stroke-dasharray="1,5" d="M155.28,-855.79C102.98,-845.39 0,-815.7 0,-743 0,-743 0,-743 0,-252 0,-196.4 76.46,-183.25 128.59,-180.75"/>
<polygon fill="black" stroke="black" points="128.58,-184.25 138.45,-180.4 128.33,-177.25 128.58,-184.25"/>
<text xml:space="preserve" text-anchor="middle" x="19.88" y="-480.8" font-family="Arial" font-size="11.00">member</text>
</g>
<!-- N73e0d0f42e0b4883a98d78ec4b16b2c9&#45;&gt;Person -->
<g id="edge16" class="edge">
<title>N73e0d0f42e0b4883a98d78ec4b16b2c9&#45;&gt;Person</title>
<path fill="none" stroke="black" stroke-dasharray="1,5" d="M203.33,-843.85C236.71,-811.38 304,-736.18 304,-657.5 304,-657.5 304,-657.5 304,-179 304,-141.66 259.74,-123.36 225.9,-114.83"/>
<polygon fill="black" stroke="black" points="226.91,-111.47 216.38,-112.63 225.34,-118.29 226.91,-111.47"/>
<text xml:space="preserve" text-anchor="middle" x="323.88" y="-438.05" font-family="Arial" font-size="11.00">member</text>
</g>
</g>
</svg>
