<?xml version="1.0" encoding="UTF-8" standalone="no"?>
<!DOCTYPE svg PUBLIC "-//W3C//DTD SVG 1.1//EN"
 "http://www.w3.org/Graphics/SVG/1.1/DTD/svg11.dtd">
<!-- Generated by graphviz version 14.0.2 (20251019.1705)
 -->
<!-- Pages: 1 -->
<svg width="422pt" height="681pt"
 viewBox="0.00 0.00 422.00 681.00" xmlns="http://www.w3.org/2000/svg" xmlns:xlink="http://www.w3.org/1999/xlink">
<g id="graph0" class="graph" transform="scale(1 1) rotate(0) translate(4 677)">
<polygon fill="white" stroke="none" points="-4,4 -4,-677 417.5,-677 417.5,4 -4,4"/>
<g id="clust2" class="cluster">
<title>cluster_associated</title>
</g>
<!-- Clause -->
<g id="node1" class="node">
<title>Clause</title>
<g id="a_node1"><a xlink:href="../Clause.md" xlink:title="&lt;TABLE&gt;">
<polygon fill="lightgray" stroke="none" points="121.75,-463.88 121.75,-480.12 162,-480.12 162,-463.88 121.75,-463.88"/>
<text xml:space="preserve" text-anchor="start" x="122.75" y="-467.73" font-family="Arial" font-size="12.00">Clause</text>
<polygon fill="none" stroke="black" points="120.75,-462.88 120.75,-481.12 163,-481.12 163,-462.88 120.75,-462.88"/>
</a>
</g>
</g>
<!-- Clause&#45;&gt;Clause -->
<g id="edge10" class="edge">
<title>Clause&#45;&gt;Clause</title>
<path fill="none" stroke="black" d="M168.67,-478.83C178.66,-479.05 186.88,-476.78 186.88,-472 186.88,-469.24 184.13,-467.31 179.88,-466.22"/>
<polygon fill="black" stroke="black" points="180.46,-462.76 170.18,-465.31 179.81,-469.73 180.46,-462.76"/>
<text xml:space="preserve" text-anchor="middle" x="215.38" y="-475.05" font-family="Arial" font-size="11.00"> hasClause </text>
<text xml:space="preserve" text-anchor="middle" x="215.38" y="-461.55" font-family="Arial" font-size="11.00"> «only» &#160;</text>
</g>
<!-- Invis -->
<!-- Clause&#45;&gt;Invis -->
<!-- BylawThing -->
<g id="node9" class="node">
<title>BylawThing</title>
<g id="a_node9"><a xlink:href="../BylawThing.md" xlink:title="&lt;TABLE&gt;">
<polygon fill="lightgray" stroke="none" points="1,-604.88 1,-621.12 66.75,-621.12 66.75,-604.88 1,-604.88"/>
<text xml:space="preserve" text-anchor="start" x="2" y="-608.73" font-family="Arial" font-size="12.00">BylawThing</text>
<polygon fill="none" stroke="black" points="0,-603.88 0,-622.12 67.75,-622.12 67.75,-603.88 0,-603.88"/>
</a>
</g>
</g>
<!-- Clause&#45;&gt;BylawThing -->
<g id="edge1" class="edge">
<title>Clause&#45;&gt;BylawThing</title>
<path fill="none" stroke="black" d="M127.66,-489.96C114.32,-506.01 93.9,-530.88 76.88,-553 68.73,-563.58 60.01,-575.44 52.56,-585.74"/>
<polygon fill="none" stroke="black" points="49.75,-583.65 46.76,-593.81 55.44,-587.74 49.75,-583.65"/>
</g>
<!-- N8e0cccca430d4ae4b3941e4e097a9697 -->
<g id="node10" class="node">
<title>N8e0cccca430d4ae4b3941e4e097a9697</title>
<polygon fill="lightgray" stroke="none" points="87.25,-641.5 87.25,-672 412.5,-672 412.5,-641.5 87.25,-641.5"/>
<text xml:space="preserve" text-anchor="start" x="227.38" y="-659.6" font-family="Arial" font-size="12.00">«Enum»</text>
<text xml:space="preserve" text-anchor="start" x="88.25" y="-645.35" font-family="Arial" font-size="12.00">Enum: bylaw, penalty, repeal, schedule, severance, transition</text>
<text xml:space="preserve" text-anchor="start" x="100.25" y="-629.1" font-family="Arial" font-size="12.00">+ bylaw</text>
<text xml:space="preserve" text-anchor="start" x="96.5" y="-614.85" font-family="Arial" font-size="12.00">+ penalty</text>
<text xml:space="preserve" text-anchor="start" x="99.12" y="-600.6" font-family="Arial" font-size="12.00">+ repeal</text>
<text xml:space="preserve" text-anchor="start" x="91.62" y="-586.35" font-family="Arial" font-size="12.00">+ schedule</text>
<text xml:space="preserve" text-anchor="start" x="88.25" y="-572.1" font-family="Arial" font-size="12.00">+ severance</text>
<text xml:space="preserve" text-anchor="start" x="91.62" y="-557.85" font-family="Arial" font-size="12.00">+ transition</text>
<polygon fill="none" stroke="black" points="86.25,-553 86.25,-673 413.5,-673 413.5,-553 86.25,-553"/>
</g>
<!-- Clause&#45;&gt;N8e0cccca430d4ae4b3941e4e097a9697 -->
<g id="edge9" class="edge">
<title>Clause&#45;&gt;N8e0cccca430d4ae4b3941e4e097a9697</title>
<path fill="none" stroke="black" d="M154.96,-489.84C165.63,-503.57 181.45,-523.94 197.14,-544.12"/>
<polygon fill="black" stroke="black" points="194.25,-546.11 203.14,-551.86 199.77,-541.81 194.25,-546.11"/>
<text xml:space="preserve" text-anchor="middle" x="219.41" y="-524.55" font-family="Arial" font-size="11.00"> clauseType </text>
<text xml:space="preserve" text-anchor="middle" x="219.41" y="-511.05" font-family="Arial" font-size="11.00"> «some» &#160;</text>
</g>
<!-- bylaw -->
<g id="node3" class="node">
<title>bylaw</title>
<polygon fill="lightgray" stroke="none" points="290.12,-390.88 290.12,-407.12 323.62,-407.12 323.62,-390.88 290.12,-390.88"/>
<text xml:space="preserve" text-anchor="start" x="291.12" y="-394.73" font-family="Arial" font-size="12.00">bylaw</text>
<polygon fill="none" stroke="black" points="289.12,-389.88 289.12,-408.12 324.62,-408.12 324.62,-389.88 289.12,-389.88"/>
</g>
<!-- Invis&#45;&gt;bylaw -->
<!-- penalty -->
<g id="node4" class="node">
<title>penalty</title>
<polygon fill="lightgray" stroke="none" points="286.38,-317.88 286.38,-334.12 327.38,-334.12 327.38,-317.88 286.38,-317.88"/>
<text xml:space="preserve" text-anchor="start" x="287.38" y="-321.73" font-family="Arial" font-size="12.00">penalty</text>
<polygon fill="none" stroke="black" points="285.38,-316.88 285.38,-335.12 328.38,-335.12 328.38,-316.88 285.38,-316.88"/>
</g>
<!-- bylaw&#45;&gt;penalty -->
<!-- repeal -->
<g id="node5" class="node">
<title>repeal</title>
<polygon fill="lightgray" stroke="none" points="289,-244.88 289,-261.12 324.75,-261.12 324.75,-244.88 289,-244.88"/>
<text xml:space="preserve" text-anchor="start" x="290" y="-248.72" font-family="Arial" font-size="12.00">repeal</text>
<polygon fill="none" stroke="black" points="288,-243.88 288,-262.12 325.75,-262.12 325.75,-243.88 288,-243.88"/>
</g>
<!-- penalty&#45;&gt;repeal -->
<!-- schedule -->
<g id="node6" class="node">
<title>schedule</title>
<polygon fill="lightgray" stroke="none" points="281.5,-171.88 281.5,-188.12 332.25,-188.12 332.25,-171.88 281.5,-171.88"/>
<text xml:space="preserve" text-anchor="start" x="282.5" y="-175.72" font-family="Arial" font-size="12.00">schedule</text>
<polygon fill="none" stroke="black" points="280.5,-170.88 280.5,-189.12 333.25,-189.12 333.25,-170.88 280.5,-170.88"/>
</g>
<!-- repeal&#45;&gt;schedule -->
<!-- severance -->
<g id="node7" class="node">
<title>severance</title>
<polygon fill="lightgray" stroke="none" points="278.12,-98.88 278.12,-115.12 335.62,-115.12 335.62,-98.88 278.12,-98.88"/>
<text xml:space="preserve" text-anchor="start" x="279.12" y="-102.72" font-family="Arial" font-size="12.00">severance</text>
<polygon fill="none" stroke="black" points="277.12,-97.88 277.12,-116.12 336.62,-116.12 336.62,-97.88 277.12,-97.88"/>
</g>
<!-- schedule&#45;&gt;severance -->
<!-- transition -->
<g id="node8" class="node">
<title>transition</title>
<polygon fill="lightgray" stroke="none" points="281.5,-25.88 281.5,-42.12 332.25,-42.12 332.25,-25.88 281.5,-25.88"/>
<text xml:space="preserve" text-anchor="start" x="282.5" y="-29.73" font-family="Arial" font-size="12.00">transition</text>
<polygon fill="none" stroke="black" points="280.5,-24.88 280.5,-43.12 333.25,-43.12 333.25,-24.88 280.5,-24.88"/>
</g>
<!-- severance&#45;&gt;transition -->
</g>
</svg>
