<?xml version="1.0" encoding="UTF-8" standalone="no"?>
<!DOCTYPE svg PUBLIC "-//W3C//DTD SVG 1.1//EN"
 "http://www.w3.org/Graphics/SVG/1.1/DTD/svg11.dtd">
<!-- Generated by graphviz version 14.0.2 (20251019.1705)
 -->
<!-- Pages: 1 -->
<svg width="238pt" height="232pt"
 viewBox="0.00 0.00 238.00 232.00" xmlns="http://www.w3.org/2000/svg" xmlns:xlink="http://www.w3.org/1999/xlink">
<g id="graph0" class="graph" transform="scale(1 1) rotate(0) translate(4 228)">
<polygon fill="white" stroke="none" points="-4,4 -4,-228 234,-228 234,4 -4,4"/>
<g id="clust2" class="cluster">
<title>cluster_associated</title>
</g>
<!-- Compensation -->
<g id="node1" class="node">
<title>Compensation</title>
<g id="a_node1"><a xlink:href="../Compensation.md" xlink:title="&lt;TABLE&gt;">
<polygon fill="lightgray" stroke="none" points="149,-124.88 149,-141.12 229,-141.12 229,-124.88 149,-124.88"/>
<text xml:space="preserve" text-anchor="start" x="150" y="-128.72" font-family="Arial" font-size="12.00">Compensation</text>
<polygon fill="none" stroke="black" points="148,-123.88 148,-142.12 230,-142.12 230,-123.88 148,-123.88"/>
</a>
</g>
</g>
<!-- Invis -->
<!-- Compensation&#45;&gt;Invis -->
<!-- cdm1_MonetaryValue -->
<g id="node3" class="node">
<title>cdm1_MonetaryValue</title>
<polygon fill="lightgray" stroke="none" points="17.12,-25.88 17.12,-42.12 130.88,-42.12 130.88,-25.88 17.12,-25.88"/>
<text xml:space="preserve" text-anchor="start" x="18.12" y="-29.73" font-family="Arial" font-size="12.00">cdm1:MonetaryValue</text>
<polygon fill="none" stroke="black" points="16.12,-24.88 16.12,-43.12 131.88,-43.12 131.88,-24.88 16.12,-24.88"/>
</g>
<!-- Compensation&#45;&gt;cdm1_MonetaryValue -->
<g id="edge4" class="edge">
<title>Compensation&#45;&gt;cdm1_MonetaryValue</title>
<path fill="none" stroke="black" d="M168.97,-115.1C150.58,-99.6 123.14,-76.45 102.48,-59.02"/>
<polygon fill="black" stroke="black" points="104.86,-56.45 94.96,-52.68 100.35,-61.8 104.86,-56.45"/>
<text xml:space="preserve" text-anchor="middle" x="170.31" y="-86.55" font-family="Arial" font-size="11.00"> hasPay </text>
<text xml:space="preserve" text-anchor="middle" x="170.31" y="-73.05" font-family="Arial" font-size="11.00"> «max 1» &#160;</text>
</g>
<!-- CityOrgThing -->
<g id="node4" class="node">
<title>CityOrgThing</title>
<g id="a_node4"><a xlink:href="../CityOrgThing.md" xlink:title="&lt;TABLE&gt;">
<polygon fill="lightgray" stroke="none" points="152.38,-197.88 152.38,-214.12 225.62,-214.12 225.62,-197.88 152.38,-197.88"/>
<text xml:space="preserve" text-anchor="start" x="153.38" y="-201.72" font-family="Arial" font-size="12.00">CityOrgThing</text>
<polygon fill="none" stroke="black" points="151.38,-196.88 151.38,-215.12 226.62,-215.12 226.62,-196.88 151.38,-196.88"/>
</a>
</g>
</g>
<!-- Compensation&#45;&gt;CityOrgThing -->
<g id="edge1" class="edge">
<title>Compensation&#45;&gt;CityOrgThing</title>
<path fill="none" stroke="black" d="M189,-150.71C189,-158.47 189,-167.92 189,-176.74"/>
<polygon fill="none" stroke="black" points="185.5,-176.66 189,-186.66 192.5,-176.66 185.5,-176.66"/>
</g>
<!-- Invis&#45;&gt;cdm1_MonetaryValue -->
</g>
</svg>
