<?xml version="1.0" encoding="UTF-8" standalone="no"?>
<!DOCTYPE svg PUBLIC "-//W3C//DTD SVG 1.1//EN"
 "http://www.w3.org/Graphics/SVG/1.1/DTD/svg11.dtd">
<!-- Generated by graphviz version 14.0.2 (20251019.1705)
 -->
<!-- Pages: 1 -->
<svg width="568pt" height="662pt"
 viewBox="0.00 0.00 568.00 662.00" xmlns="http://www.w3.org/2000/svg" xmlns:xlink="http://www.w3.org/1999/xlink">
<g id="graph0" class="graph" transform="scale(1 1) rotate(0) translate(4 657.5)">
<polygon fill="white" stroke="none" points="-4,4 -4,-657.5 563.75,-657.5 563.75,4 -4,4"/>
<g id="clust2" class="cluster">
<title>cluster_associated</title>
</g>
<!-- Contract -->
<g id="node1" class="node">
<title>Contract</title>
<g id="a_node1"><a xlink:href="../Contract.md" xlink:title="&lt;TABLE&gt;">
<polygon fill="lightgray" stroke="none" points="243.5,-528.38 243.5,-544.62 290.5,-544.62 290.5,-528.38 243.5,-528.38"/>
<text xml:space="preserve" text-anchor="start" x="244.5" y="-532.23" font-family="Arial" font-size="12.00">Contract</text>
<polygon fill="none" stroke="black" points="242.5,-527.38 242.5,-545.62 291.5,-545.62 291.5,-527.38 242.5,-527.38"/>
</a>
</g>
</g>
<!-- Invis -->
<!-- Contract&#45;&gt;Invis -->
<!-- cdm1_Agreement -->
<g id="node3" class="node">
<title>cdm1_Agreement</title>
<polygon fill="lightgray" stroke="none" points="58.62,-429.38 58.62,-445.62 151.38,-445.62 151.38,-429.38 58.62,-429.38"/>
<text xml:space="preserve" text-anchor="start" x="59.62" y="-433.23" font-family="Arial" font-size="12.00">cdm1:Agreement</text>
<polygon fill="none" stroke="black" points="57.62,-428.38 57.62,-446.62 152.38,-446.62 152.38,-428.38 57.62,-428.38"/>
</g>
<!-- Contract&#45;&gt;cdm1_Agreement -->
<g id="edge10" class="edge">
<title>Contract&#45;&gt;cdm1_Agreement</title>
<path fill="none" stroke="black" d="M240.26,-530.73C200.11,-523.33 128.02,-509.05 119.5,-500.5 110.66,-491.63 106.81,-478.48 105.25,-466.56"/>
<polygon fill="black" stroke="black" points="108.76,-466.47 104.49,-456.78 101.78,-467.02 108.76,-466.47"/>
<text xml:space="preserve" text-anchor="middle" x="169.75" y="-490.05" font-family="Arial" font-size="11.00"> specifiesAgreement </text>
<text xml:space="preserve" text-anchor="middle" x="169.75" y="-476.55" font-family="Arial" font-size="11.00"> «some» &#160;</text>
</g>
<!-- ContractualElement -->
<g id="node4" class="node">
<title>ContractualElement</title>
<g id="a_node4"><a xlink:href="../ContractualElement.md" xlink:title="&lt;TABLE&gt;">
<polygon fill="lightgray" stroke="none" points="51.12,-343.88 51.12,-360.12 158.88,-360.12 158.88,-343.88 51.12,-343.88"/>
<text xml:space="preserve" text-anchor="start" x="52.12" y="-347.73" font-family="Arial" font-size="12.00">ContractualElement</text>
<polygon fill="none" stroke="black" points="50.12,-342.88 50.12,-361.12 159.88,-361.12 159.88,-342.88 50.12,-342.88"/>
</a>
</g>
</g>
<!-- Contract&#45;&gt;ContractualElement -->
<g id="edge9" class="edge">
<title>Contract&#45;&gt;ContractualElement</title>
<path fill="none" stroke="black" d="M263.13,-518.66C254.42,-480.97 233.64,-392.75 229,-388 213.69,-372.34 191.96,-363.54 170.95,-358.64"/>
<polygon fill="black" stroke="black" points="171.72,-355.22 161.22,-356.66 170.32,-362.08 171.72,-355.22"/>
<text xml:space="preserve" text-anchor="middle" x="307.12" y="-440.55" font-family="Arial" font-size="11.00"> hasContractualElement </text>
<text xml:space="preserve" text-anchor="middle" x="307.12" y="-427.05" font-family="Arial" font-size="11.00"> «some» &#160;</text>
</g>
<!-- Person -->
<g id="node6" class="node">
<title>Person</title>
<g id="a_node6"><a xlink:href="../Person.md" xlink:title="&lt;TABLE&gt;">
<polygon fill="lightgray" stroke="none" points="109.88,-171.88 109.88,-188.12 150.12,-188.12 150.12,-171.88 109.88,-171.88"/>
<text xml:space="preserve" text-anchor="start" x="110.88" y="-175.72" font-family="Arial" font-size="12.00">Person</text>
<polygon fill="none" stroke="black" points="108.88,-170.88 108.88,-189.12 151.12,-189.12 151.12,-170.88 108.88,-170.88"/>
</a>
</g>
</g>
<!-- Contract&#45;&gt;Person -->
<g id="edge16" class="edge">
<title>Contract&#45;&gt;Person</title>
<path fill="none" stroke="black" d="M293.98,-522.73C318.13,-509.63 351.98,-486.76 367,-455.5 373.93,-441.08 372.35,-434.58 367,-419.5 357.27,-392.06 224.8,-234.1 202,-216 191.67,-207.8 179.09,-200.86 167.37,-195.39"/>
<polygon fill="black" stroke="black" points="168.87,-192.22 158.31,-191.38 166.04,-198.63 168.87,-192.22"/>
<text xml:space="preserve" text-anchor="middle" x="368.06" y="-355.05" font-family="Arial" font-size="11.00"> hasSignatory </text>
<text xml:space="preserve" text-anchor="middle" x="368.06" y="-341.55" font-family="Arial" font-size="11.00"> «min 2» &#160;</text>
</g>
<!-- time_Interval -->
<g id="node7" class="node">
<title>time_Interval</title>
<polygon fill="lightgray" stroke="none" points="92.75,-98.88 92.75,-115.12 159.25,-115.12 159.25,-98.88 92.75,-98.88"/>
<text xml:space="preserve" text-anchor="start" x="93.75" y="-102.72" font-family="Arial" font-size="12.00">time:Interval</text>
<polygon fill="none" stroke="black" points="91.75,-97.88 91.75,-116.12 160.25,-116.12 160.25,-97.88 91.75,-97.88"/>
</g>
<!-- Contract&#45;&gt;time_Interval -->
<g id="edge12" class="edge">
<title>Contract&#45;&gt;time_Interval</title>
<path fill="none" stroke="black" d="M293.82,-530.99C337.46,-521.95 419,-497.2 419,-438.5 419,-438.5 419,-438.5 419,-179 419,-128.69 253.76,-113.9 171.46,-109.66"/>
<polygon fill="black" stroke="black" points="171.85,-106.17 161.7,-109.19 171.52,-113.16 171.85,-106.17"/>
<text xml:space="preserve" text-anchor="middle" x="445.62" y="-305.55" font-family="Arial" font-size="11.00"> isValidFor </text>
<text xml:space="preserve" text-anchor="middle" x="445.62" y="-292.05" font-family="Arial" font-size="11.00"> «only» &#160;</text>
</g>
<!-- time_TemporalEntity -->
<g id="node8" class="node">
<title>time_TemporalEntity</title>
<polygon fill="lightgray" stroke="none" points="51.5,-25.88 51.5,-42.12 158.5,-42.12 158.5,-25.88 51.5,-25.88"/>
<text xml:space="preserve" text-anchor="start" x="52.5" y="-29.73" font-family="Arial" font-size="12.00">time:TemporalEntity</text>
<polygon fill="none" stroke="black" points="50.5,-24.88 50.5,-43.12 159.5,-43.12 159.5,-24.88 50.5,-24.88"/>
</g>
<!-- Contract&#45;&gt;time_TemporalEntity -->
<g id="edge11" class="edge">
<title>Contract&#45;&gt;time_TemporalEntity</title>
<path fill="none" stroke="black" d="M293.98,-535.59C352.72,-534.23 487,-521.98 487,-438.5 487,-438.5 487,-438.5 487,-106 487,-74.2 279.72,-50.72 170.54,-40.56"/>
<polygon fill="black" stroke="black" points="171.11,-37.1 160.83,-39.67 170.47,-44.07 171.11,-37.1"/>
<text xml:space="preserve" text-anchor="middle" x="523.38" y="-256.05" font-family="Arial" font-size="11.00"> isExecutedOn </text>
<text xml:space="preserve" text-anchor="middle" x="523.38" y="-242.55" font-family="Arial" font-size="11.00"> «only» &#160;</text>
</g>
<!-- ContractThing -->
<g id="node9" class="node">
<title>ContractThing</title>
<g id="a_node9"><a xlink:href="../ContractThing.md" xlink:title="&lt;TABLE&gt;">
<polygon fill="lightgray" stroke="none" points="249.12,-627.38 249.12,-643.62 326.88,-643.62 326.88,-627.38 249.12,-627.38"/>
<text xml:space="preserve" text-anchor="start" x="250.12" y="-631.23" font-family="Arial" font-size="12.00">ContractThing</text>
<polygon fill="none" stroke="black" points="248.12,-626.38 248.12,-644.62 327.88,-644.62 327.88,-626.38 248.12,-626.38"/>
</a>
</g>
</g>
<!-- Contract&#45;&gt;ContractThing -->
<g id="edge1" class="edge">
<title>Contract&#45;&gt;ContractThing</title>
<path fill="none" stroke="black" d="M270.62,-554.2C273.73,-568.61 278.3,-589.71 281.97,-606.66"/>
<polygon fill="none" stroke="black" points="278.49,-607.09 284.02,-616.12 285.33,-605.61 278.49,-607.09"/>
</g>
<!-- N2039ef90381948cd884d6f3bc66afc5f -->
<g id="node10" class="node">
<title>N2039ef90381948cd884d6f3bc66afc5f</title>
<polygon fill="lightyellow" stroke="none" points="161.25,-626.38 161.25,-644.62 220.75,-644.62 220.75,-626.38 161.25,-626.38"/>
<text xml:space="preserve" text-anchor="start" x="163.25" y="-631.23" font-family="Arial" font-size="12.00">«unionOf»</text>
<polygon fill="none" stroke="black" points="161.25,-626.38 161.25,-644.62 220.75,-644.62 220.75,-626.38 161.25,-626.38"/>
</g>
<!-- Contract&#45;&gt;N2039ef90381948cd884d6f3bc66afc5f -->
<g id="edge15" class="edge">
<title>Contract&#45;&gt;N2039ef90381948cd884d6f3bc66afc5f</title>
<path fill="none" stroke="black" d="M241.59,-554.27C234.76,-559.56 227.75,-565.79 222.25,-572.5 213.79,-582.81 206.81,-595.79 201.6,-607.21"/>
<polygon fill="black" stroke="black" points="198.5,-605.57 197.77,-616.14 204.93,-608.33 198.5,-605.57"/>
<text xml:space="preserve" text-anchor="middle" x="246.62" y="-589.05" font-family="Arial" font-size="11.00"> hasParty </text>
<text xml:space="preserve" text-anchor="middle" x="246.62" y="-575.55" font-family="Arial" font-size="11.00"> «min 2» &#160;</text>
</g>
<!-- Invis&#45;&gt;cdm1_Agreement -->
<!-- cdm1_Agreement&#45;&gt;ContractualElement -->
<!-- Organization -->
<g id="node5" class="node">
<title>Organization</title>
<g id="a_node5"><a xlink:href="../Organization.md" xlink:title="&lt;TABLE&gt;">
<polygon fill="lightgray" stroke="none" points="69.88,-244.88 69.88,-261.12 140.12,-261.12 140.12,-244.88 69.88,-244.88"/>
<text xml:space="preserve" text-anchor="start" x="70.88" y="-248.72" font-family="Arial" font-size="12.00">Organization</text>
<polygon fill="none" stroke="black" points="68.88,-243.88 68.88,-262.12 141.12,-262.12 141.12,-243.88 68.88,-243.88"/>
</a>
</g>
</g>
<!-- ContractualElement&#45;&gt;Organization -->
<!-- Organization&#45;&gt;Person -->
<!-- Person&#45;&gt;time_Interval -->
<!-- time_Interval&#45;&gt;time_TemporalEntity -->
<!-- N2039ef90381948cd884d6f3bc66afc5f&#45;&gt;Organization -->
<g id="edge13" class="edge">
<title>N2039ef90381948cd884d6f3bc66afc5f&#45;&gt;Organization</title>
<path fill="none" stroke="black" stroke-dasharray="1,5" d="M161.57,-632.77C108,-627.86 0,-609.09 0,-537.5 0,-537.5 0,-537.5 0,-351 0,-316.48 31,-290.83 59.31,-274.61"/>
<polygon fill="black" stroke="black" points="60.71,-277.84 67.83,-269.99 57.37,-271.68 60.71,-277.84"/>
<text xml:space="preserve" text-anchor="middle" x="19.88" y="-433.8" font-family="Arial" font-size="11.00">member</text>
</g>
<!-- N2039ef90381948cd884d6f3bc66afc5f&#45;&gt;Person -->
<g id="edge14" class="edge">
<title>N2039ef90381948cd884d6f3bc66afc5f&#45;&gt;Person</title>
<path fill="none" stroke="black" stroke-dasharray="1,5" d="M190.64,-617.71C189.85,-578.73 188,-479.07 188,-395.75 188,-395.75 188,-395.75 188,-252 188,-233.72 176.33,-217.55 163.46,-205.28"/>
<polygon fill="black" stroke="black" points="165.89,-202.77 156.07,-198.8 161.27,-208.02 165.89,-202.77"/>
<text xml:space="preserve" text-anchor="middle" x="207.88" y="-391.05" font-family="Arial" font-size="11.00">member</text>
</g>
</g>
</svg>
