<?xml version="1.0" encoding="UTF-8" standalone="no"?>
<!DOCTYPE svg PUBLIC "-//W3C//DTD SVG 1.1//EN"
 "http://www.w3.org/Graphics/SVG/1.1/DTD/svg11.dtd">
<!-- Generated by graphviz version 14.0.2 (20251019.1705)
 -->
<!-- Pages: 1 -->
<svg width="210pt" height="232pt"
 viewBox="0.00 0.00 210.00 232.00" xmlns="http://www.w3.org/2000/svg" xmlns:xlink="http://www.w3.org/1999/xlink">
<g id="graph0" class="graph" transform="scale(1 1) rotate(0) translate(4 228)">
<polygon fill="white" stroke="none" points="-4,4 -4,-228 205.88,-228 205.88,4 -4,4"/>
<g id="clust2" class="cluster">
<title>cluster_associated</title>
</g>
<!-- ControlledEntity -->
<g id="node1" class="node">
<title>ControlledEntity</title>
<g id="a_node1"><a xlink:href="../ControlledEntity.md" xlink:title="&lt;TABLE&gt;">
<polygon fill="lightgray" stroke="none" points="106.25,-124.88 106.25,-141.12 193.75,-141.12 193.75,-124.88 106.25,-124.88"/>
<text xml:space="preserve" text-anchor="start" x="107.25" y="-128.72" font-family="Arial" font-size="12.00">ControlledEntity</text>
<polygon fill="none" stroke="black" points="105.25,-123.88 105.25,-142.12 194.75,-142.12 194.75,-123.88 105.25,-123.88"/>
</a>
</g>
</g>
<!-- Invis -->
<!-- ControlledEntity&#45;&gt;Invis -->
<!-- owl_Thing -->
<g id="node3" class="node">
<title>owl_Thing</title>
<polygon fill="lightgray" stroke="none" points="16.75,-25.88 16.75,-42.12 71.25,-42.12 71.25,-25.88 16.75,-25.88"/>
<text xml:space="preserve" text-anchor="start" x="17.75" y="-29.73" font-family="Arial" font-size="12.00">owl:Thing</text>
<polygon fill="none" stroke="black" points="15.75,-24.88 15.75,-43.12 72.25,-43.12 72.25,-24.88 15.75,-24.88"/>
</g>
<!-- ControlledEntity&#45;&gt;owl_Thing -->
<g id="edge4" class="edge">
<title>ControlledEntity&#45;&gt;owl_Thing</title>
<path fill="none" stroke="black" d="M131.54,-115.1C114.66,-99.66 89.52,-76.66 70.51,-59.26"/>
<polygon fill="black" stroke="black" points="73.11,-56.89 63.37,-52.72 68.38,-62.06 73.11,-56.89"/>
<text xml:space="preserve" text-anchor="middle" x="133.24" y="-86.55" font-family="Arial" font-size="11.00"> entity </text>
<text xml:space="preserve" text-anchor="middle" x="133.24" y="-73.05" font-family="Arial" font-size="11.00"> «some» &#160;</text>
</g>
<!-- CityResidentThing -->
<g id="node4" class="node">
<title>CityResidentThing</title>
<g id="a_node4"><a xlink:href="../CityResidentThing.md" xlink:title="&lt;TABLE&gt;">
<polygon fill="lightgray" stroke="none" points="99.12,-197.88 99.12,-214.12 200.88,-214.12 200.88,-197.88 99.12,-197.88"/>
<text xml:space="preserve" text-anchor="start" x="100.12" y="-201.72" font-family="Arial" font-size="12.00">CityResidentThing</text>
<polygon fill="none" stroke="black" points="98.12,-196.88 98.12,-215.12 201.88,-215.12 201.88,-196.88 98.12,-196.88"/>
</a>
</g>
</g>
<!-- ControlledEntity&#45;&gt;CityResidentThing -->
<g id="edge1" class="edge">
<title>ControlledEntity&#45;&gt;CityResidentThing</title>
<path fill="none" stroke="black" d="M150,-150.71C150,-158.47 150,-167.92 150,-176.74"/>
<polygon fill="none" stroke="black" points="146.5,-176.66 150,-186.66 153.5,-176.66 146.5,-176.66"/>
</g>
<!-- Invis&#45;&gt;owl_Thing -->
</g>
</svg>
