<?xml version="1.0" encoding="UTF-8" standalone="no"?>
<!DOCTYPE svg PUBLIC "-//W3C//DTD SVG 1.1//EN"
 "http://www.w3.org/Graphics/SVG/1.1/DTD/svg11.dtd">
<!-- Generated by graphviz version 14.0.2 (20251019.1705)
 -->
<!-- Pages: 1 -->
<svg width="222pt" height="132pt"
 viewBox="0.00 0.00 222.00 132.00" xmlns="http://www.w3.org/2000/svg" xmlns:xlink="http://www.w3.org/1999/xlink">
<g id="graph0" class="graph" transform="scale(1 1) rotate(0) translate(4 128)">
<polygon fill="white" stroke="none" points="-4,4 -4,-128 218.12,-128 218.12,4 -4,4"/>
<g id="clust2" class="cluster">
<title>cluster_associated</title>
</g>
<!-- Facility -->
<g id="node1" class="node">
<title>Facility</title>
<g id="a_node1"><a xlink:href="../Facility.md" xlink:title="&lt;TABLE&gt;">
<polygon fill="lightgray" stroke="none" points="77.38,-25.88 77.38,-42.12 117.62,-42.12 117.62,-25.88 77.38,-25.88"/>
<text xml:space="preserve" text-anchor="start" x="78.38" y="-29.73" font-family="Arial" font-size="12.00">Facility</text>
<polygon fill="none" stroke="black" points="76.38,-24.88 76.38,-43.12 118.62,-43.12 118.62,-24.88 76.38,-24.88"/>
</a>
</g>
</g>
<!-- BuildingThing -->
<g id="node3" class="node">
<title>BuildingThing</title>
<g id="a_node3"><a xlink:href="../BuildingThing.md" xlink:title="&lt;TABLE&gt;">
<polygon fill="lightgray" stroke="none" points="1,-97.88 1,-114.12 78,-114.12 78,-97.88 1,-97.88"/>
<text xml:space="preserve" text-anchor="start" x="2" y="-101.72" font-family="Arial" font-size="12.00">BuildingThing</text>
<polygon fill="none" stroke="black" points="0,-96.88 0,-115.12 79,-115.12 79,-96.88 0,-96.88"/>
</a>
</g>
</g>
<!-- Facility&#45;&gt;BuildingThing -->
<g id="edge1" class="edge">
<title>Facility&#45;&gt;BuildingThing</title>
<path fill="none" stroke="black" d="M83.59,-51.79C76.77,-60.02 68.41,-70.11 60.8,-79.29"/>
<polygon fill="none" stroke="black" points="58.19,-76.96 54.51,-86.89 63.58,-81.42 58.19,-76.96"/>
</g>
<!-- InfrastructureElement -->
<g id="node4" class="node">
<title>InfrastructureElement</title>
<g id="a_node4"><a xlink:href="../InfrastructureElement.md" xlink:title="&lt;TABLE&gt;">
<polygon fill="lightgray" stroke="none" points="97.88,-97.88 97.88,-114.12 213.12,-114.12 213.12,-97.88 97.88,-97.88"/>
<text xml:space="preserve" text-anchor="start" x="98.88" y="-101.72" font-family="Arial" font-size="12.00">InfrastructureElement</text>
<polygon fill="none" stroke="black" points="96.88,-96.88 96.88,-115.12 214.12,-115.12 214.12,-96.88 96.88,-96.88"/>
</a>
</g>
</g>
<!-- Facility&#45;&gt;InfrastructureElement -->
<g id="edge2" class="edge">
<title>Facility&#45;&gt;InfrastructureElement</title>
<path fill="none" stroke="black" d="M111.41,-51.79C118.23,-60.02 126.59,-70.11 134.2,-79.29"/>
<polygon fill="none" stroke="black" points="131.42,-81.42 140.49,-86.89 136.81,-76.96 131.42,-81.42"/>
</g>
<!-- Invis -->
</g>
</svg>
