<?xml version="1.0" encoding="UTF-8" standalone="no"?>
<!DOCTYPE svg PUBLIC "-//W3C//DTD SVG 1.1//EN"
 "http://www.w3.org/Graphics/SVG/1.1/DTD/svg11.dtd">
<!-- Generated by graphviz version 14.0.2 (20251019.1705)
 -->
<!-- Pages: 1 -->
<svg width="278pt" height="305pt"
 viewBox="0.00 0.00 278.00 305.00" xmlns="http://www.w3.org/2000/svg" xmlns:xlink="http://www.w3.org/1999/xlink">
<g id="graph0" class="graph" transform="scale(1 1) rotate(0) translate(4 301)">
<polygon fill="white" stroke="none" points="-4,4 -4,-301 273.75,-301 273.75,4 -4,4"/>
<g id="clust2" class="cluster">
<title>cluster_associated</title>
</g>
<!-- GovernmentOrganization -->
<g id="node1" class="node">
<title>GovernmentOrganization</title>
<g id="a_node1"><a xlink:href="../GovernmentOrganization.md" xlink:title="&lt;TABLE&gt;">
<polygon fill="lightgray" stroke="none" points="133.25,-197.88 133.25,-214.12 268.75,-214.12 268.75,-197.88 133.25,-197.88"/>
<text xml:space="preserve" text-anchor="start" x="134.25" y="-201.72" font-family="Arial" font-size="12.00">GovernmentOrganization</text>
<polygon fill="none" stroke="black" points="132.25,-196.88 132.25,-215.12 269.75,-215.12 269.75,-196.88 132.25,-196.88"/>
</a>
</g>
</g>
<!-- Invis -->
<!-- GovernmentOrganization&#45;&gt;Invis -->
<!-- JurisdictionalArea -->
<g id="node3" class="node">
<title>JurisdictionalArea</title>
<g id="a_node3"><a xlink:href="../JurisdictionalArea.md" xlink:title="&lt;TABLE&gt;">
<polygon fill="lightgray" stroke="none" points="17,-98.88 17,-115.12 115,-115.12 115,-98.88 17,-98.88"/>
<text xml:space="preserve" text-anchor="start" x="18" y="-102.72" font-family="Arial" font-size="12.00">JurisdictionalArea</text>
<polygon fill="none" stroke="black" points="16,-97.88 16,-116.12 116,-116.12 116,-97.88 16,-97.88"/>
</a>
</g>
</g>
<!-- GovernmentOrganization&#45;&gt;JurisdictionalArea -->
<g id="edge6" class="edge">
<title>GovernmentOrganization&#45;&gt;JurisdictionalArea</title>
<path fill="none" stroke="black" d="M155,-188.18C143.95,-183.15 132.53,-177.05 122.75,-170 108.7,-159.86 95.48,-145.79 85.33,-133.62"/>
<polygon fill="black" stroke="black" points="88.16,-131.55 79.16,-125.95 82.71,-135.94 88.16,-131.55"/>
<text xml:space="preserve" text-anchor="middle" x="150.88" y="-159.55" font-family="Arial" font-size="11.00"> jurisdiction </text>
<text xml:space="preserve" text-anchor="middle" x="150.88" y="-146.05" font-family="Arial" font-size="11.00"> «only» &#160;</text>
</g>
<!-- Program -->
<g id="node4" class="node">
<title>Program</title>
<g id="a_node4"><a xlink:href="../Program.md" xlink:title="&lt;TABLE&gt;">
<polygon fill="lightgray" stroke="none" points="54.12,-25.88 54.12,-42.12 101.88,-42.12 101.88,-25.88 54.12,-25.88"/>
<text xml:space="preserve" text-anchor="start" x="55.12" y="-29.73" font-family="Arial" font-size="12.00">Program</text>
<polygon fill="none" stroke="black" points="53.12,-24.88 53.12,-43.12 102.88,-43.12 102.88,-24.88 53.12,-24.88"/>
</a>
</g>
</g>
<!-- GovernmentOrganization&#45;&gt;Program -->
<g id="edge5" class="edge">
<title>GovernmentOrganization&#45;&gt;Program</title>
<path fill="none" stroke="black" d="M197.03,-188.12C193.52,-175.16 187.61,-157.15 179,-143 159.33,-110.66 128.82,-79.75 106.48,-59.35"/>
<polygon fill="black" stroke="black" points="108.97,-56.88 99.18,-52.81 104.29,-62.09 108.97,-56.88"/>
<text xml:space="preserve" text-anchor="middle" x="199.17" y="-110.05" font-family="Arial" font-size="11.00"> hasProgram </text>
<text xml:space="preserve" text-anchor="middle" x="199.17" y="-96.55" font-family="Arial" font-size="11.00"> «only» &#160;</text>
</g>
<!-- Organization -->
<g id="node5" class="node">
<title>Organization</title>
<g id="a_node5"><a xlink:href="../Organization.md" xlink:title="&lt;TABLE&gt;">
<polygon fill="lightgray" stroke="none" points="165.88,-270.88 165.88,-287.12 236.12,-287.12 236.12,-270.88 165.88,-270.88"/>
<text xml:space="preserve" text-anchor="start" x="166.88" y="-274.73" font-family="Arial" font-size="12.00">Organization</text>
<polygon fill="none" stroke="black" points="164.88,-269.88 164.88,-288.12 237.12,-288.12 237.12,-269.88 164.88,-269.88"/>
</a>
</g>
</g>
<!-- GovernmentOrganization&#45;&gt;Organization -->
<g id="edge1" class="edge">
<title>GovernmentOrganization&#45;&gt;Organization</title>
<path fill="none" stroke="black" d="M201,-223.71C201,-231.47 201,-240.92 201,-249.74"/>
<polygon fill="none" stroke="black" points="197.5,-249.66 201,-259.66 204.5,-249.66 197.5,-249.66"/>
</g>
<!-- Invis&#45;&gt;JurisdictionalArea -->
<!-- JurisdictionalArea&#45;&gt;Program -->
</g>
</svg>
