<?xml version="1.0" encoding="UTF-8" standalone="no"?>
<!DOCTYPE svg PUBLIC "-//W3C//DTD SVG 1.1//EN"
 "http://www.w3.org/Graphics/SVG/1.1/DTD/svg11.dtd">
<!-- Generated by graphviz version 14.0.2 (20251019.1705)
 -->
<!-- Pages: 1 -->
<svg width="236pt" height="232pt"
 viewBox="0.00 0.00 236.00 232.00" xmlns="http://www.w3.org/2000/svg" xmlns:xlink="http://www.w3.org/1999/xlink">
<g id="graph0" class="graph" transform="scale(1 1) rotate(0) translate(4 228)">
<polygon fill="white" stroke="none" points="-4,4 -4,-228 232.25,-228 232.25,4 -4,4"/>
<g id="clust2" class="cluster">
<title>cluster_associated</title>
</g>
<!-- NonProfitOrganization -->
<g id="node1" class="node">
<title>NonProfitOrganization</title>
<g id="a_node1"><a xlink:href="../NonProfitOrganization.md" xlink:title="&lt;TABLE&gt;">
<polygon fill="lightgray" stroke="none" points="106.75,-124.88 106.75,-141.12 227.25,-141.12 227.25,-124.88 106.75,-124.88"/>
<text xml:space="preserve" text-anchor="start" x="107.75" y="-128.72" font-family="Arial" font-size="12.00">NonProfitOrganization</text>
<polygon fill="none" stroke="black" points="105.75,-123.88 105.75,-142.12 228.25,-142.12 228.25,-123.88 105.75,-123.88"/>
</a>
</g>
</g>
<!-- Invis -->
<!-- NonProfitOrganization&#45;&gt;Invis -->
<!-- Program -->
<g id="node3" class="node">
<title>Program</title>
<g id="a_node3"><a xlink:href="../Program.md" xlink:title="&lt;TABLE&gt;">
<polygon fill="lightgray" stroke="none" points="19.12,-25.88 19.12,-42.12 66.88,-42.12 66.88,-25.88 19.12,-25.88"/>
<text xml:space="preserve" text-anchor="start" x="20.12" y="-29.73" font-family="Arial" font-size="12.00">Program</text>
<polygon fill="none" stroke="black" points="18.12,-24.88 18.12,-43.12 67.88,-43.12 67.88,-24.88 18.12,-24.88"/>
</a>
</g>
</g>
<!-- NonProfitOrganization&#45;&gt;Program -->
<g id="edge4" class="edge">
<title>NonProfitOrganization&#45;&gt;Program</title>
<path fill="none" stroke="black" d="M145.4,-115.1C125.49,-99.53 95.72,-76.24 73.41,-58.79"/>
<polygon fill="black" stroke="black" points="75.58,-56.04 65.54,-52.64 71.26,-61.55 75.58,-56.04"/>
<text xml:space="preserve" text-anchor="middle" x="152.38" y="-86.55" font-family="Arial" font-size="11.00"> hasProgram </text>
<text xml:space="preserve" text-anchor="middle" x="152.38" y="-73.05" font-family="Arial" font-size="11.00"> «only» &#160;</text>
</g>
<!-- Organization -->
<g id="node4" class="node">
<title>Organization</title>
<g id="a_node4"><a xlink:href="../Organization.md" xlink:title="&lt;TABLE&gt;">
<polygon fill="lightgray" stroke="none" points="131.88,-197.88 131.88,-214.12 202.12,-214.12 202.12,-197.88 131.88,-197.88"/>
<text xml:space="preserve" text-anchor="start" x="132.88" y="-201.72" font-family="Arial" font-size="12.00">Organization</text>
<polygon fill="none" stroke="black" points="130.88,-196.88 130.88,-215.12 203.12,-215.12 203.12,-196.88 130.88,-196.88"/>
</a>
</g>
</g>
<!-- NonProfitOrganization&#45;&gt;Organization -->
<g id="edge1" class="edge">
<title>NonProfitOrganization&#45;&gt;Organization</title>
<path fill="none" stroke="black" d="M167,-150.71C167,-158.47 167,-167.92 167,-176.74"/>
<polygon fill="none" stroke="black" points="163.5,-176.66 167,-186.66 170.5,-176.66 163.5,-176.66"/>
</g>
<!-- Invis&#45;&gt;Program -->
</g>
</svg>
