<?xml version="1.0" encoding="UTF-8" standalone="no"?>
<!DOCTYPE svg PUBLIC "-//W3C//DTD SVG 1.1//EN"
 "http://www.w3.org/Graphics/SVG/1.1/DTD/svg11.dtd">
<!-- Generated by graphviz version 14.0.2 (20251019.1705)
 -->
<!-- Pages: 1 -->
<svg width="356pt" height="477pt"
 viewBox="0.00 0.00 356.00 477.00" xmlns="http://www.w3.org/2000/svg" xmlns:xlink="http://www.w3.org/1999/xlink">
<g id="graph0" class="graph" transform="scale(1 1) rotate(0) translate(4 473)">
<polygon fill="white" stroke="none" points="-4,4 -4,-473 351.75,-473 351.75,4 -4,4"/>
<g id="clust2" class="cluster">
<title>cluster_associated</title>
</g>
<!-- Organization -->
<g id="node1" class="node">
<title>Organization</title>
<g id="a_node1"><a xlink:href="../Organization.md" xlink:title="&lt;TABLE&gt;">
<polygon fill="lightgray" stroke="none" points="114.88,-369.88 114.88,-386.12 185.12,-386.12 185.12,-369.88 114.88,-369.88"/>
<text xml:space="preserve" text-anchor="start" x="115.88" y="-373.73" font-family="Arial" font-size="12.00">Organization</text>
<polygon fill="none" stroke="black" points="113.88,-368.88 113.88,-387.12 186.12,-387.12 186.12,-368.88 113.88,-368.88"/>
</a>
</g>
</g>
<!-- Invis -->
<!-- Organization&#45;&gt;Invis -->
<!-- Address -->
<g id="node3" class="node">
<title>Address</title>
<g id="a_node3"><a xlink:href="../Address.md" xlink:title="&lt;TABLE&gt;">
<polygon fill="lightgray" stroke="none" points="19.88,-270.88 19.88,-287.12 66.12,-287.12 66.12,-270.88 19.88,-270.88"/>
<text xml:space="preserve" text-anchor="start" x="20.88" y="-274.73" font-family="Arial" font-size="12.00">Address</text>
<polygon fill="none" stroke="black" points="18.88,-269.88 18.88,-288.12 67.12,-288.12 67.12,-269.88 18.88,-269.88"/>
</a>
</g>
</g>
<!-- Organization&#45;&gt;Address -->
<g id="edge11" class="edge">
<title>Organization&#45;&gt;Address</title>
<path fill="none" stroke="black" d="M113.89,-361.4C112.58,-360.91 111.28,-360.45 110,-360 81.49,-350.07 63.09,-365.79 44.5,-342 37.17,-332.62 35.89,-319.77 36.8,-308.21"/>
<polygon fill="black" stroke="black" points="40.27,-308.7 38.18,-298.31 33.34,-307.74 40.27,-308.7"/>
<text xml:space="preserve" text-anchor="middle" x="75.25" y="-331.55" font-family="Arial" font-size="11.00"> orgAddress </text>
<text xml:space="preserve" text-anchor="middle" x="75.25" y="-318.05" font-family="Arial" font-size="11.00"> «only» &#160;</text>
</g>
<!-- Goal -->
<g id="node4" class="node">
<title>Goal</title>
<g id="a_node4"><a xlink:href="../Goal.md" xlink:title="&lt;TABLE&gt;">
<polygon fill="lightgray" stroke="none" points="50.25,-171.88 50.25,-188.12 77.75,-188.12 77.75,-171.88 50.25,-171.88"/>
<text xml:space="preserve" text-anchor="start" x="51.25" y="-175.72" font-family="Arial" font-size="12.00">Goal</text>
<polygon fill="none" stroke="black" points="49.25,-170.88 49.25,-189.12 78.75,-189.12 78.75,-170.88 49.25,-170.88"/>
</a>
</g>
</g>
<!-- Organization&#45;&gt;Goal -->
<g id="edge9" class="edge">
<title>Organization&#45;&gt;Goal</title>
<path fill="none" stroke="black" d="M142.67,-360.29C127.82,-326.45 94.08,-249.56 75.99,-208.33"/>
<polygon fill="black" stroke="black" points="79.27,-207.08 72.04,-199.33 72.86,-209.9 79.27,-207.08"/>
<text xml:space="preserve" text-anchor="middle" x="137.01" y="-282.05" font-family="Arial" font-size="11.00"> hasGoal </text>
<text xml:space="preserve" text-anchor="middle" x="137.01" y="-268.55" font-family="Arial" font-size="11.00"> «only» &#160;</text>
</g>
<!-- Operation -->
<g id="node5" class="node">
<title>Operation</title>
<g id="a_node5"><a xlink:href="../Operation.md" xlink:title="&lt;TABLE&gt;">
<polygon fill="lightgray" stroke="none" points="36.75,-98.88 36.75,-115.12 91.25,-115.12 91.25,-98.88 36.75,-98.88"/>
<text xml:space="preserve" text-anchor="start" x="37.75" y="-102.72" font-family="Arial" font-size="12.00">Operation</text>
<polygon fill="none" stroke="black" points="35.75,-97.88 35.75,-116.12 92.25,-116.12 92.25,-97.88 35.75,-97.88"/>
</a>
</g>
</g>
<!-- Organization&#45;&gt;Operation -->
<g id="edge10" class="edge">
<title>Organization&#45;&gt;Operation</title>
<path fill="none" stroke="black" d="M156.21,-360.13C163.7,-337.23 174.1,-295.24 164,-261 149.17,-210.74 111.86,-161.66 87.25,-133.15"/>
<polygon fill="black" stroke="black" points="89.99,-130.96 80.75,-125.78 84.74,-135.59 89.99,-130.96"/>
<text xml:space="preserve" text-anchor="middle" x="197.57" y="-232.55" font-family="Arial" font-size="11.00"> operatingHours </text>
<text xml:space="preserve" text-anchor="middle" x="197.57" y="-219.05" font-family="Arial" font-size="11.00"> «only» &#160;</text>
</g>
<!-- PhoneNumber -->
<g id="node6" class="node">
<title>PhoneNumber</title>
<g id="a_node6"><a xlink:href="../PhoneNumber.md" xlink:title="&lt;TABLE&gt;">
<polygon fill="lightgray" stroke="none" points="17,-25.88 17,-42.12 97,-42.12 97,-25.88 17,-25.88"/>
<text xml:space="preserve" text-anchor="start" x="18" y="-29.73" font-family="Arial" font-size="12.00">PhoneNumber</text>
<polygon fill="none" stroke="black" points="16,-24.88 16,-43.12 98,-43.12 98,-24.88 16,-24.88"/>
</a>
</g>
</g>
<!-- Organization&#45;&gt;PhoneNumber -->
<g id="edge8" class="edge">
<title>Organization&#45;&gt;PhoneNumber</title>
<path fill="none" stroke="black" d="M185.82,-366.25C222.76,-352.68 275,-325.46 275,-280 275,-280 275,-280 275,-106 275,-71.22 173.41,-50.84 108.93,-41.4"/>
<polygon fill="black" stroke="black" points="109.64,-37.97 99.25,-40.04 108.66,-44.9 109.64,-37.97"/>
<text xml:space="preserve" text-anchor="middle" x="311.38" y="-183.05" font-family="Arial" font-size="11.00"> hasTelephone </text>
<text xml:space="preserve" text-anchor="middle" x="311.38" y="-169.55" font-family="Arial" font-size="11.00"> «only» &#160;</text>
</g>
<!-- cdm1_Organization -->
<g id="node7" class="node">
<title>cdm1_Organization</title>
<polygon fill="lightgray" stroke="none" points="44.75,-442.88 44.75,-459.12 147.25,-459.12 147.25,-442.88 44.75,-442.88"/>
<text xml:space="preserve" text-anchor="start" x="45.75" y="-446.73" font-family="Arial" font-size="12.00">cdm1:Organization</text>
<polygon fill="none" stroke="black" points="43.75,-441.88 43.75,-460.12 148.25,-460.12 148.25,-441.88 43.75,-441.88"/>
</g>
<!-- Organization&#45;&gt;cdm1_Organization -->
<g id="edge1" class="edge">
<title>Organization&#45;&gt;cdm1_Organization</title>
<path fill="none" stroke="black" d="M137.29,-395.71C130.85,-404.17 122.89,-414.65 115.67,-424.13"/>
<polygon fill="none" stroke="black" points="112.98,-421.89 109.71,-431.97 118.55,-426.13 112.98,-421.89"/>
</g>
<!-- CityOrgThing -->
<g id="node8" class="node">
<title>CityOrgThing</title>
<g id="a_node8"><a xlink:href="../CityOrgThing.md" xlink:title="&lt;TABLE&gt;">
<polygon fill="lightgray" stroke="none" points="167.38,-442.88 167.38,-459.12 240.62,-459.12 240.62,-442.88 167.38,-442.88"/>
<text xml:space="preserve" text-anchor="start" x="168.38" y="-446.73" font-family="Arial" font-size="12.00">CityOrgThing</text>
<polygon fill="none" stroke="black" points="166.38,-441.88 166.38,-460.12 241.62,-460.12 241.62,-441.88 166.38,-441.88"/>
</a>
</g>
</g>
<!-- Organization&#45;&gt;CityOrgThing -->
<g id="edge2" class="edge">
<title>Organization&#45;&gt;CityOrgThing</title>
<path fill="none" stroke="black" d="M162.71,-395.71C169.15,-404.17 177.11,-414.65 184.33,-424.13"/>
<polygon fill="none" stroke="black" points="181.45,-426.13 190.29,-431.97 187.02,-421.89 181.45,-426.13"/>
</g>
<!-- Invis&#45;&gt;Address -->
<!-- Address&#45;&gt;Goal -->
<!-- Goal&#45;&gt;Operation -->
<!-- Operation&#45;&gt;PhoneNumber -->
</g>
</svg>
