<?xml version="1.0" encoding="UTF-8" standalone="no"?>
<!DOCTYPE svg PUBLIC "-//W3C//DTD SVG 1.1//EN"
 "http://www.w3.org/Graphics/SVG/1.1/DTD/svg11.dtd">
<!-- Generated by graphviz version 14.0.2 (20251019.1705)
 -->
<!-- Pages: 1 -->
<svg width="280pt" height="404pt"
 viewBox="0.00 0.00 280.00 404.00" xmlns="http://www.w3.org/2000/svg" xmlns:xlink="http://www.w3.org/1999/xlink">
<g id="graph0" class="graph" transform="scale(1 1) rotate(0) translate(4 400)">
<polygon fill="white" stroke="none" points="-4,4 -4,-400 276,-400 276,4 -4,4"/>
<g id="clust2" class="cluster">
<title>cluster_associated</title>
</g>
<!-- PersonId -->
<g id="node1" class="node">
<title>PersonId</title>
<g id="a_node1"><a xlink:href="../PersonId.md" xlink:title="&lt;TABLE&gt;">
<polygon fill="lightgray" stroke="none" points="107,-305 107,-321.25 271,-321.25 271,-305 107,-305"/>
<text xml:space="preserve" text-anchor="start" x="165" y="-308.85" font-family="Arial" font-size="12.00">PersonId</text>
<text xml:space="preserve" text-anchor="start" x="108" y="-292.6" font-family="Arial" font-size="12.00">«max 1» photoID: xsd:boolean</text>
<polygon fill="black" stroke="black" points="106,-305 106,-305 272,-305 272,-305 106,-305"/>
<polygon fill="none" stroke="black" points="106,-287.75 106,-322.25 272,-322.25 272,-287.75 106,-287.75"/>
</a>
</g>
</g>
<!-- Invis -->
<!-- PersonId&#45;&gt;Invis -->
<!-- cdm1_Agent -->
<g id="node3" class="node">
<title>cdm1_Agent</title>
<polygon fill="lightgray" stroke="none" points="17.12,-197.88 17.12,-214.12 82.88,-214.12 82.88,-197.88 17.12,-197.88"/>
<text xml:space="preserve" text-anchor="start" x="18.12" y="-201.72" font-family="Arial" font-size="12.00">cdm1:Agent</text>
<polygon fill="none" stroke="black" points="16.12,-196.88 16.12,-215.12 83.88,-215.12 83.88,-196.88 16.12,-196.88"/>
</g>
<!-- PersonId&#45;&gt;cdm1_Agent -->
<g id="edge7" class="edge">
<title>PersonId&#45;&gt;cdm1_Agent</title>
<path fill="none" stroke="black" d="M106.02,-288.32C86.15,-283.01 68.66,-276.5 61.75,-269 53.4,-259.94 50.11,-246.87 49.06,-235.06"/>
<polygon fill="black" stroke="black" points="52.57,-235.25 48.7,-225.38 45.58,-235.51 52.57,-235.25"/>
<text xml:space="preserve" text-anchor="middle" x="86.88" y="-258.55" font-family="Arial" font-size="11.00"> issuedBy </text>
<text xml:space="preserve" text-anchor="middle" x="86.88" y="-245.05" font-family="Arial" font-size="11.00"> «max 1» &#160;</text>
</g>
<!-- IDType -->
<g id="node4" class="node">
<title>IDType</title>
<g id="a_node4"><a xlink:href="../IDType.md" xlink:title="&lt;TABLE&gt;">
<polygon fill="lightgray" stroke="none" points="29.88,-98.88 29.88,-115.12 70.12,-115.12 70.12,-98.88 29.88,-98.88"/>
<text xml:space="preserve" text-anchor="start" x="30.88" y="-102.72" font-family="Arial" font-size="12.00">IDType</text>
<polygon fill="none" stroke="black" points="28.88,-97.88 28.88,-116.12 71.12,-116.12 71.12,-97.88 28.88,-97.88"/>
</a>
</g>
</g>
<!-- PersonId&#45;&gt;IDType -->
<g id="edge6" class="edge">
<title>PersonId&#45;&gt;IDType</title>
<path fill="none" stroke="black" d="M177.15,-287.29C152.95,-253.17 97.69,-175.25 68.64,-134.28"/>
<polygon fill="black" stroke="black" points="71.53,-132.31 62.89,-126.18 65.82,-136.36 71.53,-132.31"/>
<text xml:space="preserve" text-anchor="middle" x="159.91" y="-209.05" font-family="Arial" font-size="11.00"> hasIDType </text>
<text xml:space="preserve" text-anchor="middle" x="159.91" y="-195.55" font-family="Arial" font-size="11.00"> «only» &#160;</text>
</g>
<!-- time_Interval -->
<g id="node5" class="node">
<title>time_Interval</title>
<polygon fill="lightgray" stroke="none" points="16.75,-25.88 16.75,-42.12 83.25,-42.12 83.25,-25.88 16.75,-25.88"/>
<text xml:space="preserve" text-anchor="start" x="17.75" y="-29.73" font-family="Arial" font-size="12.00">time:Interval</text>
<polygon fill="none" stroke="black" points="15.75,-24.88 15.75,-43.12 84.25,-43.12 84.25,-24.88 15.75,-24.88"/>
</g>
<!-- PersonId&#45;&gt;time_Interval -->
<g id="edge8" class="edge">
<title>PersonId&#45;&gt;time_Interval</title>
<path fill="none" stroke="black" d="M193.65,-287.16C199.17,-263.93 206.09,-221.18 193,-188 171.13,-132.58 118.67,-85.42 83.74,-58.66"/>
<polygon fill="black" stroke="black" points="86.14,-56.08 76.04,-52.89 81.95,-61.68 86.14,-56.08"/>
<text xml:space="preserve" text-anchor="middle" x="218.75" y="-159.55" font-family="Arial" font-size="11.00"> validityPeriod </text>
<text xml:space="preserve" text-anchor="middle" x="218.75" y="-146.05" font-family="Arial" font-size="11.00"> «max 1» &#160;</text>
</g>
<!-- PersonThing -->
<g id="node6" class="node">
<title>PersonThing</title>
<g id="a_node6"><a xlink:href="../PersonThing.md" xlink:title="&lt;TABLE&gt;">
<polygon fill="lightgray" stroke="none" points="153.5,-369.88 153.5,-386.12 224.5,-386.12 224.5,-369.88 153.5,-369.88"/>
<text xml:space="preserve" text-anchor="start" x="154.5" y="-373.73" font-family="Arial" font-size="12.00">PersonThing</text>
<polygon fill="none" stroke="black" points="152.5,-368.88 152.5,-387.12 225.5,-387.12 225.5,-368.88 152.5,-368.88"/>
</a>
</g>
</g>
<!-- PersonId&#45;&gt;PersonThing -->
<g id="edge1" class="edge">
<title>PersonId&#45;&gt;PersonThing</title>
<path fill="none" stroke="black" d="M189,-322.71C189,-330.47 189,-339.92 189,-348.74"/>
<polygon fill="none" stroke="black" points="185.5,-348.66 189,-358.66 192.5,-348.66 185.5,-348.66"/>
</g>
<!-- Invis&#45;&gt;cdm1_Agent -->
<!-- cdm1_Agent&#45;&gt;IDType -->
<!-- IDType&#45;&gt;time_Interval -->
</g>
</svg>
