<?xml version="1.0" encoding="UTF-8" standalone="no"?>
<!DOCTYPE svg PUBLIC "-//W3C//DTD SVG 1.1//EN"
 "http://www.w3.org/Graphics/SVG/1.1/DTD/svg11.dtd">
<!-- Generated by graphviz version 14.0.2 (20251019.1705)
 -->
<!-- Pages: 1 -->
<svg width="430pt" height="477pt"
 viewBox="0.00 0.00 430.00 477.00" xmlns="http://www.w3.org/2000/svg" xmlns:xlink="http://www.w3.org/1999/xlink">
<g id="graph0" class="graph" transform="scale(1 1) rotate(0) translate(4 473)">
<polygon fill="white" stroke="none" points="-4,4 -4,-473 425.75,-473 425.75,4 -4,4"/>
<g id="clust2" class="cluster">
<title>cluster_associated</title>
</g>
<!-- Residence -->
<g id="node1" class="node">
<title>Residence</title>
<g id="a_node1"><a xlink:href="../Residence.md" xlink:title="&lt;TABLE&gt;">
<polygon fill="lightgray" stroke="none" points="165.12,-369.88 165.12,-386.12 224.88,-386.12 224.88,-369.88 165.12,-369.88"/>
<text xml:space="preserve" text-anchor="start" x="166.12" y="-373.73" font-family="Arial" font-size="12.00">Residence</text>
<polygon fill="none" stroke="black" points="164.12,-368.88 164.12,-387.12 225.88,-387.12 225.88,-368.88 164.12,-368.88"/>
</a>
</g>
</g>
<!-- Invis -->
<!-- Residence&#45;&gt;Invis -->
<!-- Address -->
<g id="node3" class="node">
<title>Address</title>
<g id="a_node3"><a xlink:href="../Address.md" xlink:title="&lt;TABLE&gt;">
<polygon fill="lightgray" stroke="none" points="25.88,-270.88 25.88,-287.12 72.12,-287.12 72.12,-270.88 25.88,-270.88"/>
<text xml:space="preserve" text-anchor="start" x="26.88" y="-274.73" font-family="Arial" font-size="12.00">Address</text>
<polygon fill="none" stroke="black" points="24.88,-269.88 24.88,-288.12 73.12,-288.12 73.12,-269.88 24.88,-269.88"/>
</a>
</g>
</g>
<!-- Residence&#45;&gt;Address -->
<g id="edge10" class="edge">
<title>Residence&#45;&gt;Address</title>
<path fill="none" stroke="black" d="M164.28,-361.48C162.85,-360.95 161.42,-360.45 160,-360 136.39,-352.51 66.19,-360.75 50,-342 42.08,-332.83 40.93,-319.75 42.13,-307.96"/>
<polygon fill="black" stroke="black" points="45.55,-308.73 43.7,-298.29 38.64,-307.6 45.55,-308.73"/>
<text xml:space="preserve" text-anchor="middle" x="81.5" y="-331.55" font-family="Arial" font-size="11.00"> hasAddress </text>
<text xml:space="preserve" text-anchor="middle" x="81.5" y="-318.05" font-family="Arial" font-size="11.00"> «max 1» &#160;</text>
</g>
<!-- City -->
<g id="node4" class="node">
<title>City</title>
<g id="a_node4"><a xlink:href="../City.md" xlink:title="&lt;TABLE&gt;">
<polygon fill="lightgray" stroke="none" points="88.5,-171.88 88.5,-188.12 111.5,-188.12 111.5,-171.88 88.5,-171.88"/>
<text xml:space="preserve" text-anchor="start" x="89.5" y="-175.72" font-family="Arial" font-size="12.00">City</text>
<polygon fill="none" stroke="black" points="87.5,-170.88 87.5,-189.12 112.5,-189.12 112.5,-170.88 87.5,-170.88"/>
</a>
</g>
</g>
<!-- Residence&#45;&gt;City -->
<g id="edge8" class="edge">
<title>Residence&#45;&gt;City</title>
<path fill="none" stroke="black" d="M177.85,-360.08C163.32,-344.84 142.96,-321.17 130.75,-297 116.52,-268.84 108.37,-233.41 104.08,-209.16"/>
<polygon fill="black" stroke="black" points="107.55,-208.71 102.47,-199.41 100.65,-209.85 107.55,-208.71"/>
<text xml:space="preserve" text-anchor="middle" x="155.88" y="-282.05" font-family="Arial" font-size="11.00"> forCity </text>
<text xml:space="preserve" text-anchor="middle" x="155.88" y="-268.55" font-family="Arial" font-size="11.00"> «max 1» &#160;</text>
</g>
<!-- HomeType -->
<g id="node5" class="node">
<title>HomeType</title>
<g id="a_node5"><a xlink:href="../HomeType.md" xlink:title="&lt;TABLE&gt;">
<polygon fill="lightgray" stroke="none" points="69.75,-98.88 69.75,-115.12 130.25,-115.12 130.25,-98.88 69.75,-98.88"/>
<text xml:space="preserve" text-anchor="start" x="70.75" y="-102.72" font-family="Arial" font-size="12.00">HomeType</text>
<polygon fill="none" stroke="black" points="68.75,-97.88 68.75,-116.12 131.25,-116.12 131.25,-97.88 68.75,-97.88"/>
</a>
</g>
</g>
<!-- Residence&#45;&gt;HomeType -->
<g id="edge9" class="edge">
<title>Residence&#45;&gt;HomeType</title>
<path fill="none" stroke="black" d="M194.58,-360.17C193.64,-337.31 190.64,-295.38 181,-261 167.95,-214.46 159.48,-204.24 136,-162 130.75,-152.55 124.38,-142.61 118.47,-133.86"/>
<polygon fill="black" stroke="black" points="121.49,-132.08 112.93,-125.83 115.73,-136.05 121.49,-132.08"/>
<text xml:space="preserve" text-anchor="middle" x="213.39" y="-232.55" font-family="Arial" font-size="11.00"> hasHomeType </text>
<text xml:space="preserve" text-anchor="middle" x="213.39" y="-219.05" font-family="Arial" font-size="11.00"> «max 1» &#160;</text>
</g>
<!-- ResidentialRelationship -->
<g id="node6" class="node">
<title>ResidentialRelationship</title>
<g id="a_node6"><a xlink:href="../ResidentialRelationship.md" xlink:title="&lt;TABLE&gt;">
<polygon fill="lightgray" stroke="none" points="16.88,-25.88 16.88,-42.12 147.12,-42.12 147.12,-25.88 16.88,-25.88"/>
<text xml:space="preserve" text-anchor="start" x="17.88" y="-29.73" font-family="Arial" font-size="12.00">ResidentialRelationship</text>
<polygon fill="none" stroke="black" points="15.88,-24.88 15.88,-43.12 148.12,-43.12 148.12,-24.88 15.88,-24.88"/>
</a>
</g>
</g>
<!-- Residence&#45;&gt;ResidentialRelationship -->
<g id="edge7" class="edge">
<title>Residence&#45;&gt;ResidentialRelationship</title>
<path fill="none" stroke="black" d="M225.81,-360.65C252.21,-344.16 286,-316.02 286,-280 286,-280 286,-280 286,-106 286,-78.04 216.76,-58.56 158.96,-47.17"/>
<polygon fill="black" stroke="black" points="159.92,-43.79 149.44,-45.35 158.6,-50.66 159.92,-43.79"/>
<text xml:space="preserve" text-anchor="middle" x="353.88" y="-183.05" font-family="Arial" font-size="11.00"> hasResidentialRelationship </text>
<text xml:space="preserve" text-anchor="middle" x="353.88" y="-169.55" font-family="Arial" font-size="11.00"> «exactly 1» &#160;</text>
</g>
<!-- CityResidentThing -->
<g id="node7" class="node">
<title>CityResidentThing</title>
<g id="a_node7"><a xlink:href="../CityResidentThing.md" xlink:title="&lt;TABLE&gt;">
<polygon fill="lightgray" stroke="none" points="144.12,-442.88 144.12,-459.12 245.88,-459.12 245.88,-442.88 144.12,-442.88"/>
<text xml:space="preserve" text-anchor="start" x="145.12" y="-446.73" font-family="Arial" font-size="12.00">CityResidentThing</text>
<polygon fill="none" stroke="black" points="143.12,-441.88 143.12,-460.12 246.88,-460.12 246.88,-441.88 143.12,-441.88"/>
</a>
</g>
</g>
<!-- Residence&#45;&gt;CityResidentThing -->
<g id="edge1" class="edge">
<title>Residence&#45;&gt;CityResidentThing</title>
<path fill="none" stroke="black" d="M195,-395.71C195,-403.47 195,-412.92 195,-421.74"/>
<polygon fill="none" stroke="black" points="191.5,-421.66 195,-431.66 198.5,-421.66 191.5,-421.66"/>
</g>
<!-- Invis&#45;&gt;Address -->
<!-- Address&#45;&gt;City -->
<!-- City&#45;&gt;HomeType -->
<!-- HomeType&#45;&gt;ResidentialRelationship -->
</g>
</svg>
