<?xml version="1.0" encoding="UTF-8" standalone="no"?>
<!DOCTYPE svg PUBLIC "-//W3C//DTD SVG 1.1//EN"
 "http://www.w3.org/Graphics/SVG/1.1/DTD/svg11.dtd">
<!-- Generated by graphviz version 14.0.2 (20251019.1705)
 -->
<!-- Pages: 1 -->
<svg width="217pt" height="232pt"
 viewBox="0.00 0.00 217.00 232.00" xmlns="http://www.w3.org/2000/svg" xmlns:xlink="http://www.w3.org/1999/xlink">
<g id="graph0" class="graph" transform="scale(1 1) rotate(0) translate(4 228)">
<polygon fill="white" stroke="none" points="-4,4 -4,-228 212.88,-228 212.88,4 -4,4"/>
<g id="clust2" class="cluster">
<title>cluster_associated</title>
</g>
<!-- RoadNetworkType -->
<g id="node1" class="node">
<title>RoadNetworkType</title>
<g id="a_node1"><a xlink:href="../RoadNetworkType.md" xlink:title="&lt;TABLE&gt;">
<polygon fill="lightgray" stroke="none" points="106.12,-124.88 106.12,-141.12 207.88,-141.12 207.88,-124.88 106.12,-124.88"/>
<text xml:space="preserve" text-anchor="start" x="107.12" y="-128.72" font-family="Arial" font-size="12.00">RoadNetworkType</text>
<polygon fill="none" stroke="black" points="105.12,-123.88 105.12,-142.12 208.88,-142.12 208.88,-123.88 105.12,-123.88"/>
</a>
</g>
</g>
<!-- Invis -->
<!-- RoadNetworkType&#45;&gt;Invis -->
<!-- Code -->
<g id="node3" class="node">
<title>Code</title>
<g id="a_node3"><a xlink:href="../Code.md" xlink:title="&lt;TABLE&gt;">
<polygon fill="lightgray" stroke="none" points="27.38,-25.88 27.38,-42.12 58.62,-42.12 58.62,-25.88 27.38,-25.88"/>
<text xml:space="preserve" text-anchor="start" x="28.38" y="-29.73" font-family="Arial" font-size="12.00">Code</text>
<polygon fill="none" stroke="black" points="26.38,-24.88 26.38,-43.12 59.62,-43.12 59.62,-24.88 26.38,-24.88"/>
</a>
</g>
</g>
<!-- RoadNetworkType&#45;&gt;Code -->
<g id="edge4" class="edge">
<title>RoadNetworkType&#45;&gt;Code</title>
<path fill="none" stroke="black" d="M137.14,-115.1C118.92,-99.6 91.71,-76.45 71.23,-59.02"/>
<polygon fill="black" stroke="black" points="73.67,-56.5 63.78,-52.68 69.13,-61.83 73.67,-56.5"/>
<text xml:space="preserve" text-anchor="middle" x="138.31" y="-86.55" font-family="Arial" font-size="11.00"> hasCode </text>
<text xml:space="preserve" text-anchor="middle" x="138.31" y="-73.05" font-family="Arial" font-size="11.00"> «only» &#160;</text>
</g>
<!-- InfrastructureThing -->
<g id="node4" class="node">
<title>InfrastructureThing</title>
<g id="a_node4"><a xlink:href="../InfrastructureThing.md" xlink:title="&lt;TABLE&gt;">
<polygon fill="lightgray" stroke="none" points="106.12,-197.88 106.12,-214.12 207.88,-214.12 207.88,-197.88 106.12,-197.88"/>
<text xml:space="preserve" text-anchor="start" x="107.12" y="-201.72" font-family="Arial" font-size="12.00">InfrastructureThing</text>
<polygon fill="none" stroke="black" points="105.12,-196.88 105.12,-215.12 208.88,-215.12 208.88,-196.88 105.12,-196.88"/>
</a>
</g>
</g>
<!-- RoadNetworkType&#45;&gt;InfrastructureThing -->
<g id="edge1" class="edge">
<title>RoadNetworkType&#45;&gt;InfrastructureThing</title>
<path fill="none" stroke="black" d="M157,-150.71C157,-158.47 157,-167.92 157,-176.74"/>
<polygon fill="none" stroke="black" points="153.5,-176.66 157,-186.66 160.5,-176.66 153.5,-176.66"/>
</g>
<!-- Invis&#45;&gt;Code -->
</g>
</svg>
