<?xml version="1.0" encoding="UTF-8" standalone="no"?>
<!DOCTYPE svg PUBLIC "-//W3C//DTD SVG 1.1//EN"
 "http://www.w3.org/Graphics/SVG/1.1/DTD/svg11.dtd">
<!-- Generated by graphviz version 14.0.2 (20251019.1705)
 -->
<!-- Pages: 1 -->
<svg width="248pt" height="132pt"
 viewBox="0.00 0.00 248.00 132.00" xmlns="http://www.w3.org/2000/svg" xmlns:xlink="http://www.w3.org/1999/xlink">
<g id="graph0" class="graph" transform="scale(1 1) rotate(0) translate(4 128)">
<polygon fill="white" stroke="none" points="-4,4 -4,-128 243.5,-128 243.5,4 -4,4"/>
<g id="clust2" class="cluster">
<title>cluster_associated</title>
</g>
<!-- Year -->
<g id="node1" class="node">
<title>Year</title>
<g id="a_node1"><a xlink:href="../Year.md" xlink:title="&lt;TABLE&gt;">
<polygon fill="lightgray" stroke="none" points="90.5,-25.88 90.5,-42.12 116.5,-42.12 116.5,-25.88 90.5,-25.88"/>
<text xml:space="preserve" text-anchor="start" x="91.5" y="-29.73" font-family="Arial" font-size="12.00">Year</text>
<polygon fill="none" stroke="black" points="89.5,-24.88 89.5,-43.12 117.5,-43.12 117.5,-24.88 89.5,-24.88"/>
</a>
</g>
</g>
<!-- BuildingThing -->
<g id="node3" class="node">
<title>BuildingThing</title>
<g id="a_node3"><a xlink:href="../BuildingThing.md" xlink:title="&lt;TABLE&gt;">
<polygon fill="lightgray" stroke="none" points="1,-97.88 1,-114.12 78,-114.12 78,-97.88 1,-97.88"/>
<text xml:space="preserve" text-anchor="start" x="2" y="-101.72" font-family="Arial" font-size="12.00">BuildingThing</text>
<polygon fill="none" stroke="black" points="0,-96.88 0,-115.12 79,-115.12 79,-96.88 0,-96.88"/>
</a>
</g>
</g>
<!-- Year&#45;&gt;BuildingThing -->
<g id="edge1" class="edge">
<title>Year&#45;&gt;BuildingThing</title>
<path fill="none" stroke="black" d="M88.15,-51.79C80.55,-60.11 71.2,-70.32 62.75,-79.58"/>
<polygon fill="none" stroke="black" points="60.18,-77.2 56.01,-86.94 65.34,-81.92 60.18,-77.2"/>
</g>
<!-- time_DateTimeDescription -->
<g id="node4" class="node">
<title>time_DateTimeDescription</title>
<polygon fill="lightgray" stroke="none" points="98.5,-97.88 98.5,-114.12 238.5,-114.12 238.5,-97.88 98.5,-97.88"/>
<text xml:space="preserve" text-anchor="start" x="99.5" y="-101.72" font-family="Arial" font-size="12.00">time:DateTimeDescription</text>
<polygon fill="none" stroke="black" points="97.5,-96.88 97.5,-115.12 239.5,-115.12 239.5,-96.88 97.5,-96.88"/>
</g>
<!-- Year&#45;&gt;time_DateTimeDescription -->
<g id="edge2" class="edge">
<title>Year&#45;&gt;time_DateTimeDescription</title>
<path fill="none" stroke="black" d="M119.09,-51.79C126.89,-60.19 136.5,-70.53 145.16,-79.86"/>
<polygon fill="none" stroke="black" points="142.37,-82 151.74,-86.95 147.5,-77.24 142.37,-82"/>
</g>
<!-- Invis -->
</g>
</svg>
