<?xml version="1.0" encoding="UTF-8" standalone="no"?>
<!DOCTYPE svg PUBLIC "-//W3C//DTD SVG 1.1//EN"
 "http://www.w3.org/Graphics/SVG/1.1/DTD/svg11.dtd">
<!-- Generated by graphviz version 14.0.2 (20251019.1705)
 -->
<!-- Pages: 1 -->
<svg width="189pt" height="232pt"
 viewBox="0.00 0.00 189.00 232.00" xmlns="http://www.w3.org/2000/svg" xmlns:xlink="http://www.w3.org/1999/xlink">
<g id="graph0" class="graph" transform="scale(1 1) rotate(0) translate(4 228)">
<polygon fill="white" stroke="none" points="-4,4 -4,-228 184.5,-228 184.5,4 -4,4"/>
<g id="clust2" class="cluster">
<title>cluster_associated</title>
</g>
<!-- BuildingUse -->
<g id="node1" class="node">
<title>BuildingUse</title>
<g id="a_node1"><a xlink:href="../BuildingUse.md" xlink:title="&lt;TABLE&gt;">
<polygon fill="lightgray" stroke="none" points="107,-124.88 107,-141.12 175,-141.12 175,-124.88 107,-124.88"/>
<text xml:space="preserve" text-anchor="start" x="108" y="-128.72" font-family="Arial" font-size="12.00">BuildingUse</text>
<polygon fill="none" stroke="black" points="106,-123.88 106,-142.12 176,-142.12 176,-123.88 106,-123.88"/>
</a>
</g>
</g>
<!-- Invis -->
<!-- BuildingUse&#45;&gt;Invis -->
<!-- Code -->
<g id="node3" class="node">
<title>Code</title>
<g id="a_node3"><a xlink:href="../Code.md" xlink:title="&lt;TABLE&gt;">
<polygon fill="lightgray" stroke="none" points="27.38,-25.88 27.38,-42.12 58.62,-42.12 58.62,-25.88 27.38,-25.88"/>
<text xml:space="preserve" text-anchor="start" x="28.38" y="-29.73" font-family="Arial" font-size="12.00">Code</text>
<polygon fill="none" stroke="black" points="26.38,-24.88 26.38,-43.12 59.62,-43.12 59.62,-24.88 26.38,-24.88"/>
</a>
</g>
</g>
<!-- BuildingUse&#45;&gt;Code -->
<g id="edge4" class="edge">
<title>BuildingUse&#45;&gt;Code</title>
<path fill="none" stroke="black" d="M123.93,-115.1C108.47,-99.8 85.51,-77.07 67.98,-59.73"/>
<polygon fill="black" stroke="black" points="70.52,-57.31 60.95,-52.77 65.6,-62.29 70.52,-57.31"/>
<text xml:space="preserve" text-anchor="middle" x="128.41" y="-86.55" font-family="Arial" font-size="11.00"> hasCode </text>
<text xml:space="preserve" text-anchor="middle" x="128.41" y="-73.05" font-family="Arial" font-size="11.00"> «only» &#160;</text>
</g>
<!-- BuildingThing -->
<g id="node4" class="node">
<title>BuildingThing</title>
<g id="a_node4"><a xlink:href="../BuildingThing.md" xlink:title="&lt;TABLE&gt;">
<polygon fill="lightgray" stroke="none" points="102.5,-197.88 102.5,-214.12 179.5,-214.12 179.5,-197.88 102.5,-197.88"/>
<text xml:space="preserve" text-anchor="start" x="103.5" y="-201.72" font-family="Arial" font-size="12.00">BuildingThing</text>
<polygon fill="none" stroke="black" points="101.5,-196.88 101.5,-215.12 180.5,-215.12 180.5,-196.88 101.5,-196.88"/>
</a>
</g>
</g>
<!-- BuildingUse&#45;&gt;BuildingThing -->
<g id="edge1" class="edge">
<title>BuildingUse&#45;&gt;BuildingThing</title>
<path fill="none" stroke="black" d="M141,-150.71C141,-158.47 141,-167.92 141,-176.74"/>
<polygon fill="none" stroke="black" points="137.5,-176.66 141,-186.66 144.5,-176.66 137.5,-176.66"/>
</g>
<!-- Invis&#45;&gt;Code -->
</g>
</svg>
