<?xml version="1.0" encoding="UTF-8" standalone="no"?>
<!DOCTYPE svg PUBLIC "-//W3C//DTD SVG 1.1//EN"
 "http://www.w3.org/Graphics/SVG/1.1/DTD/svg11.dtd">
<!-- Generated by graphviz version 14.0.2 (20251019.1705)
 -->
<!-- Pages: 1 -->
<svg width="178pt" height="232pt"
 viewBox="0.00 0.00 178.00 232.00" xmlns="http://www.w3.org/2000/svg" xmlns:xlink="http://www.w3.org/1999/xlink">
<g id="graph0" class="graph" transform="scale(1 1) rotate(0) translate(4 228)">
<polygon fill="white" stroke="none" points="-4,4 -4,-228 173.5,-228 173.5,4 -4,4"/>
<g id="clust2" class="cluster">
<title>cluster_associated</title>
</g>
<!-- IDType -->
<g id="node1" class="node">
<title>IDType</title>
<g id="a_node1"><a xlink:href="../IDType.md" xlink:title="&lt;TABLE&gt;">
<polygon fill="lightgray" stroke="none" points="112.88,-124.88 112.88,-141.12 153.12,-141.12 153.12,-124.88 112.88,-124.88"/>
<text xml:space="preserve" text-anchor="start" x="113.88" y="-128.72" font-family="Arial" font-size="12.00">IDType</text>
<polygon fill="none" stroke="black" points="111.88,-123.88 111.88,-142.12 154.12,-142.12 154.12,-123.88 111.88,-123.88"/>
</a>
</g>
</g>
<!-- Invis -->
<!-- IDType&#45;&gt;Invis -->
<!-- Code -->
<g id="node3" class="node">
<title>Code</title>
<g id="a_node3"><a xlink:href="../Code.md" xlink:title="&lt;TABLE&gt;">
<polygon fill="lightgray" stroke="none" points="27.38,-25.88 27.38,-42.12 58.62,-42.12 58.62,-25.88 27.38,-25.88"/>
<text xml:space="preserve" text-anchor="start" x="28.38" y="-29.73" font-family="Arial" font-size="12.00">Code</text>
<polygon fill="none" stroke="black" points="26.38,-24.88 26.38,-43.12 59.62,-43.12 59.62,-24.88 26.38,-24.88"/>
</a>
</g>
</g>
<!-- IDType&#45;&gt;Code -->
<g id="edge4" class="edge">
<title>IDType&#45;&gt;Code</title>
<path fill="none" stroke="black" d="M117.32,-115.1C103.13,-99.8 82.04,-77.07 65.94,-59.73"/>
<polygon fill="black" stroke="black" points="68.89,-57.76 59.53,-52.81 63.76,-62.52 68.89,-57.76"/>
<text xml:space="preserve" text-anchor="middle" x="123.46" y="-86.55" font-family="Arial" font-size="11.00"> hasCode </text>
<text xml:space="preserve" text-anchor="middle" x="123.46" y="-73.05" font-family="Arial" font-size="11.00"> «only» &#160;</text>
</g>
<!-- PersonThing -->
<g id="node4" class="node">
<title>PersonThing</title>
<g id="a_node4"><a xlink:href="../PersonThing.md" xlink:title="&lt;TABLE&gt;">
<polygon fill="lightgray" stroke="none" points="97.5,-197.88 97.5,-214.12 168.5,-214.12 168.5,-197.88 97.5,-197.88"/>
<text xml:space="preserve" text-anchor="start" x="98.5" y="-201.72" font-family="Arial" font-size="12.00">PersonThing</text>
<polygon fill="none" stroke="black" points="96.5,-196.88 96.5,-215.12 169.5,-215.12 169.5,-196.88 96.5,-196.88"/>
</a>
</g>
</g>
<!-- IDType&#45;&gt;PersonThing -->
<g id="edge1" class="edge">
<title>IDType&#45;&gt;PersonThing</title>
<path fill="none" stroke="black" d="M133,-150.71C133,-158.47 133,-167.92 133,-176.74"/>
<polygon fill="none" stroke="black" points="129.5,-176.66 133,-186.66 136.5,-176.66 129.5,-176.66"/>
</g>
<!-- Invis&#45;&gt;Code -->
</g>
</svg>
