<?xml version="1.0" encoding="UTF-8" standalone="no"?>
<!DOCTYPE svg PUBLIC "-//W3C//DTD SVG 1.1//EN"
 "http://www.w3.org/Graphics/SVG/1.1/DTD/svg11.dtd">
<!-- Generated by graphviz version 14.0.2 (20251019.1705)
 -->
<!-- Pages: 1 -->
<svg width="205pt" height="232pt"
 viewBox="0.00 0.00 205.00 232.00" xmlns="http://www.w3.org/2000/svg" xmlns:xlink="http://www.w3.org/1999/xlink">
<g id="graph0" class="graph" transform="scale(1 1) rotate(0) translate(4 228)">
<polygon fill="white" stroke="none" points="-4,4 -4,-228 201.12,-228 201.12,4 -4,4"/>
<g id="clust2" class="cluster">
<title>cluster_associated</title>
</g>
<!-- ImpactDirection -->
<g id="node1" class="node">
<title>ImpactDirection</title>
<g id="a_node1"><a xlink:href="../ImpactDirection.md" xlink:title="&lt;TABLE&gt;">
<polygon fill="lightgray" stroke="none" points="106.38,-124.88 106.38,-141.12 191.62,-141.12 191.62,-124.88 106.38,-124.88"/>
<text xml:space="preserve" text-anchor="start" x="107.38" y="-128.72" font-family="Arial" font-size="12.00">ImpactDirection</text>
<polygon fill="none" stroke="black" points="105.38,-123.88 105.38,-142.12 192.62,-142.12 192.62,-123.88 105.38,-123.88"/>
</a>
</g>
</g>
<!-- Invis -->
<!-- ImpactDirection&#45;&gt;Invis -->
<!-- Code -->
<g id="node3" class="node">
<title>Code</title>
<g id="a_node3"><a xlink:href="../Code.md" xlink:title="&lt;TABLE&gt;">
<polygon fill="lightgray" stroke="none" points="27.38,-25.88 27.38,-42.12 58.62,-42.12 58.62,-25.88 27.38,-25.88"/>
<text xml:space="preserve" text-anchor="start" x="28.38" y="-29.73" font-family="Arial" font-size="12.00">Code</text>
<polygon fill="none" stroke="black" points="26.38,-24.88 26.38,-43.12 59.62,-43.12 59.62,-24.88 26.38,-24.88"/>
</a>
</g>
</g>
<!-- ImpactDirection&#45;&gt;Code -->
<g id="edge4" class="edge">
<title>ImpactDirection&#45;&gt;Code</title>
<path fill="none" stroke="black" d="M130.54,-115.1C113.66,-99.66 88.52,-76.66 69.51,-59.26"/>
<polygon fill="black" stroke="black" points="72.11,-56.89 62.37,-52.72 67.38,-62.06 72.11,-56.89"/>
<text xml:space="preserve" text-anchor="middle" x="133.36" y="-86.55" font-family="Arial" font-size="11.00"> hasCode </text>
<text xml:space="preserve" text-anchor="middle" x="133.36" y="-73.05" font-family="Arial" font-size="11.00"> «only» &#160;</text>
</g>
<!-- CityServiceThing -->
<g id="node4" class="node">
<title>CityServiceThing</title>
<g id="a_node4"><a xlink:href="../CityServiceThing.md" xlink:title="&lt;TABLE&gt;">
<polygon fill="lightgray" stroke="none" points="101.88,-197.88 101.88,-214.12 196.12,-214.12 196.12,-197.88 101.88,-197.88"/>
<text xml:space="preserve" text-anchor="start" x="102.88" y="-201.72" font-family="Arial" font-size="12.00">CityServiceThing</text>
<polygon fill="none" stroke="black" points="100.88,-196.88 100.88,-215.12 197.12,-215.12 197.12,-196.88 100.88,-196.88"/>
</a>
</g>
</g>
<!-- ImpactDirection&#45;&gt;CityServiceThing -->
<g id="edge1" class="edge">
<title>ImpactDirection&#45;&gt;CityServiceThing</title>
<path fill="none" stroke="black" d="M149,-150.71C149,-158.47 149,-167.92 149,-176.74"/>
<polygon fill="none" stroke="black" points="145.5,-176.66 149,-186.66 152.5,-176.66 145.5,-176.66"/>
</g>
<!-- Invis&#45;&gt;Code -->
</g>
</svg>
