<?xml version="1.0" encoding="UTF-8" standalone="no"?>
<!DOCTYPE svg PUBLIC "-//W3C//DTD SVG 1.1//EN"
 "http://www.w3.org/Graphics/SVG/1.1/DTD/svg11.dtd">
<!-- Generated by graphviz version 14.0.2 (20251019.1705)
 -->
<!-- Pages: 1 -->
<svg width="238pt" height="232pt"
 viewBox="0.00 0.00 238.00 232.00" xmlns="http://www.w3.org/2000/svg" xmlns:xlink="http://www.w3.org/1999/xlink">
<g id="graph0" class="graph" transform="scale(1 1) rotate(0) translate(4 228)">
<polygon fill="white" stroke="none" points="-4,4 -4,-228 234.38,-228 234.38,4 -4,4"/>
<g id="clust2" class="cluster">
<title>cluster_associated</title>
</g>
<!-- LandUseClassification -->
<g id="node1" class="node">
<title>LandUseClassification</title>
<g id="a_node1"><a xlink:href="../LandUseClassification.md" xlink:title="&lt;TABLE&gt;">
<polygon fill="lightgray" stroke="none" points="106.62,-124.88 106.62,-141.12 229.38,-141.12 229.38,-124.88 106.62,-124.88"/>
<text xml:space="preserve" text-anchor="start" x="107.62" y="-128.72" font-family="Arial" font-size="12.00">LandUseClassification</text>
<polygon fill="none" stroke="black" points="105.62,-123.88 105.62,-142.12 230.38,-142.12 230.38,-123.88 105.62,-123.88"/>
</a>
</g>
</g>
<!-- Invis -->
<!-- LandUseClassification&#45;&gt;Invis -->
<!-- Code -->
<g id="node3" class="node">
<title>Code</title>
<g id="a_node3"><a xlink:href="../Code.md" xlink:title="&lt;TABLE&gt;">
<polygon fill="lightgray" stroke="none" points="27.38,-25.88 27.38,-42.12 58.62,-42.12 58.62,-25.88 27.38,-25.88"/>
<text xml:space="preserve" text-anchor="start" x="28.38" y="-29.73" font-family="Arial" font-size="12.00">Code</text>
<polygon fill="none" stroke="black" points="26.38,-24.88 26.38,-43.12 59.62,-43.12 59.62,-24.88 26.38,-24.88"/>
</a>
</g>
</g>
<!-- LandUseClassification&#45;&gt;Code -->
<g id="edge4" class="edge">
<title>LandUseClassification&#45;&gt;Code</title>
<path fill="none" stroke="black" d="M146.23,-115.1C126.06,-99.46 95.88,-76.03 73.35,-58.55"/>
<polygon fill="black" stroke="black" points="75.77,-56 65.72,-52.63 71.47,-61.53 75.77,-56"/>
<text xml:space="preserve" text-anchor="middle" x="145.12" y="-86.55" font-family="Arial" font-size="11.00"> hasCode </text>
<text xml:space="preserve" text-anchor="middle" x="145.12" y="-73.05" font-family="Arial" font-size="11.00"> «only» &#160;</text>
</g>
<!-- LandUseThing -->
<g id="node4" class="node">
<title>LandUseThing</title>
<g id="a_node4"><a xlink:href="../LandUseThing.md" xlink:title="&lt;TABLE&gt;">
<polygon fill="lightgray" stroke="none" points="127.25,-197.88 127.25,-214.12 208.75,-214.12 208.75,-197.88 127.25,-197.88"/>
<text xml:space="preserve" text-anchor="start" x="128.25" y="-201.72" font-family="Arial" font-size="12.00">LandUseThing</text>
<polygon fill="none" stroke="black" points="126.25,-196.88 126.25,-215.12 209.75,-215.12 209.75,-196.88 126.25,-196.88"/>
</a>
</g>
</g>
<!-- LandUseClassification&#45;&gt;LandUseThing -->
<g id="edge1" class="edge">
<title>LandUseClassification&#45;&gt;LandUseThing</title>
<path fill="none" stroke="black" d="M168,-150.71C168,-158.47 168,-167.92 168,-176.74"/>
<polygon fill="none" stroke="black" points="164.5,-176.66 168,-186.66 171.5,-176.66 164.5,-176.66"/>
</g>
<!-- Invis&#45;&gt;Code -->
</g>
</svg>
