<?xml version="1.0" encoding="UTF-8" standalone="no"?>
<!DOCTYPE svg PUBLIC "-//W3C//DTD SVG 1.1//EN"
 "http://www.w3.org/Graphics/SVG/1.1/DTD/svg11.dtd">
<!-- Generated by graphviz version 14.0.2 (20251019.1705)
 -->
<!-- Pages: 1 -->
<svg width="280pt" height="148pt"
 viewBox="0.00 0.00 280.00 148.00" xmlns="http://www.w3.org/2000/svg" xmlns:xlink="http://www.w3.org/1999/xlink">
<g id="graph0" class="graph" transform="scale(1 1) rotate(0) translate(4 143.5)">
<polygon fill="white" stroke="none" points="-4,4 -4,-143.5 276.38,-143.5 276.38,4 -4,4"/>
<g id="clust2" class="cluster">
<title>cluster_associated</title>
</g>
<!-- PersonName -->
<g id="node1" class="node">
<title>PersonName</title>
<g id="a_node1"><a xlink:href="../PersonName.md" xlink:title="&lt;TABLE&gt;">
<polygon fill="lightgray" stroke="none" points="1,-50.25 1,-66.5 183.75,-66.5 183.75,-50.25 1,-50.25"/>
<text xml:space="preserve" text-anchor="start" x="57.12" y="-54.1" font-family="Arial" font-size="12.00">PersonName</text>
<text xml:space="preserve" text-anchor="start" x="2" y="-37.85" font-family="Arial" font-size="12.00">«only» additionalName: xsd:string</text>
<text xml:space="preserve" text-anchor="start" x="2" y="-21.6" font-family="Arial" font-size="12.00">«only» givenName: xsd:string</text>
<text xml:space="preserve" text-anchor="start" x="2" y="-5.35" font-family="Arial" font-size="12.00">«max 1» familyName: xsd:string</text>
<polygon fill="black" stroke="black" points="0,-50.25 0,-50.25 184.75,-50.25 184.75,-50.25 0,-50.25"/>
<polygon fill="none" stroke="black" points="0,-0.5 0,-67.5 184.75,-67.5 184.75,-0.5 0,-0.5"/>
</a>
</g>
</g>
<!-- Name -->
<g id="node3" class="node">
<title>Name</title>
<g id="a_node3"><a xlink:href="../Name.md" xlink:title="&lt;TABLE&gt;">
<polygon fill="lightgray" stroke="none" points="34.25,-113.38 34.25,-129.62 68.5,-129.62 68.5,-113.38 34.25,-113.38"/>
<text xml:space="preserve" text-anchor="start" x="35.25" y="-117.22" font-family="Arial" font-size="12.00">Name</text>
<polygon fill="none" stroke="black" points="33.25,-112.38 33.25,-130.62 69.5,-130.62 69.5,-112.38 33.25,-112.38"/>
</a>
</g>
</g>
<!-- PersonName&#45;&gt;Name -->
<g id="edge1" class="edge">
<title>PersonName&#45;&gt;Name</title>
<path fill="none" stroke="black" d="M76.82,-67.43C72.71,-76 68.32,-85.16 64.37,-93.41"/>
<polygon fill="none" stroke="black" points="61.3,-91.71 60.13,-102.24 67.61,-94.74 61.3,-91.71"/>
</g>
<!-- PersonThing -->
<g id="node4" class="node">
<title>PersonThing</title>
<g id="a_node4"><a xlink:href="../PersonThing.md" xlink:title="&lt;TABLE&gt;">
<polygon fill="lightgray" stroke="none" points="97.88,-113.38 97.88,-129.62 168.88,-129.62 168.88,-113.38 97.88,-113.38"/>
<text xml:space="preserve" text-anchor="start" x="98.88" y="-117.22" font-family="Arial" font-size="12.00">PersonThing</text>
<polygon fill="none" stroke="black" points="96.88,-112.38 96.88,-130.62 169.88,-130.62 169.88,-112.38 96.88,-112.38"/>
</a>
</g>
</g>
<!-- PersonName&#45;&gt;PersonThing -->
<g id="edge2" class="edge">
<title>PersonName&#45;&gt;PersonThing</title>
<path fill="none" stroke="black" d="M107.93,-67.43C112.04,-76 116.43,-85.16 120.38,-93.41"/>
<polygon fill="none" stroke="black" points="117.14,-94.74 124.62,-102.24 123.45,-91.71 117.14,-94.74"/>
</g>
<!-- Invis -->
</g>
</svg>
