<?xml version="1.0" encoding="UTF-8" standalone="no"?>
<!DOCTYPE svg PUBLIC "-//W3C//DTD SVG 1.1//EN"
 "http://www.w3.org/Graphics/SVG/1.1/DTD/svg11.dtd">
<!-- Generated by graphviz version 14.0.2 (20251019.1705)
 -->
<!-- Pages: 1 -->
<svg width="448pt" height="305pt"
 viewBox="0.00 0.00 448.00 305.00" xmlns="http://www.w3.org/2000/svg" xmlns:xlink="http://www.w3.org/1999/xlink">
<g id="graph0" class="graph" transform="scale(1 1) rotate(0) translate(4 301)">
<polygon fill="white" stroke="none" points="-4,4 -4,-301 443.75,-301 443.75,4 -4,4"/>
<g id="clust2" class="cluster">
<title>cluster_associated</title>
</g>
<!-- http_//ontology.eil.utoronto.ca/5087/2/Person/Citizenship -->
<g id="node1" class="node">
<title>http_//ontology.eil.utoronto.ca/5087/2/Person/Citizenship</title>
<g id="a_node1"><a xlink:href="../classes/Person__http://ontology.eil.utoronto.ca/5087/2/Person/Citizenship.md" xlink:title="&lt;TABLE&gt;">
<polygon fill="lightgray" stroke="none" points="141.25,-197.88 141.25,-214.12 438.75,-214.12 438.75,-197.88 141.25,-197.88"/>
<text xml:space="preserve" text-anchor="start" x="142.25" y="-201.72" font-family="Arial" font-size="12.00">http://ontology.eil.utoronto.ca/5087/2/Person/Citizenship</text>
<polygon fill="none" stroke="black" points="140.25,-196.88 140.25,-215.12 439.75,-215.12 439.75,-196.88 140.25,-196.88"/>
</a>
</g>
</g>
<!-- PersonOntologyThing -->
<g id="node2" class="node">
<title>PersonOntologyThing</title>
<g id="a_node2"><a xlink:href="../_counters/Person__PersonOntologyThing.md" xlink:title="&lt;TABLE&gt;">
<polygon fill="lightgray" stroke="none" points="230.5,-270.88 230.5,-287.12 349.5,-287.12 349.5,-270.88 230.5,-270.88"/>
<text xml:space="preserve" text-anchor="start" x="231.5" y="-274.73" font-family="Arial" font-size="12.00">PersonOntologyThing</text>
<polygon fill="none" stroke="black" points="229.5,-269.88 229.5,-288.12 350.5,-288.12 350.5,-269.88 229.5,-269.88"/>
</a>
</g>
</g>
<!-- http_//ontology.eil.utoronto.ca/5087/2/Person/Citizenship&#45;&gt;PersonOntologyThing -->
<g id="edge1" class="edge">
<title>http_//ontology.eil.utoronto.ca/5087/2/Person/Citizenship&#45;&gt;PersonOntologyThing</title>
<path fill="none" stroke="black" d="M290,-223.71C290,-231.47 290,-240.92 290,-249.74"/>
<polygon fill="none" stroke="black" points="286.5,-249.66 290,-259.66 293.5,-249.66 286.5,-249.66"/>
</g>
<!-- Invis -->
<!-- http_//ontology.eil.utoronto.ca/5087/2/Person/Citizenship&#45;&gt;Invis -->
<!-- email__Country -->
<g id="node4" class="node">
<title>email__Country</title>
<polygon fill="lightgray" stroke="none" points="38.38,-98.88 38.38,-115.12 117.62,-115.12 117.62,-98.88 38.38,-98.88"/>
<text xml:space="preserve" text-anchor="start" x="39.38" y="-102.72" font-family="Arial" font-size="12.00">email::Country</text>
<polygon fill="none" stroke="black" points="37.38,-97.88 37.38,-116.12 118.62,-116.12 118.62,-97.88 37.38,-97.88"/>
</g>
<!-- http_//ontology.eil.utoronto.ca/5087/2/Person/Citizenship&#45;&gt;email__Country -->
<g id="edge5" class="edge">
<title>http_//ontology.eil.utoronto.ca/5087/2/Person/Citizenship&#45;&gt;email__Country</title>
<path fill="none" stroke="black" d="M236.15,-188.02C221.02,-182.75 204.69,-176.58 190,-170 164.26,-158.47 136.52,-143.14 115.08,-130.6"/>
<polygon fill="black" stroke="black" points="117.1,-127.73 106.71,-125.65 113.54,-133.76 117.1,-127.73"/>
<text xml:space="preserve" text-anchor="middle" x="218.5" y="-159.55" font-family="Arial" font-size="11.00"> forCountry </text>
<text xml:space="preserve" text-anchor="middle" x="218.5" y="-146.05" font-family="Arial" font-size="11.00"> «max 1» &#160;</text>
</g>
<!-- time__ProperInterval -->
<g id="node5" class="node">
<title>time__ProperInterval</title>
<polygon fill="lightgray" stroke="none" points="17.25,-25.88 17.25,-42.12 122.75,-42.12 122.75,-25.88 17.25,-25.88"/>
<text xml:space="preserve" text-anchor="start" x="18.25" y="-29.73" font-family="Arial" font-size="12.00">time::ProperInterval</text>
<polygon fill="none" stroke="black" points="16.25,-24.88 16.25,-43.12 123.75,-43.12 123.75,-24.88 16.25,-24.88"/>
</g>
<!-- http_//ontology.eil.utoronto.ca/5087/2/Person/Citizenship&#45;&gt;time__ProperInterval -->
<g id="edge6" class="edge">
<title>http_//ontology.eil.utoronto.ca/5087/2/Person/Citizenship&#45;&gt;time__ProperInterval</title>
<path fill="none" stroke="black" d="M280.87,-188.04C273.11,-174.69 261.01,-156.21 247,-143 208.34,-106.54 155.41,-76.22 117.52,-57.08"/>
<polygon fill="black" stroke="black" points="119.13,-53.97 108.62,-52.65 116.02,-60.24 119.13,-53.97"/>
<text xml:space="preserve" text-anchor="middle" x="260.63" y="-110.05" font-family="Arial" font-size="11.00"> validityPeriod </text>
<text xml:space="preserve" text-anchor="middle" x="260.63" y="-96.55" font-family="Arial" font-size="11.00"> «max 1» &#160;</text>
</g>
<!-- Invis&#45;&gt;email__Country -->
<!-- email__Country&#45;&gt;time__ProperInterval -->
</g>
</svg>
