<?xml version="1.0" encoding="UTF-8" standalone="no"?>
<!DOCTYPE svg PUBLIC "-//W3C//DTD SVG 1.1//EN"
 "http://www.w3.org/Graphics/SVG/1.1/DTD/svg11.dtd">
<!-- Generated by graphviz version 14.0.2 (20251019.1705)
 -->
<!-- Pages: 1 -->
<svg width="410pt" height="232pt"
 viewBox="0.00 0.00 410.00 232.00" xmlns="http://www.w3.org/2000/svg" xmlns:xlink="http://www.w3.org/1999/xlink">
<g id="graph0" class="graph" transform="scale(1 1) rotate(0) translate(4 228)">
<polygon fill="white" stroke="none" points="-4,4 -4,-228 405.75,-228 405.75,4 -4,4"/>
<g id="clust2" class="cluster">
<title>cluster_associated</title>
</g>
<!-- http_//ontology.eil.utoronto.ca/5087/2/Person/Education -->
<g id="node1" class="node">
<title>http_//ontology.eil.utoronto.ca/5087/2/Person/Education</title>
<g id="a_node1"><a xlink:href="../classes/Person__http://ontology.eil.utoronto.ca/5087/2/Person/Education.md" xlink:title="&lt;TABLE&gt;">
<polygon fill="lightgray" stroke="none" points="109.25,-124.88 109.25,-141.12 400.75,-141.12 400.75,-124.88 109.25,-124.88"/>
<text xml:space="preserve" text-anchor="start" x="110.25" y="-128.72" font-family="Arial" font-size="12.00">http://ontology.eil.utoronto.ca/5087/2/Person/Education</text>
<polygon fill="none" stroke="black" points="108.25,-123.88 108.25,-142.12 401.75,-142.12 401.75,-123.88 108.25,-123.88"/>
</a>
</g>
</g>
<!-- PersonOntologyThing -->
<g id="node2" class="node">
<title>PersonOntologyThing</title>
<g id="a_node2"><a xlink:href="../_counters/Person__PersonOntologyThing.md" xlink:title="&lt;TABLE&gt;">
<polygon fill="lightgray" stroke="none" points="195.5,-197.88 195.5,-214.12 314.5,-214.12 314.5,-197.88 195.5,-197.88"/>
<text xml:space="preserve" text-anchor="start" x="196.5" y="-201.72" font-family="Arial" font-size="12.00">PersonOntologyThing</text>
<polygon fill="none" stroke="black" points="194.5,-196.88 194.5,-215.12 315.5,-215.12 315.5,-196.88 194.5,-196.88"/>
</a>
</g>
</g>
<!-- http_//ontology.eil.utoronto.ca/5087/2/Person/Education&#45;&gt;PersonOntologyThing -->
<g id="edge1" class="edge">
<title>http_//ontology.eil.utoronto.ca/5087/2/Person/Education&#45;&gt;PersonOntologyThing</title>
<path fill="none" stroke="black" d="M255,-150.71C255,-158.47 255,-167.92 255,-176.74"/>
<polygon fill="none" stroke="black" points="251.5,-176.66 255,-186.66 258.5,-176.66 251.5,-176.66"/>
</g>
<!-- Invis -->
<!-- http_//ontology.eil.utoronto.ca/5087/2/Person/Education&#45;&gt;Invis -->
<!-- code__Code -->
<g id="node4" class="node">
<title>code__Code</title>
<polygon fill="lightgray" stroke="none" points="17.25,-25.88 17.25,-42.12 80.75,-42.12 80.75,-25.88 17.25,-25.88"/>
<text xml:space="preserve" text-anchor="start" x="18.25" y="-29.73" font-family="Arial" font-size="12.00">code::Code</text>
<polygon fill="none" stroke="black" points="16.25,-24.88 16.25,-43.12 81.75,-43.12 81.75,-24.88 16.25,-24.88"/>
</g>
<!-- http_//ontology.eil.utoronto.ca/5087/2/Person/Education&#45;&gt;code__Code -->
<g id="edge4" class="edge">
<title>http_//ontology.eil.utoronto.ca/5087/2/Person/Education&#45;&gt;code__Code</title>
<path fill="none" stroke="black" d="M219.12,-115.1C183.61,-98.38 129.25,-72.79 91.58,-55.05"/>
<polygon fill="black" stroke="black" points="93.33,-52 82.79,-50.91 90.35,-58.34 93.33,-52"/>
<text xml:space="preserve" text-anchor="middle" x="215.88" y="-86.55" font-family="Arial" font-size="11.00"> code::hasCode </text>
<text xml:space="preserve" text-anchor="middle" x="215.88" y="-73.05" font-family="Arial" font-size="11.00"> «only» &#160;</text>
</g>
<!-- Invis&#45;&gt;code__Code -->
</g>
</svg>
