<?xml version="1.0" encoding="UTF-8" standalone="no"?>
<!DOCTYPE svg PUBLIC "-//W3C//DTD SVG 1.1//EN"
 "http://www.w3.org/Graphics/SVG/1.1/DTD/svg11.dtd">
<!-- Generated by graphviz version 14.0.2 (20251019.1705)
 -->
<!-- Pages: 1 -->
<svg width="396pt" height="232pt"
 viewBox="0.00 0.00 396.00 232.00" xmlns="http://www.w3.org/2000/svg" xmlns:xlink="http://www.w3.org/1999/xlink">
<g id="graph0" class="graph" transform="scale(1 1) rotate(0) translate(4 228)">
<polygon fill="white" stroke="none" points="-4,4 -4,-228 391.62,-228 391.62,4 -4,4"/>
<g id="clust2" class="cluster">
<title>cluster_associated</title>
</g>
<!-- http_//ontology.eil.utoronto.ca/5087/2/Person/Gender -->
<g id="node1" class="node">
<title>http_//ontology.eil.utoronto.ca/5087/2/Person/Gender</title>
<g id="a_node1"><a xlink:href="../classes/Person__http://ontology.eil.utoronto.ca/5087/2/Person/Gender.md" xlink:title="&lt;TABLE&gt;">
<polygon fill="lightgray" stroke="none" points="109.38,-124.88 109.38,-141.12 386.62,-141.12 386.62,-124.88 109.38,-124.88"/>
<text xml:space="preserve" text-anchor="start" x="110.38" y="-128.72" font-family="Arial" font-size="12.00">http://ontology.eil.utoronto.ca/5087/2/Person/Gender</text>
<polygon fill="none" stroke="black" points="108.38,-123.88 108.38,-142.12 387.62,-142.12 387.62,-123.88 108.38,-123.88"/>
</a>
</g>
</g>
<!-- PersonOntologyThing -->
<g id="node2" class="node">
<title>PersonOntologyThing</title>
<g id="a_node2"><a xlink:href="../_counters/Person__PersonOntologyThing.md" xlink:title="&lt;TABLE&gt;">
<polygon fill="lightgray" stroke="none" points="188.5,-197.88 188.5,-214.12 307.5,-214.12 307.5,-197.88 188.5,-197.88"/>
<text xml:space="preserve" text-anchor="start" x="189.5" y="-201.72" font-family="Arial" font-size="12.00">PersonOntologyThing</text>
<polygon fill="none" stroke="black" points="187.5,-196.88 187.5,-215.12 308.5,-215.12 308.5,-196.88 187.5,-196.88"/>
</a>
</g>
</g>
<!-- http_//ontology.eil.utoronto.ca/5087/2/Person/Gender&#45;&gt;PersonOntologyThing -->
<g id="edge1" class="edge">
<title>http_//ontology.eil.utoronto.ca/5087/2/Person/Gender&#45;&gt;PersonOntologyThing</title>
<path fill="none" stroke="black" d="M248,-150.71C248,-158.47 248,-167.92 248,-176.74"/>
<polygon fill="none" stroke="black" points="244.5,-176.66 248,-186.66 251.5,-176.66 244.5,-176.66"/>
</g>
<!-- Invis -->
<!-- http_//ontology.eil.utoronto.ca/5087/2/Person/Gender&#45;&gt;Invis -->
<!-- code__Code -->
<g id="node4" class="node">
<title>code__Code</title>
<polygon fill="lightgray" stroke="none" points="17.25,-25.88 17.25,-42.12 80.75,-42.12 80.75,-25.88 17.25,-25.88"/>
<text xml:space="preserve" text-anchor="start" x="18.25" y="-29.73" font-family="Arial" font-size="12.00">code::Code</text>
<polygon fill="none" stroke="black" points="16.25,-24.88 16.25,-43.12 81.75,-43.12 81.75,-24.88 16.25,-24.88"/>
</g>
<!-- http_//ontology.eil.utoronto.ca/5087/2/Person/Gender&#45;&gt;code__Code -->
<g id="edge4" class="edge">
<title>http_//ontology.eil.utoronto.ca/5087/2/Person/Gender&#45;&gt;code__Code</title>
<path fill="none" stroke="black" d="M213.34,-115.1C179.59,-98.65 128.21,-73.61 91.9,-55.91"/>
<polygon fill="black" stroke="black" points="93.5,-52.8 82.98,-51.56 90.43,-59.09 93.5,-52.8"/>
<text xml:space="preserve" text-anchor="middle" x="211.55" y="-86.55" font-family="Arial" font-size="11.00"> code::hasCode </text>
<text xml:space="preserve" text-anchor="middle" x="211.55" y="-73.05" font-family="Arial" font-size="11.00"> «only» &#160;</text>
</g>
<!-- Invis&#45;&gt;code__Code -->
</g>
</svg>
