<?xml version="1.0" encoding="UTF-8" standalone="no"?>
<!DOCTYPE svg PUBLIC "-//W3C//DTD SVG 1.1//EN"
 "http://www.w3.org/Graphics/SVG/1.1/DTD/svg11.dtd">
<!-- Generated by graphviz version 14.0.2 (20251019.1705)
 -->
<!-- Pages: 1 -->
<svg width="394pt" height="232pt"
 viewBox="0.00 0.00 394.00 232.00" xmlns="http://www.w3.org/2000/svg" xmlns:xlink="http://www.w3.org/1999/xlink">
<g id="graph0" class="graph" transform="scale(1 1) rotate(0) translate(4 228)">
<polygon fill="white" stroke="none" points="-4,4 -4,-228 389.88,-228 389.88,4 -4,4"/>
<g id="clust2" class="cluster">
<title>cluster_associated</title>
</g>
<!-- http_//ontology.eil.utoronto.ca/5087/2/Person/IDType -->
<g id="node1" class="node">
<title>http_//ontology.eil.utoronto.ca/5087/2/Person/IDType</title>
<g id="a_node1"><a xlink:href="../classes/Person__http://ontology.eil.utoronto.ca/5087/2/Person/IDType.md" xlink:title="&lt;TABLE&gt;">
<polygon fill="lightgray" stroke="none" points="109.12,-124.88 109.12,-141.12 384.88,-141.12 384.88,-124.88 109.12,-124.88"/>
<text xml:space="preserve" text-anchor="start" x="110.12" y="-128.72" font-family="Arial" font-size="12.00">http://ontology.eil.utoronto.ca/5087/2/Person/IDType</text>
<polygon fill="none" stroke="black" points="108.12,-123.88 108.12,-142.12 385.88,-142.12 385.88,-123.88 108.12,-123.88"/>
</a>
</g>
</g>
<!-- PersonOntologyThing -->
<g id="node2" class="node">
<title>PersonOntologyThing</title>
<g id="a_node2"><a xlink:href="../_counters/Person__PersonOntologyThing.md" xlink:title="&lt;TABLE&gt;">
<polygon fill="lightgray" stroke="none" points="187.5,-197.88 187.5,-214.12 306.5,-214.12 306.5,-197.88 187.5,-197.88"/>
<text xml:space="preserve" text-anchor="start" x="188.5" y="-201.72" font-family="Arial" font-size="12.00">PersonOntologyThing</text>
<polygon fill="none" stroke="black" points="186.5,-196.88 186.5,-215.12 307.5,-215.12 307.5,-196.88 186.5,-196.88"/>
</a>
</g>
</g>
<!-- http_//ontology.eil.utoronto.ca/5087/2/Person/IDType&#45;&gt;PersonOntologyThing -->
<g id="edge1" class="edge">
<title>http_//ontology.eil.utoronto.ca/5087/2/Person/IDType&#45;&gt;PersonOntologyThing</title>
<path fill="none" stroke="black" d="M247,-150.71C247,-158.47 247,-167.92 247,-176.74"/>
<polygon fill="none" stroke="black" points="243.5,-176.66 247,-186.66 250.5,-176.66 243.5,-176.66"/>
</g>
<!-- Invis -->
<!-- http_//ontology.eil.utoronto.ca/5087/2/Person/IDType&#45;&gt;Invis -->
<!-- code__Code -->
<g id="node4" class="node">
<title>code__Code</title>
<polygon fill="lightgray" stroke="none" points="17.25,-25.88 17.25,-42.12 80.75,-42.12 80.75,-25.88 17.25,-25.88"/>
<text xml:space="preserve" text-anchor="start" x="18.25" y="-29.73" font-family="Arial" font-size="12.00">code::Code</text>
<polygon fill="none" stroke="black" points="16.25,-24.88 16.25,-43.12 81.75,-43.12 81.75,-24.88 16.25,-24.88"/>
</g>
<!-- http_//ontology.eil.utoronto.ca/5087/2/Person/IDType&#45;&gt;code__Code -->
<g id="edge4" class="edge">
<title>http_//ontology.eil.utoronto.ca/5087/2/Person/IDType&#45;&gt;code__Code</title>
<path fill="none" stroke="black" d="M212.51,-115.1C178.93,-98.65 127.81,-73.61 91.68,-55.91"/>
<polygon fill="black" stroke="black" points="93.33,-52.82 82.81,-51.56 90.25,-59.11 93.33,-52.82"/>
<text xml:space="preserve" text-anchor="middle" x="210.93" y="-86.55" font-family="Arial" font-size="11.00"> code::hasCode </text>
<text xml:space="preserve" text-anchor="middle" x="210.93" y="-73.05" font-family="Arial" font-size="11.00"> «only» &#160;</text>
</g>
<!-- Invis&#45;&gt;code__Code -->
</g>
</svg>
