<?xml version="1.0" encoding="UTF-8" standalone="no"?>
<!DOCTYPE svg PUBLIC "-//W3C//DTD SVG 1.1//EN"
 "http://www.w3.org/Graphics/SVG/1.1/DTD/svg11.dtd">
<!-- Generated by graphviz version 14.0.2 (20251019.1705)
 -->
<!-- Pages: 1 -->
<svg width="406pt" height="148pt"
 viewBox="0.00 0.00 406.00 148.00" xmlns="http://www.w3.org/2000/svg" xmlns:xlink="http://www.w3.org/1999/xlink">
<g id="graph0" class="graph" transform="scale(1 1) rotate(0) translate(4 143.5)">
<polygon fill="white" stroke="none" points="-4,4 -4,-143.5 402,-143.5 402,4 -4,4"/>
<g id="clust2" class="cluster">
<title>cluster_associated</title>
</g>
<!-- http_//ontology.eil.utoronto.ca/5087/2/Person/PersonName -->
<g id="node1" class="node">
<title>http_//ontology.eil.utoronto.ca/5087/2/Person/PersonName</title>
<g id="a_node1"><a xlink:href="../classes/Person__http://ontology.eil.utoronto.ca/5087/2/Person/PersonName.md" xlink:title="&lt;TABLE&gt;">
<polygon fill="lightgray" stroke="none" points="1,-50.25 1,-66.5 309,-66.5 309,-50.25 1,-50.25"/>
<text xml:space="preserve" text-anchor="start" x="2" y="-54.1" font-family="Arial" font-size="12.00">http://ontology.eil.utoronto.ca/5087/2/Person/PersonName</text>
<text xml:space="preserve" text-anchor="start" x="2" y="-37.85" font-family="Arial" font-size="12.00">additionalName: xsd::string «only»</text>
<text xml:space="preserve" text-anchor="start" x="2" y="-21.6" font-family="Arial" font-size="12.00">familyName: xsd::string «max 1»</text>
<text xml:space="preserve" text-anchor="start" x="2" y="-5.35" font-family="Arial" font-size="12.00">givenName: xsd::string «only»</text>
<polygon fill="none" stroke="black" points="0,-0.5 0,-67.5 310,-67.5 310,-0.5 0,-0.5"/>
</a>
</g>
</g>
<!-- PersonOntologyThing -->
<g id="node2" class="node">
<title>PersonOntologyThing</title>
<g id="a_node2"><a xlink:href="../_counters/Person__PersonOntologyThing.md" xlink:title="&lt;TABLE&gt;">
<polygon fill="lightgray" stroke="none" points="95.5,-113.38 95.5,-129.62 214.5,-129.62 214.5,-113.38 95.5,-113.38"/>
<text xml:space="preserve" text-anchor="start" x="96.5" y="-117.22" font-family="Arial" font-size="12.00">PersonOntologyThing</text>
<polygon fill="none" stroke="black" points="94.5,-112.38 94.5,-130.62 215.5,-130.62 215.5,-112.38 94.5,-112.38"/>
</a>
</g>
</g>
<!-- http_//ontology.eil.utoronto.ca/5087/2/Person/PersonName&#45;&gt;PersonOntologyThing -->
<g id="edge1" class="edge">
<title>http_//ontology.eil.utoronto.ca/5087/2/Person/PersonName&#45;&gt;PersonOntologyThing</title>
<path fill="none" stroke="black" d="M155,-67.43C155,-75.62 155,-84.33 155,-92.29"/>
<polygon fill="none" stroke="black" points="151.5,-92.09 155,-102.09 158.5,-92.09 151.5,-92.09"/>
</g>
<!-- Invis -->
</g>
</svg>
