<?xml version="1.0" encoding="UTF-8" standalone="no"?>
<!DOCTYPE svg PUBLIC "-//W3C//DTD SVG 1.1//EN"
 "http://www.w3.org/Graphics/SVG/1.1/DTD/svg11.dtd">
<!-- Generated by graphviz version 14.0.2 (20251019.1705)
 -->
<!-- Pages: 1 -->
<svg width="1145pt" height="1264pt"
 viewBox="0.00 0.00 1145.00 1264.00" xmlns="http://www.w3.org/2000/svg" xmlns:xlink="http://www.w3.org/1999/xlink">
<g id="graph0" class="graph" transform="scale(1 1) rotate(0) translate(4 1260)">
<polygon fill="white" stroke="none" points="-4,4 -4,-1260 1141,-1260 1141,4 -4,4"/>
<g id="clust2" class="cluster">
<title>cluster_associated</title>
</g>
<!-- http_//ontology.eil.utoronto.ca/5087/2/Person/Person -->
<g id="node1" class="node">
<title>http_//ontology.eil.utoronto.ca/5087/2/Person/Person</title>
<g id="a_node1"><a xlink:href="../classes/Person__http://ontology.eil.utoronto.ca/5087/2/Person/Person.md" xlink:title="&lt;TABLE&gt;">
<polygon fill="lightgray" stroke="none" points="493.12,-1165 493.12,-1181.25 768.88,-1181.25 768.88,-1165 493.12,-1165"/>
<text xml:space="preserve" text-anchor="start" x="494.12" y="-1168.85" font-family="Arial" font-size="12.00">http://ontology.eil.utoronto.ca/5087/2/Person/Person</text>
<text xml:space="preserve" text-anchor="start" x="494.12" y="-1152.6" font-family="Arial" font-size="12.00">email::email: xsd::string «only»</text>
<polygon fill="none" stroke="black" points="492.12,-1147.75 492.12,-1182.25 769.88,-1182.25 769.88,-1147.75 492.12,-1147.75"/>
</a>
</g>
</g>
<!-- agent__Agent -->
<g id="node2" class="node">
<title>agent__Agent</title>
<polygon fill="lightgray" stroke="none" points="539.25,-1229.88 539.25,-1246.12 608.75,-1246.12 608.75,-1229.88 539.25,-1229.88"/>
<text xml:space="preserve" text-anchor="start" x="540.25" y="-1233.72" font-family="Arial" font-size="12.00">agent::Agent</text>
<polygon fill="none" stroke="black" points="538.25,-1228.88 538.25,-1247.12 609.75,-1247.12 609.75,-1228.88 538.25,-1228.88"/>
</g>
<!-- http_//ontology.eil.utoronto.ca/5087/2/Person/Person&#45;&gt;agent__Agent -->
<g id="edge1" class="edge">
<title>http_//ontology.eil.utoronto.ca/5087/2/Person/Person&#45;&gt;agent__Agent</title>
<path fill="none" stroke="black" d="M617.59,-1182.71C610.72,-1191.26 602.2,-1201.87 594.53,-1211.43"/>
<polygon fill="none" stroke="black" points="591.99,-1209 588.46,-1218.99 597.45,-1213.39 591.99,-1209"/>
</g>
<!-- PersonOntologyThing -->
<g id="node3" class="node">
<title>PersonOntologyThing</title>
<g id="a_node3"><a xlink:href="../_counters/Person__PersonOntologyThing.md" xlink:title="&lt;TABLE&gt;">
<polygon fill="lightgray" stroke="none" points="628.5,-1229.88 628.5,-1246.12 747.5,-1246.12 747.5,-1229.88 628.5,-1229.88"/>
<text xml:space="preserve" text-anchor="start" x="629.5" y="-1233.72" font-family="Arial" font-size="12.00">PersonOntologyThing</text>
<polygon fill="none" stroke="black" points="627.5,-1228.88 627.5,-1247.12 748.5,-1247.12 748.5,-1228.88 627.5,-1228.88"/>
</a>
</g>
</g>
<!-- http_//ontology.eil.utoronto.ca/5087/2/Person/Person&#45;&gt;PersonOntologyThing -->
<g id="edge2" class="edge">
<title>http_//ontology.eil.utoronto.ca/5087/2/Person/Person&#45;&gt;PersonOntologyThing</title>
<path fill="none" stroke="black" d="M644.41,-1182.71C651.28,-1191.26 659.8,-1201.87 667.47,-1211.43"/>
<polygon fill="none" stroke="black" points="664.55,-1213.39 673.54,-1218.99 670.01,-1209 664.55,-1213.39"/>
</g>
<!-- Invis -->
<!-- http_//ontology.eil.utoronto.ca/5087/2/Person/Person&#45;&gt;Invis -->
<!-- Citizenship -->
<g id="node5" class="node">
<title>Citizenship</title>
<g id="a_node5"><a xlink:href="../_counters/Person__Citizenship.md" xlink:title="&lt;TABLE&gt;">
<polygon fill="lightgray" stroke="none" points="33,-1057.88 33,-1074.12 95,-1074.12 95,-1057.88 33,-1057.88"/>
<text xml:space="preserve" text-anchor="start" x="34" y="-1061.72" font-family="Arial" font-size="12.00">Citizenship</text>
<polygon fill="none" stroke="black" points="32,-1056.88 32,-1075.12 96,-1075.12 96,-1056.88 32,-1056.88"/>
</a>
</g>
</g>
<!-- http_//ontology.eil.utoronto.ca/5087/2/Person/Person&#45;&gt;Citizenship -->
<g id="edge22" class="edge">
<title>http_//ontology.eil.utoronto.ca/5087/2/Person/Person&#45;&gt;Citizenship</title>
<path fill="none" stroke="black" d="M492.41,-1159.77C331.44,-1154.2 85.84,-1143.41 70.75,-1129 61.82,-1120.48 59.51,-1107.25 59.69,-1095.2"/>
<polygon fill="black" stroke="black" points="63.17,-1095.5 60.43,-1085.27 56.19,-1094.98 63.17,-1095.5"/>
<text xml:space="preserve" text-anchor="middle" x="94.38" y="-1118.55" font-family="Arial" font-size="11.00"> citizenOf </text>
<text xml:space="preserve" text-anchor="middle" x="94.38" y="-1105.05" font-family="Arial" font-size="11.00"> «only» &#160;</text>
</g>
<!-- CityUnits__MonetaryValue -->
<g id="node6" class="node">
<title>CityUnits__MonetaryValue</title>
<polygon fill="lightgray" stroke="none" points="16.88,-958.88 16.88,-975.12 153.12,-975.12 153.12,-958.88 16.88,-958.88"/>
<text xml:space="preserve" text-anchor="start" x="17.88" y="-962.73" font-family="Arial" font-size="12.00">CityUnits::MonetaryValue</text>
<polygon fill="none" stroke="black" points="15.88,-957.88 15.88,-976.12 154.12,-976.12 154.12,-957.88 15.88,-957.88"/>
</g>
<!-- http_//ontology.eil.utoronto.ca/5087/2/Person/Person&#45;&gt;CityUnits__MonetaryValue -->
<g id="edge27" class="edge">
<title>http_//ontology.eil.utoronto.ca/5087/2/Person/Person&#45;&gt;CityUnits__MonetaryValue</title>
<path fill="none" stroke="black" d="M492.15,-1164.16C382.26,-1162.25 238.96,-1154.64 187,-1129 133.89,-1102.8 105.18,-1034.53 92.72,-995.83"/>
<polygon fill="black" stroke="black" points="96.08,-994.84 89.81,-986.3 89.38,-996.88 96.08,-994.84"/>
<text xml:space="preserve" text-anchor="middle" x="154.99" y="-1069.05" font-family="Arial" font-size="11.00"> income </text>
<text xml:space="preserve" text-anchor="middle" x="154.99" y="-1055.55" font-family="Arial" font-size="11.00"> «only» &#160;</text>
</g>
<!-- Education -->
<g id="node7" class="node">
<title>Education</title>
<g id="a_node7"><a xlink:href="../_counters/Person__Education.md" xlink:title="&lt;TABLE&gt;">
<polygon fill="lightgray" stroke="none" points="66,-859.88 66,-876.12 122,-876.12 122,-859.88 66,-859.88"/>
<text xml:space="preserve" text-anchor="start" x="67" y="-863.73" font-family="Arial" font-size="12.00">Education</text>
<polygon fill="none" stroke="black" points="65,-858.88 65,-877.12 123,-877.12 123,-858.88 65,-858.88"/>
</a>
</g>
</g>
<!-- http_//ontology.eil.utoronto.ca/5087/2/Person/Person&#45;&gt;Education -->
<g id="edge23" class="edge">
<title>http_//ontology.eil.utoronto.ca/5087/2/Person/Person&#45;&gt;Education</title>
<path fill="none" stroke="black" d="M492.56,-1163C402.16,-1160.12 293.79,-1151.77 254,-1129 206.95,-1102.07 205.42,-1079.24 182.75,-1030 167.25,-996.34 179.96,-981.95 163,-949 152.4,-928.42 135.48,-908.68 121.05,-893.96"/>
<polygon fill="black" stroke="black" points="123.55,-891.52 113.98,-886.97 118.63,-896.49 123.55,-891.52"/>
<text xml:space="preserve" text-anchor="middle" x="218.38" y="-1019.55" font-family="Arial" font-size="11.00"> hasEducation </text>
<text xml:space="preserve" text-anchor="middle" x="218.38" y="-1006.05" font-family="Arial" font-size="11.00"> «only» &#160;</text>
</g>
<!-- email__Address -->
<g id="node8" class="node">
<title>email__Address</title>
<polygon fill="lightgray" stroke="none" points="53.25,-760.88 53.25,-777.12 134.75,-777.12 134.75,-760.88 53.25,-760.88"/>
<text xml:space="preserve" text-anchor="start" x="54.25" y="-764.73" font-family="Arial" font-size="12.00">email::Address</text>
<polygon fill="none" stroke="black" points="52.25,-759.88 52.25,-778.12 135.75,-778.12 135.75,-759.88 52.25,-759.88"/>
</g>
<!-- http_//ontology.eil.utoronto.ca/5087/2/Person/Person&#45;&gt;email__Address -->
<g id="edge18" class="edge">
<title>http_//ontology.eil.utoronto.ca/5087/2/Person/Person&#45;&gt;email__Address</title>
<path fill="none" stroke="black" d="M492.23,-1157.52C432.31,-1152.6 370.2,-1144 345,-1129 336.28,-1123.81 167.38,-877.37 111.66,-795.86"/>
<polygon fill="black" stroke="black" points="114.69,-794.09 106.16,-787.81 108.91,-798.04 114.69,-794.09"/>
<text xml:space="preserve" text-anchor="middle" x="288.76" y="-970.05" font-family="Arial" font-size="11.00"> email::hasAddress </text>
<text xml:space="preserve" text-anchor="middle" x="288.76" y="-956.55" font-family="Arial" font-size="11.00"> «only» &#160;</text>
</g>
<!-- http_//ontology.eil.utoronto.ca/5087/2/Person/Person&#45;&gt;email__Address -->
<g id="edge31" class="edge">
<title>http_//ontology.eil.utoronto.ca/5087/2/Person/Person&#45;&gt;email__Address</title>
<path fill="none" stroke="black" d="M492.31,-1148.69C472.22,-1143.83 452.21,-1137.42 434,-1129 394.75,-1110.84 359,-1110.25 359,-1067 359,-1067 359,-1067 359,-867 359,-822.23 223.94,-791.95 146.66,-778.28"/>
<polygon fill="black" stroke="black" points="147.64,-774.9 137.19,-776.64 146.45,-781.8 147.64,-774.9"/>
<text xml:space="preserve" text-anchor="middle" x="385.25" y="-970.05" font-family="Arial" font-size="11.00"> birthplace </text>
<text xml:space="preserve" text-anchor="middle" x="385.25" y="-956.55" font-family="Arial" font-size="11.00"> «max 1» &#160;</text>
</g>
<!-- http_//ontology.eil.utoronto.ca/5087/2/Person/Person&#45;&gt;email__Address -->
<g id="edge33" class="edge">
<title>http_//ontology.eil.utoronto.ca/5087/2/Person/Person&#45;&gt;email__Address</title>
<path fill="none" stroke="black" d="M552.69,-1147.07C541.65,-1142.42 531,-1136.51 522,-1129 389.88,-1018.73 469.14,-870.5 310,-805 257.16,-783.25 191.85,-774.98 146.96,-771.85"/>
<polygon fill="black" stroke="black" points="147.44,-768.38 137.24,-771.24 147,-775.36 147.44,-768.38"/>
<text xml:space="preserve" text-anchor="middle" x="465.52" y="-970.05" font-family="Arial" font-size="11.00"> deathPlace </text>
<text xml:space="preserve" text-anchor="middle" x="465.52" y="-956.55" font-family="Arial" font-size="11.00"> «max 1» &#160;</text>
</g>
<!-- email__PhoneNumber -->
<g id="node9" class="node">
<title>email__PhoneNumber</title>
<polygon fill="lightgray" stroke="none" points="37.38,-661.88 37.38,-678.12 152.62,-678.12 152.62,-661.88 37.38,-661.88"/>
<text xml:space="preserve" text-anchor="start" x="38.38" y="-665.73" font-family="Arial" font-size="12.00">email::PhoneNumber</text>
<polygon fill="none" stroke="black" points="36.38,-660.88 36.38,-679.12 153.62,-679.12 153.62,-660.88 36.38,-660.88"/>
</g>
<!-- http_//ontology.eil.utoronto.ca/5087/2/Person/Person&#45;&gt;email__PhoneNumber -->
<g id="edge19" class="edge">
<title>http_//ontology.eil.utoronto.ca/5087/2/Person/Person&#45;&gt;email__PhoneNumber</title>
<path fill="none" stroke="black" d="M583.4,-1147.1C574.73,-1142.32 566.41,-1136.35 560,-1129 504.57,-1065.45 558.14,-1010.08 500,-949 484.79,-933.02 470.62,-945.21 453.75,-931 421.62,-903.93 432.91,-881.41 405,-850 383.33,-825.61 374.39,-822.72 347,-805 278.31,-760.55 193.39,-717.69 141.75,-692.87"/>
<polygon fill="black" stroke="black" points="143.47,-689.81 132.94,-688.65 140.45,-696.12 143.47,-689.81"/>
<text xml:space="preserve" text-anchor="middle" x="505.88" y="-920.55" font-family="Arial" font-size="11.00"> email::hasTelephone </text>
<text xml:space="preserve" text-anchor="middle" x="505.88" y="-907.05" font-family="Arial" font-size="11.00"> «only» &#160;</text>
</g>
<!-- Gender -->
<g id="node10" class="node">
<title>Gender</title>
<g id="a_node10"><a xlink:href="../_counters/Person__Gender.md" xlink:title="&lt;TABLE&gt;">
<polygon fill="lightgray" stroke="none" points="106.12,-562.88 106.12,-579.12 147.88,-579.12 147.88,-562.88 106.12,-562.88"/>
<text xml:space="preserve" text-anchor="start" x="107.12" y="-566.73" font-family="Arial" font-size="12.00">Gender</text>
<polygon fill="none" stroke="black" points="105.12,-561.88 105.12,-580.12 148.88,-580.12 148.88,-561.88 105.12,-561.88"/>
</a>
</g>
</g>
<!-- http_//ontology.eil.utoronto.ca/5087/2/Person/Person&#45;&gt;Gender -->
<g id="edge24" class="edge">
<title>http_//ontology.eil.utoronto.ca/5087/2/Person/Person&#45;&gt;Gender</title>
<path fill="none" stroke="black" d="M611.28,-1147.05C606.23,-1141.75 601.3,-1135.57 598,-1129 552.37,-1038.26 624.34,-980.91 558,-904 541.54,-884.92 521.04,-904.78 504.25,-886 484.11,-863.46 490,-849.73 490,-819.5 490,-819.5 490,-819.5 490,-669 490,-602.37 258.82,-580.31 165.44,-574.12"/>
<polygon fill="black" stroke="black" points="165.7,-570.63 155.5,-573.49 165.26,-577.61 165.7,-570.63"/>
<text xml:space="preserve" text-anchor="middle" x="551.12" y="-871.05" font-family="Arial" font-size="11.00"> hasGenderIdentity </text>
<text xml:space="preserve" text-anchor="middle" x="551.12" y="-857.55" font-family="Arial" font-size="11.00"> «only» &#160;</text>
</g>
<!-- Person -->
<g id="node11" class="node">
<title>Person</title>
<g id="a_node11"><a xlink:href="../_counters/Person__Person.md" xlink:title="&lt;TABLE&gt;">
<polygon fill="lightgray" stroke="none" points="106.88,-463.88 106.88,-480.12 147.12,-480.12 147.12,-463.88 106.88,-463.88"/>
<text xml:space="preserve" text-anchor="start" x="107.88" y="-467.73" font-family="Arial" font-size="12.00">Person</text>
<polygon fill="none" stroke="black" points="105.88,-462.88 105.88,-481.12 148.12,-481.12 148.12,-462.88 105.88,-462.88"/>
</a>
</g>
</g>
<!-- http_//ontology.eil.utoronto.ca/5087/2/Person/Person&#45;&gt;Person -->
<g id="edge21" class="edge">
<title>http_//ontology.eil.utoronto.ca/5087/2/Person/Person&#45;&gt;Person</title>
<path fill="none" stroke="black" d="M625.61,-1147.03C619.99,-1127.81 612,-1095.49 612,-1067 612,-1067 612,-1067 612,-916.5 612,-886.3 618.31,-872.36 598,-850 579.99,-830.18 556.62,-853.39 540.5,-832 523.91,-809.99 539,-797.56 539,-770 539,-770 539,-770 539,-570 539,-493.57 266.98,-477.3 165,-473.89"/>
<polygon fill="black" stroke="black" points="165.33,-470.4 155.23,-473.59 165.12,-477.4 165.33,-470.4"/>
<text xml:space="preserve" text-anchor="middle" x="562.25" y="-821.55" font-family="Arial" font-size="11.00"> children </text>
<text xml:space="preserve" text-anchor="middle" x="562.25" y="-808.05" font-family="Arial" font-size="11.00"> «only» &#160;</text>
</g>
<!-- http_//ontology.eil.utoronto.ca/5087/2/Person/Person&#45;&gt;Person -->
<g id="edge28" class="edge">
<title>http_//ontology.eil.utoronto.ca/5087/2/Person/Person&#45;&gt;Person</title>
<path fill="none" stroke="black" d="M636.39,-1147.03C642.01,-1127.81 650,-1095.49 650,-1067 650,-1067 650,-1067 650,-916.5 650,-883.89 634.7,-878.58 619,-850 614.43,-841.68 611.13,-840.77 607.5,-832 588.1,-785.12 583,-771.24 583,-720.5 583,-720.5 583,-720.5 583,-570 583,-484.87 275.09,-474.15 165.31,-473.03"/>
<polygon fill="black" stroke="black" points="165.36,-469.53 155.34,-472.96 165.31,-476.53 165.36,-469.53"/>
<text xml:space="preserve" text-anchor="middle" x="627.75" y="-821.55" font-family="Arial" font-size="11.00"> parent </text>
<text xml:space="preserve" text-anchor="middle" x="627.75" y="-808.05" font-family="Arial" font-size="11.00"> «only» &#160;</text>
</g>
<!-- http_//ontology.eil.utoronto.ca/5087/2/Person/Person&#45;&gt;Person -->
<g id="edge29" class="edge">
<title>http_//ontology.eil.utoronto.ca/5087/2/Person/Person&#45;&gt;Person</title>
<path fill="none" stroke="black" d="M648.41,-1147.17C665.17,-1129.08 688,-1098.64 688,-1067 688,-1067 688,-1067 688,-916.5 688,-870.47 621,-766.53 621,-720.5 621,-720.5 621,-720.5 621,-570 621,-527.09 586.68,-524.32 547,-508 478.44,-479.79 255.23,-474.31 165.18,-473.25"/>
<polygon fill="black" stroke="black" points="165.44,-469.75 155.4,-473.15 165.36,-476.75 165.44,-469.75"/>
<text xml:space="preserve" text-anchor="middle" x="680.31" y="-821.55" font-family="Arial" font-size="11.00"> spouse </text>
<text xml:space="preserve" text-anchor="middle" x="680.31" y="-808.05" font-family="Arial" font-size="11.00"> «only» &#160;</text>
</g>
<!-- PersonId -->
<g id="node12" class="node">
<title>PersonId</title>
<g id="a_node12"><a xlink:href="../_counters/Person__PersonId.md" xlink:title="&lt;TABLE&gt;">
<polygon fill="lightgray" stroke="none" points="102,-390.88 102,-407.12 152,-407.12 152,-390.88 102,-390.88"/>
<text xml:space="preserve" text-anchor="start" x="103" y="-394.73" font-family="Arial" font-size="12.00">PersonId</text>
<polygon fill="none" stroke="black" points="101,-389.88 101,-408.12 153,-408.12 153,-389.88 101,-389.88"/>
</a>
</g>
</g>
<!-- http_//ontology.eil.utoronto.ca/5087/2/Person/Person&#45;&gt;PersonId -->
<g id="edge25" class="edge">
<title>http_//ontology.eil.utoronto.ca/5087/2/Person/Person&#45;&gt;PersonId</title>
<path fill="none" stroke="black" d="M664.76,-1147.04C692.07,-1130.67 726,-1103.06 726,-1067 726,-1067 726,-1067 726,-867 726,-837.91 722.07,-828.56 705,-805 697.18,-794.2 688.17,-798.24 681,-787 664.77,-761.53 667,-750.7 667,-720.5 667,-720.5 667,-720.5 667,-471 667,-420.33 288.38,-404.73 165.21,-401"/>
<polygon fill="black" stroke="black" points="165.39,-397.51 155.29,-400.71 165.18,-404.5 165.39,-397.51"/>
<text xml:space="preserve" text-anchor="middle" x="715.5" y="-772.05" font-family="Arial" font-size="11.00"> hasPersonID </text>
<text xml:space="preserve" text-anchor="middle" x="715.5" y="-758.55" font-family="Arial" font-size="11.00"> «only» &#160;</text>
</g>
<!-- PersonName -->
<g id="node13" class="node">
<title>PersonName</title>
<g id="a_node13"><a xlink:href="../_counters/Person__PersonName.md" xlink:title="&lt;TABLE&gt;">
<polygon fill="lightgray" stroke="none" points="80.75,-317.88 80.75,-334.12 153.25,-334.12 153.25,-317.88 80.75,-317.88"/>
<text xml:space="preserve" text-anchor="start" x="81.75" y="-321.73" font-family="Arial" font-size="12.00">PersonName</text>
<polygon fill="none" stroke="black" points="79.75,-316.88 79.75,-335.12 154.25,-335.12 154.25,-316.88 79.75,-316.88"/>
</a>
</g>
</g>
<!-- http_//ontology.eil.utoronto.ca/5087/2/Person/Person&#45;&gt;PersonName -->
<g id="edge20" class="edge">
<title>http_//ontology.eil.utoronto.ca/5087/2/Person/Person&#45;&gt;PersonName</title>
<path fill="none" stroke="black" d="M687.79,-1147.1C723.94,-1132.45 764,-1107.15 764,-1067 764,-1067 764,-1067 764,-817.5 764,-787.3 768.65,-774.76 750,-751 738.59,-736.46 722.53,-748.53 712.5,-733 697.54,-709.85 711,-698.56 711,-671 711,-671 711,-671 711,-398 711,-343.2 307.22,-330.5 165.48,-327.73"/>
<polygon fill="black" stroke="black" points="165.73,-324.23 155.67,-327.55 165.6,-331.23 165.73,-324.23"/>
<text xml:space="preserve" text-anchor="middle" x="732.75" y="-722.55" font-family="Arial" font-size="11.00"> alias </text>
<text xml:space="preserve" text-anchor="middle" x="732.75" y="-709.05" font-family="Arial" font-size="11.00"> «only» &#160;</text>
</g>
<!-- http_//ontology.eil.utoronto.ca/5087/2/Person/Person&#45;&gt;PersonName -->
<g id="edge34" class="edge">
<title>http_//ontology.eil.utoronto.ca/5087/2/Person/Person&#45;&gt;PersonName</title>
<path fill="none" stroke="black" d="M720.26,-1147.07C761.72,-1133.5 802,-1109.41 802,-1067 802,-1067 802,-1067 802,-817.5 802,-778.17 785.36,-771.13 775.75,-733 763.41,-684.04 754,-671.99 754,-621.5 754,-621.5 754,-621.5 754,-398 754,-338.82 314.1,-328.97 165.42,-327.33"/>
<polygon fill="black" stroke="black" points="165.55,-323.83 155.51,-327.23 165.48,-330.83 165.55,-323.83"/>
<text xml:space="preserve" text-anchor="middle" x="800.88" y="-722.55" font-family="Arial" font-size="11.00"> name </text>
<text xml:space="preserve" text-anchor="middle" x="800.88" y="-709.05" font-family="Arial" font-size="11.00"> «max 1» &#160;</text>
</g>
<!-- Sex -->
<g id="node14" class="node">
<title>Sex</title>
<g id="a_node14"><a xlink:href="../_counters/Person__Sex.md" xlink:title="&lt;TABLE&gt;">
<polygon fill="lightgray" stroke="none" points="113.5,-244.88 113.5,-261.12 136.5,-261.12 136.5,-244.88 113.5,-244.88"/>
<text xml:space="preserve" text-anchor="start" x="114.5" y="-248.72" font-family="Arial" font-size="12.00">Sex</text>
<polygon fill="none" stroke="black" points="112.5,-243.88 112.5,-262.12 137.5,-262.12 137.5,-243.88 112.5,-243.88"/>
</a>
</g>
</g>
<!-- http_//ontology.eil.utoronto.ca/5087/2/Person/Person&#45;&gt;Sex -->
<g id="edge35" class="edge">
<title>http_//ontology.eil.utoronto.ca/5087/2/Person/Person&#45;&gt;Sex</title>
<path fill="none" stroke="black" d="M761.28,-1147.08C803.66,-1133.66 840,-1109.7 840,-1067 840,-1067 840,-1067 840,-768 840,-739.75 837.26,-731.91 826,-706 822.14,-697.12 817.52,-696.91 813.75,-688 801.98,-660.21 800,-651.68 800,-621.5 800,-621.5 800,-621.5 800,-325 800,-260.46 305.61,-254.39 163.05,-253.98"/>
<polygon fill="black" stroke="black" points="163.4,-250.48 153.39,-253.96 163.38,-257.48 163.4,-250.48"/>
<text xml:space="preserve" text-anchor="middle" x="838.88" y="-673.05" font-family="Arial" font-size="11.00"> sex </text>
<text xml:space="preserve" text-anchor="middle" x="838.88" y="-659.55" font-family="Arial" font-size="11.00"> «max 1» &#160;</text>
</g>
<!-- Skill -->
<g id="node15" class="node">
<title>Skill</title>
<g id="a_node15"><a xlink:href="../_counters/Person__Skill.md" xlink:title="&lt;TABLE&gt;">
<polygon fill="lightgray" stroke="none" points="112.38,-171.88 112.38,-188.12 137.62,-188.12 137.62,-171.88 112.38,-171.88"/>
<text xml:space="preserve" text-anchor="start" x="113.38" y="-175.72" font-family="Arial" font-size="12.00">Skill</text>
<polygon fill="none" stroke="black" points="111.38,-170.88 111.38,-189.12 138.62,-189.12 138.62,-170.88 111.38,-170.88"/>
</a>
</g>
</g>
<!-- http_//ontology.eil.utoronto.ca/5087/2/Person/Person&#45;&gt;Skill -->
<g id="edge26" class="edge">
<title>http_//ontology.eil.utoronto.ca/5087/2/Person/Person&#45;&gt;Skill</title>
<path fill="none" stroke="black" d="M769.85,-1147.1C796.26,-1142.17 819.3,-1136.14 831,-1129 860.52,-1110.99 878,-1101.58 878,-1067 878,-1067 878,-1067 878,-718.5 878,-688.3 870.97,-681.39 864,-652 862.09,-643.95 860.4,-642.19 859.25,-634 855.43,-606.7 858,-599.56 858,-572 858,-572 858,-572 858,-252 858,-181.51 314.06,-179.78 163.32,-180.65"/>
<polygon fill="black" stroke="black" points="163.45,-177.15 153.47,-180.72 163.49,-184.15 163.45,-177.15"/>
<text xml:space="preserve" text-anchor="middle" x="880.62" y="-623.55" font-family="Arial" font-size="11.00"> hasSkill </text>
<text xml:space="preserve" text-anchor="middle" x="880.62" y="-610.05" font-family="Arial" font-size="11.00"> «only» &#160;</text>
</g>
<!-- time__Instant -->
<g id="node16" class="node">
<title>time__Instant</title>
<polygon fill="lightgray" stroke="none" points="87.12,-98.88 87.12,-115.12 152.88,-115.12 152.88,-98.88 87.12,-98.88"/>
<text xml:space="preserve" text-anchor="start" x="88.12" y="-102.72" font-family="Arial" font-size="12.00">time::Instant</text>
<polygon fill="none" stroke="black" points="86.12,-97.88 86.12,-116.12 153.88,-116.12 153.88,-97.88 86.12,-97.88"/>
</g>
<!-- http_//ontology.eil.utoronto.ca/5087/2/Person/Person&#45;&gt;time__Instant -->
<g id="edge30" class="edge">
<title>http_//ontology.eil.utoronto.ca/5087/2/Person/Person&#45;&gt;time__Instant</title>
<path fill="none" stroke="black" d="M769.87,-1151.15C809.2,-1145.74 845.95,-1138.46 863,-1129 894.7,-1111.41 916,-1103.25 916,-1067 916,-1067 916,-1067 916,-669 916,-603.67 904,-587.83 904,-522.5 904,-522.5 904,-522.5 904,-179 904,-141.63 331.56,-116.28 164.97,-109.7"/>
<polygon fill="black" stroke="black" points="165.33,-106.21 155.2,-109.32 165.06,-113.2 165.33,-106.21"/>
<text xml:space="preserve" text-anchor="middle" x="934.1" y="-574.05" font-family="Arial" font-size="11.00"> birthDate </text>
<text xml:space="preserve" text-anchor="middle" x="934.1" y="-560.55" font-family="Arial" font-size="11.00"> «max 1» &#160;</text>
</g>
<!-- http_//ontology.eil.utoronto.ca/5087/2/Person/Person&#45;&gt;time__Instant -->
<g id="edge32" class="edge">
<title>http_//ontology.eil.utoronto.ca/5087/2/Person/Person&#45;&gt;time__Instant</title>
<path fill="none" stroke="black" d="M769.58,-1157.83C811.5,-1152.78 856.99,-1144.03 897,-1129 943.5,-1111.53 990,-1116.68 990,-1067 990,-1067 990,-1067 990,-179 990,-137.2 343.58,-114.71 165.14,-109.3"/>
<polygon fill="black" stroke="black" points="165.45,-105.8 155.35,-109 165.24,-112.8 165.45,-105.8"/>
<text xml:space="preserve" text-anchor="middle" x="1018.12" y="-574.05" font-family="Arial" font-size="11.00"> deathDate </text>
<text xml:space="preserve" text-anchor="middle" x="1018.12" y="-560.55" font-family="Arial" font-size="11.00"> «max 1» &#160;</text>
</g>
<!-- xsd__string -->
<g id="node17" class="node">
<title>xsd__string</title>
<polygon fill="lightgray" stroke="none" points="95,-25.88 95,-42.12 151,-42.12 151,-25.88 95,-25.88"/>
<text xml:space="preserve" text-anchor="start" x="96" y="-29.73" font-family="Arial" font-size="12.00">xsd::string</text>
<polygon fill="none" stroke="black" points="94,-24.88 94,-43.12 152,-43.12 152,-24.88 94,-24.88"/>
</g>
<!-- http_//ontology.eil.utoronto.ca/5087/2/Person/Person&#45;&gt;xsd__string -->
<g id="edge36" class="edge">
<title>http_//ontology.eil.utoronto.ca/5087/2/Person/Person&#45;&gt;xsd__string</title>
<path fill="none" stroke="black" d="M769.65,-1159.97C899.6,-1152.3 1074,-1130.23 1074,-1067 1074,-1067 1074,-1067 1074,-106 1074,-59.6 344.51,-40.01 163.35,-35.87"/>
<polygon fill="black" stroke="black" points="163.57,-32.37 153.49,-35.64 163.41,-39.37 163.57,-32.37"/>
<text xml:space="preserve" text-anchor="middle" x="1105.5" y="-524.55" font-family="Arial" font-size="11.00"> email::email </text>
<text xml:space="preserve" text-anchor="middle" x="1105.5" y="-511.05" font-family="Arial" font-size="11.00"> «only» &#160;</text>
</g>
<!-- Invis&#45;&gt;Citizenship -->
<!-- Citizenship&#45;&gt;CityUnits__MonetaryValue -->
<!-- CityUnits__MonetaryValue&#45;&gt;Education -->
<!-- Education&#45;&gt;email__Address -->
<!-- email__Address&#45;&gt;email__Address -->
<!-- email__Address&#45;&gt;email__PhoneNumber -->
<!-- email__PhoneNumber&#45;&gt;Gender -->
<!-- Gender&#45;&gt;Person -->
<!-- Person&#45;&gt;PersonId -->
<!-- PersonId&#45;&gt;PersonName -->
<!-- PersonName&#45;&gt;Sex -->
<!-- Sex&#45;&gt;Skill -->
<!-- Skill&#45;&gt;time__Instant -->
<!-- time__Instant&#45;&gt;xsd__string -->
</g>
</svg>
