<?xml version="1.0" encoding="UTF-8" standalone="no"?>
<!DOCTYPE svg PUBLIC "-//W3C//DTD SVG 1.1//EN"
 "http://www.w3.org/Graphics/SVG/1.1/DTD/svg11.dtd">
<!-- Generated by graphviz version 14.0.2 (20251019.1705)
 -->
<!-- Pages: 1 -->
<svg width="419pt" height="419pt"
 viewBox="0.00 0.00 419.00 419.00" xmlns="http://www.w3.org/2000/svg" xmlns:xlink="http://www.w3.org/1999/xlink">
<g id="graph0" class="graph" transform="scale(1 1) rotate(0) translate(4 414.75)">
<polygon fill="white" stroke="none" points="-4,4 -4,-414.75 414.75,-414.75 414.75,4 -4,4"/>
<g id="clust2" class="cluster">
<title>cluster_associated</title>
</g>
<!-- http_//ontology.eil.utoronto.ca/5087/2/Person/PersonId -->
<g id="node1" class="node">
<title>http_//ontology.eil.utoronto.ca/5087/2/Person/PersonId</title>
<g id="a_node1"><a xlink:href="../classes/Person__http://ontology.eil.utoronto.ca/5087/2/Person/PersonId.md" xlink:title="&lt;TABLE&gt;">
<polygon fill="lightgray" stroke="none" points="106.25,-320.5 106.25,-336.75 409.75,-336.75 409.75,-320.5 106.25,-320.5"/>
<text xml:space="preserve" text-anchor="start" x="116.25" y="-324.35" font-family="Arial" font-size="12.00">http://ontology.eil.utoronto.ca/5087/2/Person/PersonId</text>
<text xml:space="preserve" text-anchor="start" x="107.25" y="-308.1" font-family="Arial" font-size="12.00">genericdataproperty::hasIdentifier: xsd::string «exactly 1»</text>
<text xml:space="preserve" text-anchor="start" x="107.25" y="-291.85" font-family="Arial" font-size="12.00">photoID: xsd::boolean «max 1»</text>
<polygon fill="none" stroke="black" points="105.25,-287 105.25,-337.75 410.75,-337.75 410.75,-287 105.25,-287"/>
</a>
</g>
</g>
<!-- PersonOntologyThing -->
<g id="node2" class="node">
<title>PersonOntologyThing</title>
<g id="a_node2"><a xlink:href="../_counters/Person__PersonOntologyThing.md" xlink:title="&lt;TABLE&gt;">
<polygon fill="lightgray" stroke="none" points="198.5,-384.62 198.5,-400.88 317.5,-400.88 317.5,-384.62 198.5,-384.62"/>
<text xml:space="preserve" text-anchor="start" x="199.5" y="-388.48" font-family="Arial" font-size="12.00">PersonOntologyThing</text>
<polygon fill="none" stroke="black" points="197.5,-383.62 197.5,-401.88 318.5,-401.88 318.5,-383.62 197.5,-383.62"/>
</a>
</g>
</g>
<!-- http_//ontology.eil.utoronto.ca/5087/2/Person/PersonId&#45;&gt;PersonOntologyThing -->
<g id="edge1" class="edge">
<title>http_//ontology.eil.utoronto.ca/5087/2/Person/PersonId&#45;&gt;PersonOntologyThing</title>
<path fill="none" stroke="black" d="M258,-337.71C258,-345.97 258,-355.27 258,-363.79"/>
<polygon fill="none" stroke="black" points="254.5,-363.62 258,-373.62 261.5,-363.62 254.5,-363.62"/>
</g>
<!-- Invis -->
<!-- http_//ontology.eil.utoronto.ca/5087/2/Person/PersonId&#45;&gt;Invis -->
<!-- agent__Agent -->
<g id="node4" class="node">
<title>agent__Agent</title>
<polygon fill="lightgray" stroke="none" points="17.25,-197.88 17.25,-214.12 86.75,-214.12 86.75,-197.88 17.25,-197.88"/>
<text xml:space="preserve" text-anchor="start" x="18.25" y="-201.72" font-family="Arial" font-size="12.00">agent::Agent</text>
<polygon fill="none" stroke="black" points="16.25,-196.88 16.25,-215.12 87.75,-215.12 87.75,-196.88 16.25,-196.88"/>
</g>
<!-- http_//ontology.eil.utoronto.ca/5087/2/Person/PersonId&#45;&gt;agent__Agent -->
<g id="edge7" class="edge">
<title>http_//ontology.eil.utoronto.ca/5087/2/Person/PersonId&#45;&gt;agent__Agent</title>
<path fill="none" stroke="black" d="M134.81,-287.1C122.46,-282.15 110.52,-276.18 99.75,-269 86.28,-260.02 75.01,-245.97 66.8,-233.51"/>
<polygon fill="black" stroke="black" points="69.94,-231.93 61.69,-225.28 63.99,-235.62 69.94,-231.93"/>
<text xml:space="preserve" text-anchor="middle" x="124.88" y="-258.55" font-family="Arial" font-size="11.00"> issuedBy </text>
<text xml:space="preserve" text-anchor="middle" x="124.88" y="-245.05" font-family="Arial" font-size="11.00"> «max 1» &#160;</text>
</g>
<!-- IDType -->
<g id="node5" class="node">
<title>IDType</title>
<g id="a_node5"><a xlink:href="../_counters/Person__IDType.md" xlink:title="&lt;TABLE&gt;">
<polygon fill="lightgray" stroke="none" points="31.88,-98.88 31.88,-115.12 72.12,-115.12 72.12,-98.88 31.88,-98.88"/>
<text xml:space="preserve" text-anchor="start" x="32.88" y="-102.72" font-family="Arial" font-size="12.00">IDType</text>
<polygon fill="none" stroke="black" points="30.88,-97.88 30.88,-116.12 73.12,-116.12 73.12,-97.88 30.88,-97.88"/>
</a>
</g>
</g>
<!-- http_//ontology.eil.utoronto.ca/5087/2/Person/PersonId&#45;&gt;IDType -->
<g id="edge6" class="edge">
<title>http_//ontology.eil.utoronto.ca/5087/2/Person/PersonId&#45;&gt;IDType</title>
<path fill="none" stroke="black" d="M233.56,-287.25C194.14,-248.33 116.93,-172.1 77.1,-132.78"/>
<polygon fill="black" stroke="black" points="79.61,-130.34 70.04,-125.81 74.69,-135.32 79.61,-130.34"/>
<text xml:space="preserve" text-anchor="middle" x="197.57" y="-209.05" font-family="Arial" font-size="11.00"> hasIDType </text>
<text xml:space="preserve" text-anchor="middle" x="197.57" y="-195.55" font-family="Arial" font-size="11.00"> «only» &#160;</text>
</g>
<!-- time__Interval -->
<g id="node6" class="node">
<title>time__Interval</title>
<polygon fill="lightgray" stroke="none" points="17.25,-25.88 17.25,-42.12 86.75,-42.12 86.75,-25.88 17.25,-25.88"/>
<text xml:space="preserve" text-anchor="start" x="18.25" y="-29.73" font-family="Arial" font-size="12.00">time::Interval</text>
<polygon fill="none" stroke="black" points="16.25,-24.88 16.25,-43.12 87.75,-43.12 87.75,-24.88 16.25,-24.88"/>
</g>
<!-- http_//ontology.eil.utoronto.ca/5087/2/Person/PersonId&#45;&gt;time__Interval -->
<g id="edge8" class="edge">
<title>http_//ontology.eil.utoronto.ca/5087/2/Person/PersonId&#45;&gt;time__Interval</title>
<path fill="none" stroke="black" d="M256.99,-287.46C254.92,-261.32 248.69,-219.05 230,-188 195.53,-130.75 132.19,-84.07 91.1,-57.9"/>
<polygon fill="black" stroke="black" points="93.04,-54.99 82.71,-52.66 89.33,-60.93 93.04,-54.99"/>
<text xml:space="preserve" text-anchor="middle" x="252.75" y="-159.55" font-family="Arial" font-size="11.00"> validityPeriod </text>
<text xml:space="preserve" text-anchor="middle" x="252.75" y="-146.05" font-family="Arial" font-size="11.00"> «max 1» &#160;</text>
</g>
<!-- Invis&#45;&gt;agent__Agent -->
<!-- agent__Agent&#45;&gt;IDType -->
<!-- IDType&#45;&gt;time__Interval -->
</g>
</svg>
