<?xml version="1.0" encoding="UTF-8" standalone="no"?>
<!DOCTYPE svg PUBLIC "-//W3C//DTD SVG 1.1//EN"
 "http://www.w3.org/Graphics/SVG/1.1/DTD/svg11.dtd">
<!-- Generated by graphviz version 14.1.3 (20260303.0454)
 -->
<!-- Pages: 1 -->
<svg width="176pt" height="132pt"
 viewBox="0.00 0.00 176.00 132.00" xmlns="http://www.w3.org/2000/svg" xmlns:xlink="http://www.w3.org/1999/xlink">
<g id="graph0" class="graph" transform="scale(1 1) rotate(0) translate(4 128)">
<polygon fill="white" stroke="none" points="-4,4 -4,-128 171.88,-128 171.88,4 -4,4"/>
<g id="clust3" class="cluster">
<title>cluster_associated</title>
</g>
<!-- CityThing -->
<g id="node1" class="node">
<title>CityThing</title>
<g id="a_node1"><a xlink:href="../CityThing" xlink:title="&lt;TABLE&gt;">
<polygon fill="lightgray" stroke="none" points="13,-97.88 13,-114.12 66.75,-114.12 66.75,-97.88 13,-97.88"/>
<text xml:space="preserve" text-anchor="start" x="14" y="-101.88" font-family="Arial" font-size="12.00">CityThing</text>
<polygon fill="none" stroke="black" points="12,-96.88 12,-115.12 67.75,-115.12 67.75,-96.88 12,-96.88"/>
</a>
</g>
</g>
<!-- ContractThing -->
<g id="node2" class="node">
<title>ContractThing</title>
<g id="a_node2"><a xlink:href="../ContractThing" xlink:title="&lt;TABLE&gt;">
<polygon fill="lightgray" stroke="none" points="1,-25.88 1,-42.12 78.75,-42.12 78.75,-25.88 1,-25.88"/>
<text xml:space="preserve" text-anchor="start" x="2" y="-29.88" font-family="Arial" font-size="12.00">ContractThing</text>
<polygon fill="none" stroke="black" points="0,-24.88 0,-43.12 79.75,-43.12 79.75,-24.88 0,-24.88"/>
</a>
</g>
</g>
<!-- ContractThing&#45;&gt;CityThing -->
<g id="edge1" class="edge">
<title>ContractThing&#45;&gt;CityThing</title>
<path fill="none" stroke="black" d="M39.88,-51.79C39.88,-59.25 39.88,-68.24 39.88,-76.69"/>
<polygon fill="none" stroke="black" points="36.38,-76.54 39.88,-86.54 43.38,-76.54 36.38,-76.54"/>
</g>
<!-- Invis -->
</g>
</svg>
