<?xml version="1.0" encoding="UTF-8" standalone="no"?>
<!DOCTYPE svg PUBLIC "-//W3C//DTD SVG 1.1//EN"
 "http://www.w3.org/Graphics/SVG/1.1/DTD/svg11.dtd">
<!-- Generated by graphviz version 14.0.2 (20251019.1705)
 -->
<!-- Pages: 1 -->
<svg width="526pt" height="159pt"
 viewBox="0.00 0.00 526.00 159.00" xmlns="http://www.w3.org/2000/svg" xmlns:xlink="http://www.w3.org/1999/xlink">
<g id="graph0" class="graph" transform="scale(1 1) rotate(0) translate(4 155)">
<polygon fill="white" stroke="none" points="-4,4 -4,-155 522.38,-155 522.38,4 -4,4"/>
<g id="clust2" class="cluster">
<title>cluster_associated</title>
</g>
<!-- https_//standards.iso.org/iso&#45;iec/5087/&#45;2/ed&#45;1/en/ontology/Bylaw/AmendingBylaw -->
<g id="node1" class="node">
<title>https_//standards.iso.org/iso&#45;iec/5087/&#45;2/ed&#45;1/en/ontology/Bylaw/AmendingBylaw</title>
<g id="a_node1"><a xlink:href="../classes/Bylaw__https://standards.iso.org/iso-iec/5087/-2/ed-1/en/ontology/Bylaw/AmendingBylaw.md" xlink:title="&lt;TABLE&gt;">
<polygon fill="lightgray" stroke="none" points="1,-25.88 1,-42.12 429.75,-42.12 429.75,-25.88 1,-25.88"/>
<text xml:space="preserve" text-anchor="start" x="2" y="-29.73" font-family="Arial" font-size="12.00">https://standards.iso.org/iso&#45;iec/5087/&#45;2/ed&#45;1/en/ontology/Bylaw/AmendingBylaw</text>
<polygon fill="none" stroke="black" points="0,-24.88 0,-43.12 430.75,-43.12 430.75,-24.88 0,-24.88"/>
</a>
</g>
</g>
<!-- Bylaw -->
<g id="node2" class="node">
<title>Bylaw</title>
<g id="a_node2"><a xlink:href="../_counters/Bylaw__Bylaw.md" xlink:title="&lt;TABLE&gt;">
<polygon fill="lightgray" stroke="none" points="197.88,-124.88 197.88,-141.12 232.88,-141.12 232.88,-124.88 197.88,-124.88"/>
<text xml:space="preserve" text-anchor="start" x="198.88" y="-128.72" font-family="Arial" font-size="12.00">Bylaw</text>
<polygon fill="none" stroke="black" points="196.88,-123.88 196.88,-142.12 233.88,-142.12 233.88,-123.88 196.88,-123.88"/>
</a>
</g>
</g>
<!-- https_//standards.iso.org/iso&#45;iec/5087/&#45;2/ed&#45;1/en/ontology/Bylaw/AmendingBylaw&#45;&gt;Bylaw -->
<g id="edge1" class="edge">
<title>https_//standards.iso.org/iso&#45;iec/5087/&#45;2/ed&#45;1/en/ontology/Bylaw/AmendingBylaw&#45;&gt;Bylaw</title>
<path fill="none" stroke="black" d="M214.22,-51.73C213.88,-57.51 213.55,-64.04 213.38,-70 213.03,-82 213.03,-85 213.38,-97 213.44,-99.24 213.53,-101.55 213.63,-103.88"/>
<polygon fill="none" stroke="black" points="210.13,-103.96 214.15,-113.76 217.12,-103.59 210.13,-103.96"/>
</g>
<!-- https_//standards.iso.org/iso&#45;iec/5087/&#45;2/ed&#45;1/en/ontology/Bylaw/AmendingBylaw&#45;&gt;Bylaw -->
<g id="edge2" class="edge">
<title>https_//standards.iso.org/iso&#45;iec/5087/&#45;2/ed&#45;1/en/ontology/Bylaw/AmendingBylaw&#45;&gt;Bylaw</title>
<path fill="none" stroke="black" d="M215.38,-51.7C215.38,-65.97 215.38,-86.8 215.38,-103.67"/>
<polygon fill="black" stroke="black" points="211.88,-103.59 215.38,-113.59 218.88,-103.59 211.88,-103.59"/>
<text xml:space="preserve" text-anchor="middle" x="263.75" y="-86.55" font-family="Arial" font-size="11.00"> legislationChanges </text>
<text xml:space="preserve" text-anchor="middle" x="263.75" y="-73.05" font-family="Arial" font-size="11.00"> «exactly 1» &#160;</text>
</g>
<!-- Invis -->
</g>
</svg>
