<?xml version="1.0" encoding="UTF-8" standalone="no"?>
<!DOCTYPE svg PUBLIC "-//W3C//DTD SVG 1.1//EN"
 "http://www.w3.org/Graphics/SVG/1.1/DTD/svg11.dtd">
<!-- Generated by graphviz version 14.0.2 (20251019.1705)
 -->
<!-- Pages: 1 -->
<svg width="946pt" height="622pt"
 viewBox="0.00 0.00 946.00 622.00" xmlns="http://www.w3.org/2000/svg" xmlns:xlink="http://www.w3.org/1999/xlink">
<g id="graph0" class="graph" transform="scale(1 1) rotate(0) translate(4 618)">
<polygon fill="white" stroke="none" points="-4,4 -4,-618 942,-618 942,4 -4,4"/>
<g id="clust2" class="cluster">
<title>cluster_associated</title>
</g>
<!-- https_//standards.iso.org/iso&#45;iec/5087/&#45;2/ed&#45;1/en/ontology/Bylaw/Bylaw -->
<g id="node1" class="node">
<title>https_//standards.iso.org/iso&#45;iec/5087/&#45;2/ed&#45;1/en/ontology/Bylaw/Bylaw</title>
<g id="a_node1"><a xlink:href="../classes/Bylaw__https://standards.iso.org/iso-iec/5087/-2/ed-1/en/ontology/Bylaw/Bylaw.md" xlink:title="&lt;TABLE&gt;">
<polygon fill="lightgray" stroke="none" points="563,-488.88 563,-505.12 937,-505.12 937,-488.88 563,-488.88"/>
<text xml:space="preserve" text-anchor="start" x="564" y="-492.73" font-family="Arial" font-size="12.00">https://standards.iso.org/iso&#45;iec/5087/&#45;2/ed&#45;1/en/ontology/Bylaw/Bylaw</text>
<polygon fill="none" stroke="black" points="562,-487.88 562,-506.12 938,-506.12 938,-487.88 562,-487.88"/>
</a>
</g>
</g>
<!-- Law -->
<g id="node2" class="node">
<title>Law</title>
<g id="a_node2"><a xlink:href="../_counters/Bylaw__Law.md" xlink:title="&lt;TABLE&gt;">
<polygon fill="lightgray" stroke="none" points="859.75,-587.88 859.75,-604.12 884.25,-604.12 884.25,-587.88 859.75,-587.88"/>
<text xml:space="preserve" text-anchor="start" x="860.75" y="-591.73" font-family="Arial" font-size="12.00">Law</text>
<polygon fill="none" stroke="black" points="858.75,-586.88 858.75,-605.12 885.25,-605.12 885.25,-586.88 858.75,-586.88"/>
</a>
</g>
</g>
<!-- https_//standards.iso.org/iso&#45;iec/5087/&#45;2/ed&#45;1/en/ontology/Bylaw/Bylaw&#45;&gt;Law -->
<g id="edge1" class="edge">
<title>https_//standards.iso.org/iso&#45;iec/5087/&#45;2/ed&#45;1/en/ontology/Bylaw/Bylaw&#45;&gt;Law</title>
<path fill="none" stroke="black" d="M789.94,-514.91C799.9,-520.01 810.24,-526.11 819,-533 832,-543.22 844.17,-557.02 853.56,-569.01"/>
<polygon fill="none" stroke="black" points="850.72,-571.05 859.54,-576.92 856.3,-566.83 850.72,-571.05"/>
</g>
<!-- Invis -->
<!-- https_//standards.iso.org/iso&#45;iec/5087/&#45;2/ed&#45;1/en/ontology/Bylaw/Bylaw&#45;&gt;Invis -->
<!-- measure__City -->
<g id="node9" class="node">
<title>measure__City</title>
<polygon fill="lightgray" stroke="none" points="369.25,-25.88 369.25,-42.12 444.75,-42.12 444.75,-25.88 369.25,-25.88"/>
<text xml:space="preserve" text-anchor="start" x="370.25" y="-29.73" font-family="Arial" font-size="12.00">measure::City</text>
<polygon fill="none" stroke="black" points="368.25,-24.88 368.25,-43.12 445.75,-43.12 445.75,-24.88 368.25,-24.88"/>
</g>
<!-- https_//standards.iso.org/iso&#45;iec/5087/&#45;2/ed&#45;1/en/ontology/Bylaw/Bylaw&#45;&gt;measure__City -->
<g id="edge16" class="edge">
<title>https_//standards.iso.org/iso&#45;iec/5087/&#45;2/ed&#45;1/en/ontology/Bylaw/Bylaw&#45;&gt;measure__City</title>
<path fill="none" stroke="black" stroke-dasharray="5,2" d="M671.52,-479.09C638.68,-466.97 608,-446.53 608,-412.5 608,-412.5 608,-412.5 608,-106 608,-73.93 515.86,-52.74 456.35,-42.4"/>
<polygon fill="black" stroke="black" points="457.21,-38.99 446.77,-40.78 456.05,-45.9 457.21,-38.99"/>
<text xml:space="preserve" text-anchor="middle" x="690.88" y="-256.05" font-family="Arial" font-size="11.00"> onProperty: legislationJurisdiction </text>
<text xml:space="preserve" text-anchor="middle" x="690.88" y="-242.55" font-family="Arial" font-size="11.00"> «max 1» &#160;</text>
</g>
<!-- N072319553c77417891922ca8e827fd2f -->
<g id="node10" class="node">
<title>N072319553c77417891922ca8e827fd2f</title>
<polygon fill="lightyellow" stroke="none" points="341.25,-586.88 341.25,-605.12 400.75,-605.12 400.75,-586.88 341.25,-586.88"/>
<text xml:space="preserve" text-anchor="start" x="343.25" y="-591.73" font-family="Arial" font-size="12.00">«unionOf»</text>
<polygon fill="none" stroke="black" points="341.25,-586.88 341.25,-605.12 400.75,-605.12 400.75,-586.88 341.25,-586.88"/>
</g>
<!-- https_//standards.iso.org/iso&#45;iec/5087/&#45;2/ed&#45;1/en/ontology/Bylaw/Bylaw&#45;&gt;N072319553c77417891922ca8e827fd2f -->
<g id="edge14" class="edge">
<title>https_//standards.iso.org/iso&#45;iec/5087/&#45;2/ed&#45;1/en/ontology/Bylaw/Bylaw&#45;&gt;N072319553c77417891922ca8e827fd2f</title>
<path fill="none" stroke="black" d="M699.77,-514.99C659.14,-528.35 600.3,-546.84 548,-560 501.68,-571.66 447.73,-581.85 411.69,-588.18"/>
<polygon fill="black" stroke="black" points="411.39,-584.68 402.14,-589.84 412.59,-591.57 411.39,-584.68"/>
<text xml:space="preserve" text-anchor="middle" x="664.01" y="-549.55" font-family="Arial" font-size="11.00"> impacts </text>
<text xml:space="preserve" text-anchor="middle" x="664.01" y="-536.05" font-family="Arial" font-size="11.00"> «only» &#160;</text>
</g>
<!-- N11c691ba277843f4a9de2cbc78cfd73c -->
<g id="node11" class="node">
<title>N11c691ba277843f4a9de2cbc78cfd73c</title>
<text xml:space="preserve" text-anchor="middle" x="720" y="-591.73" font-family="Arial" font-size="12.00">N11c691ba277843f4a9de2cbc78cfd73c</text>
</g>
<!-- https_//standards.iso.org/iso&#45;iec/5087/&#45;2/ed&#45;1/en/ontology/Bylaw/Bylaw&#45;&gt;N11c691ba277843f4a9de2cbc78cfd73c -->
<g id="edge15" class="edge">
<title>https_//standards.iso.org/iso&#45;iec/5087/&#45;2/ed&#45;1/en/ontology/Bylaw/Bylaw&#45;&gt;N11c691ba277843f4a9de2cbc78cfd73c</title>
<path fill="none" stroke="black" d="M744.83,-514.7C740.38,-529.11 733.85,-550.21 728.61,-567.16"/>
<polygon fill="black" stroke="black" points="725.28,-566.07 725.67,-576.66 731.97,-568.14 725.28,-566.07"/>
<text xml:space="preserve" text-anchor="middle" x="776.82" y="-549.55" font-family="Arial" font-size="11.00"> legislationType </text>
<text xml:space="preserve" text-anchor="middle" x="776.82" y="-536.05" font-family="Arial" font-size="11.00"> «only» &#160;</text>
</g>
<!-- activity__Activity -->
<g id="node4" class="node">
<title>activity__Activity</title>
<polygon fill="lightgray" stroke="none" points="339.5,-403.38 339.5,-419.62 422.5,-419.62 422.5,-403.38 339.5,-403.38"/>
<text xml:space="preserve" text-anchor="start" x="340.5" y="-407.23" font-family="Arial" font-size="12.00">activity::Activity</text>
<polygon fill="none" stroke="black" points="338.5,-402.38 338.5,-420.62 423.5,-420.62 423.5,-402.38 338.5,-402.38"/>
</g>
<!-- Invis&#45;&gt;activity__Activity -->
<!-- https_//standards.iso.org/iso&#45;iec/5087/&#45;2/ed&#45;1/en/ontology/City/JurisdictionalArea -->
<g id="node5" class="node">
<title>https_//standards.iso.org/iso&#45;iec/5087/&#45;2/ed&#45;1/en/ontology/City/JurisdictionalArea</title>
<polygon fill="lightgray" stroke="none" points="97.5,-317.88 97.5,-334.12 522.5,-334.12 522.5,-317.88 97.5,-317.88"/>
<text xml:space="preserve" text-anchor="start" x="98.5" y="-321.73" font-family="Arial" font-size="12.00">https://standards.iso.org/iso&#45;iec/5087/&#45;2/ed&#45;1/en/ontology/City/JurisdictionalArea</text>
<polygon fill="none" stroke="black" points="96.5,-316.88 96.5,-335.12 523.5,-335.12 523.5,-316.88 96.5,-316.88"/>
</g>
<!-- activity__Activity&#45;&gt;https_//standards.iso.org/iso&#45;iec/5087/&#45;2/ed&#45;1/en/ontology/City/JurisdictionalArea -->
<!-- https_//standards.iso.org/iso&#45;iec/5087/&#45;2/ed&#45;1/en/ontology/LandUse/LandArea -->
<g id="node6" class="node">
<title>https_//standards.iso.org/iso&#45;iec/5087/&#45;2/ed&#45;1/en/ontology/LandUse/LandArea</title>
<polygon fill="lightgray" stroke="none" points="105.38,-244.88 105.38,-261.12 514.62,-261.12 514.62,-244.88 105.38,-244.88"/>
<text xml:space="preserve" text-anchor="start" x="106.38" y="-248.72" font-family="Arial" font-size="12.00">https://standards.iso.org/iso&#45;iec/5087/&#45;2/ed&#45;1/en/ontology/LandUse/LandArea</text>
<polygon fill="none" stroke="black" points="104.38,-243.88 104.38,-262.12 515.62,-262.12 515.62,-243.88 104.38,-243.88"/>
</g>
<!-- https_//standards.iso.org/iso&#45;iec/5087/&#45;2/ed&#45;1/en/ontology/City/JurisdictionalArea&#45;&gt;https_//standards.iso.org/iso&#45;iec/5087/&#45;2/ed&#45;1/en/ontology/LandUse/LandArea -->
<!-- https_//standards.iso.org/iso&#45;iec/5087/&#45;2/ed&#45;1/en/ontology/Organization/Organization -->
<g id="node7" class="node">
<title>https_//standards.iso.org/iso&#45;iec/5087/&#45;2/ed&#45;1/en/ontology/Organization/Organization</title>
<polygon fill="lightgray" stroke="none" points="92.75,-171.88 92.75,-188.12 537.25,-188.12 537.25,-171.88 92.75,-171.88"/>
<text xml:space="preserve" text-anchor="start" x="93.75" y="-175.72" font-family="Arial" font-size="12.00">https://standards.iso.org/iso&#45;iec/5087/&#45;2/ed&#45;1/en/ontology/Organization/Organization</text>
<polygon fill="none" stroke="black" points="91.75,-170.88 91.75,-189.12 538.25,-189.12 538.25,-170.88 91.75,-170.88"/>
</g>
<!-- https_//standards.iso.org/iso&#45;iec/5087/&#45;2/ed&#45;1/en/ontology/LandUse/LandArea&#45;&gt;https_//standards.iso.org/iso&#45;iec/5087/&#45;2/ed&#45;1/en/ontology/Organization/Organization -->
<!-- https_//standards.iso.org/iso&#45;iec/5087/&#45;2/ed&#45;1/en/ontology/Person/Person -->
<g id="node8" class="node">
<title>https_//standards.iso.org/iso&#45;iec/5087/&#45;2/ed&#45;1/en/ontology/Person/Person</title>
<polygon fill="lightgray" stroke="none" points="122.75,-98.88 122.75,-115.12 507.25,-115.12 507.25,-98.88 122.75,-98.88"/>
<text xml:space="preserve" text-anchor="start" x="123.75" y="-102.72" font-family="Arial" font-size="12.00">https://standards.iso.org/iso&#45;iec/5087/&#45;2/ed&#45;1/en/ontology/Person/Person</text>
<polygon fill="none" stroke="black" points="121.75,-97.88 121.75,-116.12 508.25,-116.12 508.25,-97.88 121.75,-97.88"/>
</g>
<!-- https_//standards.iso.org/iso&#45;iec/5087/&#45;2/ed&#45;1/en/ontology/Organization/Organization&#45;&gt;https_//standards.iso.org/iso&#45;iec/5087/&#45;2/ed&#45;1/en/ontology/Person/Person -->
<!-- https_//standards.iso.org/iso&#45;iec/5087/&#45;2/ed&#45;1/en/ontology/Person/Person&#45;&gt;measure__City -->
<!-- N072319553c77417891922ca8e827fd2f&#45;&gt;activity__Activity -->
<g id="edge9" class="edge">
<title>N072319553c77417891922ca8e827fd2f&#45;&gt;activity__Activity</title>
<path fill="none" stroke="black" stroke-dasharray="1,5" d="M381.66,-578.03C389.86,-563.91 400.52,-542.96 405,-523 409.28,-503.92 408.37,-498.26 405,-479 402.68,-465.71 397.93,-451.58 393.26,-439.78"/>
<polygon fill="black" stroke="black" points="396.55,-438.56 389.47,-430.67 390.08,-441.25 396.55,-438.56"/>
<text xml:space="preserve" text-anchor="middle" x="427.75" y="-493.3" font-family="Arial" font-size="11.00">member</text>
</g>
<!-- N072319553c77417891922ca8e827fd2f&#45;&gt;https_//standards.iso.org/iso&#45;iec/5087/&#45;2/ed&#45;1/en/ontology/City/JurisdictionalArea -->
<g id="edge10" class="edge">
<title>N072319553c77417891922ca8e827fd2f&#45;&gt;https_//standards.iso.org/iso&#45;iec/5087/&#45;2/ed&#45;1/en/ontology/City/JurisdictionalArea</title>
<path fill="none" stroke="black" stroke-dasharray="1,5" d="M359.73,-578.04C350.94,-563.92 339.21,-542.98 333,-523 315.07,-465.28 310.93,-394.04 310.09,-355.32"/>
<polygon fill="black" stroke="black" points="313.59,-355.41 309.94,-345.46 306.59,-355.51 313.59,-355.41"/>
<text xml:space="preserve" text-anchor="middle" x="338.78" y="-450.55" font-family="Arial" font-size="11.00">member</text>
</g>
<!-- N072319553c77417891922ca8e827fd2f&#45;&gt;https_//standards.iso.org/iso&#45;iec/5087/&#45;2/ed&#45;1/en/ontology/LandUse/LandArea -->
<g id="edge11" class="edge">
<title>N072319553c77417891922ca8e827fd2f&#45;&gt;https_//standards.iso.org/iso&#45;iec/5087/&#45;2/ed&#45;1/en/ontology/LandUse/LandArea</title>
<path fill="none" stroke="black" stroke-dasharray="1,5" d="M341.4,-591.92C265.15,-583.17 68,-555.03 68,-498 68,-498 68,-498 68,-325 68,-300.78 113.19,-284.23 164.52,-273.25"/>
<polygon fill="black" stroke="black" points="164.98,-276.73 174.07,-271.3 163.57,-269.87 164.98,-276.73"/>
<text xml:space="preserve" text-anchor="middle" x="87.88" y="-407.8" font-family="Arial" font-size="11.00">member</text>
</g>
<!-- N072319553c77417891922ca8e827fd2f&#45;&gt;https_//standards.iso.org/iso&#45;iec/5087/&#45;2/ed&#45;1/en/ontology/Organization/Organization -->
<g id="edge12" class="edge">
<title>N072319553c77417891922ca8e827fd2f&#45;&gt;https_//standards.iso.org/iso&#45;iec/5087/&#45;2/ed&#45;1/en/ontology/Organization/Organization</title>
<path fill="none" stroke="black" stroke-dasharray="1,5" d="M394.77,-578.28C412.39,-564.93 436.02,-544.88 452,-523 512.22,-440.54 538.57,-409.96 533,-308 531.22,-275.41 546.38,-259.66 525,-235 512.41,-220.47 476.43,-208.94 437.73,-200.33"/>
<polygon fill="black" stroke="black" points="438.76,-196.97 428.25,-198.29 437.29,-203.81 438.76,-196.97"/>
<text xml:space="preserve" text-anchor="middle" x="552.27" y="-365.05" font-family="Arial" font-size="11.00">member</text>
</g>
<!-- N072319553c77417891922ca8e827fd2f&#45;&gt;https_//standards.iso.org/iso&#45;iec/5087/&#45;2/ed&#45;1/en/ontology/Person/Person -->
<g id="edge13" class="edge">
<title>N072319553c77417891922ca8e827fd2f&#45;&gt;https_//standards.iso.org/iso&#45;iec/5087/&#45;2/ed&#45;1/en/ontology/Person/Person</title>
<path fill="none" stroke="black" stroke-dasharray="1,5" d="M341.27,-593.61C253.23,-588.68 0,-568.4 0,-498 0,-498 0,-498 0,-179 0,-150.37 50.15,-133.28 110.42,-123.09"/>
<polygon fill="black" stroke="black" points="110.97,-126.54 120.29,-121.5 109.86,-119.63 110.97,-126.54"/>
<text xml:space="preserve" text-anchor="middle" x="19.88" y="-322.3" font-family="Arial" font-size="11.00">member</text>
</g>
</g>
</svg>
