<?xml version="1.0" encoding="UTF-8" standalone="no"?>
<!DOCTYPE svg PUBLIC "-//W3C//DTD SVG 1.1//EN"
 "http://www.w3.org/Graphics/SVG/1.1/DTD/svg11.dtd">
<!-- Generated by graphviz version 14.0.2 (20251019.1705)
 -->
<!-- Pages: 1 -->
<svg width="499pt" height="258pt"
 viewBox="0.00 0.00 499.00 258.00" xmlns="http://www.w3.org/2000/svg" xmlns:xlink="http://www.w3.org/1999/xlink">
<g id="graph0" class="graph" transform="scale(1 1) rotate(0) translate(4 254)">
<polygon fill="white" stroke="none" points="-4,4 -4,-254 494.62,-254 494.62,4 -4,4"/>
<g id="clust2" class="cluster">
<title>cluster_associated</title>
</g>
<!-- https_//standards.iso.org/iso&#45;iec/5087/&#45;2/ed&#45;1/en/ontology/Bylaw/Clause -->
<g id="node1" class="node">
<title>https_//standards.iso.org/iso&#45;iec/5087/&#45;2/ed&#45;1/en/ontology/Bylaw/Clause</title>
<g id="a_node1"><a xlink:href="../classes/Bylaw__https://standards.iso.org/iso-iec/5087/-2/ed-1/en/ontology/Bylaw/Clause.md" xlink:title="&lt;TABLE&gt;">
<polygon fill="lightgray" stroke="none" points="106.38,-124.88 106.38,-141.12 485.62,-141.12 485.62,-124.88 106.38,-124.88"/>
<text xml:space="preserve" text-anchor="start" x="107.38" y="-128.72" font-family="Arial" font-size="12.00">https://standards.iso.org/iso&#45;iec/5087/&#45;2/ed&#45;1/en/ontology/Bylaw/Clause</text>
<polygon fill="none" stroke="black" points="105.38,-123.88 105.38,-142.12 486.62,-142.12 486.62,-123.88 105.38,-123.88"/>
</a>
</g>
</g>
<!-- BylawOntologyThing -->
<g id="node2" class="node">
<title>BylawOntologyThing</title>
<g id="a_node2"><a xlink:href="../_counters/Bylaw__BylawOntologyThing.md" xlink:title="&lt;TABLE&gt;">
<polygon fill="lightgray" stroke="none" points="148.12,-223.88 148.12,-240.12 261.88,-240.12 261.88,-223.88 148.12,-223.88"/>
<text xml:space="preserve" text-anchor="start" x="149.12" y="-227.72" font-family="Arial" font-size="12.00">BylawOntologyThing</text>
<polygon fill="none" stroke="black" points="147.12,-222.88 147.12,-241.12 262.88,-241.12 262.88,-222.88 147.12,-222.88"/>
</a>
</g>
</g>
<!-- https_//standards.iso.org/iso&#45;iec/5087/&#45;2/ed&#45;1/en/ontology/Bylaw/Clause&#45;&gt;BylawOntologyThing -->
<g id="edge1" class="edge">
<title>https_//standards.iso.org/iso&#45;iec/5087/&#45;2/ed&#45;1/en/ontology/Bylaw/Clause&#45;&gt;BylawOntologyThing</title>
<path fill="none" stroke="black" d="M280.33,-150.7C266.04,-165.94 244.72,-188.66 228.4,-206.05"/>
<polygon fill="none" stroke="black" points="226.18,-203.31 221.89,-213 231.28,-208.1 226.18,-203.31"/>
</g>
<!-- Invis -->
<!-- https_//standards.iso.org/iso&#45;iec/5087/&#45;2/ed&#45;1/en/ontology/Bylaw/Clause&#45;&gt;Invis -->
<!-- Clause -->
<g id="node4" class="node">
<title>Clause</title>
<g id="a_node4"><a xlink:href="../_counters/Bylaw__Clause.md" xlink:title="&lt;TABLE&gt;">
<polygon fill="lightgray" stroke="none" points="22.88,-25.88 22.88,-42.12 63.12,-42.12 63.12,-25.88 22.88,-25.88"/>
<text xml:space="preserve" text-anchor="start" x="23.88" y="-29.73" font-family="Arial" font-size="12.00">Clause</text>
<polygon fill="none" stroke="black" points="21.88,-24.88 21.88,-43.12 64.12,-43.12 64.12,-24.88 21.88,-24.88"/>
</a>
</g>
</g>
<!-- https_//standards.iso.org/iso&#45;iec/5087/&#45;2/ed&#45;1/en/ontology/Bylaw/Clause&#45;&gt;Clause -->
<g id="edge5" class="edge">
<title>https_//standards.iso.org/iso&#45;iec/5087/&#45;2/ed&#45;1/en/ontology/Bylaw/Clause&#45;&gt;Clause</title>
<path fill="none" stroke="black" d="M251.93,-115.1C203.41,-96.5 126.22,-66.91 80.49,-49.38"/>
<polygon fill="black" stroke="black" points="81.86,-46.15 71.27,-45.84 79.36,-52.69 81.86,-46.15"/>
<text xml:space="preserve" text-anchor="middle" x="228.1" y="-86.55" font-family="Arial" font-size="11.00"> hasClause </text>
<text xml:space="preserve" text-anchor="middle" x="228.1" y="-73.05" font-family="Arial" font-size="11.00"> «only» &#160;</text>
</g>
<!-- Nc970127304ff457dabf266e22d4e543f -->
<g id="node5" class="node">
<title>Nc970127304ff457dabf266e22d4e543f</title>
<text xml:space="preserve" text-anchor="middle" x="386" y="-227.72" font-family="Arial" font-size="12.00">Nc970127304ff457dabf266e22d4e543f</text>
</g>
<!-- https_//standards.iso.org/iso&#45;iec/5087/&#45;2/ed&#45;1/en/ontology/Bylaw/Clause&#45;&gt;Nc970127304ff457dabf266e22d4e543f -->
<g id="edge4" class="edge">
<title>https_//standards.iso.org/iso&#45;iec/5087/&#45;2/ed&#45;1/en/ontology/Bylaw/Clause&#45;&gt;Nc970127304ff457dabf266e22d4e543f</title>
<path fill="none" stroke="black" d="M311.5,-150.7C325.63,-165.94 346.72,-188.66 362.85,-206.05"/>
<polygon fill="black" stroke="black" points="359.93,-208.04 369.29,-212.99 365.06,-203.28 359.93,-208.04"/>
<text xml:space="preserve" text-anchor="middle" x="381.71" y="-185.55" font-family="Arial" font-size="11.00"> clauseType </text>
<text xml:space="preserve" text-anchor="middle" x="381.71" y="-172.05" font-family="Arial" font-size="11.00"> «some» &#160;</text>
</g>
<!-- Invis&#45;&gt;Clause -->
</g>
</svg>
