<?xml version="1.0" encoding="UTF-8" standalone="no"?>
<!DOCTYPE svg PUBLIC "-//W3C//DTD SVG 1.1//EN"
 "http://www.w3.org/Graphics/SVG/1.1/DTD/svg11.dtd">
<!-- Generated by graphviz version 14.0.2 (20251019.1705)
 -->
<!-- Pages: 1 -->
<svg width="925pt" height="599pt"
 viewBox="0.00 0.00 925.00 599.00" xmlns="http://www.w3.org/2000/svg" xmlns:xlink="http://www.w3.org/1999/xlink">
<g id="graph0" class="graph" transform="scale(1 1) rotate(0) translate(4 595)">
<polygon fill="white" stroke="none" points="-4,4 -4,-595 921.25,-595 921.25,4 -4,4"/>
<g id="clust2" class="cluster">
<title>cluster_associated</title>
</g>
<!-- https_//standards.iso.org/iso&#45;iec/5087/&#45;2/ed&#45;1/en/ontology/Bylaw/Law -->
<g id="node1" class="node">
<title>https_//standards.iso.org/iso&#45;iec/5087/&#45;2/ed&#45;1/en/ontology/Bylaw/Law</title>
<g id="a_node1"><a xlink:href="../classes/Bylaw__https://standards.iso.org/iso-iec/5087/-2/ed-1/en/ontology/Bylaw/Law.md" xlink:title="&lt;TABLE&gt;">
<polygon fill="lightgray" stroke="none" points="461.25,-474.75 461.25,-491 824.75,-491 824.75,-474.75 461.25,-474.75"/>
<text xml:space="preserve" text-anchor="start" x="462.25" y="-478.6" font-family="Arial" font-size="12.00">https://standards.iso.org/iso&#45;iec/5087/&#45;2/ed&#45;1/en/ontology/Bylaw/Law</text>
<text xml:space="preserve" text-anchor="start" x="462.25" y="-462.35" font-family="Arial" font-size="12.00">abstract: xsd::string «max 1»</text>
<text xml:space="preserve" text-anchor="start" x="462.25" y="-446.1" font-family="Arial" font-size="12.00">dateInEffect: xsd::dateTime «max 1»</text>
<text xml:space="preserve" text-anchor="start" x="462.25" y="-429.85" font-family="Arial" font-size="12.00">datePublished: xsd::dateTime «max 1»</text>
<text xml:space="preserve" text-anchor="start" x="462.25" y="-413.6" font-family="Arial" font-size="12.00">expires: xsd::dateTime «max 1»</text>
<text xml:space="preserve" text-anchor="start" x="462.25" y="-397.35" font-family="Arial" font-size="12.00">keywords: xsd::string «only»</text>
<text xml:space="preserve" text-anchor="start" x="462.25" y="-381.1" font-family="Arial" font-size="12.00">legislationDate: xsd::dateTime «max 1»</text>
<text xml:space="preserve" text-anchor="start" x="462.25" y="-364.85" font-family="Arial" font-size="12.00">legislationIdentifier: xsd::string «max 1»</text>
<polygon fill="none" stroke="black" points="460.25,-360 460.25,-492 825.75,-492 825.75,-360 460.25,-360"/>
</a>
</g>
</g>
<!-- BylawOntologyThing -->
<g id="node2" class="node">
<title>BylawOntologyThing</title>
<g id="a_node2"><a xlink:href="../_counters/Bylaw__BylawOntologyThing.md" xlink:title="&lt;TABLE&gt;">
<polygon fill="lightgray" stroke="none" points="495.12,-564.88 495.12,-581.12 608.88,-581.12 608.88,-564.88 495.12,-564.88"/>
<text xml:space="preserve" text-anchor="start" x="496.12" y="-568.73" font-family="Arial" font-size="12.00">BylawOntologyThing</text>
<polygon fill="none" stroke="black" points="494.12,-563.88 494.12,-582.12 609.88,-582.12 609.88,-563.88 494.12,-563.88"/>
</a>
</g>
</g>
<!-- https_//standards.iso.org/iso&#45;iec/5087/&#45;2/ed&#45;1/en/ontology/Bylaw/Law&#45;&gt;BylawOntologyThing -->
<g id="edge1" class="edge">
<title>https_//standards.iso.org/iso&#45;iec/5087/&#45;2/ed&#45;1/en/ontology/Bylaw/Law&#45;&gt;BylawOntologyThing</title>
<path fill="none" stroke="black" d="M602.37,-491.74C590.49,-510.66 578.17,-530.3 568.69,-545.41"/>
<polygon fill="none" stroke="black" points="565.77,-543.47 563.42,-553.8 571.7,-547.19 565.77,-543.47"/>
</g>
<!-- Invis -->
<!-- https_//standards.iso.org/iso&#45;iec/5087/&#45;2/ed&#45;1/en/ontology/Bylaw/Law&#45;&gt;Invis -->
<!-- Clause -->
<g id="node4" class="node">
<title>Clause</title>
<g id="a_node4"><a xlink:href="../_counters/Bylaw__Clause.md" xlink:title="&lt;TABLE&gt;">
<polygon fill="lightgray" stroke="none" points="303.88,-270.88 303.88,-287.12 344.12,-287.12 344.12,-270.88 303.88,-270.88"/>
<text xml:space="preserve" text-anchor="start" x="304.88" y="-274.73" font-family="Arial" font-size="12.00">Clause</text>
<polygon fill="none" stroke="black" points="302.88,-269.88 302.88,-288.12 345.12,-288.12 345.12,-269.88 302.88,-269.88"/>
</a>
</g>
</g>
<!-- https_//standards.iso.org/iso&#45;iec/5087/&#45;2/ed&#45;1/en/ontology/Bylaw/Law&#45;&gt;Clause -->
<g id="edge7" class="edge">
<title>https_//standards.iso.org/iso&#45;iec/5087/&#45;2/ed&#45;1/en/ontology/Bylaw/Law&#45;&gt;Clause</title>
<path fill="none" stroke="black" d="M460.31,-360.88C458.87,-360.58 457.43,-360.28 456,-360 421.61,-353.18 165.07,-367.49 141,-342 97,-295.41 220.57,-283.83 286.12,-280.95"/>
<polygon fill="black" stroke="black" points="285.88,-284.46 295.74,-280.58 285.61,-277.47 285.88,-284.46"/>
<text xml:space="preserve" text-anchor="middle" x="169.5" y="-331.55" font-family="Arial" font-size="11.00"> hasClause </text>
<text xml:space="preserve" text-anchor="middle" x="169.5" y="-318.05" font-family="Arial" font-size="11.00"> «only» &#160;</text>
</g>
<!-- https_//standards.iso.org/iso&#45;iec/5087/&#45;2/ed&#45;1/en/ontology/Bylaw/Law&#45;&gt;Clause -->
<g id="edge9" class="edge">
<title>https_//standards.iso.org/iso&#45;iec/5087/&#45;2/ed&#45;1/en/ontology/Bylaw/Law&#45;&gt;Clause</title>
<path fill="none" stroke="black" d="M460.3,-360.92C458.86,-360.6 457.43,-360.3 456,-360 430.36,-354.66 238.8,-361.21 221,-342 212.85,-333.2 214.01,-324.76 221,-315 235.77,-294.38 263.39,-285.76 286.32,-282.23"/>
<polygon fill="black" stroke="black" points="286.46,-285.74 295.95,-281.03 285.59,-278.79 286.46,-285.74"/>
<text xml:space="preserve" text-anchor="middle" x="267.5" y="-331.55" font-family="Arial" font-size="11.00"> hasPenaltyClause </text>
<text xml:space="preserve" text-anchor="middle" x="267.5" y="-318.05" font-family="Arial" font-size="11.00"> «only» &#160;</text>
</g>
<!-- https_//standards.iso.org/iso&#45;iec/5087/&#45;2/ed&#45;1/en/ontology/Bylaw/Law&#45;&gt;Clause -->
<g id="edge10" class="edge">
<title>https_//standards.iso.org/iso&#45;iec/5087/&#45;2/ed&#45;1/en/ontology/Bylaw/Law&#45;&gt;Clause</title>
<path fill="none" stroke="black" d="M460.27,-361.07C458.84,-360.71 457.42,-360.35 456,-360 430.14,-353.6 356.92,-360.23 337.5,-342 328.4,-333.46 324.71,-320.35 323.42,-308.37"/>
<polygon fill="black" stroke="black" points="326.93,-308.3 322.91,-298.5 319.94,-308.67 326.93,-308.3"/>
<text xml:space="preserve" text-anchor="middle" x="383.25" y="-331.55" font-family="Arial" font-size="11.00"> hasRepealClause </text>
<text xml:space="preserve" text-anchor="middle" x="383.25" y="-318.05" font-family="Arial" font-size="11.00"> «only» &#160;</text>
</g>
<!-- https_//standards.iso.org/iso&#45;iec/5087/&#45;2/ed&#45;1/en/ontology/Bylaw/Law&#45;&gt;Clause -->
<g id="edge12" class="edge">
<title>https_//standards.iso.org/iso&#45;iec/5087/&#45;2/ed&#45;1/en/ontology/Bylaw/Law&#45;&gt;Clause</title>
<path fill="none" stroke="black" d="M479.89,-360.18C470.27,-354.49 460.97,-348.43 452.25,-342 439.5,-332.6 442.15,-323.82 429,-315 408.8,-301.45 382.91,-292.75 361.89,-287.41"/>
<polygon fill="black" stroke="black" points="362.8,-284.02 352.26,-285.12 361.18,-290.83 362.8,-284.02"/>
<text xml:space="preserve" text-anchor="middle" x="506.62" y="-331.55" font-family="Arial" font-size="11.00"> hasSeveranceClause </text>
<text xml:space="preserve" text-anchor="middle" x="506.62" y="-318.05" font-family="Arial" font-size="11.00"> «only» &#160;</text>
</g>
<!-- https_//standards.iso.org/iso&#45;iec/5087/&#45;2/ed&#45;1/en/ontology/Bylaw/Law&#45;&gt;Clause -->
<g id="edge13" class="edge">
<title>https_//standards.iso.org/iso&#45;iec/5087/&#45;2/ed&#45;1/en/ontology/Bylaw/Law&#45;&gt;Clause</title>
<path fill="none" stroke="black" d="M597.78,-360.21C581.84,-338.21 566.5,-318.28 561,-315 528.18,-295.4 420.28,-285.9 362.06,-282.1"/>
<polygon fill="black" stroke="black" points="362.48,-278.62 352.28,-281.49 362.04,-285.61 362.48,-278.62"/>
<text xml:space="preserve" text-anchor="middle" x="634.14" y="-331.55" font-family="Arial" font-size="11.00"> hasTransitionClause </text>
<text xml:space="preserve" text-anchor="middle" x="634.14" y="-318.05" font-family="Arial" font-size="11.00"> «only» &#160;</text>
</g>
<!-- Definition -->
<g id="node5" class="node">
<title>Definition</title>
<g id="a_node5"><a xlink:href="../_counters/Bylaw__Definition.md" xlink:title="&lt;TABLE&gt;">
<polygon fill="lightgray" stroke="none" points="297.5,-171.88 297.5,-188.12 350.5,-188.12 350.5,-171.88 297.5,-171.88"/>
<text xml:space="preserve" text-anchor="start" x="298.5" y="-175.72" font-family="Arial" font-size="12.00">Definition</text>
<polygon fill="none" stroke="black" points="296.5,-170.88 296.5,-189.12 351.5,-189.12 351.5,-170.88 296.5,-170.88"/>
</a>
</g>
</g>
<!-- https_//standards.iso.org/iso&#45;iec/5087/&#45;2/ed&#45;1/en/ontology/Bylaw/Law&#45;&gt;Definition -->
<g id="edge8" class="edge">
<title>https_//standards.iso.org/iso&#45;iec/5087/&#45;2/ed&#45;1/en/ontology/Bylaw/Law&#45;&gt;Definition</title>
<path fill="none" stroke="black" d="M690.74,-360.29C696.57,-344.75 697.56,-328.71 688,-315 685.54,-311.47 454.87,-228.12 362.05,-194.69"/>
<polygon fill="black" stroke="black" points="363.46,-191.47 352.86,-191.38 361.09,-198.06 363.46,-191.47"/>
<text xml:space="preserve" text-anchor="middle" x="674.95" y="-282.05" font-family="Arial" font-size="11.00"> hasDefinition </text>
<text xml:space="preserve" text-anchor="middle" x="674.95" y="-268.55" font-family="Arial" font-size="11.00"> «only» &#160;</text>
</g>
<!-- https_//standards.iso.org/iso&#45;iec/5087/&#45;2/ed&#45;1/en/ontology/City/JurisdictionalArea -->
<g id="node6" class="node">
<title>https_//standards.iso.org/iso&#45;iec/5087/&#45;2/ed&#45;1/en/ontology/City/JurisdictionalArea</title>
<polygon fill="lightgray" stroke="none" points="17.5,-98.88 17.5,-115.12 442.5,-115.12 442.5,-98.88 17.5,-98.88"/>
<text xml:space="preserve" text-anchor="start" x="18.5" y="-102.72" font-family="Arial" font-size="12.00">https://standards.iso.org/iso&#45;iec/5087/&#45;2/ed&#45;1/en/ontology/City/JurisdictionalArea</text>
<polygon fill="none" stroke="black" points="16.5,-97.88 16.5,-116.12 443.5,-116.12 443.5,-97.88 16.5,-97.88"/>
</g>
<!-- https_//standards.iso.org/iso&#45;iec/5087/&#45;2/ed&#45;1/en/ontology/Bylaw/Law&#45;&gt;https_//standards.iso.org/iso&#45;iec/5087/&#45;2/ed&#45;1/en/ontology/City/JurisdictionalArea -->
<g id="edge15" class="edge">
<title>https_//standards.iso.org/iso&#45;iec/5087/&#45;2/ed&#45;1/en/ontology/Bylaw/Law&#45;&gt;https_//standards.iso.org/iso&#45;iec/5087/&#45;2/ed&#45;1/en/ontology/City/JurisdictionalArea</title>
<path fill="none" stroke="black" d="M700.12,-360.3C721.05,-328.57 734.85,-290.85 713,-261 668.44,-200.14 466.81,-152.16 338.56,-127.11"/>
<polygon fill="black" stroke="black" points="339.51,-123.73 329.03,-125.27 338.18,-130.6 339.51,-123.73"/>
<text xml:space="preserve" text-anchor="middle" x="747.66" y="-232.55" font-family="Arial" font-size="11.00"> legislationJurisdiction </text>
<text xml:space="preserve" text-anchor="middle" x="747.66" y="-219.05" font-family="Arial" font-size="11.00"> «max 1» &#160;</text>
</g>
<!-- Schedule -->
<g id="node7" class="node">
<title>Schedule</title>
<g id="a_node7"><a xlink:href="../_counters/Bylaw__Schedule.md" xlink:title="&lt;TABLE&gt;">
<polygon fill="lightgray" stroke="none" points="296.5,-25.88 296.5,-42.12 349.5,-42.12 349.5,-25.88 296.5,-25.88"/>
<text xml:space="preserve" text-anchor="start" x="297.5" y="-29.73" font-family="Arial" font-size="12.00">Schedule</text>
<polygon fill="none" stroke="black" points="295.5,-24.88 295.5,-43.12 350.5,-43.12 350.5,-24.88 295.5,-24.88"/>
</a>
</g>
</g>
<!-- https_//standards.iso.org/iso&#45;iec/5087/&#45;2/ed&#45;1/en/ontology/Bylaw/Law&#45;&gt;Schedule -->
<g id="edge11" class="edge">
<title>https_//standards.iso.org/iso&#45;iec/5087/&#45;2/ed&#45;1/en/ontology/Bylaw/Law&#45;&gt;Schedule</title>
<path fill="none" stroke="black" d="M805.31,-360.05C830.84,-339.52 849,-313.24 849,-280 849,-280 849,-280 849,-106 849,-56.78 482.69,-40.27 361.45,-36.15"/>
<polygon fill="black" stroke="black" points="361.79,-32.66 351.69,-35.82 361.56,-39.65 361.79,-32.66"/>
<text xml:space="preserve" text-anchor="middle" x="883.12" y="-183.05" font-family="Arial" font-size="11.00"> hasSchedule </text>
<text xml:space="preserve" text-anchor="middle" x="883.12" y="-169.55" font-family="Arial" font-size="11.00"> «only» &#160;</text>
</g>
<!-- Nb788fd6597fa4d488f505403afcb3389 -->
<g id="node8" class="node">
<title>Nb788fd6597fa4d488f505403afcb3389</title>
<text xml:space="preserve" text-anchor="middle" x="733" y="-568.73" font-family="Arial" font-size="12.00">Nb788fd6597fa4d488f505403afcb3389</text>
</g>
<!-- https_//standards.iso.org/iso&#45;iec/5087/&#45;2/ed&#45;1/en/ontology/Bylaw/Law&#45;&gt;Nb788fd6597fa4d488f505403afcb3389 -->
<g id="edge14" class="edge">
<title>https_//standards.iso.org/iso&#45;iec/5087/&#45;2/ed&#45;1/en/ontology/Bylaw/Law&#45;&gt;Nb788fd6597fa4d488f505403afcb3389</title>
<path fill="none" stroke="black" d="M683.18,-491.74C694.93,-510.66 707.11,-530.3 716.49,-545.41"/>
<polygon fill="black" stroke="black" points="713.45,-547.15 721.7,-553.8 719.4,-543.45 713.45,-547.15"/>
<text xml:space="preserve" text-anchor="middle" x="764.88" y="-526.55" font-family="Arial" font-size="11.00"> legislationLegalForce </text>
<text xml:space="preserve" text-anchor="middle" x="764.88" y="-513.05" font-family="Arial" font-size="11.00"> «only» &#160;</text>
</g>
<!-- Invis&#45;&gt;Clause -->
<!-- Clause&#45;&gt;Definition -->
<!-- Definition&#45;&gt;https_//standards.iso.org/iso&#45;iec/5087/&#45;2/ed&#45;1/en/ontology/City/JurisdictionalArea -->
<!-- https_//standards.iso.org/iso&#45;iec/5087/&#45;2/ed&#45;1/en/ontology/City/JurisdictionalArea&#45;&gt;Schedule -->
</g>
</svg>
