<?xml version="1.0" encoding="UTF-8" standalone="no"?>
<!DOCTYPE svg PUBLIC "-//W3C//DTD SVG 1.1//EN"
 "http://www.w3.org/Graphics/SVG/1.1/DTD/svg11.dtd">
<!-- Generated by graphviz version 14.0.2 (20251019.1705)
 -->
<!-- Pages: 1 -->
<svg width="520pt" height="159pt"
 viewBox="0.00 0.00 520.00 159.00" xmlns="http://www.w3.org/2000/svg" xmlns:xlink="http://www.w3.org/1999/xlink">
<g id="graph0" class="graph" transform="scale(1 1) rotate(0) translate(4 155)">
<polygon fill="white" stroke="none" points="-4,4 -4,-155 515.62,-155 515.62,4 -4,4"/>
<g id="clust2" class="cluster">
<title>cluster_associated</title>
</g>
<!-- https_//standards.iso.org/iso&#45;iec/5087/&#45;2/ed&#45;1/en/ontology/Bylaw/RevisionBylaw -->
<g id="node1" class="node">
<title>https_//standards.iso.org/iso&#45;iec/5087/&#45;2/ed&#45;1/en/ontology/Bylaw/RevisionBylaw</title>
<g id="a_node1"><a xlink:href="../classes/Bylaw__https://standards.iso.org/iso-iec/5087/-2/ed-1/en/ontology/Bylaw/RevisionBylaw.md" xlink:title="&lt;TABLE&gt;">
<polygon fill="lightgray" stroke="none" points="1,-25.88 1,-42.12 422.25,-42.12 422.25,-25.88 1,-25.88"/>
<text xml:space="preserve" text-anchor="start" x="2" y="-29.73" font-family="Arial" font-size="12.00">https://standards.iso.org/iso&#45;iec/5087/&#45;2/ed&#45;1/en/ontology/Bylaw/RevisionBylaw</text>
<polygon fill="none" stroke="black" points="0,-24.88 0,-43.12 423.25,-43.12 423.25,-24.88 0,-24.88"/>
</a>
</g>
</g>
<!-- Bylaw -->
<g id="node2" class="node">
<title>Bylaw</title>
<g id="a_node2"><a xlink:href="../_counters/Bylaw__Bylaw.md" xlink:title="&lt;TABLE&gt;">
<polygon fill="lightgray" stroke="none" points="194.12,-124.88 194.12,-141.12 229.12,-141.12 229.12,-124.88 194.12,-124.88"/>
<text xml:space="preserve" text-anchor="start" x="195.12" y="-128.72" font-family="Arial" font-size="12.00">Bylaw</text>
<polygon fill="none" stroke="black" points="193.12,-123.88 193.12,-142.12 230.12,-142.12 230.12,-123.88 193.12,-123.88"/>
</a>
</g>
</g>
<!-- https_//standards.iso.org/iso&#45;iec/5087/&#45;2/ed&#45;1/en/ontology/Bylaw/RevisionBylaw&#45;&gt;Bylaw -->
<g id="edge1" class="edge">
<title>https_//standards.iso.org/iso&#45;iec/5087/&#45;2/ed&#45;1/en/ontology/Bylaw/RevisionBylaw&#45;&gt;Bylaw</title>
<path fill="none" stroke="black" d="M210.47,-51.73C210.13,-57.51 209.8,-64.04 209.62,-70 209.28,-82 209.28,-85 209.62,-97 209.69,-99.24 209.78,-101.55 209.88,-103.88"/>
<polygon fill="none" stroke="black" points="206.38,-103.96 210.4,-113.76 213.37,-103.59 206.38,-103.96"/>
</g>
<!-- https_//standards.iso.org/iso&#45;iec/5087/&#45;2/ed&#45;1/en/ontology/Bylaw/RevisionBylaw&#45;&gt;Bylaw -->
<g id="edge2" class="edge">
<title>https_//standards.iso.org/iso&#45;iec/5087/&#45;2/ed&#45;1/en/ontology/Bylaw/RevisionBylaw&#45;&gt;Bylaw</title>
<path fill="none" stroke="black" d="M211.62,-51.7C211.62,-65.97 211.62,-86.8 211.62,-103.67"/>
<polygon fill="black" stroke="black" points="208.13,-103.59 211.63,-113.59 215.13,-103.59 208.13,-103.59"/>
<text xml:space="preserve" text-anchor="middle" x="260" y="-86.55" font-family="Arial" font-size="11.00"> legislationChanges </text>
<text xml:space="preserve" text-anchor="middle" x="260" y="-73.05" font-family="Arial" font-size="11.00"> «exactly 1» &#160;</text>
</g>
<!-- Invis -->
</g>
</svg>
