<?xml version="1.0" encoding="UTF-8" standalone="no"?>
<!DOCTYPE svg PUBLIC "-//W3C//DTD SVG 1.1//EN"
 "http://www.w3.org/Graphics/SVG/1.1/DTD/svg11.dtd">
<!-- Generated by graphviz version 14.0.2 (20251019.1705)
 -->
<!-- Pages: 1 -->
<svg width="508pt" height="232pt"
 viewBox="0.00 0.00 508.00 232.00" xmlns="http://www.w3.org/2000/svg" xmlns:xlink="http://www.w3.org/1999/xlink">
<g id="graph0" class="graph" transform="scale(1 1) rotate(0) translate(4 228)">
<polygon fill="white" stroke="none" points="-4,4 -4,-228 504,-228 504,4 -4,4"/>
<g id="clust2" class="cluster">
<title>cluster_associated</title>
</g>
<!-- https_//standards.iso.org/iso&#45;iec/5087/&#45;2/ed&#45;1/en/ontology/Bylaw/Schedule -->
<g id="node1" class="node">
<title>https_//standards.iso.org/iso&#45;iec/5087/&#45;2/ed&#45;1/en/ontology/Bylaw/Schedule</title>
<g id="a_node1"><a xlink:href="../classes/Bylaw__https://standards.iso.org/iso-iec/5087/-2/ed-1/en/ontology/Bylaw/Schedule.md" xlink:title="&lt;TABLE&gt;">
<polygon fill="lightgray" stroke="none" points="107,-124.88 107,-141.12 499,-141.12 499,-124.88 107,-124.88"/>
<text xml:space="preserve" text-anchor="start" x="108" y="-128.72" font-family="Arial" font-size="12.00">https://standards.iso.org/iso&#45;iec/5087/&#45;2/ed&#45;1/en/ontology/Bylaw/Schedule</text>
<polygon fill="none" stroke="black" points="106,-123.88 106,-142.12 500,-142.12 500,-123.88 106,-123.88"/>
</a>
</g>
</g>
<!-- BylawOntologyThing -->
<g id="node2" class="node">
<title>BylawOntologyThing</title>
<g id="a_node2"><a xlink:href="../_counters/Bylaw__BylawOntologyThing.md" xlink:title="&lt;TABLE&gt;">
<polygon fill="lightgray" stroke="none" points="246.12,-197.88 246.12,-214.12 359.88,-214.12 359.88,-197.88 246.12,-197.88"/>
<text xml:space="preserve" text-anchor="start" x="247.12" y="-201.72" font-family="Arial" font-size="12.00">BylawOntologyThing</text>
<polygon fill="none" stroke="black" points="245.12,-196.88 245.12,-215.12 360.88,-215.12 360.88,-196.88 245.12,-196.88"/>
</a>
</g>
</g>
<!-- https_//standards.iso.org/iso&#45;iec/5087/&#45;2/ed&#45;1/en/ontology/Bylaw/Schedule&#45;&gt;BylawOntologyThing -->
<g id="edge1" class="edge">
<title>https_//standards.iso.org/iso&#45;iec/5087/&#45;2/ed&#45;1/en/ontology/Bylaw/Schedule&#45;&gt;BylawOntologyThing</title>
<path fill="none" stroke="black" d="M303,-150.71C303,-158.47 303,-167.92 303,-176.74"/>
<polygon fill="none" stroke="black" points="299.5,-176.66 303,-186.66 306.5,-176.66 299.5,-176.66"/>
</g>
<!-- Invis -->
<!-- https_//standards.iso.org/iso&#45;iec/5087/&#45;2/ed&#45;1/en/ontology/Bylaw/Schedule&#45;&gt;Invis -->
<!-- Clause -->
<g id="node4" class="node">
<title>Clause</title>
<g id="a_node4"><a xlink:href="../_counters/Bylaw__Clause.md" xlink:title="&lt;TABLE&gt;">
<polygon fill="lightgray" stroke="none" points="22.88,-25.88 22.88,-42.12 63.12,-42.12 63.12,-25.88 22.88,-25.88"/>
<text xml:space="preserve" text-anchor="start" x="23.88" y="-29.73" font-family="Arial" font-size="12.00">Clause</text>
<polygon fill="none" stroke="black" points="21.88,-24.88 21.88,-43.12 64.12,-43.12 64.12,-24.88 21.88,-24.88"/>
</a>
</g>
</g>
<!-- https_//standards.iso.org/iso&#45;iec/5087/&#45;2/ed&#45;1/en/ontology/Bylaw/Schedule&#45;&gt;Clause -->
<g id="edge4" class="edge">
<title>https_//standards.iso.org/iso&#45;iec/5087/&#45;2/ed&#45;1/en/ontology/Bylaw/Schedule&#45;&gt;Clause</title>
<path fill="none" stroke="black" d="M257.71,-115.1C207.47,-96.36 127.33,-66.46 80.48,-48.98"/>
<polygon fill="black" stroke="black" points="81.89,-45.77 71.3,-45.56 79.45,-52.33 81.89,-45.77"/>
<text xml:space="preserve" text-anchor="middle" x="232.43" y="-86.55" font-family="Arial" font-size="11.00"> hasClause </text>
<text xml:space="preserve" text-anchor="middle" x="232.43" y="-73.05" font-family="Arial" font-size="11.00"> «only» &#160;</text>
</g>
<!-- Invis&#45;&gt;Clause -->
</g>
</svg>
