<?xml version="1.0" encoding="UTF-8" standalone="no"?>
<!DOCTYPE svg PUBLIC "-//W3C//DTD SVG 1.1//EN"
 "http://www.w3.org/Graphics/SVG/1.1/DTD/svg11.dtd">
<!-- Generated by graphviz version 14.0.2 (20251019.1705)
 -->
<!-- Pages: 1 -->
<svg width="189pt" height="232pt"
 viewBox="0.00 0.00 189.00 232.00" xmlns="http://www.w3.org/2000/svg" xmlns:xlink="http://www.w3.org/1999/xlink">
<g id="graph0" class="graph" transform="scale(1 1) rotate(0) translate(4 228)">
<polygon fill="white" stroke="none" points="-4,4 -4,-228 185,-228 185,4 -4,4"/>
<g id="clust2" class="cluster">
<title>cluster_associated</title>
</g>
<!-- AddressType -->
<g id="node1" class="node">
<title>AddressType</title>
<g id="a_node1"><a xlink:href="../AddressType.md" xlink:title="&lt;TABLE&gt;">
<polygon fill="lightgray" stroke="none" points="106.75,-124.88 106.75,-141.12 179.25,-141.12 179.25,-124.88 106.75,-124.88"/>
<text xml:space="preserve" text-anchor="start" x="107.75" y="-128.72" font-family="Arial" font-size="12.00">AddressType</text>
<polygon fill="none" stroke="black" points="105.75,-123.88 105.75,-142.12 180.25,-142.12 180.25,-123.88 105.75,-123.88"/>
</a>
</g>
</g>
<!-- Invis -->
<!-- AddressType&#45;&gt;Invis -->
<!-- Code -->
<g id="node3" class="node">
<title>Code</title>
<g id="a_node3"><a xlink:href="../Code.md" xlink:title="&lt;TABLE&gt;">
<polygon fill="lightgray" stroke="none" points="27.38,-25.88 27.38,-42.12 58.62,-42.12 58.62,-25.88 27.38,-25.88"/>
<text xml:space="preserve" text-anchor="start" x="28.38" y="-29.73" font-family="Arial" font-size="12.00">Code</text>
<polygon fill="none" stroke="black" points="26.38,-24.88 26.38,-43.12 59.62,-43.12 59.62,-24.88 26.38,-24.88"/>
</a>
</g>
</g>
<!-- AddressType&#45;&gt;Code -->
<g id="edge4" class="edge">
<title>AddressType&#45;&gt;Code</title>
<path fill="none" stroke="black" d="M125.58,-115.1C109.66,-99.66 85.95,-76.66 68.01,-59.26"/>
<polygon fill="black" stroke="black" points="70.92,-57.21 61.31,-52.76 66.05,-62.23 70.92,-57.21"/>
<text xml:space="preserve" text-anchor="middle" x="129.65" y="-86.55" font-family="Arial" font-size="11.00"> hasCode </text>
<text xml:space="preserve" text-anchor="middle" x="129.65" y="-73.05" font-family="Arial" font-size="11.00"> «only» &#160;</text>
</g>
<!-- ContactThing -->
<g id="node4" class="node">
<title>ContactThing</title>
<g id="a_node4"><a xlink:href="../ContactThing.md" xlink:title="&lt;TABLE&gt;">
<polygon fill="lightgray" stroke="none" points="106,-197.88 106,-214.12 180,-214.12 180,-197.88 106,-197.88"/>
<text xml:space="preserve" text-anchor="start" x="107" y="-201.72" font-family="Arial" font-size="12.00">ContactThing</text>
<polygon fill="none" stroke="black" points="105,-196.88 105,-215.12 181,-215.12 181,-196.88 105,-196.88"/>
</a>
</g>
</g>
<!-- AddressType&#45;&gt;ContactThing -->
<g id="edge1" class="edge">
<title>AddressType&#45;&gt;ContactThing</title>
<path fill="none" stroke="black" d="M143,-150.71C143,-158.47 143,-167.92 143,-176.74"/>
<polygon fill="none" stroke="black" points="139.5,-176.66 143,-186.66 146.5,-176.66 139.5,-176.66"/>
</g>
<!-- Invis&#45;&gt;Code -->
</g>
</svg>
