<?xml version="1.0" encoding="UTF-8" standalone="no"?>
<!DOCTYPE svg PUBLIC "-//W3C//DTD SVG 1.1//EN"
 "http://www.w3.org/Graphics/SVG/1.1/DTD/svg11.dtd">
<!-- Generated by graphviz version 14.0.2 (20251019.1705)
 -->
<!-- Pages: 1 -->
<svg width="498pt" height="778pt"
 viewBox="0.00 0.00 498.00 778.00" xmlns="http://www.w3.org/2000/svg" xmlns:xlink="http://www.w3.org/1999/xlink">
<g id="graph0" class="graph" transform="scale(1 1) rotate(0) translate(4 773.5)">
<polygon fill="white" stroke="none" points="-4,4 -4,-773.5 493.75,-773.5 493.75,4 -4,4"/>
<g id="clust2" class="cluster">
<title>cluster_associated</title>
</g>
<!-- Address -->
<g id="node1" class="node">
<title>Address</title>
<g id="a_node1"><a xlink:href="../Address.md" xlink:title="&lt;TABLE&gt;">
<polygon fill="lightgray" stroke="none" points="116.75,-679.25 116.75,-695.5 321.25,-695.5 321.25,-679.25 116.75,-679.25"/>
<text xml:space="preserve" text-anchor="start" x="196.88" y="-683.1" font-family="Arial" font-size="12.00">Address</text>
<text xml:space="preserve" text-anchor="start" x="117.75" y="-666.85" font-family="Arial" font-size="12.00">«max 1» buildingName: xsd:string</text>
<text xml:space="preserve" text-anchor="start" x="117.75" y="-650.6" font-family="Arial" font-size="12.00">«max 1» hasCitySection: xsd:string</text>
<text xml:space="preserve" text-anchor="start" x="117.75" y="-634.35" font-family="Arial" font-size="12.00">«max 1» hasPostalBox: xsd:string</text>
<text xml:space="preserve" text-anchor="start" x="117.75" y="-618.1" font-family="Arial" font-size="12.00">«max 1» hasPostalCode: xsd:string</text>
<text xml:space="preserve" text-anchor="start" x="117.75" y="-601.85" font-family="Arial" font-size="12.00">«max 1» hasStreet: xsd:string</text>
<text xml:space="preserve" text-anchor="start" x="117.75" y="-585.6" font-family="Arial" font-size="12.00">«max 1» hasStreetNumber: xsd:string</text>
<text xml:space="preserve" text-anchor="start" x="117.75" y="-569.35" font-family="Arial" font-size="12.00">«max 1» hasUnitNumber: xsd:string</text>
<text xml:space="preserve" text-anchor="start" x="117.75" y="-553.1" font-family="Arial" font-size="12.00">«max 1» maxStreetNumber: xsd:string</text>
<text xml:space="preserve" text-anchor="start" x="117.75" y="-536.85" font-family="Arial" font-size="12.00">«max 1» minStreetNumber: xsd:string</text>
<polygon fill="black" stroke="black" points="115.75,-679.25 115.75,-679.25 322.25,-679.25 322.25,-679.25 115.75,-679.25"/>
<polygon fill="none" stroke="black" points="115.75,-532 115.75,-696.5 322.25,-696.5 322.25,-532 115.75,-532"/>
</a>
</g>
</g>
<!-- Invis -->
<!-- Address&#45;&gt;Invis -->
<!-- AddressType -->
<g id="node3" class="node">
<title>AddressType</title>
<g id="a_node3"><a xlink:href="../AddressType.md" xlink:title="&lt;TABLE&gt;">
<polygon fill="lightgray" stroke="none" points="16.75,-442.88 16.75,-459.12 89.25,-459.12 89.25,-442.88 16.75,-442.88"/>
<text xml:space="preserve" text-anchor="start" x="17.75" y="-446.73" font-family="Arial" font-size="12.00">AddressType</text>
<polygon fill="none" stroke="black" points="15.75,-441.88 15.75,-460.12 90.25,-460.12 90.25,-441.88 15.75,-441.88"/>
</a>
</g>
</g>
<!-- Address&#45;&gt;AddressType -->
<g id="edge9" class="edge">
<title>Address&#45;&gt;AddressType</title>
<path fill="none" stroke="black" d="M116.05,-534.13C114.7,-533.4 113.35,-532.69 112,-532 87.9,-519.62 69.97,-535.71 53.75,-514 46.67,-504.53 45.53,-491.77 46.53,-480.29"/>
<polygon fill="black" stroke="black" points="49.99,-480.88 47.98,-470.48 43.06,-479.86 49.99,-480.88"/>
<text xml:space="preserve" text-anchor="middle" x="96.88" y="-503.55" font-family="Arial" font-size="11.00"> hasAddressType </text>
<text xml:space="preserve" text-anchor="middle" x="96.88" y="-490.05" font-family="Arial" font-size="11.00"> «only» &#160;</text>
</g>
<!-- City -->
<g id="node4" class="node">
<title>City</title>
<g id="a_node4"><a xlink:href="../City.md" xlink:title="&lt;TABLE&gt;">
<polygon fill="lightgray" stroke="none" points="61.5,-343.88 61.5,-360.12 84.5,-360.12 84.5,-343.88 61.5,-343.88"/>
<text xml:space="preserve" text-anchor="start" x="62.5" y="-347.73" font-family="Arial" font-size="12.00">City</text>
<polygon fill="none" stroke="black" points="60.5,-342.88 60.5,-361.12 85.5,-361.12 85.5,-342.88 60.5,-342.88"/>
</a>
</g>
</g>
<!-- Address&#45;&gt;City -->
<g id="edge10" class="edge">
<title>Address&#45;&gt;City</title>
<path fill="none" stroke="black" d="M173.61,-532.33C144.2,-479.91 107.78,-414.99 87.82,-379.41"/>
<polygon fill="black" stroke="black" points="91.09,-378.1 83.15,-371.09 84.99,-381.53 91.09,-378.1"/>
<text xml:space="preserve" text-anchor="middle" x="161.42" y="-454.05" font-family="Arial" font-size="11.00"> hasCity </text>
<text xml:space="preserve" text-anchor="middle" x="161.42" y="-440.55" font-family="Arial" font-size="11.00"> «max 1» &#160;</text>
</g>
<!-- Country -->
<g id="node5" class="node">
<title>Country</title>
<g id="a_node5"><a xlink:href="../Country.md" xlink:title="&lt;TABLE&gt;">
<polygon fill="lightgray" stroke="none" points="51,-244.88 51,-261.12 95,-261.12 95,-244.88 51,-244.88"/>
<text xml:space="preserve" text-anchor="start" x="52" y="-248.72" font-family="Arial" font-size="12.00">Country</text>
<polygon fill="none" stroke="black" points="50,-243.88 50,-262.12 96,-262.12 96,-243.88 50,-243.88"/>
</a>
</g>
</g>
<!-- Address&#45;&gt;Country -->
<g id="edge11" class="edge">
<title>Address&#45;&gt;Country</title>
<path fill="none" stroke="black" d="M218.77,-532.09C215.53,-499.4 207.63,-462.53 190,-433 183.25,-421.7 175.19,-424.88 166.5,-415 129.86,-373.36 100.33,-315.2 84.84,-281.38"/>
<polygon fill="black" stroke="black" points="88.04,-279.97 80.75,-272.28 81.66,-282.84 88.04,-279.97"/>
<text xml:space="preserve" text-anchor="middle" x="197.25" y="-404.55" font-family="Arial" font-size="11.00"> hasCountry </text>
<text xml:space="preserve" text-anchor="middle" x="197.25" y="-391.05" font-family="Arial" font-size="11.00"> «max 1» &#160;</text>
</g>
<!-- State -->
<g id="node6" class="node">
<title>State</title>
<g id="a_node6"><a xlink:href="../State.md" xlink:title="&lt;TABLE&gt;">
<polygon fill="lightgray" stroke="none" points="58.12,-171.88 58.12,-188.12 87.88,-188.12 87.88,-171.88 58.12,-171.88"/>
<text xml:space="preserve" text-anchor="start" x="59.12" y="-175.72" font-family="Arial" font-size="12.00">State</text>
<polygon fill="none" stroke="black" points="57.12,-170.88 57.12,-189.12 88.88,-189.12 88.88,-170.88 57.12,-170.88"/>
</a>
</g>
</g>
<!-- Address&#45;&gt;State -->
<g id="edge12" class="edge">
<title>Address&#45;&gt;State</title>
<path fill="none" stroke="black" d="M235.94,-532.07C241.7,-488.33 243.33,-434.05 228,-388 202.62,-311.77 136.98,-240.96 99.77,-205.24"/>
<polygon fill="black" stroke="black" points="102.61,-203.12 92.94,-198.79 97.81,-208.21 102.61,-203.12"/>
<text xml:space="preserve" text-anchor="middle" x="253.4" y="-355.05" font-family="Arial" font-size="11.00"> hasProvince </text>
<text xml:space="preserve" text-anchor="middle" x="253.4" y="-341.55" font-family="Arial" font-size="11.00"> «max 1» &#160;</text>
</g>
<!-- StreetDirection -->
<g id="node7" class="node">
<title>StreetDirection</title>
<g id="a_node7"><a xlink:href="../StreetDirection.md" xlink:title="&lt;TABLE&gt;">
<polygon fill="lightgray" stroke="none" points="17.25,-98.88 17.25,-115.12 98.75,-115.12 98.75,-98.88 17.25,-98.88"/>
<text xml:space="preserve" text-anchor="start" x="18.25" y="-102.72" font-family="Arial" font-size="12.00">StreetDirection</text>
<polygon fill="none" stroke="black" points="16.25,-97.88 16.25,-116.12 99.75,-116.12 99.75,-97.88 16.25,-97.88"/>
</a>
</g>
</g>
<!-- Address&#45;&gt;StreetDirection -->
<g id="edge13" class="edge">
<title>Address&#45;&gt;StreetDirection</title>
<path fill="none" stroke="black" d="M280.77,-532.04C293.96,-507.61 304,-479.85 304,-452 304,-452 304,-452 304,-179 304,-139.13 183.19,-120.27 110.89,-112.56"/>
<polygon fill="black" stroke="black" points="111.54,-109.1 101.24,-111.57 110.83,-116.07 111.54,-109.1"/>
<text xml:space="preserve" text-anchor="middle" x="351.62" y="-305.55" font-family="Arial" font-size="11.00"> hasStreetDirection </text>
<text xml:space="preserve" text-anchor="middle" x="351.62" y="-292.05" font-family="Arial" font-size="11.00"> «max 1» &#160;</text>
</g>
<!-- StreetType -->
<g id="node8" class="node">
<title>StreetType</title>
<g id="a_node8"><a xlink:href="../StreetType.md" xlink:title="&lt;TABLE&gt;">
<polygon fill="lightgray" stroke="none" points="34.12,-25.88 34.12,-42.12 93.88,-42.12 93.88,-25.88 34.12,-25.88"/>
<text xml:space="preserve" text-anchor="start" x="35.12" y="-29.73" font-family="Arial" font-size="12.00">StreetType</text>
<polygon fill="none" stroke="black" points="33.12,-24.88 33.12,-43.12 94.88,-43.12 94.88,-24.88 33.12,-24.88"/>
</a>
</g>
</g>
<!-- Address&#45;&gt;StreetType -->
<g id="edge14" class="edge">
<title>Address&#45;&gt;StreetType</title>
<path fill="none" stroke="black" d="M322.21,-571.66C368.98,-545.37 414,-506.03 414,-452 414,-452 414,-452 414,-106 414,-43.79 198.95,-35.48 105.99,-34.8"/>
<polygon fill="black" stroke="black" points="106.28,-31.3 96.27,-34.76 106.25,-38.3 106.28,-31.3"/>
<text xml:space="preserve" text-anchor="middle" x="451.88" y="-256.05" font-family="Arial" font-size="11.00"> hasStreetType </text>
<text xml:space="preserve" text-anchor="middle" x="451.88" y="-242.55" font-family="Arial" font-size="11.00"> «max 1» &#160;</text>
</g>
<!-- ContactThing -->
<g id="node9" class="node">
<title>ContactThing</title>
<g id="a_node9"><a xlink:href="../ContactThing.md" xlink:title="&lt;TABLE&gt;">
<polygon fill="lightgray" stroke="none" points="182,-743.38 182,-759.62 256,-759.62 256,-743.38 182,-743.38"/>
<text xml:space="preserve" text-anchor="start" x="183" y="-747.23" font-family="Arial" font-size="12.00">ContactThing</text>
<polygon fill="none" stroke="black" points="181,-742.38 181,-760.62 257,-760.62 257,-742.38 181,-742.38"/>
</a>
</g>
</g>
<!-- Address&#45;&gt;ContactThing -->
<g id="edge1" class="edge">
<title>Address&#45;&gt;ContactThing</title>
<path fill="none" stroke="black" d="M219,-696.23C219,-705.52 219,-714.46 219,-722.31"/>
<polygon fill="none" stroke="black" points="215.5,-722.13 219,-732.13 222.5,-722.13 215.5,-722.13"/>
</g>
<!-- Invis&#45;&gt;AddressType -->
<!-- AddressType&#45;&gt;City -->
<!-- City&#45;&gt;Country -->
<!-- Country&#45;&gt;State -->
<!-- State&#45;&gt;StreetDirection -->
<!-- StreetDirection&#45;&gt;StreetType -->
</g>
</svg>
