<?xml version="1.0" encoding="UTF-8" standalone="no"?>
<!DOCTYPE svg PUBLIC "-//W3C//DTD SVG 1.1//EN"
 "http://www.w3.org/Graphics/SVG/1.1/DTD/svg11.dtd">
<!-- Generated by graphviz version 14.1.3 (20260303.0454)
 -->
<!-- Pages: 1 -->
<svg width="1777pt" height="720pt"
 viewBox="0.00 0.00 1777.00 720.00" xmlns="http://www.w3.org/2000/svg" xmlns:xlink="http://www.w3.org/1999/xlink">
<g id="graph0" class="graph" transform="scale(1 1) rotate(0) translate(4 716)">
<polygon fill="white" stroke="none" points="-4,4 -4,-716 1772.5,-716 1772.5,4 -4,4"/>
<g id="clust3" class="cluster">
<title>cluster_associated</title>
</g>
<!-- AlertThing -->
<g id="node1" class="node">
<title>AlertThing</title>
<g id="a_node1"><a xlink:href="../AlertThing" xlink:title="&lt;TABLE&gt;">
<polygon fill="lightgray" stroke="none" points="688.25,-669.88 688.25,-686.12 745.75,-686.12 745.75,-669.88 688.25,-669.88"/>
<text xml:space="preserve" text-anchor="start" x="689.25" y="-673.88" font-family="Arial" font-size="12.00">AlertThing</text>
<polygon fill="none" stroke="black" points="687.25,-668.88 687.25,-687.12 746.75,-687.12 746.75,-668.88 687.25,-668.88"/>
</a>
</g>
</g>
<!-- Alert -->
<g id="node2" class="node">
<title>Alert</title>
<g id="a_node2"><a xlink:href="../Alert" xlink:title="&lt;TABLE&gt;">
<polygon fill="lightgray" stroke="none" points="703.62,-596.88 703.62,-613.12 730.38,-613.12 730.38,-596.88 703.62,-596.88"/>
<text xml:space="preserve" text-anchor="start" x="704.62" y="-600.88" font-family="Arial" font-size="12.00">Alert</text>
<polygon fill="none" stroke="black" points="702.62,-595.88 702.62,-614.12 731.38,-614.12 731.38,-595.88 702.62,-595.88"/>
</a>
</g>
</g>
<!-- Alert&#45;&gt;AlertThing -->
<g id="edge1" class="edge">
<title>Alert&#45;&gt;AlertThing</title>
<path fill="none" stroke="black" d="M717,-622.71C717,-630.47 717,-639.92 717,-648.74"/>
<polygon fill="none" stroke="black" points="713.5,-648.66 717,-658.66 720.5,-648.66 713.5,-648.66"/>
</g>
<!-- Alert&#45;&gt;Alert -->
<g id="edge14" class="edge">
<title>Alert&#45;&gt;Alert</title>
<path fill="none" stroke="black" d="M743.79,-611.83C753.78,-612.05 762,-609.78 762,-605 762,-602.24 759.25,-600.31 755.01,-599.22"/>
<polygon fill="black" stroke="black" points="755.58,-595.76 745.3,-598.31 754.93,-602.73 755.58,-595.76"/>
<polygon fill="white" stroke="none" points="762,-594.25 762,-615.75 844.25,-615.75 844.25,-594.25 762,-594.25"/>
<text xml:space="preserve" text-anchor="start" x="766" y="-601.25" font-family="Arial" font-size="11.00">referencedAlert</text>
</g>
<!-- Invis -->
<!-- Alert&#45;&gt;Invis -->
<!-- cdm1_Activity -->
<g id="node4" class="node">
<title>cdm1_Activity</title>
<g id="a_node4"><a xlink:href="https://w3id.org/citydata/part1/v1/Activity" xlink:title="&lt;TABLE&gt;">
<polygon fill="lightgray" stroke="none" points="30.75,-596.88 30.75,-613.12 103.25,-613.12 103.25,-596.88 30.75,-596.88"/>
<text xml:space="preserve" text-anchor="start" x="31.75" y="-600.88" font-family="Arial" font-size="12.00">cdm1:Activity</text>
<polygon fill="none" stroke="black" points="29.75,-595.88 29.75,-614.12 104.25,-614.12 104.25,-595.88 29.75,-595.88"/>
</a>
</g>
</g>
<!-- Alert&#45;&gt;cdm1_Activity -->
<g id="edge12" class="edge">
<title>Alert&#45;&gt;cdm1_Activity</title>
<path fill="none" stroke="black" d="M690.35,-605C591.32,-605 243.66,-605 115.19,-605"/>
<polygon fill="black" stroke="black" points="115.32,-601.5 105.32,-605 115.32,-608.5 115.32,-601.5"/>
<polygon fill="white" stroke="none" points="372.88,-608 372.88,-629.5 421.38,-629.5 421.38,-608 372.88,-608"/>
<text xml:space="preserve" text-anchor="start" x="376.88" y="-615" font-family="Arial" font-size="11.00">activities</text>
</g>
<!-- cdm1_Agent -->
<g id="node5" class="node">
<title>cdm1_Agent</title>
<g id="a_node5"><a xlink:href="https://w3id.org/citydata/part1/v1/Agent" xlink:title="&lt;TABLE&gt;">
<polygon fill="lightgray" stroke="none" points="17.12,-481.88 17.12,-498.12 82.88,-498.12 82.88,-481.88 17.12,-481.88"/>
<text xml:space="preserve" text-anchor="start" x="18.12" y="-485.88" font-family="Arial" font-size="12.00">cdm1:Agent</text>
<polygon fill="none" stroke="black" points="16.12,-480.88 16.12,-499.12 83.88,-499.12 83.88,-480.88 16.12,-480.88"/>
</a>
</g>
</g>
<!-- Alert&#45;&gt;cdm1_Agent -->
<g id="edge35" class="edge">
<title>Alert&#45;&gt;cdm1_Agent</title>
<path fill="none" stroke="black" d="M690.32,-603.44C571.32,-600.81 93.81,-589.06 69.5,-569 54.98,-557.02 50.35,-536.01 49.21,-518.81"/>
<polygon fill="black" stroke="black" points="52.72,-519.09 48.95,-509.19 45.72,-519.28 52.72,-519.09"/>
<polygon fill="white" stroke="none" points="69.5,-526 69.5,-569 106,-569 106,-526 69.5,-526"/>
<text xml:space="preserve" text-anchor="start" x="73.5" y="-554.5" font-family="Arial" font-size="11.00">issuer</text>
<text xml:space="preserve" text-anchor="start" x="84.75" y="-533" font-family="Arial" font-size="11.00">1</text>
</g>
<!-- cdm1_Resource -->
<g id="node6" class="node">
<title>cdm1_Resource</title>
<g id="a_node6"><a xlink:href="https://w3id.org/citydata/part1/v1/Resource" xlink:title="&lt;TABLE&gt;">
<polygon fill="lightgray" stroke="none" points="17,-366.88 17,-383.12 103,-383.12 103,-366.88 17,-366.88"/>
<text xml:space="preserve" text-anchor="start" x="18" y="-370.88" font-family="Arial" font-size="12.00">cdm1:Resource</text>
<polygon fill="none" stroke="black" points="16,-365.88 16,-384.12 104,-384.12 104,-365.88 16,-365.88"/>
</a>
</g>
</g>
<!-- Alert&#45;&gt;cdm1_Resource -->
<g id="edge15" class="edge">
<title>Alert&#45;&gt;cdm1_Resource</title>
<path fill="none" stroke="black" d="M690.31,-603.35C589.41,-600.73 234.72,-590.1 189,-569 184.95,-567.13 79.11,-457.93 77,-454 68.68,-438.53 64.43,-419.27 62.26,-403.76"/>
<polygon fill="black" stroke="black" points="65.79,-403.78 61.15,-394.25 58.84,-404.59 65.79,-403.78"/>
<polygon fill="white" stroke="none" points="126.84,-479.25 126.84,-500.75 182.09,-500.75 182.09,-479.25 126.84,-479.25"/>
<text xml:space="preserve" text-anchor="start" x="130.84" y="-486.25" font-family="Arial" font-size="11.00">resources</text>
</g>
<!-- Code -->
<g id="node7" class="node">
<title>Code</title>
<g id="a_node7"><a xlink:href="../Code" xlink:title="&lt;TABLE&gt;">
<polygon fill="lightgray" stroke="none" points="61.38,-248.38 61.38,-264.62 92.62,-264.62 92.62,-248.38 61.38,-248.38"/>
<text xml:space="preserve" text-anchor="start" x="62.38" y="-252.38" font-family="Arial" font-size="12.00">Code</text>
<polygon fill="none" stroke="black" points="60.38,-247.38 60.38,-265.62 93.62,-265.62 93.62,-247.38 60.38,-247.38"/>
</a>
</g>
</g>
<!-- Alert&#45;&gt;Code -->
<g id="edge10" class="edge">
<title>Alert&#45;&gt;Code</title>
<path fill="none" stroke="black" d="M690.31,-603.7C593.55,-602.41 264.8,-596.05 227,-569 188.94,-541.76 222.25,-501.61 186,-472 154.66,-446.4 122.38,-485.31 96.75,-454 84.65,-439.21 89.89,-428.84 96.75,-411 100.62,-400.94 109.13,-403.06 113,-393 118.74,-378.07 115.76,-372.76 113,-357 108.55,-331.62 98.17,-304.19 89.69,-284.56"/>
<polygon fill="black" stroke="black" points="92.99,-283.35 85.72,-275.64 86.59,-286.2 92.99,-283.35"/>
<polygon fill="white" stroke="none" points="96.75,-421.75 96.75,-443.25 131,-443.25 131,-421.75 96.75,-421.75"/>
<text xml:space="preserve" text-anchor="start" x="100.75" y="-428.75" font-family="Arial" font-size="11.00">effect</text>
</g>
<!-- Alert&#45;&gt;Code -->
<g id="edge20" class="edge">
<title>Alert&#45;&gt;Code</title>
<path fill="none" stroke="black" d="M690.3,-603.37C598.71,-601.02 301,-591.68 265,-569 222.88,-542.46 247.67,-503.34 209,-472 188.94,-455.74 171.26,-472.98 153.75,-454 104.79,-400.94 151.45,-358.9 116,-296 113.34,-291.28 109.93,-286.75 106.23,-282.56"/>
<polygon fill="black" stroke="black" points="108.94,-280.32 99.46,-275.58 103.91,-285.19 108.94,-280.32"/>
<polygon fill="white" stroke="none" points="153.75,-421.75 153.75,-443.25 203,-443.25 203,-421.75 153.75,-421.75"/>
<text xml:space="preserve" text-anchor="start" x="157.75" y="-428.75" font-family="Arial" font-size="11.00">category</text>
</g>
<!-- Alert&#45;&gt;Code -->
<g id="edge21" class="edge">
<title>Alert&#45;&gt;Code</title>
<path fill="none" stroke="black" d="M690.21,-603.08C603.83,-599.92 336.27,-588.64 303,-569 276.54,-553.38 242.1,-480.32 226.25,-454 184.64,-384.91 192.6,-354.42 137,-296 130.19,-288.85 121.8,-282.41 113.47,-276.95"/>
<polygon fill="black" stroke="black" points="115.46,-274.06 105.11,-271.78 111.78,-280.01 115.46,-274.06"/>
<polygon fill="white" stroke="none" points="226.25,-421.75 226.25,-443.25 286,-443.25 286,-421.75 226.25,-421.75"/>
<text xml:space="preserve" text-anchor="start" x="230.25" y="-428.75" font-family="Arial" font-size="11.00">distribution</text>
</g>
<!-- Alert&#45;&gt;Code -->
<g id="edge23" class="edge">
<title>Alert&#45;&gt;Code</title>
<path fill="none" stroke="black" d="M690.08,-602.97C610.63,-599.72 381.01,-588.71 354,-569 292.24,-523.94 329.31,-474 286,-411 244.51,-350.66 229,-336.52 168,-296 151.59,-285.1 131.59,-276.23 114.52,-269.76"/>
<polygon fill="black" stroke="black" points="115.81,-266.51 105.22,-266.38 113.42,-273.09 115.81,-266.51"/>
<polygon fill="white" stroke="none" points="305.7,-421.75 305.7,-443.25 342.2,-443.25 342.2,-421.75 305.7,-421.75"/>
<text xml:space="preserve" text-anchor="start" x="309.7" y="-428.75" font-family="Arial" font-size="11.00">cause</text>
</g>
<!-- Alert&#45;&gt;Code -->
<g id="edge25" class="edge">
<title>Alert&#45;&gt;Code</title>
<path fill="none" stroke="black" d="M690.19,-603.93C626.5,-603.27 468.31,-598.63 426,-569 361.53,-523.85 394.69,-472.84 346,-411 297.24,-349.07 280.44,-333.28 211,-296 180.77,-279.77 142.93,-269.71 115.18,-263.96"/>
<polygon fill="black" stroke="black" points="115.93,-260.54 105.44,-262.05 114.58,-267.41 115.93,-260.54"/>
<polygon fill="white" stroke="none" points="369.3,-421.75 369.3,-443.25 417.8,-443.25 417.8,-421.75 369.3,-421.75"/>
<text xml:space="preserve" text-anchor="start" x="373.3" y="-428.75" font-family="Arial" font-size="11.00">certainty</text>
</g>
<!-- Alert&#45;&gt;Code -->
<g id="edge27" class="edge">
<title>Alert&#45;&gt;Code</title>
<path fill="none" stroke="black" d="M690.02,-604.24C653,-603.4 585.53,-597.63 537,-569 479.59,-535.13 477.93,-509.32 440.75,-454 428.69,-436.06 432.19,-427.32 418,-411 360.78,-345.18 338.73,-331.35 259,-296 211.91,-275.12 152.85,-265.31 115.01,-260.89"/>
<polygon fill="black" stroke="black" points="115.81,-257.45 105.49,-259.84 115.05,-264.41 115.81,-257.45"/>
<polygon fill="white" stroke="none" points="440.75,-421.75 440.75,-443.25 529,-443.25 529,-421.75 440.75,-421.75"/>
<text xml:space="preserve" text-anchor="start" x="444.75" y="-428.75" font-family="Arial" font-size="11.00">recommendation</text>
</g>
<!-- Alert&#45;&gt;Code -->
<g id="edge30" class="edge">
<title>Alert&#45;&gt;Code</title>
<path fill="none" stroke="black" d="M690,-602.63C663.38,-599.92 623.01,-592 597,-569 568.37,-543.68 554.86,-439.15 529,-411 455.69,-331.2 416.66,-330.72 314,-296 246.29,-273.1 162.96,-263.61 115.31,-259.83"/>
<polygon fill="black" stroke="black" points="115.74,-256.35 105.5,-259.1 115.22,-263.33 115.74,-256.35"/>
<polygon fill="white" stroke="none" points="549.68,-411 549.68,-454 586.18,-454 586.18,-411 549.68,-411"/>
<text xml:space="preserve" text-anchor="start" x="553.68" y="-439.5" font-family="Arial" font-size="11.00">status</text>
<text xml:space="preserve" text-anchor="start" x="564.93" y="-418" font-family="Arial" font-size="11.00">1</text>
</g>
<!-- Alert&#45;&gt;Code -->
<g id="edge31" class="edge">
<title>Alert&#45;&gt;Code</title>
<path fill="none" stroke="black" d="M690,-589.68C681.23,-584.08 671.98,-577.06 665,-569 652.25,-554.27 601.94,-425.56 589,-411 520.88,-334.36 486.8,-326.81 389,-296 293.59,-265.94 174.88,-259.19 115.13,-257.78"/>
<polygon fill="black" stroke="black" points="115.57,-254.29 105.5,-257.59 115.43,-261.28 115.57,-254.29"/>
<polygon fill="white" stroke="none" points="610.72,-411 610.72,-454 655.47,-454 655.47,-411 610.72,-411"/>
<text xml:space="preserve" text-anchor="start" x="614.72" y="-439.5" font-family="Arial" font-size="11.00">severity</text>
<text xml:space="preserve" text-anchor="start" x="624.09" y="-418" font-family="Arial" font-size="11.00">0..1</text>
</g>
<!-- Alert&#45;&gt;Code -->
<g id="edge36" class="edge">
<title>Alert&#45;&gt;Code</title>
<path fill="none" stroke="black" d="M709.83,-587.03C707.53,-581.35 705.05,-574.94 703,-569 691.08,-534.43 679.33,-439.96 657,-411 650.05,-401.98 465.27,-297.37 461,-296 397.25,-275.51 198.95,-263.54 115.07,-259.28"/>
<polygon fill="black" stroke="black" points="115.47,-255.8 105.3,-258.8 115.12,-262.79 115.47,-255.8"/>
<polygon fill="white" stroke="none" points="674.92,-411 674.92,-454 721.17,-454 721.17,-411 674.92,-411"/>
<text xml:space="preserve" text-anchor="start" x="678.92" y="-439.5" font-family="Arial" font-size="11.00">urgency</text>
<text xml:space="preserve" text-anchor="start" x="689.05" y="-418" font-family="Arial" font-size="11.00">0..1</text>
</g>
<!-- geo_Geometry -->
<g id="node8" class="node">
<title>geo_Geometry</title>
<g id="a_node8"><a xlink:href="https://w3id.org/citydata/imported/geo/latest/Geometry" xlink:title="&lt;TABLE&gt;">
<polygon fill="lightgray" stroke="none" points="25.5,-171.88 25.5,-188.12 102.5,-188.12 102.5,-171.88 25.5,-171.88"/>
<text xml:space="preserve" text-anchor="start" x="26.5" y="-175.88" font-family="Arial" font-size="12.00">geo:Geometry</text>
<polygon fill="none" stroke="black" points="24.5,-170.88 24.5,-189.12 103.5,-189.12 103.5,-170.88 24.5,-170.88"/>
</a>
</g>
</g>
<!-- Alert&#45;&gt;geo_Geometry -->
<g id="edge16" class="edge">
<title>Alert&#45;&gt;geo_Geometry</title>
<path fill="none" stroke="black" d="M719.97,-587.29C726.95,-546.01 742.54,-440.47 725,-411 724.57,-410.28 513.78,-296.31 513,-296 373.49,-241.27 199.33,-205.3 114.77,-189.77"/>
<polygon fill="black" stroke="black" points="115.4,-186.33 104.94,-187.99 114.15,-193.22 115.4,-186.33"/>
<polygon fill="white" stroke="none" points="691.1,-364.25 691.1,-385.75 735.85,-385.75 735.85,-364.25 691.1,-364.25"/>
<text xml:space="preserve" text-anchor="start" x="695.1" y="-371.25" font-family="Arial" font-size="11.00">location</text>
</g>
<!-- owl_Thing -->
<g id="node9" class="node">
<title>owl_Thing</title>
<g id="a_node9"><a xlink:href="https://w3id.org/citydata/imported/owl/latest/Thing" xlink:title="&lt;TABLE&gt;">
<polygon fill="lightgray" stroke="none" points="48.75,-98.88 48.75,-115.12 103.25,-115.12 103.25,-98.88 48.75,-98.88"/>
<text xml:space="preserve" text-anchor="start" x="49.75" y="-102.88" font-family="Arial" font-size="12.00">owl:Thing</text>
<polygon fill="none" stroke="black" points="47.75,-97.88 47.75,-116.12 104.25,-116.12 104.25,-97.88 47.75,-97.88"/>
</a>
</g>
</g>
<!-- Alert&#45;&gt;owl_Thing -->
<g id="edge11" class="edge">
<title>Alert&#45;&gt;owl_Thing</title>
<path fill="none" stroke="black" d="M730.76,-587.17C734.47,-581.7 738,-575.38 740,-569 768.18,-479.08 799.58,-427.45 737,-357 713.59,-330.64 693.11,-350.41 659.75,-339 616.38,-324.17 608.25,-313.77 566,-296 399.99,-226.16 198.21,-152.09 114.87,-121.96"/>
<polygon fill="black" stroke="black" points="116.17,-118.7 105.57,-118.6 113.79,-125.29 116.17,-118.7"/>
<polygon fill="white" stroke="none" points="659.75,-296 659.75,-339 706,-339 706,-296 659.75,-296"/>
<text xml:space="preserve" text-anchor="start" x="663.75" y="-324.5" font-family="Arial" font-size="11.00">urgency</text>
<text xml:space="preserve" text-anchor="start" x="673.88" y="-303" font-family="Arial" font-size="11.00">0..1</text>
</g>
<!-- Alert&#45;&gt;owl_Thing -->
<g id="edge13" class="edge">
<title>Alert&#45;&gt;owl_Thing</title>
<path fill="none" stroke="black" d="M743.69,-587.04C750.11,-581.91 756.42,-575.8 761,-569 776.79,-545.56 774.96,-535.98 779,-508 788.65,-441.21 805.59,-409.35 763,-357 752.33,-343.89 741.49,-350.91 729.5,-339 714.05,-323.65 722.8,-309.86 706,-296 523.11,-145.13 222.25,-115.32 115.27,-109.44"/>
<polygon fill="black" stroke="black" points="115.74,-105.96 105.58,-108.95 115.39,-112.95 115.74,-105.96"/>
<polygon fill="white" stroke="none" points="729.5,-296 729.5,-339 766,-339 766,-296 729.5,-296"/>
<text xml:space="preserve" text-anchor="start" x="733.5" y="-324.5" font-family="Arial" font-size="11.00">issuer</text>
<text xml:space="preserve" text-anchor="start" x="744.75" y="-303" font-family="Arial" font-size="11.00">1</text>
</g>
<!-- Alert&#45;&gt;owl_Thing -->
<g id="edge17" class="edge">
<title>Alert&#45;&gt;owl_Thing</title>
<path fill="none" stroke="black" d="M743.82,-595.92C757.52,-590.45 773.31,-581.84 783,-569 799.7,-546.88 791.33,-535.32 796,-508 800.08,-484.15 801.44,-478.15 803,-454 804.23,-434.93 805.58,-429.94 803,-411 799.37,-384.4 783.16,-316.65 766,-296 646.75,-152.46 559.93,-167.98 375,-143 282.16,-130.46 172.74,-118.32 115.48,-112.17"/>
<polygon fill="black" stroke="black" points="115.89,-108.69 105.58,-111.11 115.15,-115.65 115.89,-108.69"/>
<polygon fill="white" stroke="none" points="785.6,-296 785.6,-339 864.1,-339 864.1,-296 785.6,-296"/>
<text xml:space="preserve" text-anchor="start" x="789.6" y="-324.5" font-family="Arial" font-size="11.00">creationInstant</text>
<text xml:space="preserve" text-anchor="start" x="821.85" y="-303" font-family="Arial" font-size="11.00">1</text>
</g>
<!-- Alert&#45;&gt;owl_Thing -->
<g id="edge19" class="edge">
<title>Alert&#45;&gt;owl_Thing</title>
<path fill="none" stroke="black" d="M743.65,-599.34C792.18,-589.15 890,-560.06 890,-491 890,-491 890,-491 890,-179 890,-139.64 278.16,-115.16 115.38,-109.35"/>
<polygon fill="black" stroke="black" points="115.65,-105.85 105.53,-109 115.4,-112.85 115.65,-105.85"/>
<polygon fill="white" stroke="none" points="890,-296 890,-339 948.25,-339 948.25,-296 890,-296"/>
<text xml:space="preserve" text-anchor="start" x="894" y="-324.5" font-family="Arial" font-size="11.00">endInstant</text>
<text xml:space="preserve" text-anchor="start" x="910.12" y="-303" font-family="Arial" font-size="11.00">0..1</text>
</g>
<!-- Alert&#45;&gt;owl_Thing -->
<g id="edge22" class="edge">
<title>Alert&#45;&gt;owl_Thing</title>
<path fill="none" stroke="black" d="M743.7,-604.1C808.92,-602.82 971,-589.7 971,-491 971,-491 971,-491 971,-179 971,-135.43 288.07,-113.8 115.33,-109.03"/>
<polygon fill="black" stroke="black" points="115.62,-105.54 105.53,-108.76 115.43,-112.53 115.62,-105.54"/>
<polygon fill="white" stroke="none" points="971,-296 971,-339 1063,-339 1063,-296 971,-296"/>
<text xml:space="preserve" text-anchor="start" x="975" y="-324.5" font-family="Arial" font-size="11.00">lastUpdateInstant</text>
<text xml:space="preserve" text-anchor="start" x="1014" y="-303" font-family="Arial" font-size="11.00">1</text>
</g>
<!-- Alert&#45;&gt;owl_Thing -->
<g id="edge24" class="edge">
<title>Alert&#45;&gt;owl_Thing</title>
<path fill="none" stroke="black" d="M743.99,-603.48C789.16,-601.85 882.34,-595.3 956,-569 1019.46,-546.34 1086,-558.38 1086,-491 1086,-491 1086,-491 1086,-179 1086,-129.44 302,-112.1 115.47,-108.67"/>
<polygon fill="black" stroke="black" points="115.64,-105.17 105.58,-108.49 115.52,-112.17 115.64,-105.17"/>
<polygon fill="white" stroke="none" points="1086,-296 1086,-339 1152.5,-339 1152.5,-296 1086,-296"/>
<text xml:space="preserve" text-anchor="start" x="1090" y="-324.5" font-family="Arial" font-size="11.00">beginInstant</text>
<text xml:space="preserve" text-anchor="start" x="1110.25" y="-303" font-family="Arial" font-size="11.00">0..1</text>
</g>
<!-- Alert&#45;&gt;owl_Thing -->
<g id="edge26" class="edge">
<title>Alert&#45;&gt;owl_Thing</title>
<path fill="none" stroke="black" d="M744,-603.2C842.39,-599.54 1176,-580.56 1176,-491 1176,-491 1176,-491 1176,-179 1176,-124.73 312.06,-110.89 115.47,-108.44"/>
<polygon fill="black" stroke="black" points="115.57,-104.94 105.53,-108.32 115.49,-111.94 115.57,-104.94"/>
<polygon fill="white" stroke="none" points="1176,-296 1176,-339 1212.5,-339 1212.5,-296 1176,-296"/>
<text xml:space="preserve" text-anchor="start" x="1180" y="-324.5" font-family="Arial" font-size="11.00">status</text>
<text xml:space="preserve" text-anchor="start" x="1191.25" y="-303" font-family="Arial" font-size="11.00">1</text>
</g>
<!-- Alert&#45;&gt;owl_Thing -->
<g id="edge28" class="edge">
<title>Alert&#45;&gt;owl_Thing</title>
<path fill="none" stroke="black" d="M743.92,-603.72C822.18,-602.6 1048.36,-596.95 1116,-569 1155.08,-552.86 1168.33,-544.88 1189,-508 1226.59,-440.92 1245.95,-214.74 1190,-162 1150.11,-124.39 308.7,-111.06 115.36,-108.49"/>
<polygon fill="black" stroke="black" points="115.64,-104.99 105.6,-108.36 115.55,-111.99 115.64,-104.99"/>
<polygon fill="white" stroke="none" points="1224.98,-296 1224.98,-339 1269.73,-339 1269.73,-296 1224.98,-296"/>
<text xml:space="preserve" text-anchor="start" x="1228.98" y="-324.5" font-family="Arial" font-size="11.00">severity</text>
<text xml:space="preserve" text-anchor="start" x="1238.36" y="-303" font-family="Arial" font-size="11.00">0..1</text>
</g>
<!-- time_Instant -->
<g id="node10" class="node">
<title>time_Instant</title>
<g id="a_node10"><a xlink:href="https://w3id.org/citydata/imported/time/latest/Instant" xlink:title="&lt;TABLE&gt;">
<polygon fill="lightgray" stroke="none" points="40.62,-25.88 40.62,-42.12 103.38,-42.12 103.38,-25.88 40.62,-25.88"/>
<text xml:space="preserve" text-anchor="start" x="41.62" y="-29.88" font-family="Arial" font-size="12.00">time:Instant</text>
<polygon fill="none" stroke="black" points="39.62,-24.88 39.62,-43.12 104.38,-43.12 104.38,-24.88 39.62,-24.88"/>
</a>
</g>
</g>
<!-- Alert&#45;&gt;time_Instant -->
<g id="edge18" class="edge">
<title>Alert&#45;&gt;time_Instant</title>
<path fill="none" stroke="black" d="M743.74,-603.12C834.05,-599.99 1124.13,-588.49 1161,-569 1261.69,-515.76 1253.5,-451.03 1274,-339 1283.83,-285.31 1260,-271.58 1260,-217 1260,-217 1260,-217 1260,-106 1260,-47.48 329.27,-36.93 115.43,-35.28"/>
<polygon fill="black" stroke="black" points="115.62,-31.78 105.6,-35.21 115.57,-38.78 115.62,-31.78"/>
<polygon fill="white" stroke="none" points="1270.49,-245.75 1270.49,-267.25 1339.24,-267.25 1339.24,-245.75 1270.49,-245.75"/>
<text xml:space="preserve" text-anchor="start" x="1274.49" y="-252.75" font-family="Arial" font-size="11.00">expiryInstant</text>
</g>
<!-- Alert&#45;&gt;time_Instant -->
<g id="edge29" class="edge">
<title>Alert&#45;&gt;time_Instant</title>
<path fill="none" stroke="black" d="M743.95,-603.39C832.72,-601.16 1115.23,-592.38 1203,-569 1280.22,-548.43 1365,-570.91 1365,-491 1365,-491 1365,-491 1365,-106 1365,-41.98 341.18,-35.68 115.62,-35.06"/>
<polygon fill="black" stroke="black" points="115.81,-31.56 105.8,-35.04 115.79,-38.56 115.81,-31.56"/>
<polygon fill="white" stroke="none" points="1365,-235 1365,-278 1431.5,-278 1431.5,-235 1365,-235"/>
<text xml:space="preserve" text-anchor="start" x="1369" y="-263.5" font-family="Arial" font-size="11.00">beginInstant</text>
<text xml:space="preserve" text-anchor="start" x="1389.25" y="-242" font-family="Arial" font-size="11.00">0..1</text>
</g>
<!-- Alert&#45;&gt;time_Instant -->
<g id="edge32" class="edge">
<title>Alert&#45;&gt;time_Instant</title>
<path fill="none" stroke="black" d="M743.95,-603.64C843.03,-602.1 1186.81,-594.99 1293,-569 1375.71,-548.76 1468,-576.15 1468,-491 1468,-491 1468,-491 1468,-106 1468,-36.53 350.85,-34.53 115.28,-34.88"/>
<polygon fill="black" stroke="black" points="115.62,-31.38 105.63,-34.9 115.64,-38.38 115.62,-31.38"/>
<polygon fill="white" stroke="none" points="1468,-235 1468,-278 1526.25,-278 1526.25,-235 1468,-235"/>
<text xml:space="preserve" text-anchor="start" x="1472" y="-263.5" font-family="Arial" font-size="11.00">endInstant</text>
<text xml:space="preserve" text-anchor="start" x="1488.12" y="-242" font-family="Arial" font-size="11.00">0..1</text>
</g>
<!-- Alert&#45;&gt;time_Instant -->
<g id="edge33" class="edge">
<title>Alert&#45;&gt;time_Instant</title>
<path fill="none" stroke="black" d="M743.88,-603.93C853.17,-603.46 1264.25,-599.62 1390,-569 1471.55,-549.14 1562,-574.94 1562,-491 1562,-491 1562,-491 1562,-106 1562,-31.59 360.75,-33.56 115.43,-34.74"/>
<polygon fill="black" stroke="black" points="115.65,-31.24 105.67,-34.79 115.69,-38.24 115.65,-31.24"/>
<polygon fill="white" stroke="none" points="1562,-235 1562,-278 1654,-278 1654,-235 1562,-235"/>
<text xml:space="preserve" text-anchor="start" x="1566" y="-263.5" font-family="Arial" font-size="11.00">lastUpdateInstant</text>
<text xml:space="preserve" text-anchor="start" x="1605" y="-242" font-family="Arial" font-size="11.00">1</text>
</g>
<!-- Alert&#45;&gt;time_Instant -->
<g id="edge34" class="edge">
<title>Alert&#45;&gt;time_Instant</title>
<path fill="none" stroke="black" d="M743.97,-603.92C862.74,-603.41 1339.79,-599.45 1486,-569 1581.03,-549.21 1690,-588.07 1690,-491 1690,-491 1690,-491 1690,-106 1690,-0.34 1560.25,-79.36 1455,-70 1185.69,-46.06 320.41,-37.16 115.71,-35.36"/>
<polygon fill="black" stroke="black" points="115.81,-31.86 105.78,-35.27 115.75,-38.86 115.81,-31.86"/>
<polygon fill="white" stroke="none" points="1690,-235 1690,-278 1768.5,-278 1768.5,-235 1690,-235"/>
<text xml:space="preserve" text-anchor="start" x="1694" y="-263.5" font-family="Arial" font-size="11.00">creationInstant</text>
<text xml:space="preserve" text-anchor="start" x="1726.25" y="-242" font-family="Arial" font-size="11.00">1</text>
</g>
<!-- Invis&#45;&gt;cdm1_Activity -->
<!-- cdm1_Activity&#45;&gt;cdm1_Agent -->
<!-- cdm1_Agent&#45;&gt;cdm1_Resource -->
<!-- cdm1_Resource&#45;&gt;Code -->
<!-- Code&#45;&gt;geo_Geometry -->
<!-- geo_Geometry&#45;&gt;owl_Thing -->
<!-- owl_Thing&#45;&gt;time_Instant -->
</g>
</svg>
