<?xml version="1.0" encoding="UTF-8" standalone="no"?>
<!DOCTYPE svg PUBLIC "-//W3C//DTD SVG 1.1//EN"
 "http://www.w3.org/Graphics/SVG/1.1/DTD/svg11.dtd">
<!-- Generated by graphviz version 14.0.2 (20251019.1705)
 -->
<!-- Pages: 1 -->
<svg width="809pt" height="885pt"
 viewBox="0.00 0.00 809.00 885.00" xmlns="http://www.w3.org/2000/svg" xmlns:xlink="http://www.w3.org/1999/xlink">
<g id="graph0" class="graph" transform="scale(1 1) rotate(0) translate(4 880.5)">
<polygon fill="white" stroke="none" points="-4,4 -4,-880.5 805,-880.5 805,4 -4,4"/>
<g id="clust2" class="cluster">
<title>cluster_associated</title>
</g>
<!-- Building -->
<g id="node1" class="node">
<title>Building</title>
<g id="a_node1"><a xlink:href="../Building.md" xlink:title="&lt;TABLE&gt;">
<polygon fill="lightgray" stroke="none" points="147.62,-786.25 147.62,-802.5 462.38,-802.5 462.38,-786.25 147.62,-786.25"/>
<text xml:space="preserve" text-anchor="start" x="282.88" y="-790.1" font-family="Arial" font-size="12.00">Building</text>
<text xml:space="preserve" text-anchor="start" x="148.62" y="-773.85" font-family="Arial" font-size="12.00">«only» builtAccordingToConstructionCode: xsd:string</text>
<text xml:space="preserve" text-anchor="start" x="148.62" y="-757.6" font-family="Arial" font-size="12.00">«exactly 1» numFloors: xsd:nonNegativeInteger</text>
<text xml:space="preserve" text-anchor="start" x="148.62" y="-741.35" font-family="Arial" font-size="12.00">«max 1» numAboveGroundFloors: xsd:nonNegativeInteger</text>
<text xml:space="preserve" text-anchor="start" x="148.62" y="-725.1" font-family="Arial" font-size="12.00">«max 1» numBuildingUnits: xsd:nonNegativeInteger</text>
<text xml:space="preserve" text-anchor="start" x="148.62" y="-708.85" font-family="Arial" font-size="12.00">«max 1» propertyRegistrationID: rdfs:Literal</text>
<polygon fill="black" stroke="black" points="146.62,-786.25 146.62,-786.25 463.38,-786.25 463.38,-786.25 146.62,-786.25"/>
<polygon fill="none" stroke="black" points="146.62,-704 146.62,-803.5 463.38,-803.5 463.38,-704 146.62,-704"/>
</a>
</g>
</g>
<!-- Invis -->
<!-- Building&#45;&gt;Invis -->
<!-- AreaRatio -->
<g id="node3" class="node">
<title>AreaRatio</title>
<g id="a_node3"><a xlink:href="../AreaRatio.md" xlink:title="&lt;TABLE&gt;">
<polygon fill="lightgray" stroke="none" points="26,-614.88 26,-631.12 82,-631.12 82,-614.88 26,-614.88"/>
<text xml:space="preserve" text-anchor="start" x="27" y="-618.73" font-family="Arial" font-size="12.00">AreaRatio</text>
<polygon fill="none" stroke="black" points="25,-613.88 25,-632.12 83,-632.12 83,-613.88 25,-613.88"/>
</a>
</g>
</g>
<!-- Building&#45;&gt;AreaRatio -->
<g id="edge19" class="edge">
<title>Building&#45;&gt;AreaRatio</title>
<path fill="none" stroke="black" d="M146.74,-707.13C142.46,-706.05 138.2,-705.01 134,-704 93.59,-694.29 68.65,-718.09 42.25,-686 34.31,-676.35 35.78,-662.99 39.85,-651.14"/>
<polygon fill="black" stroke="black" points="42.94,-652.81 43.54,-642.23 36.48,-650.13 42.94,-652.81"/>
<text xml:space="preserve" text-anchor="middle" x="80.12" y="-675.55" font-family="Arial" font-size="11.00"> floorAreaRatio </text>
<text xml:space="preserve" text-anchor="middle" x="80.12" y="-662.05" font-family="Arial" font-size="11.00"> «max 1» &#160;</text>
</g>
<!-- Building&#45;&gt;AreaRatio -->
<g id="edge21" class="edge">
<title>Building&#45;&gt;AreaRatio</title>
<path fill="none" stroke="black" d="M170.35,-704.11C160.18,-698.58 150.35,-692.54 141.25,-686 128.39,-676.75 130.31,-668.96 118,-659 110.36,-652.82 101.46,-647.17 92.78,-642.29"/>
<polygon fill="black" stroke="black" points="94.58,-639.28 84.11,-637.66 91.28,-645.46 94.58,-639.28"/>
<text xml:space="preserve" text-anchor="middle" x="191.12" y="-675.55" font-family="Arial" font-size="11.00"> windowToWallRatio </text>
<text xml:space="preserve" text-anchor="middle" x="191.12" y="-662.05" font-family="Arial" font-size="11.00"> «max 1» &#160;</text>
</g>
<!-- BuildingUnit -->
<g id="node4" class="node">
<title>BuildingUnit</title>
<g id="a_node4"><a xlink:href="../BuildingUnit.md" xlink:title="&lt;TABLE&gt;">
<polygon fill="lightgray" stroke="none" points="47,-515.88 47,-532.12 115,-532.12 115,-515.88 47,-515.88"/>
<text xml:space="preserve" text-anchor="start" x="48" y="-519.73" font-family="Arial" font-size="12.00">BuildingUnit</text>
<polygon fill="none" stroke="black" points="46,-514.88 46,-533.12 116,-533.12 116,-514.88 46,-514.88"/>
</a>
</g>
</g>
<!-- Building&#45;&gt;BuildingUnit -->
<g id="edge17" class="edge">
<title>Building&#45;&gt;BuildingUnit</title>
<path fill="none" stroke="black" d="M281.37,-704.15C271.09,-687.58 257.57,-670.39 241,-659 212.39,-639.34 193.88,-660.26 165,-641 131.73,-618.81 107.11,-578.71 93.4,-551.97"/>
<polygon fill="black" stroke="black" points="96.6,-550.53 89.03,-543.12 90.32,-553.63 96.6,-550.53"/>
<text xml:space="preserve" text-anchor="middle" x="205.5" y="-626.05" font-family="Arial" font-size="11.00"> hasBuildingUnit </text>
<text xml:space="preserve" text-anchor="middle" x="205.5" y="-612.55" font-family="Arial" font-size="11.00"> «only» &#160;</text>
</g>
<!-- BuildingUse -->
<g id="node5" class="node">
<title>BuildingUse</title>
<g id="a_node5"><a xlink:href="../BuildingUse.md" xlink:title="&lt;TABLE&gt;">
<polygon fill="lightgray" stroke="none" points="53,-416.88 53,-433.12 121,-433.12 121,-416.88 53,-416.88"/>
<text xml:space="preserve" text-anchor="start" x="54" y="-420.73" font-family="Arial" font-size="12.00">BuildingUse</text>
<polygon fill="none" stroke="black" points="52,-415.88 52,-434.12 122,-434.12 122,-415.88 52,-415.88"/>
</a>
</g>
</g>
<!-- Building&#45;&gt;BuildingUse -->
<g id="edge18" class="edge">
<title>Building&#45;&gt;BuildingUse</title>
<path fill="none" stroke="black" d="M292.44,-704.02C283,-673.58 267.89,-634.67 246,-605 232.77,-587.07 183.2,-558.3 168,-542 141.91,-514.02 117.58,-477.15 102.53,-452.56"/>
<polygon fill="black" stroke="black" points="105.61,-450.89 97.45,-444.13 99.62,-454.51 105.61,-450.89"/>
<text xml:space="preserve" text-anchor="middle" x="246.44" y="-576.55" font-family="Arial" font-size="11.00"> use </text>
<text xml:space="preserve" text-anchor="middle" x="246.44" y="-563.05" font-family="Arial" font-size="11.00"> «only» &#160;</text>
</g>
<!-- cdm1_Area -->
<g id="node6" class="node">
<title>cdm1_Area</title>
<polygon fill="lightgray" stroke="none" points="60.12,-317.88 60.12,-334.12 119.88,-334.12 119.88,-317.88 60.12,-317.88"/>
<text xml:space="preserve" text-anchor="start" x="61.12" y="-321.73" font-family="Arial" font-size="12.00">cdm1:Area</text>
<polygon fill="none" stroke="black" points="59.12,-316.88 59.12,-335.12 120.88,-335.12 120.88,-316.88 59.12,-316.88"/>
</g>
<!-- Building&#45;&gt;cdm1_Area -->
<g id="edge14" class="edge">
<title>Building&#45;&gt;cdm1_Area</title>
<path fill="none" stroke="black" d="M309.84,-704.33C311.36,-660.93 306.16,-598.36 270,-560 249.29,-538.03 228.07,-560.86 204.5,-542 200.4,-538.72 133.69,-411.01 104.03,-354"/>
<polygon fill="black" stroke="black" points="107.2,-352.51 99.48,-345.26 100.99,-355.74 107.2,-352.51"/>
<text xml:space="preserve" text-anchor="middle" x="259.25" y="-527.05" font-family="Arial" font-size="11.00"> hasBuildingFloorArea </text>
<text xml:space="preserve" text-anchor="middle" x="259.25" y="-513.55" font-family="Arial" font-size="11.00"> «only» &#160;</text>
</g>
<!-- Building&#45;&gt;cdm1_Area -->
<g id="edge15" class="edge">
<title>Building&#45;&gt;cdm1_Area</title>
<path fill="none" stroke="black" d="M322.4,-704.19C329.47,-680.35 336,-651.01 336,-624 336,-624 336,-624 336,-424 336,-380.62 201.94,-348.43 131.75,-334.54"/>
<polygon fill="black" stroke="black" points="132.63,-331.15 122.14,-332.68 131.3,-338.02 132.63,-331.15"/>
<text xml:space="preserve" text-anchor="middle" x="399.75" y="-527.05" font-family="Arial" font-size="11.00"> hasBuildingFootprintArea </text>
<text xml:space="preserve" text-anchor="middle" x="399.75" y="-513.55" font-family="Arial" font-size="11.00"> «only» &#160;</text>
</g>
<!-- cdm1_Length -->
<g id="node7" class="node">
<title>cdm1_Length</title>
<polygon fill="lightgray" stroke="none" points="49.5,-244.88 49.5,-261.12 120.5,-261.12 120.5,-244.88 49.5,-244.88"/>
<text xml:space="preserve" text-anchor="start" x="50.5" y="-248.72" font-family="Arial" font-size="12.00">cdm1:Length</text>
<polygon fill="none" stroke="black" points="48.5,-243.88 48.5,-262.12 121.5,-262.12 121.5,-243.88 48.5,-243.88"/>
</g>
<!-- Building&#45;&gt;cdm1_Length -->
<g id="edge16" class="edge">
<title>Building&#45;&gt;cdm1_Length</title>
<path fill="none" stroke="black" d="M375.12,-704.07C438.16,-654.15 514.27,-574.34 468,-506 455.92,-488.16 440.67,-500.32 423,-488 383.25,-460.28 386.03,-439.41 350,-407 282.66,-346.42 187.46,-298.66 131.39,-273.52"/>
<polygon fill="black" stroke="black" points="133,-270.41 122.44,-269.56 130.16,-276.81 133,-270.41"/>
<text xml:space="preserve" text-anchor="middle" x="469.5" y="-477.55" font-family="Arial" font-size="11.00"> hasBuildingHeight </text>
<text xml:space="preserve" text-anchor="middle" x="469.5" y="-464.05" font-family="Arial" font-size="11.00"> «only» &#160;</text>
</g>
<!-- ConstructionStatus -->
<g id="node8" class="node">
<title>ConstructionStatus</title>
<g id="a_node8"><a xlink:href="../ConstructionStatus.md" xlink:title="&lt;TABLE&gt;">
<polygon fill="lightgray" stroke="none" points="17.38,-171.88 17.38,-188.12 120.62,-188.12 120.62,-171.88 17.38,-171.88"/>
<text xml:space="preserve" text-anchor="start" x="18.38" y="-175.72" font-family="Arial" font-size="12.00">ConstructionStatus</text>
<polygon fill="none" stroke="black" points="16.38,-170.88 16.38,-189.12 121.62,-189.12 121.62,-170.88 16.38,-170.88"/>
</a>
</g>
</g>
<!-- Building&#45;&gt;ConstructionStatus -->
<g id="edge20" class="edge">
<title>Building&#45;&gt;ConstructionStatus</title>
<path fill="none" stroke="black" d="M401.32,-704.23C426.4,-687.36 451.09,-666.22 468,-641 514.1,-572.22 558.6,-532 516,-461 507.25,-446.42 492.48,-456.57 482.25,-443 464.05,-418.86 468,-406.73 468,-376.5 468,-376.5 468,-376.5 468,-252 468,-218.37 245.47,-195.37 132.78,-185.88"/>
<polygon fill="black" stroke="black" points="133.34,-182.42 123.08,-185.08 132.76,-189.39 133.34,-182.42"/>
<text xml:space="preserve" text-anchor="middle" x="539.62" y="-428.05" font-family="Arial" font-size="11.00"> hasConstructionStatus </text>
<text xml:space="preserve" text-anchor="middle" x="539.62" y="-414.55" font-family="Arial" font-size="11.00"> «max 1» &#160;</text>
</g>
<!-- Facility -->
<g id="node9" class="node">
<title>Facility</title>
<g id="a_node9"><a xlink:href="../Facility.md" xlink:title="&lt;TABLE&gt;">
<polygon fill="lightgray" stroke="none" points="74.88,-98.88 74.88,-115.12 115.12,-115.12 115.12,-98.88 74.88,-98.88"/>
<text xml:space="preserve" text-anchor="start" x="75.88" y="-102.72" font-family="Arial" font-size="12.00">Facility</text>
<polygon fill="none" stroke="black" points="73.88,-97.88 73.88,-116.12 116.12,-116.12 116.12,-97.88 73.88,-97.88"/>
</a>
</g>
</g>
<!-- Building&#45;&gt;Facility -->
<g id="edge13" class="edge">
<title>Building&#45;&gt;Facility</title>
<path fill="none" stroke="black" d="M462.93,-742.79C537.75,-728.56 611,-696.19 611,-624 611,-624 611,-624 611,-179 611,-130.75 252.37,-113.6 133.08,-109.23"/>
<polygon fill="black" stroke="black" points="133.29,-105.74 123.17,-108.88 133.04,-112.74 133.29,-105.74"/>
<text xml:space="preserve" text-anchor="middle" x="648.88" y="-378.55" font-family="Arial" font-size="11.00"> buildingFacility </text>
<text xml:space="preserve" text-anchor="middle" x="648.88" y="-365.05" font-family="Arial" font-size="11.00"> «only» &#160;</text>
</g>
<!-- Year -->
<g id="node10" class="node">
<title>Year</title>
<g id="a_node10"><a xlink:href="../Year.md" xlink:title="&lt;TABLE&gt;">
<polygon fill="lightgray" stroke="none" points="82,-25.88 82,-42.12 108,-42.12 108,-25.88 82,-25.88"/>
<text xml:space="preserve" text-anchor="start" x="83" y="-29.73" font-family="Arial" font-size="12.00">Year</text>
<polygon fill="none" stroke="black" points="81,-24.88 81,-43.12 109,-43.12 109,-24.88 81,-24.88"/>
</a>
</g>
</g>
<!-- Building&#45;&gt;Year -->
<g id="edge12" class="edge">
<title>Building&#45;&gt;Year</title>
<path fill="none" stroke="black" d="M463.33,-730.91C573.98,-711.04 702,-676.67 702,-624 702,-624 702,-624 702,-106 702,-48.45 266.05,-37.45 133.06,-35.44"/>
<polygon fill="black" stroke="black" points="133.43,-31.94 123.38,-35.3 133.33,-38.94 133.43,-31.94"/>
<text xml:space="preserve" text-anchor="middle" x="751.5" y="-329.05" font-family="Arial" font-size="11.00"> yearOfConstruction </text>
<text xml:space="preserve" text-anchor="middle" x="751.5" y="-315.55" font-family="Arial" font-size="11.00"> «max 1» &#160;</text>
</g>
<!-- BuildingThing -->
<g id="node11" class="node">
<title>BuildingThing</title>
<g id="a_node11"><a xlink:href="../BuildingThing.md" xlink:title="&lt;TABLE&gt;">
<polygon fill="lightgray" stroke="none" points="208.5,-850.38 208.5,-866.62 285.5,-866.62 285.5,-850.38 208.5,-850.38"/>
<text xml:space="preserve" text-anchor="start" x="209.5" y="-854.23" font-family="Arial" font-size="12.00">BuildingThing</text>
<polygon fill="none" stroke="black" points="207.5,-849.38 207.5,-867.62 286.5,-867.62 286.5,-849.38 207.5,-849.38"/>
</a>
</g>
</g>
<!-- Building&#45;&gt;BuildingThing -->
<g id="edge1" class="edge">
<title>Building&#45;&gt;BuildingThing</title>
<path fill="none" stroke="black" d="M277.63,-803.24C272.32,-812.65 266.93,-822.19 262.19,-830.59"/>
<polygon fill="none" stroke="black" points="259.19,-828.79 257.32,-839.21 265.29,-832.23 259.19,-828.79"/>
</g>
<!-- InfrastructureElement -->
<g id="node12" class="node">
<title>InfrastructureElement</title>
<g id="a_node12"><a xlink:href="../InfrastructureElement.md" xlink:title="&lt;TABLE&gt;">
<polygon fill="lightgray" stroke="none" points="305.38,-850.38 305.38,-866.62 420.62,-866.62 420.62,-850.38 305.38,-850.38"/>
<text xml:space="preserve" text-anchor="start" x="306.38" y="-854.23" font-family="Arial" font-size="12.00">InfrastructureElement</text>
<polygon fill="none" stroke="black" points="304.38,-849.38 304.38,-867.62 421.62,-867.62 421.62,-849.38 304.38,-849.38"/>
</a>
</g>
</g>
<!-- Building&#45;&gt;InfrastructureElement -->
<g id="edge2" class="edge">
<title>Building&#45;&gt;InfrastructureElement</title>
<path fill="none" stroke="black" d="M332.37,-803.24C337.68,-812.65 343.07,-822.19 347.81,-830.59"/>
<polygon fill="none" stroke="black" points="344.71,-832.23 352.68,-839.21 350.81,-828.79 344.71,-832.23"/>
</g>
<!-- Invis&#45;&gt;AreaRatio -->
<!-- AreaRatio&#45;&gt;BuildingUnit -->
<!-- BuildingUnit&#45;&gt;BuildingUse -->
<!-- BuildingUse&#45;&gt;cdm1_Area -->
<!-- cdm1_Area&#45;&gt;cdm1_Length -->
<!-- cdm1_Length&#45;&gt;ConstructionStatus -->
<!-- ConstructionStatus&#45;&gt;Facility -->
<!-- Facility&#45;&gt;Year -->
</g>
</svg>
