<?xml version="1.0" encoding="UTF-8" standalone="no"?>
<!DOCTYPE svg PUBLIC "-//W3C//DTD SVG 1.1//EN"
 "http://www.w3.org/Graphics/SVG/1.1/DTD/svg11.dtd">
<!-- Generated by graphviz version 14.0.2 (20251019.1705)
 -->
<!-- Pages: 1 -->
<svg width="243pt" height="232pt"
 viewBox="0.00 0.00 243.00 232.00" xmlns="http://www.w3.org/2000/svg" xmlns:xlink="http://www.w3.org/1999/xlink">
<g id="graph0" class="graph" transform="scale(1 1) rotate(0) translate(4 228)">
<polygon fill="white" stroke="none" points="-4,4 -4,-228 238.62,-228 238.62,4 -4,4"/>
<g id="clust2" class="cluster">
<title>cluster_associated</title>
</g>
<!-- BusinessEstablishment -->
<g id="node1" class="node">
<title>BusinessEstablishment</title>
<g id="a_node1"><a xlink:href="../BusinessEstablishment.md" xlink:title="&lt;TABLE&gt;">
<polygon fill="lightgray" stroke="none" points="106.38,-124.88 106.38,-141.12 233.62,-141.12 233.62,-124.88 106.38,-124.88"/>
<text xml:space="preserve" text-anchor="start" x="107.38" y="-128.72" font-family="Arial" font-size="12.00">BusinessEstablishment</text>
<polygon fill="none" stroke="black" points="105.38,-123.88 105.38,-142.12 234.62,-142.12 234.62,-123.88 105.38,-123.88"/>
</a>
</g>
</g>
<!-- Invis -->
<!-- BusinessEstablishment&#45;&gt;Invis -->
<!-- Address -->
<g id="node3" class="node">
<title>Address</title>
<g id="a_node3"><a xlink:href="../Address.md" xlink:title="&lt;TABLE&gt;">
<polygon fill="lightgray" stroke="none" points="19.88,-25.88 19.88,-42.12 66.12,-42.12 66.12,-25.88 19.88,-25.88"/>
<text xml:space="preserve" text-anchor="start" x="20.88" y="-29.73" font-family="Arial" font-size="12.00">Address</text>
<polygon fill="none" stroke="black" points="18.88,-24.88 18.88,-43.12 67.12,-43.12 67.12,-24.88 18.88,-24.88"/>
</a>
</g>
</g>
<!-- BusinessEstablishment&#45;&gt;Address -->
<g id="edge4" class="edge">
<title>BusinessEstablishment&#45;&gt;Address</title>
<path fill="none" stroke="black" d="M147.88,-115.1C127.39,-99.46 96.73,-76.03 73.84,-58.55"/>
<polygon fill="black" stroke="black" points="76.14,-55.91 66.07,-52.62 71.89,-61.47 76.14,-55.91"/>
<text xml:space="preserve" text-anchor="middle" x="153.11" y="-86.55" font-family="Arial" font-size="11.00"> hasAddress </text>
<text xml:space="preserve" text-anchor="middle" x="153.11" y="-73.05" font-family="Arial" font-size="11.00"> «only» &#160;</text>
</g>
<!-- CityOrgThing -->
<g id="node4" class="node">
<title>CityOrgThing</title>
<g id="a_node4"><a xlink:href="../CityOrgThing.md" xlink:title="&lt;TABLE&gt;">
<polygon fill="lightgray" stroke="none" points="133.38,-197.88 133.38,-214.12 206.62,-214.12 206.62,-197.88 133.38,-197.88"/>
<text xml:space="preserve" text-anchor="start" x="134.38" y="-201.72" font-family="Arial" font-size="12.00">CityOrgThing</text>
<polygon fill="none" stroke="black" points="132.38,-196.88 132.38,-215.12 207.62,-215.12 207.62,-196.88 132.38,-196.88"/>
</a>
</g>
</g>
<!-- BusinessEstablishment&#45;&gt;CityOrgThing -->
<g id="edge1" class="edge">
<title>BusinessEstablishment&#45;&gt;CityOrgThing</title>
<path fill="none" stroke="black" d="M170,-150.71C170,-158.47 170,-167.92 170,-176.74"/>
<polygon fill="none" stroke="black" points="166.5,-176.66 170,-186.66 173.5,-176.66 166.5,-176.66"/>
</g>
<!-- Invis&#45;&gt;Address -->
</g>
</svg>
