<?xml version="1.0" encoding="UTF-8" standalone="no"?>
<!DOCTYPE svg PUBLIC "-//W3C//DTD SVG 1.1//EN"
 "http://www.w3.org/Graphics/SVG/1.1/DTD/svg11.dtd">
<!-- Generated by graphviz version 14.0.2 (20251019.1705)
 -->
<!-- Pages: 1 -->
<svg width="295pt" height="232pt"
 viewBox="0.00 0.00 295.00 232.00" xmlns="http://www.w3.org/2000/svg" xmlns:xlink="http://www.w3.org/1999/xlink">
<g id="graph0" class="graph" transform="scale(1 1) rotate(0) translate(4 228)">
<polygon fill="white" stroke="none" points="-4,4 -4,-228 290.74,-228 290.74,4 -4,4"/>
<g id="clust2" class="cluster">
<title>cluster_associated</title>
</g>
<!-- CityAdministrativeArea -->
<g id="node1" class="node">
<title>CityAdministrativeArea</title>
<g id="a_node1"><a xlink:href="../CityAdministrativeArea.md" xlink:title="&lt;TABLE&gt;">
<polygon fill="lightgray" stroke="none" points="106.88,-124.88 106.88,-141.12 231.12,-141.12 231.12,-124.88 106.88,-124.88"/>
<text xml:space="preserve" text-anchor="start" x="107.88" y="-128.72" font-family="Arial" font-size="12.00">CityAdministrativeArea</text>
<polygon fill="none" stroke="black" points="105.88,-123.88 105.88,-142.12 232.12,-142.12 232.12,-123.88 105.88,-123.88"/>
</a>
</g>
</g>
<!-- Invis -->
<!-- CityAdministrativeArea&#45;&gt;Invis -->
<!-- City -->
<g id="node3" class="node">
<title>City</title>
<g id="a_node3"><a xlink:href="../City.md" xlink:title="&lt;TABLE&gt;">
<polygon fill="lightgray" stroke="none" points="31.5,-25.88 31.5,-42.12 54.5,-42.12 54.5,-25.88 31.5,-25.88"/>
<text xml:space="preserve" text-anchor="start" x="32.5" y="-29.73" font-family="Arial" font-size="12.00">City</text>
<polygon fill="none" stroke="black" points="30.5,-24.88 30.5,-43.12 55.5,-43.12 55.5,-24.88 30.5,-24.88"/>
</a>
</g>
</g>
<!-- CityAdministrativeArea&#45;&gt;City -->
<g id="edge4" class="edge">
<title>CityAdministrativeArea&#45;&gt;City</title>
<path fill="none" stroke="black" stroke-dasharray="5,2" d="M147.05,-115.1C126.73,-99.46 96.3,-76.03 73.6,-58.55"/>
<polygon fill="black" stroke="black" points="75.95,-55.95 65.9,-52.63 71.68,-61.5 75.95,-55.95"/>
<text xml:space="preserve" text-anchor="middle" x="203.87" y="-86.55" font-family="Arial" font-size="11.00"> onProperty: administrativeAreaOf </text>
<text xml:space="preserve" text-anchor="middle" x="203.87" y="-73.05" font-family="Arial" font-size="11.00"> «some» &#160;</text>
</g>
<!-- JurisdictionalArea -->
<g id="node4" class="node">
<title>JurisdictionalArea</title>
<g id="a_node4"><a xlink:href="../JurisdictionalArea.md" xlink:title="&lt;TABLE&gt;">
<polygon fill="lightgray" stroke="none" points="120,-197.88 120,-214.12 218,-214.12 218,-197.88 120,-197.88"/>
<text xml:space="preserve" text-anchor="start" x="121" y="-201.72" font-family="Arial" font-size="12.00">JurisdictionalArea</text>
<polygon fill="none" stroke="black" points="119,-196.88 119,-215.12 219,-215.12 219,-196.88 119,-196.88"/>
</a>
</g>
</g>
<!-- CityAdministrativeArea&#45;&gt;JurisdictionalArea -->
<g id="edge1" class="edge">
<title>CityAdministrativeArea&#45;&gt;JurisdictionalArea</title>
<path fill="none" stroke="black" d="M169,-150.71C169,-158.47 169,-167.92 169,-176.74"/>
<polygon fill="none" stroke="black" points="165.5,-176.66 169,-186.66 172.5,-176.66 165.5,-176.66"/>
</g>
<!-- Invis&#45;&gt;City -->
</g>
</svg>
