<?xml version="1.0" encoding="UTF-8" standalone="no"?>
<!DOCTYPE svg PUBLIC "-//W3C//DTD SVG 1.1//EN"
 "http://www.w3.org/Graphics/SVG/1.1/DTD/svg11.dtd">
<!-- Generated by graphviz version 14.0.2 (20251019.1705)
 -->
<!-- Pages: 1 -->
<svg width="170pt" height="132pt"
 viewBox="0.00 0.00 170.00 132.00" xmlns="http://www.w3.org/2000/svg" xmlns:xlink="http://www.w3.org/1999/xlink">
<g id="graph0" class="graph" transform="scale(1 1) rotate(0) translate(4 128)">
<polygon fill="white" stroke="none" points="-4,4 -4,-128 166.25,-128 166.25,4 -4,4"/>
<g id="clust2" class="cluster">
<title>cluster_associated</title>
</g>
<!-- CityThing -->
<g id="node1" class="node">
<title>CityThing</title>
<g id="a_node1"><a xlink:href="../CityThing.md" xlink:title="&lt;TABLE&gt;">
<polygon fill="lightgray" stroke="none" points="19.38,-25.88 19.38,-42.12 73.12,-42.12 73.12,-25.88 19.38,-25.88"/>
<text xml:space="preserve" text-anchor="start" x="20.38" y="-29.73" font-family="Arial" font-size="12.00">CityThing</text>
<polygon fill="none" stroke="black" points="18.38,-24.88 18.38,-43.12 74.12,-43.12 74.12,-24.88 18.38,-24.88"/>
</a>
</g>
</g>
<!-- cdm1_CdmThing -->
<g id="node3" class="node">
<title>cdm1_CdmThing</title>
<polygon fill="lightgray" stroke="none" points="1,-97.88 1,-114.12 91.5,-114.12 91.5,-97.88 1,-97.88"/>
<text xml:space="preserve" text-anchor="start" x="2" y="-101.72" font-family="Arial" font-size="12.00">cdm1:CdmThing</text>
<polygon fill="none" stroke="black" points="0,-96.88 0,-115.12 92.5,-115.12 92.5,-96.88 0,-96.88"/>
</g>
<!-- CityThing&#45;&gt;cdm1_CdmThing -->
<g id="edge1" class="edge">
<title>CityThing&#45;&gt;cdm1_CdmThing</title>
<path fill="none" stroke="black" d="M46.25,-51.79C46.25,-59.25 46.25,-68.24 46.25,-76.69"/>
<polygon fill="none" stroke="black" points="42.75,-76.54 46.25,-86.54 49.75,-76.54 42.75,-76.54"/>
</g>
<!-- Invis -->
</g>
</svg>
