<?xml version="1.0" encoding="UTF-8" standalone="no"?>
<!DOCTYPE svg PUBLIC "-//W3C//DTD SVG 1.1//EN"
 "http://www.w3.org/Graphics/SVG/1.1/DTD/svg11.dtd">
<!-- Generated by graphviz version 14.0.2 (20251019.1705)
 -->
<!-- Pages: 1 -->
<svg width="172pt" height="132pt"
 viewBox="0.00 0.00 172.00 132.00" xmlns="http://www.w3.org/2000/svg" xmlns:xlink="http://www.w3.org/1999/xlink">
<g id="graph0" class="graph" transform="scale(1 1) rotate(0) translate(4 128)">
<polygon fill="white" stroke="none" points="-4,4 -4,-128 167.62,-128 167.62,4 -4,4"/>
<g id="clust2" class="cluster">
<title>cluster_associated</title>
</g>
<!-- CityOrgThing -->
<g id="node1" class="node">
<title>CityOrgThing</title>
<g id="a_node1"><a xlink:href="../CityOrgThing.md" xlink:title="&lt;TABLE&gt;">
<polygon fill="lightgray" stroke="none" points="1,-25.88 1,-42.12 74.25,-42.12 74.25,-25.88 1,-25.88"/>
<text xml:space="preserve" text-anchor="start" x="2" y="-29.73" font-family="Arial" font-size="12.00">CityOrgThing</text>
<polygon fill="none" stroke="black" points="0,-24.88 0,-43.12 75.25,-43.12 75.25,-24.88 0,-24.88"/>
</a>
</g>
</g>
<!-- CityThing -->
<g id="node3" class="node">
<title>CityThing</title>
<g id="a_node3"><a xlink:href="../CityThing.md" xlink:title="&lt;TABLE&gt;">
<polygon fill="lightgray" stroke="none" points="10.75,-97.88 10.75,-114.12 64.5,-114.12 64.5,-97.88 10.75,-97.88"/>
<text xml:space="preserve" text-anchor="start" x="11.75" y="-101.72" font-family="Arial" font-size="12.00">CityThing</text>
<polygon fill="none" stroke="black" points="9.75,-96.88 9.75,-115.12 65.5,-115.12 65.5,-96.88 9.75,-96.88"/>
</a>
</g>
</g>
<!-- CityOrgThing&#45;&gt;CityThing -->
<g id="edge1" class="edge">
<title>CityOrgThing&#45;&gt;CityThing</title>
<path fill="none" stroke="black" d="M37.62,-51.79C37.62,-59.25 37.62,-68.24 37.62,-76.69"/>
<polygon fill="none" stroke="black" points="34.13,-76.54 37.63,-86.54 41.13,-76.54 34.13,-76.54"/>
</g>
<!-- Invis -->
</g>
</svg>
