<?xml version="1.0" encoding="UTF-8" standalone="no"?>
<!DOCTYPE svg PUBLIC "-//W3C//DTD SVG 1.1//EN"
 "http://www.w3.org/Graphics/SVG/1.1/DTD/svg11.dtd">
<!-- Generated by graphviz version 14.0.2 (20251019.1705)
 -->
<!-- Pages: 1 -->
<svg width="310pt" height="232pt"
 viewBox="0.00 0.00 310.00 232.00" xmlns="http://www.w3.org/2000/svg" xmlns:xlink="http://www.w3.org/1999/xlink">
<g id="graph0" class="graph" transform="scale(1 1) rotate(0) translate(4 228)">
<polygon fill="white" stroke="none" points="-4,4 -4,-228 306.38,-228 306.38,4 -4,4"/>
<g id="clust2" class="cluster">
<title>cluster_associated</title>
</g>
<!-- Code -->
<g id="node1" class="node">
<title>Code</title>
<g id="a_node1"><a xlink:href="../Code.md" xlink:title="&lt;TABLE&gt;">
<polygon fill="lightgray" stroke="none" points="136.62,-133 136.62,-149.25 301.38,-149.25 301.38,-133 136.62,-133"/>
<text xml:space="preserve" text-anchor="start" x="204.38" y="-136.85" font-family="Arial" font-size="12.00">Code</text>
<text xml:space="preserve" text-anchor="start" x="137.62" y="-120.6" font-family="Arial" font-size="12.00">«only» specification: xsd:string</text>
<polygon fill="black" stroke="black" points="135.62,-133 135.62,-133 302.38,-133 302.38,-133 135.62,-133"/>
<polygon fill="none" stroke="black" points="135.62,-115.75 135.62,-150.25 302.38,-150.25 302.38,-115.75 135.62,-115.75"/>
</a>
</g>
</g>
<!-- Invis -->
<!-- Code&#45;&gt;Invis -->
<!-- cdm1_Organization -->
<g id="node3" class="node">
<title>cdm1_Organization</title>
<polygon fill="lightgray" stroke="none" points="16.75,-25.88 16.75,-42.12 119.25,-42.12 119.25,-25.88 16.75,-25.88"/>
<text xml:space="preserve" text-anchor="start" x="17.75" y="-29.73" font-family="Arial" font-size="12.00">cdm1:Organization</text>
<polygon fill="none" stroke="black" points="15.75,-24.88 15.75,-43.12 120.25,-43.12 120.25,-24.88 15.75,-24.88"/>
</g>
<!-- Code&#45;&gt;cdm1_Organization -->
<g id="edge4" class="edge">
<title>Code&#45;&gt;cdm1_Organization</title>
<path fill="none" stroke="black" d="M192.7,-115.1C168.09,-99.3 131.13,-75.55 103.83,-58.02"/>
<polygon fill="black" stroke="black" points="105.83,-55.14 95.53,-52.68 102.05,-61.03 105.83,-55.14"/>
<text xml:space="preserve" text-anchor="middle" x="188.47" y="-86.55" font-family="Arial" font-size="11.00"> definedBy </text>
<text xml:space="preserve" text-anchor="middle" x="188.47" y="-73.05" font-family="Arial" font-size="11.00"> «max 1» &#160;</text>
</g>
<!-- CodeThing -->
<g id="node4" class="node">
<title>CodeThing</title>
<g id="a_node4"><a xlink:href="../CodeThing.md" xlink:title="&lt;TABLE&gt;">
<polygon fill="lightgray" stroke="none" points="188,-197.88 188,-214.12 250,-214.12 250,-197.88 188,-197.88"/>
<text xml:space="preserve" text-anchor="start" x="189" y="-201.72" font-family="Arial" font-size="12.00">CodeThing</text>
<polygon fill="none" stroke="black" points="187,-196.88 187,-215.12 251,-215.12 251,-196.88 187,-196.88"/>
</a>
</g>
</g>
<!-- Code&#45;&gt;CodeThing -->
<g id="edge1" class="edge">
<title>Code&#45;&gt;CodeThing</title>
<path fill="none" stroke="black" d="M219,-150.71C219,-158.47 219,-167.92 219,-176.74"/>
<polygon fill="none" stroke="black" points="215.5,-176.66 219,-186.66 222.5,-176.66 215.5,-176.66"/>
</g>
<!-- Invis&#45;&gt;cdm1_Organization -->
</g>
</svg>
