<?xml version="1.0" encoding="UTF-8" standalone="no"?>
<!DOCTYPE svg PUBLIC "-//W3C//DTD SVG 1.1//EN"
 "http://www.w3.org/Graphics/SVG/1.1/DTD/svg11.dtd">
<!-- Generated by graphviz version 14.0.2 (20251019.1705)
 -->
<!-- Pages: 1 -->
<svg width="158pt" height="132pt"
 viewBox="0.00 0.00 158.00 132.00" xmlns="http://www.w3.org/2000/svg" xmlns:xlink="http://www.w3.org/1999/xlink">
<g id="graph0" class="graph" transform="scale(1 1) rotate(0) translate(4 128)">
<polygon fill="white" stroke="none" points="-4,4 -4,-128 153.88,-128 153.88,4 -4,4"/>
<g id="clust2" class="cluster">
<title>cluster_associated</title>
</g>
<!-- Definition -->
<g id="node1" class="node">
<title>Definition</title>
<g id="a_node1"><a xlink:href="../Definition.md" xlink:title="&lt;TABLE&gt;">
<polygon fill="lightgray" stroke="none" points="7.38,-25.88 7.38,-42.12 60.38,-42.12 60.38,-25.88 7.38,-25.88"/>
<text xml:space="preserve" text-anchor="start" x="8.38" y="-29.73" font-family="Arial" font-size="12.00">Definition</text>
<polygon fill="none" stroke="black" points="6.38,-24.88 6.38,-43.12 61.38,-43.12 61.38,-24.88 6.38,-24.88"/>
</a>
</g>
</g>
<!-- BylawThing -->
<g id="node3" class="node">
<title>BylawThing</title>
<g id="a_node3"><a xlink:href="../BylawThing.md" xlink:title="&lt;TABLE&gt;">
<polygon fill="lightgray" stroke="none" points="1,-97.88 1,-114.12 66.75,-114.12 66.75,-97.88 1,-97.88"/>
<text xml:space="preserve" text-anchor="start" x="2" y="-101.72" font-family="Arial" font-size="12.00">BylawThing</text>
<polygon fill="none" stroke="black" points="0,-96.88 0,-115.12 67.75,-115.12 67.75,-96.88 0,-96.88"/>
</a>
</g>
</g>
<!-- Definition&#45;&gt;BylawThing -->
<g id="edge1" class="edge">
<title>Definition&#45;&gt;BylawThing</title>
<path fill="none" stroke="black" d="M33.88,-51.79C33.88,-59.25 33.88,-68.24 33.88,-76.69"/>
<polygon fill="none" stroke="black" points="30.38,-76.54 33.88,-86.54 37.38,-76.54 30.38,-76.54"/>
</g>
<!-- Invis -->
</g>
</svg>
