<?xml version="1.0" encoding="UTF-8" standalone="no"?>
<!DOCTYPE svg PUBLIC "-//W3C//DTD SVG 1.1//EN"
 "http://www.w3.org/Graphics/SVG/1.1/DTD/svg11.dtd">
<!-- Generated by graphviz version 14.0.2 (20251019.1705)
 -->
<!-- Pages: 1 -->
<svg width="517pt" height="391pt"
 viewBox="0.00 0.00 517.00 391.00" xmlns="http://www.w3.org/2000/svg" xmlns:xlink="http://www.w3.org/1999/xlink">
<g id="graph0" class="graph" transform="scale(1 1) rotate(0) translate(4 386.5)">
<polygon fill="white" stroke="none" points="-4,4 -4,-386.5 512.75,-386.5 512.75,4 -4,4"/>
<g id="clust2" class="cluster">
<title>cluster_associated</title>
</g>
<!-- EntityOwnership -->
<g id="node1" class="node">
<title>EntityOwnership</title>
<g id="a_node1"><a xlink:href="../EntityOwnership.md" xlink:title="&lt;TABLE&gt;">
<polygon fill="lightgray" stroke="none" points="1,-265.5 1,-281.75 219,-281.75 219,-265.5 1,-265.5"/>
<text xml:space="preserve" text-anchor="start" x="66.12" y="-269.35" font-family="Arial" font-size="12.00">EntityOwnership</text>
<text xml:space="preserve" text-anchor="start" x="2" y="-253.1" font-family="Arial" font-size="12.00">«max 1» percentOwnership: xsd:decimal</text>
<polygon fill="black" stroke="black" points="0,-265.5 0,-265.5 220,-265.5 220,-265.5 0,-265.5"/>
<polygon fill="none" stroke="black" points="0,-248.25 0,-282.75 220,-282.75 220,-248.25 0,-248.25"/>
</a>
</g>
</g>
<!-- Invis -->
<!-- EntityOwnership&#45;&gt;Invis -->
<!-- ControlledEntity -->
<g id="node6" class="node">
<title>ControlledEntity</title>
<g id="a_node6"><a xlink:href="../ControlledEntity.md" xlink:title="&lt;TABLE&gt;">
<polygon fill="lightgray" stroke="none" points="66.25,-356.38 66.25,-372.62 153.75,-372.62 153.75,-356.38 66.25,-356.38"/>
<text xml:space="preserve" text-anchor="start" x="67.25" y="-360.23" font-family="Arial" font-size="12.00">ControlledEntity</text>
<polygon fill="none" stroke="black" points="65.25,-355.38 65.25,-373.62 154.75,-373.62 154.75,-355.38 65.25,-355.38"/>
</a>
</g>
</g>
<!-- EntityOwnership&#45;&gt;ControlledEntity -->
<g id="edge1" class="edge">
<title>EntityOwnership&#45;&gt;ControlledEntity</title>
<path fill="none" stroke="black" d="M110,-283.2C110,-297.47 110,-318.3 110,-335.17"/>
<polygon fill="none" stroke="black" points="106.5,-335.09 110,-345.09 113.5,-335.09 106.5,-335.09"/>
</g>
<!-- Nc93f156d15d74f51a2e8244fad32b055 -->
<g id="node7" class="node">
<title>Nc93f156d15d74f51a2e8244fad32b055</title>
<polygon fill="lightyellow" stroke="none" points="350.25,-355.38 350.25,-373.62 409.75,-373.62 409.75,-355.38 350.25,-355.38"/>
<text xml:space="preserve" text-anchor="start" x="352.25" y="-360.23" font-family="Arial" font-size="12.00">«unionOf»</text>
<polygon fill="none" stroke="black" points="350.25,-355.38 350.25,-373.62 409.75,-373.62 409.75,-355.38 350.25,-355.38"/>
</g>
<!-- EntityOwnership&#45;&gt;Nc93f156d15d74f51a2e8244fad32b055 -->
<g id="edge9" class="edge">
<title>EntityOwnership&#45;&gt;Nc93f156d15d74f51a2e8244fad32b055</title>
<path fill="none" stroke="black" stroke-dasharray="5,2" d="M141.36,-283.44C167.5,-297.03 206.02,-315.87 241.25,-328.5 273.52,-340.07 311.31,-349.33 339.3,-355.42"/>
<polygon fill="black" stroke="black" points="338.28,-358.78 348.79,-357.44 339.74,-351.93 338.28,-358.78"/>
<text xml:space="preserve" text-anchor="middle" x="286.62" y="-318.05" font-family="Arial" font-size="11.00"> onProperty: entity </text>
<text xml:space="preserve" text-anchor="middle" x="286.62" y="-304.55" font-family="Arial" font-size="11.00"> «max 1» &#160;</text>
</g>
<!-- Building -->
<g id="node3" class="node">
<title>Building</title>
<g id="a_node3"><a xlink:href="../Building.md" xlink:title="&lt;TABLE&gt;">
<polygon fill="lightgray" stroke="none" points="272.88,-171.88 272.88,-188.12 319.12,-188.12 319.12,-171.88 272.88,-171.88"/>
<text xml:space="preserve" text-anchor="start" x="273.88" y="-175.72" font-family="Arial" font-size="12.00">Building</text>
<polygon fill="none" stroke="black" points="271.88,-170.88 271.88,-189.12 320.12,-189.12 320.12,-170.88 271.88,-170.88"/>
</a>
</g>
</g>
<!-- Invis&#45;&gt;Building -->
<!-- LandArea -->
<g id="node4" class="node">
<title>LandArea</title>
<g id="a_node4"><a xlink:href="../LandArea.md" xlink:title="&lt;TABLE&gt;">
<polygon fill="lightgray" stroke="none" points="268.75,-98.88 268.75,-115.12 323.25,-115.12 323.25,-98.88 268.75,-98.88"/>
<text xml:space="preserve" text-anchor="start" x="269.75" y="-102.72" font-family="Arial" font-size="12.00">LandArea</text>
<polygon fill="none" stroke="black" points="267.75,-97.88 267.75,-116.12 324.25,-116.12 324.25,-97.88 267.75,-97.88"/>
</a>
</g>
</g>
<!-- Building&#45;&gt;LandArea -->
<!-- Organization -->
<g id="node5" class="node">
<title>Organization</title>
<g id="a_node5"><a xlink:href="../Organization.md" xlink:title="&lt;TABLE&gt;">
<polygon fill="lightgray" stroke="none" points="256.88,-25.88 256.88,-42.12 327.12,-42.12 327.12,-25.88 256.88,-25.88"/>
<text xml:space="preserve" text-anchor="start" x="257.88" y="-29.73" font-family="Arial" font-size="12.00">Organization</text>
<polygon fill="none" stroke="black" points="255.88,-24.88 255.88,-43.12 328.12,-43.12 328.12,-24.88 255.88,-24.88"/>
</a>
</g>
</g>
<!-- LandArea&#45;&gt;Organization -->
<!-- Nc93f156d15d74f51a2e8244fad32b055&#45;&gt;Building -->
<g id="edge6" class="edge">
<title>Nc93f156d15d74f51a2e8244fad32b055&#45;&gt;Building</title>
<path fill="none" stroke="black" stroke-dasharray="1,5" d="M372.25,-346.66C357.68,-315.01 326.12,-246.43 308.51,-208.18"/>
<polygon fill="black" stroke="black" points="311.73,-206.8 304.37,-199.18 305.37,-209.72 311.73,-206.8"/>
<text xml:space="preserve" text-anchor="middle" x="366.23" y="-261.8" font-family="Arial" font-size="11.00">member</text>
</g>
<!-- Nc93f156d15d74f51a2e8244fad32b055&#45;&gt;LandArea -->
<g id="edge7" class="edge">
<title>Nc93f156d15d74f51a2e8244fad32b055&#45;&gt;LandArea</title>
<path fill="none" stroke="black" stroke-dasharray="1,5" d="M385.36,-346.56C391.77,-323.59 400.39,-281.52 390,-247.5 376.34,-202.78 342.99,-159.43 319.93,-133.23"/>
<polygon fill="black" stroke="black" points="322.56,-130.91 313.26,-125.83 317.36,-135.6 322.56,-130.91"/>
<text xml:space="preserve" text-anchor="middle" x="403.32" y="-219.05" font-family="Arial" font-size="11.00">member</text>
</g>
<!-- Nc93f156d15d74f51a2e8244fad32b055&#45;&gt;Organization -->
<g id="edge8" class="edge">
<title>Nc93f156d15d74f51a2e8244fad32b055&#45;&gt;Organization</title>
<path fill="none" stroke="black" stroke-dasharray="1,5" d="M409.64,-347.3C435.53,-330.74 469,-302.38 469,-266.5 469,-266.5 469,-266.5 469,-106 469,-49.98 391.68,-36.99 339.24,-34.63"/>
<polygon fill="black" stroke="black" points="339.44,-31.14 329.33,-34.31 339.21,-38.13 339.44,-31.14"/>
<text xml:space="preserve" text-anchor="middle" x="488.88" y="-176.3" font-family="Arial" font-size="11.00">member</text>
</g>
</g>
</svg>
