<?xml version="1.0" encoding="UTF-8" standalone="no"?>
<!DOCTYPE svg PUBLIC "-//W3C//DTD SVG 1.1//EN"
 "http://www.w3.org/Graphics/SVG/1.1/DTD/svg11.dtd">
<!-- Generated by graphviz version 14.0.2 (20251019.1705)
 -->
<!-- Pages: 1 -->
<svg width="212pt" height="232pt"
 viewBox="0.00 0.00 212.00 232.00" xmlns="http://www.w3.org/2000/svg" xmlns:xlink="http://www.w3.org/1999/xlink">
<g id="graph0" class="graph" transform="scale(1 1) rotate(0) translate(4 228)">
<polygon fill="white" stroke="none" points="-4,4 -4,-228 207.7,-228 207.7,4 -4,4"/>
<g id="clust2" class="cluster">
<title>cluster_associated</title>
</g>
<!-- Household -->
<g id="node1" class="node">
<title>Household</title>
<g id="a_node1"><a xlink:href="../Household.md" xlink:title="&lt;TABLE&gt;">
<polygon fill="lightgray" stroke="none" points="108.75,-124.88 108.75,-141.12 169.25,-141.12 169.25,-124.88 108.75,-124.88"/>
<text xml:space="preserve" text-anchor="start" x="109.75" y="-128.72" font-family="Arial" font-size="12.00">Household</text>
<polygon fill="none" stroke="black" points="107.75,-123.88 107.75,-142.12 170.25,-142.12 170.25,-123.88 107.75,-123.88"/>
</a>
</g>
</g>
<!-- Invis -->
<!-- Household&#45;&gt;Invis -->
<!-- Residence -->
<g id="node3" class="node">
<title>Residence</title>
<g id="a_node3"><a xlink:href="../Residence.md" xlink:title="&lt;TABLE&gt;">
<polygon fill="lightgray" stroke="none" points="17.12,-25.88 17.12,-42.12 76.88,-42.12 76.88,-25.88 17.12,-25.88"/>
<text xml:space="preserve" text-anchor="start" x="18.12" y="-29.73" font-family="Arial" font-size="12.00">Residence</text>
<polygon fill="none" stroke="black" points="16.12,-24.88 16.12,-43.12 77.88,-43.12 77.88,-24.88 16.12,-24.88"/>
</a>
</g>
</g>
<!-- Household&#45;&gt;Residence -->
<g id="edge4" class="edge">
<title>Household&#45;&gt;Residence</title>
<path fill="none" stroke="black" d="M122.97,-115.1C108.46,-99.8 86.9,-77.07 70.45,-59.73"/>
<polygon fill="black" stroke="black" points="73.3,-57.65 63.88,-52.8 68.23,-62.46 73.3,-57.65"/>
<text xml:space="preserve" text-anchor="middle" x="153.82" y="-86.55" font-family="Arial" font-size="11.00"> householdOccupies </text>
<text xml:space="preserve" text-anchor="middle" x="153.82" y="-73.05" font-family="Arial" font-size="11.00"> «max 1» &#160;</text>
</g>
<!-- HouseholdThing -->
<g id="node4" class="node">
<title>HouseholdThing</title>
<g id="a_node4"><a xlink:href="../HouseholdThing.md" xlink:title="&lt;TABLE&gt;">
<polygon fill="lightgray" stroke="none" points="93.38,-197.88 93.38,-214.12 184.62,-214.12 184.62,-197.88 93.38,-197.88"/>
<text xml:space="preserve" text-anchor="start" x="94.38" y="-201.72" font-family="Arial" font-size="12.00">HouseholdThing</text>
<polygon fill="none" stroke="black" points="92.38,-196.88 92.38,-215.12 185.62,-215.12 185.62,-196.88 92.38,-196.88"/>
</a>
</g>
</g>
<!-- Household&#45;&gt;HouseholdThing -->
<g id="edge1" class="edge">
<title>Household&#45;&gt;HouseholdThing</title>
<path fill="none" stroke="black" d="M139,-150.71C139,-158.47 139,-167.92 139,-176.74"/>
<polygon fill="none" stroke="black" points="135.5,-176.66 139,-186.66 142.5,-176.66 135.5,-176.66"/>
</g>
<!-- Invis&#45;&gt;Residence -->
</g>
</svg>
