<?xml version="1.0" encoding="UTF-8" standalone="no"?>
<!DOCTYPE svg PUBLIC "-//W3C//DTD SVG 1.1//EN"
 "http://www.w3.org/Graphics/SVG/1.1/DTD/svg11.dtd">
<!-- Generated by graphviz version 14.0.2 (20251019.1705)
 -->
<!-- Pages: 1 -->
<svg width="231pt" height="232pt"
 viewBox="0.00 0.00 231.00 232.00" xmlns="http://www.w3.org/2000/svg" xmlns:xlink="http://www.w3.org/1999/xlink">
<g id="graph0" class="graph" transform="scale(1 1) rotate(0) translate(4 228)">
<polygon fill="white" stroke="none" points="-4,4 -4,-228 226.62,-228 226.62,4 -4,4"/>
<g id="clust2" class="cluster">
<title>cluster_associated</title>
</g>
<!-- InfrastructureElement -->
<g id="node1" class="node">
<title>InfrastructureElement</title>
<g id="a_node1"><a xlink:href="../InfrastructureElement.md" xlink:title="&lt;TABLE&gt;">
<polygon fill="lightgray" stroke="none" points="106.38,-124.88 106.38,-141.12 221.62,-141.12 221.62,-124.88 106.38,-124.88"/>
<text xml:space="preserve" text-anchor="start" x="107.38" y="-128.72" font-family="Arial" font-size="12.00">InfrastructureElement</text>
<polygon fill="none" stroke="black" points="105.38,-123.88 105.38,-142.12 222.62,-142.12 222.62,-123.88 105.38,-123.88"/>
</a>
</g>
</g>
<!-- Invis -->
<!-- InfrastructureElement&#45;&gt;Invis -->
<!-- Address -->
<g id="node3" class="node">
<title>Address</title>
<g id="a_node3"><a xlink:href="../Address.md" xlink:title="&lt;TABLE&gt;">
<polygon fill="lightgray" stroke="none" points="19.88,-25.88 19.88,-42.12 66.12,-42.12 66.12,-25.88 19.88,-25.88"/>
<text xml:space="preserve" text-anchor="start" x="20.88" y="-29.73" font-family="Arial" font-size="12.00">Address</text>
<polygon fill="none" stroke="black" points="18.88,-24.88 18.88,-43.12 67.12,-43.12 67.12,-24.88 18.88,-24.88"/>
</a>
</g>
</g>
<!-- InfrastructureElement&#45;&gt;Address -->
<g id="edge4" class="edge">
<title>InfrastructureElement&#45;&gt;Address</title>
<path fill="none" stroke="black" d="M142.92,-115.1C123.49,-99.53 94.45,-76.24 72.67,-58.79"/>
<polygon fill="black" stroke="black" points="75.01,-56.17 65.02,-52.65 70.63,-61.63 75.01,-56.17"/>
<text xml:space="preserve" text-anchor="middle" x="149.4" y="-86.55" font-family="Arial" font-size="11.00"> hasAddress </text>
<text xml:space="preserve" text-anchor="middle" x="149.4" y="-73.05" font-family="Arial" font-size="11.00"> «only» &#160;</text>
</g>
<!-- InfrastructureThing -->
<g id="node4" class="node">
<title>InfrastructureThing</title>
<g id="a_node4"><a xlink:href="../InfrastructureThing.md" xlink:title="&lt;TABLE&gt;">
<polygon fill="lightgray" stroke="none" points="113.12,-197.88 113.12,-214.12 214.88,-214.12 214.88,-197.88 113.12,-197.88"/>
<text xml:space="preserve" text-anchor="start" x="114.12" y="-201.72" font-family="Arial" font-size="12.00">InfrastructureThing</text>
<polygon fill="none" stroke="black" points="112.12,-196.88 112.12,-215.12 215.88,-215.12 215.88,-196.88 112.12,-196.88"/>
</a>
</g>
</g>
<!-- InfrastructureElement&#45;&gt;InfrastructureThing -->
<g id="edge1" class="edge">
<title>InfrastructureElement&#45;&gt;InfrastructureThing</title>
<path fill="none" stroke="black" d="M164,-150.71C164,-158.47 164,-167.92 164,-176.74"/>
<polygon fill="none" stroke="black" points="160.5,-176.66 164,-186.66 167.5,-176.66 160.5,-176.66"/>
</g>
<!-- Invis&#45;&gt;Address -->
</g>
</svg>
