<?xml version="1.0" encoding="UTF-8" standalone="no"?>
<!DOCTYPE svg PUBLIC "-//W3C//DTD SVG 1.1//EN"
 "http://www.w3.org/Graphics/SVG/1.1/DTD/svg11.dtd">
<!-- Generated by graphviz version 14.0.2 (20251019.1705)
 -->
<!-- Pages: 1 -->
<svg width="565pt" height="477pt"
 viewBox="0.00 0.00 565.00 477.00" xmlns="http://www.w3.org/2000/svg" xmlns:xlink="http://www.w3.org/1999/xlink">
<g id="graph0" class="graph" transform="scale(1 1) rotate(0) translate(4 473)">
<polygon fill="white" stroke="none" points="-4,4 -4,-473 560.5,-473 560.5,4 -4,4"/>
<g id="clust2" class="cluster">
<title>cluster_associated</title>
</g>
<!-- JurisdictionalArea -->
<g id="node1" class="node">
<title>JurisdictionalArea</title>
<g id="a_node1"><a xlink:href="../JurisdictionalArea.md" xlink:title="&lt;TABLE&gt;">
<polygon fill="lightgray" stroke="none" points="171,-369.88 171,-386.12 269,-386.12 269,-369.88 171,-369.88"/>
<text xml:space="preserve" text-anchor="start" x="172" y="-373.73" font-family="Arial" font-size="12.00">JurisdictionalArea</text>
<polygon fill="none" stroke="black" points="170,-368.88 170,-387.12 270,-387.12 270,-368.88 170,-368.88"/>
</a>
</g>
</g>
<!-- JurisdictionalArea&#45;&gt;JurisdictionalArea -->
<g id="edge7" class="edge">
<title>JurisdictionalArea&#45;&gt;JurisdictionalArea</title>
<path fill="none" stroke="black" d="M269.81,-381.31C280.37,-380.98 288,-379.87 288,-378 288,-376.83 285.02,-375.96 280.21,-375.39"/>
<polygon fill="black" stroke="black" points="270.55,-371.23 280.29,-375.4 270.08,-378.21 270.55,-371.23"/>
<text xml:space="preserve" text-anchor="middle" x="360" y="-381.05" font-family="Arial" font-size="11.00"> inverse administrativeAreaOf </text>
<text xml:space="preserve" text-anchor="middle" x="360" y="-367.55" font-family="Arial" font-size="11.00"> «only» &#160;</text>
</g>
<!-- JurisdictionalArea&#45;&gt;JurisdictionalArea -->
<g id="edge8" class="edge">
<title>JurisdictionalArea&#45;&gt;JurisdictionalArea</title>
<path fill="none" stroke="black" d="M269.76,-383.36C333.65,-386.47 432,-384.68 432,-378 432,-371.7 344.48,-369.75 280.92,-372.15"/>
<polygon fill="black" stroke="black" points="281.11,-368.64 271.27,-372.57 281.41,-375.64 281.11,-368.64"/>
<text xml:space="preserve" text-anchor="middle" x="485.25" y="-381.05" font-family="Arial" font-size="11.00"> administrativeAreaOf </text>
<text xml:space="preserve" text-anchor="middle" x="485.25" y="-367.55" font-family="Arial" font-size="11.00"> «only» &#160;</text>
</g>
<!-- Invis -->
<!-- JurisdictionalArea&#45;&gt;Invis -->
<!-- Bylaw -->
<g id="node3" class="node">
<title>Bylaw</title>
<g id="a_node3"><a xlink:href="../Bylaw.md" xlink:title="&lt;TABLE&gt;">
<polygon fill="lightgray" stroke="none" points="25.5,-270.88 25.5,-287.12 60.5,-287.12 60.5,-270.88 25.5,-270.88"/>
<text xml:space="preserve" text-anchor="start" x="26.5" y="-274.73" font-family="Arial" font-size="12.00">Bylaw</text>
<polygon fill="none" stroke="black" points="24.5,-269.88 24.5,-288.12 61.5,-288.12 61.5,-269.88 24.5,-269.88"/>
</a>
</g>
</g>
<!-- JurisdictionalArea&#45;&gt;Bylaw -->
<g id="edge12" class="edge">
<title>JurisdictionalArea&#45;&gt;Bylaw</title>
<path fill="none" stroke="black" d="M170.06,-360.97C168.7,-360.63 167.34,-360.31 166,-360 139.4,-353.88 62.58,-362.45 44.5,-342 36.48,-332.93 35.22,-319.85 36.32,-308.05"/>
<polygon fill="black" stroke="black" points="39.75,-308.78 37.82,-298.36 32.83,-307.7 39.75,-308.78"/>
<text xml:space="preserve" text-anchor="middle" x="70.75" y="-331.55" font-family="Arial" font-size="11.00"> hasBylaw </text>
<text xml:space="preserve" text-anchor="middle" x="70.75" y="-318.05" font-family="Arial" font-size="11.00"> «only» &#160;</text>
</g>
<!-- i72_Population -->
<g id="node5" class="node">
<title>i72_Population</title>
<polygon fill="lightgray" stroke="none" points="73.38,-98.88 73.38,-115.12 152.62,-115.12 152.62,-98.88 73.38,-98.88"/>
<text xml:space="preserve" text-anchor="start" x="74.38" y="-102.72" font-family="Arial" font-size="12.00">i72:Population</text>
<polygon fill="none" stroke="black" points="72.38,-97.88 72.38,-116.12 153.62,-116.12 153.62,-97.88 72.38,-97.88"/>
</g>
<!-- JurisdictionalArea&#45;&gt;i72_Population -->
<g id="edge10" class="edge">
<title>JurisdictionalArea&#45;&gt;i72_Population</title>
<path fill="none" stroke="black" d="M221.32,-360.13C222.62,-337.24 223.25,-295.27 214,-261 201.1,-213.22 191.41,-202.53 163,-162 155.96,-151.96 147.17,-141.85 138.93,-133.14"/>
<polygon fill="black" stroke="black" points="141.5,-130.77 132.02,-126.04 136.48,-135.65 141.5,-130.77"/>
<text xml:space="preserve" text-anchor="middle" x="256.11" y="-232.55" font-family="Arial" font-size="11.00"> residentPopulation </text>
<text xml:space="preserve" text-anchor="middle" x="256.11" y="-219.05" font-family="Arial" font-size="11.00"> «max 1» &#160;</text>
</g>
<!-- LandArea -->
<g id="node6" class="node">
<title>LandArea</title>
<g id="a_node6"><a xlink:href="../LandArea.md" xlink:title="&lt;TABLE&gt;">
<polygon fill="lightgray" stroke="none" points="95.75,-25.88 95.75,-42.12 150.25,-42.12 150.25,-25.88 95.75,-25.88"/>
<text xml:space="preserve" text-anchor="start" x="96.75" y="-29.73" font-family="Arial" font-size="12.00">LandArea</text>
<polygon fill="none" stroke="black" points="94.75,-24.88 94.75,-43.12 151.25,-43.12 151.25,-24.88 94.75,-24.88"/>
</a>
</g>
</g>
<!-- JurisdictionalArea&#45;&gt;LandArea -->
<g id="edge9" class="edge">
<title>JurisdictionalArea&#45;&gt;LandArea</title>
<path fill="none" stroke="black" d="M266.64,-360.11C299.62,-344.82 338,-318.72 338,-280 338,-280 338,-280 338,-106 338,-69.44 224.49,-48.52 162.42,-39.82"/>
<polygon fill="black" stroke="black" points="162.99,-36.37 152.61,-38.49 162.05,-43.3 162.99,-36.37"/>
<text xml:space="preserve" text-anchor="middle" x="373.25" y="-183.05" font-family="Arial" font-size="11.00"> hasLandArea </text>
<text xml:space="preserve" text-anchor="middle" x="373.25" y="-169.55" font-family="Arial" font-size="11.00"> «only» &#160;</text>
</g>
<!-- CityPatternThing -->
<g id="node7" class="node">
<title>CityPatternThing</title>
<g id="a_node7"><a xlink:href="../CityPatternThing.md" xlink:title="&lt;TABLE&gt;">
<polygon fill="lightgray" stroke="none" points="174,-442.88 174,-459.12 266,-459.12 266,-442.88 174,-442.88"/>
<text xml:space="preserve" text-anchor="start" x="175" y="-446.73" font-family="Arial" font-size="12.00">CityPatternThing</text>
<polygon fill="none" stroke="black" points="173,-441.88 173,-460.12 267,-460.12 267,-441.88 173,-441.88"/>
</a>
</g>
</g>
<!-- JurisdictionalArea&#45;&gt;CityPatternThing -->
<g id="edge1" class="edge">
<title>JurisdictionalArea&#45;&gt;CityPatternThing</title>
<path fill="none" stroke="black" d="M220,-395.71C220,-403.47 220,-412.92 220,-421.74"/>
<polygon fill="none" stroke="black" points="216.5,-421.66 220,-431.66 223.5,-421.66 216.5,-421.66"/>
</g>
<!-- Invis&#45;&gt;Bylaw -->
<!-- GovernmentOrganization -->
<g id="node4" class="node">
<title>GovernmentOrganization</title>
<g id="a_node4"><a xlink:href="../GovernmentOrganization.md" xlink:title="&lt;TABLE&gt;">
<polygon fill="lightgray" stroke="none" points="17.25,-171.88 17.25,-188.12 152.75,-188.12 152.75,-171.88 17.25,-171.88"/>
<text xml:space="preserve" text-anchor="start" x="18.25" y="-175.72" font-family="Arial" font-size="12.00">GovernmentOrganization</text>
<polygon fill="none" stroke="black" points="16.25,-170.88 16.25,-189.12 153.75,-189.12 153.75,-170.88 16.25,-170.88"/>
</a>
</g>
</g>
<!-- Bylaw&#45;&gt;GovernmentOrganization -->
<!-- GovernmentOrganization&#45;&gt;JurisdictionalArea -->
<g id="edge11" class="edge">
<title>GovernmentOrganization&#45;&gt;JurisdictionalArea</title>
<path fill="none" stroke="black" d="M86.92,-197.7C90.31,-221.52 99.13,-265.8 120.25,-297 136.14,-320.49 161.02,-340.45 181.95,-354.57"/>
<polygon fill="black" stroke="black" points="188.3,-362.91 181.85,-354.5 192.13,-357.05 188.3,-362.91"/>
<text xml:space="preserve" text-anchor="middle" x="167.12" y="-282.05" font-family="Arial" font-size="11.00"> inverse jurisdiction </text>
<text xml:space="preserve" text-anchor="middle" x="167.12" y="-268.55" font-family="Arial" font-size="11.00"> «only» &#160;</text>
</g>
<!-- GovernmentOrganization&#45;&gt;i72_Population -->
<!-- i72_Population&#45;&gt;LandArea -->
</g>
</svg>
