<?xml version="1.0" encoding="UTF-8" standalone="no"?>
<!DOCTYPE svg PUBLIC "-//W3C//DTD SVG 1.1//EN"
 "http://www.w3.org/Graphics/SVG/1.1/DTD/svg11.dtd">
<!-- Generated by graphviz version 14.0.2 (20251019.1705)
 -->
<!-- Pages: 1 -->
<svg width="839pt" height="859pt"
 viewBox="0.00 0.00 839.00 859.00" xmlns="http://www.w3.org/2000/svg" xmlns:xlink="http://www.w3.org/1999/xlink">
<g id="graph0" class="graph" transform="scale(1 1) rotate(0) translate(4 855.25)">
<polygon fill="white" stroke="none" points="-4,4 -4,-855.25 835.25,-855.25 835.25,4 -4,4"/>
<g id="clust2" class="cluster">
<title>cluster_associated</title>
</g>
<!-- Law -->
<g id="node1" class="node">
<title>Law</title>
<g id="a_node1"><a xlink:href="../Law.md" xlink:title="&lt;TABLE&gt;">
<polygon fill="lightgray" stroke="none" points="247.88,-693.75 247.88,-710 456.12,-710 456.12,-693.75 247.88,-693.75"/>
<text xml:space="preserve" text-anchor="start" x="340.75" y="-697.6" font-family="Arial" font-size="12.00">Law</text>
<text xml:space="preserve" text-anchor="start" x="248.88" y="-681.35" font-family="Arial" font-size="12.00">«only» keywords: xsd:string</text>
<text xml:space="preserve" text-anchor="start" x="248.88" y="-665.1" font-family="Arial" font-size="12.00">«max 1» abstract: xsd:string</text>
<text xml:space="preserve" text-anchor="start" x="248.88" y="-648.85" font-family="Arial" font-size="12.00">«max 1» dateInEffect: xsd:dateTime</text>
<text xml:space="preserve" text-anchor="start" x="248.88" y="-632.6" font-family="Arial" font-size="12.00">«max 1» datePublished: xsd:dateTime</text>
<text xml:space="preserve" text-anchor="start" x="248.88" y="-616.35" font-family="Arial" font-size="12.00">«max 1» expires: xsd:dateTime</text>
<text xml:space="preserve" text-anchor="start" x="248.88" y="-600.1" font-family="Arial" font-size="12.00">«max 1» legislationDate: xsd:dateTime</text>
<text xml:space="preserve" text-anchor="start" x="248.88" y="-583.85" font-family="Arial" font-size="12.00">«max 1» legislationIdentifier: xsd:string</text>
<polygon fill="black" stroke="black" points="246.88,-693.75 246.88,-693.75 457.12,-693.75 457.12,-693.75 246.88,-693.75"/>
<polygon fill="none" stroke="black" points="246.88,-579 246.88,-711 457.12,-711 457.12,-579 246.88,-579"/>
</a>
</g>
</g>
<!-- Invis -->
<!-- Law&#45;&gt;Invis -->
<!-- Clause -->
<g id="node3" class="node">
<title>Clause</title>
<g id="a_node3"><a xlink:href="../Clause.md" xlink:title="&lt;TABLE&gt;">
<polygon fill="lightgray" stroke="none" points="68.88,-489.88 68.88,-506.12 109.12,-506.12 109.12,-489.88 68.88,-489.88"/>
<text xml:space="preserve" text-anchor="start" x="69.88" y="-493.73" font-family="Arial" font-size="12.00">Clause</text>
<polygon fill="none" stroke="black" points="67.88,-488.88 67.88,-507.12 110.12,-507.12 110.12,-488.88 67.88,-488.88"/>
</a>
</g>
</g>
<!-- Law&#45;&gt;Clause -->
<g id="edge10" class="edge">
<title>Law&#45;&gt;Clause</title>
<path fill="none" stroke="black" d="M247.04,-611.75C209.64,-600.74 167.09,-588.75 128,-579 90.11,-569.55 66.62,-591.31 42,-561 34.43,-551.69 36.62,-544.72 42,-534 44.67,-528.68 48.58,-523.97 53.01,-519.86"/>
<polygon fill="black" stroke="black" points="55.18,-522.6 60.82,-513.64 50.82,-517.13 55.18,-522.6"/>
<text xml:space="preserve" text-anchor="middle" x="70.5" y="-550.55" font-family="Arial" font-size="11.00"> hasClause </text>
<text xml:space="preserve" text-anchor="middle" x="70.5" y="-537.05" font-family="Arial" font-size="11.00"> «only» &#160;</text>
</g>
<!-- Law&#45;&gt;Clause -->
<g id="edge12" class="edge">
<title>Law&#45;&gt;Clause</title>
<path fill="none" stroke="black" d="M247.05,-623.56C204.5,-611.11 157.21,-591.51 122,-561 111.42,-551.83 103.69,-538.41 98.38,-526.4"/>
<polygon fill="black" stroke="black" points="101.72,-525.31 94.74,-517.33 95.22,-527.91 101.72,-525.31"/>
<text xml:space="preserve" text-anchor="middle" x="168.5" y="-550.55" font-family="Arial" font-size="11.00"> hasPenaltyClause </text>
<text xml:space="preserve" text-anchor="middle" x="168.5" y="-537.05" font-family="Arial" font-size="11.00"> «only» &#160;</text>
</g>
<!-- Law&#45;&gt;Clause -->
<g id="edge13" class="edge">
<title>Law&#45;&gt;Clause</title>
<path fill="none" stroke="black" d="M259.53,-579.12C252.25,-573.19 245.15,-567.11 238.5,-561 226.78,-550.24 228.46,-542.49 215,-534 188.24,-517.12 153.27,-508.24 126.96,-503.66"/>
<polygon fill="black" stroke="black" points="127.83,-500.26 117.4,-502.14 126.72,-507.17 127.83,-500.26"/>
<text xml:space="preserve" text-anchor="middle" x="284.25" y="-550.55" font-family="Arial" font-size="11.00"> hasRepealClause </text>
<text xml:space="preserve" text-anchor="middle" x="284.25" y="-537.05" font-family="Arial" font-size="11.00"> «only» &#160;</text>
</g>
<!-- Law&#45;&gt;Clause -->
<g id="edge15" class="edge">
<title>Law&#45;&gt;Clause</title>
<path fill="none" stroke="black" d="M352.03,-579.01C348.85,-562.29 342.37,-545.73 330,-534 301.53,-507 187.63,-500.75 127.17,-499.36"/>
<polygon fill="black" stroke="black" points="127.41,-495.86 117.34,-499.17 127.27,-502.86 127.41,-495.86"/>
<text xml:space="preserve" text-anchor="middle" x="400.56" y="-550.55" font-family="Arial" font-size="11.00"> hasSeveranceClause </text>
<text xml:space="preserve" text-anchor="middle" x="400.56" y="-537.05" font-family="Arial" font-size="11.00"> «only» &#160;</text>
</g>
<!-- Law&#45;&gt;Clause -->
<g id="edge16" class="edge">
<title>Law&#45;&gt;Clause</title>
<path fill="none" stroke="black" d="M456.76,-579.25C468.78,-564.55 472.54,-548.88 459,-534 436.97,-509.79 217.46,-501.97 127.32,-499.77"/>
<polygon fill="black" stroke="black" points="127.59,-496.27 117.51,-499.54 127.42,-503.27 127.59,-496.27"/>
<text xml:space="preserve" text-anchor="middle" x="519.3" y="-550.55" font-family="Arial" font-size="11.00"> hasTransitionClause </text>
<text xml:space="preserve" text-anchor="middle" x="519.3" y="-537.05" font-family="Arial" font-size="11.00"> «only» &#160;</text>
</g>
<!-- Definition -->
<g id="node4" class="node">
<title>Definition</title>
<g id="a_node4"><a xlink:href="../Definition.md" xlink:title="&lt;TABLE&gt;">
<polygon fill="lightgray" stroke="none" points="61.5,-416.88 61.5,-433.12 114.5,-433.12 114.5,-416.88 61.5,-416.88"/>
<text xml:space="preserve" text-anchor="start" x="62.5" y="-420.73" font-family="Arial" font-size="12.00">Definition</text>
<polygon fill="none" stroke="black" points="60.5,-415.88 60.5,-434.12 115.5,-434.12 115.5,-415.88 60.5,-415.88"/>
</a>
</g>
</g>
<!-- Law&#45;&gt;Definition -->
<g id="edge11" class="edge">
<title>Law&#45;&gt;Definition</title>
<path fill="none" stroke="black" d="M457.03,-628.78C532.83,-613.3 615.33,-584.25 575,-534 546.53,-498.52 236.79,-448.54 126.62,-431.75"/>
<polygon fill="black" stroke="black" points="127.3,-428.31 116.89,-430.28 126.25,-435.24 127.3,-428.31"/>
<text xml:space="preserve" text-anchor="middle" x="575.04" y="-501.05" font-family="Arial" font-size="11.00"> hasDefinition </text>
<text xml:space="preserve" text-anchor="middle" x="575.04" y="-487.55" font-family="Arial" font-size="11.00"> «only» &#160;</text>
</g>
<!-- JurisdictionalArea -->
<g id="node6" class="node">
<title>JurisdictionalArea</title>
<g id="a_node6"><a xlink:href="../JurisdictionalArea.md" xlink:title="&lt;TABLE&gt;">
<polygon fill="lightgray" stroke="none" points="17,-244.88 17,-261.12 115,-261.12 115,-244.88 17,-244.88"/>
<text xml:space="preserve" text-anchor="start" x="18" y="-248.72" font-family="Arial" font-size="12.00">JurisdictionalArea</text>
<polygon fill="none" stroke="black" points="16,-243.88 16,-262.12 116,-262.12 116,-243.88 16,-243.88"/>
</a>
</g>
</g>
<!-- Law&#45;&gt;JurisdictionalArea -->
<g id="edge18" class="edge">
<title>Law&#45;&gt;JurisdictionalArea</title>
<path fill="none" stroke="black" d="M456.74,-631.37C534.82,-615.42 628,-579.51 628,-499 628,-499 628,-499 628,-351 628,-300.63 272.91,-269.05 127.24,-258.21"/>
<polygon fill="black" stroke="black" points="127.61,-254.73 117.38,-257.49 127.1,-261.71 127.61,-254.73"/>
<text xml:space="preserve" text-anchor="middle" x="681.25" y="-428.05" font-family="Arial" font-size="11.00"> legislationJurisdiction </text>
<text xml:space="preserve" text-anchor="middle" x="681.25" y="-414.55" font-family="Arial" font-size="11.00"> «max 1» &#160;</text>
</g>
<!-- Schedule -->
<g id="node9" class="node">
<title>Schedule</title>
<g id="a_node9"><a xlink:href="../Schedule.md" xlink:title="&lt;TABLE&gt;">
<polygon fill="lightgray" stroke="none" points="52.5,-25.88 52.5,-42.12 105.5,-42.12 105.5,-25.88 52.5,-25.88"/>
<text xml:space="preserve" text-anchor="start" x="53.5" y="-29.73" font-family="Arial" font-size="12.00">Schedule</text>
<polygon fill="none" stroke="black" points="51.5,-24.88 51.5,-43.12 106.5,-43.12 106.5,-24.88 51.5,-24.88"/>
</a>
</g>
</g>
<!-- Law&#45;&gt;Schedule -->
<g id="edge14" class="edge">
<title>Law&#45;&gt;Schedule</title>
<path fill="none" stroke="black" d="M457.04,-628.2C578.81,-606.85 763,-563.84 763,-499 763,-499 763,-499 763,-106 763,-40.61 262.02,-35.14 117.55,-34.92"/>
<polygon fill="black" stroke="black" points="117.75,-31.42 107.75,-34.92 117.75,-38.42 117.75,-31.42"/>
<text xml:space="preserve" text-anchor="middle" x="797.12" y="-305.55" font-family="Arial" font-size="11.00"> hasSchedule </text>
<text xml:space="preserve" text-anchor="middle" x="797.12" y="-292.05" font-family="Arial" font-size="11.00"> «only» &#160;</text>
</g>
<!-- BylawThing -->
<g id="node10" class="node">
<title>BylawThing</title>
<g id="a_node10"><a xlink:href="../BylawThing.md" xlink:title="&lt;TABLE&gt;">
<polygon fill="lightgray" stroke="none" points="233.12,-804.5 233.12,-820.75 298.88,-820.75 298.88,-804.5 233.12,-804.5"/>
<text xml:space="preserve" text-anchor="start" x="234.12" y="-808.35" font-family="Arial" font-size="12.00">BylawThing</text>
<polygon fill="none" stroke="black" points="232.12,-803.5 232.12,-821.75 299.88,-821.75 299.88,-803.5 232.12,-803.5"/>
</a>
</g>
</g>
<!-- Law&#45;&gt;BylawThing -->
<g id="edge1" class="edge">
<title>Law&#45;&gt;BylawThing</title>
<path fill="none" stroke="black" d="M318.42,-710.67C305,-736.51 290.3,-764.84 279.88,-784.89"/>
<polygon fill="none" stroke="black" points="276.92,-783 275.42,-793.49 283.13,-786.23 276.92,-783"/>
</g>
<!-- Nd67ef633742c4207935e76a2c77872b3 -->
<g id="node11" class="node">
<title>Nd67ef633742c4207935e76a2c77872b3</title>
<polygon fill="lightgray" stroke="none" points="319.38,-819.75 319.38,-850.25 554.62,-850.25 554.62,-819.75 319.38,-819.75"/>
<text xml:space="preserve" text-anchor="start" x="414.5" y="-837.85" font-family="Arial" font-size="12.00">«Enum»</text>
<text xml:space="preserve" text-anchor="start" x="320.38" y="-823.6" font-family="Arial" font-size="12.00">Enum: InForce, NotInForce, PartiallyInForce</text>
<text xml:space="preserve" text-anchor="start" x="342.12" y="-807.35" font-family="Arial" font-size="12.00">+ InForce</text>
<text xml:space="preserve" text-anchor="start" x="332.75" y="-793.1" font-family="Arial" font-size="12.00">+ NotInForce</text>
<text xml:space="preserve" text-anchor="start" x="320.38" y="-778.85" font-family="Arial" font-size="12.00">+ PartiallyInForce</text>
<polygon fill="none" stroke="black" points="318.38,-774 318.38,-851.25 555.62,-851.25 555.62,-774 318.38,-774"/>
</g>
<!-- Law&#45;&gt;Nd67ef633742c4207935e76a2c77872b3 -->
<g id="edge17" class="edge">
<title>Law&#45;&gt;Nd67ef633742c4207935e76a2c77872b3</title>
<path fill="none" stroke="black" d="M385.22,-710.74C394.34,-728.5 404.05,-747.43 412.58,-764.03"/>
<polygon fill="black" stroke="black" points="409.34,-765.4 417.02,-772.7 415.57,-762.2 409.34,-765.4"/>
<text xml:space="preserve" text-anchor="middle" x="460.7" y="-745.55" font-family="Arial" font-size="11.00"> legislationLegalForce </text>
<text xml:space="preserve" text-anchor="middle" x="460.7" y="-732.05" font-family="Arial" font-size="11.00"> «only» &#160;</text>
</g>
<!-- Invis&#45;&gt;Clause -->
<!-- Clause&#45;&gt;Definition -->
<!-- InForce -->
<g id="node5" class="node">
<title>InForce</title>
<polygon fill="lightgray" stroke="none" points="52.75,-343.88 52.75,-360.12 95.25,-360.12 95.25,-343.88 52.75,-343.88"/>
<text xml:space="preserve" text-anchor="start" x="53.75" y="-347.73" font-family="Arial" font-size="12.00">InForce</text>
<polygon fill="none" stroke="black" points="51.75,-342.88 51.75,-361.12 96.25,-361.12 96.25,-342.88 51.75,-342.88"/>
</g>
<!-- Definition&#45;&gt;InForce -->
<!-- InForce&#45;&gt;JurisdictionalArea -->
<!-- NotInForce -->
<g id="node7" class="node">
<title>NotInForce</title>
<polygon fill="lightgray" stroke="none" points="36.38,-171.88 36.38,-188.12 97.62,-188.12 97.62,-171.88 36.38,-171.88"/>
<text xml:space="preserve" text-anchor="start" x="37.38" y="-175.72" font-family="Arial" font-size="12.00">NotInForce</text>
<polygon fill="none" stroke="black" points="35.38,-170.88 35.38,-189.12 98.62,-189.12 98.62,-170.88 35.38,-170.88"/>
</g>
<!-- JurisdictionalArea&#45;&gt;NotInForce -->
<!-- PartiallyInForce -->
<g id="node8" class="node">
<title>PartiallyInForce</title>
<polygon fill="lightgray" stroke="none" points="26,-98.88 26,-115.12 112,-115.12 112,-98.88 26,-98.88"/>
<text xml:space="preserve" text-anchor="start" x="27" y="-102.72" font-family="Arial" font-size="12.00">PartiallyInForce</text>
<polygon fill="none" stroke="black" points="25,-97.88 25,-116.12 113,-116.12 113,-97.88 25,-97.88"/>
</g>
<!-- NotInForce&#45;&gt;PartiallyInForce -->
<!-- PartiallyInForce&#45;&gt;Schedule -->
</g>
</svg>
