<?xml version="1.0" encoding="UTF-8" standalone="no"?>
<!DOCTYPE svg PUBLIC "-//W3C//DTD SVG 1.1//EN"
 "http://www.w3.org/Graphics/SVG/1.1/DTD/svg11.dtd">
<!-- Generated by graphviz version 14.0.2 (20251019.1705)
 -->
<!-- Pages: 1 -->
<svg width="151pt" height="132pt"
 viewBox="0.00 0.00 151.00 132.00" xmlns="http://www.w3.org/2000/svg" xmlns:xlink="http://www.w3.org/1999/xlink">
<g id="graph0" class="graph" transform="scale(1 1) rotate(0) translate(4 128)">
<polygon fill="white" stroke="none" points="-4,4 -4,-128 146.88,-128 146.88,4 -4,4"/>
<g id="clust2" class="cluster">
<title>cluster_associated</title>
</g>
<!-- Name -->
<g id="node1" class="node">
<title>Name</title>
<g id="a_node1"><a xlink:href="../Name.md" xlink:title="&lt;TABLE&gt;">
<polygon fill="lightgray" stroke="none" points="10.75,-25.88 10.75,-42.12 45,-42.12 45,-25.88 10.75,-25.88"/>
<text xml:space="preserve" text-anchor="start" x="11.75" y="-29.73" font-family="Arial" font-size="12.00">Name</text>
<polygon fill="none" stroke="black" points="9.75,-24.88 9.75,-43.12 46,-43.12 46,-24.88 9.75,-24.88"/>
</a>
</g>
</g>
<!-- CityThing -->
<g id="node3" class="node">
<title>CityThing</title>
<g id="a_node3"><a xlink:href="../CityThing.md" xlink:title="&lt;TABLE&gt;">
<polygon fill="lightgray" stroke="none" points="1,-97.88 1,-114.12 54.75,-114.12 54.75,-97.88 1,-97.88"/>
<text xml:space="preserve" text-anchor="start" x="2" y="-101.72" font-family="Arial" font-size="12.00">CityThing</text>
<polygon fill="none" stroke="black" points="0,-96.88 0,-115.12 55.75,-115.12 55.75,-96.88 0,-96.88"/>
</a>
</g>
</g>
<!-- Name&#45;&gt;CityThing -->
<g id="edge1" class="edge">
<title>Name&#45;&gt;CityThing</title>
<path fill="none" stroke="black" d="M27.88,-51.79C27.88,-59.25 27.88,-68.24 27.88,-76.69"/>
<polygon fill="none" stroke="black" points="24.38,-76.54 27.88,-86.54 31.38,-76.54 24.38,-76.54"/>
</g>
<!-- Invis -->
</g>
</svg>
