<?xml version="1.0" encoding="UTF-8" standalone="no"?>
<!DOCTYPE svg PUBLIC "-//W3C//DTD SVG 1.1//EN"
 "http://www.w3.org/Graphics/SVG/1.1/DTD/svg11.dtd">
<!-- Generated by graphviz version 14.0.2 (20251019.1705)
 -->
<!-- Pages: 1 -->
<svg width="310pt" height="139pt"
 viewBox="0.00 0.00 310.00 139.00" xmlns="http://www.w3.org/2000/svg" xmlns:xlink="http://www.w3.org/1999/xlink">
<g id="graph0" class="graph" transform="scale(1 1) rotate(0) translate(4 135.38)">
<polygon fill="white" stroke="none" points="-4,4 -4,-135.38 305.75,-135.38 305.75,4 -4,4"/>
<g id="clust2" class="cluster">
<title>cluster_associated</title>
</g>
<!-- Operation -->
<g id="node1" class="node">
<title>Operation</title>
<g id="a_node1"><a xlink:href="../Operation.md" xlink:title="&lt;TABLE&gt;">
<polygon fill="lightgray" stroke="none" points="20.5,-42.12 20.5,-58.38 213,-58.38 213,-42.12 20.5,-42.12"/>
<text xml:space="preserve" text-anchor="start" x="90.5" y="-45.98" font-family="Arial" font-size="12.00">Operation</text>
<text xml:space="preserve" text-anchor="start" x="21.5" y="-29.73" font-family="Arial" font-size="12.00">«max 1» hasClosingTime: xsd:time</text>
<text xml:space="preserve" text-anchor="start" x="21.5" y="-13.47" font-family="Arial" font-size="12.00">«max 1» hasOpeningTime: xsd:time</text>
<polygon fill="black" stroke="black" points="19.5,-42.12 19.5,-42.12 214,-42.12 214,-42.12 19.5,-42.12"/>
<polygon fill="none" stroke="black" points="19.5,-8.62 19.5,-59.38 214,-59.38 214,-8.62 19.5,-8.62"/>
</a>
</g>
</g>
<!-- cdm1_RecurringEvent -->
<g id="node3" class="node">
<title>cdm1_RecurringEvent</title>
<polygon fill="lightgray" stroke="none" points="1,-105.25 1,-121.5 118.5,-121.5 118.5,-105.25 1,-105.25"/>
<text xml:space="preserve" text-anchor="start" x="2" y="-109.1" font-family="Arial" font-size="12.00">cdm1:RecurringEvent</text>
<polygon fill="none" stroke="black" points="0,-104.25 0,-122.5 119.5,-122.5 119.5,-104.25 0,-104.25"/>
</g>
<!-- Operation&#45;&gt;cdm1_RecurringEvent -->
<g id="edge1" class="edge">
<title>Operation&#45;&gt;cdm1_RecurringEvent</title>
<path fill="none" stroke="black" d="M99,-59.1C92.59,-67.79 85.34,-77.64 78.82,-86.49"/>
<polygon fill="none" stroke="black" points="76.13,-84.24 73.02,-94.37 81.76,-88.39 76.13,-84.24"/>
</g>
<!-- CityOrgThing -->
<g id="node4" class="node">
<title>CityOrgThing</title>
<g id="a_node4"><a xlink:href="../CityOrgThing.md" xlink:title="&lt;TABLE&gt;">
<polygon fill="lightgray" stroke="none" points="138.12,-105.25 138.12,-121.5 211.38,-121.5 211.38,-105.25 138.12,-105.25"/>
<text xml:space="preserve" text-anchor="start" x="139.12" y="-109.1" font-family="Arial" font-size="12.00">CityOrgThing</text>
<polygon fill="none" stroke="black" points="137.12,-104.25 137.12,-122.5 212.38,-122.5 212.38,-104.25 137.12,-104.25"/>
</a>
</g>
</g>
<!-- Operation&#45;&gt;CityOrgThing -->
<g id="edge2" class="edge">
<title>Operation&#45;&gt;CityOrgThing</title>
<path fill="none" stroke="black" d="M134.81,-59.1C141.33,-67.79 148.72,-77.64 155.34,-86.49"/>
<polygon fill="none" stroke="black" points="152.46,-88.47 161.26,-94.37 158.06,-84.27 152.46,-88.47"/>
</g>
<!-- Invis -->
</g>
</svg>
