<?xml version="1.0" encoding="UTF-8" standalone="no"?>
<!DOCTYPE svg PUBLIC "-//W3C//DTD SVG 1.1//EN"
 "http://www.w3.org/Graphics/SVG/1.1/DTD/svg11.dtd">
<!-- Generated by graphviz version 14.0.2 (20251019.1705)
 -->
<!-- Pages: 1 -->
<svg width="775pt" height="1092pt"
 viewBox="0.00 0.00 775.00 1092.00" xmlns="http://www.w3.org/2000/svg" xmlns:xlink="http://www.w3.org/1999/xlink">
<g id="graph0" class="graph" transform="scale(1 1) rotate(0) translate(4 1088)">
<polygon fill="white" stroke="none" points="-4,4 -4,-1088 771.25,-1088 771.25,4 -4,4"/>
<g id="clust2" class="cluster">
<title>cluster_associated</title>
</g>
<!-- Person -->
<g id="node1" class="node">
<title>Person</title>
<g id="a_node1"><a xlink:href="../Person.md" xlink:title="&lt;TABLE&gt;">
<polygon fill="lightgray" stroke="none" points="344.88,-984.88 344.88,-1001.12 385.12,-1001.12 385.12,-984.88 344.88,-984.88"/>
<text xml:space="preserve" text-anchor="start" x="345.88" y="-988.73" font-family="Arial" font-size="12.00">Person</text>
<polygon fill="none" stroke="black" points="343.88,-983.88 343.88,-1002.12 386.12,-1002.12 386.12,-983.88 343.88,-983.88"/>
</a>
</g>
</g>
<!-- Person&#45;&gt;Person -->
<g id="edge18" class="edge">
<title>Person&#45;&gt;Person</title>
<path fill="none" stroke="black" d="M391.79,-995.28C401.78,-995.35 410,-994.59 410,-993 410,-992.08 407.25,-991.44 403.01,-991.07"/>
<polygon fill="black" stroke="black" points="403.41,-987.59 393.31,-990.77 403.19,-994.58 403.41,-987.59"/>
<text xml:space="preserve" text-anchor="middle" x="431.75" y="-996.05" font-family="Arial" font-size="11.00"> children </text>
<text xml:space="preserve" text-anchor="middle" x="431.75" y="-982.55" font-family="Arial" font-size="11.00"> «only» &#160;</text>
</g>
<!-- Person&#45;&gt;Person -->
<g id="edge25" class="edge">
<title>Person&#45;&gt;Person</title>
<path fill="none" stroke="black" d="M391.66,-996.72C419.01,-998.59 453.5,-997.35 453.5,-993 453.5,-989.23 427.56,-987.8 402.84,-988.7"/>
<polygon fill="black" stroke="black" points="402.98,-985.19 393.18,-989.2 403.34,-992.18 402.98,-985.19"/>
<text xml:space="preserve" text-anchor="middle" x="473.75" y="-996.05" font-family="Arial" font-size="11.00"> parent </text>
<text xml:space="preserve" text-anchor="middle" x="473.75" y="-982.55" font-family="Arial" font-size="11.00"> «only» &#160;</text>
</g>
<!-- Person&#45;&gt;Person -->
<g id="edge26" class="edge">
<title>Person&#45;&gt;Person</title>
<path fill="none" stroke="black" d="M391.93,-997.71C432.06,-1001.68 494,-1000.11 494,-993 494,-986.53 442.69,-984.65 403.22,-987.36"/>
<polygon fill="black" stroke="black" points="403.12,-983.85 393.44,-988.17 403.7,-990.83 403.12,-983.85"/>
<text xml:space="preserve" text-anchor="middle" x="514.25" y="-996.05" font-family="Arial" font-size="11.00"> spouse </text>
<text xml:space="preserve" text-anchor="middle" x="514.25" y="-982.55" font-family="Arial" font-size="11.00"> «only» &#160;</text>
</g>
<!-- Invis -->
<!-- Person&#45;&gt;Invis -->
<!-- Address -->
<g id="node3" class="node">
<title>Address</title>
<g id="a_node3"><a xlink:href="../Address.md" xlink:title="&lt;TABLE&gt;">
<polygon fill="lightgray" stroke="none" points="50.88,-885.88 50.88,-902.12 97.12,-902.12 97.12,-885.88 50.88,-885.88"/>
<text xml:space="preserve" text-anchor="start" x="51.88" y="-889.73" font-family="Arial" font-size="12.00">Address</text>
<polygon fill="none" stroke="black" points="49.88,-884.88 49.88,-903.12 98.12,-903.12 98.12,-884.88 49.88,-884.88"/>
</a>
</g>
</g>
<!-- Person&#45;&gt;Address -->
<g id="edge15" class="edge">
<title>Person&#45;&gt;Address</title>
<path fill="none" stroke="black" d="M338.15,-990.06C262.4,-984.47 51.88,-968.01 42,-957 32.52,-946.44 38.42,-932.56 47.6,-920.61"/>
<polygon fill="black" stroke="black" points="50.21,-922.95 54.08,-913.09 44.9,-918.38 50.21,-922.95"/>
<text xml:space="preserve" text-anchor="middle" x="73.5" y="-946.55" font-family="Arial" font-size="11.00"> hasAddress </text>
<text xml:space="preserve" text-anchor="middle" x="73.5" y="-933.05" font-family="Arial" font-size="11.00"> «only» &#160;</text>
</g>
<!-- Person&#45;&gt;Address -->
<g id="edge28" class="edge">
<title>Person&#45;&gt;Address</title>
<path fill="none" stroke="black" d="M338.41,-990.38C284.47,-986.72 164.27,-976.58 128.5,-957 114.54,-949.36 115.5,-941.95 105,-930 102.21,-926.82 99.28,-923.49 96.37,-920.2"/>
<polygon fill="black" stroke="black" points="99.1,-918.01 89.85,-912.84 93.86,-922.65 99.1,-918.01"/>
<text xml:space="preserve" text-anchor="middle" x="154.75" y="-946.55" font-family="Arial" font-size="11.00"> birthplace </text>
<text xml:space="preserve" text-anchor="middle" x="154.75" y="-933.05" font-family="Arial" font-size="11.00"> «max 1» &#160;</text>
</g>
<!-- Person&#45;&gt;Address -->
<g id="edge30" class="edge">
<title>Person&#45;&gt;Address</title>
<path fill="none" stroke="black" d="M338.01,-991.33C304.38,-989.39 246.21,-982.28 204,-957 190.48,-948.9 194.09,-938.78 181,-930 160.22,-916.07 133.47,-907.32 111.92,-902.05"/>
<polygon fill="black" stroke="black" points="112.87,-898.68 102.34,-899.87 111.32,-905.5 112.87,-898.68"/>
<text xml:space="preserve" text-anchor="middle" x="234" y="-946.55" font-family="Arial" font-size="11.00"> deathPlace </text>
<text xml:space="preserve" text-anchor="middle" x="234" y="-933.05" font-family="Arial" font-size="11.00"> «max 1» &#160;</text>
</g>
<!-- cdm1_MonetaryValue -->
<g id="node4" class="node">
<title>cdm1_MonetaryValue</title>
<polygon fill="lightgray" stroke="none" points="17.12,-786.88 17.12,-803.12 130.88,-803.12 130.88,-786.88 17.12,-786.88"/>
<text xml:space="preserve" text-anchor="start" x="18.12" y="-790.73" font-family="Arial" font-size="12.00">cdm1:MonetaryValue</text>
<polygon fill="none" stroke="black" points="16.12,-785.88 16.12,-804.12 131.88,-804.12 131.88,-785.88 16.12,-785.88"/>
</g>
<!-- Person&#45;&gt;cdm1_MonetaryValue -->
<g id="edge24" class="edge">
<title>Person&#45;&gt;cdm1_MonetaryValue</title>
<path fill="none" stroke="black" d="M338.21,-981.61C323.89,-975.47 306.31,-966.94 292,-957 277.8,-947.14 278.8,-938.93 264,-930 242.16,-916.82 231.72,-924.53 209.5,-912 165.64,-887.26 122.82,-847.15 97.43,-821.17"/>
<polygon fill="black" stroke="black" points="100.01,-818.81 90.55,-814.04 94.97,-823.67 100.01,-818.81"/>
<text xml:space="preserve" text-anchor="middle" x="229.75" y="-897.05" font-family="Arial" font-size="11.00"> income </text>
<text xml:space="preserve" text-anchor="middle" x="229.75" y="-883.55" font-family="Arial" font-size="11.00"> «only» &#160;</text>
</g>
<!-- Citizenship -->
<g id="node5" class="node">
<title>Citizenship</title>
<g id="a_node5"><a xlink:href="../Citizenship.md" xlink:title="&lt;TABLE&gt;">
<polygon fill="lightgray" stroke="none" points="69,-687.88 69,-704.12 131,-704.12 131,-687.88 69,-687.88"/>
<text xml:space="preserve" text-anchor="start" x="70" y="-691.73" font-family="Arial" font-size="12.00">Citizenship</text>
<polygon fill="none" stroke="black" points="68,-686.88 68,-705.12 132,-705.12 132,-686.88 68,-686.88"/>
</a>
</g>
</g>
<!-- Person&#45;&gt;Citizenship -->
<g id="edge19" class="edge">
<title>Person&#45;&gt;Citizenship</title>
<path fill="none" stroke="black" d="M339.65,-975.32C332.05,-969.85 323.91,-963.5 317,-957 282.97,-924.99 279.89,-911.9 250,-876 204.4,-821.22 150.69,-757.27 121.52,-722.57"/>
<polygon fill="black" stroke="black" points="124.4,-720.56 115.28,-715.16 119.04,-725.06 124.4,-720.56"/>
<text xml:space="preserve" text-anchor="middle" x="258.04" y="-847.55" font-family="Arial" font-size="11.00"> citizenOf </text>
<text xml:space="preserve" text-anchor="middle" x="258.04" y="-834.05" font-family="Arial" font-size="11.00"> «only» &#160;</text>
</g>
<!-- Education -->
<g id="node6" class="node">
<title>Education</title>
<g id="a_node6"><a xlink:href="../Education.md" xlink:title="&lt;TABLE&gt;">
<polygon fill="lightgray" stroke="none" points="75,-588.88 75,-605.12 131,-605.12 131,-588.88 75,-588.88"/>
<text xml:space="preserve" text-anchor="start" x="76" y="-592.73" font-family="Arial" font-size="12.00">Education</text>
<polygon fill="none" stroke="black" points="74,-587.88 74,-606.12 132,-606.12 132,-587.88 74,-587.88"/>
</a>
</g>
</g>
<!-- Person&#45;&gt;Education -->
<g id="edge20" class="edge">
<title>Person&#45;&gt;Education</title>
<path fill="none" stroke="black" d="M353.22,-975.24C349.44,-969.57 345.37,-963.12 342,-957 312.37,-903.15 325.96,-876.82 285,-831 274.57,-819.34 266.23,-823.62 254.75,-813 192.6,-755.51 140.92,-668.61 117.11,-624.99"/>
<polygon fill="black" stroke="black" points="120.21,-623.35 112.39,-616.21 114.04,-626.67 120.21,-623.35"/>
<text xml:space="preserve" text-anchor="middle" x="290.38" y="-798.05" font-family="Arial" font-size="11.00"> hasEducation </text>
<text xml:space="preserve" text-anchor="middle" x="290.38" y="-784.55" font-family="Arial" font-size="11.00"> «only» &#160;</text>
</g>
<!-- Gender -->
<g id="node7" class="node">
<title>Gender</title>
<g id="a_node7"><a xlink:href="../Gender.md" xlink:title="&lt;TABLE&gt;">
<polygon fill="lightgray" stroke="none" points="84.12,-489.88 84.12,-506.12 125.88,-506.12 125.88,-489.88 84.12,-489.88"/>
<text xml:space="preserve" text-anchor="start" x="85.12" y="-493.73" font-family="Arial" font-size="12.00">Gender</text>
<polygon fill="none" stroke="black" points="83.12,-488.88 83.12,-507.12 126.88,-507.12 126.88,-488.88 83.12,-488.88"/>
</a>
</g>
</g>
<!-- Person&#45;&gt;Gender -->
<g id="edge21" class="edge">
<title>Person&#45;&gt;Gender</title>
<path fill="none" stroke="black" d="M364.14,-975.29C361.49,-930.07 351.98,-806.69 326,-777 308.85,-757.41 290.84,-774.93 270.25,-759 227.94,-726.26 150.84,-585.92 119.17,-526.14"/>
<polygon fill="black" stroke="black" points="122.26,-524.51 114.51,-517.3 116.07,-527.78 122.26,-524.51"/>
<text xml:space="preserve" text-anchor="middle" x="317.12" y="-748.55" font-family="Arial" font-size="11.00"> hasGenderIdentity </text>
<text xml:space="preserve" text-anchor="middle" x="317.12" y="-735.05" font-family="Arial" font-size="11.00"> «only» &#160;</text>
</g>
<!-- PersonId -->
<g id="node8" class="node">
<title>PersonId</title>
<g id="a_node8"><a xlink:href="../PersonId.md" xlink:title="&lt;TABLE&gt;">
<polygon fill="lightgray" stroke="none" points="80,-390.88 80,-407.12 130,-407.12 130,-390.88 80,-390.88"/>
<text xml:space="preserve" text-anchor="start" x="81" y="-394.73" font-family="Arial" font-size="12.00">PersonId</text>
<polygon fill="none" stroke="black" points="79,-389.88 79,-408.12 131,-408.12 131,-389.88 79,-389.88"/>
</a>
</g>
</g>
<!-- Person&#45;&gt;PersonId -->
<g id="edge22" class="edge">
<title>Person&#45;&gt;PersonId</title>
<path fill="none" stroke="black" d="M370.32,-975.01C382.96,-931.22 410.44,-812.3 364,-732 356.02,-718.21 342.34,-726.91 333,-714 315.3,-689.53 319,-677.7 319,-647.5 319,-647.5 319,-647.5 319,-497 319,-420.55 204.3,-404.05 142.84,-400.69"/>
<polygon fill="black" stroke="black" points="143.33,-397.21 133.18,-400.26 143.02,-404.21 143.33,-397.21"/>
<text xml:space="preserve" text-anchor="middle" x="367.5" y="-699.05" font-family="Arial" font-size="11.00"> hasPersonID </text>
<text xml:space="preserve" text-anchor="middle" x="367.5" y="-685.55" font-family="Arial" font-size="11.00"> «only» &#160;</text>
</g>
<!-- PersonName -->
<g id="node9" class="node">
<title>PersonName</title>
<g id="a_node9"><a xlink:href="../PersonName.md" xlink:title="&lt;TABLE&gt;">
<polygon fill="lightgray" stroke="none" points="58.75,-317.88 58.75,-334.12 131.25,-334.12 131.25,-317.88 58.75,-317.88"/>
<text xml:space="preserve" text-anchor="start" x="59.75" y="-321.73" font-family="Arial" font-size="12.00">PersonName</text>
<polygon fill="none" stroke="black" points="57.75,-316.88 57.75,-335.12 132.25,-335.12 132.25,-316.88 57.75,-316.88"/>
</a>
</g>
</g>
<!-- Person&#45;&gt;PersonName -->
<g id="edge17" class="edge">
<title>Person&#45;&gt;PersonName</title>
<path fill="none" stroke="black" d="M380.3,-975.18C395.32,-956.86 416,-926.01 416,-895 416,-895 416,-895 416,-744.5 416,-714.3 420.65,-701.76 402,-678 390.59,-663.46 374.53,-675.53 364.5,-660 349.54,-636.85 363,-625.56 363,-598 363,-598 363,-598 363,-398 363,-353.08 220.51,-335.92 143.32,-329.92"/>
<polygon fill="black" stroke="black" points="143.72,-326.44 133.49,-329.19 143.21,-333.42 143.72,-326.44"/>
<text xml:space="preserve" text-anchor="middle" x="384.75" y="-649.55" font-family="Arial" font-size="11.00"> alias </text>
<text xml:space="preserve" text-anchor="middle" x="384.75" y="-636.05" font-family="Arial" font-size="11.00"> «only» &#160;</text>
</g>
<!-- Person&#45;&gt;PersonName -->
<g id="edge31" class="edge">
<title>Person&#45;&gt;PersonName</title>
<path fill="none" stroke="black" d="M391.7,-977.65C417.92,-961.39 454,-932.25 454,-895 454,-895 454,-895 454,-744.5 454,-705.17 438.18,-697.92 427.75,-660 414.24,-610.86 401,-599.46 401,-548.5 401,-548.5 401,-548.5 401,-398 401,-345.8 229.86,-331.96 143.55,-328.31"/>
<polygon fill="black" stroke="black" points="143.86,-324.82 133.73,-327.93 143.58,-331.81 143.86,-324.82"/>
<text xml:space="preserve" text-anchor="middle" x="452.88" y="-649.55" font-family="Arial" font-size="11.00"> name </text>
<text xml:space="preserve" text-anchor="middle" x="452.88" y="-636.05" font-family="Arial" font-size="11.00"> «max 1» &#160;</text>
</g>
<!-- PhoneNumber -->
<g id="node10" class="node">
<title>PhoneNumber</title>
<g id="a_node10"><a xlink:href="../PhoneNumber.md" xlink:title="&lt;TABLE&gt;">
<polygon fill="lightgray" stroke="none" points="51,-244.88 51,-261.12 131,-261.12 131,-244.88 51,-244.88"/>
<text xml:space="preserve" text-anchor="start" x="52" y="-248.72" font-family="Arial" font-size="12.00">PhoneNumber</text>
<polygon fill="none" stroke="black" points="50,-243.88 50,-262.12 132,-262.12 132,-243.88 50,-243.88"/>
</a>
</g>
</g>
<!-- Person&#45;&gt;PhoneNumber -->
<g id="edge16" class="edge">
<title>Person&#45;&gt;PhoneNumber</title>
<path fill="none" stroke="black" d="M391.93,-984.63C429.21,-972.61 492,-944.94 492,-895 492,-895 492,-895 492,-695 492,-666.75 491.19,-657.98 478,-633 472.9,-623.34 466.3,-624.69 461.25,-615 447.28,-588.19 447,-578.73 447,-548.5 447,-548.5 447,-548.5 447,-325 447,-263.77 241.91,-254.59 143.06,-253.72"/>
<polygon fill="black" stroke="black" points="143.37,-250.22 133.35,-253.66 143.33,-257.22 143.37,-250.22"/>
<text xml:space="preserve" text-anchor="middle" x="497.62" y="-600.05" font-family="Arial" font-size="11.00"> hasTelephone </text>
<text xml:space="preserve" text-anchor="middle" x="497.62" y="-586.55" font-family="Arial" font-size="11.00"> «only» &#160;</text>
</g>
<!-- Sex -->
<g id="node11" class="node">
<title>Sex</title>
<g id="a_node11"><a xlink:href="../Sex.md" xlink:title="&lt;TABLE&gt;">
<polygon fill="lightgray" stroke="none" points="91.5,-171.88 91.5,-188.12 114.5,-188.12 114.5,-171.88 91.5,-171.88"/>
<text xml:space="preserve" text-anchor="start" x="92.5" y="-175.72" font-family="Arial" font-size="12.00">Sex</text>
<polygon fill="none" stroke="black" points="90.5,-170.88 90.5,-189.12 115.5,-189.12 115.5,-170.88 90.5,-170.88"/>
</a>
</g>
</g>
<!-- Person&#45;&gt;Sex -->
<g id="edge32" class="edge">
<title>Person&#45;&gt;Sex</title>
<path fill="none" stroke="black" d="M391.61,-990C442.36,-984.6 548,-964.94 548,-895 548,-895 548,-895 548,-645.5 548,-615.3 545.83,-606.79 534,-579 530.21,-570.1 524.65,-570.23 521.75,-561 513.48,-534.71 521,-526.56 521,-499 521,-499 521,-499 521,-252 521,-213.68 244.38,-190.72 141.2,-183.49"/>
<polygon fill="black" stroke="black" points="141.51,-180 131.29,-182.81 141.03,-186.99 141.51,-180"/>
<text xml:space="preserve" text-anchor="middle" x="546.88" y="-550.55" font-family="Arial" font-size="11.00"> sex </text>
<text xml:space="preserve" text-anchor="middle" x="546.88" y="-537.05" font-family="Arial" font-size="11.00"> «max 1» &#160;</text>
</g>
<!-- Skill -->
<g id="node12" class="node">
<title>Skill</title>
<g id="a_node12"><a xlink:href="../Skill.md" xlink:title="&lt;TABLE&gt;">
<polygon fill="lightgray" stroke="none" points="90.38,-98.88 90.38,-115.12 115.62,-115.12 115.62,-98.88 90.38,-98.88"/>
<text xml:space="preserve" text-anchor="start" x="91.38" y="-102.72" font-family="Arial" font-size="12.00">Skill</text>
<polygon fill="none" stroke="black" points="89.38,-97.88 89.38,-116.12 116.62,-116.12 116.62,-97.88 89.38,-97.88"/>
</a>
</g>
</g>
<!-- Person&#45;&gt;Skill -->
<g id="edge23" class="edge">
<title>Person&#45;&gt;Skill</title>
<path fill="none" stroke="black" d="M391.66,-992.15C450.44,-990.93 586,-979.01 586,-895 586,-895 586,-895 586,-596 586,-530.34 567,-515.16 567,-449.5 567,-449.5 567,-449.5 567,-179 567,-136.05 252.33,-115.69 141.26,-109.84"/>
<polygon fill="black" stroke="black" points="141.63,-106.36 131.46,-109.34 141.27,-113.35 141.63,-106.36"/>
<text xml:space="preserve" text-anchor="middle" x="596.25" y="-501.05" font-family="Arial" font-size="11.00"> hasSkill </text>
<text xml:space="preserve" text-anchor="middle" x="596.25" y="-487.55" font-family="Arial" font-size="11.00"> «only» &#160;</text>
</g>
<!-- time_Instant -->
<g id="node13" class="node">
<title>time_Instant</title>
<polygon fill="lightgray" stroke="none" points="68.62,-25.88 68.62,-42.12 131.38,-42.12 131.38,-25.88 68.62,-25.88"/>
<text xml:space="preserve" text-anchor="start" x="69.62" y="-29.73" font-family="Arial" font-size="12.00">time:Instant</text>
<polygon fill="none" stroke="black" points="67.62,-24.88 67.62,-43.12 132.38,-43.12 132.38,-24.88 67.62,-24.88"/>
</g>
<!-- Person&#45;&gt;time_Instant -->
<g id="edge27" class="edge">
<title>Person&#45;&gt;time_Instant</title>
<path fill="none" stroke="black" d="M391.92,-992.84C434.05,-993.05 517.08,-988.9 578,-957 611.97,-939.21 638,-933.35 638,-895 638,-895 638,-895 638,-106 638,-56.21 271.13,-40.23 143.3,-36.18"/>
<polygon fill="black" stroke="black" points="143.66,-32.69 133.56,-35.88 143.44,-39.69 143.66,-32.69"/>
<text xml:space="preserve" text-anchor="middle" x="663.12" y="-451.55" font-family="Arial" font-size="11.00"> birthDate </text>
<text xml:space="preserve" text-anchor="middle" x="663.12" y="-438.05" font-family="Arial" font-size="11.00"> «max 1» &#160;</text>
</g>
<!-- Person&#45;&gt;time_Instant -->
<g id="edge29" class="edge">
<title>Person&#45;&gt;time_Instant</title>
<path fill="none" stroke="black" d="M391.86,-990.27C473.16,-984.31 711,-961.21 711,-895 711,-895 711,-895 711,-106 711,-48.8 283.02,-37.61 143.44,-35.49"/>
<polygon fill="black" stroke="black" points="143.55,-31.99 133.5,-35.34 143.45,-38.99 143.55,-31.99"/>
<text xml:space="preserve" text-anchor="middle" x="739.12" y="-451.55" font-family="Arial" font-size="11.00"> deathDate </text>
<text xml:space="preserve" text-anchor="middle" x="739.12" y="-438.05" font-family="Arial" font-size="11.00"> «max 1» &#160;</text>
</g>
<!-- cdm1_Agent -->
<g id="node14" class="node">
<title>cdm1_Agent</title>
<polygon fill="lightgray" stroke="none" points="288.12,-1057.88 288.12,-1074.12 353.88,-1074.12 353.88,-1057.88 288.12,-1057.88"/>
<text xml:space="preserve" text-anchor="start" x="289.12" y="-1061.72" font-family="Arial" font-size="12.00">cdm1:Agent</text>
<polygon fill="none" stroke="black" points="287.12,-1056.88 287.12,-1075.12 354.88,-1075.12 354.88,-1056.88 287.12,-1056.88"/>
</g>
<!-- Person&#45;&gt;cdm1_Agent -->
<g id="edge1" class="edge">
<title>Person&#45;&gt;cdm1_Agent</title>
<path fill="none" stroke="black" d="M354.65,-1010.71C349.51,-1019 343.18,-1029.21 337.4,-1038.54"/>
<polygon fill="none" stroke="black" points="334.52,-1036.54 332.22,-1046.89 340.47,-1040.23 334.52,-1036.54"/>
</g>
<!-- PersonThing -->
<g id="node15" class="node">
<title>PersonThing</title>
<g id="a_node15"><a xlink:href="../PersonThing.md" xlink:title="&lt;TABLE&gt;">
<polygon fill="lightgray" stroke="none" points="373.5,-1057.88 373.5,-1074.12 444.5,-1074.12 444.5,-1057.88 373.5,-1057.88"/>
<text xml:space="preserve" text-anchor="start" x="374.5" y="-1061.72" font-family="Arial" font-size="12.00">PersonThing</text>
<polygon fill="none" stroke="black" points="372.5,-1056.88 372.5,-1075.12 445.5,-1075.12 445.5,-1056.88 372.5,-1056.88"/>
</a>
</g>
</g>
<!-- Person&#45;&gt;PersonThing -->
<g id="edge2" class="edge">
<title>Person&#45;&gt;PersonThing</title>
<path fill="none" stroke="black" d="M375.35,-1010.71C380.49,-1019 386.82,-1029.21 392.6,-1038.54"/>
<polygon fill="none" stroke="black" points="389.53,-1040.23 397.78,-1046.89 395.48,-1036.54 389.53,-1040.23"/>
</g>
<!-- Invis&#45;&gt;Address -->
<!-- Address&#45;&gt;cdm1_MonetaryValue -->
<!-- cdm1_MonetaryValue&#45;&gt;Citizenship -->
<!-- Citizenship&#45;&gt;Education -->
<!-- Education&#45;&gt;Gender -->
<!-- Gender&#45;&gt;PersonId -->
<!-- PersonId&#45;&gt;PersonName -->
<!-- PersonName&#45;&gt;PhoneNumber -->
<!-- PhoneNumber&#45;&gt;Sex -->
<!-- Sex&#45;&gt;Skill -->
<!-- Skill&#45;&gt;time_Instant -->
</g>
</svg>
