<?xml version="1.0" encoding="UTF-8" standalone="no"?>
<!DOCTYPE svg PUBLIC "-//W3C//DTD SVG 1.1//EN"
 "http://www.w3.org/Graphics/SVG/1.1/DTD/svg11.dtd">
<!-- Generated by graphviz version 14.0.2 (20251019.1705)
 -->
<!-- Pages: 1 -->
<svg width="196pt" height="132pt"
 viewBox="0.00 0.00 196.00 132.00" xmlns="http://www.w3.org/2000/svg" xmlns:xlink="http://www.w3.org/1999/xlink">
<g id="graph0" class="graph" transform="scale(1 1) rotate(0) translate(4 128)">
<polygon fill="white" stroke="none" points="-4,4 -4,-128 191.75,-128 191.75,4 -4,4"/>
<g id="clust2" class="cluster">
<title>cluster_associated</title>
</g>
<!-- RailSegment -->
<g id="node1" class="node">
<title>RailSegment</title>
<g id="a_node1"><a xlink:href="../RailSegment.md" xlink:title="&lt;TABLE&gt;">
<polygon fill="lightgray" stroke="none" points="26.88,-25.88 26.88,-42.12 98.62,-42.12 98.62,-25.88 26.88,-25.88"/>
<text xml:space="preserve" text-anchor="start" x="27.88" y="-29.73" font-family="Arial" font-size="12.00">RailSegment</text>
<polygon fill="none" stroke="black" points="25.88,-24.88 25.88,-43.12 99.62,-43.12 99.62,-24.88 25.88,-24.88"/>
</a>
</g>
</g>
<!-- TravelledWaySegment -->
<g id="node3" class="node">
<title>TravelledWaySegment</title>
<g id="a_node3"><a xlink:href="../TravelledWaySegment.md" xlink:title="&lt;TABLE&gt;">
<polygon fill="lightgray" stroke="none" points="1,-97.88 1,-114.12 124.5,-114.12 124.5,-97.88 1,-97.88"/>
<text xml:space="preserve" text-anchor="start" x="2" y="-101.72" font-family="Arial" font-size="12.00">TravelledWaySegment</text>
<polygon fill="none" stroke="black" points="0,-96.88 0,-115.12 125.5,-115.12 125.5,-96.88 0,-96.88"/>
</a>
</g>
</g>
<!-- RailSegment&#45;&gt;TravelledWaySegment -->
<g id="edge1" class="edge">
<title>RailSegment&#45;&gt;TravelledWaySegment</title>
<path fill="none" stroke="black" d="M62.75,-51.79C62.75,-59.25 62.75,-68.24 62.75,-76.69"/>
<polygon fill="none" stroke="black" points="59.25,-76.54 62.75,-86.54 66.25,-76.54 59.25,-76.54"/>
</g>
<!-- Invis -->
</g>
</svg>
