<?xml version="1.0" encoding="UTF-8" standalone="no"?>
<!DOCTYPE svg PUBLIC "-//W3C//DTD SVG 1.1//EN"
 "http://www.w3.org/Graphics/SVG/1.1/DTD/svg11.dtd">
<!-- Generated by graphviz version 14.0.2 (20251019.1705)
 -->
<!-- Pages: 1 -->
<svg width="246pt" height="232pt"
 viewBox="0.00 0.00 246.00 232.00" xmlns="http://www.w3.org/2000/svg" xmlns:xlink="http://www.w3.org/1999/xlink">
<g id="graph0" class="graph" transform="scale(1 1) rotate(0) translate(4 228)">
<polygon fill="white" stroke="none" points="-4,4 -4,-228 242.12,-228 242.12,4 -4,4"/>
<g id="clust2" class="cluster">
<title>cluster_associated</title>
</g>
<!-- ResidentialRelationship -->
<g id="node1" class="node">
<title>ResidentialRelationship</title>
<g id="a_node1"><a xlink:href="../ResidentialRelationship.md" xlink:title="&lt;TABLE&gt;">
<polygon fill="lightgray" stroke="none" points="106.88,-124.88 106.88,-141.12 237.12,-141.12 237.12,-124.88 106.88,-124.88"/>
<text xml:space="preserve" text-anchor="start" x="107.88" y="-128.72" font-family="Arial" font-size="12.00">ResidentialRelationship</text>
<polygon fill="none" stroke="black" points="105.88,-123.88 105.88,-142.12 238.12,-142.12 238.12,-123.88 105.88,-123.88"/>
</a>
</g>
</g>
<!-- Invis -->
<!-- ResidentialRelationship&#45;&gt;Invis -->
<!-- Code -->
<g id="node3" class="node">
<title>Code</title>
<g id="a_node3"><a xlink:href="../Code.md" xlink:title="&lt;TABLE&gt;">
<polygon fill="lightgray" stroke="none" points="27.38,-25.88 27.38,-42.12 58.62,-42.12 58.62,-25.88 27.38,-25.88"/>
<text xml:space="preserve" text-anchor="start" x="28.38" y="-29.73" font-family="Arial" font-size="12.00">Code</text>
<polygon fill="none" stroke="black" points="26.38,-24.88 26.38,-43.12 59.62,-43.12 59.62,-24.88 26.38,-24.88"/>
</a>
</g>
</g>
<!-- ResidentialRelationship&#45;&gt;Code -->
<g id="edge4" class="edge">
<title>ResidentialRelationship&#45;&gt;Code</title>
<path fill="none" stroke="black" d="M149.53,-115.1C128.72,-99.46 97.57,-76.03 74.32,-58.55"/>
<polygon fill="black" stroke="black" points="76.52,-55.82 66.42,-52.61 72.31,-61.42 76.52,-55.82"/>
<text xml:space="preserve" text-anchor="middle" x="147.6" y="-86.55" font-family="Arial" font-size="11.00"> hasCode </text>
<text xml:space="preserve" text-anchor="middle" x="147.6" y="-73.05" font-family="Arial" font-size="11.00"> «only» &#160;</text>
</g>
<!-- CityResidentThing -->
<g id="node4" class="node">
<title>CityResidentThing</title>
<g id="a_node4"><a xlink:href="../CityResidentThing.md" xlink:title="&lt;TABLE&gt;">
<polygon fill="lightgray" stroke="none" points="121.12,-197.88 121.12,-214.12 222.88,-214.12 222.88,-197.88 121.12,-197.88"/>
<text xml:space="preserve" text-anchor="start" x="122.12" y="-201.72" font-family="Arial" font-size="12.00">CityResidentThing</text>
<polygon fill="none" stroke="black" points="120.12,-196.88 120.12,-215.12 223.88,-215.12 223.88,-196.88 120.12,-196.88"/>
</a>
</g>
</g>
<!-- ResidentialRelationship&#45;&gt;CityResidentThing -->
<g id="edge1" class="edge">
<title>ResidentialRelationship&#45;&gt;CityResidentThing</title>
<path fill="none" stroke="black" d="M172,-150.71C172,-158.47 172,-167.92 172,-176.74"/>
<polygon fill="none" stroke="black" points="168.5,-176.66 172,-186.66 175.5,-176.66 168.5,-176.66"/>
</g>
<!-- Invis&#45;&gt;Code -->
</g>
</svg>
