<?xml version="1.0" encoding="UTF-8" standalone="no"?>
<!DOCTYPE svg PUBLIC "-//W3C//DTD SVG 1.1//EN"
 "http://www.w3.org/Graphics/SVG/1.1/DTD/svg11.dtd">
<!-- Generated by graphviz version 14.0.2 (20251019.1705)
 -->
<!-- Pages: 1 -->
<svg width="224pt" height="232pt"
 viewBox="0.00 0.00 224.00 232.00" xmlns="http://www.w3.org/2000/svg" xmlns:xlink="http://www.w3.org/1999/xlink">
<g id="graph0" class="graph" transform="scale(1 1) rotate(0) translate(4 228)">
<polygon fill="white" stroke="none" points="-4,4 -4,-228 220,-228 220,4 -4,4"/>
<g id="clust2" class="cluster">
<title>cluster_associated</title>
</g>
<!-- Salary -->
<g id="node1" class="node">
<title>Salary</title>
<g id="a_node1"><a xlink:href="../Salary.md" xlink:title="&lt;TABLE&gt;">
<polygon fill="lightgray" stroke="none" points="156.75,-124.88 156.75,-141.12 193.25,-141.12 193.25,-124.88 156.75,-124.88"/>
<text xml:space="preserve" text-anchor="start" x="157.75" y="-128.72" font-family="Arial" font-size="12.00">Salary</text>
<polygon fill="none" stroke="black" points="155.75,-123.88 155.75,-142.12 194.25,-142.12 194.25,-123.88 155.75,-123.88"/>
</a>
</g>
</g>
<!-- Invis -->
<!-- Salary&#45;&gt;Invis -->
<!-- cdm1_MonetaryValue -->
<g id="node3" class="node">
<title>cdm1_MonetaryValue</title>
<polygon fill="lightgray" stroke="none" points="17.12,-25.88 17.12,-42.12 130.88,-42.12 130.88,-25.88 17.12,-25.88"/>
<text xml:space="preserve" text-anchor="start" x="18.12" y="-29.73" font-family="Arial" font-size="12.00">cdm1:MonetaryValue</text>
<polygon fill="none" stroke="black" points="16.12,-24.88 16.12,-43.12 131.88,-43.12 131.88,-24.88 16.12,-24.88"/>
</g>
<!-- Salary&#45;&gt;cdm1_MonetaryValue -->
<g id="edge4" class="edge">
<title>Salary&#45;&gt;cdm1_MonetaryValue</title>
<path fill="none" stroke="black" d="M157.41,-115.1C141.33,-99.66 117.38,-76.66 99.26,-59.26"/>
<polygon fill="black" stroke="black" points="102.12,-57.15 92.48,-52.75 97.27,-62.2 102.12,-57.15"/>
<text xml:space="preserve" text-anchor="middle" x="165.02" y="-86.55" font-family="Arial" font-size="11.00"> annualPay </text>
<text xml:space="preserve" text-anchor="middle" x="165.02" y="-73.05" font-family="Arial" font-size="11.00"> «max 1» &#160;</text>
</g>
<!-- Compensation -->
<g id="node4" class="node">
<title>Compensation</title>
<g id="a_node4"><a xlink:href="../Compensation.md" xlink:title="&lt;TABLE&gt;">
<polygon fill="lightgray" stroke="none" points="135,-197.88 135,-214.12 215,-214.12 215,-197.88 135,-197.88"/>
<text xml:space="preserve" text-anchor="start" x="136" y="-201.72" font-family="Arial" font-size="12.00">Compensation</text>
<polygon fill="none" stroke="black" points="134,-196.88 134,-215.12 216,-215.12 216,-196.88 134,-196.88"/>
</a>
</g>
</g>
<!-- Salary&#45;&gt;Compensation -->
<g id="edge1" class="edge">
<title>Salary&#45;&gt;Compensation</title>
<path fill="none" stroke="black" d="M175,-150.71C175,-158.47 175,-167.92 175,-176.74"/>
<polygon fill="none" stroke="black" points="171.5,-176.66 175,-186.66 178.5,-176.66 171.5,-176.66"/>
</g>
<!-- Invis&#45;&gt;cdm1_MonetaryValue -->
</g>
</svg>
