<?xml version="1.0" encoding="UTF-8" standalone="no"?>
<!DOCTYPE svg PUBLIC "-//W3C//DTD SVG 1.1//EN"
 "http://www.w3.org/Graphics/SVG/1.1/DTD/svg11.dtd">
<!-- Generated by graphviz version 14.0.2 (20251019.1705)
 -->
<!-- Pages: 1 -->
<svg width="551pt" height="477pt"
 viewBox="0.00 0.00 551.00 477.00" xmlns="http://www.w3.org/2000/svg" xmlns:xlink="http://www.w3.org/1999/xlink">
<g id="graph0" class="graph" transform="scale(1 1) rotate(0) translate(4 473)">
<polygon fill="white" stroke="none" points="-4,4 -4,-473 546.5,-473 546.5,4 -4,4"/>
<g id="clust2" class="cluster">
<title>cluster_associated</title>
</g>
<!-- Service -->
<g id="node1" class="node">
<title>Service</title>
<g id="a_node1"><a xlink:href="../Service.md" xlink:title="&lt;TABLE&gt;">
<polygon fill="lightgray" stroke="none" points="149.75,-369.88 149.75,-386.12 192.25,-386.12 192.25,-369.88 149.75,-369.88"/>
<text xml:space="preserve" text-anchor="start" x="150.75" y="-373.73" font-family="Arial" font-size="12.00">Service</text>
<polygon fill="none" stroke="black" points="148.75,-368.88 148.75,-387.12 193.25,-387.12 193.25,-368.88 148.75,-368.88"/>
</a>
</g>
</g>
<!-- Invis -->
<!-- Service&#45;&gt;Invis -->
<!-- Input -->
<g id="node3" class="node">
<title>Input</title>
<g id="a_node3"><a xlink:href="../Input.md" xlink:title="&lt;TABLE&gt;">
<polygon fill="lightgray" stroke="none" points="28.88,-270.88 28.88,-287.12 57.12,-287.12 57.12,-270.88 28.88,-270.88"/>
<text xml:space="preserve" text-anchor="start" x="29.88" y="-274.73" font-family="Arial" font-size="12.00">Input</text>
<polygon fill="none" stroke="black" points="27.88,-269.88 27.88,-288.12 58.12,-288.12 58.12,-269.88 27.88,-269.88"/>
</a>
</g>
</g>
<!-- Service&#45;&gt;Input -->
<g id="edge10" class="edge">
<title>Service&#45;&gt;Input</title>
<path fill="none" stroke="black" d="M144.15,-370.42C108.02,-361.44 47.88,-346 44.75,-342 37.41,-332.62 36.08,-319.78 36.95,-308.21"/>
<polygon fill="black" stroke="black" points="40.41,-308.7 38.28,-298.32 33.48,-307.76 40.41,-308.7"/>
<text xml:space="preserve" text-anchor="middle" x="68.38" y="-331.55" font-family="Arial" font-size="11.00"> hasInput </text>
<text xml:space="preserve" text-anchor="middle" x="68.38" y="-318.05" font-family="Arial" font-size="11.00"> «only» &#160;</text>
</g>
<!-- Outcome -->
<g id="node4" class="node">
<title>Outcome</title>
<g id="a_node4"><a xlink:href="../Outcome.md" xlink:title="&lt;TABLE&gt;">
<polygon fill="lightgray" stroke="none" points="29,-171.88 29,-188.12 79,-188.12 79,-171.88 29,-171.88"/>
<text xml:space="preserve" text-anchor="start" x="30" y="-175.72" font-family="Arial" font-size="12.00">Outcome</text>
<polygon fill="none" stroke="black" points="28,-170.88 28,-189.12 80,-189.12 80,-170.88 28,-170.88"/>
</a>
</g>
</g>
<!-- Service&#45;&gt;Outcome -->
<g id="edge11" class="edge">
<title>Service&#45;&gt;Outcome</title>
<path fill="none" stroke="black" d="M160.08,-360.29C149.64,-344.2 133.57,-319.12 120.25,-297 101.99,-266.68 81.95,-231.28 68.75,-207.64"/>
<polygon fill="black" stroke="black" points="71.85,-206.02 63.93,-198.98 65.74,-209.42 71.85,-206.02"/>
<text xml:space="preserve" text-anchor="middle" x="153.62" y="-282.05" font-family="Arial" font-size="11.00"> hasOutcome </text>
<text xml:space="preserve" text-anchor="middle" x="153.62" y="-268.55" font-family="Arial" font-size="11.00"> «only» &#160;</text>
</g>
<!-- Output -->
<g id="node5" class="node">
<title>Output</title>
<g id="a_node5"><a xlink:href="../Output.md" xlink:title="&lt;TABLE&gt;">
<polygon fill="lightgray" stroke="none" points="35.38,-98.88 35.38,-115.12 72.62,-115.12 72.62,-98.88 35.38,-98.88"/>
<text xml:space="preserve" text-anchor="start" x="36.38" y="-102.72" font-family="Arial" font-size="12.00">Output</text>
<polygon fill="none" stroke="black" points="34.38,-97.88 34.38,-116.12 73.62,-116.12 73.62,-97.88 34.38,-97.88"/>
</a>
</g>
</g>
<!-- Service&#45;&gt;Output -->
<g id="edge12" class="edge">
<title>Service&#45;&gt;Output</title>
<path fill="none" stroke="black" d="M178.5,-360.2C187.71,-337.03 200.54,-294.34 187,-261 182.8,-250.66 177.02,-251.24 169.5,-243 135.51,-205.74 97.82,-161 75.02,-133.54"/>
<polygon fill="black" stroke="black" points="77.93,-131.56 68.85,-126.09 72.54,-136.02 77.93,-131.56"/>
<text xml:space="preserve" text-anchor="middle" x="197.25" y="-232.55" font-family="Arial" font-size="11.00"> hasOutput </text>
<text xml:space="preserve" text-anchor="middle" x="197.25" y="-219.05" font-family="Arial" font-size="11.00"> «only» &#160;</text>
</g>
<!-- Stakeholder -->
<g id="node6" class="node">
<title>Stakeholder</title>
<g id="a_node6"><a xlink:href="../Stakeholder.md" xlink:title="&lt;TABLE&gt;">
<polygon fill="lightgray" stroke="none" points="16.75,-25.88 16.75,-42.12 83.25,-42.12 83.25,-25.88 16.75,-25.88"/>
<text xml:space="preserve" text-anchor="start" x="17.75" y="-29.73" font-family="Arial" font-size="12.00">Stakeholder</text>
<polygon fill="none" stroke="black" points="15.75,-24.88 15.75,-43.12 84.25,-43.12 84.25,-24.88 15.75,-24.88"/>
</a>
</g>
</g>
<!-- Service&#45;&gt;Stakeholder -->
<g id="edge8" class="edge">
<title>Service&#45;&gt;Stakeholder</title>
<path fill="none" stroke="black" d="M192.52,-360.19C212.44,-342.57 239,-312.91 239,-280 239,-280 239,-280 239,-106 239,-75.42 151.2,-53.54 95.29,-42.71"/>
<polygon fill="black" stroke="black" points="96.19,-39.32 85.71,-40.91 94.89,-46.2 96.19,-39.32"/>
<text xml:space="preserve" text-anchor="middle" x="302.75" y="-183.05" font-family="Arial" font-size="11.00"> hasBeneficialStakeholder </text>
<text xml:space="preserve" text-anchor="middle" x="302.75" y="-169.55" font-family="Arial" font-size="11.00"> «only» &#160;</text>
</g>
<!-- Service&#45;&gt;Stakeholder -->
<g id="edge9" class="edge">
<title>Service&#45;&gt;Stakeholder</title>
<path fill="none" stroke="black" d="M197.61,-377.64C258.55,-377.6 403,-368.19 403,-280 403,-280 403,-280 403,-106 403,-43.97 190.83,-35.44 95.47,-34.75"/>
<polygon fill="black" stroke="black" points="95.7,-31.25 85.68,-34.7 95.67,-38.25 95.7,-31.25"/>
<text xml:space="preserve" text-anchor="middle" x="472.75" y="-183.05" font-family="Arial" font-size="11.00"> hasContributingStakeholder </text>
<text xml:space="preserve" text-anchor="middle" x="472.75" y="-169.55" font-family="Arial" font-size="11.00"> «only» &#160;</text>
</g>
<!-- cdm1_Activity -->
<g id="node7" class="node">
<title>cdm1_Activity</title>
<polygon fill="lightgray" stroke="none" points="82.75,-442.88 82.75,-459.12 155.25,-459.12 155.25,-442.88 82.75,-442.88"/>
<text xml:space="preserve" text-anchor="start" x="83.75" y="-446.73" font-family="Arial" font-size="12.00">cdm1:Activity</text>
<polygon fill="none" stroke="black" points="81.75,-441.88 81.75,-460.12 156.25,-460.12 156.25,-441.88 81.75,-441.88"/>
</g>
<!-- Service&#45;&gt;cdm1_Activity -->
<g id="edge1" class="edge">
<title>Service&#45;&gt;cdm1_Activity</title>
<path fill="none" stroke="black" d="M158.77,-395.71C152.56,-404.17 144.89,-414.65 137.95,-424.13"/>
<polygon fill="none" stroke="black" points="135.3,-421.82 132.22,-431.95 140.95,-425.95 135.3,-421.82"/>
</g>
<!-- CityServiceThing -->
<g id="node8" class="node">
<title>CityServiceThing</title>
<g id="a_node8"><a xlink:href="../CityServiceThing.md" xlink:title="&lt;TABLE&gt;">
<polygon fill="lightgray" stroke="none" points="174.88,-442.88 174.88,-459.12 269.12,-459.12 269.12,-442.88 174.88,-442.88"/>
<text xml:space="preserve" text-anchor="start" x="175.88" y="-446.73" font-family="Arial" font-size="12.00">CityServiceThing</text>
<polygon fill="none" stroke="black" points="173.88,-441.88 173.88,-460.12 270.12,-460.12 270.12,-441.88 173.88,-441.88"/>
</a>
</g>
</g>
<!-- Service&#45;&gt;CityServiceThing -->
<g id="edge2" class="edge">
<title>Service&#45;&gt;CityServiceThing</title>
<path fill="none" stroke="black" d="M183,-395.71C189.02,-404.09 196.45,-414.43 203.21,-423.84"/>
<polygon fill="none" stroke="black" points="200.35,-425.86 209.03,-431.94 206.04,-421.78 200.35,-425.86"/>
</g>
<!-- Invis&#45;&gt;Input -->
<!-- Input&#45;&gt;Outcome -->
<!-- Outcome&#45;&gt;Output -->
<!-- Output&#45;&gt;Stakeholder -->
</g>
</svg>
