<?xml version="1.0" encoding="UTF-8" standalone="no"?>
<!DOCTYPE svg PUBLIC "-//W3C//DTD SVG 1.1//EN"
 "http://www.w3.org/Graphics/SVG/1.1/DTD/svg11.dtd">
<!-- Generated by graphviz version 14.0.2 (20251019.1705)
 -->
<!-- Pages: 1 -->
<svg width="331pt" height="404pt"
 viewBox="0.00 0.00 331.00 404.00" xmlns="http://www.w3.org/2000/svg" xmlns:xlink="http://www.w3.org/1999/xlink">
<g id="graph0" class="graph" transform="scale(1 1) rotate(0) translate(4 400)">
<polygon fill="white" stroke="none" points="-4,4 -4,-400 326.81,-400 326.81,4 -4,4"/>
<g id="clust2" class="cluster">
<title>cluster_associated</title>
</g>
<!-- Stakeholder -->
<g id="node1" class="node">
<title>Stakeholder</title>
<g id="a_node1"><a xlink:href="../Stakeholder.md" xlink:title="&lt;TABLE&gt;">
<polygon fill="lightgray" stroke="none" points="161.75,-296.88 161.75,-313.12 228.25,-313.12 228.25,-296.88 161.75,-296.88"/>
<text xml:space="preserve" text-anchor="start" x="162.75" y="-300.73" font-family="Arial" font-size="12.00">Stakeholder</text>
<polygon fill="none" stroke="black" points="160.75,-295.88 160.75,-314.12 229.25,-314.12 229.25,-295.88 160.75,-295.88"/>
</a>
</g>
</g>
<!-- Invis -->
<!-- Stakeholder&#45;&gt;Invis -->
<!-- CatchmentAreaType -->
<g id="node3" class="node">
<title>CatchmentAreaType</title>
<g id="a_node3"><a xlink:href="../CatchmentAreaType.md" xlink:title="&lt;TABLE&gt;">
<polygon fill="lightgray" stroke="none" points="17.25,-197.88 17.25,-214.12 128.75,-214.12 128.75,-197.88 17.25,-197.88"/>
<text xml:space="preserve" text-anchor="start" x="18.25" y="-201.72" font-family="Arial" font-size="12.00">CatchmentAreaType</text>
<polygon fill="none" stroke="black" points="16.25,-196.88 16.25,-215.12 129.75,-215.12 129.75,-196.88 16.25,-196.88"/>
</a>
</g>
</g>
<!-- Stakeholder&#45;&gt;CatchmentAreaType -->
<g id="edge10" class="edge">
<title>Stakeholder&#45;&gt;CatchmentAreaType</title>
<path fill="none" stroke="black" d="M160.91,-292.63C154.64,-290.67 148.14,-288.71 142,-287 108.45,-277.68 87.36,-296.3 65.75,-269 58.16,-259.4 58.67,-246.21 61.62,-234.46"/>
<polygon fill="black" stroke="black" points="64.86,-235.84 64.55,-225.25 58.18,-233.72 64.86,-235.84"/>
<text xml:space="preserve" text-anchor="middle" x="126.88" y="-258.55" font-family="Arial" font-size="11.00"> hasCatchmentAreaType </text>
<text xml:space="preserve" text-anchor="middle" x="126.88" y="-245.05" font-family="Arial" font-size="11.00"> «only» &#160;</text>
</g>
<!-- cdm1_Activity -->
<g id="node4" class="node">
<title>cdm1_Activity</title>
<polygon fill="lightgray" stroke="none" points="52.75,-98.88 52.75,-115.12 125.25,-115.12 125.25,-98.88 52.75,-98.88"/>
<text xml:space="preserve" text-anchor="start" x="53.75" y="-102.72" font-family="Arial" font-size="12.00">cdm1:Activity</text>
<polygon fill="none" stroke="black" points="51.75,-97.88 51.75,-116.12 126.25,-116.12 126.25,-97.88 51.75,-97.88"/>
</g>
<!-- Stakeholder&#45;&gt;cdm1_Activity -->
<g id="edge8" class="edge">
<title>Stakeholder&#45;&gt;cdm1_Activity</title>
<path fill="none" stroke="black" d="M195.43,-287.12C195.21,-274.32 193.7,-256.52 188,-242 171.25,-199.38 137.35,-158.22 113.92,-133.02"/>
<polygon fill="black" stroke="black" points="116.58,-130.74 107.16,-125.89 111.5,-135.55 116.58,-130.74"/>
<text xml:space="preserve" text-anchor="middle" x="204.17" y="-209.05" font-family="Arial" font-size="11.00"> performs </text>
<text xml:space="preserve" text-anchor="middle" x="204.17" y="-195.55" font-family="Arial" font-size="11.00"> «some» &#160;</text>
</g>
<!-- cdm1_Location -->
<g id="node5" class="node">
<title>cdm1_Location</title>
<polygon fill="lightgray" stroke="none" points="49,-25.88 49,-42.12 129,-42.12 129,-25.88 49,-25.88"/>
<text xml:space="preserve" text-anchor="start" x="50" y="-29.73" font-family="Arial" font-size="12.00">cdm1:Location</text>
<polygon fill="none" stroke="black" points="48,-24.88 48,-43.12 130,-43.12 130,-24.88 48,-24.88"/>
</g>
<!-- Stakeholder&#45;&gt;cdm1_Location -->
<g id="edge9" class="edge">
<title>Stakeholder&#45;&gt;cdm1_Location</title>
<path fill="none" stroke="black" d="M207.84,-287.25C223.63,-264.5 246.75,-222.67 233,-188 210.97,-132.44 158.14,-85.32 122.97,-58.6"/>
<polygon fill="black" stroke="black" points="125.33,-55.99 115.22,-52.84 121.16,-61.61 125.33,-55.99"/>
<text xml:space="preserve" text-anchor="middle" x="273.31" y="-159.55" font-family="Arial" font-size="11.00"> hasCatchmentArea </text>
<text xml:space="preserve" text-anchor="middle" x="273.31" y="-146.05" font-family="Arial" font-size="11.00"> «only» &#160;</text>
</g>
<!-- cdm1_Organization -->
<g id="node6" class="node">
<title>cdm1_Organization</title>
<polygon fill="lightgray" stroke="none" points="25.75,-369.88 25.75,-386.12 128.25,-386.12 128.25,-369.88 25.75,-369.88"/>
<text xml:space="preserve" text-anchor="start" x="26.75" y="-373.73" font-family="Arial" font-size="12.00">cdm1:Organization</text>
<polygon fill="none" stroke="black" points="24.75,-368.88 24.75,-387.12 129.25,-387.12 129.25,-368.88 24.75,-368.88"/>
</g>
<!-- Stakeholder&#45;&gt;cdm1_Organization -->
<g id="edge1" class="edge">
<title>Stakeholder&#45;&gt;cdm1_Organization</title>
<path fill="none" stroke="black" d="M166.83,-322.95C151.18,-332.37 131.51,-344.2 114.57,-354.39"/>
<polygon fill="none" stroke="black" points="113.03,-351.24 106.26,-359.39 116.63,-357.24 113.03,-351.24"/>
</g>
<!-- CityServiceThing -->
<g id="node7" class="node">
<title>CityServiceThing</title>
<g id="a_node7"><a xlink:href="../CityServiceThing.md" xlink:title="&lt;TABLE&gt;">
<polygon fill="lightgray" stroke="none" points="147.88,-369.88 147.88,-386.12 242.12,-386.12 242.12,-369.88 147.88,-369.88"/>
<text xml:space="preserve" text-anchor="start" x="148.88" y="-373.73" font-family="Arial" font-size="12.00">CityServiceThing</text>
<polygon fill="none" stroke="black" points="146.88,-368.88 146.88,-387.12 243.12,-387.12 243.12,-368.88 146.88,-368.88"/>
</a>
</g>
</g>
<!-- Stakeholder&#45;&gt;CityServiceThing -->
<g id="edge2" class="edge">
<title>Stakeholder&#45;&gt;CityServiceThing</title>
<path fill="none" stroke="black" d="M195,-322.71C195,-330.47 195,-339.92 195,-348.74"/>
<polygon fill="none" stroke="black" points="191.5,-348.66 195,-358.66 198.5,-348.66 191.5,-348.66"/>
</g>
<!-- Person -->
<g id="node8" class="node">
<title>Person</title>
<g id="a_node8"><a xlink:href="../Person.md" xlink:title="&lt;TABLE&gt;">
<polygon fill="lightgray" stroke="none" points="267.88,-369.88 267.88,-386.12 308.12,-386.12 308.12,-369.88 267.88,-369.88"/>
<text xml:space="preserve" text-anchor="start" x="268.88" y="-373.73" font-family="Arial" font-size="12.00">Person</text>
<polygon fill="none" stroke="black" points="266.88,-368.88 266.88,-387.12 309.12,-387.12 309.12,-368.88 266.88,-368.88"/>
</a>
</g>
</g>
<!-- Stakeholder&#45;&gt;Person -->
<g id="edge3" class="edge">
<title>Stakeholder&#45;&gt;Person</title>
<path fill="none" stroke="black" d="M217.2,-322.95C229.07,-332.01 243.88,-343.32 256.88,-353.24"/>
<polygon fill="none" stroke="black" points="254.68,-355.97 264.76,-359.26 258.93,-350.41 254.68,-355.97"/>
</g>
<!-- Invis&#45;&gt;CatchmentAreaType -->
<!-- CatchmentAreaType&#45;&gt;cdm1_Activity -->
<!-- cdm1_Activity&#45;&gt;cdm1_Location -->
</g>
</svg>
