<?xml version="1.0" encoding="UTF-8" standalone="no"?>
<!DOCTYPE svg PUBLIC "-//W3C//DTD SVG 1.1//EN"
 "http://www.w3.org/Graphics/SVG/1.1/DTD/svg11.dtd">
<!-- Generated by graphviz version 14.0.2 (20251019.1705)
 -->
<!-- Pages: 1 -->
<svg width="182pt" height="232pt"
 viewBox="0.00 0.00 182.00 232.00" xmlns="http://www.w3.org/2000/svg" xmlns:xlink="http://www.w3.org/1999/xlink">
<g id="graph0" class="graph" transform="scale(1 1) rotate(0) translate(4 228)">
<polygon fill="white" stroke="none" points="-4,4 -4,-228 178,-228 178,4 -4,4"/>
<g id="clust2" class="cluster">
<title>cluster_associated</title>
</g>
<!-- StreetType -->
<g id="node1" class="node">
<title>StreetType</title>
<g id="a_node1"><a xlink:href="../StreetType.md" xlink:title="&lt;TABLE&gt;">
<polygon fill="lightgray" stroke="none" points="106.12,-124.88 106.12,-141.12 165.88,-141.12 165.88,-124.88 106.12,-124.88"/>
<text xml:space="preserve" text-anchor="start" x="107.12" y="-128.72" font-family="Arial" font-size="12.00">StreetType</text>
<polygon fill="none" stroke="black" points="105.12,-123.88 105.12,-142.12 166.88,-142.12 166.88,-123.88 105.12,-123.88"/>
</a>
</g>
</g>
<!-- Invis -->
<!-- StreetType&#45;&gt;Invis -->
<!-- Code -->
<g id="node3" class="node">
<title>Code</title>
<g id="a_node3"><a xlink:href="../Code.md" xlink:title="&lt;TABLE&gt;">
<polygon fill="lightgray" stroke="none" points="27.38,-25.88 27.38,-42.12 58.62,-42.12 58.62,-25.88 27.38,-25.88"/>
<text xml:space="preserve" text-anchor="start" x="28.38" y="-29.73" font-family="Arial" font-size="12.00">Code</text>
<polygon fill="none" stroke="black" points="26.38,-24.88 26.38,-43.12 59.62,-43.12 59.62,-24.88 26.38,-24.88"/>
</a>
</g>
</g>
<!-- StreetType&#45;&gt;Code -->
<g id="edge4" class="edge">
<title>StreetType&#45;&gt;Code</title>
<path fill="none" stroke="black" d="M119.8,-115.1C105.13,-99.8 83.34,-77.07 66.71,-59.73"/>
<polygon fill="black" stroke="black" points="69.51,-57.59 60.06,-52.8 64.46,-62.44 69.51,-57.59"/>
<text xml:space="preserve" text-anchor="middle" x="125.31" y="-86.55" font-family="Arial" font-size="11.00"> hasCode </text>
<text xml:space="preserve" text-anchor="middle" x="125.31" y="-73.05" font-family="Arial" font-size="11.00"> «only» &#160;</text>
</g>
<!-- ContactThing -->
<g id="node4" class="node">
<title>ContactThing</title>
<g id="a_node4"><a xlink:href="../ContactThing.md" xlink:title="&lt;TABLE&gt;">
<polygon fill="lightgray" stroke="none" points="99,-197.88 99,-214.12 173,-214.12 173,-197.88 99,-197.88"/>
<text xml:space="preserve" text-anchor="start" x="100" y="-201.72" font-family="Arial" font-size="12.00">ContactThing</text>
<polygon fill="none" stroke="black" points="98,-196.88 98,-215.12 174,-215.12 174,-196.88 98,-196.88"/>
</a>
</g>
</g>
<!-- StreetType&#45;&gt;ContactThing -->
<g id="edge1" class="edge">
<title>StreetType&#45;&gt;ContactThing</title>
<path fill="none" stroke="black" d="M136,-150.71C136,-158.47 136,-167.92 136,-176.74"/>
<polygon fill="none" stroke="black" points="132.5,-176.66 136,-186.66 139.5,-176.66 132.5,-176.66"/>
</g>
<!-- Invis&#45;&gt;Code -->
</g>
</svg>
