<?xml version="1.0" encoding="UTF-8" standalone="no"?>
<!DOCTYPE svg PUBLIC "-//W3C//DTD SVG 1.1//EN"
 "http://www.w3.org/Graphics/SVG/1.1/DTD/svg11.dtd">
<!-- Generated by graphviz version 14.1.3 (20260303.0454)
 -->
<!-- Pages: 1 -->
<svg width="198pt" height="286pt"
 viewBox="0.00 0.00 198.00 286.00" xmlns="http://www.w3.org/2000/svg" xmlns:xlink="http://www.w3.org/1999/xlink">
<g id="graph0" class="graph" transform="scale(1 1) rotate(0) translate(4 282)">
<polygon fill="white" stroke="none" points="-4,4 -4,-282 194.25,-282 194.25,4 -4,4"/>
<g id="clust3" class="cluster">
<title>cluster_associated</title>
</g>
<!-- InfrastructureElement -->
<g id="node1" class="node">
<title>InfrastructureElement</title>
<g id="a_node1"><a xlink:href="../InfrastructureElement" xlink:title="&lt;TABLE&gt;">
<polygon fill="lightgray" stroke="none" points="27.38,-251.88 27.38,-268.12 142.62,-268.12 142.62,-251.88 27.38,-251.88"/>
<text xml:space="preserve" text-anchor="start" x="28.38" y="-255.88" font-family="Arial" font-size="12.00">InfrastructureElement</text>
<polygon fill="none" stroke="black" points="26.38,-250.88 26.38,-269.12 143.62,-269.12 143.62,-250.88 26.38,-250.88"/>
</a>
</g>
</g>
<!-- TravelledWaySegment -->
<g id="node2" class="node">
<title>TravelledWaySegment</title>
<g id="a_node2"><a xlink:href="../TravelledWaySegment" xlink:title="&lt;TABLE&gt;">
<polygon fill="lightgray" stroke="none" points="23.25,-178.88 23.25,-195.12 146.75,-195.12 146.75,-178.88 23.25,-178.88"/>
<text xml:space="preserve" text-anchor="start" x="24.25" y="-182.88" font-family="Arial" font-size="12.00">TravelledWaySegment</text>
<polygon fill="none" stroke="black" points="22.25,-177.88 22.25,-196.12 147.75,-196.12 147.75,-177.88 22.25,-177.88"/>
</a>
</g>
</g>
<!-- TravelledWaySegment&#45;&gt;InfrastructureElement -->
<g id="edge1" class="edge">
<title>TravelledWaySegment&#45;&gt;InfrastructureElement</title>
<path fill="none" stroke="black" d="M85,-204.71C85,-212.47 85,-221.92 85,-230.74"/>
<polygon fill="none" stroke="black" points="81.5,-230.66 85,-240.66 88.5,-230.66 81.5,-230.66"/>
</g>
<!-- Invis -->
<!-- TravelledWaySegment&#45;&gt;Invis -->
<!-- TravelledWayLink -->
<g id="node4" class="node">
<title>TravelledWayLink</title>
<g id="a_node4"><a xlink:href="../TravelledWayLink" xlink:title="&lt;TABLE&gt;">
<polygon fill="lightgray" stroke="none" points="17,-25.88 17,-42.12 115,-42.12 115,-25.88 17,-25.88"/>
<text xml:space="preserve" text-anchor="start" x="18" y="-29.88" font-family="Arial" font-size="12.00">TravelledWayLink</text>
<polygon fill="none" stroke="black" points="16,-24.88 16,-43.12 116,-43.12 116,-24.88 16,-24.88"/>
</a>
</g>
</g>
<!-- TravelledWaySegment&#45;&gt;TravelledWayLink -->
<g id="edge4" class="edge">
<title>TravelledWaySegment&#45;&gt;TravelledWayLink</title>
<path fill="none" stroke="black" d="M88.45,-169.32C91.89,-149.83 95.88,-116.71 90,-89 88.07,-79.93 84.52,-70.53 80.72,-62.17"/>
<polygon fill="black" stroke="black" points="83.9,-60.7 76.37,-53.25 77.61,-63.77 83.9,-60.7"/>
<polygon fill="white" stroke="none" points="93,-89 93,-132 190.25,-132 190.25,-89 93,-89"/>
<text xml:space="preserve" text-anchor="start" x="97" y="-117.5" font-family="Arial" font-size="11.00">cdm1:aggregateOf</text>
<text xml:space="preserve" text-anchor="start" x="133.38" y="-96" font-family="Arial" font-size="11.00">1..*</text>
</g>
<!-- Invis&#45;&gt;TravelledWayLink -->
</g>
</svg>
