<?xml version="1.0" encoding="UTF-8" standalone="no"?>
<!DOCTYPE svg PUBLIC "-//W3C//DTD SVG 1.1//EN"
 "http://www.w3.org/Graphics/SVG/1.1/DTD/svg11.dtd">
<!-- Generated by graphviz version 14.1.3 (20260303.0454)
 -->
<!-- Pages: 1 -->
<svg width="206pt" height="279pt"
 viewBox="0.00 0.00 206.00 279.00" xmlns="http://www.w3.org/2000/svg" xmlns:xlink="http://www.w3.org/1999/xlink">
<g id="graph0" class="graph" transform="scale(1 1) rotate(0) translate(4 275)">
<polygon fill="white" stroke="none" points="-4,4 -4,-275 202.23,-275 202.23,4 -4,4"/>
<g id="clust3" class="cluster">
<title>cluster_associated</title>
</g>
<!-- InfrastructureElement -->
<g id="node1" class="node">
<title>InfrastructureElement</title>
<g id="a_node1"><a xlink:href="../InfrastructureElement" xlink:title="&lt;TABLE&gt;">
<polygon fill="lightgray" stroke="none" points="27.38,-244.88 27.38,-261.12 142.62,-261.12 142.62,-244.88 27.38,-244.88"/>
<text xml:space="preserve" text-anchor="start" x="28.38" y="-248.88" font-family="Arial" font-size="12.00">InfrastructureElement</text>
<polygon fill="none" stroke="black" points="26.38,-243.88 26.38,-262.12 143.62,-262.12 143.62,-243.88 26.38,-243.88"/>
</a>
</g>
</g>
<!-- TravelledWay -->
<g id="node2" class="node">
<title>TravelledWay</title>
<g id="a_node2"><a xlink:href="../TravelledWay" xlink:title="&lt;TABLE&gt;">
<polygon fill="lightgray" stroke="none" points="47.25,-171.88 47.25,-188.12 122.75,-188.12 122.75,-171.88 47.25,-171.88"/>
<text xml:space="preserve" text-anchor="start" x="48.25" y="-175.88" font-family="Arial" font-size="12.00">TravelledWay</text>
<polygon fill="none" stroke="black" points="46.25,-170.88 46.25,-189.12 123.75,-189.12 123.75,-170.88 46.25,-170.88"/>
</a>
</g>
</g>
<!-- TravelledWay&#45;&gt;InfrastructureElement -->
<g id="edge1" class="edge">
<title>TravelledWay&#45;&gt;InfrastructureElement</title>
<path fill="none" stroke="black" d="M85,-197.71C85,-205.47 85,-214.92 85,-223.74"/>
<polygon fill="none" stroke="black" points="81.5,-223.66 85,-233.66 88.5,-223.66 81.5,-223.66"/>
</g>
<!-- Invis -->
<!-- TravelledWay&#45;&gt;Invis -->
<!-- TravelledWayLink -->
<g id="node4" class="node">
<title>TravelledWayLink</title>
<g id="a_node4"><a xlink:href="../TravelledWayLink" xlink:title="&lt;TABLE&gt;">
<polygon fill="lightgray" stroke="none" points="17,-25.88 17,-42.12 115,-42.12 115,-25.88 17,-25.88"/>
<text xml:space="preserve" text-anchor="start" x="18" y="-29.88" font-family="Arial" font-size="12.00">TravelledWayLink</text>
<polygon fill="none" stroke="black" points="16,-24.88 16,-43.12 116,-43.12 116,-24.88 16,-24.88"/>
</a>
</g>
</g>
<!-- TravelledWay&#45;&gt;TravelledWayLink -->
<g id="edge4" class="edge">
<title>TravelledWay&#45;&gt;TravelledWayLink</title>
<path fill="none" stroke="black" d="M88.54,-162.21C91.78,-143.98 95.33,-114.11 90,-89 88.07,-79.93 84.52,-70.53 80.72,-62.17"/>
<polygon fill="black" stroke="black" points="83.9,-60.7 76.37,-53.25 77.61,-63.77 83.9,-60.7"/>
<polygon fill="white" stroke="none" points="92.73,-96.25 92.73,-117.75 198.23,-117.75 198.23,-96.25 92.73,-96.25"/>
<text xml:space="preserve" text-anchor="start" x="96.73" y="-103.25" font-family="Arial" font-size="11.00">cdm1:aggregationOf</text>
</g>
<!-- Invis&#45;&gt;TravelledWayLink -->
</g>
</svg>
