<?xml version="1.0" encoding="UTF-8" standalone="no"?>
<!DOCTYPE svg PUBLIC "-//W3C//DTD SVG 1.1//EN"
 "http://www.w3.org/Graphics/SVG/1.1/DTD/svg11.dtd">
<!-- Generated by graphviz version 14.0.2 (20251019.1705)
 -->
<!-- Pages: 1 -->
<svg width="269pt" height="232pt"
 viewBox="0.00 0.00 269.00 232.00" xmlns="http://www.w3.org/2000/svg" xmlns:xlink="http://www.w3.org/1999/xlink">
<g id="graph0" class="graph" transform="scale(1 1) rotate(0) translate(4 228)">
<polygon fill="white" stroke="none" points="-4,4 -4,-228 264.62,-228 264.62,4 -4,4"/>
<g id="clust2" class="cluster">
<title>cluster_associated</title>
</g>
<!-- TunnelSegment -->
<g id="node1" class="node">
<title>TunnelSegment</title>
<g id="a_node1"><a xlink:href="../TunnelSegment.md" xlink:title="&lt;TABLE&gt;">
<polygon fill="lightgray" stroke="none" points="158.62,-124.88 158.62,-141.12 245.38,-141.12 245.38,-124.88 158.62,-124.88"/>
<text xml:space="preserve" text-anchor="start" x="159.62" y="-128.72" font-family="Arial" font-size="12.00">TunnelSegment</text>
<polygon fill="none" stroke="black" points="157.62,-123.88 157.62,-142.12 246.38,-142.12 246.38,-123.88 157.62,-123.88"/>
</a>
</g>
</g>
<!-- Invis -->
<!-- TunnelSegment&#45;&gt;Invis -->
<!-- TravelledWaySegment -->
<g id="node3" class="node">
<title>TravelledWaySegment</title>
<g id="a_node3"><a xlink:href="../TravelledWaySegment.md" xlink:title="&lt;TABLE&gt;">
<polygon fill="lightgray" stroke="none" points="17.25,-25.88 17.25,-42.12 140.75,-42.12 140.75,-25.88 17.25,-25.88"/>
<text xml:space="preserve" text-anchor="start" x="18.25" y="-29.73" font-family="Arial" font-size="12.00">TravelledWaySegment</text>
<polygon fill="none" stroke="black" points="16.25,-24.88 16.25,-43.12 141.75,-43.12 141.75,-24.88 16.25,-24.88"/>
</a>
</g>
</g>
<!-- TunnelSegment&#45;&gt;TravelledWaySegment -->
<g id="edge4" class="edge">
<title>TunnelSegment&#45;&gt;TravelledWaySegment</title>
<path fill="none" stroke="black" d="M180.58,-115.1C160.82,-99.53 131.3,-76.24 109.16,-58.79"/>
<polygon fill="black" stroke="black" points="111.39,-56.08 101.37,-52.64 107.05,-61.58 111.39,-56.08"/>
<text xml:space="preserve" text-anchor="middle" x="178.76" y="-86.55" font-family="Arial" font-size="11.00"> supports </text>
<text xml:space="preserve" text-anchor="middle" x="178.76" y="-73.05" font-family="Arial" font-size="11.00"> «only» &#160;</text>
</g>
<!-- InfrastructureElement -->
<g id="node4" class="node">
<title>InfrastructureElement</title>
<g id="a_node4"><a xlink:href="../InfrastructureElement.md" xlink:title="&lt;TABLE&gt;">
<polygon fill="lightgray" stroke="none" points="144.38,-197.88 144.38,-214.12 259.62,-214.12 259.62,-197.88 144.38,-197.88"/>
<text xml:space="preserve" text-anchor="start" x="145.38" y="-201.72" font-family="Arial" font-size="12.00">InfrastructureElement</text>
<polygon fill="none" stroke="black" points="143.38,-196.88 143.38,-215.12 260.62,-215.12 260.62,-196.88 143.38,-196.88"/>
</a>
</g>
</g>
<!-- TunnelSegment&#45;&gt;InfrastructureElement -->
<g id="edge1" class="edge">
<title>TunnelSegment&#45;&gt;InfrastructureElement</title>
<path fill="none" stroke="black" d="M202,-150.71C202,-158.47 202,-167.92 202,-176.74"/>
<polygon fill="none" stroke="black" points="198.5,-176.66 202,-186.66 205.5,-176.66 198.5,-176.66"/>
</g>
<!-- Invis&#45;&gt;TravelledWaySegment -->
</g>
</svg>
