<?xml version="1.0" encoding="UTF-8" standalone="no"?>
<!DOCTYPE svg PUBLIC "-//W3C//DTD SVG 1.1//EN"
 "http://www.w3.org/Graphics/SVG/1.1/DTD/svg11.dtd">
<!-- Generated by graphviz version 14.0.2 (20251019.1705)
 -->
<!-- Pages: 1 -->
<svg width="660pt" height="320pt"
 viewBox="0.00 0.00 660.00 320.00" xmlns="http://www.w3.org/2000/svg" xmlns:xlink="http://www.w3.org/1999/xlink">
<g id="graph0" class="graph" transform="scale(1 1) rotate(0) translate(4 315.75)">
<polygon fill="white" stroke="none" points="-4,4 -4,-315.75 655.75,-315.75 655.75,4 -4,4"/>
<g id="clust2" class="cluster">
<title>cluster_associated</title>
</g>
<!-- https_//standards.iso.org/iso&#45;iec/5087/&#45;2/ed&#45;1/en/ontology/Organization/BusinessEstablishment -->
<g id="node1" class="node">
<title>https_//standards.iso.org/iso&#45;iec/5087/&#45;2/ed&#45;1/en/ontology/Organization/BusinessEstablishment</title>
<g id="a_node1"><a xlink:href="../classes/Organization__https://standards.iso.org/iso-iec/5087/-2/ed-1/en/ontology/Organization/BusinessEstablishment.md" xlink:title="&lt;TABLE&gt;">
<polygon fill="lightgray" stroke="none" points="149.25,-221.5 149.25,-237.75 650.75,-237.75 650.75,-221.5 149.25,-221.5"/>
<text xml:space="preserve" text-anchor="start" x="150.25" y="-225.35" font-family="Arial" font-size="12.00">https://standards.iso.org/iso&#45;iec/5087/&#45;2/ed&#45;1/en/ontology/Organization/BusinessEstablishment</text>
<text xml:space="preserve" text-anchor="start" x="150.25" y="-209.1" font-family="Arial" font-size="12.00">hasaddress::hasAddress: hasaddress::Address «only»</text>
<text xml:space="preserve" text-anchor="start" x="150.25" y="-192.85" font-family="Arial" font-size="12.00">location::hasLocation: xsd::string «max 1»</text>
<polygon fill="none" stroke="black" points="148.25,-188 148.25,-238.75 651.75,-238.75 651.75,-188 148.25,-188"/>
</a>
</g>
</g>
<!-- CityOrgOntologyThing -->
<g id="node2" class="node">
<title>CityOrgOntologyThing</title>
<g id="a_node2"><a xlink:href="../_counters/Organization__CityOrgOntologyThing.md" xlink:title="&lt;TABLE&gt;">
<polygon fill="lightgray" stroke="none" points="339.38,-285.62 339.38,-301.88 460.62,-301.88 460.62,-285.62 339.38,-285.62"/>
<text xml:space="preserve" text-anchor="start" x="340.38" y="-289.48" font-family="Arial" font-size="12.00">CityOrgOntologyThing</text>
<polygon fill="none" stroke="black" points="338.38,-284.62 338.38,-302.88 461.62,-302.88 461.62,-284.62 338.38,-284.62"/>
</a>
</g>
</g>
<!-- https_//standards.iso.org/iso&#45;iec/5087/&#45;2/ed&#45;1/en/ontology/Organization/BusinessEstablishment&#45;&gt;CityOrgOntologyThing -->
<g id="edge1" class="edge">
<title>https_//standards.iso.org/iso&#45;iec/5087/&#45;2/ed&#45;1/en/ontology/Organization/BusinessEstablishment&#45;&gt;CityOrgOntologyThing</title>
<path fill="none" stroke="black" d="M400,-238.71C400,-246.97 400,-256.27 400,-264.79"/>
<polygon fill="none" stroke="black" points="396.5,-264.62 400,-274.62 403.5,-264.62 396.5,-264.62"/>
</g>
<!-- Invis -->
<!-- https_//standards.iso.org/iso&#45;iec/5087/&#45;2/ed&#45;1/en/ontology/Organization/BusinessEstablishment&#45;&gt;Invis -->
<!-- hasaddress__Address -->
<g id="node4" class="node">
<title>hasaddress__Address</title>
<polygon fill="lightgray" stroke="none" points="16.75,-98.88 16.75,-115.12 131.25,-115.12 131.25,-98.88 16.75,-98.88"/>
<text xml:space="preserve" text-anchor="start" x="17.75" y="-102.72" font-family="Arial" font-size="12.00">hasaddress::Address</text>
<polygon fill="none" stroke="black" points="15.75,-97.88 15.75,-116.12 132.25,-116.12 132.25,-97.88 15.75,-97.88"/>
</g>
<!-- https_//standards.iso.org/iso&#45;iec/5087/&#45;2/ed&#45;1/en/ontology/Organization/BusinessEstablishment&#45;&gt;hasaddress__Address -->
<g id="edge5" class="edge">
<title>https_//standards.iso.org/iso&#45;iec/5087/&#45;2/ed&#45;1/en/ontology/Organization/BusinessEstablishment&#45;&gt;hasaddress__Address</title>
<path fill="none" stroke="black" d="M287.22,-188.1C265.88,-182.72 243.88,-176.63 223.5,-170 188.28,-158.55 149.69,-142.45 120.55,-129.53"/>
<polygon fill="black" stroke="black" points="122.2,-126.43 111.64,-125.55 119.34,-132.82 122.2,-126.43"/>
<text xml:space="preserve" text-anchor="middle" x="285.75" y="-159.55" font-family="Arial" font-size="11.00"> hasaddress::hasAddress </text>
<text xml:space="preserve" text-anchor="middle" x="285.75" y="-146.05" font-family="Arial" font-size="11.00"> «only» &#160;</text>
</g>
<!-- location__Location -->
<g id="node5" class="node">
<title>location__Location</title>
<polygon fill="lightgray" stroke="none" points="31.12,-25.88 31.12,-42.12 126.88,-42.12 126.88,-25.88 31.12,-25.88"/>
<text xml:space="preserve" text-anchor="start" x="32.12" y="-29.73" font-family="Arial" font-size="12.00">location::Location</text>
<polygon fill="none" stroke="black" points="30.12,-24.88 30.12,-43.12 127.88,-43.12 127.88,-24.88 30.12,-24.88"/>
</g>
<!-- https_//standards.iso.org/iso&#45;iec/5087/&#45;2/ed&#45;1/en/ontology/Organization/BusinessEstablishment&#45;&gt;location__Location -->
<g id="edge6" class="edge">
<title>https_//standards.iso.org/iso&#45;iec/5087/&#45;2/ed&#45;1/en/ontology/Organization/BusinessEstablishment&#45;&gt;location__Location</title>
<path fill="none" stroke="black" d="M386.52,-188.16C377.3,-173.44 363.88,-155.19 348,-143 284.62,-94.35 196.39,-64.5 138.51,-48.85"/>
<polygon fill="black" stroke="black" points="139.74,-45.55 129.18,-46.39 137.95,-52.32 139.74,-45.55"/>
<text xml:space="preserve" text-anchor="middle" x="374.49" y="-110.05" font-family="Arial" font-size="11.00"> location::hasLocation </text>
<text xml:space="preserve" text-anchor="middle" x="374.49" y="-96.55" font-family="Arial" font-size="11.00"> «max 1» &#160;</text>
</g>
<!-- Invis&#45;&gt;hasaddress__Address -->
<!-- hasaddress__Address&#45;&gt;location__Location -->
</g>
</svg>
