<?xml version="1.0" encoding="UTF-8" standalone="no"?>
<!DOCTYPE svg PUBLIC "-//W3C//DTD SVG 1.1//EN"
 "http://www.w3.org/Graphics/SVG/1.1/DTD/svg11.dtd">
<!-- Generated by graphviz version 14.0.2 (20251019.1705)
 -->
<!-- Pages: 1 -->
<svg width="634pt" height="232pt"
 viewBox="0.00 0.00 634.00 232.00" xmlns="http://www.w3.org/2000/svg" xmlns:xlink="http://www.w3.org/1999/xlink">
<g id="graph0" class="graph" transform="scale(1 1) rotate(0) translate(4 228)">
<polygon fill="white" stroke="none" points="-4,4 -4,-228 630.12,-228 630.12,4 -4,4"/>
<g id="clust2" class="cluster">
<title>cluster_associated</title>
</g>
<!-- https_//standards.iso.org/iso&#45;iec/5087/&#45;2/ed&#45;1/en/ontology/Organization/Compensation -->
<g id="node1" class="node">
<title>https_//standards.iso.org/iso&#45;iec/5087/&#45;2/ed&#45;1/en/ontology/Organization/Compensation</title>
<g id="a_node1"><a xlink:href="../classes/Organization__https://standards.iso.org/iso-iec/5087/-2/ed-1/en/ontology/Organization/Compensation.md" xlink:title="&lt;TABLE&gt;">
<polygon fill="lightgray" stroke="none" points="170.88,-124.88 170.88,-141.12 625.12,-141.12 625.12,-124.88 170.88,-124.88"/>
<text xml:space="preserve" text-anchor="start" x="171.88" y="-128.72" font-family="Arial" font-size="12.00">https://standards.iso.org/iso&#45;iec/5087/&#45;2/ed&#45;1/en/ontology/Organization/Compensation</text>
<polygon fill="none" stroke="black" points="169.88,-123.88 169.88,-142.12 626.12,-142.12 626.12,-123.88 169.88,-123.88"/>
</a>
</g>
</g>
<!-- CityOrgOntologyThing -->
<g id="node2" class="node">
<title>CityOrgOntologyThing</title>
<g id="a_node2"><a xlink:href="../_counters/Organization__CityOrgOntologyThing.md" xlink:title="&lt;TABLE&gt;">
<polygon fill="lightgray" stroke="none" points="337.38,-197.88 337.38,-214.12 458.62,-214.12 458.62,-197.88 337.38,-197.88"/>
<text xml:space="preserve" text-anchor="start" x="338.38" y="-201.72" font-family="Arial" font-size="12.00">CityOrgOntologyThing</text>
<polygon fill="none" stroke="black" points="336.38,-196.88 336.38,-215.12 459.62,-215.12 459.62,-196.88 336.38,-196.88"/>
</a>
</g>
</g>
<!-- https_//standards.iso.org/iso&#45;iec/5087/&#45;2/ed&#45;1/en/ontology/Organization/Compensation&#45;&gt;CityOrgOntologyThing -->
<g id="edge1" class="edge">
<title>https_//standards.iso.org/iso&#45;iec/5087/&#45;2/ed&#45;1/en/ontology/Organization/Compensation&#45;&gt;CityOrgOntologyThing</title>
<path fill="none" stroke="black" d="M398,-150.71C398,-158.47 398,-167.92 398,-176.74"/>
<polygon fill="none" stroke="black" points="394.5,-176.66 398,-186.66 401.5,-176.66 394.5,-176.66"/>
</g>
<!-- Invis -->
<!-- https_//standards.iso.org/iso&#45;iec/5087/&#45;2/ed&#45;1/en/ontology/Organization/Compensation&#45;&gt;Invis -->
<!-- CityUnits__MonetaryValue -->
<g id="node4" class="node">
<title>CityUnits__MonetaryValue</title>
<polygon fill="lightgray" stroke="none" points="16.88,-25.88 16.88,-42.12 153.12,-42.12 153.12,-25.88 16.88,-25.88"/>
<text xml:space="preserve" text-anchor="start" x="17.88" y="-29.73" font-family="Arial" font-size="12.00">CityUnits::MonetaryValue</text>
<polygon fill="none" stroke="black" points="15.88,-24.88 15.88,-43.12 154.12,-43.12 154.12,-24.88 15.88,-24.88"/>
</g>
<!-- https_//standards.iso.org/iso&#45;iec/5087/&#45;2/ed&#45;1/en/ontology/Organization/Compensation&#45;&gt;CityUnits__MonetaryValue -->
<g id="edge4" class="edge">
<title>https_//standards.iso.org/iso&#45;iec/5087/&#45;2/ed&#45;1/en/ontology/Organization/Compensation&#45;&gt;CityUnits__MonetaryValue</title>
<path fill="none" stroke="black" d="M343.48,-115.1C289.76,-98.45 207.63,-73 150.42,-55.27"/>
<polygon fill="black" stroke="black" points="151.72,-52.01 141.13,-52.39 149.64,-58.7 151.72,-52.01"/>
<text xml:space="preserve" text-anchor="middle" x="303.86" y="-86.55" font-family="Arial" font-size="11.00"> hasPay </text>
<text xml:space="preserve" text-anchor="middle" x="303.86" y="-73.05" font-family="Arial" font-size="11.00"> «max 1» &#160;</text>
</g>
<!-- Invis&#45;&gt;CityUnits__MonetaryValue -->
</g>
</svg>
