<?xml version="1.0" encoding="UTF-8" standalone="no"?>
<!DOCTYPE svg PUBLIC "-//W3C//DTD SVG 1.1//EN"
 "http://www.w3.org/Graphics/SVG/1.1/DTD/svg11.dtd">
<!-- Generated by graphviz version 14.0.2 (20251019.1705)
 -->
<!-- Pages: 1 -->
<svg width="590pt" height="477pt"
 viewBox="0.00 0.00 590.00 477.00" xmlns="http://www.w3.org/2000/svg" xmlns:xlink="http://www.w3.org/1999/xlink">
<g id="graph0" class="graph" transform="scale(1 1) rotate(0) translate(4 473)">
<polygon fill="white" stroke="none" points="-4,4 -4,-473 585.5,-473 585.5,4 -4,4"/>
<g id="clust2" class="cluster">
<title>cluster_associated</title>
</g>
<!-- https_//standards.iso.org/iso&#45;iec/5087/&#45;2/ed&#45;1/en/ontology/Organization/Employment -->
<g id="node1" class="node">
<title>https_//standards.iso.org/iso&#45;iec/5087/&#45;2/ed&#45;1/en/ontology/Organization/Employment</title>
<g id="a_node1"><a xlink:href="../classes/Organization__https://standards.iso.org/iso-iec/5087/-2/ed-1/en/ontology/Organization/Employment.md" xlink:title="&lt;TABLE&gt;">
<polygon fill="lightgray" stroke="none" points="137.5,-369.88 137.5,-386.12 580.5,-386.12 580.5,-369.88 137.5,-369.88"/>
<text xml:space="preserve" text-anchor="start" x="138.5" y="-373.73" font-family="Arial" font-size="12.00">https://standards.iso.org/iso&#45;iec/5087/&#45;2/ed&#45;1/en/ontology/Organization/Employment</text>
<polygon fill="none" stroke="black" points="136.5,-368.88 136.5,-387.12 581.5,-387.12 581.5,-368.88 136.5,-368.88"/>
</a>
</g>
</g>
<!-- CityOrgOntologyThing -->
<g id="node2" class="node">
<title>CityOrgOntologyThing</title>
<g id="a_node2"><a xlink:href="../_counters/Organization__CityOrgOntologyThing.md" xlink:title="&lt;TABLE&gt;">
<polygon fill="lightgray" stroke="none" points="298.38,-442.88 298.38,-459.12 419.62,-459.12 419.62,-442.88 298.38,-442.88"/>
<text xml:space="preserve" text-anchor="start" x="299.38" y="-446.73" font-family="Arial" font-size="12.00">CityOrgOntologyThing</text>
<polygon fill="none" stroke="black" points="297.38,-441.88 297.38,-460.12 420.62,-460.12 420.62,-441.88 297.38,-441.88"/>
</a>
</g>
</g>
<!-- https_//standards.iso.org/iso&#45;iec/5087/&#45;2/ed&#45;1/en/ontology/Organization/Employment&#45;&gt;CityOrgOntologyThing -->
<g id="edge1" class="edge">
<title>https_//standards.iso.org/iso&#45;iec/5087/&#45;2/ed&#45;1/en/ontology/Organization/Employment&#45;&gt;CityOrgOntologyThing</title>
<path fill="none" stroke="black" d="M359,-395.71C359,-403.47 359,-412.92 359,-421.74"/>
<polygon fill="none" stroke="black" points="355.5,-421.66 359,-431.66 362.5,-421.66 355.5,-421.66"/>
</g>
<!-- Invis -->
<!-- https_//standards.iso.org/iso&#45;iec/5087/&#45;2/ed&#45;1/en/ontology/Organization/Employment&#45;&gt;Invis -->
<!-- Compensation -->
<g id="node4" class="node">
<title>Compensation</title>
<g id="a_node4"><a xlink:href="../_counters/Organization__Compensation.md" xlink:title="&lt;TABLE&gt;">
<polygon fill="lightgray" stroke="none" points="28,-270.88 28,-287.12 108,-287.12 108,-270.88 28,-270.88"/>
<text xml:space="preserve" text-anchor="start" x="29" y="-274.73" font-family="Arial" font-size="12.00">Compensation</text>
<polygon fill="none" stroke="black" points="27,-269.88 27,-288.12 109,-288.12 109,-269.88 27,-269.88"/>
</a>
</g>
</g>
<!-- https_//standards.iso.org/iso&#45;iec/5087/&#45;2/ed&#45;1/en/ontology/Organization/Employment&#45;&gt;Compensation -->
<g id="edge8" class="edge">
<title>https_//standards.iso.org/iso&#45;iec/5087/&#45;2/ed&#45;1/en/ontology/Organization/Employment&#45;&gt;Compensation</title>
<path fill="none" stroke="black" d="M151.59,-360.02C113.29,-355.02 83.02,-348.98 76,-342 67.29,-333.33 64.72,-320.2 64.56,-308.25"/>
<polygon fill="black" stroke="black" points="68.05,-308.56 65,-298.41 61.06,-308.25 68.05,-308.56"/>
<text xml:space="preserve" text-anchor="middle" x="122.5" y="-331.55" font-family="Arial" font-size="11.00"> hasCompensation </text>
<text xml:space="preserve" text-anchor="middle" x="122.5" y="-318.05" font-family="Arial" font-size="11.00"> «some» &#160;</text>
</g>
<!-- EmploymentStatus -->
<g id="node5" class="node">
<title>EmploymentStatus</title>
<g id="a_node5"><a xlink:href="../_counters/Organization__EmploymentStatus.md" xlink:title="&lt;TABLE&gt;">
<polygon fill="lightgray" stroke="none" points="16.75,-171.88 16.75,-188.12 119.25,-188.12 119.25,-171.88 16.75,-171.88"/>
<text xml:space="preserve" text-anchor="start" x="17.75" y="-175.72" font-family="Arial" font-size="12.00">EmploymentStatus</text>
<polygon fill="none" stroke="black" points="15.75,-170.88 15.75,-189.12 120.25,-189.12 120.25,-170.88 15.75,-170.88"/>
</a>
</g>
</g>
<!-- https_//standards.iso.org/iso&#45;iec/5087/&#45;2/ed&#45;1/en/ontology/Organization/Employment&#45;&gt;EmploymentStatus -->
<g id="edge10" class="edge">
<title>https_//standards.iso.org/iso&#45;iec/5087/&#45;2/ed&#45;1/en/ontology/Organization/Employment&#45;&gt;EmploymentStatus</title>
<path fill="none" stroke="black" d="M317.01,-360.06C283.25,-345.56 235.3,-322.95 197,-297 156.9,-269.83 116.27,-231.02 91.61,-205.91"/>
<polygon fill="black" stroke="black" points="94.41,-203.78 84.93,-199.05 89.39,-208.66 94.41,-203.78"/>
<text xml:space="preserve" text-anchor="middle" x="254" y="-282.05" font-family="Arial" font-size="11.00"> hasEmploymentStatus </text>
<text xml:space="preserve" text-anchor="middle" x="254" y="-268.55" font-family="Arial" font-size="11.00"> «only» &#160;</text>
</g>
<!-- Occupation -->
<g id="node6" class="node">
<title>Occupation</title>
<g id="a_node6"><a xlink:href="../_counters/Organization__Occupation.md" xlink:title="&lt;TABLE&gt;">
<polygon fill="lightgray" stroke="none" points="52.62,-98.88 52.62,-115.12 115.38,-115.12 115.38,-98.88 52.62,-98.88"/>
<text xml:space="preserve" text-anchor="start" x="53.62" y="-102.72" font-family="Arial" font-size="12.00">Occupation</text>
<polygon fill="none" stroke="black" points="51.62,-97.88 51.62,-116.12 116.38,-116.12 116.38,-97.88 51.62,-97.88"/>
</a>
</g>
</g>
<!-- https_//standards.iso.org/iso&#45;iec/5087/&#45;2/ed&#45;1/en/ontology/Organization/Employment&#45;&gt;Occupation -->
<g id="edge9" class="edge">
<title>https_//standards.iso.org/iso&#45;iec/5087/&#45;2/ed&#45;1/en/ontology/Organization/Employment&#45;&gt;Occupation</title>
<path fill="none" stroke="black" d="M355.28,-360.03C349.32,-335.89 335.68,-291.21 311,-261 259.91,-198.47 176.64,-151.54 126.41,-127.05"/>
<polygon fill="black" stroke="black" points="128.11,-123.99 117.58,-122.82 125.09,-130.3 128.11,-123.99"/>
<text xml:space="preserve" text-anchor="middle" x="326.66" y="-232.55" font-family="Arial" font-size="11.00"> employedAs </text>
<text xml:space="preserve" text-anchor="middle" x="326.66" y="-219.05" font-family="Arial" font-size="11.00"> «only» &#160;</text>
</g>
<!-- Organization -->
<g id="node7" class="node">
<title>Organization</title>
<g id="a_node7"><a xlink:href="../_counters/Organization__Organization.md" xlink:title="&lt;TABLE&gt;">
<polygon fill="lightgray" stroke="none" points="48.88,-25.88 48.88,-42.12 119.12,-42.12 119.12,-25.88 48.88,-25.88"/>
<text xml:space="preserve" text-anchor="start" x="49.88" y="-29.73" font-family="Arial" font-size="12.00">Organization</text>
<polygon fill="none" stroke="black" points="47.88,-24.88 47.88,-43.12 120.12,-43.12 120.12,-24.88 47.88,-24.88"/>
</a>
</g>
</g>
<!-- https_//standards.iso.org/iso&#45;iec/5087/&#45;2/ed&#45;1/en/ontology/Organization/Employment&#45;&gt;Organization -->
<g id="edge7" class="edge">
<title>https_//standards.iso.org/iso&#45;iec/5087/&#45;2/ed&#45;1/en/ontology/Organization/Employment&#45;&gt;Organization</title>
<path fill="none" stroke="black" d="M372.55,-360.26C386.12,-341.78 405,-310.57 405,-280 405,-280 405,-280 405,-106 405,-50.63 220.58,-38.4 131.31,-35.73"/>
<polygon fill="black" stroke="black" points="131.49,-32.24 121.4,-35.47 131.3,-39.23 131.49,-32.24"/>
<text xml:space="preserve" text-anchor="middle" x="437.62" y="-183.05" font-family="Arial" font-size="11.00"> employedBy </text>
<text xml:space="preserve" text-anchor="middle" x="437.62" y="-169.55" font-family="Arial" font-size="11.00"> «some» &#160;</text>
</g>
<!-- Invis&#45;&gt;Compensation -->
<!-- Compensation&#45;&gt;EmploymentStatus -->
<!-- EmploymentStatus&#45;&gt;Occupation -->
<!-- Occupation&#45;&gt;Organization -->
</g>
</svg>
