<?xml version="1.0" encoding="UTF-8" standalone="no"?>
<!DOCTYPE svg PUBLIC "-//W3C//DTD SVG 1.1//EN"
 "http://www.w3.org/Graphics/SVG/1.1/DTD/svg11.dtd">
<!-- Generated by graphviz version 14.0.2 (20251019.1705)
 -->
<!-- Pages: 1 -->
<svg width="662pt" height="305pt"
 viewBox="0.00 0.00 662.00 305.00" xmlns="http://www.w3.org/2000/svg" xmlns:xlink="http://www.w3.org/1999/xlink">
<g id="graph0" class="graph" transform="scale(1 1) rotate(0) translate(4 301)">
<polygon fill="white" stroke="none" points="-4,4 -4,-301 658.12,-301 658.12,4 -4,4"/>
<g id="clust2" class="cluster">
<title>cluster_associated</title>
</g>
<!-- https_//standards.iso.org/iso&#45;iec/5087/&#45;2/ed&#45;1/en/ontology/Organization/ForProfitOrganization -->
<g id="node1" class="node">
<title>https_//standards.iso.org/iso&#45;iec/5087/&#45;2/ed&#45;1/en/ontology/Organization/ForProfitOrganization</title>
<g id="a_node1"><a xlink:href="../classes/Organization__https://standards.iso.org/iso-iec/5087/-2/ed-1/en/ontology/Organization/ForProfitOrganization.md" xlink:title="&lt;TABLE&gt;">
<polygon fill="lightgray" stroke="none" points="162.88,-197.88 162.88,-214.12 653.12,-214.12 653.12,-197.88 162.88,-197.88"/>
<text xml:space="preserve" text-anchor="start" x="163.88" y="-201.72" font-family="Arial" font-size="12.00">https://standards.iso.org/iso&#45;iec/5087/&#45;2/ed&#45;1/en/ontology/Organization/ForProfitOrganization</text>
<polygon fill="none" stroke="black" points="161.88,-196.88 161.88,-215.12 654.12,-215.12 654.12,-196.88 161.88,-196.88"/>
</a>
</g>
</g>
<!-- Organization -->
<g id="node2" class="node">
<title>Organization</title>
<g id="a_node2"><a xlink:href="../_counters/Organization__Organization.md" xlink:title="&lt;TABLE&gt;">
<polygon fill="lightgray" stroke="none" points="372.88,-270.88 372.88,-287.12 443.12,-287.12 443.12,-270.88 372.88,-270.88"/>
<text xml:space="preserve" text-anchor="start" x="373.88" y="-274.73" font-family="Arial" font-size="12.00">Organization</text>
<polygon fill="none" stroke="black" points="371.88,-269.88 371.88,-288.12 444.12,-288.12 444.12,-269.88 371.88,-269.88"/>
</a>
</g>
</g>
<!-- https_//standards.iso.org/iso&#45;iec/5087/&#45;2/ed&#45;1/en/ontology/Organization/ForProfitOrganization&#45;&gt;Organization -->
<g id="edge1" class="edge">
<title>https_//standards.iso.org/iso&#45;iec/5087/&#45;2/ed&#45;1/en/ontology/Organization/ForProfitOrganization&#45;&gt;Organization</title>
<path fill="none" stroke="black" d="M408,-223.71C408,-231.47 408,-240.92 408,-249.74"/>
<polygon fill="none" stroke="black" points="404.5,-249.66 408,-259.66 411.5,-249.66 404.5,-249.66"/>
</g>
<!-- Invis -->
<!-- https_//standards.iso.org/iso&#45;iec/5087/&#45;2/ed&#45;1/en/ontology/Organization/ForProfitOrganization&#45;&gt;Invis -->
<!-- BusinessEstablishment -->
<g id="node4" class="node">
<title>BusinessEstablishment</title>
<g id="a_node4"><a xlink:href="../_counters/Organization__BusinessEstablishment.md" xlink:title="&lt;TABLE&gt;">
<polygon fill="lightgray" stroke="none" points="17.38,-98.88 17.38,-115.12 144.62,-115.12 144.62,-98.88 17.38,-98.88"/>
<text xml:space="preserve" text-anchor="start" x="18.38" y="-102.72" font-family="Arial" font-size="12.00">BusinessEstablishment</text>
<polygon fill="none" stroke="black" points="16.38,-97.88 16.38,-116.12 145.62,-116.12 145.62,-97.88 16.38,-97.88"/>
</a>
</g>
</g>
<!-- https_//standards.iso.org/iso&#45;iec/5087/&#45;2/ed&#45;1/en/ontology/Organization/ForProfitOrganization&#45;&gt;BusinessEstablishment -->
<g id="edge5" class="edge">
<title>https_//standards.iso.org/iso&#45;iec/5087/&#45;2/ed&#45;1/en/ontology/Organization/ForProfitOrganization&#45;&gt;BusinessEstablishment</title>
<path fill="none" stroke="black" d="M327.38,-188.01C304.58,-182.74 279.82,-176.57 257.25,-170 215.76,-157.93 169.72,-141.63 135.11,-128.77"/>
<polygon fill="black" stroke="black" points="136.76,-125.65 126.17,-125.43 134.31,-132.21 136.76,-125.65"/>
<text xml:space="preserve" text-anchor="middle" x="302.62" y="-159.55" font-family="Arial" font-size="11.00"> hasEstablishment </text>
<text xml:space="preserve" text-anchor="middle" x="302.62" y="-146.05" font-family="Arial" font-size="11.00"> «only» &#160;</text>
</g>
<!-- IndustryType -->
<g id="node5" class="node">
<title>IndustryType</title>
<g id="a_node5"><a xlink:href="../_counters/Organization__IndustryType.md" xlink:title="&lt;TABLE&gt;">
<polygon fill="lightgray" stroke="none" points="60.88,-25.88 60.88,-42.12 131.12,-42.12 131.12,-25.88 60.88,-25.88"/>
<text xml:space="preserve" text-anchor="start" x="61.88" y="-29.73" font-family="Arial" font-size="12.00">IndustryType</text>
<polygon fill="none" stroke="black" points="59.88,-24.88 59.88,-43.12 132.12,-43.12 132.12,-24.88 59.88,-24.88"/>
</a>
</g>
</g>
<!-- https_//standards.iso.org/iso&#45;iec/5087/&#45;2/ed&#45;1/en/ontology/Organization/ForProfitOrganization&#45;&gt;IndustryType -->
<g id="edge6" class="edge">
<title>https_//standards.iso.org/iso&#45;iec/5087/&#45;2/ed&#45;1/en/ontology/Organization/ForProfitOrganization&#45;&gt;IndustryType</title>
<path fill="none" stroke="black" d="M394.95,-188.2C383.69,-174.59 366.38,-155.66 348,-143 282.68,-97.99 195.62,-65.82 142.8,-48.84"/>
<polygon fill="black" stroke="black" points="144.1,-45.58 133.51,-45.9 141.99,-52.25 144.1,-45.58"/>
<text xml:space="preserve" text-anchor="middle" x="358.94" y="-110.05" font-family="Arial" font-size="11.00"> hasIndustryType </text>
<text xml:space="preserve" text-anchor="middle" x="358.94" y="-96.55" font-family="Arial" font-size="11.00"> «only» &#160;</text>
</g>
<!-- Invis&#45;&gt;BusinessEstablishment -->
<!-- BusinessEstablishment&#45;&gt;IndustryType -->
</g>
</svg>
