<?xml version="1.0" encoding="UTF-8" standalone="no"?>
<!DOCTYPE svg PUBLIC "-//W3C//DTD SVG 1.1//EN"
 "http://www.w3.org/Graphics/SVG/1.1/DTD/svg11.dtd">
<!-- Generated by graphviz version 14.0.2 (20251019.1705)
 -->
<!-- Pages: 1 -->
<svg width="500pt" height="132pt"
 viewBox="0.00 0.00 500.00 132.00" xmlns="http://www.w3.org/2000/svg" xmlns:xlink="http://www.w3.org/1999/xlink">
<g id="graph0" class="graph" transform="scale(1 1) rotate(0) translate(4 128)">
<polygon fill="white" stroke="none" points="-4,4 -4,-128 495.88,-128 495.88,4 -4,4"/>
<g id="clust2" class="cluster">
<title>cluster_associated</title>
</g>
<!-- https_//standards.iso.org/iso&#45;iec/5087/&#45;2/ed&#45;1/en/ontology/Organization/Goal -->
<g id="node1" class="node">
<title>https_//standards.iso.org/iso&#45;iec/5087/&#45;2/ed&#45;1/en/ontology/Organization/Goal</title>
<g id="a_node1"><a xlink:href="../classes/Organization__https://standards.iso.org/iso-iec/5087/-2/ed-1/en/ontology/Organization/Goal.md" xlink:title="&lt;TABLE&gt;">
<polygon fill="lightgray" stroke="none" points="1,-25.88 1,-42.12 402.75,-42.12 402.75,-25.88 1,-25.88"/>
<text xml:space="preserve" text-anchor="start" x="2" y="-29.73" font-family="Arial" font-size="12.00">https://standards.iso.org/iso&#45;iec/5087/&#45;2/ed&#45;1/en/ontology/Organization/Goal</text>
<polygon fill="none" stroke="black" points="0,-24.88 0,-43.12 403.75,-43.12 403.75,-24.88 0,-24.88"/>
</a>
</g>
</g>
<!-- activity__State -->
<g id="node2" class="node">
<title>activity__State</title>
<polygon fill="lightgray" stroke="none" points="107.62,-97.88 107.62,-114.12 180.12,-114.12 180.12,-97.88 107.62,-97.88"/>
<text xml:space="preserve" text-anchor="start" x="108.62" y="-101.72" font-family="Arial" font-size="12.00">activity::State</text>
<polygon fill="none" stroke="black" points="106.62,-96.88 106.62,-115.12 181.12,-115.12 181.12,-96.88 106.62,-96.88"/>
</g>
<!-- https_//standards.iso.org/iso&#45;iec/5087/&#45;2/ed&#45;1/en/ontology/Organization/Goal&#45;&gt;activity__State -->
<g id="edge1" class="edge">
<title>https_//standards.iso.org/iso&#45;iec/5087/&#45;2/ed&#45;1/en/ontology/Organization/Goal&#45;&gt;activity__State</title>
<path fill="none" stroke="black" d="M187.96,-51.79C181.14,-60.02 172.78,-70.11 165.18,-79.29"/>
<polygon fill="none" stroke="black" points="162.57,-76.96 158.88,-86.89 167.96,-81.42 162.57,-76.96"/>
</g>
<!-- CityOrgOntologyThing -->
<g id="node3" class="node">
<title>CityOrgOntologyThing</title>
<g id="a_node3"><a xlink:href="../_counters/Organization__CityOrgOntologyThing.md" xlink:title="&lt;TABLE&gt;">
<polygon fill="lightgray" stroke="none" points="200.25,-97.88 200.25,-114.12 321.5,-114.12 321.5,-97.88 200.25,-97.88"/>
<text xml:space="preserve" text-anchor="start" x="201.25" y="-101.72" font-family="Arial" font-size="12.00">CityOrgOntologyThing</text>
<polygon fill="none" stroke="black" points="199.25,-96.88 199.25,-115.12 322.5,-115.12 322.5,-96.88 199.25,-96.88"/>
</a>
</g>
</g>
<!-- https_//standards.iso.org/iso&#45;iec/5087/&#45;2/ed&#45;1/en/ontology/Organization/Goal&#45;&gt;CityOrgOntologyThing -->
<g id="edge2" class="edge">
<title>https_//standards.iso.org/iso&#45;iec/5087/&#45;2/ed&#45;1/en/ontology/Organization/Goal&#45;&gt;CityOrgOntologyThing</title>
<path fill="none" stroke="black" d="M216.03,-51.79C222.96,-60.02 231.47,-70.11 239.2,-79.29"/>
<polygon fill="none" stroke="black" points="236.5,-81.51 245.62,-86.9 241.85,-77 236.5,-81.51"/>
</g>
<!-- Invis -->
</g>
</svg>
