<?xml version="1.0" encoding="UTF-8" standalone="no"?>
<!DOCTYPE svg PUBLIC "-//W3C//DTD SVG 1.1//EN"
 "http://www.w3.org/Graphics/SVG/1.1/DTD/svg11.dtd">
<!-- Generated by graphviz version 14.0.2 (20251019.1705)
 -->
<!-- Pages: 1 -->
<svg width="676pt" height="305pt"
 viewBox="0.00 0.00 676.00 305.00" xmlns="http://www.w3.org/2000/svg" xmlns:xlink="http://www.w3.org/1999/xlink">
<g id="graph0" class="graph" transform="scale(1 1) rotate(0) translate(4 301)">
<polygon fill="white" stroke="none" points="-4,4 -4,-301 671.88,-301 671.88,4 -4,4"/>
<g id="clust2" class="cluster">
<title>cluster_associated</title>
</g>
<!-- https_//standards.iso.org/iso&#45;iec/5087/&#45;2/ed&#45;1/en/ontology/Organization/GovernmentOrganization -->
<g id="node1" class="node">
<title>https_//standards.iso.org/iso&#45;iec/5087/&#45;2/ed&#45;1/en/ontology/Organization/GovernmentOrganization</title>
<g id="a_node1"><a xlink:href="../classes/Organization__https://standards.iso.org/iso-iec/5087/-2/ed-1/en/ontology/Organization/GovernmentOrganization.md" xlink:title="&lt;TABLE&gt;">
<polygon fill="lightgray" stroke="none" points="157.12,-197.88 157.12,-214.12 666.88,-214.12 666.88,-197.88 157.12,-197.88"/>
<text xml:space="preserve" text-anchor="start" x="158.12" y="-201.72" font-family="Arial" font-size="12.00">https://standards.iso.org/iso&#45;iec/5087/&#45;2/ed&#45;1/en/ontology/Organization/GovernmentOrganization</text>
<polygon fill="none" stroke="black" points="156.12,-196.88 156.12,-215.12 667.88,-215.12 667.88,-196.88 156.12,-196.88"/>
</a>
</g>
</g>
<!-- Organization -->
<g id="node2" class="node">
<title>Organization</title>
<g id="a_node2"><a xlink:href="../_counters/Organization__Organization.md" xlink:title="&lt;TABLE&gt;">
<polygon fill="lightgray" stroke="none" points="376.88,-270.88 376.88,-287.12 447.12,-287.12 447.12,-270.88 376.88,-270.88"/>
<text xml:space="preserve" text-anchor="start" x="377.88" y="-274.73" font-family="Arial" font-size="12.00">Organization</text>
<polygon fill="none" stroke="black" points="375.88,-269.88 375.88,-288.12 448.12,-288.12 448.12,-269.88 375.88,-269.88"/>
</a>
</g>
</g>
<!-- https_//standards.iso.org/iso&#45;iec/5087/&#45;2/ed&#45;1/en/ontology/Organization/GovernmentOrganization&#45;&gt;Organization -->
<g id="edge1" class="edge">
<title>https_//standards.iso.org/iso&#45;iec/5087/&#45;2/ed&#45;1/en/ontology/Organization/GovernmentOrganization&#45;&gt;Organization</title>
<path fill="none" stroke="black" d="M412,-223.71C412,-231.47 412,-240.92 412,-249.74"/>
<polygon fill="none" stroke="black" points="408.5,-249.66 412,-259.66 415.5,-249.66 408.5,-249.66"/>
</g>
<!-- Invis -->
<!-- https_//standards.iso.org/iso&#45;iec/5087/&#45;2/ed&#45;1/en/ontology/Organization/GovernmentOrganization&#45;&gt;Invis -->
<!-- city__JurisdictionalArea -->
<g id="node4" class="node">
<title>city__JurisdictionalArea</title>
<polygon fill="lightgray" stroke="none" points="17,-98.88 17,-115.12 139,-115.12 139,-98.88 17,-98.88"/>
<text xml:space="preserve" text-anchor="start" x="18" y="-102.72" font-family="Arial" font-size="12.00">city::JurisdictionalArea</text>
<polygon fill="none" stroke="black" points="16,-97.88 16,-116.12 140,-116.12 140,-97.88 16,-97.88"/>
</g>
<!-- https_//standards.iso.org/iso&#45;iec/5087/&#45;2/ed&#45;1/en/ontology/Organization/GovernmentOrganization&#45;&gt;city__JurisdictionalArea -->
<g id="edge6" class="edge">
<title>https_//standards.iso.org/iso&#45;iec/5087/&#45;2/ed&#45;1/en/ontology/Organization/GovernmentOrganization&#45;&gt;city__JurisdictionalArea</title>
<path fill="none" stroke="black" d="M298.55,-188.05C273.66,-183.19 247.62,-177.2 223.75,-170 188.73,-159.44 150.76,-143.11 122.35,-129.87"/>
<polygon fill="black" stroke="black" points="123.87,-126.71 113.33,-125.61 120.88,-133.04 123.87,-126.71"/>
<text xml:space="preserve" text-anchor="middle" x="251.88" y="-159.55" font-family="Arial" font-size="11.00"> jurisdiction </text>
<text xml:space="preserve" text-anchor="middle" x="251.88" y="-146.05" font-family="Arial" font-size="11.00"> «only» &#160;</text>
</g>
<!-- foractivity__Program -->
<g id="node5" class="node">
<title>foractivity__Program</title>
<polygon fill="lightgray" stroke="none" points="31,-25.88 31,-42.12 135,-42.12 135,-25.88 31,-25.88"/>
<text xml:space="preserve" text-anchor="start" x="32" y="-29.73" font-family="Arial" font-size="12.00">foractivity::Program</text>
<polygon fill="none" stroke="black" points="30,-24.88 30,-43.12 136,-43.12 136,-24.88 30,-24.88"/>
</g>
<!-- https_//standards.iso.org/iso&#45;iec/5087/&#45;2/ed&#45;1/en/ontology/Organization/GovernmentOrganization&#45;&gt;foractivity__Program -->
<g id="edge5" class="edge">
<title>https_//standards.iso.org/iso&#45;iec/5087/&#45;2/ed&#45;1/en/ontology/Organization/GovernmentOrganization&#45;&gt;foractivity__Program</title>
<path fill="none" stroke="black" d="M379.25,-188.08C319.39,-157.15 192.36,-91.51 125.77,-57.1"/>
<polygon fill="black" stroke="black" points="127.45,-54.03 116.96,-52.55 124.24,-60.25 127.45,-54.03"/>
<text xml:space="preserve" text-anchor="middle" x="288.35" y="-110.05" font-family="Arial" font-size="11.00"> hasProgram </text>
<text xml:space="preserve" text-anchor="middle" x="288.35" y="-96.55" font-family="Arial" font-size="11.00"> «only» &#160;</text>
</g>
<!-- Invis&#45;&gt;city__JurisdictionalArea -->
<!-- city__JurisdictionalArea&#45;&gt;foractivity__Program -->
</g>
</svg>
