<?xml version="1.0" encoding="UTF-8" standalone="no"?>
<!DOCTYPE svg PUBLIC "-//W3C//DTD SVG 1.1//EN"
 "http://www.w3.org/Graphics/SVG/1.1/DTD/svg11.dtd">
<!-- Generated by graphviz version 14.0.2 (20251019.1705)
 -->
<!-- Pages: 1 -->
<svg width="642pt" height="232pt"
 viewBox="0.00 0.00 642.00 232.00" xmlns="http://www.w3.org/2000/svg" xmlns:xlink="http://www.w3.org/1999/xlink">
<g id="graph0" class="graph" transform="scale(1 1) rotate(0) translate(4 228)">
<polygon fill="white" stroke="none" points="-4,4 -4,-228 638.38,-228 638.38,4 -4,4"/>
<g id="clust2" class="cluster">
<title>cluster_associated</title>
</g>
<!-- https_//standards.iso.org/iso&#45;iec/5087/&#45;2/ed&#45;1/en/ontology/Organization/NonProfitOrganization -->
<g id="node1" class="node">
<title>https_//standards.iso.org/iso&#45;iec/5087/&#45;2/ed&#45;1/en/ontology/Organization/NonProfitOrganization</title>
<g id="a_node1"><a xlink:href="../classes/Organization__https://standards.iso.org/iso-iec/5087/-2/ed-1/en/ontology/Organization/NonProfitOrganization.md" xlink:title="&lt;TABLE&gt;">
<polygon fill="lightgray" stroke="none" points="138.62,-124.88 138.62,-141.12 633.38,-141.12 633.38,-124.88 138.62,-124.88"/>
<text xml:space="preserve" text-anchor="start" x="139.62" y="-128.72" font-family="Arial" font-size="12.00">https://standards.iso.org/iso&#45;iec/5087/&#45;2/ed&#45;1/en/ontology/Organization/NonProfitOrganization</text>
<polygon fill="none" stroke="black" points="137.62,-123.88 137.62,-142.12 634.38,-142.12 634.38,-123.88 137.62,-123.88"/>
</a>
</g>
</g>
<!-- Organization -->
<g id="node2" class="node">
<title>Organization</title>
<g id="a_node2"><a xlink:href="../_counters/Organization__Organization.md" xlink:title="&lt;TABLE&gt;">
<polygon fill="lightgray" stroke="none" points="350.88,-197.88 350.88,-214.12 421.12,-214.12 421.12,-197.88 350.88,-197.88"/>
<text xml:space="preserve" text-anchor="start" x="351.88" y="-201.72" font-family="Arial" font-size="12.00">Organization</text>
<polygon fill="none" stroke="black" points="349.88,-196.88 349.88,-215.12 422.12,-215.12 422.12,-196.88 349.88,-196.88"/>
</a>
</g>
</g>
<!-- https_//standards.iso.org/iso&#45;iec/5087/&#45;2/ed&#45;1/en/ontology/Organization/NonProfitOrganization&#45;&gt;Organization -->
<g id="edge1" class="edge">
<title>https_//standards.iso.org/iso&#45;iec/5087/&#45;2/ed&#45;1/en/ontology/Organization/NonProfitOrganization&#45;&gt;Organization</title>
<path fill="none" stroke="black" d="M386,-150.71C386,-158.47 386,-167.92 386,-176.74"/>
<polygon fill="none" stroke="black" points="382.5,-176.66 386,-186.66 389.5,-176.66 382.5,-176.66"/>
</g>
<!-- Invis -->
<!-- https_//standards.iso.org/iso&#45;iec/5087/&#45;2/ed&#45;1/en/ontology/Organization/NonProfitOrganization&#45;&gt;Invis -->
<!-- foractivity__Program -->
<g id="node4" class="node">
<title>foractivity__Program</title>
<polygon fill="lightgray" stroke="none" points="17,-25.88 17,-42.12 121,-42.12 121,-25.88 17,-25.88"/>
<text xml:space="preserve" text-anchor="start" x="18" y="-29.73" font-family="Arial" font-size="12.00">foractivity::Program</text>
<polygon fill="none" stroke="black" points="16,-24.88 16,-43.12 122,-43.12 122,-24.88 16,-24.88"/>
</g>
<!-- https_//standards.iso.org/iso&#45;iec/5087/&#45;2/ed&#45;1/en/ontology/Organization/NonProfitOrganization&#45;&gt;foractivity__Program -->
<g id="edge4" class="edge">
<title>https_//standards.iso.org/iso&#45;iec/5087/&#45;2/ed&#45;1/en/ontology/Organization/NonProfitOrganization&#45;&gt;foractivity__Program</title>
<path fill="none" stroke="black" d="M330.78,-115.1C275.54,-98.2 190.65,-72.22 132.61,-54.46"/>
<polygon fill="black" stroke="black" points="133.77,-51.16 123.19,-51.58 131.73,-57.85 133.77,-51.16"/>
<text xml:space="preserve" text-anchor="middle" x="297.84" y="-86.55" font-family="Arial" font-size="11.00"> hasProgram </text>
<text xml:space="preserve" text-anchor="middle" x="297.84" y="-73.05" font-family="Arial" font-size="11.00"> «only» &#160;</text>
</g>
<!-- Invis&#45;&gt;foractivity__Program -->
</g>
</svg>
