<?xml version="1.0" encoding="UTF-8" standalone="no"?>
<!DOCTYPE svg PUBLIC "-//W3C//DTD SVG 1.1//EN"
 "http://www.w3.org/Graphics/SVG/1.1/DTD/svg11.dtd">
<!-- Generated by graphviz version 14.0.2 (20251019.1705)
 -->
<!-- Pages: 1 -->
<svg width="556pt" height="232pt"
 viewBox="0.00 0.00 556.00 232.00" xmlns="http://www.w3.org/2000/svg" xmlns:xlink="http://www.w3.org/1999/xlink">
<g id="graph0" class="graph" transform="scale(1 1) rotate(0) translate(4 228)">
<polygon fill="white" stroke="none" points="-4,4 -4,-228 551.5,-228 551.5,4 -4,4"/>
<g id="clust2" class="cluster">
<title>cluster_associated</title>
</g>
<!-- https_//standards.iso.org/iso&#45;iec/5087/&#45;2/ed&#45;1/en/ontology/Organization/Occupation -->
<g id="node1" class="node">
<title>https_//standards.iso.org/iso&#45;iec/5087/&#45;2/ed&#45;1/en/ontology/Organization/Occupation</title>
<g id="a_node1"><a xlink:href="../classes/Organization__https://standards.iso.org/iso-iec/5087/-2/ed-1/en/ontology/Organization/Occupation.md" xlink:title="&lt;TABLE&gt;">
<polygon fill="lightgray" stroke="none" points="109.5,-124.88 109.5,-141.12 546.5,-141.12 546.5,-124.88 109.5,-124.88"/>
<text xml:space="preserve" text-anchor="start" x="110.5" y="-128.72" font-family="Arial" font-size="12.00">https://standards.iso.org/iso&#45;iec/5087/&#45;2/ed&#45;1/en/ontology/Organization/Occupation</text>
<polygon fill="none" stroke="black" points="108.5,-123.88 108.5,-142.12 547.5,-142.12 547.5,-123.88 108.5,-123.88"/>
</a>
</g>
</g>
<!-- CityOrgOntologyThing -->
<g id="node2" class="node">
<title>CityOrgOntologyThing</title>
<g id="a_node2"><a xlink:href="../_counters/Organization__CityOrgOntologyThing.md" xlink:title="&lt;TABLE&gt;">
<polygon fill="lightgray" stroke="none" points="267.38,-197.88 267.38,-214.12 388.62,-214.12 388.62,-197.88 267.38,-197.88"/>
<text xml:space="preserve" text-anchor="start" x="268.38" y="-201.72" font-family="Arial" font-size="12.00">CityOrgOntologyThing</text>
<polygon fill="none" stroke="black" points="266.38,-196.88 266.38,-215.12 389.62,-215.12 389.62,-196.88 266.38,-196.88"/>
</a>
</g>
</g>
<!-- https_//standards.iso.org/iso&#45;iec/5087/&#45;2/ed&#45;1/en/ontology/Organization/Occupation&#45;&gt;CityOrgOntologyThing -->
<g id="edge1" class="edge">
<title>https_//standards.iso.org/iso&#45;iec/5087/&#45;2/ed&#45;1/en/ontology/Organization/Occupation&#45;&gt;CityOrgOntologyThing</title>
<path fill="none" stroke="black" d="M328,-150.71C328,-158.47 328,-167.92 328,-176.74"/>
<polygon fill="none" stroke="black" points="324.5,-176.66 328,-186.66 331.5,-176.66 324.5,-176.66"/>
</g>
<!-- Invis -->
<!-- https_//standards.iso.org/iso&#45;iec/5087/&#45;2/ed&#45;1/en/ontology/Organization/Occupation&#45;&gt;Invis -->
<!-- code__Code -->
<g id="node4" class="node">
<title>code__Code</title>
<polygon fill="lightgray" stroke="none" points="17.25,-25.88 17.25,-42.12 80.75,-42.12 80.75,-25.88 17.25,-25.88"/>
<text xml:space="preserve" text-anchor="start" x="18.25" y="-29.73" font-family="Arial" font-size="12.00">code::Code</text>
<polygon fill="none" stroke="black" points="16.25,-24.88 16.25,-43.12 81.75,-43.12 81.75,-24.88 16.25,-24.88"/>
</g>
<!-- https_//standards.iso.org/iso&#45;iec/5087/&#45;2/ed&#45;1/en/ontology/Organization/Occupation&#45;&gt;code__Code -->
<g id="edge4" class="edge">
<title>https_//standards.iso.org/iso&#45;iec/5087/&#45;2/ed&#45;1/en/ontology/Organization/Occupation&#45;&gt;code__Code</title>
<path fill="none" stroke="black" d="M279.4,-115.1C226.46,-96.7 142.57,-67.53 91.96,-49.94"/>
<polygon fill="black" stroke="black" points="93.4,-46.73 82.81,-46.75 91.11,-53.34 93.4,-46.73"/>
<text xml:space="preserve" text-anchor="middle" x="261.07" y="-86.55" font-family="Arial" font-size="11.00"> code::hasCode </text>
<text xml:space="preserve" text-anchor="middle" x="261.07" y="-73.05" font-family="Arial" font-size="11.00"> «only» &#160;</text>
</g>
<!-- Invis&#45;&gt;code__Code -->
</g>
</svg>
