<?xml version="1.0" encoding="UTF-8" standalone="no"?>
<!DOCTYPE svg PUBLIC "-//W3C//DTD SVG 1.1//EN"
 "http://www.w3.org/Graphics/SVG/1.1/DTD/svg11.dtd">
<!-- Generated by graphviz version 14.0.2 (20251019.1705)
 -->
<!-- Pages: 1 -->
<svg width="526pt" height="139pt"
 viewBox="0.00 0.00 526.00 139.00" xmlns="http://www.w3.org/2000/svg" xmlns:xlink="http://www.w3.org/1999/xlink">
<g id="graph0" class="graph" transform="scale(1 1) rotate(0) translate(4 135.38)">
<polygon fill="white" stroke="none" points="-4,4 -4,-135.38 522.38,-135.38 522.38,4 -4,4"/>
<g id="clust2" class="cluster">
<title>cluster_associated</title>
</g>
<!-- https_//standards.iso.org/iso&#45;iec/5087/&#45;2/ed&#45;1/en/ontology/Organization/Operation -->
<g id="node1" class="node">
<title>https_//standards.iso.org/iso&#45;iec/5087/&#45;2/ed&#45;1/en/ontology/Organization/Operation</title>
<g id="a_node1"><a xlink:href="../classes/Organization__https://standards.iso.org/iso-iec/5087/-2/ed-1/en/ontology/Organization/Operation.md" xlink:title="&lt;TABLE&gt;">
<polygon fill="lightgray" stroke="none" points="1,-42.12 1,-58.38 429.75,-58.38 429.75,-42.12 1,-42.12"/>
<text xml:space="preserve" text-anchor="start" x="2" y="-45.98" font-family="Arial" font-size="12.00">https://standards.iso.org/iso&#45;iec/5087/&#45;2/ed&#45;1/en/ontology/Organization/Operation</text>
<text xml:space="preserve" text-anchor="start" x="2" y="-29.73" font-family="Arial" font-size="12.00">closingTime: xsd::time «max 1»</text>
<text xml:space="preserve" text-anchor="start" x="2" y="-13.47" font-family="Arial" font-size="12.00">openingTime: xsd::time «max 1»</text>
<polygon fill="none" stroke="black" points="0,-8.62 0,-59.38 430.75,-59.38 430.75,-8.62 0,-8.62"/>
</a>
</g>
</g>
<!-- CityOrgOntologyThing -->
<g id="node2" class="node">
<title>CityOrgOntologyThing</title>
<g id="a_node2"><a xlink:href="../_counters/Organization__CityOrgOntologyThing.md" xlink:title="&lt;TABLE&gt;">
<polygon fill="lightgray" stroke="none" points="71.75,-105.25 71.75,-121.5 193,-121.5 193,-105.25 71.75,-105.25"/>
<text xml:space="preserve" text-anchor="start" x="72.75" y="-109.1" font-family="Arial" font-size="12.00">CityOrgOntologyThing</text>
<polygon fill="none" stroke="black" points="70.75,-104.25 70.75,-122.5 194,-122.5 194,-104.25 70.75,-104.25"/>
</a>
</g>
</g>
<!-- https_//standards.iso.org/iso&#45;iec/5087/&#45;2/ed&#45;1/en/ontology/Organization/Operation&#45;&gt;CityOrgOntologyThing -->
<g id="edge1" class="edge">
<title>https_//standards.iso.org/iso&#45;iec/5087/&#45;2/ed&#45;1/en/ontology/Organization/Operation&#45;&gt;CityOrgOntologyThing</title>
<path fill="none" stroke="black" d="M189.53,-59.1C179.7,-68.26 168.5,-78.69 158.64,-87.89"/>
<polygon fill="none" stroke="black" points="156.42,-85.17 151.49,-94.55 161.19,-90.29 156.42,-85.17"/>
</g>
<!-- RecurringEvent1__ecurringEvent -->
<g id="node3" class="node">
<title>RecurringEvent1__ecurringEvent</title>
<polygon fill="lightgray" stroke="none" points="213.25,-105.25 213.25,-121.5 385.5,-121.5 385.5,-105.25 213.25,-105.25"/>
<text xml:space="preserve" text-anchor="start" x="214.25" y="-109.1" font-family="Arial" font-size="12.00">RecurringEvent1::ecurringEvent</text>
<polygon fill="none" stroke="black" points="212.25,-104.25 212.25,-122.5 386.5,-122.5 386.5,-104.25 212.25,-104.25"/>
</g>
<!-- https_//standards.iso.org/iso&#45;iec/5087/&#45;2/ed&#45;1/en/ontology/Organization/Operation&#45;&gt;RecurringEvent1__ecurringEvent -->
<g id="edge2" class="edge">
<title>https_//standards.iso.org/iso&#45;iec/5087/&#45;2/ed&#45;1/en/ontology/Organization/Operation&#45;&gt;RecurringEvent1__ecurringEvent</title>
<path fill="none" stroke="black" d="M241.54,-59.1C251.48,-68.26 262.81,-78.69 272.79,-87.89"/>
<polygon fill="none" stroke="black" points="270.31,-90.36 280.04,-94.56 275.05,-85.21 270.31,-90.36"/>
</g>
<!-- Invis -->
</g>
</svg>
