<?xml version="1.0" encoding="UTF-8" standalone="no"?>
<!DOCTYPE svg PUBLIC "-//W3C//DTD SVG 1.1//EN"
 "http://www.w3.org/Graphics/SVG/1.1/DTD/svg11.dtd">
<!-- Generated by graphviz version 14.0.2 (20251019.1705)
 -->
<!-- Pages: 1 -->
<svg width="636pt" height="576pt"
 viewBox="0.00 0.00 636.00 576.00" xmlns="http://www.w3.org/2000/svg" xmlns:xlink="http://www.w3.org/1999/xlink">
<g id="graph0" class="graph" transform="scale(1 1) rotate(0) translate(4 572)">
<polygon fill="white" stroke="none" points="-4,4 -4,-572 632.25,-572 632.25,4 -4,4"/>
<g id="clust2" class="cluster">
<title>cluster_associated</title>
</g>
<!-- https_//standards.iso.org/iso&#45;iec/5087/&#45;2/ed&#45;1/en/ontology/Organization/Organization -->
<g id="node1" class="node">
<title>https_//standards.iso.org/iso&#45;iec/5087/&#45;2/ed&#45;1/en/ontology/Organization/Organization</title>
<g id="a_node1"><a xlink:href="../classes/Organization__https://standards.iso.org/iso-iec/5087/-2/ed-1/en/ontology/Organization/Organization.md" xlink:title="&lt;TABLE&gt;">
<polygon fill="lightgray" stroke="none" points="182.75,-477 182.75,-493.25 627.25,-493.25 627.25,-477 182.75,-477"/>
<text xml:space="preserve" text-anchor="start" x="183.75" y="-480.85" font-family="Arial" font-size="12.00">https://standards.iso.org/iso&#45;iec/5087/&#45;2/ed&#45;1/en/ontology/Organization/Organization</text>
<text xml:space="preserve" text-anchor="start" x="183.75" y="-464.6" font-family="Arial" font-size="12.00">location::hasLocation: location::Location «only»</text>
<polygon fill="none" stroke="black" points="181.75,-459.75 181.75,-494.25 628.25,-494.25 628.25,-459.75 181.75,-459.75"/>
</a>
</g>
</g>
<!-- CityOrgOntologyThing -->
<g id="node2" class="node">
<title>CityOrgOntologyThing</title>
<g id="a_node2"><a xlink:href="../_counters/Organization__CityOrgOntologyThing.md" xlink:title="&lt;TABLE&gt;">
<polygon fill="lightgray" stroke="none" points="268.38,-541.88 268.38,-558.12 389.62,-558.12 389.62,-541.88 268.38,-541.88"/>
<text xml:space="preserve" text-anchor="start" x="269.38" y="-545.73" font-family="Arial" font-size="12.00">CityOrgOntologyThing</text>
<polygon fill="none" stroke="black" points="267.38,-540.88 267.38,-559.12 390.62,-559.12 390.62,-540.88 267.38,-540.88"/>
</a>
</g>
</g>
<!-- https_//standards.iso.org/iso&#45;iec/5087/&#45;2/ed&#45;1/en/ontology/Organization/Organization&#45;&gt;CityOrgOntologyThing -->
<g id="edge1" class="edge">
<title>https_//standards.iso.org/iso&#45;iec/5087/&#45;2/ed&#45;1/en/ontology/Organization/Organization&#45;&gt;CityOrgOntologyThing</title>
<path fill="none" stroke="black" d="M386.85,-494.95C377.44,-503.75 365.76,-514.66 355.36,-524.37"/>
<polygon fill="none" stroke="black" points="353.03,-521.76 348.12,-531.14 357.81,-526.87 353.03,-521.76"/>
</g>
<!-- organization__Organization -->
<g id="node3" class="node">
<title>organization__Organization</title>
<polygon fill="lightgray" stroke="none" points="409.88,-541.88 409.88,-558.12 552.12,-558.12 552.12,-541.88 409.88,-541.88"/>
<text xml:space="preserve" text-anchor="start" x="410.88" y="-545.73" font-family="Arial" font-size="12.00">organization::Organization</text>
<polygon fill="none" stroke="black" points="408.88,-540.88 408.88,-559.12 553.12,-559.12 553.12,-540.88 408.88,-540.88"/>
</g>
<!-- https_//standards.iso.org/iso&#45;iec/5087/&#45;2/ed&#45;1/en/ontology/Organization/Organization&#45;&gt;organization__Organization -->
<g id="edge2" class="edge">
<title>https_//standards.iso.org/iso&#45;iec/5087/&#45;2/ed&#45;1/en/ontology/Organization/Organization&#45;&gt;organization__Organization</title>
<path fill="none" stroke="black" d="M423.15,-494.95C432.56,-503.75 444.24,-514.66 454.64,-524.37"/>
<polygon fill="none" stroke="black" points="452.19,-526.87 461.88,-531.14 456.97,-521.76 452.19,-526.87"/>
</g>
<!-- Invis -->
<!-- https_//standards.iso.org/iso&#45;iec/5087/&#45;2/ed&#45;1/en/ontology/Organization/Organization&#45;&gt;Invis -->
<!-- Goal -->
<g id="node5" class="node">
<title>Goal</title>
<g id="a_node5"><a xlink:href="../_counters/Organization__Goal.md" xlink:title="&lt;TABLE&gt;">
<polygon fill="lightgray" stroke="none" points="81.25,-369.88 81.25,-386.12 108.75,-386.12 108.75,-369.88 81.25,-369.88"/>
<text xml:space="preserve" text-anchor="start" x="82.25" y="-373.73" font-family="Arial" font-size="12.00">Goal</text>
<polygon fill="none" stroke="black" points="80.25,-368.88 80.25,-387.12 109.75,-387.12 109.75,-368.88 80.25,-368.88"/>
</a>
</g>
</g>
<!-- https_//standards.iso.org/iso&#45;iec/5087/&#45;2/ed&#45;1/en/ontology/Organization/Organization&#45;&gt;Goal -->
<g id="edge11" class="edge">
<title>https_//standards.iso.org/iso&#45;iec/5087/&#45;2/ed&#45;1/en/ontology/Organization/Organization&#45;&gt;Goal</title>
<path fill="none" stroke="black" d="M182.05,-459.16C142.61,-454.2 111.64,-448.15 104.25,-441 95.4,-432.43 92.56,-419.31 92.16,-407.34"/>
<polygon fill="black" stroke="black" points="95.66,-407.56 92.4,-397.48 88.66,-407.39 95.66,-407.56"/>
<text xml:space="preserve" text-anchor="middle" x="127.12" y="-430.55" font-family="Arial" font-size="11.00"> hasGoal </text>
<text xml:space="preserve" text-anchor="middle" x="127.12" y="-417.05" font-family="Arial" font-size="11.00"> «only» &#160;</text>
</g>
<!-- hasaddress__Address -->
<g id="node6" class="node">
<title>hasaddress__Address</title>
<polygon fill="lightgray" stroke="none" points="37.75,-270.88 37.75,-287.12 152.25,-287.12 152.25,-270.88 37.75,-270.88"/>
<text xml:space="preserve" text-anchor="start" x="38.75" y="-274.73" font-family="Arial" font-size="12.00">hasaddress::Address</text>
<polygon fill="none" stroke="black" points="36.75,-269.88 36.75,-288.12 153.25,-288.12 153.25,-269.88 36.75,-269.88"/>
</g>
<!-- https_//standards.iso.org/iso&#45;iec/5087/&#45;2/ed&#45;1/en/ontology/Organization/Organization&#45;&gt;hasaddress__Address -->
<g id="edge13" class="edge">
<title>https_//standards.iso.org/iso&#45;iec/5087/&#45;2/ed&#45;1/en/ontology/Organization/Organization&#45;&gt;hasaddress__Address</title>
<path fill="none" stroke="black" d="M293.34,-459.04C275.09,-454.38 256.71,-448.47 240,-441 178.16,-413.36 131.58,-344.94 109.38,-306.79"/>
<polygon fill="black" stroke="black" points="112.49,-305.19 104.52,-298.21 106.4,-308.64 112.49,-305.19"/>
<text xml:space="preserve" text-anchor="middle" x="207.49" y="-381.05" font-family="Arial" font-size="11.00"> orgAddress </text>
<text xml:space="preserve" text-anchor="middle" x="207.49" y="-367.55" font-family="Arial" font-size="11.00"> «only» &#160;</text>
</g>
<!-- hasaddress__PhoneNumber -->
<g id="node7" class="node">
<title>hasaddress__PhoneNumber</title>
<polygon fill="lightgray" stroke="none" points="16.88,-171.88 16.88,-188.12 165.12,-188.12 165.12,-171.88 16.88,-171.88"/>
<text xml:space="preserve" text-anchor="start" x="17.88" y="-175.72" font-family="Arial" font-size="12.00">hasaddress::PhoneNumber</text>
<polygon fill="none" stroke="black" points="15.88,-170.88 15.88,-189.12 166.12,-189.12 166.12,-170.88 15.88,-170.88"/>
</g>
<!-- https_//standards.iso.org/iso&#45;iec/5087/&#45;2/ed&#45;1/en/ontology/Organization/Organization&#45;&gt;hasaddress__PhoneNumber -->
<g id="edge10" class="edge">
<title>https_//standards.iso.org/iso&#45;iec/5087/&#45;2/ed&#45;1/en/ontology/Organization/Organization&#45;&gt;hasaddress__PhoneNumber</title>
<path fill="none" stroke="black" d="M385.76,-459.37C356.92,-434.32 300.93,-385.24 254.75,-342 204.26,-294.72 147,-237.58 115.33,-205.66"/>
<polygon fill="black" stroke="black" points="118.07,-203.44 108.54,-198.8 113.09,-208.37 118.07,-203.44"/>
<text xml:space="preserve" text-anchor="middle" x="321.88" y="-331.55" font-family="Arial" font-size="11.00"> hasaddress::hasTelephone </text>
<text xml:space="preserve" text-anchor="middle" x="321.88" y="-318.05" font-family="Arial" font-size="11.00"> «only» &#160;</text>
</g>
<!-- location__Location -->
<g id="node8" class="node">
<title>location__Location</title>
<polygon fill="lightgray" stroke="none" points="69.12,-98.88 69.12,-115.12 164.88,-115.12 164.88,-98.88 69.12,-98.88"/>
<text xml:space="preserve" text-anchor="start" x="70.12" y="-102.72" font-family="Arial" font-size="12.00">location::Location</text>
<polygon fill="none" stroke="black" points="68.12,-97.88 68.12,-116.12 165.88,-116.12 165.88,-97.88 68.12,-97.88"/>
</g>
<!-- https_//standards.iso.org/iso&#45;iec/5087/&#45;2/ed&#45;1/en/ontology/Organization/Organization&#45;&gt;location__Location -->
<g id="edge9" class="edge">
<title>https_//standards.iso.org/iso&#45;iec/5087/&#45;2/ed&#45;1/en/ontology/Organization/Organization&#45;&gt;location__Location</title>
<path fill="none" stroke="black" d="M404.44,-459.18C403.85,-439.84 403,-407.13 403,-379 403,-379 403,-379 403,-179 403,-132.89 261.18,-116.51 177.27,-110.86"/>
<polygon fill="black" stroke="black" points="177.55,-107.37 167.35,-110.23 177.11,-114.35 177.55,-107.37"/>
<text xml:space="preserve" text-anchor="middle" x="456.25" y="-282.05" font-family="Arial" font-size="11.00"> location::hasLocation </text>
<text xml:space="preserve" text-anchor="middle" x="456.25" y="-268.55" font-family="Arial" font-size="11.00"> «only» &#160;</text>
</g>
<!-- Operation -->
<g id="node9" class="node">
<title>Operation</title>
<g id="a_node9"><a xlink:href="../_counters/Organization__Operation.md" xlink:title="&lt;TABLE&gt;">
<polygon fill="lightgray" stroke="none" points="100.75,-25.88 100.75,-42.12 155.25,-42.12 155.25,-25.88 100.75,-25.88"/>
<text xml:space="preserve" text-anchor="start" x="101.75" y="-29.73" font-family="Arial" font-size="12.00">Operation</text>
<polygon fill="none" stroke="black" points="99.75,-24.88 99.75,-43.12 156.25,-43.12 156.25,-24.88 99.75,-24.88"/>
</a>
</g>
</g>
<!-- https_//standards.iso.org/iso&#45;iec/5087/&#45;2/ed&#45;1/en/ontology/Organization/Organization&#45;&gt;Operation -->
<g id="edge12" class="edge">
<title>https_//standards.iso.org/iso&#45;iec/5087/&#45;2/ed&#45;1/en/ontology/Organization/Organization&#45;&gt;Operation</title>
<path fill="none" stroke="black" d="M461.79,-459.1C497.94,-444.45 538,-419.15 538,-379 538,-379 538,-379 538,-106 538,-68.65 270.42,-45.31 167.59,-37.72"/>
<polygon fill="black" stroke="black" points="167.92,-34.23 157.69,-37 167.41,-41.22 167.92,-34.23"/>
<text xml:space="preserve" text-anchor="middle" x="578.12" y="-232.55" font-family="Arial" font-size="11.00"> operatingHours </text>
<text xml:space="preserve" text-anchor="middle" x="578.12" y="-219.05" font-family="Arial" font-size="11.00"> «only» &#160;</text>
</g>
<!-- Invis&#45;&gt;Goal -->
<!-- Goal&#45;&gt;hasaddress__Address -->
<!-- hasaddress__Address&#45;&gt;hasaddress__PhoneNumber -->
<!-- hasaddress__PhoneNumber&#45;&gt;location__Location -->
<!-- location__Location&#45;&gt;Operation -->
</g>
</svg>
