<?xml version="1.0" encoding="UTF-8" standalone="no"?>
<!DOCTYPE svg PUBLIC "-//W3C//DTD SVG 1.1//EN"
 "http://www.w3.org/Graphics/SVG/1.1/DTD/svg11.dtd">
<!-- Generated by graphviz version 14.0.2 (20251019.1705)
 -->
<!-- Pages: 1 -->
<svg width="580pt" height="404pt"
 viewBox="0.00 0.00 580.00 404.00" xmlns="http://www.w3.org/2000/svg" xmlns:xlink="http://www.w3.org/1999/xlink">
<g id="graph0" class="graph" transform="scale(1 1) rotate(0) translate(4 400)">
<polygon fill="white" stroke="none" points="-4,4 -4,-400 575.88,-400 575.88,4 -4,4"/>
<g id="clust2" class="cluster">
<title>cluster_associated</title>
</g>
<!-- https_//standards.iso.org/iso&#45;iec/5087/&#45;2/ed&#45;1/en/ontology/Organization/Role -->
<g id="node1" class="node">
<title>https_//standards.iso.org/iso&#45;iec/5087/&#45;2/ed&#45;1/en/ontology/Organization/Role</title>
<g id="a_node1"><a xlink:href="../classes/Organization__https://standards.iso.org/iso-iec/5087/-2/ed-1/en/ontology/Organization/Role.md" xlink:title="&lt;TABLE&gt;">
<polygon fill="lightgray" stroke="none" points="169.12,-296.88 169.12,-313.12 570.88,-313.12 570.88,-296.88 169.12,-296.88"/>
<text xml:space="preserve" text-anchor="start" x="170.12" y="-300.73" font-family="Arial" font-size="12.00">https://standards.iso.org/iso&#45;iec/5087/&#45;2/ed&#45;1/en/ontology/Organization/Role</text>
<polygon fill="none" stroke="black" points="168.12,-295.88 168.12,-314.12 571.88,-314.12 571.88,-295.88 168.12,-295.88"/>
</a>
</g>
</g>
<!-- CityOrgOntologyThing -->
<g id="node2" class="node">
<title>CityOrgOntologyThing</title>
<g id="a_node2"><a xlink:href="../_counters/Organization__CityOrgOntologyThing.md" xlink:title="&lt;TABLE&gt;">
<polygon fill="lightgray" stroke="none" points="255.38,-369.88 255.38,-386.12 376.62,-386.12 376.62,-369.88 255.38,-369.88"/>
<text xml:space="preserve" text-anchor="start" x="256.38" y="-373.73" font-family="Arial" font-size="12.00">CityOrgOntologyThing</text>
<polygon fill="none" stroke="black" points="254.38,-368.88 254.38,-387.12 377.62,-387.12 377.62,-368.88 254.38,-368.88"/>
</a>
</g>
</g>
<!-- https_//standards.iso.org/iso&#45;iec/5087/&#45;2/ed&#45;1/en/ontology/Organization/Role&#45;&gt;CityOrgOntologyThing -->
<g id="edge1" class="edge">
<title>https_//standards.iso.org/iso&#45;iec/5087/&#45;2/ed&#45;1/en/ontology/Organization/Role&#45;&gt;CityOrgOntologyThing</title>
<path fill="none" stroke="black" d="M357.29,-322.71C350.85,-331.17 342.89,-341.65 335.67,-351.13"/>
<polygon fill="none" stroke="black" points="332.98,-348.89 329.71,-358.97 338.55,-353.13 332.98,-348.89"/>
</g>
<!-- org__Role -->
<g id="node3" class="node">
<title>org__Role</title>
<polygon fill="lightgray" stroke="none" points="397.62,-369.88 397.62,-386.12 448.38,-386.12 448.38,-369.88 397.62,-369.88"/>
<text xml:space="preserve" text-anchor="start" x="398.62" y="-373.73" font-family="Arial" font-size="12.00">org::Role</text>
<polygon fill="none" stroke="black" points="396.62,-368.88 396.62,-387.12 449.38,-387.12 449.38,-368.88 396.62,-368.88"/>
</g>
<!-- https_//standards.iso.org/iso&#45;iec/5087/&#45;2/ed&#45;1/en/ontology/Organization/Role&#45;&gt;org__Role -->
<g id="edge2" class="edge">
<title>https_//standards.iso.org/iso&#45;iec/5087/&#45;2/ed&#45;1/en/ontology/Organization/Role&#45;&gt;org__Role</title>
<path fill="none" stroke="black" d="M382.47,-322.71C388.79,-331.17 396.61,-341.65 403.69,-351.13"/>
<polygon fill="none" stroke="black" points="400.75,-353.04 409.53,-358.96 406.36,-348.85 400.75,-353.04"/>
</g>
<!-- Invis -->
<!-- https_//standards.iso.org/iso&#45;iec/5087/&#45;2/ed&#45;1/en/ontology/Organization/Role&#45;&gt;Invis -->
<!-- activity__Activity -->
<g id="node5" class="node">
<title>activity__Activity</title>
<polygon fill="lightgray" stroke="none" points="64.5,-197.88 64.5,-214.12 147.5,-214.12 147.5,-197.88 64.5,-197.88"/>
<text xml:space="preserve" text-anchor="start" x="65.5" y="-201.72" font-family="Arial" font-size="12.00">activity::Activity</text>
<polygon fill="none" stroke="black" points="63.5,-196.88 63.5,-215.12 148.5,-215.12 148.5,-196.88 63.5,-196.88"/>
</g>
<!-- https_//standards.iso.org/iso&#45;iec/5087/&#45;2/ed&#45;1/en/ontology/Organization/Role&#45;&gt;activity__Activity -->
<g id="edge8" class="edge">
<title>https_//standards.iso.org/iso&#45;iec/5087/&#45;2/ed&#45;1/en/ontology/Organization/Role&#45;&gt;activity__Activity</title>
<path fill="none" stroke="black" d="M229.17,-287.02C211.74,-282.39 194.53,-276.49 178.75,-269 159.94,-260.06 142.08,-244.99 128.77,-231.94"/>
<polygon fill="black" stroke="black" points="131.28,-229.5 121.78,-224.82 126.29,-234.41 131.28,-229.5"/>
<text xml:space="preserve" text-anchor="middle" x="209.88" y="-258.55" font-family="Arial" font-size="11.00"> hasProcess </text>
<text xml:space="preserve" text-anchor="middle" x="209.88" y="-245.05" font-family="Arial" font-size="11.00"> «only» &#160;</text>
</g>
<!-- consumestate__Resource -->
<g id="node6" class="node">
<title>consumestate__Resource</title>
<polygon fill="lightgray" stroke="none" points="17,-98.88 17,-115.12 151,-115.12 151,-98.88 17,-98.88"/>
<text xml:space="preserve" text-anchor="start" x="18" y="-102.72" font-family="Arial" font-size="12.00">consumestate::Resource</text>
<polygon fill="none" stroke="black" points="16,-97.88 16,-116.12 152,-116.12 152,-97.88 16,-97.88"/>
</g>
<!-- https_//standards.iso.org/iso&#45;iec/5087/&#45;2/ed&#45;1/en/ontology/Organization/Role&#45;&gt;consumestate__Resource -->
<g id="edge9" class="edge">
<title>https_//standards.iso.org/iso&#45;iec/5087/&#45;2/ed&#45;1/en/ontology/Organization/Role&#45;&gt;consumestate__Resource</title>
<path fill="none" stroke="black" d="M345.37,-287.12C294.16,-252.02 176.12,-171.13 117.83,-131.19"/>
<polygon fill="black" stroke="black" points="120.15,-128.53 109.92,-125.77 116.19,-134.31 120.15,-128.53"/>
<text xml:space="preserve" text-anchor="middle" x="285.61" y="-209.05" font-family="Arial" font-size="11.00"> hasResource </text>
<text xml:space="preserve" text-anchor="middle" x="285.61" y="-195.55" font-family="Arial" font-size="11.00"> «only» &#160;</text>
</g>
<!-- Goal -->
<g id="node7" class="node">
<title>Goal</title>
<g id="a_node7"><a xlink:href="../_counters/Organization__Goal.md" xlink:title="&lt;TABLE&gt;">
<polygon fill="lightgray" stroke="none" points="91.25,-25.88 91.25,-42.12 118.75,-42.12 118.75,-25.88 91.25,-25.88"/>
<text xml:space="preserve" text-anchor="start" x="92.25" y="-29.73" font-family="Arial" font-size="12.00">Goal</text>
<polygon fill="none" stroke="black" points="90.25,-24.88 90.25,-43.12 119.75,-43.12 119.75,-24.88 90.25,-24.88"/>
</a>
</g>
</g>
<!-- https_//standards.iso.org/iso&#45;iec/5087/&#45;2/ed&#45;1/en/ontology/Organization/Role&#45;&gt;Goal -->
<g id="edge7" class="edge">
<title>https_//standards.iso.org/iso&#45;iec/5087/&#45;2/ed&#45;1/en/ontology/Organization/Role&#45;&gt;Goal</title>
<path fill="none" stroke="black" d="M366.55,-287.08C360.96,-263.01 348.06,-218.41 324,-188 273.71,-124.42 190.01,-76.34 141.96,-52.23"/>
<polygon fill="black" stroke="black" points="143.57,-49.12 133.05,-47.84 140.48,-55.4 143.57,-49.12"/>
<text xml:space="preserve" text-anchor="middle" x="330.62" y="-159.55" font-family="Arial" font-size="11.00"> hasGoal </text>
<text xml:space="preserve" text-anchor="middle" x="330.62" y="-146.05" font-family="Arial" font-size="11.00"> «only» &#160;</text>
</g>
<!-- Invis&#45;&gt;activity__Activity -->
<!-- activity__Activity&#45;&gt;consumestate__Resource -->
<!-- consumestate__Resource&#45;&gt;Goal -->
</g>
</svg>
