<?xml version="1.0" encoding="UTF-8" standalone="no"?>
<!DOCTYPE svg PUBLIC "-//W3C//DTD SVG 1.1//EN"
 "http://www.w3.org/Graphics/SVG/1.1/DTD/svg11.dtd">
<!-- Generated by graphviz version 14.0.2 (20251019.1705)
 -->
<!-- Pages: 1 -->
<svg width="582pt" height="232pt"
 viewBox="0.00 0.00 582.00 232.00" xmlns="http://www.w3.org/2000/svg" xmlns:xlink="http://www.w3.org/1999/xlink">
<g id="graph0" class="graph" transform="scale(1 1) rotate(0) translate(4 228)">
<polygon fill="white" stroke="none" points="-4,4 -4,-228 578.38,-228 578.38,4 -4,4"/>
<g id="clust2" class="cluster">
<title>cluster_associated</title>
</g>
<!-- https_//standards.iso.org/iso&#45;iec/5087/&#45;2/ed&#45;1/en/ontology/Organization/Salary -->
<g id="node1" class="node">
<title>https_//standards.iso.org/iso&#45;iec/5087/&#45;2/ed&#45;1/en/ontology/Organization/Salary</title>
<g id="a_node1"><a xlink:href="../classes/Organization__https://standards.iso.org/iso-iec/5087/-2/ed-1/en/ontology/Organization/Salary.md" xlink:title="&lt;TABLE&gt;">
<polygon fill="lightgray" stroke="none" points="162.62,-124.88 162.62,-141.12 573.38,-141.12 573.38,-124.88 162.62,-124.88"/>
<text xml:space="preserve" text-anchor="start" x="163.62" y="-128.72" font-family="Arial" font-size="12.00">https://standards.iso.org/iso&#45;iec/5087/&#45;2/ed&#45;1/en/ontology/Organization/Salary</text>
<polygon fill="none" stroke="black" points="161.62,-123.88 161.62,-142.12 574.38,-142.12 574.38,-123.88 161.62,-123.88"/>
</a>
</g>
</g>
<!-- Compensation -->
<g id="node2" class="node">
<title>Compensation</title>
<g id="a_node2"><a xlink:href="../_counters/Organization__Compensation.md" xlink:title="&lt;TABLE&gt;">
<polygon fill="lightgray" stroke="none" points="328,-197.88 328,-214.12 408,-214.12 408,-197.88 328,-197.88"/>
<text xml:space="preserve" text-anchor="start" x="329" y="-201.72" font-family="Arial" font-size="12.00">Compensation</text>
<polygon fill="none" stroke="black" points="327,-196.88 327,-215.12 409,-215.12 409,-196.88 327,-196.88"/>
</a>
</g>
</g>
<!-- https_//standards.iso.org/iso&#45;iec/5087/&#45;2/ed&#45;1/en/ontology/Organization/Salary&#45;&gt;Compensation -->
<g id="edge1" class="edge">
<title>https_//standards.iso.org/iso&#45;iec/5087/&#45;2/ed&#45;1/en/ontology/Organization/Salary&#45;&gt;Compensation</title>
<path fill="none" stroke="black" d="M368,-150.71C368,-158.47 368,-167.92 368,-176.74"/>
<polygon fill="none" stroke="black" points="364.5,-176.66 368,-186.66 371.5,-176.66 364.5,-176.66"/>
</g>
<!-- Invis -->
<!-- https_//standards.iso.org/iso&#45;iec/5087/&#45;2/ed&#45;1/en/ontology/Organization/Salary&#45;&gt;Invis -->
<!-- city__nits/MonetaryValue -->
<g id="node4" class="node">
<title>city__nits/MonetaryValue</title>
<polygon fill="lightgray" stroke="none" points="17.38,-25.88 17.38,-42.12 144.62,-42.12 144.62,-25.88 17.38,-25.88"/>
<text xml:space="preserve" text-anchor="start" x="18.38" y="-29.73" font-family="Arial" font-size="12.00">city::nits/MonetaryValue</text>
<polygon fill="none" stroke="black" points="16.38,-24.88 16.38,-43.12 145.62,-43.12 145.62,-24.88 16.38,-24.88"/>
</g>
<!-- https_//standards.iso.org/iso&#45;iec/5087/&#45;2/ed&#45;1/en/ontology/Organization/Salary&#45;&gt;city__nits/MonetaryValue -->
<g id="edge4" class="edge">
<title>https_//standards.iso.org/iso&#45;iec/5087/&#45;2/ed&#45;1/en/ontology/Organization/Salary&#45;&gt;city__nits/MonetaryValue</title>
<path fill="none" stroke="black" d="M318.01,-115.1C268.98,-98.53 194.16,-73.24 141.73,-55.53"/>
<polygon fill="black" stroke="black" points="142.93,-52.24 132.33,-52.35 140.69,-58.87 142.93,-52.24"/>
<text xml:space="preserve" text-anchor="middle" x="287.15" y="-86.55" font-family="Arial" font-size="11.00"> annualPay </text>
<text xml:space="preserve" text-anchor="middle" x="287.15" y="-73.05" font-family="Arial" font-size="11.00"> «max 1» &#160;</text>
</g>
<!-- Invis&#45;&gt;city__nits/MonetaryValue -->
</g>
</svg>
