<?xml version="1.0" encoding="UTF-8" standalone="no"?>
<!DOCTYPE svg PUBLIC "-//W3C//DTD SVG 1.1//EN"
 "http://www.w3.org/Graphics/SVG/1.1/DTD/svg11.dtd">
<!-- Generated by graphviz version 14.0.2 (20251019.1705)
 -->
<!-- Pages: 1 -->
<svg width="588pt" height="305pt"
 viewBox="0.00 0.00 588.00 305.00" xmlns="http://www.w3.org/2000/svg" xmlns:xlink="http://www.w3.org/1999/xlink">
<g id="graph0" class="graph" transform="scale(1 1) rotate(0) translate(4 301)">
<polygon fill="white" stroke="none" points="-4,4 -4,-301 583.88,-301 583.88,4 -4,4"/>
<g id="clust2" class="cluster">
<title>cluster_associated</title>
</g>
<!-- https_//standards.iso.org/iso&#45;iec/5087/&#45;2/ed&#45;1/en/ontology/Organization/Wage -->
<g id="node1" class="node">
<title>https_//standards.iso.org/iso&#45;iec/5087/&#45;2/ed&#45;1/en/ontology/Organization/Wage</title>
<g id="a_node1"><a xlink:href="../classes/Organization__https://standards.iso.org/iso-iec/5087/-2/ed-1/en/ontology/Organization/Wage.md" xlink:title="&lt;TABLE&gt;">
<polygon fill="lightgray" stroke="none" points="171.12,-197.88 171.12,-214.12 578.88,-214.12 578.88,-197.88 171.12,-197.88"/>
<text xml:space="preserve" text-anchor="start" x="172.12" y="-201.72" font-family="Arial" font-size="12.00">https://standards.iso.org/iso&#45;iec/5087/&#45;2/ed&#45;1/en/ontology/Organization/Wage</text>
<polygon fill="none" stroke="black" points="170.12,-196.88 170.12,-215.12 579.88,-215.12 579.88,-196.88 170.12,-196.88"/>
</a>
</g>
</g>
<!-- Compensation -->
<g id="node2" class="node">
<title>Compensation</title>
<g id="a_node2"><a xlink:href="../_counters/Organization__Compensation.md" xlink:title="&lt;TABLE&gt;">
<polygon fill="lightgray" stroke="none" points="335,-270.88 335,-287.12 415,-287.12 415,-270.88 335,-270.88"/>
<text xml:space="preserve" text-anchor="start" x="336" y="-274.73" font-family="Arial" font-size="12.00">Compensation</text>
<polygon fill="none" stroke="black" points="334,-269.88 334,-288.12 416,-288.12 416,-269.88 334,-269.88"/>
</a>
</g>
</g>
<!-- https_//standards.iso.org/iso&#45;iec/5087/&#45;2/ed&#45;1/en/ontology/Organization/Wage&#45;&gt;Compensation -->
<g id="edge1" class="edge">
<title>https_//standards.iso.org/iso&#45;iec/5087/&#45;2/ed&#45;1/en/ontology/Organization/Wage&#45;&gt;Compensation</title>
<path fill="none" stroke="black" d="M375,-223.71C375,-231.47 375,-240.92 375,-249.74"/>
<polygon fill="none" stroke="black" points="371.5,-249.66 375,-259.66 378.5,-249.66 371.5,-249.66"/>
</g>
<!-- Invis -->
<!-- https_//standards.iso.org/iso&#45;iec/5087/&#45;2/ed&#45;1/en/ontology/Organization/Wage&#45;&gt;Invis -->
<!-- city__nits/MonetaryValue -->
<g id="node4" class="node">
<title>city__nits/MonetaryValue</title>
<polygon fill="lightgray" stroke="none" points="25.38,-98.88 25.38,-115.12 152.62,-115.12 152.62,-98.88 25.38,-98.88"/>
<text xml:space="preserve" text-anchor="start" x="26.38" y="-102.72" font-family="Arial" font-size="12.00">city::nits/MonetaryValue</text>
<polygon fill="none" stroke="black" points="24.38,-97.88 24.38,-116.12 153.62,-116.12 153.62,-97.88 24.38,-97.88"/>
</g>
<!-- https_//standards.iso.org/iso&#45;iec/5087/&#45;2/ed&#45;1/en/ontology/Organization/Wage&#45;&gt;city__nits/MonetaryValue -->
<g id="edge6" class="edge">
<title>https_//standards.iso.org/iso&#45;iec/5087/&#45;2/ed&#45;1/en/ontology/Organization/Wage&#45;&gt;city__nits/MonetaryValue</title>
<path fill="none" stroke="black" d="M278.57,-188.09C257.04,-183.2 234.51,-177.19 214,-170 184,-159.48 151.9,-143.45 127.75,-130.32"/>
<polygon fill="black" stroke="black" points="129.68,-127.4 119.23,-125.63 126.3,-133.53 129.68,-127.4"/>
<text xml:space="preserve" text-anchor="middle" x="241" y="-159.55" font-family="Arial" font-size="11.00"> hourlyPay </text>
<text xml:space="preserve" text-anchor="middle" x="241" y="-146.05" font-family="Arial" font-size="11.00"> «max 1» &#160;</text>
</g>
<!-- CityUnits__MonetaryValue -->
<g id="node5" class="node">
<title>CityUnits__MonetaryValue</title>
<polygon fill="lightgray" stroke="none" points="16.88,-25.88 16.88,-42.12 153.12,-42.12 153.12,-25.88 16.88,-25.88"/>
<text xml:space="preserve" text-anchor="start" x="17.88" y="-29.73" font-family="Arial" font-size="12.00">CityUnits::MonetaryValue</text>
<polygon fill="none" stroke="black" points="15.88,-24.88 15.88,-43.12 154.12,-43.12 154.12,-24.88 15.88,-24.88"/>
</g>
<!-- https_//standards.iso.org/iso&#45;iec/5087/&#45;2/ed&#45;1/en/ontology/Organization/Wage&#45;&gt;CityUnits__MonetaryValue -->
<g id="edge5" class="edge">
<title>https_//standards.iso.org/iso&#45;iec/5087/&#45;2/ed&#45;1/en/ontology/Organization/Wage&#45;&gt;CityUnits__MonetaryValue</title>
<path fill="none" stroke="black" d="M346.13,-188.08C293.59,-157.27 182.32,-92.05 123.42,-57.52"/>
<polygon fill="black" stroke="black" points="125.45,-54.66 115.06,-52.62 121.91,-60.7 125.45,-54.66"/>
<text xml:space="preserve" text-anchor="middle" x="270.25" y="-110.05" font-family="Arial" font-size="11.00"> overtimePay </text>
<text xml:space="preserve" text-anchor="middle" x="270.25" y="-96.55" font-family="Arial" font-size="11.00"> «only» &#160;</text>
</g>
<!-- Invis&#45;&gt;city__nits/MonetaryValue -->
<!-- city__nits/MonetaryValue&#45;&gt;CityUnits__MonetaryValue -->
</g>
</svg>
