<?xml version="1.0" encoding="UTF-8" standalone="no"?>
<!DOCTYPE svg PUBLIC "-//W3C//DTD SVG 1.1//EN"
 "http://www.w3.org/Graphics/SVG/1.1/DTD/svg11.dtd">
<!-- Generated by graphviz version 14.0.2 (20251019.1705)
 -->
<!-- Pages: 1 -->
<svg width="596pt" height="305pt"
 viewBox="0.00 0.00 596.00 305.00" xmlns="http://www.w3.org/2000/svg" xmlns:xlink="http://www.w3.org/1999/xlink">
<g id="graph0" class="graph" transform="scale(1 1) rotate(0) translate(4 301)">
<polygon fill="white" stroke="none" points="-4,4 -4,-301 591.5,-301 591.5,4 -4,4"/>
<g id="clust2" class="cluster">
<title>cluster_associated</title>
</g>
<!-- https_//standards.iso.org/iso&#45;iec/5087/&#45;2/ed&#45;1/en/ontology/Household/Household -->
<g id="node1" class="node">
<title>https_//standards.iso.org/iso&#45;iec/5087/&#45;2/ed&#45;1/en/ontology/Household/Household</title>
<g id="a_node1"><a xlink:href="../classes/Household__https://standards.iso.org/iso-iec/5087/-2/ed-1/en/ontology/Household/Household.md" xlink:title="&lt;TABLE&gt;">
<polygon fill="lightgray" stroke="none" points="161.5,-206 161.5,-222.25 586.5,-222.25 586.5,-206 161.5,-206"/>
<text xml:space="preserve" text-anchor="start" x="162.5" y="-209.85" font-family="Arial" font-size="12.00">https://standards.iso.org/iso&#45;iec/5087/&#45;2/ed&#45;1/en/ontology/Household/Household</text>
<text xml:space="preserve" text-anchor="start" x="162.5" y="-193.6" font-family="Arial" font-size="12.00">time::hasTime: time::ProperInterval «only»</text>
<polygon fill="none" stroke="black" points="160.5,-188.75 160.5,-223.25 587.5,-223.25 587.5,-188.75 160.5,-188.75"/>
</a>
</g>
</g>
<!-- HouseholdOntologyThing -->
<g id="node2" class="node">
<title>HouseholdOntologyThing</title>
<g id="a_node2"><a xlink:href="../_counters/Household__HouseholdOntologyThing.md" xlink:title="&lt;TABLE&gt;">
<polygon fill="lightgray" stroke="none" points="304.38,-270.88 304.38,-287.12 443.62,-287.12 443.62,-270.88 304.38,-270.88"/>
<text xml:space="preserve" text-anchor="start" x="305.38" y="-274.73" font-family="Arial" font-size="12.00">HouseholdOntologyThing</text>
<polygon fill="none" stroke="black" points="303.38,-269.88 303.38,-288.12 444.62,-288.12 444.62,-269.88 303.38,-269.88"/>
</a>
</g>
</g>
<!-- https_//standards.iso.org/iso&#45;iec/5087/&#45;2/ed&#45;1/en/ontology/Household/Household&#45;&gt;HouseholdOntologyThing -->
<g id="edge1" class="edge">
<title>https_//standards.iso.org/iso&#45;iec/5087/&#45;2/ed&#45;1/en/ontology/Household/Household&#45;&gt;HouseholdOntologyThing</title>
<path fill="none" stroke="black" d="M374,-223.71C374,-231.47 374,-240.92 374,-249.74"/>
<polygon fill="none" stroke="black" points="370.5,-249.66 374,-259.66 377.5,-249.66 370.5,-249.66"/>
</g>
<!-- Invis -->
<!-- https_//standards.iso.org/iso&#45;iec/5087/&#45;2/ed&#45;1/en/ontology/Household/Household&#45;&gt;Invis -->
<!-- cityresident__Residence -->
<g id="node4" class="node">
<title>cityresident__Residence</title>
<polygon fill="lightgray" stroke="none" points="16.75,-98.88 16.75,-115.12 143.25,-115.12 143.25,-98.88 16.75,-98.88"/>
<text xml:space="preserve" text-anchor="start" x="17.75" y="-102.72" font-family="Arial" font-size="12.00">cityresident::Residence</text>
<polygon fill="none" stroke="black" points="15.75,-97.88 15.75,-116.12 144.25,-116.12 144.25,-97.88 15.75,-97.88"/>
</g>
<!-- https_//standards.iso.org/iso&#45;iec/5087/&#45;2/ed&#45;1/en/ontology/Household/Household&#45;&gt;cityresident__Residence -->
<g id="edge6" class="edge">
<title>https_//standards.iso.org/iso&#45;iec/5087/&#45;2/ed&#45;1/en/ontology/Household/Household&#45;&gt;cityresident__Residence</title>
<path fill="none" stroke="black" d="M290.68,-188.06C269.16,-182.96 246.17,-176.87 225.25,-170 190.95,-158.74 153.5,-142.66 125.23,-129.7"/>
<polygon fill="black" stroke="black" points="126.78,-126.56 116.24,-125.53 123.84,-132.91 126.78,-126.56"/>
<text xml:space="preserve" text-anchor="middle" x="275.12" y="-159.55" font-family="Arial" font-size="11.00"> householdOccupies </text>
<text xml:space="preserve" text-anchor="middle" x="275.12" y="-146.05" font-family="Arial" font-size="11.00"> «max 1» &#160;</text>
</g>
<!-- person__Person -->
<g id="node5" class="node">
<title>person__Person</title>
<polygon fill="lightgray" stroke="none" points="49.5,-25.88 49.5,-42.12 132.5,-42.12 132.5,-25.88 49.5,-25.88"/>
<text xml:space="preserve" text-anchor="start" x="50.5" y="-29.73" font-family="Arial" font-size="12.00">person::Person</text>
<polygon fill="none" stroke="black" points="48.5,-24.88 48.5,-43.12 133.5,-43.12 133.5,-24.88 48.5,-24.88"/>
</g>
<!-- https_//standards.iso.org/iso&#45;iec/5087/&#45;2/ed&#45;1/en/ontology/Household/Household&#45;&gt;person__Person -->
<g id="edge5" class="edge">
<title>https_//standards.iso.org/iso&#45;iec/5087/&#45;2/ed&#45;1/en/ontology/Household/Household&#45;&gt;person__Person</title>
<path fill="none" stroke="black" d="M363.89,-188.19C355.02,-174.58 341.06,-155.65 325,-143 269.66,-99.41 193.88,-68.58 143.73,-51.31"/>
<polygon fill="black" stroke="black" points="145.15,-48.1 134.56,-48.21 142.91,-54.73 145.15,-48.1"/>
<text xml:space="preserve" text-anchor="middle" x="388.36" y="-110.05" font-family="Arial" font-size="11.00"> businessestablishment::hasMember </text>
<text xml:space="preserve" text-anchor="middle" x="388.36" y="-96.55" font-family="Arial" font-size="11.00"> «only» &#160;</text>
</g>
<!-- Invis&#45;&gt;cityresident__Residence -->
<!-- cityresident__Residence&#45;&gt;person__Person -->
</g>
</svg>
