<?xml version="1.0" encoding="UTF-8" standalone="no"?>
<!DOCTYPE svg PUBLIC "-//W3C//DTD SVG 1.1//EN"
 "http://www.w3.org/Graphics/SVG/1.1/DTD/svg11.dtd">
<!-- Generated by graphviz version 14.0.2 (20251019.1705)
 -->
<!-- Pages: 1 -->
<svg width="552pt" height="263pt"
 viewBox="0.00 0.00 552.00 263.00" xmlns="http://www.w3.org/2000/svg" xmlns:xlink="http://www.w3.org/1999/xlink">
<g id="graph0" class="graph" transform="scale(1 1) rotate(0) translate(4 259)">
<polygon fill="white" stroke="none" points="-4,4 -4,-259 548.25,-259 548.25,4 -4,4"/>
<g id="clust2" class="cluster">
<title>cluster_associated</title>
</g>
<!-- https_//standards.iso.org/iso&#45;iec/5087/&#45;2/ed&#45;1/en/ontology/Code/Code -->
<g id="node1" class="node">
<title>https_//standards.iso.org/iso&#45;iec/5087/&#45;2/ed&#45;1/en/ontology/Code/Code</title>
<g id="a_node1"><a xlink:href="../classes/Code__https://standards.iso.org/iso-iec/5087/-2/ed-1/en/ontology/Code/Code.md" xlink:title="&lt;TABLE&gt;">
<polygon fill="lightgray" stroke="none" points="176.75,-164.75 176.75,-181 543.25,-181 543.25,-164.75 176.75,-164.75"/>
<text xml:space="preserve" text-anchor="start" x="177.75" y="-168.6" font-family="Arial" font-size="12.00">https://standards.iso.org/iso&#45;iec/5087/&#45;2/ed&#45;1/en/ontology/Code/Code</text>
<text xml:space="preserve" text-anchor="start" x="177.75" y="-152.35" font-family="Arial" font-size="12.00">genericdataproperty::hasDescription: xsd::string «only»</text>
<text xml:space="preserve" text-anchor="start" x="177.75" y="-136.1" font-family="Arial" font-size="12.00">genericdataproperty::hasIdentifier: xsd::string «max 1»</text>
<text xml:space="preserve" text-anchor="start" x="177.75" y="-119.85" font-family="Arial" font-size="12.00">genericdataproperty::hasName: xsd::string «only»</text>
<polygon fill="none" stroke="black" points="175.75,-115 175.75,-182 544.25,-182 544.25,-115 175.75,-115"/>
</a>
</g>
</g>
<!-- CodeOntologyThing -->
<g id="node2" class="node">
<title>CodeOntologyThing</title>
<g id="a_node2"><a xlink:href="../_counters/Code__CodeOntologyThing.md" xlink:title="&lt;TABLE&gt;">
<polygon fill="lightgray" stroke="none" points="305,-228.88 305,-245.12 415,-245.12 415,-228.88 305,-228.88"/>
<text xml:space="preserve" text-anchor="start" x="306" y="-232.72" font-family="Arial" font-size="12.00">CodeOntologyThing</text>
<polygon fill="none" stroke="black" points="304,-227.88 304,-246.12 416,-246.12 416,-227.88 304,-227.88"/>
</a>
</g>
</g>
<!-- https_//standards.iso.org/iso&#45;iec/5087/&#45;2/ed&#45;1/en/ontology/Code/Code&#45;&gt;CodeOntologyThing -->
<g id="edge1" class="edge">
<title>https_//standards.iso.org/iso&#45;iec/5087/&#45;2/ed&#45;1/en/ontology/Code/Code&#45;&gt;CodeOntologyThing</title>
<path fill="none" stroke="black" d="M360,-181.89C360,-190.45 360,-199.62 360,-207.93"/>
<polygon fill="none" stroke="black" points="356.5,-207.81 360,-217.81 363.5,-207.81 356.5,-207.81"/>
</g>
<!-- Invis -->
<!-- https_//standards.iso.org/iso&#45;iec/5087/&#45;2/ed&#45;1/en/ontology/Code/Code&#45;&gt;Invis -->
<!-- organization__Organization -->
<g id="node4" class="node">
<title>organization__Organization</title>
<polygon fill="lightgray" stroke="none" points="16.88,-25.88 16.88,-42.12 159.12,-42.12 159.12,-25.88 16.88,-25.88"/>
<text xml:space="preserve" text-anchor="start" x="17.88" y="-29.73" font-family="Arial" font-size="12.00">organization::Organization</text>
<polygon fill="none" stroke="black" points="15.88,-24.88 15.88,-43.12 160.12,-43.12 160.12,-24.88 15.88,-24.88"/>
</g>
<!-- https_//standards.iso.org/iso&#45;iec/5087/&#45;2/ed&#45;1/en/ontology/Code/Code&#45;&gt;organization__Organization -->
<g id="edge4" class="edge">
<title>https_//standards.iso.org/iso&#45;iec/5087/&#45;2/ed&#45;1/en/ontology/Code/Code&#45;&gt;organization__Organization</title>
<path fill="none" stroke="black" d="M281.69,-115.11C235.98,-96.2 179.58,-72.88 139.46,-56.28"/>
<polygon fill="black" stroke="black" points="140.83,-53.06 130.25,-52.48 138.16,-59.53 140.83,-53.06"/>
<text xml:space="preserve" text-anchor="middle" x="259.16" y="-86.55" font-family="Arial" font-size="11.00"> definedBy </text>
<text xml:space="preserve" text-anchor="middle" x="259.16" y="-73.05" font-family="Arial" font-size="11.00"> «max 1» &#160;</text>
</g>
<!-- Invis&#45;&gt;organization__Organization -->
</g>
</svg>
