<?xml version="1.0" encoding="UTF-8" standalone="no"?>
<!DOCTYPE svg PUBLIC "-//W3C//DTD SVG 1.1//EN"
 "http://www.w3.org/Graphics/SVG/1.1/DTD/svg11.dtd">
<!-- Generated by graphviz version 14.0.2 (20251019.1705)
 -->
<!-- Pages: 1 -->
<svg width="227pt" height="232pt"
 viewBox="0.00 0.00 227.00 232.00" xmlns="http://www.w3.org/2000/svg" xmlns:xlink="http://www.w3.org/1999/xlink">
<g id="graph0" class="graph" transform="scale(1 1) rotate(0) translate(4 228)">
<polygon fill="white" stroke="none" points="-4,4 -4,-228 222.75,-228 222.75,4 -4,4"/>
<g id="clust2" class="cluster">
<title>cluster_associated</title>
</g>
<!-- CatchmentAreaType -->
<g id="node1" class="node">
<title>CatchmentAreaType</title>
<g id="a_node1"><a xlink:href="../CatchmentAreaType.md" xlink:title="&lt;TABLE&gt;">
<polygon fill="lightgray" stroke="none" points="106.25,-124.88 106.25,-141.12 217.75,-141.12 217.75,-124.88 106.25,-124.88"/>
<text xml:space="preserve" text-anchor="start" x="107.25" y="-128.72" font-family="Arial" font-size="12.00">CatchmentAreaType</text>
<polygon fill="none" stroke="black" points="105.25,-123.88 105.25,-142.12 218.75,-142.12 218.75,-123.88 105.25,-123.88"/>
</a>
</g>
</g>
<!-- Invis -->
<!-- CatchmentAreaType&#45;&gt;Invis -->
<!-- Code -->
<g id="node3" class="node">
<title>Code</title>
<g id="a_node3"><a xlink:href="../Code.md" xlink:title="&lt;TABLE&gt;">
<polygon fill="lightgray" stroke="none" points="27.38,-25.88 27.38,-42.12 58.62,-42.12 58.62,-25.88 27.38,-25.88"/>
<text xml:space="preserve" text-anchor="start" x="28.38" y="-29.73" font-family="Arial" font-size="12.00">Code</text>
<polygon fill="none" stroke="black" points="26.38,-24.88 26.38,-43.12 59.62,-43.12 59.62,-24.88 26.38,-24.88"/>
</a>
</g>
</g>
<!-- CatchmentAreaType&#45;&gt;Code -->
<g id="edge4" class="edge">
<title>CatchmentAreaType&#45;&gt;Code</title>
<path fill="none" stroke="black" d="M141.27,-115.1C122.16,-99.53 93.6,-76.24 72.18,-58.79"/>
<polygon fill="black" stroke="black" points="74.63,-56.26 64.66,-52.66 70.2,-61.69 74.63,-56.26"/>
<text xml:space="preserve" text-anchor="middle" x="141.41" y="-86.55" font-family="Arial" font-size="11.00"> hasCode </text>
<text xml:space="preserve" text-anchor="middle" x="141.41" y="-73.05" font-family="Arial" font-size="11.00"> «only» &#160;</text>
</g>
<!-- CityServiceThing -->
<g id="node4" class="node">
<title>CityServiceThing</title>
<g id="a_node4"><a xlink:href="../CityServiceThing.md" xlink:title="&lt;TABLE&gt;">
<polygon fill="lightgray" stroke="none" points="114.88,-197.88 114.88,-214.12 209.12,-214.12 209.12,-197.88 114.88,-197.88"/>
<text xml:space="preserve" text-anchor="start" x="115.88" y="-201.72" font-family="Arial" font-size="12.00">CityServiceThing</text>
<polygon fill="none" stroke="black" points="113.88,-196.88 113.88,-215.12 210.12,-215.12 210.12,-196.88 113.88,-196.88"/>
</a>
</g>
</g>
<!-- CatchmentAreaType&#45;&gt;CityServiceThing -->
<g id="edge1" class="edge">
<title>CatchmentAreaType&#45;&gt;CityServiceThing</title>
<path fill="none" stroke="black" d="M162,-150.71C162,-158.47 162,-167.92 162,-176.74"/>
<polygon fill="none" stroke="black" points="158.5,-176.66 162,-186.66 165.5,-176.66 158.5,-176.66"/>
</g>
<!-- Invis&#45;&gt;Code -->
</g>
</svg>
