<?xml version="1.0" encoding="UTF-8" standalone="no"?>
<!DOCTYPE svg PUBLIC "-//W3C//DTD SVG 1.1//EN"
 "http://www.w3.org/Graphics/SVG/1.1/DTD/svg11.dtd">
<!-- Generated by graphviz version 14.0.2 (20251019.1705)
 -->
<!-- Pages: 1 -->
<svg width="222pt" height="305pt"
 viewBox="0.00 0.00 222.00 305.00" xmlns="http://www.w3.org/2000/svg" xmlns:xlink="http://www.w3.org/1999/xlink">
<g id="graph0" class="graph" transform="scale(1 1) rotate(0) translate(4 301)">
<polygon fill="white" stroke="none" points="-4,4 -4,-301 217.81,-301 217.81,4 -4,4"/>
<g id="clust2" class="cluster">
<title>cluster_associated</title>
</g>
<!-- Citizenship -->
<g id="node1" class="node">
<title>Citizenship</title>
<g id="a_node1"><a xlink:href="../Citizenship.md" xlink:title="&lt;TABLE&gt;">
<polygon fill="lightgray" stroke="none" points="137,-197.88 137,-214.12 199,-214.12 199,-197.88 137,-197.88"/>
<text xml:space="preserve" text-anchor="start" x="138" y="-201.72" font-family="Arial" font-size="12.00">Citizenship</text>
<polygon fill="none" stroke="black" points="136,-196.88 136,-215.12 200,-215.12 200,-196.88 136,-196.88"/>
</a>
</g>
</g>
<!-- Invis -->
<!-- Citizenship&#45;&gt;Invis -->
<!-- Country -->
<g id="node3" class="node">
<title>Country</title>
<g id="a_node3"><a xlink:href="../Country.md" xlink:title="&lt;TABLE&gt;">
<polygon fill="lightgray" stroke="none" points="50,-98.88 50,-115.12 94,-115.12 94,-98.88 50,-98.88"/>
<text xml:space="preserve" text-anchor="start" x="51" y="-102.72" font-family="Arial" font-size="12.00">Country</text>
<polygon fill="none" stroke="black" points="49,-97.88 49,-116.12 95,-116.12 95,-97.88 49,-97.88"/>
</a>
</g>
</g>
<!-- Citizenship&#45;&gt;Country -->
<g id="edge5" class="edge">
<title>Citizenship&#45;&gt;Country</title>
<path fill="none" stroke="black" d="M136.06,-189.88C117.95,-181.2 98.57,-171.69 97,-170 88.18,-160.49 82.29,-147.47 78.46,-135.82"/>
<polygon fill="black" stroke="black" points="81.84,-134.89 75.71,-126.25 75.11,-136.83 81.84,-134.89"/>
<text xml:space="preserve" text-anchor="middle" x="125.5" y="-159.55" font-family="Arial" font-size="11.00"> forCountry </text>
<text xml:space="preserve" text-anchor="middle" x="125.5" y="-146.05" font-family="Arial" font-size="11.00"> «max 1» &#160;</text>
</g>
<!-- time_ProperInterval -->
<g id="node4" class="node">
<title>time_ProperInterval</title>
<polygon fill="lightgray" stroke="none" points="16.75,-25.88 16.75,-42.12 119.25,-42.12 119.25,-25.88 16.75,-25.88"/>
<text xml:space="preserve" text-anchor="start" x="17.75" y="-29.73" font-family="Arial" font-size="12.00">time:ProperInterval</text>
<polygon fill="none" stroke="black" points="15.75,-24.88 15.75,-43.12 120.25,-43.12 120.25,-24.88 15.75,-24.88"/>
</g>
<!-- Citizenship&#45;&gt;time_ProperInterval -->
<g id="edge6" class="edge">
<title>Citizenship&#45;&gt;time_ProperInterval</title>
<path fill="none" stroke="black" d="M166.25,-188.01C164.44,-175.15 160.87,-157.33 154,-143 138.85,-111.42 112.98,-80.71 93.56,-60.16"/>
<polygon fill="black" stroke="black" points="96.19,-57.85 86.73,-53.09 91.16,-62.71 96.19,-57.85"/>
<text xml:space="preserve" text-anchor="middle" x="178.94" y="-110.05" font-family="Arial" font-size="11.00"> validityPeriod </text>
<text xml:space="preserve" text-anchor="middle" x="178.94" y="-96.55" font-family="Arial" font-size="11.00"> «max 1» &#160;</text>
</g>
<!-- PersonThing -->
<g id="node5" class="node">
<title>PersonThing</title>
<g id="a_node5"><a xlink:href="../PersonThing.md" xlink:title="&lt;TABLE&gt;">
<polygon fill="lightgray" stroke="none" points="132.5,-270.88 132.5,-287.12 203.5,-287.12 203.5,-270.88 132.5,-270.88"/>
<text xml:space="preserve" text-anchor="start" x="133.5" y="-274.73" font-family="Arial" font-size="12.00">PersonThing</text>
<polygon fill="none" stroke="black" points="131.5,-269.88 131.5,-288.12 204.5,-288.12 204.5,-269.88 131.5,-269.88"/>
</a>
</g>
</g>
<!-- Citizenship&#45;&gt;PersonThing -->
<g id="edge1" class="edge">
<title>Citizenship&#45;&gt;PersonThing</title>
<path fill="none" stroke="black" d="M168,-223.71C168,-231.47 168,-240.92 168,-249.74"/>
<polygon fill="none" stroke="black" points="164.5,-249.66 168,-259.66 171.5,-249.66 164.5,-249.66"/>
</g>
<!-- Invis&#45;&gt;Country -->
<!-- Country&#45;&gt;time_ProperInterval -->
</g>
</svg>
