<?xml version="1.0" encoding="UTF-8" standalone="no"?>
<!DOCTYPE svg PUBLIC "-//W3C//DTD SVG 1.1//EN"
 "http://www.w3.org/Graphics/SVG/1.1/DTD/svg11.dtd">
<!-- Generated by graphviz version 14.0.2 (20251019.1705)
 -->
<!-- Pages: 1 -->
<svg width="280pt" height="132pt"
 viewBox="0.00 0.00 280.00 132.00" xmlns="http://www.w3.org/2000/svg" xmlns:xlink="http://www.w3.org/1999/xlink">
<g id="graph0" class="graph" transform="scale(1 1) rotate(0) translate(4 128)">
<polygon fill="white" stroke="none" points="-4,4 -4,-128 275.62,-128 275.62,4 -4,4"/>
<g id="clust2" class="cluster">
<title>cluster_associated</title>
</g>
<!-- City -->
<g id="node1" class="node">
<title>City</title>
<g id="a_node1"><a xlink:href="../City.md" xlink:title="&lt;TABLE&gt;">
<polygon fill="lightgray" stroke="none" points="1,-34 1,-50.25 182.25,-50.25 182.25,-34 1,-34"/>
<text xml:space="preserve" text-anchor="start" x="81.12" y="-37.85" font-family="Arial" font-size="12.00">City</text>
<text xml:space="preserve" text-anchor="start" x="2" y="-21.6" font-family="Arial" font-size="12.00">«exactly 1» legalName: xsd:string</text>
<polygon fill="black" stroke="black" points="0,-34 0,-34 183.25,-34 183.25,-34 0,-34"/>
<polygon fill="none" stroke="black" points="0,-16.75 0,-51.25 183.25,-51.25 183.25,-16.75 0,-16.75"/>
</a>
</g>
</g>
<!-- JurisdictionalArea -->
<g id="node3" class="node">
<title>JurisdictionalArea</title>
<g id="a_node3"><a xlink:href="../JurisdictionalArea.md" xlink:title="&lt;TABLE&gt;">
<polygon fill="lightgray" stroke="none" points="42.62,-97.88 42.62,-114.12 140.62,-114.12 140.62,-97.88 42.62,-97.88"/>
<text xml:space="preserve" text-anchor="start" x="43.62" y="-101.72" font-family="Arial" font-size="12.00">JurisdictionalArea</text>
<polygon fill="none" stroke="black" points="41.62,-96.88 41.62,-115.12 141.62,-115.12 141.62,-96.88 41.62,-96.88"/>
</a>
</g>
</g>
<!-- City&#45;&gt;JurisdictionalArea -->
<g id="edge1" class="edge">
<title>City&#45;&gt;JurisdictionalArea</title>
<path fill="none" stroke="black" d="M91.62,-51.79C91.62,-59.25 91.62,-68.24 91.62,-76.69"/>
<polygon fill="none" stroke="black" points="88.13,-76.54 91.63,-86.54 95.13,-76.54 88.13,-76.54"/>
</g>
<!-- Invis -->
</g>
</svg>
