<?xml version="1.0" encoding="UTF-8" standalone="no"?>
<!DOCTYPE svg PUBLIC "-//W3C//DTD SVG 1.1//EN"
 "http://www.w3.org/Graphics/SVG/1.1/DTD/svg11.dtd">
<!-- Generated by graphviz version 14.0.2 (20251019.1705)
 -->
<!-- Pages: 1 -->
<svg width="268pt" height="232pt"
 viewBox="0.00 0.00 268.00 232.00" xmlns="http://www.w3.org/2000/svg" xmlns:xlink="http://www.w3.org/1999/xlink">
<g id="graph0" class="graph" transform="scale(1 1) rotate(0) translate(4 228)">
<polygon fill="white" stroke="none" points="-4,4 -4,-228 263.5,-228 263.5,4 -4,4"/>
<g id="clust2" class="cluster">
<title>cluster_associated</title>
</g>
<!-- ContractualCommitment -->
<g id="node1" class="node">
<title>ContractualCommitment</title>
<g id="a_node1"><a xlink:href="../ContractualCommitment.md" xlink:title="&lt;TABLE&gt;">
<polygon fill="lightgray" stroke="none" points="127.5,-124.88 127.5,-141.12 258.5,-141.12 258.5,-124.88 127.5,-124.88"/>
<text xml:space="preserve" text-anchor="start" x="128.5" y="-128.72" font-family="Arial" font-size="12.00">ContractualCommitment</text>
<polygon fill="none" stroke="black" points="126.5,-123.88 126.5,-142.12 259.5,-142.12 259.5,-123.88 126.5,-123.88"/>
</a>
</g>
</g>
<!-- Invis -->
<!-- ContractualCommitment&#45;&gt;Invis -->
<!-- cdm1_Agreement -->
<g id="node3" class="node">
<title>cdm1_Agreement</title>
<polygon fill="lightgray" stroke="none" points="16.62,-25.88 16.62,-42.12 109.38,-42.12 109.38,-25.88 16.62,-25.88"/>
<text xml:space="preserve" text-anchor="start" x="17.62" y="-29.73" font-family="Arial" font-size="12.00">cdm1:Agreement</text>
<polygon fill="none" stroke="black" points="15.62,-24.88 15.62,-43.12 110.38,-43.12 110.38,-24.88 15.62,-24.88"/>
</g>
<!-- ContractualCommitment&#45;&gt;cdm1_Agreement -->
<g id="edge4" class="edge">
<title>ContractualCommitment&#45;&gt;cdm1_Agreement</title>
<path fill="none" stroke="black" d="M170.36,-115.1C149.38,-99.46 117.99,-76.03 94.57,-58.55"/>
<polygon fill="black" stroke="black" points="96.71,-55.78 86.6,-52.61 92.52,-61.39 96.71,-55.78"/>
<text xml:space="preserve" text-anchor="middle" x="193.72" y="-86.55" font-family="Arial" font-size="11.00"> specifiesAgreement </text>
<text xml:space="preserve" text-anchor="middle" x="193.72" y="-73.05" font-family="Arial" font-size="11.00"> «only» &#160;</text>
</g>
<!-- ContractualElement -->
<g id="node4" class="node">
<title>ContractualElement</title>
<g id="a_node4"><a xlink:href="../ContractualElement.md" xlink:title="&lt;TABLE&gt;">
<polygon fill="lightgray" stroke="none" points="139.12,-197.88 139.12,-214.12 246.88,-214.12 246.88,-197.88 139.12,-197.88"/>
<text xml:space="preserve" text-anchor="start" x="140.12" y="-201.72" font-family="Arial" font-size="12.00">ContractualElement</text>
<polygon fill="none" stroke="black" points="138.12,-196.88 138.12,-215.12 247.88,-215.12 247.88,-196.88 138.12,-196.88"/>
</a>
</g>
</g>
<!-- ContractualCommitment&#45;&gt;ContractualElement -->
<g id="edge1" class="edge">
<title>ContractualCommitment&#45;&gt;ContractualElement</title>
<path fill="none" stroke="black" d="M193,-150.71C193,-158.47 193,-167.92 193,-176.74"/>
<polygon fill="none" stroke="black" points="189.5,-176.66 193,-186.66 196.5,-176.66 189.5,-176.66"/>
</g>
<!-- Invis&#45;&gt;cdm1_Agreement -->
</g>
</svg>
