<?xml version="1.0" encoding="UTF-8" standalone="no"?>
<!DOCTYPE svg PUBLIC "-//W3C//DTD SVG 1.1//EN"
 "http://www.w3.org/Graphics/SVG/1.1/DTD/svg11.dtd">
<!-- Generated by graphviz version 14.0.2 (20251019.1705)
 -->
<!-- Pages: 1 -->
<svg width="307pt" height="232pt"
 viewBox="0.00 0.00 307.00 232.00" xmlns="http://www.w3.org/2000/svg" xmlns:xlink="http://www.w3.org/1999/xlink">
<g id="graph0" class="graph" transform="scale(1 1) rotate(0) translate(4 228)">
<polygon fill="white" stroke="none" points="-4,4 -4,-228 302.5,-228 302.5,4 -4,4"/>
<g id="clust2" class="cluster">
<title>cluster_associated</title>
</g>
<!-- ContractualElement -->
<g id="node1" class="node">
<title>ContractualElement</title>
<g id="a_node1"><a xlink:href="../ContractualElement.md" xlink:title="&lt;TABLE&gt;">
<polygon fill="lightgray" stroke="none" points="106.5,-133 106.5,-149.25 297.5,-149.25 297.5,-133 106.5,-133"/>
<text xml:space="preserve" text-anchor="start" x="149.12" y="-136.85" font-family="Arial" font-size="12.00">ContractualElement</text>
<text xml:space="preserve" text-anchor="start" x="107.5" y="-120.6" font-family="Arial" font-size="12.00">«some» hasContractText: xsd:string</text>
<polygon fill="black" stroke="black" points="105.5,-133 105.5,-133 298.5,-133 298.5,-133 105.5,-133"/>
<polygon fill="none" stroke="black" points="105.5,-115.75 105.5,-150.25 298.5,-150.25 298.5,-115.75 105.5,-115.75"/>
</a>
</g>
</g>
<!-- Invis -->
<!-- ContractualElement&#45;&gt;Invis -->
<!-- ContractThing -->
<g id="node4" class="node">
<title>ContractThing</title>
<g id="a_node4"><a xlink:href="../ContractThing.md" xlink:title="&lt;TABLE&gt;">
<polygon fill="lightgray" stroke="none" points="163.12,-197.88 163.12,-214.12 240.88,-214.12 240.88,-197.88 163.12,-197.88"/>
<text xml:space="preserve" text-anchor="start" x="164.12" y="-201.72" font-family="Arial" font-size="12.00">ContractThing</text>
<polygon fill="none" stroke="black" points="162.12,-196.88 162.12,-215.12 241.88,-215.12 241.88,-196.88 162.12,-196.88"/>
</a>
</g>
</g>
<!-- ContractualElement&#45;&gt;ContractThing -->
<g id="edge1" class="edge">
<title>ContractualElement&#45;&gt;ContractThing</title>
<path fill="none" stroke="black" d="M202,-150.71C202,-158.47 202,-167.92 202,-176.74"/>
<polygon fill="none" stroke="black" points="198.5,-176.66 202,-186.66 205.5,-176.66 198.5,-176.66"/>
</g>
<!-- Contract -->
<g id="node3" class="node">
<title>Contract</title>
<g id="a_node3"><a xlink:href="../Contract.md" xlink:title="&lt;TABLE&gt;">
<polygon fill="lightgray" stroke="none" points="19.5,-25.88 19.5,-42.12 66.5,-42.12 66.5,-25.88 19.5,-25.88"/>
<text xml:space="preserve" text-anchor="start" x="20.5" y="-29.73" font-family="Arial" font-size="12.00">Contract</text>
<polygon fill="none" stroke="black" points="18.5,-24.88 18.5,-43.12 67.5,-43.12 67.5,-24.88 18.5,-24.88"/>
</a>
</g>
</g>
<!-- Invis&#45;&gt;Contract -->
<!-- Contract&#45;&gt;ContractualElement -->
<g id="edge4" class="edge">
<title>Contract&#45;&gt;ContractualElement</title>
<path fill="none" stroke="black" d="M69.85,-51.38C96.16,-67.43 136.46,-92.01 165.63,-109.81"/>
<polygon fill="black" stroke="black" points="172.05,-117.83 165.34,-109.64 175.7,-111.86 172.05,-117.83"/>
<text xml:space="preserve" text-anchor="middle" x="219.42" y="-86.55" font-family="Arial" font-size="11.00"> inverse hasContractualElement </text>
<text xml:space="preserve" text-anchor="middle" x="219.42" y="-73.05" font-family="Arial" font-size="11.00"> «some» &#160;</text>
</g>
</g>
</svg>
