<?xml version="1.0" encoding="UTF-8" standalone="no"?>
<!DOCTYPE svg PUBLIC "-//W3C//DTD SVG 1.1//EN"
 "http://www.w3.org/Graphics/SVG/1.1/DTD/svg11.dtd">
<!-- Generated by graphviz version 14.0.2 (20251019.1705)
 -->
<!-- Pages: 1 -->
<svg width="188pt" height="232pt"
 viewBox="0.00 0.00 188.00 232.00" xmlns="http://www.w3.org/2000/svg" xmlns:xlink="http://www.w3.org/1999/xlink">
<g id="graph0" class="graph" transform="scale(1 1) rotate(0) translate(4 228)">
<polygon fill="white" stroke="none" points="-4,4 -4,-228 183.62,-228 183.62,4 -4,4"/>
<g id="clust2" class="cluster">
<title>cluster_associated</title>
</g>
<!-- IndustryType -->
<g id="node1" class="node">
<title>IndustryType</title>
<g id="a_node1"><a xlink:href="../IndustryType.md" xlink:title="&lt;TABLE&gt;">
<polygon fill="lightgray" stroke="none" points="106.88,-124.88 106.88,-141.12 177.12,-141.12 177.12,-124.88 106.88,-124.88"/>
<text xml:space="preserve" text-anchor="start" x="107.88" y="-128.72" font-family="Arial" font-size="12.00">IndustryType</text>
<polygon fill="none" stroke="black" points="105.88,-123.88 105.88,-142.12 178.12,-142.12 178.12,-123.88 105.88,-123.88"/>
</a>
</g>
</g>
<!-- Invis -->
<!-- IndustryType&#45;&gt;Invis -->
<!-- Code -->
<g id="node3" class="node">
<title>Code</title>
<g id="a_node3"><a xlink:href="../Code.md" xlink:title="&lt;TABLE&gt;">
<polygon fill="lightgray" stroke="none" points="27.38,-25.88 27.38,-42.12 58.62,-42.12 58.62,-25.88 27.38,-25.88"/>
<text xml:space="preserve" text-anchor="start" x="28.38" y="-29.73" font-family="Arial" font-size="12.00">Code</text>
<polygon fill="none" stroke="black" points="26.38,-24.88 26.38,-43.12 59.62,-43.12 59.62,-24.88 26.38,-24.88"/>
</a>
</g>
</g>
<!-- IndustryType&#45;&gt;Code -->
<g id="edge4" class="edge">
<title>IndustryType&#45;&gt;Code</title>
<path fill="none" stroke="black" d="M124.76,-115.1C109.14,-99.8 85.94,-77.07 68.24,-59.73"/>
<polygon fill="black" stroke="black" points="70.72,-57.26 61.13,-52.76 65.82,-62.26 70.72,-57.26"/>
<text xml:space="preserve" text-anchor="middle" x="129.03" y="-86.55" font-family="Arial" font-size="11.00"> hasCode </text>
<text xml:space="preserve" text-anchor="middle" x="129.03" y="-73.05" font-family="Arial" font-size="11.00"> «only» &#160;</text>
</g>
<!-- CityOrgThing -->
<g id="node4" class="node">
<title>CityOrgThing</title>
<g id="a_node4"><a xlink:href="../CityOrgThing.md" xlink:title="&lt;TABLE&gt;">
<polygon fill="lightgray" stroke="none" points="105.38,-197.88 105.38,-214.12 178.62,-214.12 178.62,-197.88 105.38,-197.88"/>
<text xml:space="preserve" text-anchor="start" x="106.38" y="-201.72" font-family="Arial" font-size="12.00">CityOrgThing</text>
<polygon fill="none" stroke="black" points="104.38,-196.88 104.38,-215.12 179.62,-215.12 179.62,-196.88 104.38,-196.88"/>
</a>
</g>
</g>
<!-- IndustryType&#45;&gt;CityOrgThing -->
<g id="edge1" class="edge">
<title>IndustryType&#45;&gt;CityOrgThing</title>
<path fill="none" stroke="black" d="M142,-150.71C142,-158.47 142,-167.92 142,-176.74"/>
<polygon fill="none" stroke="black" points="138.5,-176.66 142,-186.66 145.5,-176.66 138.5,-176.66"/>
</g>
<!-- Invis&#45;&gt;Code -->
</g>
</svg>
