<?xml version="1.0" encoding="UTF-8" standalone="no"?>
<!DOCTYPE svg PUBLIC "-//W3C//DTD SVG 1.1//EN"
 "http://www.w3.org/Graphics/SVG/1.1/DTD/svg11.dtd">
<!-- Generated by graphviz version 14.0.2 (20251019.1705)
 -->
<!-- Pages: 1 -->
<svg width="284pt" height="404pt"
 viewBox="0.00 0.00 284.00 404.00" xmlns="http://www.w3.org/2000/svg" xmlns:xlink="http://www.w3.org/1999/xlink">
<g id="graph0" class="graph" transform="scale(1 1) rotate(0) translate(4 400)">
<polygon fill="white" stroke="none" points="-4,4 -4,-400 279.75,-400 279.75,4 -4,4"/>
<g id="clust2" class="cluster">
<title>cluster_associated</title>
</g>
<!-- LandArea -->
<g id="node1" class="node">
<title>LandArea</title>
<g id="a_node1"><a xlink:href="../LandArea.md" xlink:title="&lt;TABLE&gt;">
<polygon fill="lightgray" stroke="none" points="156.75,-296.88 156.75,-313.12 211.25,-313.12 211.25,-296.88 156.75,-296.88"/>
<text xml:space="preserve" text-anchor="start" x="157.75" y="-300.73" font-family="Arial" font-size="12.00">LandArea</text>
<polygon fill="none" stroke="black" points="155.75,-295.88 155.75,-314.12 212.25,-314.12 212.25,-295.88 155.75,-295.88"/>
</a>
</g>
</g>
<!-- Invis -->
<!-- LandArea&#45;&gt;Invis -->
<!-- cdm1_Area -->
<g id="node3" class="node">
<title>cdm1_Area</title>
<polygon fill="lightgray" stroke="none" points="59.12,-197.88 59.12,-214.12 118.88,-214.12 118.88,-197.88 59.12,-197.88"/>
<text xml:space="preserve" text-anchor="start" x="60.12" y="-201.72" font-family="Arial" font-size="12.00">cdm1:Area</text>
<polygon fill="none" stroke="black" points="58.12,-196.88 58.12,-215.12 119.88,-215.12 119.88,-196.88 58.12,-196.88"/>
</g>
<!-- LandArea&#45;&gt;cdm1_Area -->
<g id="edge7" class="edge">
<title>LandArea&#45;&gt;cdm1_Area</title>
<path fill="none" stroke="black" d="M155.85,-288.73C154.56,-288.13 153.27,-287.55 152,-287 128.96,-277.08 114.65,-288.2 98.5,-269 90.75,-259.78 87.92,-246.96 87.21,-235.37"/>
<polygon fill="black" stroke="black" points="90.71,-235.42 87.13,-225.44 83.71,-235.47 90.71,-235.42"/>
<text xml:space="preserve" text-anchor="middle" x="121.75" y="-258.55" font-family="Arial" font-size="11.00"> hasArea </text>
<text xml:space="preserve" text-anchor="middle" x="121.75" y="-245.05" font-family="Arial" font-size="11.00"> «only» &#160;</text>
</g>
<!-- i72_Population -->
<g id="node4" class="node">
<title>i72_Population</title>
<polygon fill="lightgray" stroke="none" points="49.38,-98.88 49.38,-115.12 128.62,-115.12 128.62,-98.88 49.38,-98.88"/>
<text xml:space="preserve" text-anchor="start" x="50.38" y="-102.72" font-family="Arial" font-size="12.00">i72:Population</text>
<polygon fill="none" stroke="black" points="48.38,-97.88 48.38,-116.12 129.62,-116.12 129.62,-97.88 48.38,-97.88"/>
</g>
<!-- LandArea&#45;&gt;i72_Population -->
<g id="edge9" class="edge">
<title>LandArea&#45;&gt;i72_Population</title>
<path fill="none" stroke="black" d="M176.09,-287.04C165.51,-264.4 146.08,-223.07 129,-188 120.33,-170.19 110.37,-150.27 102.55,-134.76"/>
<polygon fill="black" stroke="black" points="105.84,-133.51 98.21,-126.16 99.59,-136.66 105.84,-133.51"/>
<text xml:space="preserve" text-anchor="middle" x="183.14" y="-209.05" font-family="Arial" font-size="11.00"> hasPopulation </text>
<text xml:space="preserve" text-anchor="middle" x="183.14" y="-195.55" font-family="Arial" font-size="11.00"> «only» &#160;</text>
</g>
<!-- LandUseClassification -->
<g id="node5" class="node">
<title>LandUseClassification</title>
<g id="a_node5"><a xlink:href="../LandUseClassification.md" xlink:title="&lt;TABLE&gt;">
<polygon fill="lightgray" stroke="none" points="16.62,-25.88 16.62,-42.12 139.38,-42.12 139.38,-25.88 16.62,-25.88"/>
<text xml:space="preserve" text-anchor="start" x="17.62" y="-29.73" font-family="Arial" font-size="12.00">LandUseClassification</text>
<polygon fill="none" stroke="black" points="15.62,-24.88 15.62,-43.12 140.38,-43.12 140.38,-24.88 15.62,-24.88"/>
</a>
</g>
</g>
<!-- LandArea&#45;&gt;LandUseClassification -->
<g id="edge8" class="edge">
<title>LandArea&#45;&gt;LandUseClassification</title>
<path fill="none" stroke="black" d="M197.37,-287.01C213.5,-264.33 236.95,-222.96 224,-188 203.16,-131.74 149.45,-84.97 113.31,-58.49"/>
<polygon fill="black" stroke="black" points="115.48,-55.74 105.31,-52.77 111.41,-61.43 115.48,-55.74"/>
<text xml:space="preserve" text-anchor="middle" x="238" y="-159.55" font-family="Arial" font-size="11.00"> landUse </text>
<text xml:space="preserve" text-anchor="middle" x="238" y="-146.05" font-family="Arial" font-size="11.00"> «only» &#160;</text>
</g>
<!-- cdm1_Location -->
<g id="node6" class="node">
<title>cdm1_Location</title>
<polygon fill="lightgray" stroke="none" points="93,-369.88 93,-386.12 173,-386.12 173,-369.88 93,-369.88"/>
<text xml:space="preserve" text-anchor="start" x="94" y="-373.73" font-family="Arial" font-size="12.00">cdm1:Location</text>
<polygon fill="none" stroke="black" points="92,-368.88 92,-387.12 174,-387.12 174,-368.88 92,-368.88"/>
</g>
<!-- LandArea&#45;&gt;cdm1_Location -->
<g id="edge1" class="edge">
<title>LandArea&#45;&gt;cdm1_Location</title>
<path fill="none" stroke="black" d="M172,-322.71C165.98,-331.09 158.55,-341.43 151.79,-350.84"/>
<polygon fill="none" stroke="black" points="148.96,-348.78 145.97,-358.94 154.65,-352.86 148.96,-348.78"/>
</g>
<!-- LandUseThing -->
<g id="node7" class="node">
<title>LandUseThing</title>
<g id="a_node7"><a xlink:href="../LandUseThing.md" xlink:title="&lt;TABLE&gt;">
<polygon fill="lightgray" stroke="none" points="193.25,-369.88 193.25,-386.12 274.75,-386.12 274.75,-369.88 193.25,-369.88"/>
<text xml:space="preserve" text-anchor="start" x="194.25" y="-373.73" font-family="Arial" font-size="12.00">LandUseThing</text>
<polygon fill="none" stroke="black" points="192.25,-368.88 192.25,-387.12 275.75,-387.12 275.75,-368.88 192.25,-368.88"/>
</a>
</g>
</g>
<!-- LandArea&#45;&gt;LandUseThing -->
<g id="edge2" class="edge">
<title>LandArea&#45;&gt;LandUseThing</title>
<path fill="none" stroke="black" d="M195.76,-322.71C201.67,-331.09 208.95,-341.43 215.57,-350.84"/>
<polygon fill="none" stroke="black" points="212.66,-352.78 221.28,-358.94 218.38,-348.75 212.66,-352.78"/>
</g>
<!-- Invis&#45;&gt;cdm1_Area -->
<!-- cdm1_Area&#45;&gt;i72_Population -->
<!-- i72_Population&#45;&gt;LandUseClassification -->
</g>
</svg>
