<?xml version="1.0" encoding="UTF-8" standalone="no"?>
<!DOCTYPE svg PUBLIC "-//W3C//DTD SVG 1.1//EN"
 "http://www.w3.org/Graphics/SVG/1.1/DTD/svg11.dtd">
<!-- Generated by graphviz version 14.0.2 (20251019.1705)
 -->
<!-- Pages: 1 -->
<svg width="248pt" height="232pt"
 viewBox="0.00 0.00 248.00 232.00" xmlns="http://www.w3.org/2000/svg" xmlns:xlink="http://www.w3.org/1999/xlink">
<g id="graph0" class="graph" transform="scale(1 1) rotate(0) translate(4 228)">
<polygon fill="white" stroke="none" points="-4,4 -4,-228 243.75,-228 243.75,4 -4,4"/>
<g id="clust2" class="cluster">
<title>cluster_associated</title>
</g>
<!-- RoadSegment -->
<g id="node1" class="node">
<title>RoadSegment</title>
<g id="a_node1"><a xlink:href="../RoadSegment.md" xlink:title="&lt;TABLE&gt;">
<polygon fill="lightgray" stroke="none" points="137.38,-124.88 137.38,-141.12 216.62,-141.12 216.62,-124.88 137.38,-124.88"/>
<text xml:space="preserve" text-anchor="start" x="138.38" y="-128.72" font-family="Arial" font-size="12.00">RoadSegment</text>
<polygon fill="none" stroke="black" points="136.38,-123.88 136.38,-142.12 217.62,-142.12 217.62,-123.88 136.38,-123.88"/>
</a>
</g>
</g>
<!-- Invis -->
<!-- RoadSegment&#45;&gt;Invis -->
<!-- RoadNetworkType -->
<g id="node3" class="node">
<title>RoadNetworkType</title>
<g id="a_node3"><a xlink:href="../RoadNetworkType.md" xlink:title="&lt;TABLE&gt;">
<polygon fill="lightgray" stroke="none" points="17.12,-25.88 17.12,-42.12 118.88,-42.12 118.88,-25.88 17.12,-25.88"/>
<text xml:space="preserve" text-anchor="start" x="18.12" y="-29.73" font-family="Arial" font-size="12.00">RoadNetworkType</text>
<polygon fill="none" stroke="black" points="16.12,-24.88 16.12,-43.12 119.88,-43.12 119.88,-24.88 16.12,-24.88"/>
</a>
</g>
</g>
<!-- RoadSegment&#45;&gt;RoadNetworkType -->
<g id="edge4" class="edge">
<title>RoadSegment&#45;&gt;RoadNetworkType</title>
<path fill="none" stroke="black" d="M158.01,-115.1C140.66,-99.66 114.81,-76.66 95.26,-59.26"/>
<polygon fill="black" stroke="black" points="97.7,-56.74 87.9,-52.71 93.04,-61.97 97.7,-56.74"/>
<text xml:space="preserve" text-anchor="middle" x="169.22" y="-86.55" font-family="Arial" font-size="11.00"> networkType </text>
<text xml:space="preserve" text-anchor="middle" x="169.22" y="-73.05" font-family="Arial" font-size="11.00"> «only» &#160;</text>
</g>
<!-- TravelledWaySegment -->
<g id="node4" class="node">
<title>TravelledWaySegment</title>
<g id="a_node4"><a xlink:href="../TravelledWaySegment.md" xlink:title="&lt;TABLE&gt;">
<polygon fill="lightgray" stroke="none" points="115.25,-197.88 115.25,-214.12 238.75,-214.12 238.75,-197.88 115.25,-197.88"/>
<text xml:space="preserve" text-anchor="start" x="116.25" y="-201.72" font-family="Arial" font-size="12.00">TravelledWaySegment</text>
<polygon fill="none" stroke="black" points="114.25,-196.88 114.25,-215.12 239.75,-215.12 239.75,-196.88 114.25,-196.88"/>
</a>
</g>
</g>
<!-- RoadSegment&#45;&gt;TravelledWaySegment -->
<g id="edge1" class="edge">
<title>RoadSegment&#45;&gt;TravelledWaySegment</title>
<path fill="none" stroke="black" d="M177,-150.71C177,-158.47 177,-167.92 177,-176.74"/>
<polygon fill="none" stroke="black" points="173.5,-176.66 177,-186.66 180.5,-176.66 173.5,-176.66"/>
</g>
<!-- Invis&#45;&gt;RoadNetworkType -->
</g>
</svg>
