<?xml version="1.0" encoding="UTF-8" standalone="no"?>
<!DOCTYPE svg PUBLIC "-//W3C//DTD SVG 1.1//EN"
 "http://www.w3.org/Graphics/SVG/1.1/DTD/svg11.dtd">
<!-- Generated by graphviz version 14.0.2 (20251019.1705)
 -->
<!-- Pages: 1 -->
<svg width="241pt" height="404pt"
 viewBox="0.00 0.00 241.00 404.00" xmlns="http://www.w3.org/2000/svg" xmlns:xlink="http://www.w3.org/1999/xlink">
<g id="graph0" class="graph" transform="scale(1 1) rotate(0) translate(4 400)">
<polygon fill="white" stroke="none" points="-4,4 -4,-400 236.78,-400 236.78,4 -4,4"/>
<g id="clust2" class="cluster">
<title>cluster_associated</title>
</g>
<!-- Role -->
<g id="node1" class="node">
<title>Role</title>
<g id="a_node1"><a xlink:href="../Role.md" xlink:title="&lt;TABLE&gt;">
<polygon fill="lightgray" stroke="none" points="133.25,-296.88 133.25,-313.12 160.75,-313.12 160.75,-296.88 133.25,-296.88"/>
<text xml:space="preserve" text-anchor="start" x="134.25" y="-300.73" font-family="Arial" font-size="12.00">Role</text>
<polygon fill="none" stroke="black" points="132.25,-295.88 132.25,-314.12 161.75,-314.12 161.75,-295.88 132.25,-295.88"/>
</a>
</g>
</g>
<!-- Invis -->
<!-- Role&#45;&gt;Invis -->
<!-- cdm1_Activity -->
<g id="node3" class="node">
<title>cdm1_Activity</title>
<polygon fill="lightgray" stroke="none" points="23.75,-197.88 23.75,-214.12 96.25,-214.12 96.25,-197.88 23.75,-197.88"/>
<text xml:space="preserve" text-anchor="start" x="24.75" y="-201.72" font-family="Arial" font-size="12.00">cdm1:Activity</text>
<polygon fill="none" stroke="black" points="22.75,-196.88 22.75,-215.12 97.25,-215.12 97.25,-196.88 22.75,-196.88"/>
</g>
<!-- Role&#45;&gt;cdm1_Activity -->
<g id="edge8" class="edge">
<title>Role&#45;&gt;cdm1_Activity</title>
<path fill="none" stroke="black" d="M120.08,-288.91C118.71,-288.24 117.34,-287.6 116,-287 94.37,-277.27 80.29,-287.75 65.75,-269 58.42,-259.55 56.35,-246.7 56.37,-235.14"/>
<polygon fill="black" stroke="black" points="59.85,-235.46 56.92,-225.28 52.87,-235.07 59.85,-235.46"/>
<text xml:space="preserve" text-anchor="middle" x="96.88" y="-258.55" font-family="Arial" font-size="11.00"> hasProcess </text>
<text xml:space="preserve" text-anchor="middle" x="96.88" y="-245.05" font-family="Arial" font-size="11.00"> «only» &#160;</text>
</g>
<!-- cdm1_Resource -->
<g id="node4" class="node">
<title>cdm1_Resource</title>
<polygon fill="lightgray" stroke="none" points="17,-98.88 17,-115.12 103,-115.12 103,-98.88 17,-98.88"/>
<text xml:space="preserve" text-anchor="start" x="18" y="-102.72" font-family="Arial" font-size="12.00">cdm1:Resource</text>
<polygon fill="none" stroke="black" points="16,-97.88 16,-116.12 104,-116.12 104,-97.88 16,-97.88"/>
</g>
<!-- Role&#45;&gt;cdm1_Resource -->
<g id="edge9" class="edge">
<title>Role&#45;&gt;cdm1_Resource</title>
<path fill="none" stroke="black" d="M142.24,-287.02C138.62,-274.49 133.36,-257.06 128,-242 119.31,-217.59 117.37,-211.29 106,-188 97.09,-169.75 85.72,-149.96 76.52,-134.63"/>
<polygon fill="black" stroke="black" points="79.52,-132.83 71.34,-126.1 73.54,-136.46 79.52,-132.83"/>
<text xml:space="preserve" text-anchor="middle" x="156.44" y="-209.05" font-family="Arial" font-size="11.00"> hasResource </text>
<text xml:space="preserve" text-anchor="middle" x="156.44" y="-195.55" font-family="Arial" font-size="11.00"> «only» &#160;</text>
</g>
<!-- Goal -->
<g id="node5" class="node">
<title>Goal</title>
<g id="a_node5"><a xlink:href="../Goal.md" xlink:title="&lt;TABLE&gt;">
<polygon fill="lightgray" stroke="none" points="55.25,-25.88 55.25,-42.12 82.75,-42.12 82.75,-25.88 55.25,-25.88"/>
<text xml:space="preserve" text-anchor="start" x="56.25" y="-29.73" font-family="Arial" font-size="12.00">Goal</text>
<polygon fill="none" stroke="black" points="54.25,-24.88 54.25,-43.12 83.75,-43.12 83.75,-24.88 54.25,-24.88"/>
</a>
</g>
</g>
<!-- Role&#45;&gt;Goal -->
<g id="edge7" class="edge">
<title>Role&#45;&gt;Goal</title>
<path fill="none" stroke="black" d="M162.24,-287.29C180.72,-264.93 207.88,-223.9 195,-188 175.86,-134.64 129.17,-86.6 98.32,-59.13"/>
<polygon fill="black" stroke="black" points="100.67,-56.53 90.83,-52.6 96.07,-61.81 100.67,-56.53"/>
<text xml:space="preserve" text-anchor="middle" x="209.9" y="-159.55" font-family="Arial" font-size="11.00"> hasGoal </text>
<text xml:space="preserve" text-anchor="middle" x="209.9" y="-146.05" font-family="Arial" font-size="11.00"> «only» &#160;</text>
</g>
<!-- CityOrgThing -->
<g id="node6" class="node">
<title>CityOrgThing</title>
<g id="a_node6"><a xlink:href="../CityOrgThing.md" xlink:title="&lt;TABLE&gt;">
<polygon fill="lightgray" stroke="none" points="68.38,-369.88 68.38,-386.12 141.62,-386.12 141.62,-369.88 68.38,-369.88"/>
<text xml:space="preserve" text-anchor="start" x="69.38" y="-373.73" font-family="Arial" font-size="12.00">CityOrgThing</text>
<polygon fill="none" stroke="black" points="67.38,-368.88 67.38,-387.12 142.62,-387.12 142.62,-368.88 67.38,-368.88"/>
</a>
</g>
</g>
<!-- Role&#45;&gt;CityOrgThing -->
<g id="edge1" class="edge">
<title>Role&#45;&gt;CityOrgThing</title>
<path fill="none" stroke="black" d="M137.12,-322.71C132.21,-331 126.17,-341.21 120.65,-350.54"/>
<polygon fill="none" stroke="black" points="117.8,-348.48 115.72,-358.87 123.83,-352.05 117.8,-348.48"/>
</g>
<!-- org_Role -->
<g id="node7" class="node">
<title>org_Role</title>
<polygon fill="lightgray" stroke="none" points="164.12,-369.88 164.12,-386.12 211.88,-386.12 211.88,-369.88 164.12,-369.88"/>
<text xml:space="preserve" text-anchor="start" x="165.12" y="-373.73" font-family="Arial" font-size="12.00">org:Role</text>
<polygon fill="none" stroke="black" points="163.12,-368.88 163.12,-387.12 212.88,-387.12 212.88,-368.88 163.12,-368.88"/>
</g>
<!-- Role&#45;&gt;org_Role -->
<g id="edge2" class="edge">
<title>Role&#45;&gt;org_Role</title>
<path fill="none" stroke="black" d="M156.65,-322.71C161.38,-330.91 167.21,-341 172.55,-350.24"/>
<polygon fill="none" stroke="black" points="169.49,-351.95 177.53,-358.86 175.56,-348.45 169.49,-351.95"/>
</g>
<!-- Invis&#45;&gt;cdm1_Activity -->
<!-- cdm1_Activity&#45;&gt;cdm1_Resource -->
<!-- cdm1_Resource&#45;&gt;Goal -->
</g>
</svg>
