<?xml version="1.0" encoding="UTF-8" standalone="no"?>
<!DOCTYPE svg PUBLIC "-//W3C//DTD SVG 1.1//EN"
 "http://www.w3.org/Graphics/SVG/1.1/DTD/svg11.dtd">
<!-- Generated by graphviz version 14.0.2 (20251019.1705)
 -->
<!-- Pages: 1 -->
<svg width="175pt" height="232pt"
 viewBox="0.00 0.00 175.00 232.00" xmlns="http://www.w3.org/2000/svg" xmlns:xlink="http://www.w3.org/1999/xlink">
<g id="graph0" class="graph" transform="scale(1 1) rotate(0) translate(4 228)">
<polygon fill="white" stroke="none" points="-4,4 -4,-228 170.88,-228 170.88,4 -4,4"/>
<g id="clust2" class="cluster">
<title>cluster_associated</title>
</g>
<!-- Schedule -->
<g id="node1" class="node">
<title>Schedule</title>
<g id="a_node1"><a xlink:href="../Schedule.md" xlink:title="&lt;TABLE&gt;">
<polygon fill="lightgray" stroke="none" points="106.5,-124.88 106.5,-141.12 159.5,-141.12 159.5,-124.88 106.5,-124.88"/>
<text xml:space="preserve" text-anchor="start" x="107.5" y="-128.72" font-family="Arial" font-size="12.00">Schedule</text>
<polygon fill="none" stroke="black" points="105.5,-123.88 105.5,-142.12 160.5,-142.12 160.5,-123.88 105.5,-123.88"/>
</a>
</g>
</g>
<!-- Invis -->
<!-- Schedule&#45;&gt;Invis -->
<!-- Clause -->
<g id="node3" class="node">
<title>Clause</title>
<g id="a_node3"><a xlink:href="../Clause.md" xlink:title="&lt;TABLE&gt;">
<polygon fill="lightgray" stroke="none" points="22.88,-25.88 22.88,-42.12 63.12,-42.12 63.12,-25.88 22.88,-25.88"/>
<text xml:space="preserve" text-anchor="start" x="23.88" y="-29.73" font-family="Arial" font-size="12.00">Clause</text>
<polygon fill="none" stroke="black" points="21.88,-24.88 21.88,-43.12 64.12,-43.12 64.12,-24.88 21.88,-24.88"/>
</a>
</g>
</g>
<!-- Schedule&#45;&gt;Clause -->
<g id="edge4" class="edge">
<title>Schedule&#45;&gt;Clause</title>
<path fill="none" stroke="black" d="M117.32,-115.1C103.13,-99.8 82.04,-77.07 65.94,-59.73"/>
<polygon fill="black" stroke="black" points="68.89,-57.76 59.53,-52.81 63.76,-62.52 68.89,-57.76"/>
<text xml:space="preserve" text-anchor="middle" x="127.21" y="-86.55" font-family="Arial" font-size="11.00"> hasClause </text>
<text xml:space="preserve" text-anchor="middle" x="127.21" y="-73.05" font-family="Arial" font-size="11.00"> «only» &#160;</text>
</g>
<!-- BylawThing -->
<g id="node4" class="node">
<title>BylawThing</title>
<g id="a_node4"><a xlink:href="../BylawThing.md" xlink:title="&lt;TABLE&gt;">
<polygon fill="lightgray" stroke="none" points="100.12,-197.88 100.12,-214.12 165.88,-214.12 165.88,-197.88 100.12,-197.88"/>
<text xml:space="preserve" text-anchor="start" x="101.12" y="-201.72" font-family="Arial" font-size="12.00">BylawThing</text>
<polygon fill="none" stroke="black" points="99.12,-196.88 99.12,-215.12 166.88,-215.12 166.88,-196.88 99.12,-196.88"/>
</a>
</g>
</g>
<!-- Schedule&#45;&gt;BylawThing -->
<g id="edge1" class="edge">
<title>Schedule&#45;&gt;BylawThing</title>
<path fill="none" stroke="black" d="M133,-150.71C133,-158.47 133,-167.92 133,-176.74"/>
<polygon fill="none" stroke="black" points="129.5,-176.66 133,-186.66 136.5,-176.66 129.5,-176.66"/>
</g>
<!-- Invis&#45;&gt;Clause -->
</g>
</svg>
