<?xml version="1.0" encoding="UTF-8" standalone="no"?>
<!DOCTYPE svg PUBLIC "-//W3C//DTD SVG 1.1//EN"
 "http://www.w3.org/Graphics/SVG/1.1/DTD/svg11.dtd">
<!-- Generated by graphviz version 14.0.2 (20251019.1705)
 -->
<!-- Pages: 1 -->
<svg width="197pt" height="232pt"
 viewBox="0.00 0.00 197.00 232.00" xmlns="http://www.w3.org/2000/svg" xmlns:xlink="http://www.w3.org/1999/xlink">
<g id="graph0" class="graph" transform="scale(1 1) rotate(0) translate(4 228)">
<polygon fill="white" stroke="none" points="-4,4 -4,-228 192.75,-228 192.75,4 -4,4"/>
<g id="clust2" class="cluster">
<title>cluster_associated</title>
</g>
<!-- StreetDirection -->
<g id="node1" class="node">
<title>StreetDirection</title>
<g id="a_node1"><a xlink:href="../StreetDirection.md" xlink:title="&lt;TABLE&gt;">
<polygon fill="lightgray" stroke="none" points="106.25,-124.88 106.25,-141.12 187.75,-141.12 187.75,-124.88 106.25,-124.88"/>
<text xml:space="preserve" text-anchor="start" x="107.25" y="-128.72" font-family="Arial" font-size="12.00">StreetDirection</text>
<polygon fill="none" stroke="black" points="105.25,-123.88 105.25,-142.12 188.75,-142.12 188.75,-123.88 105.25,-123.88"/>
</a>
</g>
</g>
<!-- Invis -->
<!-- StreetDirection&#45;&gt;Invis -->
<!-- Code -->
<g id="node3" class="node">
<title>Code</title>
<g id="a_node3"><a xlink:href="../Code.md" xlink:title="&lt;TABLE&gt;">
<polygon fill="lightgray" stroke="none" points="27.38,-25.88 27.38,-42.12 58.62,-42.12 58.62,-25.88 27.38,-25.88"/>
<text xml:space="preserve" text-anchor="start" x="28.38" y="-29.73" font-family="Arial" font-size="12.00">Code</text>
<polygon fill="none" stroke="black" points="26.38,-24.88 26.38,-43.12 59.62,-43.12 59.62,-24.88 26.38,-24.88"/>
</a>
</g>
</g>
<!-- StreetDirection&#45;&gt;Code -->
<g id="edge4" class="edge">
<title>StreetDirection&#45;&gt;Code</title>
<path fill="none" stroke="black" d="M128.88,-115.1C112.41,-99.73 87.89,-76.86 69.26,-59.49"/>
<polygon fill="black" stroke="black" points="71.71,-57 62.01,-52.73 66.94,-62.12 71.71,-57"/>
<text xml:space="preserve" text-anchor="middle" x="132.12" y="-86.55" font-family="Arial" font-size="11.00"> hasCode </text>
<text xml:space="preserve" text-anchor="middle" x="132.12" y="-73.05" font-family="Arial" font-size="11.00"> «only» &#160;</text>
</g>
<!-- ContactThing -->
<g id="node4" class="node">
<title>ContactThing</title>
<g id="a_node4"><a xlink:href="../ContactThing.md" xlink:title="&lt;TABLE&gt;">
<polygon fill="lightgray" stroke="none" points="110,-197.88 110,-214.12 184,-214.12 184,-197.88 110,-197.88"/>
<text xml:space="preserve" text-anchor="start" x="111" y="-201.72" font-family="Arial" font-size="12.00">ContactThing</text>
<polygon fill="none" stroke="black" points="109,-196.88 109,-215.12 185,-215.12 185,-196.88 109,-196.88"/>
</a>
</g>
</g>
<!-- StreetDirection&#45;&gt;ContactThing -->
<g id="edge1" class="edge">
<title>StreetDirection&#45;&gt;ContactThing</title>
<path fill="none" stroke="black" d="M147,-150.71C147,-158.47 147,-167.92 147,-176.74"/>
<polygon fill="none" stroke="black" points="143.5,-176.66 147,-186.66 150.5,-176.66 143.5,-176.66"/>
</g>
<!-- Invis&#45;&gt;Code -->
</g>
</svg>
